<?xml version="1.0" encoding="utf-8"?>
<!-- Generator: Adobe Illustrator 15.0.0, SVG Export Plug-In . SVG Version: 6.00 Build 0)  -->
<!DOCTYPE svg PUBLIC "-//W3C//DTD SVG 1.1//EN" "http://www.w3.org/Graphics/SVG/1.1/DTD/svg11.dtd" [
	<!ENTITY ns_flows "http://ns.adobe.com/Flows/1.0/">
	<!ENTITY ns_extend "http://ns.adobe.com/Extensibility/1.0/">
	<!ENTITY ns_ai "http://ns.adobe.com/AdobeIllustrator/10.0/">
	<!ENTITY ns_graphs "http://ns.adobe.com/Graphs/1.0/">
]>
<svg version="1.1" id="Layer_1" xmlns:x="&ns_extend;" xmlns:i="&ns_ai;" xmlns:graph="&ns_graphs;"
	 xmlns="http://www.w3.org/2000/svg" xmlns:xlink="http://www.w3.org/1999/xlink" xmlns:a="http://ns.adobe.com/AdobeSVGViewerExtensions/3.0/"
	 x="0px" y="0px" width="1024px" height="768px" viewBox="0 0 1024 768" enable-background="new 0 0 1024 768" xml:space="preserve"
	>
<g>
	<g>
		<path fill="#898989" d="M799.818,145.623l-141.873-39.25L513.789,1.858v-1.951l-1.343,0.981l-1.343-0.981v1.951L366.959,106.37
			l-141.898,39.253c0,562.781,257.09,616.751,286.043,621.041V767c0,0,0.499-0.043,1.343-0.145c0.844,0.102,1.343,0.145,1.343,0.145
			v-0.336C542.75,762.374,799.818,708.408,799.818,145.623z"/>
		<path fill="#E1C223" d="M775.651,165.635l-129.957-35.948L513.678,33.966v-1.785l-1.231,0.893l-1.231-0.893v1.785l-132.016,95.717
			l-129.957,35.952c0,515.418,235.456,564.853,261.973,568.788v0.314c0,0,0.453-0.043,1.231-0.145
			c0.778,0.102,1.231,0.145,1.231,0.145v-0.314C540.195,730.488,775.651,681.057,775.651,165.635z"/>
		<g>
			<path fill="#FFFFFF" d="M448.724,215.818c32.574-23.977,65.34-46.984,99.008-69.393c7.936-5.282,15.874-10.571,23.621-16.13
				c2.263-1.626,4.528-3.25,6.78-4.889c0.718-0.587,1.575-1.283,2.727-2.21c7.363-6.217,14.668-12.553,21.417-19.447
				c0.651-0.667,1.741-1.87,3.045-3.334l-17.088-12.39C478.713,154.065,373.551,227.24,252.956,272.481
				c1.933,26.798,4.605,52.017,7.888,75.805C323.915,304.757,387.003,261.248,448.724,215.818z"/>
			<path fill="#FFFFFF" d="M385.722,534.6c48.206-26.746,92.514-57.278,135.894-91.258c44.901-35.17,89.668-70.47,131.115-109.71
				c40.459-38.307,79.463-78.194,121.992-114.252c0.591-17.348,0.928-35.21,0.928-53.744l-1.514-0.418
				c-2.161,6.661-5.408,13.023-9.905,18.861c-33.729,43.786-71.886,77.591-117.854,108.505
				c-34.71,23.345-68.979,46.655-102.675,71.458c-77.74,57.221-157.5,111.584-236.829,166.56
				c5.622,13.949,11.516,26.942,17.605,39.055C344.539,557.494,365.08,546.051,385.722,534.6z"/>
			<path fill="#FFFFFF" d="M543.414,660.625c30.145-12.175,55.062-30.908,76.718-54.903c28.331-31.394,54.447-66.364,72.577-104.804
				c-10.527,9.456-21.225,18.693-32.389,27.354c-26.819,20.795-62.658,28.351-87.751,51.24
				c-28.938,26.396-48.611,60.016-76.457,85.038C511.356,667.186,526.641,667.399,543.414,660.625z"/>
			<path fill="#FFFFFF" d="M636.843,647.002c-25.823,25.595-58.825,45.911-93.712,56.493c-31.155,9.449-59.429-0.314-89.111-7.316
				c-3.917,3.522-7.877,7.002-11.91,10.419c33.936,21.174,61.087,26.634,69.105,27.825v0.314c0,0,0.453-0.043,1.231-0.145
				c0.778,0.102,1.231,0.145,1.231,0.145v-0.314c16.544-2.459,114.343-22.698,185.605-162.637
				C680.81,599.304,659.328,624.713,636.843,647.002z"/>
			<path fill="#FFFFFF" d="M560.532,510.496c18.782-17.217,35.674-35.896,53.474-54.049c18.533-18.897,39.005-35.455,59.267-52.432
				c35.427-29.679,61.109-68.963,95.866-98.913c0.941-9.534,1.817-19.214,2.563-29.175c-30.667,28.178-60.041,57.74-90.396,86.276
				c-41.589,39.092-86.117,74.648-131.116,109.709c-42.742,33.306-85.652,64.985-133.044,91.438
				c-24.4,13.619-49.151,26.825-73.087,41.284c9.434,15.161,19.144,28.509,28.914,40.358
				C440.173,607.148,504.102,562.229,560.532,510.496z"/>
		</g>
		<path fill="#F6D908" d="M254.183,277.647c3.269-0.663,11.125-1.997,12.989-2.451c14.34-3.495,28.491-7.769,42.37-12.799
			c4.294-1.556,8.591-3.113,12.841-4.782c0.644-0.252,10.009-4.133,8.08-3.231c5.25-2.297,10.484-4.634,15.618-7.185
			c9.075-4.514,18.151-9.197,26.224-15.376c11.103-8.497,25.624-8.766,38.548-4.082c70.358-37.591,139.015-78.998,209.579-116.371
			l-41.49-30.083c-25.324,12.86-50.528,25.951-75.728,38.951c-82.385,42.496-167.053,79.801-252.417,115.806
			c0.648,14.27,1.492,28.122,2.52,41.587C253.607,277.636,253.901,277.644,254.183,277.647z"/>
		<path fill="#F6D908" d="M546.508,310.102c75.539-46.099,156.899-85.108,229.089-136.732c0.011-2.592,0.055-5.119,0.055-7.735
			l-33.776-9.341c-6.896,3.039-13.764,6.145-20.603,9.314C589.046,269.604,433.762,336.137,291.883,425.304
			c-5.325,3.349-10.596,5.437-15.729,6.559c3.613,15.473,7.538,30.124,11.7,44.058C371.462,416.838,459.27,363.34,546.508,310.102z"
			/>
		<path fill="#F6D908" d="M521.432,497.682c85.349-52.775,162.86-116.892,245.647-173.361c1.302-11.281,2.479-22.849,3.5-34.755
			c-57.796,35.438-118.104,67.112-175.983,102.808c-91.472,56.41-183.833,112.281-271.303,174.888
			c9.484,19.126,19.473,36.014,29.696,51.034C408.529,577.231,462.651,534.024,521.432,497.682z"/>
		<path fill="#F6D908" d="M563.737,583.472c-50.969,32.126-98.567,69.215-146.81,105.315c45.162,36.299,84.361,44.162,94.287,45.636
			v0.314c0,0,0.453-0.043,1.231-0.145c0.778,0.102,1.231,0.145,1.231,0.145v-0.314c20.261-3.009,162.483-32.69,228.454-276.462
			C683.321,500.723,625.306,544.671,563.737,583.472z"/>
		<path fill="#D1AF2B" d="M756.532,181.463l-120.519-33.336L513.59,59.362v-1.655l-1.144,0.824l-1.144-0.824v1.655l-122.422,88.761
			l-120.514,33.34c0,477.964,218.351,523.807,242.936,527.459v0.297c0,0,0.419-0.043,1.144-0.141
			c0.724,0.098,1.144,0.141,1.144,0.141v-0.297C538.175,705.27,756.532,659.431,756.532,181.463z"/>
	</g>
	<g opacity="0.25"  a:adobe-blending-mode="screen">
		<g  a:adobe-blending-mode="normal">
			<path fill="#FFF200" d="M442.866,200.419c35.574-26.177,71.354-51.299,108.113-75.773c8.667-5.76,17.318-11.54,25.778-17.608
				c2.484-1.771,4.95-3.55,7.404-5.334c0.781-0.643,1.727-1.405,2.99-2.422c8.029-6.784,16.004-13.697,23.376-21.225
				c0.716-0.733,1.896-2.049,3.333-3.646l-18.668-13.525c-119.583,72.103-234.405,152.002-366.075,201.401
				c2.113,29.255,5.028,56.797,8.612,82.765C306.594,297.531,375.475,250.02,442.866,200.419z"/>
			<path fill="#FFF200" d="M546.259,686.086c32.904-13.285,60.112-33.755,83.768-59.953c30.934-34.262,59.449-72.455,79.249-114.431
				c-11.505,10.321-23.184,20.429-35.369,29.866c-29.288,22.706-68.418,30.953-95.823,55.953
				c-31.585,28.82-53.057,65.529-83.47,92.844C511.256,693.247,527.951,693.482,546.259,686.086z"/>
			<path fill="#FFF200" d="M648.271,671.218c-28.201,27.951-64.229,50.136-102.316,61.674c-34.022,10.313-64.899-0.337-97.305-7.983
				c-4.272,3.855-8.6,7.646-13,11.375c37.049,23.13,66.704,29.077,75.454,30.381V767c0,0,0.499-0.043,1.343-0.145
				c0.844,0.102,1.343,0.145,1.343,0.145v-0.336c18.054-2.679,124.86-24.787,202.661-177.577
				C696.286,619.139,672.823,646.883,648.271,671.218z"/>
			<path fill="#FFF200" d="M564.957,522.172c20.493-18.8,38.942-39.188,58.39-59.009c20.219-20.632,42.584-38.725,64.688-57.258
				c38.696-32.403,66.734-75.3,104.696-107.996c1.006-10.412,1.973-20.982,2.783-31.864c-33.49,30.767-65.554,63.054-98.689,94.202
				c-45.411,42.684-94.03,81.517-143.167,119.782c-46.679,36.372-93.523,70.966-145.272,99.845
				c-26.636,14.886-53.667,29.29-79.794,45.085c10.301,16.541,20.901,31.134,31.567,44.072
				C433.536,627.692,503.345,578.661,564.957,522.172z"/>
		</g>
		<path fill="#FFFFFF"  a:adobe-blending-mode="normal" d="M549.644,303.365c82.475-50.335,171.307-92.925,250.121-149.296
			c0.012-2.826,0.054-5.585,0.054-8.446l-36.863-10.198c-7.541,3.318-15.031,6.714-22.492,10.171
			C596.072,259.141,426.536,331.789,271.616,429.151c-5.814,3.66-11.563,5.926-17.168,7.157c3.94,16.896,8.23,32.882,12.771,48.104
			C358.509,419.906,454.39,361.494,549.644,303.365z"/>
		<path fill="#FFFFFF"  a:adobe-blending-mode="normal" d="M568.45,601.838c-55.66,35.082-107.627,75.574-160.294,115.009
			c49.309,39.615,92.107,48.21,102.947,49.817V767c0,0,0.499-0.043,1.343-0.145c0.844,0.102,1.343,0.145,1.343,0.145v-0.336
			c22.13-3.276,177.403-35.691,249.444-301.854C699.02,511.488,635.666,559.481,568.45,601.838z"/>
	</g>
	<path opacity="0.09"  a:adobe-blending-mode="multiply" d="M799.818,145.623l-141.873-39.25L513.789,1.858v-1.951l-1.343,0.981
		l-1.343-0.981v1.951V767c0,0,0.499-0.043,1.343-0.145c0.844,0.102,1.343,0.145,1.343,0.145v-0.336
		C542.75,762.374,799.818,708.408,799.818,145.623z"/>
	<g opacity="0.7">
		<path opacity="0.09"  a:adobe-blending-mode="multiply" d="M657.945,106.373L513.789,1.858v-1.951l-1.343,0.981l-1.343-0.981
			v1.951V767c0,0,0.499-0.043,1.343-0.145c0.844,0.102,1.343,0.145,1.343,0.145v-0.336
			C526.099,713.479,657.945,106.373,657.945,106.373z"/>
		<path opacity="0.2"  a:adobe-blending-mode="multiply" d="M799.818,145.623l-141.873-39.25L511.104,767
			c0,0,0.499-0.043,1.343-0.145c0.844,0.102,1.343,0.145,1.343,0.145v-0.336C542.75,762.374,799.818,708.408,799.818,145.623z"/>
		<g opacity="0.5">
			<path opacity="0.09"  a:adobe-blending-mode="multiply" d="M368.371,106.373L512.525,1.858v-1.951l1.344,0.981l1.343-0.981v1.951
				V767c0,0-0.499-0.043-1.343-0.145c-0.844,0.102-1.344,0.145-1.344,0.145v-0.336C500.218,713.479,368.371,106.373,368.371,106.373
				z"/>
			<path opacity="0.2"  a:adobe-blending-mode="multiply" d="M226.496,145.623l141.875-39.25L515.212,767
				c0,0-0.499-0.043-1.343-0.145c-0.844,0.102-1.344,0.145-1.344,0.145v-0.336C483.564,762.374,226.496,708.408,226.496,145.623z"/>
		</g>
	</g>
</g>
<g opacity="0.41"  a:adobe-blending-mode="saturation">
	<g  a:adobe-blending-mode="normal">
		<path fill="#898989" d="M799.818,145.623l-141.873-39.25L513.789,1.858v-1.951l-1.343,0.981l-1.343-0.981v1.951L366.959,106.37
			l-141.898,39.253c0,562.781,257.09,616.751,286.043,621.041V767c0,0,0.499-0.043,1.343-0.145c0.844,0.102,1.343,0.145,1.343,0.145
			v-0.336C542.75,762.374,799.818,708.408,799.818,145.623z"/>
		<path fill="#E1C223" d="M775.651,165.635l-129.957-35.948L513.678,33.966v-1.785l-1.231,0.893l-1.231-0.893v1.785l-132.016,95.717
			l-129.957,35.952c0,515.418,235.456,564.853,261.973,568.788v0.314c0,0,0.453-0.043,1.231-0.145
			c0.778,0.102,1.231,0.145,1.231,0.145v-0.314C540.195,730.488,775.651,681.057,775.651,165.635z"/>
		<g>
			<path fill="#FFFFFF" d="M448.724,215.818c32.574-23.977,65.34-46.984,99.008-69.393c7.936-5.282,15.874-10.571,23.621-16.13
				c2.263-1.626,4.528-3.25,6.78-4.889c0.718-0.587,1.575-1.283,2.727-2.21c7.363-6.217,14.668-12.553,21.417-19.447
				c0.651-0.667,1.741-1.87,3.045-3.334l-17.088-12.39C478.713,154.065,373.551,227.24,252.956,272.481
				c1.933,26.798,4.605,52.017,7.888,75.805C323.915,304.757,387.003,261.248,448.724,215.818z"/>
			<path fill="#FFFFFF" d="M385.722,534.6c48.206-26.746,92.514-57.278,135.894-91.258c44.901-35.17,89.668-70.47,131.115-109.71
				c40.459-38.307,79.463-78.194,121.992-114.252c0.591-17.348,0.928-35.21,0.928-53.744l-1.514-0.418
				c-2.161,6.661-5.408,13.023-9.905,18.861c-33.729,43.786-71.886,77.591-117.854,108.505
				c-34.71,23.345-68.979,46.655-102.675,71.458c-77.74,57.221-157.5,111.584-236.829,166.56
				c5.622,13.949,11.516,26.942,17.605,39.055C344.539,557.494,365.08,546.051,385.722,534.6z"/>
			<path fill="#FFFFFF" d="M543.414,660.625c30.145-12.175,55.062-30.908,76.718-54.903c28.331-31.394,54.447-66.364,72.577-104.804
				c-10.527,9.456-21.225,18.693-32.389,27.354c-26.819,20.795-62.658,28.351-87.751,51.24
				c-28.938,26.396-48.611,60.016-76.457,85.038C511.356,667.186,526.641,667.399,543.414,660.625z"/>
			<path fill="#FFFFFF" d="M636.843,647.002c-25.823,25.595-58.825,45.911-93.712,56.493c-31.155,9.449-59.429-0.314-89.111-7.316
				c-3.917,3.522-7.877,7.002-11.91,10.419c33.936,21.174,61.087,26.634,69.105,27.825v0.314c0,0,0.453-0.043,1.231-0.145
				c0.778,0.102,1.231,0.145,1.231,0.145v-0.314c16.544-2.459,114.343-22.698,185.605-162.637
				C680.81,599.304,659.328,624.713,636.843,647.002z"/>
			<path fill="#FFFFFF" d="M560.532,510.496c18.782-17.217,35.674-35.896,53.474-54.049c18.533-18.897,39.005-35.455,59.267-52.432
				c35.427-29.679,61.109-68.963,95.866-98.913c0.941-9.534,1.817-19.214,2.563-29.175c-30.667,28.178-60.041,57.74-90.396,86.276
				c-41.589,39.092-86.117,74.648-131.116,109.709c-42.742,33.306-85.652,64.985-133.044,91.438
				c-24.4,13.619-49.151,26.825-73.087,41.284c9.434,15.161,19.144,28.509,28.914,40.358
				C440.173,607.148,504.102,562.229,560.532,510.496z"/>
		</g>
		<path fill="#F6D908" d="M254.183,277.647c3.269-0.663,11.125-1.997,12.989-2.451c14.34-3.495,28.491-7.769,42.37-12.799
			c4.294-1.556,8.591-3.113,12.841-4.782c0.644-0.252,10.009-4.133,8.08-3.231c5.25-2.297,10.484-4.634,15.618-7.185
			c9.075-4.514,18.151-9.197,26.224-15.376c11.103-8.497,25.624-8.766,38.548-4.082c70.358-37.591,139.015-78.998,209.579-116.371
			l-41.49-30.083c-25.324,12.86-50.528,25.951-75.728,38.951c-82.385,42.496-167.053,79.801-252.417,115.806
			c0.648,14.27,1.492,28.122,2.52,41.587C253.607,277.636,253.901,277.644,254.183,277.647z"/>
		<path fill="#F6D908" d="M546.508,310.102c75.539-46.099,156.899-85.108,229.089-136.732c0.011-2.592,0.055-5.119,0.055-7.735
			l-33.776-9.341c-6.896,3.039-13.764,6.145-20.603,9.314C589.046,269.604,433.762,336.137,291.883,425.304
			c-5.325,3.349-10.596,5.437-15.729,6.559c3.613,15.473,7.538,30.124,11.7,44.058C371.462,416.836,459.27,363.34,546.508,310.102z"
			/>
		<path fill="#F6D908" d="M521.432,497.682c85.349-52.775,162.86-116.892,245.647-173.361c1.302-11.281,2.479-22.849,3.5-34.755
			c-57.796,35.438-118.104,67.112-175.983,102.808c-91.472,56.41-183.833,112.281-271.303,174.888
			c9.484,19.126,19.473,36.014,29.696,51.034C408.529,577.231,462.651,534.024,521.432,497.682z"/>
		<path fill="#F6D908" d="M563.737,583.472c-50.969,32.126-98.567,69.215-146.81,105.315c45.162,36.299,84.361,44.162,94.287,45.636
			v0.314c0,0,0.453-0.043,1.231-0.145c0.778,0.102,1.231,0.145,1.231,0.145v-0.314c20.261-3.009,162.483-32.69,228.454-276.462
			C683.321,500.723,625.306,544.671,563.737,583.472z"/>
		<path fill="#D1AF2B" d="M756.532,181.463l-120.519-33.336L513.59,59.362v-1.655l-1.144,0.824l-1.144-0.824v1.655l-122.422,88.761
			l-120.514,33.34c0,477.964,218.351,523.807,242.936,527.459v0.297c0,0,0.419-0.043,1.144-0.141
			c0.724,0.098,1.144,0.141,1.144,0.141v-0.297C538.175,705.27,756.532,659.431,756.532,181.463z"/>
	</g>
	<g opacity="0.25"  a:adobe-blending-mode="screen">
		<g  a:adobe-blending-mode="normal">
			<path fill="#FFF200" d="M442.866,200.419c35.574-26.177,71.354-51.299,108.113-75.773c8.667-5.76,17.318-11.54,25.778-17.608
				c2.484-1.771,4.95-3.55,7.404-5.334c0.781-0.643,1.727-1.405,2.99-2.422c8.029-6.784,16.004-13.697,23.376-21.225
				c0.716-0.733,1.896-2.049,3.333-3.646l-18.668-13.525c-119.583,72.103-234.405,152.002-366.075,201.401
				c2.113,29.255,5.028,56.797,8.612,82.765C306.594,297.531,375.475,250.02,442.866,200.419z"/>
			<path fill="#FFF200" d="M546.259,686.086c32.904-13.285,60.112-33.755,83.768-59.953c30.934-34.262,59.449-72.455,79.249-114.431
				c-11.505,10.321-23.184,20.429-35.369,29.866c-29.288,22.706-68.418,30.953-95.823,55.953
				c-31.585,28.82-53.057,65.529-83.47,92.844C511.256,693.247,527.951,693.482,546.259,686.086z"/>
			<path fill="#FFF200" d="M648.271,671.218c-28.201,27.951-64.229,50.136-102.316,61.674c-34.022,10.313-64.899-0.337-97.305-7.983
				c-4.272,3.855-8.6,7.646-13,11.375c37.049,23.13,66.704,29.077,75.454,30.381V767c0,0,0.499-0.043,1.343-0.145
				c0.844,0.102,1.343,0.145,1.343,0.145v-0.336c18.054-2.679,124.86-24.787,202.661-177.577
				C696.286,619.139,672.823,646.883,648.271,671.218z"/>
			<path fill="#FFF200" d="M564.957,522.172c20.493-18.8,38.942-39.188,58.39-59.009c20.219-20.632,42.584-38.725,64.688-57.258
				c38.696-32.403,66.734-75.3,104.696-107.996c1.006-10.412,1.973-20.982,2.783-31.864c-33.49,30.767-65.554,63.054-98.689,94.202
				c-45.411,42.684-94.03,81.517-143.167,119.782c-46.679,36.372-93.523,70.966-145.272,99.845
				c-26.636,14.886-53.667,29.29-79.794,45.085c10.301,16.541,20.901,31.134,31.567,44.072
				C433.536,627.692,503.345,578.661,564.957,522.172z"/>
		</g>
		<path fill="#FFFFFF"  a:adobe-blending-mode="normal" d="M549.644,303.365c82.475-50.335,171.307-92.925,250.121-149.296
			c0.012-2.826,0.054-5.585,0.054-8.446l-36.863-10.198c-7.541,3.318-15.031,6.714-22.492,10.171
			C596.072,259.141,426.536,331.789,271.616,429.151c-5.814,3.66-11.563,5.926-17.168,7.157c3.94,16.896,8.23,32.882,12.771,48.104
			C358.509,419.906,454.39,361.494,549.644,303.365z"/>
		<path fill="#FFFFFF"  a:adobe-blending-mode="normal" d="M568.45,601.838c-55.66,35.082-107.627,75.574-160.294,115.009
			c49.309,39.615,92.107,48.21,102.947,49.817V767c0,0,0.499-0.043,1.343-0.145c0.844,0.102,1.343,0.145,1.343,0.145v-0.336
			c22.13-3.276,177.403-35.691,249.444-301.854C699.02,511.488,635.666,559.481,568.45,601.838z"/>
	</g>
	<path opacity="0.09"  a:adobe-blending-mode="multiply" d="M799.818,145.623l-141.873-39.25L513.789,1.858v-1.951l-1.343,0.981
		l-1.343-0.981v1.951V767c0,0,0.499-0.043,1.343-0.145c0.844,0.102,1.343,0.145,1.343,0.145v-0.336
		C542.75,762.374,799.818,708.408,799.818,145.623z"/>
	<g opacity="0.7"  a:adobe-blending-mode="normal">
		<path opacity="0.09"  a:adobe-blending-mode="multiply" d="M657.945,106.373L513.789,1.858v-1.951l-1.343,0.981l-1.343-0.981
			v1.951V767c0,0,0.499-0.043,1.343-0.145c0.844,0.102,1.343,0.145,1.343,0.145v-0.336
			C526.099,713.479,657.945,106.373,657.945,106.373z"/>
		<path opacity="0.2"  a:adobe-blending-mode="multiply" d="M799.818,145.623l-141.873-39.25L511.104,767
			c0,0,0.499-0.043,1.343-0.145c0.844,0.102,1.343,0.145,1.343,0.145v-0.336C542.75,762.374,799.818,708.408,799.818,145.623z"/>
		<g opacity="0.5">
			<path opacity="0.09"  a:adobe-blending-mode="multiply" d="M368.371,106.373L512.525,1.858v-1.951l1.344,0.981l1.343-0.981v1.951
				V767c0,0-0.499-0.043-1.343-0.145c-0.844,0.102-1.344,0.145-1.344,0.145v-0.336C500.218,713.479,368.371,106.373,368.371,106.373
				z"/>
			<path opacity="0.2"  a:adobe-blending-mode="multiply" d="M226.496,145.623l141.875-39.25L515.212,767
				c0,0-0.499-0.043-1.343-0.145c-0.844,0.102-1.344,0.145-1.344,0.145v-0.336C483.564,762.374,226.496,708.408,226.496,145.623z"/>
		</g>
	</g>
</g>
</svg>
