<?xml version="1.0" encoding="UTF-8" standalone="no"?>
<!-- Generator: Adobe Illustrator 15.0.0, SVG Export Plug-In . SVG Version: 6.00 Build 0)  -->

<svg
   xmlns:dc="http://purl.org/dc/elements/1.1/"
   xmlns:cc="http://creativecommons.org/ns#"
   xmlns:rdf="http://www.w3.org/1999/02/22-rdf-syntax-ns#"
   xmlns:svg="http://www.w3.org/2000/svg"
   xmlns="http://www.w3.org/2000/svg"
   xmlns:xlink="http://www.w3.org/1999/xlink"
   xmlns:sodipodi="http://sodipodi.sourceforge.net/DTD/sodipodi-0.dtd"
   xmlns:inkscape="http://www.inkscape.org/namespaces/inkscape"
   version="1.1"
   id="svg2"
   inkscape:version="0.48.2 r9819"
   sodipodi:docname="die_effect.svg"
   x="0px"
   y="0px"
   width="200px"
   height="200px"
   viewBox="0 0 200 200"
   enable-background="new 0 0 200 200"
   xml:space="preserve"><metadata
   id="metadata36"><rdf:RDF><cc:Work
       rdf:about=""><dc:format>image/svg+xml</dc:format><dc:type
         rdf:resource="http://purl.org/dc/dcmitype/StillImage" /></cc:Work></rdf:RDF></metadata><defs
   id="defs34">
	
		<radialGradient
   gradientUnits="userSpaceOnUse"
   gradientTransform="matrix(0.961,0,0,-0.961,-27.8896,72.2499)"
   r="84.0042"
   cy="-29.2241"
   cx="133.0801"
   id="SVGID_1_">
		<stop
   id="stop7"
   style="stop-color:#FFF100"
   offset="0.6242" />
		<stop
   id="stop9"
   style="stop-color:#FFFFFF;stop-opacity:0"
   offset="1" />
	</radialGradient>
	
	
	
		<radialGradient
   gradientUnits="userSpaceOnUse"
   gradientTransform="matrix(0.961,0,0,-0.961,-27.8896,72.2499)"
   r="68.7231"
   cy="-29.2241"
   cx="133.0801"
   id="SVGID_4_">
		<stop
   id="stop24"
   style="stop-color:#FFFFFF"
   offset="0" />
		<stop
   id="stop26"
   style="stop-color:#FFF100"
   offset="1" />
	</radialGradient>
	
	
	
<radialGradient
   inkscape:collect="always"
   xlink:href="#SVGID_4_"
   id="radialGradient3022"
   gradientUnits="userSpaceOnUse"
   gradientTransform="matrix(0.961,0,0,-0.961,-27.8896,72.249899)"
   cx="133.0801"
   cy="-29.2241"
   r="68.7231" /><radialGradient
   inkscape:collect="always"
   xlink:href="#SVGID_1_"
   id="radialGradient3031"
   gradientUnits="userSpaceOnUse"
   gradientTransform="matrix(0.961,0,0,-0.961,-27.8896,72.249899)"
   cx="133.0801"
   cy="-29.2241"
   r="84.0042" /><radialGradient
   inkscape:collect="always"
   xlink:href="#SVGID_2_"
   id="radialGradient3033"
   gradientUnits="userSpaceOnUse"
   cx="100"
   cy="100.334"
   r="80.727501"
   gradientTransform="translate(-7.1428571e-6,5.7142861e-8)" /></defs>
<sodipodi:namedview
   id="base"
   inkscape:document-units="px"
   inkscape:current-layer="svg2"
   inkscape:window-width="1280"
   inkscape:pageopacity="0.0"
   inkscape:pageshadow="2"
   inkscape:window-height="778"
   inkscape:window-y="0"
   inkscape:window-x="166"
   inkscape:window-maximized="0"
   pagecolor="#ffffff"
   bordercolor="#666666"
   showgrid="false"
   borderopacity="1.0"
   inkscape:zoom="2.8"
   inkscape:cx="21.900509"
   inkscape:cy="54.244408">
	</sodipodi:namedview>
<path
   inkscape:connector-curvature="0"
   style="opacity:0.17000002;fill:url(#radialGradient3031)"
   id="path11"
   d="m 221.80043,99.976607 c 0,66.860083 -54.38337,121.086393 -121.44228,121.086393 -67.058931,0 -121.442293,-54.22331 -121.442293,-121.086393 0,-66.860076 54.383362,-121.084893 121.442293,-121.084893 67.0559,0 121.44228,54.224817 121.44228,121.084893 z"
   enable-background="new    " /><g
   id="g13"
   transform="matrix(1.5043391,0,0,1.499912,-50.077271,-50.515559)">
		<g
   id="g15">
			<radialGradient
   gradientUnits="userSpaceOnUse"
   r="80.727501"
   cy="100.334"
   cx="100"
   id="SVGID_2_">
				<stop
   id="stop18"
   style="stop-color:#FFFFFF"
   offset="0" />
				<stop
   id="stop20"
   style="stop-color:#FFDB00"
   offset="0.3758" />
			</radialGradient>
			
		</g>
	</g><path
   inkscape:connector-curvature="0"
   style="fill:url(#radialGradient3022)"
   id="path28"
   d="m 199.70922,99.976607 c 0,54.736293 -44.45323,99.058683 -99.35107,99.058683 -54.870775,0 -99.3510737,-44.32239 -99.3510737,-99.058683 0,-54.707789 44.4802987,-99.05718626 99.3510737,-99.05718626 54.89784,0 99.35107,44.34939726 99.35107,99.05718626 z" /><path
   style="fill:#ffffff"
   inkscape:connector-curvature="0"
   id="path30"
   d="m 148.50904,30.607179 c -0.23318,-0.190489 -0.52202,-0.247486 -0.75068,-0.259484 -0.001,-0.033 -0.0111,-0.04201 -0.0768,-0.0525 -1.45319,-1.777396 -3.93836,0.767956 -2.49118,2.513854 7.7368,9.284455 21.30746,19.015884 22.03706,31.996122 -0.82438,-0.206989 -1.65025,-0.403476 -2.47766,-0.565467 -1.24558,-0.296983 -2.59649,0.829452 -2.17377,2.165873 1.85335,5.827158 4.00456,11.514823 5.76464,17.226489 0.80483,4.763721 1.95713,9.564937 3.20574,14.301661 0.29936,2.36086 0.47536,4.78322 0.39265,7.18457 -2.98612,-4.85071 -6.57248,-8.793976 -12.97494,-9.503435 -1.13278,-0.109488 -2.05794,1.231428 -1.73901,2.254367 3.30202,9.987908 2.90487,19.855828 3.72474,30.188728 0.40919,5.2497 1.54044,11.51932 6.38442,14.48915 8.19262,5.00671 15.90687,-11.20884 17.7527,-16.21555 12.56273,-34.260986 -6.55742,-76.945481 -36.578,-95.724379 z" /><path
   style="fill:#ffffff"
   inkscape:connector-curvature="0"
   id="path32"
   d="m 34.227397,151.12961 c 0.16698,0.11405 0.327945,0.20249 0.532535,0.23099 0.920657,1.32741 2.823645,-0.23699 1.934581,-1.56292 -4.813886,-6.94909 -13.570643,-14.53714 -13.263758,-23.57411 0.532536,0.20097 1.098167,0.40347 1.693886,0.52945 0.84243,0.29699 1.862372,-0.41096 1.653269,-1.35141 -1.429122,-6.45262 -9.03807,-22.68916 4.371608,-19.99533 0.77624,0.129 1.499828,-0.71995 1.337359,-1.43991 C 30.833608,96.84179 31.716655,89.991693 31.817445,82.801116 31.868597,79.117332 31.468438,74.69559 28.283752,72.33473 22.97494,68.352463 16.595038,79.118832 15.006457,82.453136 4.0984934,105.41678 14.63338,136.1785 34.227397,151.12961 z" />
</svg>