<?xml version="1.0" encoding="utf-8"?>
<!-- Generator: Adobe Illustrator 15.0.0, SVG Export Plug-In . SVG Version: 6.00 Build 0)  -->
<!DOCTYPE svg PUBLIC "-//W3C//DTD SVG 1.1//EN" "http://www.w3.org/Graphics/SVG/1.1/DTD/svg11.dtd">
<svg version="1.1" id="Layer_1" xmlns="http://www.w3.org/2000/svg" xmlns:xlink="http://www.w3.org/1999/xlink" x="0px" y="0px"
	 width="18.878px" height="20.103px" viewBox="274.288 273.394 18.878 20.103"
	 enable-background="new 274.288 273.394 18.878 20.103" xml:space="preserve">
<g>
	<g>
		<g>
			<path fill="#E8BB7D" d="M289.576,284.374c0.053,0.767,0.287,3.341,0.215,4.049c-0.199,1.956-1.615,2.963-3.398,3.44
				c-1.681,0.45-3.516,0.418-5.232,0.188c-1.688-0.226-3.68-0.653-4.484-2.382c-0.819-1.76-1.221-3.712-1.123-5.651
				c0.068-1.345,0.546-2.62,0.983-3.879c0.873-2.509,2.969-6.326,6.159-5.869c1.063,0.153,2.336,0.536,2.933,1.507
				c0.673,1.093,0.397,2.565,1.163,3.648c0.793,1.119,1.586,2.211,2.308,3.383"/>
			<path d="M289.576,284.374c0.553,1.006,0.777,2.034,0.884,3.104c0.172,1.035-0.04,2.517-0.89,3.508
				c-0.832,1.027-2.017,1.54-3.11,1.856c-1.115,0.327-2.257,0.414-3.372,0.409c-1.136-0.013-2.176-0.12-3.311-0.35
				c-1.1-0.236-2.369-0.641-3.332-1.684c-0.479-0.509-0.79-1.203-0.969-1.667c-0.216-0.54-0.39-1.071-0.533-1.623
				c-0.283-1.099-0.428-2.235-0.408-3.373l0.018-0.426l0.017-0.244l0.021-0.195c0.02-0.237,0.08-0.576,0.136-0.871
				c0.121-0.567,0.286-1.104,0.462-1.621l0.553-1.502c0.199-0.521,0.423-1.023,0.675-1.517c0.504-0.984,1.106-1.935,1.895-2.775
				c0.781-0.826,1.807-1.586,3.064-1.799c0.604-0.112,1.29-0.052,1.814,0.073c0.558,0.121,1.115,0.296,1.651,0.587
				c0.531,0.287,1.051,0.734,1.355,1.324c0.3,0.572,0.396,1.16,0.501,1.68c0.094,0.521,0.204,1,0.367,1.388
				c0.097,0.209,0.158,0.331,0.317,0.563c0.137,0.223,0.278,0.443,0.406,0.673c0.524,0.913,1.008,1.871,1.311,2.915
				c-0.806-0.73-1.51-1.494-2.195-2.288c-0.175-0.196-0.336-0.402-0.501-0.605c-0.154-0.188-0.366-0.516-0.463-0.793
				c-0.24-0.582-0.281-1.149-0.369-1.655c-0.08-0.504-0.186-0.964-0.403-1.308c-0.196-0.334-0.512-0.591-0.907-0.782
				c-0.787-0.353-1.848-0.566-2.618-0.387c-0.821,0.178-1.56,0.749-2.168,1.462c-0.609,0.719-1.103,1.576-1.506,2.473
				c-0.201,0.449-0.381,0.912-0.536,1.376l-0.465,1.467c-0.29,0.975-0.457,1.849-0.422,2.794c0.015,0.954,0.145,1.909,0.404,2.831
				c0.127,0.458,0.289,0.92,0.47,1.348c0.212,0.502,0.352,0.771,0.595,1.031c0.957,1.043,3.225,1.263,5.125,1.4
				c0.975,0.041,1.938-0.022,2.854-0.203c0.92-0.18,1.751-0.535,2.32-1.089c0.571-0.582,0.841-1.313,0.811-2.348
				C289.141,286.51,289.179,285.454,289.576,284.374z"/>
		</g>
		<g>
			<path fill="#E8BB7D" d="M284.266,278.581c1.178,0.634,6.863,2.971,7.795,4.226c1.207,1.632-3.455,3.991-4.396,4.96"/>
			<path d="M284.266,278.581c0.951-0.428,1.628-0.364,2.261-0.125c0.626,0.242,1.248,0.502,1.856,0.802
				c1.219,0.609,2.366,1.324,3.52,2.249c0.287,0.254,0.594,0.47,0.893,0.971c0.337,0.527,0.259,1.255,0.054,1.662
				c-0.408,0.853-0.903,1.386-1.478,1.824c-1.184,0.812-2.455,1.25-3.706,1.803c0.353-0.62,0.869-1.098,1.327-1.592l1.376-1.4
				c0.423-0.43,0.958-0.82,1.092-1.202c0.064-0.193,0.015-0.219-0.021-0.257c-0.052-0.073-0.307-0.257-0.549-0.4
				c-1.044-0.598-2.315-1.043-3.492-1.604c-0.596-0.277-1.185-0.579-1.772-0.896C285.049,280.093,284.501,279.621,284.266,278.581z"
				/>
		</g>
	</g>
	<path fill="#C69760" d="M276.703,286.3c0,0,4.455,4.438,12.466,0.835c-0.036,0.217-0.026,0.644-0.033,0.728
		c-0.031,0.387-0.056,0.836-0.204,1.197c-0.521,1.273-1.91,1.759-3.184,1.973c-1.45,0.244-2.905,0.375-4.359,0.087
		c-0.951-0.189-1.957-0.338-2.803-0.849c-0.656-0.396-1.065-1.12-1.352-1.813c-0.129-0.312-0.222-0.637-0.298-0.966
		c-0.044-0.191-0.083-0.384-0.12-0.576C276.791,286.785,276.703,286.46,276.703,286.3z"/>
</g>
</svg>
