<?xml version="1.0" encoding="UTF-8" standalone="no"?>
<!-- Generator: Adobe Illustrator 15.0.0, SVG Export Plug-In . SVG Version: 6.00 Build 0)  -->

<svg
   xmlns:dc="http://purl.org/dc/elements/1.1/"
   xmlns:cc="http://creativecommons.org/ns#"
   xmlns:rdf="http://www.w3.org/1999/02/22-rdf-syntax-ns#"
   xmlns:svg="http://www.w3.org/2000/svg"
   xmlns="http://www.w3.org/2000/svg"
   xmlns:sodipodi="http://sodipodi.sourceforge.net/DTD/sodipodi-0.dtd"
   xmlns:inkscape="http://www.inkscape.org/namespaces/inkscape"
   version="1.1"
   id="Layer_1"
   x="0px"
   y="0px"
   width="21.739px"
   height="39.984px"
   viewBox="272.307 262.912 21.739 39.984"
   enable-background="new 272.307 262.912 21.739 39.984"
   xml:space="preserve"
   inkscape:version="0.48.2 r9819"
   sodipodi:docname="mitsu_leg.svg"><metadata
   id="metadata73"><rdf:RDF><cc:Work
       rdf:about=""><dc:format>image/svg+xml</dc:format><dc:type
         rdf:resource="http://purl.org/dc/dcmitype/StillImage" /></cc:Work></rdf:RDF></metadata><defs
   id="defs71" /><sodipodi:namedview
   pagecolor="#ffffff"
   bordercolor="#666666"
   borderopacity="1"
   objecttolerance="10"
   gridtolerance="10"
   guidetolerance="10"
   inkscape:pageopacity="0"
   inkscape:pageshadow="2"
   inkscape:window-width="1920"
   inkscape:window-height="1032"
   id="namedview69"
   showgrid="false"
   inkscape:zoom="5.9023608"
   inkscape:cx="-9.6307716"
   inkscape:cy="19.992001"
   inkscape:window-x="330"
   inkscape:window-y="0"
   inkscape:window-maximized="0"
   inkscape:current-layer="g3" />
<g
   id="g3">
	<g
   id="g5"
   transform="matrix(1.0745183,0,0,1,-21.241043,0)">
		<g
   id="g7">
			<g
   id="g9">
				<path
   d="m 277.225,294.482 c -0.604,8.723 -0.462,6.446 6.517,6.929 6.849,0.473 4.219,0.743 4.69,-6.078 0.602,-8.723 4.691,-13.711 -2.286,-14.192 -6.982,-0.483 -8.318,4.621 -8.921,13.341 z"
   id="path11"
   inkscape:connector-curvature="0"
   style="fill:#e8bb7d" />
				<g
   id="g13">
					<path
   d="m 277.758,294.52 c -0.074,1.227 -0.163,2.457 -0.192,3.663 -0.003,0.597 0.003,1.208 0.104,1.719 0.051,0.252 0.137,0.459 0.229,0.555 0.086,0.094 0.221,0.158 0.462,0.195 0.476,0.07 1.102,0.03 1.706,0.005 0.613,-0.029 1.239,-0.058 1.867,-0.067 1.264,-0.024 2.521,0.049 3.735,0.085 0.604,0.018 1.232,0.042 1.734,-0.002 0.242,0 0.443,-0.137 0.237,-0.019 -0.087,0.078 -0.108,0.161 -0.099,0.114 0.004,-0.04 0.008,-0.143 0.002,-0.263 -0.026,-0.505 -0.116,-1.163 -0.166,-1.789 -0.053,-0.636 -0.07,-1.28 -0.07,-1.922 0.012,-2.559 0.448,-5.094 0.99,-7.513 0.271,-1.21 0.568,-2.405 0.773,-3.551 0.209,-1.135 0.26,-2.271 -0.211,-2.808 -0.453,-0.594 -1.668,-0.884 -2.762,-0.979 -1.212,-0.101 -2.308,-0.065 -3.361,0.283 -1.035,0.336 -1.915,1.008 -2.56,1.927 -0.651,0.914 -1.08,2.025 -1.392,3.172 -0.628,2.306 -0.832,4.759 -1.026,7.195 z m -1.067,-0.075 c 0.167,-2.466 0.378,-4.944 0.962,-7.416 0.3,-1.23 0.739,-2.464 1.459,-3.599 0.713,-1.133 1.839,-2.09 3.134,-2.565 1.27,-0.497 2.688,-0.579 3.924,-0.528 0.688,0.035 1.323,0.098 2.018,0.278 0.675,0.18 1.426,0.49 2.015,1.135 0.594,0.648 0.83,1.509 0.885,2.225 0.062,0.733 -0.002,1.401 -0.08,2.048 -0.175,1.288 -0.454,2.487 -0.684,3.687 -0.483,2.39 -0.838,4.74 -0.889,7.108 -0.029,1.207 0.071,2.273 0.117,3.661 -0.003,0.188 -0.008,0.394 -0.059,0.656 -0.046,0.254 -0.182,0.639 -0.497,0.929 -0.312,0.287 -0.638,0.38 -0.87,0.43 -0.242,0.049 -0.441,0.06 -0.627,0.063 -0.729,0.004 -1.328,-0.076 -1.953,-0.139 -1.24,-0.135 -2.436,-0.288 -3.634,-0.334 -0.603,-0.028 -1.207,-0.038 -1.824,-0.047 -0.624,-0.02 -1.237,0.005 -1.977,-0.146 -0.359,-0.076 -0.826,-0.261 -1.141,-0.645 -0.307,-0.379 -0.404,-0.784 -0.467,-1.132 -0.107,-0.704 -0.078,-1.332 -0.055,-1.964 0.05,-1.252 0.154,-2.476 0.243,-3.705 z"
   id="path15"
   inkscape:connector-curvature="0" />
				</g>
			</g>
			<path
   stroke-miterlimit="10"
   d="m 277.593,293.735 c 0,0 6.886,3.156 11.152,4.053"
   id="path17"
   inkscape:connector-curvature="0"
   style="fill:none;stroke:#000000;stroke-width:0.3454597;stroke-miterlimit:10" />
			<path
   stroke-miterlimit="10"
   d="m 277.492,292.847 c 0,0 6.886,3.874 11.152,4.771"
   id="path19"
   inkscape:connector-curvature="0"
   style="fill:none;stroke:#000000;stroke-width:0.3454597;stroke-miterlimit:10" />
			<path
   stroke-miterlimit="10"
   d="m 277.537,294.612 c 0,0 6.886,3.156 11.152,4.055"
   id="path21"
   inkscape:connector-curvature="0"
   style="fill:none;stroke:#000000;stroke-width:0.3454597;stroke-miterlimit:10" />
			<path
   stroke-miterlimit="10"
   d="m 277.585,295.496 c 0,0 6.885,3.156 11.153,4.055"
   id="path23"
   inkscape:connector-curvature="0"
   style="fill:none;stroke:#000000;stroke-width:0.3454597;stroke-miterlimit:10" />
			<path
   stroke-miterlimit="10"
   d="m 277.269,296.356 c 0,0 6.886,3.156 11.153,4.055"
   id="path25"
   inkscape:connector-curvature="0"
   style="fill:none;stroke:#000000;stroke-width:0.3454597;stroke-miterlimit:10" />
			<path
   stroke-miterlimit="10"
   d="m 277.157,298.111 c 0,0 4.518,1.925 8.783,2.821"
   id="path27"
   inkscape:connector-curvature="0"
   style="fill:none;stroke:#000000;stroke-width:0.3454597;stroke-miterlimit:10" />
			<path
   stroke-miterlimit="10"
   d="m 276.803,296.863 c 0,0 5.945,2.829 10.21,3.726"
   id="path29"
   inkscape:connector-curvature="0"
   style="fill:none;stroke:#000000;stroke-width:0.3454597;stroke-miterlimit:10" />
			<path
   stroke-miterlimit="10"
   d="m 277.094,299.098 c 0,0 2.052,1.171 4.67,2.236"
   id="path31"
   inkscape:connector-curvature="0"
   style="fill:none;stroke:#000000;stroke-width:0.3454597;stroke-miterlimit:10" />
			<path
   stroke-miterlimit="10"
   d="m 281.831,294.822 c 0,0 1.412,2.466 2.878,5.983"
   id="path33"
   inkscape:connector-curvature="0"
   style="fill:none;stroke:#000000;stroke-width:0.3454597;stroke-miterlimit:10" />
			<path
   stroke-miterlimit="10"
   d="m 283.104,294.17 c 0,0 0.89,3.485 3.263,7.142"
   id="path35"
   inkscape:connector-curvature="0"
   style="fill:none;stroke:#000000;stroke-width:0.3454597;stroke-miterlimit:10" />
			<path
   stroke-miterlimit="10"
   d="m 284.285,294.246 c 0,0 0.984,3.49 3.355,7.146"
   id="path37"
   inkscape:connector-curvature="0"
   style="fill:none;stroke:#000000;stroke-width:0.3454597;stroke-miterlimit:10" />
			<path
   stroke-miterlimit="10"
   d="m 285.562,294.58 c 0,0 0.906,3.231 3.278,6.89"
   id="path39"
   inkscape:connector-curvature="0"
   style="fill:none;stroke:#000000;stroke-width:0.3454597;stroke-miterlimit:10" />
			<path
   stroke-miterlimit="10"
   d="m 286.276,294.626 c 0,0 0.337,0.626 2.413,4.041"
   id="path41"
   inkscape:connector-curvature="0"
   style="fill:none;stroke:#000000;stroke-width:0.3454597;stroke-miterlimit:10" />
			<path
   stroke-miterlimit="10"
   d="m 281.168,295.401 c 0,0 1.182,2.331 2.404,5.999"
   id="path43"
   inkscape:connector-curvature="0"
   style="fill:none;stroke:#000000;stroke-width:0.3454597;stroke-miterlimit:10" />
			<path
   stroke-miterlimit="10"
   d="m 279.998,293.869 c 0,0 0.466,3.826 2.837,7.483"
   id="path45"
   inkscape:connector-curvature="0"
   style="fill:none;stroke:#000000;stroke-width:0.3454597;stroke-miterlimit:10" />
			<path
   stroke-miterlimit="10"
   d="m 279.165,294.25 c 0,0 0.404,3.438 2.775,7.096"
   id="path47"
   inkscape:connector-curvature="0"
   style="fill:none;stroke:#000000;stroke-width:0.3454597;stroke-miterlimit:10" />
			<path
   stroke-miterlimit="10"
   d="m 277.842,295.408 c 0,0 0.276,2.42 2.212,6.08"
   id="path49"
   inkscape:connector-curvature="0"
   style="fill:none;stroke:#000000;stroke-width:0.3454597;stroke-miterlimit:10" />
			<path
   stroke-miterlimit="10"
   d="m 278.477,294.278 c 0,0 0.168,3.613 2.541,7.271"
   id="path51"
   inkscape:connector-curvature="0"
   style="fill:none;stroke:#000000;stroke-width:0.3454597;stroke-miterlimit:10" />
			<path
   stroke-miterlimit="10"
   d="m 277.099,296.059 c 0,0 0.615,2.28 1.707,4.891"
   id="path53"
   inkscape:connector-curvature="0"
   style="fill:none;stroke:#000000;stroke-width:0.3454597;stroke-miterlimit:10" />
		</g>
		<g
   id="g55">
			<g
   id="g57">
				<g
   id="g59">
					<path
   d="m 274.657,286.057 c -0.071,13.325 -2.227,9.85 8.437,9.905 10.663,0.06 9.357,2.904 9.428,-10.422 0.071,-13.326 -1.433,-20.644 -7.737,-20.644 -7.662,0 -10.055,7.834 -10.128,21.161 z"
   id="path61"
   inkscape:connector-curvature="0"
   style="fill:#3d3d3d" />
					<g
   id="g63">
						<path
   d="m 276.079,286.066 c -0.062,1.574 -0.158,3.164 -0.277,4.733 l -0.178,2.331 c -0.056,0.735 -0.11,1.576 -0.029,2.017 0.017,0.102 0.036,0.134 0.009,0.11 -0.031,-0.021 -0.069,-0.023 -0.009,0.008 0.129,0.06 0.49,0.09 0.841,0.086 0.726,-0.003 1.527,-0.062 2.314,-0.095 1.585,-0.074 3.188,-0.069 4.766,0.006 1.585,0.043 3.166,0.164 4.722,0.298 0.771,0.059 1.555,0.132 2.248,0.086 0.735,-0.082 1.029,-0.263 1.212,-0.907 0.302,-1.321 0.16,-2.968 0.095,-4.5 -0.109,-1.562 -0.234,-3.13 -0.438,-4.704 l -0.005,-0.001 c 0.133,-4.167 0.085,-8.386 -0.703,-12.375 -0.397,-1.965 -0.99,-3.936 -2.09,-5.323 -1.081,-1.407 -2.688,-1.89 -4.58,-1.667 -1.84,0.168 -3.413,1.016 -4.511,2.453 -1.111,1.429 -1.795,3.299 -2.256,5.229 -0.904,3.9 -1.019,8.073 -1.131,12.215 z m -2.843,-0.019 c -0.025,-4.259 0.212,-8.568 1.297,-12.867 0.57,-2.131 1.371,-4.312 2.894,-6.196 0.761,-0.931 1.723,-1.756 2.832,-2.318 1.104,-0.571 2.32,-0.87 3.5,-0.959 1.136,-0.088 2.429,-0.037 3.634,0.42 1.216,0.44 2.275,1.294 3.01,2.272 1.473,1.989 2.008,4.219 2.412,6.353 0.387,2.152 0.517,4.296 0.649,6.425 0.115,2.13 0.19,4.252 0.231,6.371 h -0.005 c -0.224,1.556 -0.321,3.115 -0.409,4.684 l -0.113,2.368 c -0.048,0.801 -0.088,1.598 -0.334,2.478 -0.124,0.429 -0.371,0.947 -0.842,1.278 -0.467,0.328 -0.965,0.409 -1.395,0.455 -0.867,0.084 -1.652,0.026 -2.439,-0.005 -1.566,-0.08 -3.111,-0.146 -4.655,-0.136 -1.55,0.032 -3.078,0.148 -4.611,0.333 -0.772,0.088 -1.527,0.204 -2.363,0.286 -0.427,0.027 -0.861,0.084 -1.492,-0.059 -0.312,-0.077 -0.716,-0.264 -1.001,-0.586 -0.29,-0.316 -0.425,-0.655 -0.509,-0.931 -0.28,-1.089 -0.218,-1.835 -0.251,-2.656 l 0.012,-2.358 c 0.008,-1.558 -0.005,-3.097 -0.052,-4.652 z"
   id="path65"
   inkscape:connector-curvature="0" />
					</g>
				</g>
				<path
   d="m 276.395,279.278 c 0,0 -0.104,-14.455 9.666,-13.151 0,0 2.629,0.084 3.987,4.649 0,0 -8.861,-2.635 -13.653,8.502 z"
   id="path67"
   inkscape:connector-curvature="0"
   style="fill:#565656" />
			</g>
		</g>
	</g>
</g>
</svg>