<?xml version="1.0" encoding="utf-8"?>
<!-- Generator: Adobe Illustrator 15.0.0, SVG Export Plug-In . SVG Version: 6.00 Build 0)  -->
<!DOCTYPE svg PUBLIC "-//W3C//DTD SVG 1.1//EN" "http://www.w3.org/Graphics/SVG/1.1/DTD/svg11.dtd">
<svg version="1.1" id="Layer_1" xmlns="http://www.w3.org/2000/svg" xmlns:xlink="http://www.w3.org/1999/xlink" x="0px" y="0px"
	 width="22.65px" height="12.22px" viewBox="271.631 277.961 22.65 12.22" enable-background="new 271.631 277.961 22.65 12.22"
	 xml:space="preserve">
<g>
	<g>
		<path fill="#EC2127" d="M287.342,288.935c1.713-0.012,6.365,0.339,6.059-2.463c-0.143-1.29-1.178-2.438-2.018-3.353
			c-1.676-1.822-3.692-3.503-6.162-4.061c-0.689-0.155-1.441-0.291-2.152-0.291c-0.71,0-1.462,0.136-2.153,0.291
			c-2.47,0.558-4.486,2.238-6.162,4.061c-0.839,0.914-1.876,2.062-2.018,3.353c-0.307,2.802,4.345,2.451,6.059,2.463
			C280.221,288.944,285.916,288.944,287.342,288.935z"/>
		<path d="M287.363,287.904c1.082,0.04,2.068,0.103,3.027,0.021c0.943-0.061,1.889-0.354,2.113-0.781
			c0.137-0.199,0.162-0.559,0.068-0.968c-0.095-0.398-0.292-0.813-0.551-1.217c-0.515-0.797-1.253-1.613-1.939-2.343
			c-1.405-1.475-3.101-2.726-5.072-3.148c-1.006-0.233-2.001-0.356-2.98-0.173c-0.51,0.082-0.988,0.184-1.496,0.33
			c-0.458,0.135-0.935,0.333-1.376,0.564c-1.797,0.923-3.252,2.438-4.552,4.027c-0.628,0.773-1.155,1.643-1.156,2.413
			c-0.004,0.387,0.109,0.602,0.354,0.802c0.251,0.199,0.655,0.352,1.098,0.439c0.898,0.178,1.912,0.17,2.938,0.139l3.173-0.088
			c2.107-0.072,4.222-0.078,6.322-0.019L287.363,287.904z M287.365,289.965l-0.017,0.001c-2.12,0.078-4.226,0.068-6.339-0.007
			l-3.157-0.085c-1.079-0.022-2.196-0.066-3.354-0.386c-0.574-0.166-1.188-0.399-1.734-0.9c-0.567-0.49-0.851-1.373-0.755-2.038
			c0.152-1.372,0.936-2.325,1.65-3.139c1.46-1.576,3.081-3.087,5.081-4.06c0.503-0.236,1.006-0.44,1.562-0.599
			c0.507-0.141,1.064-0.254,1.597-0.332c1.112-0.183,2.253-0.058,3.299,0.178c2.193,0.452,4.1,1.731,5.694,3.183
			c0.807,0.757,1.538,1.469,2.261,2.384c0.348,0.457,0.668,0.978,0.871,1.594c0.188,0.594,0.299,1.364-0.055,2.12
			c-0.354,0.753-1.028,1.18-1.607,1.427c-0.597,0.249-1.18,0.376-1.749,0.463C289.49,289.939,288.376,289.936,287.365,289.965z"/>
	</g>
	<path fill="#B22024" d="M289.869,282.406c0,0-7.988,3.087-13.621-0.006c0,0,2.799-3.212,6.736-3.212
		C282.984,279.188,286.795,278.955,289.869,282.406z"/>
</g>
</svg>
