<?xml version="1.0" encoding="utf-8"?>
<!-- Generator: Adobe Illustrator 15.0.0, SVG Export Plug-In . SVG Version: 6.00 Build 0)  -->
<!DOCTYPE svg PUBLIC "-//W3C//DTD SVG 1.1//EN" "http://www.w3.org/Graphics/SVG/1.1/DTD/svg11.dtd">
<svg version="1.1" id="Layer_1" xmlns="http://www.w3.org/2000/svg" xmlns:xlink="http://www.w3.org/1999/xlink" x="0px" y="0px"
	 width="41.875px" height="51.5px" viewBox="262.715 257.34 41.875 51.5" enable-background="new 262.715 257.34 41.875 51.5"
	 xml:space="preserve">
<g>
	<ellipse fill="#3D3D3D" cx="283.803" cy="282.907" rx="19.281" ry="24.364"/>
	<path fill="#282828" d="M264.896,285.491c0,0,16.288,20.78,32.258,12.21l-3.429,6.483l-11.309,2.978l-10.716-4.37l-6.269-9.654
		l-1.007-6.036L264.896,285.491z"/>
	<polygon fill="#ED1C24" points="295.26,265.26 298.369,269.528 295.26,277.338 291.685,283.098 290.254,284.633 287.46,282.178 
		287.069,281.394 291.326,274.683 	"/>
	<g>
		<polygon fill="#E8BB7D" points="280.925,259.186 274.724,262.06 280.604,275.318 286.843,281.394 289.309,278.317 292.5,272.568 
			294.641,264.037 289.648,260.208 		"/>
		<g>
			<polygon fill="#ED1C24" points="274.63,261.979 270.913,265.68 274.63,275.112 283.477,285.908 287.822,290.248 294.826,295.224 
				297.409,296.724 299.486,295.655 300.176,293.138 299.709,292.324 293.861,287.958 288.791,284.044 282.538,276.688 
				278.037,269.528 			"/>
			<g>
				<g>
					<path d="M264.88,282.99c-0.023,5.573,1.546,11.188,4.795,15.663c1.614,2.229,3.66,4.135,6.011,5.471
						c2.344,1.343,5.007,2.063,7.667,2.03c2.662-0.027,5.279-0.808,7.556-2.181c2.288-1.362,4.229-3.288,5.782-5.479
						c3.109-4.4,4.65-9.891,4.663-15.287c0.046-5.455-1.437-10.919-4.499-15.365c-1.529-2.208-3.449-4.154-5.723-5.541
						c-2.254-1.397-4.889-2.204-7.516-2.261c-2.693-0.062-5.339,0.631-7.706,1.948c-2.364,1.312-4.431,3.195-6.068,5.406
						c-3.297,4.438-4.926,10.045-4.963,15.604V282.99z M263.455,282.99c0.018-5.823,1.659-11.718,5.072-16.551
						c1.707-2.402,3.86-4.542,6.448-6.078c2.564-1.546,5.603-2.443,8.621-2.466c3.084-0.034,6.118,0.808,8.763,2.328
						c2.648,1.512,4.905,3.636,6.67,6.076c3.548,4.895,5.213,10.967,5.191,16.894c-0.042,5.985-1.772,11.997-5.372,16.866
						c-1.791,2.422-4.07,4.521-6.734,6.005c-2.654,1.492-5.721,2.302-8.771,2.234c-3.051-0.055-6.055-0.984-8.61-2.559
						c-2.572-1.563-4.702-3.726-6.383-6.146c-3.361-4.866-4.939-10.788-4.894-16.597V282.99z"/>
				</g>
			</g>
			<g>
				<path d="M271.444,264.852c0.853,3.44,2.38,6.832,4.158,9.982c1.799,3.162,3.944,6.13,6.363,8.854
					c4.855,5.443,10.805,9.862,17.287,13.21l-0.66,1.271c-6.606-3.44-12.683-7.985-17.638-13.581
					c-2.488-2.783-4.7-5.818-6.562-9.062c-1.845-3.262-3.41-6.652-4.349-10.375L271.444,264.852z"/>
			</g>
			<path fill="none" stroke="#000000" stroke-width="1.4325" stroke-miterlimit="10" d="M298.922,268.571
				c0,0-2.43,9.553-9.081,17.174"/>
		</g>
		<g>
			<path d="M275.329,261.522c1.095,3.224,2.644,6.369,4.329,9.35c1.715,2.981,3.678,5.81,5.876,8.441
				c4.392,5.28,9.791,9.654,15.798,13.183l-0.637,1.283c-3.305-1.372-6.467-3.147-9.367-5.298c-2.906-2.14-5.557-4.642-7.894-7.403
				c-2.336-2.764-4.349-5.798-5.977-9.021c-1.625-3.232-2.887-6.611-3.527-10.224L275.329,261.522z"/>
		</g>
		<path fill="none" stroke="#000000" stroke-width="0.3581" stroke-miterlimit="10" d="M277.322,269.011
			c0,0,10.355,4.17,14.751,3.852"/>
		<path fill="none" stroke="#000000" stroke-width="0.3581" stroke-miterlimit="10" d="M277.458,270.034
			c0,0,10.353,4.171,14.75,3.852"/>
		<path fill="none" stroke="#000000" stroke-width="0.3581" stroke-miterlimit="10" d="M278.343,271.06c0,0,8.419,3.94,12.815,3.623
			"/>
		<path fill="none" stroke="#000000" stroke-width="0.3581" stroke-miterlimit="10" d="M278.721,272.423
			c0,0,8.449,3.109,12.13,3.506"/>
		<path fill="none" stroke="#000000" stroke-width="0.3581" stroke-miterlimit="10" d="M279.07,273.36c0,0,7.643,3.328,11.184,3.535
			"/>
		<path fill="none" stroke="#000000" stroke-width="0.3581" stroke-miterlimit="10" d="M279.89,274.683c0,0,5.553,3.184,9.951,2.865
			"/>
		<path fill="none" stroke="#000000" stroke-width="0.3581" stroke-miterlimit="10" d="M282.033,277.338
			c0,0,3.352,1.169,7.111,1.381"/>
		<path fill="none" stroke="#000000" stroke-width="0.3581" stroke-miterlimit="10" d="M279.272,267.911
			c0,0,4.869,9.748,8.188,12.649"/>
		<path fill="none" stroke="#000000" stroke-width="0.3581" stroke-miterlimit="10" d="M280.604,267.692
			c0,0,4.868,9.749,8.188,12.65"/>
		<path fill="none" stroke="#000000" stroke-width="0.3581" stroke-miterlimit="10" d="M281.868,267.578
			c0,0,4.121,8.152,7.44,11.054"/>
		<path fill="none" stroke="#000000" stroke-width="0.3581" stroke-miterlimit="10" d="M283.077,267.578
			c0,0,3.253,7.188,6.572,10.09"/>
		<path fill="none" stroke="#000000" stroke-width="0.3581" stroke-miterlimit="10" d="M283.887,267.034
			c0,0,3.047,6.754,6.367,9.654"/>
		<path fill="none" stroke="#000000" stroke-width="0.3581" stroke-miterlimit="10" d="M286.843,269.011
			c0,0,1.138,4.051,3.776,7.115"/>
		<path fill="none" stroke="#000000" stroke-width="0.3581" stroke-miterlimit="10" d="M287.46,268.953c0,0,1.331,3.017,3.698,5.729
			"/>
		<path fill="none" stroke="#000000" stroke-width="0.5372" stroke-miterlimit="10" d="M278.721,269.528
			c0,0,4.317,10.293,7.637,13.194"/>
		<g>
			<path d="M295.542,263.56c0.01,0.98-0.114,1.839-0.266,2.735c-0.15,0.886-0.362,1.756-0.618,2.611
				c-0.505,1.711-1.136,3.382-1.916,4.978c-1.557,3.18-3.363,6.285-5.937,8.734l-1.129-0.881c1.685-3.011,3.685-5.736,5.188-8.775
				c0.745-1.514,1.448-3.048,2.008-4.633c0.543-1.569,1.044-3.235,1.238-4.797L295.542,263.56z"/>
		</g>
	</g>
</g>
</svg>
