<?xml version="1.0" encoding="UTF-8" standalone="no"?>
<!-- Generator: Adobe Illustrator 15.0.0, SVG Export Plug-In . SVG Version: 6.00 Build 0)  -->

<svg
   xmlns:dc="http://purl.org/dc/elements/1.1/"
   xmlns:cc="http://creativecommons.org/ns#"
   xmlns:rdf="http://www.w3.org/1999/02/22-rdf-syntax-ns#"
   xmlns:svg="http://www.w3.org/2000/svg"
   xmlns="http://www.w3.org/2000/svg"
   xmlns:sodipodi="http://sodipodi.sourceforge.net/DTD/sodipodi-0.dtd"
   xmlns:inkscape="http://www.inkscape.org/namespaces/inkscape"
   version="1.1"
   id="Layer_1"
   x="0px"
   y="0px"
   width="30"
   height="110"
   viewBox="31.862 -28.45 30 110"
   enable-background="new 31.862 -28.45 22.75 81.25"
   xml:space="preserve"
   inkscape:version="0.48.2 r9819"
   sodipodi:docname="ninja_weapon_1.svg"><metadata
   id="metadata45"><rdf:RDF><cc:Work
       rdf:about=""><dc:format>image/svg+xml</dc:format><dc:type
         rdf:resource="http://purl.org/dc/dcmitype/StillImage" /></cc:Work></rdf:RDF></metadata><defs
   id="defs43" /><sodipodi:namedview
   pagecolor="#ffffff"
   bordercolor="#666666"
   borderopacity="1"
   objecttolerance="10"
   gridtolerance="10"
   guidetolerance="10"
   inkscape:pageopacity="0"
   inkscape:pageshadow="2"
   inkscape:window-width="1920"
   inkscape:window-height="1032"
   id="namedview41"
   showgrid="false"
   inkscape:zoom="8"
   inkscape:cx="24.104946"
   inkscape:cy="51.189313"
   inkscape:window-x="12"
   inkscape:window-y="0"
   inkscape:window-maximized="0"
   inkscape:current-layer="g3" />
<g
   id="g3"
   transform="translate(0,28.75)">
	<g
   id="g5"
   transform="translate(2.8284271,-29.698485)">
		<path
   d="m 43.689,-26.641 c -1.762,-0.016 -3.204,1.396 -3.223,3.161 l -0.16,16.448 c -0.021,1.764 1.394,3.206 3.156,3.222 l 0,0 c 1.763,0.02 3.203,-1.396 3.221,-3.158 l 0.164,-16.45 c 0.016,-1.761 -1.397,-3.207 -3.158,-3.223 l 0,0 z"
   id="path7"
   inkscape:connector-curvature="0"
   style="fill:#703b27" />
		<path
   d="m 43.723,-25.818 c -0.903,-0.012 -1.661,0.422 -2.104,1.138 -0.222,0.349 -0.341,0.754 -0.365,1.171 l -0.044,1.642 -0.232,6.616 -0.231,6.616 -0.04,1.634 c 0.004,0.303 0.021,0.486 0.083,0.733 0.057,0.235 0.146,0.464 0.27,0.673 0.472,0.859 1.425,1.413 2.406,1.426 0.983,0.007 1.946,-0.527 2.436,-1.378 0.261,-0.414 0.372,-0.903 0.384,-1.385 l -0.008,-1.648 -0.102,-6.618 -0.102,-6.619 -0.012,-1.614 c -0.017,-0.329 -0.035,-0.417 -0.098,-0.642 -0.058,-0.198 -0.138,-0.39 -0.245,-0.565 -0.411,-0.725 -1.219,-1.176 -2.038,-1.179 h 0.042 z m -0.026,-1.648 c 1.393,0.014 2.747,0.806 3.417,2.02 0.176,0.298 0.306,0.622 0.39,0.956 0.09,0.307 0.129,0.771 0.125,0.992 l -0.04,1.695 -0.234,6.616 -0.235,6.617 -0.045,1.659 c -0.028,0.618 -0.207,1.231 -0.534,1.755 -0.63,1.066 -1.857,1.729 -3.085,1.704 -1.229,-10e-4 -2.442,-0.687 -3.052,-1.767 -0.313,-0.508 -0.484,-1.187 -0.496,-1.751 l -0.014,-1.674 -0.103,-6.619 -0.104,-6.619 -0.007,-1.667 c 0.016,-0.682 0.188,-1.379 0.555,-1.967 0.678,-1.2 2.109,-1.962 3.416,-1.949 l 0.046,-0.001 z"
   id="path9"
   inkscape:connector-curvature="0"
   style="fill:#020202" />
	</g>
	<path
   stroke-miterlimit="10"
   d="m 46.488428,-53.483485 c -1.761,-0.014 -3.204,1.399 -3.221,3.161 l -0.106,10.822 c -0.019,1.763 1.396,3.207 3.158,3.227 l 0,0 c 1.761,0.017 3.201,-1.396 3.219,-3.159 l 0.11,-10.827 c 0.017,-1.759 -1.399,-3.204 -3.16,-3.224 l 0,0 z"
   id="path11"
   inkscape:connector-curvature="0"
   style="fill:#4a4a4a;stroke:#020202;stroke-width:0.71630001;stroke-miterlimit:10" />
	<path
   stroke-miterlimit="10"
   d="m 46.473428,-50.102485 c -1.76,-0.02 -3.204,1.396 -3.222,3.157 l -0.106,10.823 c -0.018,1.766 1.396,3.206 3.158,3.227 l 0,0 c 1.761,0.018 3.202,-1.397 3.222,-3.16 l 0.108,-10.826 c 0.018,-1.764 -1.399,-3.205 -3.16,-3.221 l 0,0 z"
   id="path13"
   inkscape:connector-curvature="0"
   style="fill:#4a4a4a;stroke:#020202;stroke-width:0.71630001;stroke-miterlimit:10" />
	<path
   stroke-miterlimit="10"
   d="m 46.456428,-46.727485 c -1.76,-0.019 -3.205,1.395 -3.22,3.159 l -0.106,10.821 c -0.018,1.764 1.394,3.209 3.157,3.225 l 0,0 c 1.762,0.018 3.203,-1.396 3.219,-3.158 l 0.111,-10.824 c 0.017,-1.762 -1.399,-3.204 -3.161,-3.223 l 0,0 z"
   id="path15"
   inkscape:connector-curvature="0"
   style="fill:#4a4a4a;stroke:#020202;stroke-width:0.71630001;stroke-miterlimit:10" />
	<path
   stroke-miterlimit="10"
   d="m 46.444428,-43.349485 c -1.763,-0.021 -3.205,1.396 -3.224,3.155 l -0.106,10.825 c -0.018,1.763 1.396,3.207 3.157,3.226 l 0,0 c 1.765,0.015 3.204,-1.398 3.222,-3.161 l 0.108,-10.825 c 0.019,-1.763 -1.398,-3.206 -3.157,-3.22 l 0,0 z"
   id="path17"
   inkscape:connector-curvature="0"
   style="fill:#4a4a4a;stroke:#020202;stroke-width:0.71630001;stroke-miterlimit:10" />
	<path
   stroke-miterlimit="10"
   d="m 46.428428,-39.769485 c -1.762,-0.02 -3.206,1.397 -3.223,3.158 l -0.107,10.822 c -0.017,1.763 1.396,3.208 3.158,3.227 l 0,0 c 1.763,0.015 3.203,-1.398 3.221,-3.159 l 0.11,-10.827 c 0.017,-1.763 -1.4,-3.204 -3.159,-3.221 l 0,0 z"
   id="path19"
   inkscape:connector-curvature="0"
   style="fill:#4a4a4a;stroke:#020202;stroke-width:0.71630001;stroke-miterlimit:10" />
	<path
   stroke-miterlimit="10"
   d="m 46.410428,-36.186485 c -1.761,-0.021 -3.203,1.396 -3.223,3.156 l -0.104,10.823 c -0.019,1.764 1.396,3.208 3.158,3.227 l 0,0 c 1.761,0.017 3.203,-1.396 3.22,-3.159 l 0.11,-10.825 c 0.017,-1.765 -1.399,-3.208 -3.161,-3.222 l 0,0 z"
   id="path21"
   inkscape:connector-curvature="0"
   style="fill:#4a4a4a;stroke:#020202;stroke-width:0.71630001;stroke-miterlimit:10" />
	<path
   d="M 51.404006,-30.248141 51.204448,47.1298 c 0,0 -7.862448,-9.756943 -8.311222,-14.960091 l 0.161146,-62.485941"
   id="path23"
   inkscape:connector-curvature="0"
   style="fill:#5e5f5f" />
	<path
   d="M 50.671257,42.505612 C 50.271028,42.92935 48.157571,33.766254 47.66793,32.998433 45.740585,29.998332 46.434599,26.969419 47.093132,23.58117 47.598386,20.974304 47.313117,19.160685 46.736901,16.655517 46.221712,14.41646 46.66025,12.999464 47.20809,10.83668 48.053965,7.5077556 47.544455,4.655118 46.921403,1.3736539 c -0.540734,-2.8289071 0.102187,-5.644254 0.248369,-8.474858 0.143345,-2.7611089 -0.496737,-5.4188239 -0.503834,-8.1714569 -0.0086,-2.66958 1.292937,-4.754395 0.895549,-7.495164 -0.315075,-2.154308 -1.413575,-4.856093 0.577634,-6.391738 l -5.509535,-0.584764 0.441389,61.868153 1.626461,2.239058 c 1.552661,1.176311 4.037961,10.183469 5.973821,8.142728 z"
   id="path25"
   inkscape:connector-curvature="0"
   style="fill:#a3a3a2"
   sodipodi:nodetypes="cccccccccccccc" />
	<polygon
   enable-background="new    "
   points="38.684,29.096 47.83,17.246 48.109,19.335 38.647,37.332 "
   id="polygon27"
   transform="matrix(0.89014984,0,0,0.73278659,8.6890111,-26.514785)"
   style="opacity:0.7;fill:#ffffff" />
	<polygon
   enable-background="new    "
   points="47.621,16.185 38.447,26.706 38.466,24.419 47.832,13.023 "
   id="polygon29"
   transform="matrix(1.0098048,0,0,0.92694734,3.4469333,-31.444318)"
   style="opacity:0.7;fill:#ffffff" />
	<g
   id="g31"
   transform="matrix(0.32735543,0,0,0.95114731,32.129855,-33.321781)">
		<path
   d="m 61.985863,3.4099155 c -0.980008,3.2986385 -1.10967,6.6006775 -1.085546,9.9010165 l 0.06333,9.902717 0.138714,19.805433 0.358833,19.805433 0.603083,19.808833 0.111565,3.657409 -5.488045,-2.089705 -0.0091,-0.0034 C 51.371579,81.956609 46.362983,79.627157 41.538327,77.071563 39.135045,75.789515 36.804134,74.454756 34.630025,72.977171 33.550508,72.235826 32.507176,71.458776 31.563352,70.59841 30.649683,69.726142 29.742044,68.79096 29.371149,67.524215 l -0.03316,-0.110517 0.003,-0.108825 C 29.672705,56.642118 30.161202,45.981054 30.345142,35.318291 L 30.70096,19.326697 30.8849,11.330048 C 30.957298,8.6656327 30.903022,5.9995166 29.71495,3.33 l 5.391552,0.013603 c -1.227271,2.6627151 -1.329796,5.3305315 -1.299641,7.993247 l 0.05428,7.996647 0.09649,15.993296 c 0.003,10.662763 0.322648,21.325528 0.48548,31.988291 l -0.03015,-0.226144 c 0.382956,1.149423 2.400265,2.630409 4.378375,3.861448 2.053493,1.271846 4.34822,2.473979 6.724364,3.633603 4.764346,2.302246 9.902604,4.473565 15.080063,6.45955 l 0.003,0.0034 -5.373461,1.571104 L 56.148019,62.814313 56.8295,43.010579 57.287844,23.208547 57.514,13.305831 c 0.07237,-3.30034 -0.003,-6.6023787 -0.931763,-9.9044178 l 5.403613,0.0085 z"
   id="path33"
   inkscape:connector-curvature="0"
   style="fill:#020202" />
	</g>
	<g
   id="g35"
   transform="matrix(0.57562928,0,0,0.88331562,22.272731,-33.361816)">
		<path
   d="M 33.932,4.149 C 33.371,4.146 32.919,3.689 32.92,3.129 l 0.017,-3.427 c 0.003,-0.561 0.461,-1.012 1.021,-1.01 l 18.253,0.084 c 0.561,10e-4 1.014,0.458 1.011,1.019 l -0.016,3.426 c -0.003,0.56 -0.459,1.013 -1.021,1.01 L 33.932,4.149 z"
   id="path37"
   inkscape:connector-curvature="0"
   style="fill:#793418" />
		<path
   d="M 33.901,4.693 C 33.144,4.695 32.395,3.984 32.408,3.188 V 1.613 l 0.003,-1.554 0.003,-0.416 c 0,-0.041 0.012,-0.179 0.036,-0.281 0.021,-0.096 0.053,-0.19 0.092,-0.28 0.159,-0.361 0.458,-0.654 0.825,-0.806 0.183,-0.076 0.381,-0.117 0.577,-0.118 l 0.395,-10e-4 0.777,-0.002 1.554,-0.004 3.107,-0.009 12.435,-0.034 c 0.875,-0.022 1.677,0.742 1.688,1.626 l -0.006,1.581 c -0.016,0.518 0.032,1.036 0.056,1.554 l 10e-4,0.427 c 0,0.031 -0.017,0.201 -0.045,0.319 -0.026,0.11 -0.063,0.216 -0.109,0.319 -0.186,0.411 -0.53,0.74 -0.948,0.906 -0.208,0.083 -0.434,0.127 -0.656,0.124 L 51.8,4.959 51.023,4.948 49.469,4.926 46.361,4.879 33.926,4.696 33.901,4.693 z m 0.085,-1.09 12.383,-0.072 3.107,-0.019 1.554,-0.01 0.777,-0.004 0.384,-0.003 c 0.038,0 0.071,-0.01 0.103,-0.023 0.063,-0.028 0.117,-0.084 0.142,-0.148 L 52.451,3.276 C 52.449,3.267 52.452,3.308 52.456,3.21 l 0.008,-0.35 c 0.026,-0.519 0.08,-1.036 0.068,-1.554 l 0.005,-1.528 c 0.003,-0.17 -0.15,-0.331 -0.331,-0.331 l -12.435,-0.15 -3.107,-0.036 -1.555,-0.02 -0.776,-0.009 -0.383,-0.004 c -0.063,-0.001 -0.123,0.01 -0.181,0.032 -0.114,0.044 -0.213,0.137 -0.265,0.25 -0.013,0.027 -0.023,0.057 -0.031,0.087 -0.004,0.022 -0.01,0.015 -0.014,0.104 l -0.003,0.361 -0.013,1.554 -0.01,1.533 c 0.023,0.259 0.229,0.469 0.526,0.455 l 0.027,-10e-4 z"
   id="path39"
   inkscape:connector-curvature="0" />
	</g>
</g>
</svg>