<?xml version="1.0" encoding="utf-8"?>
<!-- Generator: Adobe Illustrator 15.0.0, SVG Export Plug-In . SVG Version: 6.00 Build 0)  -->
<!DOCTYPE svg PUBLIC "-//W3C//DTD SVG 1.1//EN" "http://www.w3.org/Graphics/SVG/1.1/DTD/svg11.dtd" [
	<!ENTITY ns_flows "http://ns.adobe.com/Flows/1.0/">
	<!ENTITY ns_extend "http://ns.adobe.com/Extensibility/1.0/">
	<!ENTITY ns_ai "http://ns.adobe.com/AdobeIllustrator/10.0/">
	<!ENTITY ns_graphs "http://ns.adobe.com/Graphs/1.0/">
]>
<svg version="1.1" id="Layer_1" xmlns:x="&ns_extend;" xmlns:i="&ns_ai;" xmlns:graph="&ns_graphs;"
	 xmlns="http://www.w3.org/2000/svg" xmlns:xlink="http://www.w3.org/1999/xlink" xmlns:a="http://ns.adobe.com/AdobeSVGViewerExtensions/3.0/"
	 x="0px" y="0px" width="26px" height="88.044px" viewBox="0 -20.318 26 88.044" enable-background="new 0 -20.318 26 88.044"
	 xml:space="preserve">
<g>
	<path fill="#56C1EF" d="M23.582,19.871C22.949,2.583,15.325-12.122,4.752-18.99c1.98,2.91,3.76,6.213,5.298,9.837
		c-1.917-2.129-4.014-3.949-6.248-5.402C6.5-9.577,7.37-8.382,8.454-4.794C7.179-6.209,4.166-8.785,4.051-8.89
		c0.015,0.032,0.36,0.782,0.505,1.096c1.33,2.957,2.807,5.614,3.399,9.559c-1.016-1.907-1.747-2.536-4-4.908
		c3.517,8.831,5.507,21.346,5.089,35.167c-0.418,13.7-2.665,26.058-7.104,34.569c-0.047,0.074-0.115,0.208-0.122,0.224
		c0.037-0.036,0.09-0.071,0.13-0.107c3.847-3.695,7.92-7.211,11.19-11.458c3.27-4.251,5.737-9.278,7.5-14.328
		c1.046-3.002,1.808-6.162,2.292-9.307C23.523,27.77,23.726,23.761,23.582,19.871z"/>
	<path fill="#ADE1F7" d="M10.33,56.186c25.232-36.793,0.364-67.861,0.364-67.861c2.113,4.667,3.653,9.291,4.738,13.803
		c-2.438-5.151-4.813-8.116-4.813-8.116c1.851,4.09,3.224,8.145,4.212,12.108c-2.191-4.546-4.277-7.153-4.277-7.153
		c1.793,3.961,3.095,7.88,4.012,11.708c-2.063-4.367-4.077-6.885-4.077-6.885c12.478,27.574-0.713,53.194-0.713,53.194
		C9.966,56.72,10.15,56.454,10.33,56.186z"/>
</g>
</svg>
