<?xml version="1.0" encoding="utf-8"?>
<!-- Generator: Adobe Illustrator 15.0.0, SVG Export Plug-In . SVG Version: 6.00 Build 0)  -->
<!DOCTYPE svg PUBLIC "-//W3C//DTD SVG 1.1//EN" "http://www.w3.org/Graphics/SVG/1.1/DTD/svg11.dtd">
<svg version="1.1" id="Layer_1" xmlns="http://www.w3.org/2000/svg" xmlns:xlink="http://www.w3.org/1999/xlink" x="0px" y="0px"
	 width="22.75px" height="81.25px" viewBox="31.862 -28.45 22.75 81.25" enable-background="new 31.862 -28.45 22.75 81.25"
	 xml:space="preserve">
<g>
	<g>
		<path fill="#703B27" d="M43.689-26.641c-1.762-0.016-3.204,1.396-3.223,3.161l-0.16,16.448C40.285-5.268,41.7-3.826,43.462-3.81
			l0,0c1.763,0.02,3.203-1.396,3.221-3.158l0.164-16.45C46.863-25.179,45.45-26.625,43.689-26.641L43.689-26.641z"/>
		<path fill="#020202" d="M43.723-25.818c-0.903-0.012-1.661,0.422-2.104,1.138c-0.222,0.349-0.341,0.754-0.365,1.171l-0.044,1.642
			l-0.232,6.616l-0.231,6.616l-0.04,1.634c0.004,0.303,0.021,0.486,0.083,0.733c0.057,0.235,0.146,0.464,0.27,0.673
			c0.472,0.859,1.425,1.413,2.406,1.426c0.983,0.007,1.946-0.527,2.436-1.378c0.261-0.414,0.372-0.903,0.384-1.385l-0.008-1.648
			l-0.102-6.618l-0.102-6.619l-0.012-1.614c-0.017-0.329-0.035-0.417-0.098-0.642c-0.058-0.198-0.138-0.39-0.245-0.565
			c-0.411-0.725-1.219-1.176-2.038-1.179H43.723z M43.697-27.466c1.393,0.014,2.747,0.806,3.417,2.02
			c0.176,0.298,0.306,0.622,0.39,0.956c0.09,0.307,0.129,0.771,0.125,0.992l-0.04,1.695l-0.234,6.616L47.12-8.57l-0.045,1.659
			c-0.028,0.618-0.207,1.231-0.534,1.755c-0.63,1.066-1.857,1.729-3.085,1.704c-1.229-0.001-2.442-0.687-3.052-1.767
			c-0.313-0.508-0.484-1.187-0.496-1.751l-0.014-1.674l-0.103-6.619l-0.104-6.619l-0.007-1.667c0.016-0.682,0.188-1.379,0.555-1.967
			c0.678-1.2,2.109-1.962,3.416-1.949L43.697-27.466z"/>
	</g>
	<path fill="#4A4A4A" stroke="#020202" stroke-width="0.7163" stroke-miterlimit="10" d="M43.66-23.785
		c-1.761-0.014-3.204,1.399-3.221,3.161L40.333-9.802c-0.019,1.763,1.396,3.207,3.158,3.227l0,0
		c1.761,0.017,3.201-1.396,3.219-3.159l0.11-10.827C46.837-22.32,45.421-23.765,43.66-23.785L43.66-23.785z"/>
	<path fill="#4A4A4A" stroke="#020202" stroke-width="0.7163" stroke-miterlimit="10" d="M43.645-20.404
		c-1.76-0.02-3.204,1.396-3.222,3.157L40.317-6.424c-0.018,1.766,1.396,3.206,3.158,3.227l0,0c1.761,0.018,3.202-1.397,3.222-3.16
		l0.108-10.826C46.823-18.947,45.406-20.388,43.645-20.404L43.645-20.404z"/>
	<path fill="#4A4A4A" stroke="#020202" stroke-width="0.7163" stroke-miterlimit="10" d="M43.628-17.029
		c-1.76-0.019-3.205,1.395-3.22,3.159L40.302-3.049c-0.018,1.764,1.394,3.209,3.157,3.225l0,0c1.762,0.018,3.203-1.396,3.219-3.158
		l0.111-10.824C46.806-15.568,45.39-17.01,43.628-17.029L43.628-17.029z"/>
	<path fill="#4A4A4A" stroke="#020202" stroke-width="0.7163" stroke-miterlimit="10" d="M43.616-13.651
		c-1.763-0.021-3.205,1.396-3.224,3.155L40.286,0.329c-0.018,1.763,1.396,3.207,3.157,3.226l0,0
		c1.765,0.015,3.204-1.398,3.222-3.161l0.108-10.825C46.792-12.194,45.375-13.637,43.616-13.651L43.616-13.651z"/>
	<path fill="#4A4A4A" stroke="#020202" stroke-width="0.7163" stroke-miterlimit="10" d="M43.6-10.071
		c-1.762-0.02-3.206,1.397-3.223,3.158L40.27,3.909c-0.017,1.763,1.396,3.208,3.158,3.227l0,0c1.763,0.015,3.203-1.398,3.221-3.159
		l0.11-10.827C46.776-8.613,45.359-10.054,43.6-10.071L43.6-10.071z"/>
	<path fill="#4A4A4A" stroke="#020202" stroke-width="0.7163" stroke-miterlimit="10" d="M43.582-6.488
		c-1.761-0.021-3.203,1.396-3.223,3.156L40.255,7.491c-0.019,1.764,1.396,3.208,3.158,3.227l0,0c1.761,0.017,3.203-1.396,3.22-3.159
		l0.11-10.825C46.76-5.031,45.344-6.474,43.582-6.488L43.582-6.488z"/>
	<path fill="#5E5F5F" d="M47.877,3.373l-0.213,46.592c0,0-8.392-5.875-8.871-9.008l0.172-37.625"/>
	<path fill="#A3A3A2" d="M46.828,48.782c-0.282,0.25-3.973-6.631-4.318-7.084c-1.358-1.77-0.869-3.557-0.405-5.556
		c0.356-1.538,0.155-2.608-0.251-4.086c-0.363-1.321-0.054-2.157,0.332-3.433c0.596-1.964,0.237-3.647-0.202-5.583
		c-0.381-1.669,0.072-3.33,0.175-5c0.101-1.629-0.35-3.197-0.355-4.821c-0.006-1.575,0.911-2.805,0.631-4.422
		c-0.222-1.271-0.996-2.865,0.407-3.771L38.96,4.681l0.311,36.501l1.146,1.321C41.511,43.197,45.464,49.986,46.828,48.782z"/>
	<polygon opacity="0.7" fill="#FFFFFF" enable-background="new    " points="48.109,19.335 38.647,37.332 38.684,29.096 
		47.83,17.246 	"/>
	<polygon opacity="0.7" fill="#FFFFFF" enable-background="new    " points="47.621,16.185 38.447,26.706 38.466,24.419 
		47.832,13.023 	"/>
	<g>
		<path fill="#020202" d="M48.772,3.377c-0.325,1.94-0.368,3.882-0.36,5.823l0.021,5.824l0.046,11.648l0.119,11.648l0.2,11.65
			l0.037,2.151l-1.82-1.229l-0.003-0.002c-1.76-1.318-3.421-2.688-5.021-4.191c-0.797-0.754-1.57-1.539-2.291-2.408
			c-0.358-0.436-0.704-0.893-1.017-1.399c-0.303-0.513-0.604-1.063-0.727-1.808l-0.011-0.065l0.001-0.064
			c0.11-6.271,0.272-12.541,0.333-18.812l0.118-9.405l0.061-4.703c0.024-1.567,0.006-3.135-0.388-4.705l1.788,0.008
			c-0.407,1.566-0.441,3.135-0.431,4.701l0.018,4.703l0.032,9.406c0.001,6.271,0.107,12.542,0.161,18.813l-0.01-0.133
			c0.127,0.676,0.796,1.547,1.452,2.271c0.681,0.748,1.442,1.455,2.23,2.137c1.58,1.354,3.284,2.631,5.001,3.799l0.001,0.002
			l-1.782,0.924l0.306-11.647l0.226-11.647l0.152-11.646l0.075-5.824c0.024-1.941-0.001-3.883-0.309-5.825L48.772,3.377z"/>
	</g>
	<g>
		<path fill="#793418" d="M33.932,4.149c-0.561-0.003-1.013-0.46-1.012-1.02l0.017-3.427c0.003-0.561,0.461-1.012,1.021-1.01
			l18.253,0.084c0.561,0.001,1.014,0.458,1.011,1.019l-0.016,3.426c-0.003,0.56-0.459,1.013-1.021,1.01L33.932,4.149z"/>
		<path d="M33.901,4.693c-0.757,0.002-1.506-0.709-1.493-1.505V1.613l0.003-1.554l0.003-0.416c0-0.041,0.012-0.179,0.036-0.281
			c0.021-0.096,0.053-0.19,0.092-0.28c0.159-0.361,0.458-0.654,0.825-0.806c0.183-0.076,0.381-0.117,0.577-0.118l0.395-0.001
			l0.777-0.002l1.554-0.004l3.107-0.009l12.435-0.034c0.875-0.022,1.677,0.742,1.688,1.626l-0.006,1.581
			c-0.016,0.518,0.032,1.036,0.056,1.554l0.001,0.427c0,0.031-0.017,0.201-0.045,0.319c-0.026,0.11-0.063,0.216-0.109,0.319
			c-0.186,0.411-0.53,0.74-0.948,0.906c-0.208,0.083-0.434,0.127-0.656,0.124l-0.393-0.005l-0.777-0.011l-1.554-0.022l-3.108-0.047
			L33.926,4.696L33.901,4.693z M33.986,3.603l12.383-0.072l3.107-0.019l1.554-0.01l0.777-0.004l0.384-0.003
			c0.038,0,0.071-0.01,0.103-0.023c0.063-0.028,0.117-0.084,0.142-0.148l0.015-0.048c-0.002-0.009,0.001,0.032,0.005-0.066
			l0.008-0.35c0.026-0.519,0.08-1.036,0.068-1.554l0.005-1.528c0.003-0.17-0.15-0.331-0.331-0.331L39.771-0.703l-3.107-0.036
			l-1.555-0.02l-0.776-0.009l-0.383-0.004c-0.063-0.001-0.123,0.01-0.181,0.032c-0.114,0.044-0.213,0.137-0.265,0.25
			c-0.013,0.027-0.023,0.057-0.031,0.087c-0.004,0.022-0.01,0.015-0.014,0.104l-0.003,0.361l-0.013,1.554l-0.01,1.533
			c0.023,0.259,0.229,0.469,0.526,0.455L33.986,3.603z"/>
	</g>
</g>
</svg>
