<?xml version="1.0" encoding="utf-8"?>
<!-- Generator: Adobe Illustrator 16.0.0, SVG Export Plug-In . SVG Version: 6.00 Build 0)  -->
<!DOCTYPE svg PUBLIC "-//W3C//DTD SVG 1.1//EN" "http://www.w3.org/Graphics/SVG/1.1/DTD/svg11.dtd">
<svg version="1.1" id="Layer_1" xmlns="http://www.w3.org/2000/svg" xmlns:xlink="http://www.w3.org/1999/xlink" x="0px" y="0px"
	 width="27.777px" height="29px" viewBox="0 0 27.777 29" enable-background="new 0 0 27.777 29" xml:space="preserve">
<g>
	<path fill="#559331" d="M22.343,23.583c-0.455-0.496-0.427-1.558,0.424-1.908c1.736-0.734,3.352-1.717,5.012-2.617
		c-0.043-0.133-0.089-0.27-0.151-0.398c-2.085-0.012-4.174,0.385-6.105,1.156c-0.048,0.021-0.087,0.043-0.141,0.049
		c-0.584,0.232-1.017-0.061-1.188-0.51c-0.2-0.393-0.172-0.906,0.096-1.246c-0.491-0.623-0.215-1.797,0.812-1.797
		c0.018,0,0.025,0.004,0.038,0.004c-0.018-0.014-0.038-0.02-0.063-0.025c-0.729-0.262-0.854-1.26-0.389-1.783
		c0.002,0,0.004-0.002,0.006-0.005c0.001-0.004,0.005-0.008,0.009-0.01c0.003,0,0.003-0.004,0.003-0.009
		c1.554-1.914,3.622-3.247,5.706-4.507c-0.017-0.277-0.1-0.554-0.242-0.814c-1.422,0.381-2.878,0.657-4.356,0.81
		c-0.854,0.088-1.171-0.694-0.981-1.347c-0.444-0.219-0.793-0.779-0.597-1.271c0.188-0.46,0.384-0.896,0.585-1.325
		c-1.132,0.585-2.188,1.313-3.246,2.021c-0.437,0.287-0.859,0.212-1.154-0.043C16.398,8.037,16.396,8.07,16.384,8.1
		c-0.014,0.021-0.019,0.045-0.029,0.064c-0.031,0.062-0.07,0.122-0.104,0.176c-0.013,0.012-0.023,0.023-0.025,0.035
		c-0.056,0.064-0.113,0.119-0.188,0.17c-0.013,0.013-0.038,0.02-0.058,0.03c-0.057,0.037-0.12,0.065-0.181,0.086
		c-0.026,0.013-0.057,0.02-0.084,0.025c-0.086,0.026-0.183,0.044-0.288,0.044c-0.083,0-0.164-0.013-0.24-0.027
		c-0.021-0.002-0.037-0.012-0.066-0.017c-0.049-0.013-0.091-0.028-0.141-0.044c-0.022-0.013-0.041-0.025-0.063-0.039
		c-0.042-0.016-0.081-0.039-0.107-0.061c-0.029-0.016-0.044-0.033-0.061-0.051c-0.03-0.024-0.06-0.049-0.085-0.078
		c-0.025-0.022-0.038-0.039-0.056-0.062c-0.025-0.029-0.044-0.061-0.063-0.09c-0.017-0.025-0.028-0.048-0.045-0.072
		c-0.013-0.03-0.027-0.062-0.04-0.094c-0.013-0.031-0.023-0.061-0.03-0.089c-0.014-0.028-0.015-0.056-0.023-0.082
		c-0.006-0.034-0.018-0.073-0.02-0.11C14.385,7.8,14.385,7.786,14.383,7.77c-0.05-0.471,0.171-0.977,0.663-1.15
		c-0.209-0.335-0.262-0.777-0.029-1.121c0.381-0.562,0.783-1.102,1.157-1.654c-0.062-0.141-0.126-0.272-0.207-0.396
		c-0.816,0.369-1.604,0.794-2.257,1.416c-0.658,0.622-1.527,0.199-1.791-0.436c-0.394-0.031-0.769-0.266-0.912-0.754
		C10.645,2.472,10.594,1.24,10.535,0C10.191,2.696,9.421,5.303,9.06,7.996C8.943,8.867,8.025,9.187,7.416,8.957
		C7.4,9.055,7.387,9.155,7.382,9.261c-0.708-1.24-1.548-2.429-2.521-3.604C3.927,4.524,2.582,4.624,1.75,5.303
		c1.715,2.402,3.487,5.313,3.229,8.368c-0.061,0.694-0.628,1.044-1.171,1.048c0.137,0.328,0.272,0.662,0.415,0.992
		c-0.256-0.34-0.516-0.68-0.78-1.008c-0.021-0.025-0.047-0.04-0.068-0.068c-0.19-0.071-0.354-0.204-0.454-0.39
		C1.974,13.635,0.699,13.867,0,14.577c1.675,1.465,3.12,3.151,3.385,5.487c0.06,0.512-0.209,0.842-0.576,0.965
		c0.128,0.195,0.259,0.379,0.385,0.566c-0.202,0.02-0.411,0.031-0.614,0.041c-0.733,0.025-1.43-0.125-2.121-0.242
		c2.588,1.502,4.597,5.141,6.331,6.939c0.154,0.164,0.239,0.332,0.28,0.504c0.79,0.242,1.531-0.133,1.977-0.771
		c0.447,0.16,0.929,0.211,1.36,0.115c0.97,1.029,3.082,1.27,3.928-0.359c0.024-0.051,0.045-0.088,0.069-0.139
		c0.661,0.309,1.454,0.344,2.122,0.027c-0.129-0.51,0.072-1.088,0.741-1.246c1.935-0.471,3.901-0.797,5.874-0.904
		c-0.206-0.1-0.424-0.203-0.635-0.309C21.72,24.898,21.835,24.052,22.343,23.583z"/>
	<g>
		<path fill="#3F632C" d="M20.613,8.489c-0.034-0.072-0.092-0.127-0.163-0.156C20.5,8.39,20.557,8.44,20.613,8.489z"/>
		<path fill="#3F632C" d="M14.829,6.543c-0.009,0.02-0.012,0.035-0.02,0.055c0.022,0.05,0.025,0.101,0.007,0.158
			c0.077-0.052,0.141-0.104,0.229-0.137c-0.039-0.068-0.071-0.142-0.1-0.221C14.918,6.465,14.877,6.514,14.829,6.543z"/>
		<path fill="#3F632C" d="M20.45,8.333c-0.057-0.068-0.104-0.137-0.146-0.212c-0.004,0.057-0.006,0.114-0.023,0.17
			C20.338,8.291,20.397,8.305,20.45,8.333z"/>
		<path fill="#3F632C" d="M15.24,4.963c0.022,0.057,0.022,0.113-0.007,0.177c-0.019,0.05-0.041,0.093-0.063,0.144
			c0.113-0.165,0.226-0.328,0.342-0.49c-0.076,0.047-0.144,0.09-0.222,0.128C15.273,4.936,15.263,4.949,15.24,4.963z"/>
		<path fill="#3F632C" d="M22.915,21.537c-0.015,0.027-0.036,0.053-0.065,0.072c-0.107,0.068-0.173,0.115-0.253,0.154
			c0,0,0,0.004-0.004,0.008c0.057-0.037,0.105-0.068,0.174-0.096c0.144-0.066,0.288-0.139,0.438-0.205
			c-0.091,0.02-0.182,0.037-0.269,0.059C22.934,21.533,22.925,21.537,22.915,21.537z"/>
		<path fill="#3F632C" d="M8.98,20.177c-0.335-0.482-0.935-0.793-1.439-1.162c0.647,0.906,1.078,1.982,1.487,2.998
			c0.158,0.389,0.31,0.74,0.452,1.09c0.096,0.41,0.22,0.926,0.399,1.352C10.397,23.117,9.745,21.291,8.98,20.177z"/>
		<path fill="#3F632C" d="M10.252,13.111c0.008,0.212,0.013,0.427,0.003,0.646c-0.018,0.389,0.018,0.779,0.086,1.161
			c-0.013,0.128-0.019,0.257-0.042,0.389c-0.012,0.077-0.023,0.147-0.036,0.226c0.67-0.742,1.069-1.833,0.701-2.76
			c-0.312-0.787-0.862-1.439-1.386-2.103c0.002,0,0,0,0.002,0.003C9.867,11.422,10.104,12.255,10.252,13.111z"/>
		<path fill="#3F632C" d="M16.842,15.781c-0.838,0.418-1.408,1.055-1.861,2.018c-0.37,0.761-0.618,1.443-0.558,2.293
			c0.007,0.058,0.012,0.105,0.012,0.156c0.003-0.014,0.006-0.031,0.012-0.043c0.152-0.256,0.278-0.529,0.392-0.795
			c0.256-0.283,0.296-0.678,0.434-1.027c0.277-0.717,0.593-1.256,1.059-1.858c0.067-0.084,0.067-0.183,0.037-0.265
			c0.03-0.047,0.057-0.084,0.085-0.131C16.572,16.013,16.705,15.9,16.842,15.781z"/>
		<path fill="#3F632C" d="M16.524,27.71c-0.031-0.117-0.045-0.254-0.031-0.373c-0.115,0.18-0.241,0.373-0.384,0.514
			C16.252,27.822,16.394,27.777,16.524,27.71z"/>
		<path fill="#3F632C" d="M1.449,16.013c0.071,0.084,0.146,0.162,0.215,0.246c-0.045-0.092-0.091-0.186-0.145-0.273
			C1.498,15.998,1.476,16.007,1.449,16.013z"/>
		<path fill="#3F632C" d="M25.2,20.148c-0.734,0.176-1.403,0.498-2.121,0.709c-0.073,0.025-0.144,0.027-0.21,0.027
			c-0.004,0.002-0.006,0.004-0.008,0.004c-0.052,0.029-0.109,0.053-0.178,0.07c-0.226,0.379-0.415,0.803-0.484,1.229
			c0.087-0.162,0.216-0.307,0.394-0.416c0.004-0.004,0.004-0.008,0.004-0.008c0.08-0.039,0.146-0.086,0.253-0.154
			c0.029-0.02,0.052-0.045,0.065-0.072c0.01,0,0.02-0.004,0.021-0.008c0.087-0.021,0.178-0.039,0.269-0.059
			c0.951-0.424,1.86-0.918,2.772-1.416C25.712,20.064,25.457,20.091,25.2,20.148z"/>
		<path fill="#3F632C" d="M19.341,25.738c-1.075,0.094-1.729,0.387-2.321,0.82c0.08-0.037,0.149-0.07,0.247-0.094
			c1.339-0.324,2.695-0.574,4.056-0.736C20.662,25.693,19.999,25.681,19.341,25.738z"/>
		<path fill="#3F632C" d="M21.833,11.848c-1.163,0.875-1.643,1.838-1.594,3.313c0.015,0.662,0.404,0.881,0.801,1.159
			c0.026-0.002,0.039-0.01,0.058-0.01c0.016,0,0.025,0.004,0.035,0.004l0,0c-0.017-0.015-0.035-0.021-0.062-0.024
			c-0.729-0.263-0.855-1.26-0.389-1.784c0.002,0,0.004-0.002,0.006-0.005c0.001-0.004,0.005-0.008,0.009-0.01
			c0.003,0,0.003-0.004,0.003-0.009c1.442-1.775,3.319-3.05,5.256-4.233C24.479,10.463,23.012,10.969,21.833,11.848z"/>
		<path fill="#3F632C" d="M14.305,27.539c0.032,0.063,0.057,0.139,0.069,0.199c0.006-0.014,0.017-0.027,0.027-0.055
			c0.003,0.004,0.011,0.006,0.016,0.01c0.017-0.037,0.023-0.068,0.023-0.107c0.006-0.047-0.002-0.102-0.021-0.158
			c0.188-0.368,0.332-0.809,0.385-1.235c0.229-0.321,0.471-0.67,0.646-1.034c0.096-0.164,0.205-0.312,0.293-0.478
			c0.137-0.24,0.342-0.418,0.444-0.66c0.452-0.472,0.888-0.955,1.223-1.481v-0.002c0.063-0.074,0.118-0.152,0.173-0.234
			C15.674,23.142,13.397,25.644,14.305,27.539z"/>
		<path fill="#3F632C" d="M16.842,15.781c-0.838,0.418-1.408,1.055-1.861,2.018c-0.37,0.761-0.618,1.443-0.558,2.293
			c0.007,0.058,0.012,0.105,0.012,0.156c0.003-0.014,0.006-0.031,0.012-0.043c0.152-0.256,0.278-0.529,0.392-0.795
			c0.256-0.283,0.296-0.678,0.434-1.027c0.277-0.717,0.593-1.256,1.059-1.858c0.067-0.084,0.067-0.183,0.037-0.265
			c0.03-0.047,0.057-0.084,0.085-0.131C16.572,16.013,16.705,15.9,16.842,15.781z"/>
		<path fill="#3F632C" d="M19.737,9.228c0.33-0.144,0.656-0.271,0.99-0.388c-0.011-0.031-0.023-0.063-0.049-0.088
			c-0.009-0.068-0.01-0.136-0.035-0.199c0-0.022-0.02-0.046-0.03-0.063C20.557,8.44,20.5,8.39,20.45,8.333
			c-0.053-0.027-0.112-0.042-0.17-0.042c0.019-0.056,0.021-0.113,0.023-0.17c-0.132-0.235-0.174-0.51-0.075-0.767
			c0.075-0.174,0.153-0.333,0.221-0.5c0-0.039-0.008-0.076-0.024-0.109c-0.011,0.017-0.026,0.037-0.041,0.059
			c-0.872,0.892-1.314,2.014-1.723,3.164C18.992,9.684,19.324,9.411,19.737,9.228z"/>
		<path fill="#3F632C" d="M13.509,6.5c-0.279,0.619-0.401,1.324-0.507,2.034c0-0.003,0.002-0.008,0.006-0.016
			c0.027-0.015,0.056-0.036,0.08-0.068c0.168-0.229,0.367-0.481,0.512-0.749c0.023-0.034,0.042-0.064,0.066-0.099
			c0.344-0.214,0.78-0.493,0.781-0.492c0.02,0.005,0.039,0,0.056-0.001c0.074-0.143,0.185-0.262,0.313-0.354
			c0.02-0.058,0.017-0.108-0.007-0.158c0.008-0.02,0.011-0.035,0.02-0.055c0.048-0.029,0.089-0.078,0.117-0.145
			c-0.109-0.295-0.109-0.629,0.069-0.9c0.048-0.072,0.104-0.143,0.153-0.215c0.022-0.051,0.046-0.094,0.063-0.144
			c0.029-0.063,0.029-0.12,0.007-0.177c0.022-0.015,0.033-0.027,0.05-0.042c0.078-0.038,0.146-0.081,0.221-0.128
			c0.133-0.188,0.263-0.381,0.402-0.569C14.879,4.617,13.957,5.505,13.509,6.5z"/>
		<path fill="#3F632C" d="M4.979,13.671c-0.033,0.426-0.269,0.722-0.567,0.884c0.552-0.104,1.044-0.142,1.228-0.943
			c0.228-1.023,0.352-2.24,0.057-3.268C5.389,9.29,3.431,6.207,2.235,5.616C2.107,5.602,1.996,5.572,1.901,5.515
			C3.568,7.879,5.229,10.708,4.979,13.671z"/>
		<path fill="#3F632C" d="M3.371,20.404c0.966-0.566,0.739-2.072,0.219-3.043c-0.717-1.346-1.984-2.546-3.528-2.729
			c0.493,0.436,0.963,0.896,1.389,1.382c0.026-0.007,0.049-0.017,0.07-0.027c0.054,0.089,0.1,0.183,0.145,0.272
			c0.892,1.078,1.553,2.304,1.722,3.806C3.398,20.185,3.39,20.302,3.371,20.404z"/>
		<path fill="#3F632C" d="M8.98,20.177c-0.335-0.482-0.935-0.793-1.439-1.162c0.647,0.906,1.078,1.982,1.487,2.998
			c0.158,0.389,0.31,0.74,0.452,1.09c0.096,0.41,0.22,0.926,0.399,1.352C10.397,23.117,9.745,21.291,8.98,20.177z"/>
		<path fill="#3F632C" d="M10.252,13.111c0.008,0.212,0.013,0.427,0.003,0.646c-0.018,0.389,0.018,0.779,0.086,1.161
			c-0.013,0.128-0.019,0.257-0.042,0.389c-0.012,0.077-0.023,0.147-0.036,0.226c0.67-0.742,1.069-1.833,0.701-2.76
			c-0.312-0.787-0.862-1.439-1.386-2.103c0.002,0,0,0,0.002,0.003C9.867,11.422,10.104,12.255,10.252,13.111z"/>
		<path fill="#3F632C" d="M4.668,24.738c-0.485-0.605-0.938-1.297-1.537-1.811c-0.385-0.32-0.885-0.498-1.371-0.684
			C1.747,22.273,1.73,22.3,1.729,22.33c1.824,1.613,3.344,4.049,4.692,5.603C6.439,26.82,5.277,25.501,4.668,24.738z"/>
	</g>
	<g>
		<path fill="#3F632C" d="M11.785,22.644c0.432-1.258,0.055-2.559-1.185-3.543c-0.698-0.561-1.309-1.049-1.987-1.445
			C10.182,18.929,11.649,20.898,11.785,22.644z"/>
		<path fill="#3F632C" d="M8.399,24.453c-0.046-0.141-0.089-0.279-0.117-0.422c-0.181-0.895-0.925-1.445-1.789-1.564
			c-0.526-0.079-0.833,0.203-0.93,0.568C6.602,23.136,7.735,23.63,8.399,24.453z"/>
		<path fill="#3F632C" d="M20.751,21.462c-0.011-0.008-0.023-0.01-0.024-0.012c-0.584,0.092-1.075,0.295-1.386,0.877
			c-0.343,0.639-0.469,1.219-0.275,1.811c0.14,0.148,0.358,0.258,0.53,0.344c0.11,0.057,0.134,0.063,0.073,0.012
			c0.063,0.045,0.125,0.094,0.185,0.129c0.138,0.086,0.283,0.144,0.438,0.17c-0.555-1.076-0.346-2.479,0.633-3.229
			C20.847,21.548,20.792,21.507,20.751,21.462z"/>
		<path fill="#3F632C" d="M14.252,16.63c0.055,0.006,0.109,0.012,0.166,0.012c0.296,0,0.49-0.1,0.609-0.26
			c0.094-0.029,0.204-0.072,0.292-0.143c0.218-0.169,0.425-0.353,0.668-0.476c0.151-0.08,0.279-0.142,0.43-0.187
			c0.005-0.002,0.035-0.012,0.087-0.022c0.005,0,0.008,0.006,0.02,0.006c0.466,0.039,0.899-0.222,0.984-0.683
			C16.097,14.782,15.206,15.673,14.252,16.63z"/>
		<path fill="#3F632C" d="M12.248,14.809c0.021,0.052,0.031,0.104,0.033,0.151c0.239-1.374-0.283-2.959-1.289-3.947
			C11.631,12.125,11.724,13.604,12.248,14.809z"/>
		<path fill="#3F632C" d="M3.479,5.36c0.165,0.036,0.301,0.105,0.42,0.199c0.66,0.339,1.281,0.766,1.865,1.254
			C5.473,6.421,5.177,6.04,4.861,5.657C4.123,4.76,3.138,4.653,2.344,4.977C2.736,5.068,3.111,5.2,3.479,5.36z"/>
		<path fill="#3F632C" d="M10.086,3.399c0.372,0.556,0.922,0.898,1.463,1.259c-0.084-0.107-0.171-0.218-0.233-0.342
			c-0.056-0.099-0.096-0.198-0.137-0.298c-0.072-0.098-0.131-0.207-0.172-0.344C10.645,2.472,10.594,1.24,10.535,0
			c-0.139,1.099-0.352,2.188-0.578,3.268C10.003,3.3,10.049,3.342,10.086,3.399z"/>
		<path fill="#3F632C" d="M15.118,9.27c1.069,0.116,1.984-0.215,2.883-0.781c0.313-0.197,0.377-0.581,0.286-0.92
			c-0.245,0.159-0.478,0.321-0.72,0.481c-0.437,0.287-0.859,0.212-1.154-0.043c-0.015,0.03-0.017,0.063-0.029,0.093
			c-0.014,0.021-0.019,0.045-0.029,0.064c-0.031,0.062-0.07,0.122-0.104,0.176c-0.013,0.012-0.023,0.023-0.025,0.035
			c-0.056,0.064-0.113,0.119-0.188,0.17c-0.013,0.013-0.038,0.02-0.058,0.03c-0.057,0.037-0.12,0.065-0.181,0.086
			c-0.026,0.013-0.057,0.02-0.084,0.025c-0.086,0.026-0.183,0.044-0.288,0.044c-0.083,0-0.164-0.013-0.24-0.027
			c-0.021-0.002-0.037-0.012-0.066-0.017c-0.049-0.013-0.091-0.028-0.141-0.044c-0.022-0.013-0.041-0.025-0.063-0.039
			c-0.042-0.016-0.081-0.039-0.107-0.061c-0.029-0.016-0.044-0.033-0.061-0.051c-0.03-0.024-0.06-0.049-0.085-0.078
			c-0.025-0.022-0.038-0.039-0.056-0.062c-0.025-0.029-0.044-0.061-0.063-0.09c-0.017-0.025-0.028-0.048-0.045-0.072
			c-0.013-0.03-0.027-0.062-0.04-0.094c-0.013-0.031-0.023-0.061-0.03-0.089c-0.014-0.028-0.015-0.056-0.023-0.082
			c-0.006-0.034-0.018-0.073-0.02-0.11l0,0C14.078,8.331,14.32,9.184,15.118,9.27z"/>
		<path fill="#3F632C" d="M22.028,10.684c0.001,0,0.009-0.002,0.021-0.002c0.011,0,0.011,0.002,0.021,0.002
			c0.386,0,0.612-0.182,0.695-0.424c1.145,0.016,2.299-0.34,3.437-0.16c0.072-0.041,0.133-0.082,0.204-0.123
			c-0.017-0.277-0.1-0.554-0.242-0.814c-1.422,0.381-2.878,0.657-4.356,0.81c-0.428,0.046-0.729-0.138-0.886-0.411
			C20.931,10.075,21.37,10.684,22.028,10.684z"/>
		<path fill="#3F632C" d="M23.429,19.595c1.122-0.137,2.173-0.131,3.267,0.066c0.354-0.203,0.715-0.406,1.082-0.604
			c-0.043-0.134-0.089-0.271-0.151-0.397c-2.085-0.013-4.174,0.385-6.105,1.155c-0.036,0.021-0.081,0.031-0.114,0.05
			C22.199,19.832,23.099,19.638,23.429,19.595z"/>
		<path fill="#3F632C" d="M20.751,21.462c-0.011-0.008-0.023-0.01-0.024-0.012c-0.584,0.092-1.075,0.295-1.386,0.877
			c-0.343,0.639-0.469,1.219-0.275,1.811c0.14,0.148,0.358,0.258,0.53,0.344c0.11,0.057,0.134,0.063,0.073,0.012
			c0.063,0.045,0.125,0.094,0.185,0.129c0.138,0.086,0.283,0.144,0.438,0.17c-0.555-1.076-0.346-2.479,0.633-3.229
			C20.847,21.548,20.792,21.507,20.751,21.462z"/>
		<path fill="#3F632C" d="M11.785,22.644c0.432-1.258,0.055-2.559-1.185-3.543c-0.698-0.561-1.309-1.049-1.987-1.445
			C10.182,18.929,11.649,20.898,11.785,22.644z"/>
		<path fill="#3F632C" d="M12.248,14.809c0.021,0.052,0.031,0.104,0.033,0.151c0.239-1.374-0.283-2.959-1.289-3.947
			C11.631,12.125,11.724,13.604,12.248,14.809z"/>
		<path fill="#3F632C" d="M14.252,16.63c0.055,0.006,0.109,0.012,0.166,0.012c0.296,0,0.49-0.1,0.609-0.26
			c0.094-0.029,0.204-0.072,0.292-0.143c0.218-0.169,0.425-0.353,0.668-0.476c0.151-0.08,0.279-0.142,0.43-0.187
			c0.005-0.002,0.035-0.012,0.087-0.022c0.005,0,0.008,0.006,0.02,0.006c0.466,0.039,0.899-0.222,0.984-0.683
			C16.097,14.782,15.206,15.673,14.252,16.63z"/>
		<path fill="#3F632C" d="M2.949,21.898c0.15,0.092,0.327,0.148,0.525,0.148c0.709,0,0.861-0.596,0.649-1.105
			c-0.043-0.254-0.187-0.48-0.397-0.635c-0.111-0.074-0.226-0.15-0.347-0.215c0.041,0.504-0.218,0.818-0.572,0.938
			c0.128,0.195,0.259,0.379,0.385,0.566c-0.202,0.02-0.411,0.031-0.614,0.041c-0.052,0.004-0.096-0.004-0.146-0.004
			c0.086,0.037,0.172,0.074,0.235,0.131C2.753,21.82,2.851,21.861,2.949,21.898z"/>
		<path fill="#3F632C" d="M8.399,24.453c-0.046-0.141-0.089-0.279-0.117-0.422c-0.181-0.895-0.925-1.445-1.789-1.564
			c-0.526-0.079-0.833,0.203-0.93,0.568C6.602,23.136,7.735,23.63,8.399,24.453z"/>
	</g>
</g>
</svg>
