<?xml version="1.0" encoding="utf-8"?>
<!-- Generator: Adobe Illustrator 16.0.0, SVG Export Plug-In . SVG Version: 6.00 Build 0)  -->
<!DOCTYPE svg PUBLIC "-//W3C//DTD SVG 1.1//EN" "http://www.w3.org/Graphics/SVG/1.1/DTD/svg11.dtd">
<svg version="1.1" id="Layer_1" xmlns="http://www.w3.org/2000/svg" xmlns:xlink="http://www.w3.org/1999/xlink" x="0px" y="0px"
	 width="196.436px" height="130.939px" viewBox="0 0 196.436 130.939" enable-background="new 0 0 196.436 130.939"
	 xml:space="preserve">
<g>
	<path fill="#A6A8AB" d="M191.155,99.043c0.017-0.15,0.036-0.32,0.053-0.469c0.137-0.268,0.276-0.514,0.383-0.742
		c-5.698-18.83-13.501-37.119-17.173-56.532c-4.608-1.1-9.146-2.263-13.432-4.456c-0.643-0.105-1.285-0.179-1.954-0.165
		c-0.604-0.65-1.271-1.192-1.952-1.69c-1.695-0.104-3.431-0.84-4.905-2.382c-6.369-6.754-13.986-13.325-20.03-20.725
		c-4.289-3.288-8.123-6.837-13.886-5.824c-4.087,0.748-8.593,0.719-12.504,2.378c-7.324,3.127-13.25,8.348-19.359,13.45
		c-1.23,0.996-2.468,1.486-3.723,1.632c-0.314,1.097-0.525,2.273-0.669,3.548c-0.967,8.671-8.5,15.813-13.972,23.104
		c-0.108-0.013-0.182-0.024-0.236-0.031c-0.579-0.069-1.099-0.027-1.641,0.024c-0.195,0.192-0.405,0.4-0.623,0.582
		c-4.659,4.583-12.549,5.608-18.527,7.107c-8.972,2.28-17.253,6.469-25.585,10.448c-1.079,1.453-2.02,2.939-2.759,4.689
		c-1.312,3.086-3.987,6.346-5.907,9.141c-3.726,5.5-5.561,12.934-8.217,19.223c4.878,2.096,9.197,5.326,13.115,9.83
		c0.903,1.039,1.796,2.111,2.772,3.08c0.401,0.156,1.146,0.469,1.886,0.777c11.205,2.498,23.134,3.387,33.6,6.873
		c2.027,0.682,4.041,1.4,6.049,2.133c1.443-0.014,2.907,0.078,4.375,0.297c-3.923-0.584,2.064,0.121,2.347,0.137
		c1.816,0.105,3.633,0.209,5.454,0.215c3.589,0.014,7.175-0.084,10.757-0.334c6.54-0.455,13.059-1.195,19.601-1.633
		c7.21-0.482,14.359-0.6,21.548,0.285c4.694,0.578,9.376,1.262,14.058,1.939c0.276,0.039,0.509,0.074,0.718,0.104
		c12.979-4.959,26.086-9.525,39.424-13.031c2.648-4.258,6.813-7.422,11.654-8.617C191.92,101.914,191.688,100.439,191.155,99.043z"
		/>
	<g>
		<path fill="#58595B" d="M91.437,60.404c-4.745-7.542-5.728-14.253-0.139-21.401c6.06-7.704,10.077-16.409,14.844-25.053
			c1.14-2.065,2.105-4.29,2.993-6.561c-1.173,0.281-2.299,0.592-3.382,1.046c-7.324,3.127-13.25,8.348-19.359,13.45
			c-1.23,0.996-2.468,1.486-3.723,1.632c-0.314,1.097-0.525,2.273-0.669,3.548c-0.967,8.671-8.5,15.813-13.972,23.104
			c-0.039-0.005-0.055-0.007-0.074-0.012c1.08,1.916,2.641,3.625,4.425,4.819c5.113,7.603,10.15,15.238,14.698,23.255
			c0.558,1.041,1.267,1.9,2.034,2.623c0.195,0.285,0.393,0.598,0.586,0.871c0.7,0.852,1.434,1.576,2.174,2.221
			c0.051,0.074,0.096,0.131,0.096,0.152c1.807,2.73,4.081,4.324,6.405,5.037c-0.259-5.326-1.792-10.441-2.21-15.785
			C95.743,67.82,94.358,65.012,91.437,60.404z"/>
		<path fill="#58595B" d="M59.984,54.259c-4.19,1.764-8.983,2.59-12.979,3.594c-8.972,2.28-17.253,6.469-25.585,10.448
			c-1.079,1.453-2.019,2.939-2.759,4.689c-1.312,3.086-3.986,6.346-5.906,9.141c-3.524,5.199-5.354,12.131-7.787,18.186
			c1.2,0.975,2.392,1.994,3.61,3.045c0.396,0.264,0.793,0.525,1.21,0.754c2.646,1.33,4.561,3.211,6.262,5.48
			c0.586-0.891,1.211-1.752,1.927-2.543c0.204-0.262,0.444-0.5,0.672-0.689c0.317-0.369,0.661-0.709,1.018-0.99
			c0.828-2.238,2.583-4.059,5.126-4.498c-0.174-1.17-0.102-2.469,0.39-3.828c0.876-2.627,2.117-5.055,3.372-7.453
			c0.163-0.951,0.451-1.861,0.927-2.688c0.078-2.346,1.103-4.688,2.954-6.061c0.376-1.594,1.169-3.053,2.387-4.104
			c1.25-1.645,3.183-2.74,5.787-2.602c0.457-0.332,0.945-0.662,1.499-0.873c1.657-1.623,3.229-3.447,4.895-5.01
			c1.188-1.124,2.51-2.177,3.746-3.253c0.278-0.358,0.599-0.648,0.949-0.887c0.021-0.016,0.062-0.068,0.08-0.069
			c1.485-1.361,2.79-2.888,3.687-4.702c0.327-0.669,0.707-1.255,1.168-1.753c0.812-1.385,1.983-2.469,3.416-3.115
			C60.028,54.409,59.988,54.323,59.984,54.259z"/>
		<path fill="#58595B" d="M160.885,95.631c-4.024-0.434-6.707-4.324-6.387-8.385c0.284-3.434-3.214-9.916-4.272-13.279
			c-1.257-4.23-2.55-9.771-5.323-13.232c-0.949-1.235-6.608-1.461-8.657-2.044c-3.067-0.897-5.67-2.181-8.024-4.081
			c-1.022,2.212-1.146,4.74-0.625,7.261c-0.234,1.505-0.167,3.193,0.222,5.017c0.548,2.444,1.719,4.569,2.702,6.78
			c0.157,0.578,0.305,1.109,0.446,1.516c0.148,0.434,0.374,0.902,0.545,1.383c0.845,3.063,1.635,6.324,3.392,8.93
			c1.118,4.846,2.546,9.697,4.234,14.41c0.629,5.168,2.144,10.316,4.713,14.766c0.371,0.625,0.805,1.199,1.216,1.709
			c0.324-0.35,0.673-0.705,1.084-0.996c0.026-0.021,0.05-0.045,0.066-0.092c0.136-0.096,0.255-0.188,0.422-0.293
			c7.407-5.852,15.939-11.072,24.808-15.004C168.059,96.842,165.63,96.166,160.885,95.631z"/>
	</g>
	<g>
		<path fill="#E6E7E8" d="M182.57,95.279c1.697,1.852,1.946,4.572,1.215,6.947c0.483,1.701,0.734,3.459,0.888,5.24
			c0.569-0.146,1.147-0.262,1.734-0.352c1.652-1.053,3.464-1.854,5.386-2.34c0.254-1.955,0.058-3.91-0.638-5.732
			c0.017-0.15,0.036-0.32,0.053-0.469c0.137-0.268,0.276-0.514,0.383-0.742c-5.698-18.83-13.501-37.119-17.173-56.532
			c-4.608-1.1-9.146-2.263-13.432-4.456c-0.643-0.105-1.285-0.179-1.954-0.165c-0.604-0.65-1.271-1.192-1.952-1.69
			c-1.695-0.104-3.431-0.84-4.905-2.382c-6.369-6.754-13.986-13.325-20.03-20.725c-2.537-1.973-4.936-3.97-7.655-5.119
			c0.965,4.486,1.752,8.984,2.42,13.498c1.828,2.251,3.582,4.592,5.236,7.065c3.263,4.746,7.77,7.226,11.4,11.459
			c2.922,3.363,5.351,7.068,8.443,10.271c0.802,0.831,1.312,1.732,1.627,2.612c1.05,0.713,1.926,1.768,2.526,3.279
			c4.157,10.115,4,20.876,9.473,30.431c2.03,1.51,4.133,2.83,6.604,3.617C176.269,90.332,179.651,92.047,182.57,95.279z"/>
		<path fill="#E6E7E8" d="M71.228,76.713c2.271,4.727,5.53,7.539,8.646,11.584c1.275,1.627,1.975,2.932,2.837,3.883
			c5.212-0.822,10.425-1.551,15.61-2.256c-1.008-3.193-2.456-6.01-4.131-8.646c-0.424-0.461-0.9-0.885-1.392-1.303
			c-0.532-0.365-0.995-0.742-1.511-1.111c0.225-0.043-1.751-3.805-1.995-4.299c-0.056-0.07-0.12-0.178-0.198-0.297
			c-0.906-1.131-1.825-2.27-2.751-3.4c-0.141-0.115-0.213-0.137-0.142-0.033c-0.154-0.223-0.311-0.463-0.477-0.691
			c-0.734-0.908-1.449-1.807-2.173-2.746c-4.771-6.151-8.995-12.934-15.259-17.534c-0.099,0.076-0.206,0.195-0.26,0.308
			c-0.108-0.013-0.182-0.024-0.236-0.031c-0.579-0.069-1.099-0.027-1.641,0.024c-0.194,0.192-0.406,0.4-0.623,0.582
			c-1.246,1.25-2.711,2.189-4.339,2.986C64.841,61.224,67.619,69.119,71.228,76.713z"/>
	</g>
	<path fill="#929497" d="M102.097,123.601c4.678-0.477,9.313-1.076,14.031-0.748c0.563-1.953,1.291-3.785,2.177-5.551
		c-0.301-2.992-0.613-5.955-1.065-8.926c-0.54-3.438,0.952-5.932,3.137-7.289c-0.37-5.43-0.818-10.859-1.527-16.25
		c-0.17-1.311-0.041-2.469,0.279-3.502c-1.017-2.279-0.92-5.078,0.194-7.365c-0.229-0.957-0.436-1.949-0.74-2.918
		c-0.535-1.861-0.414-3.664,0.156-5.166c-0.863-1.101-1.454-2.435-1.674-3.891c-0.629-1.199-0.981-2.643-0.993-4.14
		c-0.53-1.203-0.791-2.559-0.635-3.97l0.99-8.854c0.48-4.452,0.745-8.867,0.743-13.354c-0.019-0.489,0.05-0.962,0.187-1.433
		c0.007-1.518-0.008-3.061-0.031-4.593c-0.213-0.063-0.421-0.17-0.621-0.239c-0.057,0.438-0.141,0.888-0.321,1.328
		c-2.228,7.273-3.378,14.743-6.82,21.398c-0.078,1.438-0.559,2.902-1.337,4.244c-0.539,0.926-1.082,1.855-1.607,2.771
		c-0.944,2.192-1.921,4.374-2.997,6.462c-0.531,1.034-1.197,1.953-2.008,2.727c0.094,1.69,0.165,3.361,0.182,5.08
		c0.002,0.67,0.117,1.375,0.244,2.072c-0.076,0.678-0.04,1.396,0.03,2.15c0.282,2.143,0.523,4.258,0.704,6.428
		c-0.091,0.756-0.172,1.533-0.143,2.354c0,0.158,0,0.313,0.022,0.455c-0.397,1.252-0.499,2.598-0.271,3.994
		c0.013,0.385,0.083,0.787,0.147,1.131c0.015,0.264,0.078,0.543,0.113,0.777c-0.005,0.27-0.009,0.557,0.018,0.824
		c-0.115,1.32-0.168,2.639-0.211,3.967c-0.002,0.004-0.002,0.01-0.002,0.016c-0.006-0.033-0.031,0.211-0.07,0.691
		c-0.051,0.551-0.043,1.068-0.065,1.615c-0.02,0.32-0.04,0.662-0.03,0.99c-0.006,0.697-0.045,1.342-0.088,2.031
		c-0.066,1.445-0.151,2.844-0.308,4.277c-0.027,0.236-0.038,0.479-0.048,0.691c-6.123,0.117-12.972-3.756-19.258-3.99
		c-3.221-2.443-6.896-4.479-10.286-5.318c-0.981-1.148-1.957-2.277-2.965-3.375c-0.003-0.006-0.008-0.01-0.011-0.016
		c0.44-3.875,0.108-7.885-1.569-10.803c-0.107-1.563-0.395-3.094-1.075-4.578c-0.86-1.807-2.019-3.381-3.415-4.652
		c-4.078,8.543-7.661,17.139-12.833,25.205c-2.19,3.391-4.357,6.783-6.543,10.176c8.816,1.609,17.516,3.73,25.622,6.633
		c8.625,3.125,16.679,7.367,25.735,9.051C97.535,122.629,99.817,123.107,102.097,123.601z"/>
</g>
</svg>
