<?xml version="1.0" encoding="utf-8"?>
<!-- Generator: Adobe Illustrator 16.0.0, SVG Export Plug-In . SVG Version: 6.00 Build 0)  -->
<!DOCTYPE svg PUBLIC "-//W3C//DTD SVG 1.1//EN" "http://www.w3.org/Graphics/SVG/1.1/DTD/svg11.dtd">
<svg version="1.1" id="Layer_1" xmlns="http://www.w3.org/2000/svg" xmlns:xlink="http://www.w3.org/1999/xlink" x="0px" y="0px"
	 width="112.822px" height="112.822px" viewBox="0 0 112.822 112.822" enable-background="new 0 0 112.822 112.822"
	 xml:space="preserve">
<g>
	<path fill="#5E361F" d="M48.286,8.659l-0.484,12.357l0.063,2.259l-0.423,28.03c0,0,0,8.434,0.36,12.204
		c0.363,3.768-0.242,38.727-0.242,38.727l0.79,2.713c0,0,0.604,0,3.451,0.148c2.849,0.15,4.121,1.959,4.121,1.959l4.726,1.961
		l2.729-3.314l0.183-10.396c0,0,0.182-6.934,0.305-9.945c0.116-3.014,1.938-74.743,1.21-74.743l-2.604-2.41
		c0,0-3.592-1.533-4.545,0.153c-0.332,0.583-3.091-0.153-5.695-2.412C49.618,3.686,48.286,8.659,48.286,8.659z"/>
	<g>
		<path fill="#492517" d="M49.81,104.426c0,0,0.15-5.831,0.379-14.577c0.126-4.373,0.271-9.475,0.43-14.938
			c0.07-2.733,0.145-5.56,0.216-8.429c0.085-2.869,0.146-5.783,0.159-8.696c0.037-2.914,0.122-5.826,0.124-8.697
			c-0.046-2.871-0.091-5.695-0.135-8.429c-0.04-2.724-0.144-5.391,0.058-7.891c0.101-2.486,0.257-4.846,0.066-7.038
			c-0.104-2.174-0.262-4.203-0.109-5.976c0.078-1.776,0.146-3.324,0.2-4.599c0.111-2.55,0.174-4.007,0.174-4.007
			s-0.033,1.458-0.09,4.009c-0.029,1.275-0.063,2.824-0.104,4.601c-0.112,1.781,0.089,3.755,0.195,5.95
			c0.205,2.174,0.067,4.554-0.015,7.076c-0.181,2.506-0.062,5.125-0.001,7.869c0.063,2.733,0.129,5.558,0.196,8.428
			c0.017,2.87-0.043,5.791-0.063,8.71c-0.033,2.92-0.115,5.836-0.221,8.704c-0.096,2.87-0.188,5.693-0.277,8.427
			c-0.197,5.468-0.38,10.565-0.538,14.938c-0.188,4.371-0.349,8.014-0.46,10.563C49.878,102.969,49.81,104.426,49.81,104.426z"/>
	</g>
	<g>
		<path fill="#492517" d="M53.303,104.426c0,0,0.031-1.438,0.09-3.957c0.028-1.26,0.065-2.788,0.107-4.543
			c0.124-1.749,0.265-3.723,0.416-5.876c0.062-1.074,0.211-2.199,0.204-3.354c-0.035-1.164-0.072-2.366-0.107-3.604
			c-0.075-2.474-0.153-5.08-0.235-7.778c-0.041-1.35-0.082-2.722-0.124-4.107c-0.048-1.378-0.092-2.809-0.056-4.223
			c0.028-2.834,0.06-5.713,0.089-8.592c0.048-2.875,0.096-5.748,0.143-8.576c0.02-2.833,0.035-5.622,0.051-8.321
			c0.019-2.699,0.033-5.307,0.05-7.781c0.044-1.24-0.076-2.413-0.132-3.59c-0.054-1.163-0.105-2.287-0.155-3.366
			c-0.079-2.159-0.138-4.139-0.069-5.898c0.06-1.77,0.375-3.267,0.53-4.518c0.195-1.245,0.292-2.228,0.353-2.9
			c0.066-0.671,0.104-1.029,0.104-1.029s-0.028,0.359-0.08,1.032c-0.046,0.673-0.121,1.662-0.292,2.91
			c-0.128,1.25-0.413,2.77-0.435,4.51c-0.025,1.749,0.073,3.727,0.157,5.882c0.058,1.077,0.119,2.199,0.182,3.361
			c0.063,1.147,0.192,2.371,0.157,3.608c0.003,2.474,0.006,5.083,0.009,7.781c0.005,2.698,0.008,5.487,0.011,8.321
			c-0.027,2.838-0.058,5.722-0.083,8.606c-0.053,2.878-0.104,5.757-0.151,8.589c-0.047,1.42-0.011,2.801,0.026,4.197
			c0.03,1.389,0.063,2.762,0.094,4.107c0.062,2.697,0.122,5.306,0.178,7.777c0.028,1.236,0.058,2.438,0.083,3.604
			c-0.002,1.171-0.161,2.282-0.229,3.36c-0.187,2.151-0.354,4.125-0.504,5.873c-0.079,1.752-0.148,3.278-0.205,4.537
			C53.367,102.987,53.303,104.426,53.303,104.426z"/>
	</g>
	<g>
		<path fill="#492517" d="M57.432,107.608c0,0,0.116-5.998,0.295-14.992c0.057-2.249,0.116-4.686,0.183-7.262
			c0.081-2.582,0.312-5.295,0.401-8.092c0.027-0.699,0.061-1.406,0.092-2.115l0.047-1.069c0-0.354-0.043-0.718-0.063-1.076
			c-0.1-1.444-0.197-2.905-0.299-4.378c-0.081-1.477-0.163-2.962-0.242-4.455c-0.023-1.505-0.064-3.014-0.029-4.509
			c0.059-2.998,0.117-5.996,0.176-8.948c0.029-1.475,0.059-2.939,0.089-4.385c0.073-1.445,0.147-2.873,0.219-4.276
			c0.146-2.808,0.282-5.522,0.415-8.097c0.12-1.289-0.02-2.523-0.051-3.742c-0.05-1.212-0.099-2.384-0.146-3.508
			c-0.043-1.126-0.083-2.205-0.122-3.231c0-1.023,0.001-1.995,0.002-2.907c0.002-0.914,0.003-1.769,0.004-2.559
			c-0.027-0.789-0.053-1.513-0.075-2.168c-0.093-2.622-0.146-4.12-0.146-4.12s0.084,1.498,0.229,4.118
			c0.035,0.656,0.075,1.383,0.119,2.174c0.015,0.791,0.03,1.646,0.047,2.56c0.021,0.915,0.037,1.889,0.06,2.915
			c0.048,1.022,0.099,2.096,0.149,3.217c0.055,1.122,0.112,2.292,0.172,3.501c0.039,1.204,0.188,2.473,0.076,3.758
			c-0.114,2.575-0.234,5.29-0.355,8.098c-0.063,1.404-0.128,2.832-0.189,4.277c-0.021,1.447-0.039,2.912-0.059,4.388
			c-0.038,2.952-0.076,5.951-0.115,8.95c-0.045,1.503-0.016,2.993-0.002,4.477c0.069,1.49,0.143,2.976,0.213,4.447
			c0.09,1.475,0.178,2.936,0.266,4.379c0.02,0.361,0.061,0.72,0.057,1.082l-0.055,1.076c-0.036,0.717-0.07,1.428-0.105,2.133
			c-0.111,2.821-0.359,5.527-0.457,8.097c-0.083,2.575-0.161,5.012-0.233,7.26C57.658,101.614,57.432,107.608,57.432,107.608z"/>
	</g>
	<g>
		<path fill="#492517" d="M60.886,107.039l0.426-14.118v0.012l-0.272-5.069c-0.041-1.701,0.031-3.39,0.041-5.082l0.148-10.153
			l0.087-10.167l0.055-5.077c0.047-1.701,0.022-3.368-0.044-5.06l-0.175-5.074c-0.046-1.711-0.146-3.342-0.091-5.128
			c0.086-0.845,0.128-1.66,0.162-2.495l0.088-2.536l0.134-5.075l0.048-2.535l0.104-2.543l0.231-5.073l0.497-10.144l-0.289,10.152
			l-0.17,5.076l-0.086,2.53l-0.031,2.542L61.653,37.1l-0.07,2.54c-0.025,0.857-0.076,1.732-0.152,2.571
			c-0.021,1.597,0.072,3.351,0.137,5.022l0.211,5.074c0.078,1.69,0.114,3.409,0.079,5.092l-0.064,5.078l-0.155,10.145l-0.222,10.152
			c-0.021,1.69-0.104,3.393-0.077,5.072l0.237,5.071v0.007v0.006L60.886,107.039z"/>
	</g>
	<g>
		<path fill="#7C482E" d="M49.624,104.425c0,0,0.151-5.831,0.379-14.578c0.126-4.373,0.273-9.475,0.432-14.938
			c0.068-2.732,0.143-5.558,0.216-8.429c0.085-2.869,0.146-5.785,0.158-8.695c0.037-2.915,0.122-5.827,0.124-8.697
			c-0.048-2.871-0.093-5.696-0.137-8.43c-0.04-2.724-0.142-5.391,0.06-7.891c0.1-2.486,0.257-4.845,0.064-7.038
			c-0.103-2.174-0.262-4.203-0.107-5.976c0.077-1.776,0.144-3.324,0.2-4.599c0.108-2.55,0.174-4.007,0.174-4.007
			s-0.033,1.458-0.09,4.009c-0.028,1.275-0.063,2.824-0.104,4.601c-0.112,1.78,0.089,3.755,0.197,5.949
			c0.205,2.174,0.065,4.555-0.017,7.077c-0.181,2.506-0.06,5.125-0.001,7.869c0.064,2.733,0.13,5.558,0.196,8.428
			c0.019,2.87-0.043,5.791-0.063,8.709c-0.033,2.92-0.115,5.836-0.223,8.705c-0.094,2.867-0.187,5.691-0.275,8.427
			c-0.196,5.465-0.381,10.565-0.537,14.938c-0.19,4.371-0.351,8.014-0.46,10.563C49.692,102.968,49.624,104.425,49.624,104.425z"/>
	</g>
	<g>
		<path fill="#7C482E" d="M53.118,104.425c0,0,0.033-1.439,0.09-3.957c0.03-1.26,0.066-2.789,0.108-4.543
			c0.124-1.749,0.263-3.723,0.416-5.876c0.06-1.075,0.21-2.2,0.204-3.354c-0.035-1.162-0.072-2.364-0.109-3.604
			c-0.075-2.473-0.153-5.081-0.235-7.777c-0.041-1.351-0.082-2.722-0.124-4.108c-0.048-1.378-0.092-2.808-0.056-4.224
			c0.029-2.834,0.061-5.713,0.089-8.592c0.048-2.874,0.098-5.747,0.145-8.575c0.018-2.833,0.035-5.622,0.052-8.321
			c0.017-2.699,0.033-5.308,0.049-7.781c0.044-1.24-0.077-2.413-0.13-3.59c-0.054-1.163-0.107-2.287-0.157-3.366
			c-0.08-2.159-0.137-4.14-0.067-5.898c0.06-1.77,0.375-3.267,0.528-4.518c0.198-1.245,0.292-2.228,0.354-2.9
			c0.064-0.671,0.102-1.029,0.102-1.029s-0.026,0.359-0.08,1.032c-0.046,0.673-0.12,1.662-0.292,2.91
			c-0.128,1.25-0.413,2.77-0.433,4.51c-0.027,1.749,0.073,3.727,0.157,5.882c0.058,1.077,0.119,2.199,0.182,3.361
			c0.063,1.147,0.193,2.372,0.157,3.608c0.002,2.474,0.005,5.083,0.008,7.781c0.003,2.698,0.006,5.488,0.009,8.321
			c-0.025,2.839-0.055,5.722-0.083,8.606c-0.051,2.877-0.102,5.755-0.149,8.588c-0.048,1.42-0.013,2.801,0.024,4.198
			c0.032,1.388,0.063,2.759,0.095,4.106c0.063,2.699,0.121,5.307,0.179,7.777c0.026,1.236,0.056,2.439,0.083,3.604
			c-0.002,1.172-0.161,2.284-0.229,3.362c-0.185,2.15-0.354,4.125-0.504,5.873c-0.079,1.752-0.146,3.277-0.205,4.536
			C53.181,102.985,53.118,104.425,53.118,104.425z"/>
	</g>
	<g>
		<path fill="#7C482E" d="M57.247,107.606c0,0,0.118-5.996,0.295-14.991c0.059-2.249,0.117-4.685,0.185-7.261
			c0.081-2.584,0.31-5.297,0.398-8.095c0.03-0.698,0.063-1.403,0.092-2.114l0.048-1.068c0.002-0.354-0.043-0.717-0.063-1.077
			c-0.099-1.442-0.196-2.903-0.296-4.377c-0.082-1.476-0.163-2.963-0.245-4.456c-0.021-1.504-0.063-3.014-0.029-4.508
			c0.061-2.999,0.117-5.997,0.177-8.948c0.028-1.476,0.061-2.939,0.09-4.385c0.074-1.445,0.146-2.872,0.219-4.276
			c0.146-2.808,0.283-5.522,0.416-8.096c0.12-1.289-0.02-2.524-0.051-3.743c-0.051-1.212-0.102-2.384-0.146-3.508
			c-0.042-1.126-0.082-2.205-0.121-3.231c0-1.023,0.001-1.995,0.002-2.907c0.001-0.914,0.002-1.769,0.006-2.559
			c-0.027-0.789-0.055-1.513-0.076-2.167c-0.094-2.622-0.146-4.121-0.146-4.121s0.083,1.498,0.229,4.118
			c0.036,0.656,0.075,1.383,0.119,2.174c0.015,0.791,0.029,1.646,0.048,2.56c0.019,0.915,0.037,1.889,0.058,2.915
			c0.048,1.022,0.099,2.096,0.151,3.217c0.055,1.123,0.11,2.292,0.172,3.501c0.039,1.204,0.188,2.473,0.076,3.759
			c-0.114,2.574-0.234,5.29-0.359,8.098c-0.062,1.404-0.125,2.832-0.188,4.277c-0.021,1.447-0.039,2.912-0.061,4.388
			c-0.038,2.952-0.076,5.951-0.114,8.95c-0.045,1.502-0.015,2.993-0.002,4.475c0.07,1.49,0.144,2.977,0.213,4.449
			c0.091,1.474,0.18,2.936,0.268,4.379c0.017,0.36,0.058,0.72,0.055,1.08l-0.054,1.078c-0.036,0.717-0.071,1.428-0.106,2.131
			c-0.109,2.823-0.357,5.529-0.457,8.099c-0.083,2.575-0.16,5.012-0.231,7.26C57.472,101.612,57.247,107.606,57.247,107.606z"/>
	</g>
	<g>
		<path fill="#7C482E" d="M60.7,107.037l0.426-14.118v0.012l-0.271-5.072c-0.041-1.698,0.031-3.387,0.041-5.08l0.146-10.152
			l0.088-10.167l0.056-5.078c0.048-1.7,0.021-3.367-0.043-5.059l-0.177-5.074c-0.047-1.711-0.144-3.343-0.093-5.128
			c0.086-0.847,0.129-1.661,0.163-2.496l0.089-2.535l0.133-5.075l0.05-2.535l0.104-2.544l0.234-5.073l0.496-10.144L61.853,21.87
			l-0.171,5.075l-0.086,2.53l-0.03,2.543l-0.1,5.079l-0.068,2.54c-0.027,0.857-0.077,1.733-0.155,2.571
			c-0.018,1.598,0.075,3.351,0.139,5.023l0.211,5.074c0.078,1.69,0.114,3.409,0.079,5.094l-0.063,5.078L61.45,72.621l-0.22,10.153
			c-0.021,1.689-0.105,3.392-0.077,5.072l0.237,5.07v0.007v0.007L60.7,107.037z"/>
	</g>
	<path fill="#492517" d="M63.22,54.557c0,2.756,0.737,6.432,0.737,9.188c1.107,13.781-2.218,25.727-1.849,39.509
		c-1.479-0.919-2.217,4.595-3.325,4.595c-3.3-2.738-6.236-8.184-9.532-2.871c0.526,0.021,1.332,0.058,2.546,0.119
		c2.849,0.151,4.121,1.961,4.121,1.961l4.726,1.959l2.729-3.313l0.183-10.396c0,0,0.182-6.934,0.305-9.943
		c0.112-2.862,1.76-67.739,1.299-74.217c-0.276,0.689-0.554,1.378-0.83,2.067C63.96,26.994,64.697,40.775,63.22,54.557z"/>
	<path fill="#7C482E" d="M48.286,8.659l-0.484,12.357l0.063,2.259l-0.423,28.03c0,0,0,8.434,0.36,12.204
		c0.363,3.768-0.242,38.727-0.242,38.727l0.79,2.713c0,0,0.164,0,0.711,0.021c-0.248-2.407-0.248-4.817-0.248-7.228
		c-0.738-14.701,1.479-29.402,0.737-44.104c-0.737,1.837-0.737,4.594-0.737,7.352c-0.369-1.838-0.738-5.513-0.369-6.432
		c1.847-7.35,0-15.619,0.739-21.132c1.106-7.351-0.739-14.701,0.367-21.132c0.37,0,1.109,0,1.479,0c0.37-0.919,0-2.756,0-4.594
		c0.739,6.432,3.325,8.27,5.172,3.675c1.479,4.594,3.325,0,5.173-0.919c0,0.919,0,1.838,0,1.838c1.353,0.84,2.695,0.135,3.767-1.393
		c-0.021-0.18-0.042-0.284-0.068-0.284l-2.604-2.41c0,0-3.592-1.532-4.545,0.153c-0.332,0.583-3.091-0.153-5.695-2.412
		C49.618,3.686,48.286,8.659,48.286,8.659z"/>
</g>
<g>
	<path fill="#5E361F" d="M107.21,17.52L94.43,15.734l-2.352,0.059L63.025,13.49c0,0-8.757-0.364-12.709,0.409
		c-3.95,0.775-40.176-2.301-40.176-2.301l-2.9,1.922c0,0-0.065,1.565-0.525,8.91c-0.463,7.342-2.477,10.554-2.477,10.554
		L1.696,45.098l3.148,7.185l10.771,0.914c0,0,7.178,0.771,10.291,1.216c3.116,0.436,77.386,8.232,77.465,6.352l2.781-6.618
		c0,0,1.978-9.207,0.331-11.74c-0.571-0.883,0.488-7.973,3.113-14.604C112.228,21.174,107.21,17.52,107.21,17.52z"/>
	<g>
		<path fill="#492517" d="M7.624,17.319l17.803,2.169c5.935,0.731,11.87,1.426,17.812,2.096l8.915,0.94l4.462,0.401
			c1.487,0.148,2.973,0.297,4.459,0.348c1.485,0.061,2.971,0.201,4.468,0.157l4.483-0.017l8.968-0.034h0.015l0.017,0.002
			c2.094,0.347,4.189,0.691,6.291,0.979c0.535,0.056,1.042,0.155,1.533,0.117c0.525-0.069,1.051-0.149,1.588-0.188
			c1.069-0.102,2.135-0.191,3.19-0.267c0.527-0.046,1.065-0.068,1.604-0.094c0.542,0.004,1.058,0.123,1.588,0.179l3.16,0.424
			l6.317,0.848l-6.33-0.72l-3.165-0.36c-0.523-0.045-1.061-0.154-1.575-0.146l-1.577,0.122c-1.063,0.083-2.113,0.181-3.157,0.285
			c-0.522,0.04-1.05,0.125-1.575,0.197c-0.567,0.057-1.118-0.051-1.638-0.1c-2.111-0.275-4.21-0.604-6.312-0.938l0.028,0.002
			l-8.967,0.096l-4.483,0.048c-1.493,0.055-2.989-0.075-4.489-0.125c-1.506-0.042-2.992-0.18-4.481-0.318l-4.467-0.425l-8.914-1.003
			c-5.938-0.711-11.87-1.447-17.798-2.219C19.46,19.023,13.543,18.163,7.624,17.319z"/>
	</g>
	<g>
		<path fill="#492517" d="M7.249,26.339l8.678,0.996h0.006l0.006,0.001l5.319,1.27c0.887,0.203,1.778,0.436,2.657,0.613
			c0.44,0.075,0.879,0.215,1.318,0.239l1.368-0.042l10.942-0.321l5.482-0.135c0.455-0.005,0.917-0.036,1.367-0.02l1.362,0.098
			l2.729,0.193c3.636,0.247,7.273,0.497,10.911,0.794c0.901,0.064,1.838,0.162,2.758,0.248c0.447,0.039,0.953,0.102,1.353,0.121
			l1.363,0.1c1.821,0.15,3.627,0.214,5.442,0.325l5.454,0.278c1.823,0.094,3.643,0.176,5.436,0.219l0.683,0.02l0.687-0.089
			l1.362-0.147c0.907-0.088,1.816-0.172,2.729-0.238c1.821-0.13,3.647-0.243,5.479-0.198c0.914,0.012,1.831,0.074,2.736,0.238
			c0.449,0.07,0.907,0.262,1.308,0.448l1.247,0.562c1.683,0.688,3.437,1.198,5.203,1.646c-1.773-0.411-3.546-0.887-5.25-1.545
			l-1.26-0.536c-0.433-0.19-0.821-0.343-1.278-0.411c-0.892-0.142-1.803-0.186-2.709-0.179c-1.818,0.004-3.64,0.103-5.452,0.253
			c-0.908,0.071-1.814,0.162-2.723,0.256l-1.354,0.156l-0.671,0.092l-0.688-0.014c-1.854-0.023-3.681-0.098-5.499-0.177
			l-5.476-0.241c-1.826-0.098-3.667-0.155-5.482-0.292l-1.363-0.091l-1.373-0.115l-2.694-0.219L48.45,29.683l-2.728-0.212
			l-1.364-0.107c-0.46-0.021-0.911,0.009-1.367,0.011l-5.458,0.098L26.6,29.719l-1.367,0.033c-0.465-0.028-0.91-0.172-1.366-0.253
			c-0.907-0.19-1.778-0.425-2.669-0.635c-1.774-0.428-3.537-0.896-5.302-1.354l0.01,0.002L7.249,26.339z"/>
	</g>
	<g>
		<path fill="#492517" d="M3.502,36.862L15.484,38.1l11.974,1.309h0.006l0.01,0.002l4.883,0.925
			c1.629,0.291,3.261,0.598,4.893,0.827c0.417,0.061,0.788,0.104,1.188,0.088l1.23-0.153l2.465-0.311
			c1.648-0.195,3.299-0.38,4.955-0.511c0.83-0.059,1.657-0.132,2.495-0.138c0.821-0.053,1.703,0.025,2.519,0.1l2.47,0.28
			c0.823,0.108,1.646,0.16,2.469,0.232c3.29,0.285,6.602,0.521,9.904,0.742h0.011l0.012,0.002c2.979,0.502,5.954,1.067,8.934,1.509
			l4.468,0.7c0.741,0.178,1.492,0.071,2.24,0.034l2.254-0.181c1.506-0.128,3.011-0.266,4.521-0.363
			c0.756-0.068,1.544-0.027,2.283,0.045c0.752,0.044,1.499,0.047,2.254,0.063l2.271,0.033c0.749,0,1.508-0.066,2.261-0.095
			c1.51-0.062,3.013-0.189,4.521-0.302c-1.506,0.142-3.012,0.301-4.521,0.39c-0.756,0.044-1.505,0.125-2.267,0.14l-2.267,0.011
			c-0.755-0.001-1.521,0.01-2.275-0.02c-0.77-0.06-1.489-0.078-2.244-0.011c-1.503,0.107-3.008,0.255-4.515,0.394l-2.263,0.196
			c-0.755,0.043-1.529,0.155-2.271-0.018l-4.495-0.672c-3.005-0.425-5.973-0.969-8.958-1.451l0.021,0.002
			c-3.311-0.199-6.613-0.412-9.932-0.677c-1.662-0.106-3.305-0.305-4.952-0.497c-0.835-0.082-1.604-0.157-2.443-0.112
			c-0.819,0-1.646,0.068-2.469,0.12c-1.646,0.119-3.294,0.292-4.938,0.476l-2.471,0.294l-1.234,0.146
			c-0.422,0.02-0.887-0.035-1.283-0.098c-1.649-0.242-3.274-0.56-4.906-0.862l-4.88-0.958l0.013,0.002l-11.964-1.4L3.502,36.862z"/>
	</g>
	<g>
		<path fill="#492517" d="M3.722,45.804l14.607,1.919l-0.029-0.001l5.274-0.454c1.781-0.055,3.526,0.144,5.293,0.28l10.547,0.945
			c3.514,0.279,7.035,0.442,10.556,0.667c1.763,0.122,3.517,0.188,5.292,0.393l1.326,0.132c0.409,0.06,0.832,0.057,1.275,0.058
			c0.875-0.005,1.755-0.042,2.635-0.08l5.282-0.266c1.772-0.062,3.505-0.224,5.328-0.081c0.578,0.237,0.775,0.269,1.269,0.356
			c0.43,0.08,0.864,0.14,1.301,0.202c0.869,0.121,1.744,0.225,2.619,0.324c1.751,0.198,3.507,0.372,5.262,0.533l2.63,0.22
			c0.884,0.093,1.751,0.229,2.627,0.341c1.748,0.239,3.496,0.453,5.246,0.755l5.229,0.836c1.741,0.281,3.484,0.521,5.232,0.756
			c-1.752-0.2-3.507-0.408-5.254-0.654l-5.235-0.732c-1.734-0.256-3.488-0.463-5.236-0.691c-0.874-0.106-1.752-0.237-2.621-0.322
			l-2.644-0.203c-1.759-0.149-3.516-0.312-5.271-0.498c-0.88-0.094-1.758-0.192-2.635-0.308c-0.438-0.06-0.876-0.117-1.313-0.196
			c-0.217-0.038-0.437-0.071-0.689-0.143c-0.26-0.039-0.453-0.203-0.577-0.203c-1.693-0.12-3.493,0.046-5.24,0.122l-5.283,0.302
			c-0.883,0.043-1.766,0.087-2.652,0.099c-0.438,0.002-0.899,0.01-1.365-0.057l-1.306-0.12c-1.732-0.178-3.504-0.268-5.259-0.4
			c-3.521-0.249-7.042-0.436-10.563-0.739l-10.522-1.015c-1.742-0.147-3.521-0.358-5.258-0.316l-5.272,0.418l-0.016,0.001
			l-0.016-0.002L3.722,45.804z"/>
	</g>
	<g>
		<path fill="#7C482E" d="M7.646,16.839l17.803,2.168c5.933,0.731,11.87,1.426,17.81,2.096l8.915,0.94l4.464,0.401
			c1.484,0.148,2.974,0.296,4.459,0.347c1.484,0.061,2.971,0.201,4.469,0.157l4.481-0.017l8.97-0.034h0.015l0.015,0.002
			c2.096,0.348,4.19,0.691,6.291,0.979c0.534,0.056,1.042,0.155,1.533,0.117c0.527-0.069,1.051-0.149,1.588-0.188
			c1.07-0.102,2.135-0.191,3.191-0.268c0.525-0.045,1.063-0.068,1.603-0.094c0.542,0.005,1.06,0.123,1.587,0.179l3.16,0.423
			l6.319,0.848l-6.33-0.72l-3.165-0.36c-0.525-0.045-1.061-0.153-1.577-0.146l-1.577,0.122c-1.062,0.083-2.111,0.18-3.155,0.285
			c-0.522,0.04-1.051,0.125-1.575,0.197c-0.569,0.057-1.118-0.051-1.64-0.1c-2.108-0.275-4.209-0.604-6.309-0.938l0.028,0.002
			l-8.969,0.096l-4.481,0.047c-1.493,0.055-2.991-0.075-4.491-0.125c-1.504-0.042-2.993-0.18-4.481-0.318l-4.468-0.425l-8.914-1.002
			c-5.937-0.711-11.87-1.447-17.799-2.219C19.481,18.543,13.564,17.683,7.646,16.839z"/>
	</g>
	<g>
		<path fill="#7C482E" d="M7.271,25.86l8.677,0.995h0.004l0.006,0.001l5.321,1.27c0.885,0.203,1.778,0.436,2.657,0.613
			c0.438,0.075,0.879,0.215,1.316,0.239l1.367-0.043l10.945-0.322l5.48-0.134c0.455-0.005,0.917-0.036,1.367-0.02l1.364,0.098
			l2.729,0.193c3.638,0.247,7.274,0.496,10.912,0.794c0.902,0.064,1.838,0.162,2.757,0.247c0.448,0.038,0.953,0.101,1.354,0.12
			l1.363,0.101c1.819,0.151,3.627,0.215,5.44,0.325l5.454,0.278c1.825,0.094,3.645,0.176,5.438,0.219l0.681,0.02l0.686-0.09
			l1.363-0.147c0.908-0.088,1.817-0.173,2.729-0.238c1.819-0.13,3.646-0.243,5.477-0.198c0.914,0.012,1.832,0.074,2.738,0.238
			c0.449,0.07,0.908,0.263,1.307,0.448l1.247,0.562c1.683,0.688,3.438,1.198,5.204,1.645c-1.774-0.411-3.545-0.886-5.251-1.543
			l-1.258-0.537c-0.435-0.19-0.824-0.343-1.28-0.411c-0.89-0.142-1.801-0.186-2.71-0.179c-1.817,0.004-3.638,0.103-5.452,0.253
			c-0.907,0.072-1.813,0.162-2.72,0.257l-1.356,0.157l-0.67,0.093l-0.687-0.015c-1.854-0.024-3.682-0.098-5.498-0.178l-5.479-0.241
			c-1.824-0.098-3.667-0.155-5.48-0.292l-1.365-0.091l-1.372-0.115l-2.693-0.218l-10.916-0.81l-2.729-0.213l-1.363-0.107
			c-0.461-0.02-0.911,0.009-1.366,0.011l-5.457,0.098L26.62,29.237l-1.367,0.033c-0.465-0.028-0.91-0.172-1.363-0.253
			c-0.907-0.19-1.779-0.425-2.672-0.635c-1.772-0.428-3.535-0.895-5.302-1.354l0.01,0.002L7.271,25.86z"/>
	</g>
	<g>
		<path fill="#7C482E" d="M3.524,36.383l11.98,1.237l11.976,1.308l0.006,0.001l0.008,0.001l4.883,0.926
			c1.629,0.291,3.263,0.598,4.895,0.826c0.418,0.062,0.787,0.104,1.188,0.087l1.232-0.152l2.465-0.311
			c1.646-0.195,3.297-0.38,4.954-0.511c0.83-0.059,1.657-0.133,2.495-0.139c0.819-0.053,1.703,0.024,2.517,0.1l2.47,0.28
			c0.823,0.108,1.646,0.16,2.471,0.232c3.29,0.285,6.6,0.52,9.902,0.741h0.013l0.012,0.002c2.977,0.502,5.954,1.068,8.932,1.51
			l4.47,0.701c0.739,0.178,1.49,0.071,2.238,0.034l2.254-0.18c1.508-0.128,3.013-0.267,4.522-0.364
			c0.754-0.067,1.544-0.028,2.283,0.045c0.752,0.044,1.499,0.047,2.254,0.063l2.269,0.033c0.749,0,1.508-0.065,2.263-0.095
			c1.51-0.06,3.013-0.189,4.521-0.301c-1.504,0.142-3.01,0.301-4.52,0.39c-0.757,0.044-1.506,0.125-2.268,0.139l-2.265,0.011
			c-0.755-0.001-1.521,0.01-2.277-0.02c-0.768-0.06-1.489-0.078-2.244-0.01c-1.503,0.106-3.008,0.255-4.513,0.393l-2.263,0.196
			c-0.755,0.043-1.529,0.155-2.273-0.019l-4.495-0.672c-3.005-0.425-5.972-0.969-8.958-1.452l0.022,0.002
			c-3.313-0.199-6.615-0.411-9.934-0.676c-1.66-0.106-3.305-0.305-4.949-0.497c-0.835-0.082-1.607-0.156-2.444-0.112
			c-0.82,0-1.646,0.068-2.469,0.121c-1.647,0.119-3.294,0.292-4.939,0.477l-2.469,0.293l-1.236,0.145
			c-0.42,0.02-0.885-0.034-1.283-0.097c-1.647-0.242-3.272-0.56-4.903-0.862l-4.88-0.959l0.013,0.002L15.48,37.853L3.524,36.383z"/>
	</g>
	<g>
		<path fill="#7C482E" d="M3.744,45.322l14.609,1.92l-0.029-0.001l5.273-0.455c1.779-0.055,3.524,0.145,5.294,0.281l10.547,0.945
			c3.511,0.279,7.035,0.443,10.554,0.668c1.763,0.123,3.517,0.188,5.292,0.394l1.328,0.133c0.409,0.06,0.832,0.057,1.275,0.057
			c0.875-0.005,1.755-0.043,2.635-0.08l5.283-0.267c1.771-0.062,3.504-0.224,5.325-0.082c0.579,0.236,0.776,0.269,1.271,0.356
			c0.428,0.08,0.865,0.14,1.299,0.202c0.871,0.121,1.746,0.225,2.621,0.324c1.751,0.198,3.505,0.373,5.26,0.533l2.63,0.22
			c0.887,0.092,1.751,0.229,2.628,0.341c1.748,0.239,3.496,0.454,5.245,0.755l5.229,0.836c1.741,0.282,3.482,0.522,5.23,0.757
			c-1.752-0.2-3.507-0.408-5.254-0.655l-5.233-0.731c-1.734-0.256-3.489-0.463-5.236-0.691c-0.873-0.106-1.752-0.237-2.621-0.323
			l-2.644-0.203c-1.761-0.149-3.518-0.312-5.271-0.498c-0.878-0.093-1.756-0.192-2.632-0.308c-0.439-0.06-0.877-0.117-1.316-0.196
			c-0.217-0.038-0.435-0.071-0.688-0.143c-0.261-0.04-0.45-0.203-0.577-0.203c-1.695-0.119-3.495,0.046-5.242,0.123l-5.283,0.302
			c-0.882,0.043-1.764,0.087-2.65,0.099c-0.438,0.002-0.9,0.01-1.365-0.056l-1.306-0.12c-1.732-0.179-3.506-0.268-5.261-0.4
			c-3.519-0.25-7.042-0.438-10.561-0.74l-10.524-1.015c-1.74-0.147-3.521-0.359-5.258-0.317l-5.271,0.419l-0.018,0.001l-0.014-0.002
			L3.744,45.322z"/>
	</g>
	<path fill="#492517" d="M57.956,54.093c-2.86-0.119-6.756,1.63-9.618,1.511c-14.426,2.268-26.47-6.833-40.814-6.474
		c1.11-3.776-4.532-5.921-4.413-8.783c3.196-8.403,9.164-15.75,4.005-24.487c-0.077,1.357-0.203,3.433-0.399,6.568
		c-0.463,7.343-2.477,10.555-2.477,10.555L1.696,45.098l3.148,7.185l10.771,0.914c0,0,7.178,0.771,10.291,1.216
		c2.959,0.416,70.134,7.471,76.908,6.561c-0.688-0.744-1.373-1.488-2.06-2.232C86.493,57.19,72.103,58.504,57.956,54.093z"/>
	<path fill="#7C482E" d="M107.21,17.52L94.43,15.734l-2.352,0.059L63.025,13.49c0,0-8.757-0.364-12.709,0.409
		c-3.95,0.775-40.176-2.301-40.176-2.301l-2.9,1.922c0,0-0.018,0.425-0.098,1.836c2.526-0.534,5.028-0.43,7.529-0.326
		c15.343-1.273,30.364,5.084,45.705,3.812c-1.829-1.987-4.688-2.106-7.551-2.225c1.948-0.874,5.801-1.67,6.716-0.675
		c7.434,5.085,16.216,0.674,21.858,2.82c7.512,3.178,15.342-1.273,21.898,1.865c-0.037,0.955-0.117,2.862-0.156,3.816
		c0.912,0.994,2.858,0.119,4.768,0.198c-6.756,1.63-8.938,8.228-4.371,13.195c-4.926,3.617-0.354,8.584,0.399,13.393
		c-0.954-0.04-1.907-0.08-1.907-0.08c-1.017,3.451-0.43,6.958,1.042,9.782c0.188-0.045,0.3-0.098,0.302-0.166l2.782-6.618
		c0,0,1.976-9.207,0.329-11.741c-0.571-0.883,0.49-7.973,3.115-14.604C112.228,21.174,107.21,17.52,107.21,17.52z"/>
</g>
<g>
	<g>
		<path fill="#559331" d="M73.135,106.306c-0.767-0.525-0.714-1.621,0.703-1.997c2.913-0.752,5.606-1.776,8.372-2.718
			c-0.062-0.143-0.146-0.284-0.244-0.412c-3.48-0.009-6.972,0.402-10.199,1.205c-0.08,0.014-0.15,0.037-0.237,0.055
			c-0.972,0.237-1.695-0.077-1.994-0.532c-0.331-0.409-0.289-0.941,0.171-1.309c-0.817-0.646-0.371-1.865,1.357-1.865
			c0.023,0,0.035,0.003,0.059,0.003c-0.032-0.006-0.064-0.014-0.096-0.028c-1.228-0.269-1.444-1.311-0.663-1.851
			c0.002-0.006,0.003-0.009,0.015-0.009c0-0.003,0.005-0.004,0.009-0.007c0.003-0.007,0.006-0.009,0.01-0.012
			c2.589-1.99,6.041-3.377,9.535-4.695c-0.032-0.284-0.171-0.574-0.403-0.844c-2.385,0.396-4.809,0.683-7.278,0.841
			c-1.424,0.09-1.968-0.723-1.647-1.399c-0.745-0.226-1.325-0.813-0.99-1.326c0.306-0.475,0.63-0.932,0.981-1.375
			c-1.891,0.607-3.663,1.363-5.427,2.099c-0.728,0.305-1.436,0.221-1.937-0.043c-0.012,0.036-0.027,0.067-0.043,0.099
			c-0.021,0.025-0.041,0.046-0.053,0.069c-0.053,0.063-0.111,0.123-0.177,0.18c-0.019,0.014-0.028,0.028-0.049,0.041
			c-0.087,0.063-0.185,0.121-0.301,0.171c-0.029,0.013-0.062,0.024-0.093,0.038c-0.093,0.032-0.201,0.063-0.313,0.088
			c-0.04,0.007-0.075,0.018-0.125,0.021c-0.151,0.026-0.316,0.044-0.496,0.044c-0.143,0-0.27-0.007-0.391-0.021
			c-0.045-0.008-0.079-0.014-0.113-0.023c-0.083-0.014-0.156-0.022-0.235-0.045c-0.036-0.014-0.069-0.021-0.112-0.035
			c-0.063-0.023-0.125-0.043-0.18-0.07c-0.035-0.015-0.065-0.03-0.098-0.048c-0.053-0.025-0.105-0.055-0.145-0.084
			c-0.029-0.019-0.058-0.042-0.086-0.063c-0.037-0.029-0.068-0.061-0.109-0.096c-0.018-0.022-0.043-0.049-0.067-0.076
			c-0.026-0.031-0.05-0.063-0.065-0.094c-0.023-0.03-0.043-0.061-0.057-0.096c-0.016-0.023-0.025-0.053-0.035-0.081
			c-0.017-0.04-0.029-0.075-0.039-0.116c-0.006-0.016-0.006-0.03-0.007-0.046c-0.079-0.495,0.289-1.018,1.112-1.195
			c-0.355-0.352-0.436-0.816-0.053-1.173c0.626-0.581,1.301-1.141,1.939-1.723c-0.104-0.146-0.225-0.283-0.355-0.413
			c-1.371,0.383-2.678,0.833-3.769,1.474c-1.099,0.647-2.551,0.213-2.99-0.448c-0.661-0.038-1.282-0.278-1.528-0.788
			c-0.604-1.253-0.688-2.535-0.785-3.821c-0.574,2.802-1.862,5.517-2.464,8.323c-0.192,0.902-1.727,1.238-2.745,0.993
			c-0.026,0.103-0.051,0.207-0.063,0.321c-1.182-1.296-2.583-2.531-4.207-3.756c-1.563-1.18-3.804-1.075-5.198-0.368
			c2.868,2.503,5.827,5.535,5.395,8.717c-0.095,0.717-1.051,1.082-1.959,1.084c0.232,0.349,0.457,0.692,0.692,1.038
			c-0.423-0.354-0.856-0.706-1.302-1.054c-0.032-0.026-0.076-0.043-0.107-0.064c-0.324-0.081-0.596-0.217-0.766-0.41
			c-1.579-0.634-3.711-0.396-4.88,0.343c2.8,1.535,5.217,3.284,5.651,5.707c0.099,0.548-0.348,0.881-0.962,1.02
			c0.217,0.19,0.436,0.388,0.647,0.588c-0.342,0.011-0.689,0.033-1.031,0.037c-1.226,0.028-2.389-0.124-3.539-0.246
			c4.319,1.565,7.676,5.346,10.578,7.225c0.253,0.157,0.392,0.334,0.462,0.511c1.322,0.26,2.562-0.127,3.304-0.799
			c0.75,0.173,1.55,0.228,2.271,0.12c1.619,1.08,5.154,1.323,6.566-0.381c0.035-0.041,0.074-0.088,0.109-0.131
			c1.109,0.308,2.438,0.356,3.553,0.029c-0.216-0.544,0.124-1.142,1.227-1.31c3.243-0.483,6.53-0.83,9.829-0.929
			c-0.354-0.11-0.707-0.226-1.074-0.323C72.096,107.664,72.298,106.783,73.135,106.306z"/>
		<g>
			<path fill="#3F632C" d="M70.249,90.586c-0.062-0.075-0.156-0.132-0.268-0.162C70.063,90.482,70.155,90.538,70.249,90.586z"/>
			<path fill="#3F632C" d="M60.58,88.563c-0.007,0.018-0.01,0.041-0.016,0.059c0.028,0.047,0.029,0.104,0.006,0.162
				c0.118-0.054,0.235-0.104,0.382-0.137c-0.079-0.072-0.123-0.154-0.175-0.232C60.726,88.479,60.665,88.534,60.58,88.563z"/>
			<path fill="#3F632C" d="M69.98,90.424c-0.093-0.065-0.179-0.138-0.245-0.22c-0.017,0.064-0.018,0.123-0.033,0.183
				C69.795,90.381,69.89,90.396,69.98,90.424z"/>
			<path fill="#3F632C" d="M61.278,86.917c0.029,0.061,0.034,0.125-0.006,0.187c-0.042,0.05-0.079,0.102-0.117,0.149
				c0.186-0.174,0.369-0.34,0.566-0.506c-0.117,0.047-0.236,0.09-0.361,0.134C61.333,86.895,61.305,86.908,61.278,86.917z"/>
			<path fill="#3F632C" d="M74.099,104.164c-0.031,0.026-0.063,0.055-0.119,0.081c-0.172,0.078-0.289,0.116-0.414,0.165
				c-0.003,0.003-0.005,0.006-0.018,0.009c0.102-0.037,0.18-0.081,0.29-0.11c0.256-0.062,0.496-0.144,0.739-0.209
				c-0.147,0.024-0.297,0.048-0.445,0.06C74.124,104.159,74.108,104.161,74.099,104.164z"/>
			<path fill="#3F632C" d="M50.813,102.761c-0.556-0.501-1.558-0.823-2.4-1.207c1.077,0.928,1.799,2.051,2.481,3.107
				c0.264,0.408,0.523,0.771,0.759,1.142c0.159,0.419,0.361,0.969,0.666,1.41C53.186,105.809,52.088,103.918,50.813,102.761z"/>
			<path fill="#3F632C" d="M52.937,95.4c0.017,0.222,0.02,0.443,0.003,0.676c-0.028,0.4,0.033,0.804,0.146,1.203
				c-0.016,0.139-0.03,0.272-0.065,0.405c-0.021,0.081-0.042,0.16-0.066,0.232c1.118-0.772,1.786-1.908,1.177-2.869
				c-0.521-0.822-1.447-1.5-2.315-2.191c0.001,0.002,0,0.008,0.001,0.009C52.295,93.646,52.691,94.514,52.937,95.4z"/>
			<path fill="#3F632C" d="M63.941,98.175c-1.391,0.438-2.34,1.107-3.109,2.109c-0.608,0.779-1.027,1.494-0.925,2.375
				c0.009,0.058,0.016,0.113,0.02,0.168c0.002-0.019,0.008-0.029,0.018-0.05c0.252-0.267,0.473-0.541,0.66-0.827
				c0.414-0.296,0.491-0.692,0.725-1.065c0.46-0.741,0.986-1.301,1.755-1.926c0.117-0.102,0.12-0.197,0.061-0.284
				c0.051-0.04,0.101-0.087,0.142-0.127C63.498,98.427,63.723,98.297,63.941,98.175z"/>
			<path fill="#3F632C" d="M63.423,110.603c-0.054-0.136-0.075-0.266-0.054-0.399c-0.195,0.197-0.405,0.398-0.647,0.545
				C62.959,110.704,63.194,110.666,63.423,110.603z"/>
			<path fill="#3F632C" d="M38.233,98.417c0.119,0.085,0.246,0.172,0.363,0.259c-0.075-0.091-0.159-0.186-0.246-0.276
				C38.315,98.406,38.274,98.412,38.233,98.417z"/>
			<path fill="#3F632C" d="M77.906,102.731c-1.211,0.182-2.335,0.51-3.533,0.726c-0.126,0.024-0.241,0.039-0.358,0.042
				c-0.003,0-0.004,0-0.006,0.002c-0.088,0.029-0.183,0.055-0.293,0.066c-0.379,0.4-0.702,0.831-0.818,1.285
				c0.147-0.171,0.356-0.32,0.65-0.434c0.013-0.003,0.015-0.006,0.017-0.009c0.125-0.047,0.242-0.087,0.414-0.165
				c0.056-0.026,0.089-0.055,0.119-0.081c0.009-0.003,0.024-0.005,0.033-0.006c0.147-0.012,0.298-0.035,0.444-0.061
				c1.588-0.44,3.117-0.949,4.633-1.472C78.777,102.632,78.342,102.661,77.906,102.731z"/>
			<path fill="#3F632C" d="M68.121,108.544c-1.799,0.093-2.894,0.408-3.871,0.854c0.122-0.037,0.246-0.082,0.397-0.107
				c2.252-0.332,4.506-0.594,6.776-0.765C70.328,108.491,69.23,108.485,68.121,108.544z"/>
			<path fill="#3F632C" d="M72.296,94.088c-1.962,0.912-2.743,1.914-2.674,3.449c0.032,0.689,0.68,0.91,1.351,1.199
				c0.031-0.001,0.06-0.006,0.092-0.006c0.021,0,0.035,0.003,0.057,0.003l0,0c-0.032-0.006-0.063-0.012-0.095-0.028
				c-1.228-0.268-1.443-1.31-0.663-1.849c0.002-0.007,0.003-0.009,0.016-0.01c0-0.002,0.005-0.004,0.008-0.006
				c0.003-0.007,0.006-0.01,0.01-0.012c2.404-1.846,5.553-3.171,8.777-4.406C76.704,92.646,74.252,93.174,72.296,94.088z"/>
			<path fill="#3F632C" d="M59.714,110.409c0.053,0.078,0.09,0.145,0.111,0.222c0.014-0.021,0.031-0.043,0.045-0.058
				c0.009,0.001,0.021,0.004,0.027,0.006c0.026-0.032,0.041-0.078,0.041-0.113c0.014-0.055-0.002-0.112-0.031-0.159
				c0.311-0.382,0.547-0.846,0.635-1.29c0.381-0.342,0.793-0.703,1.083-1.086c0.162-0.157,0.337-0.322,0.489-0.496
				c0.225-0.243,0.58-0.425,0.735-0.683c0.76-0.48,1.487-0.998,2.048-1.539l0,0c0.103-0.082,0.191-0.168,0.281-0.253
				C61.994,105.838,58.19,108.451,59.714,110.409z"/>
			<path fill="#3F632C" d="M63.941,98.175c-1.391,0.438-2.34,1.107-3.109,2.109c-0.608,0.779-1.027,1.494-0.925,2.375
				c0.009,0.058,0.016,0.113,0.02,0.168c0.002-0.019,0.008-0.029,0.018-0.05c0.252-0.267,0.473-0.541,0.66-0.827
				c0.414-0.296,0.491-0.692,0.725-1.065c0.46-0.741,0.986-1.301,1.755-1.926c0.117-0.102,0.12-0.197,0.061-0.284
				c0.051-0.04,0.101-0.087,0.142-0.127C63.498,98.427,63.723,98.297,63.941,98.175z"/>
			<path fill="#3F632C" d="M68.79,91.36c0.542-0.147,1.098-0.288,1.657-0.408c-0.026-0.03-0.037-0.062-0.087-0.09
				c-0.008-0.072-0.026-0.144-0.056-0.206c-0.009-0.027-0.034-0.046-0.056-0.07c-0.094-0.048-0.184-0.104-0.268-0.162
				c-0.09-0.027-0.186-0.045-0.278-0.037c0.015-0.06,0.016-0.118,0.033-0.183c-0.224-0.241-0.296-0.53-0.124-0.799
				c0.118-0.179,0.246-0.342,0.367-0.519c0-0.042-0.024-0.075-0.038-0.115c-0.028,0.018-0.05,0.041-0.081,0.059
				c-1.447,0.929-2.187,2.104-2.869,3.299C67.536,91.834,68.094,91.546,68.79,91.36z"/>
			<path fill="#3F632C" d="M58.378,88.521c-0.47,0.646-0.668,1.381-0.844,2.119c0.002-0.009,0.006-0.012,0.008-0.016
				c0.051-0.022,0.096-0.041,0.132-0.073c0.28-0.237,0.614-0.499,0.862-0.779c0.034-0.032,0.066-0.071,0.105-0.104
				c0.578-0.221,1.305-0.514,1.31-0.513c0.031,0.002,0.062,0,0.091-0.001c0.12-0.147,0.301-0.269,0.529-0.369
				c0.023-0.059,0.021-0.114-0.006-0.162c0.006-0.018,0.01-0.041,0.016-0.059c0.085-0.029,0.146-0.085,0.197-0.148
				c-0.184-0.309-0.18-0.657,0.122-0.939c0.084-0.075,0.171-0.149,0.255-0.223c0.038-0.048,0.076-0.1,0.118-0.149
				c0.04-0.062,0.035-0.126,0.006-0.187c0.028-0.009,0.054-0.022,0.081-0.036c0.125-0.044,0.244-0.087,0.361-0.134
				c0.229-0.202,0.444-0.397,0.672-0.598C60.666,86.56,59.13,87.485,58.378,88.521z"/>
			<path fill="#3F632C" d="M44.13,95.986c-0.059,0.443-0.446,0.744-0.946,0.918c0.924-0.107,1.742-0.147,2.045-0.985
				c0.384-1.063,0.589-2.33,0.093-3.401c-0.505-1.095-3.778-4.307-5.777-4.922c-0.211-0.008-0.4-0.046-0.558-0.104
				C41.77,89.952,44.549,92.897,44.13,95.986z"/>
			<path fill="#3F632C" d="M41.442,102.997c1.612-0.59,1.237-2.168,0.369-3.175c-1.199-1.393-3.317-2.651-5.904-2.843
				c0.826,0.457,1.614,0.934,2.326,1.438c0.042-0.005,0.083-0.011,0.118-0.018c0.087,0.091,0.171,0.186,0.246,0.276
				c1.489,1.122,2.585,2.405,2.867,3.954C41.488,102.767,41.476,102.887,41.442,102.997z"/>
			<path fill="#3F632C" d="M50.813,102.761c-0.556-0.501-1.558-0.823-2.4-1.207c1.077,0.928,1.799,2.051,2.481,3.107
				c0.264,0.408,0.523,0.771,0.759,1.142c0.159,0.419,0.361,0.969,0.666,1.41C53.186,105.809,52.088,103.918,50.813,102.761z"/>
			<path fill="#3F632C" d="M52.937,95.4c0.017,0.222,0.02,0.443,0.003,0.676c-0.028,0.4,0.033,0.804,0.146,1.203
				c-0.016,0.139-0.03,0.272-0.065,0.405c-0.021,0.081-0.042,0.16-0.066,0.232c1.118-0.772,1.786-1.908,1.177-2.869
				c-0.521-0.822-1.447-1.5-2.315-2.191c0.001,0.002,0,0.008,0.001,0.009C52.295,93.646,52.691,94.514,52.937,95.4z"/>
			<path fill="#3F632C" d="M43.61,107.508c-0.813-0.64-1.572-1.353-2.567-1.885c-0.644-0.345-1.479-0.524-2.294-0.71
				c-0.016,0.029-0.047,0.047-0.048,0.088c3.05,1.667,5.587,4.203,7.844,5.818C46.571,109.668,44.629,108.304,43.61,107.508z"/>
		</g>
		<g>
			<path fill="#3F632C" d="M55.503,105.33c0.721-1.317,0.087-2.674-1.978-3.701c-1.173-0.571-2.191-1.09-3.324-1.491
				C52.821,101.449,55.273,103.507,55.503,105.33z"/>
			<path fill="#3F632C" d="M49.843,107.197c-0.075-0.135-0.146-0.277-0.193-0.423c-0.305-0.939-1.544-1.504-2.988-1.643
				c-0.88-0.082-1.396,0.21-1.558,0.59C46.837,105.835,48.736,106.342,49.843,107.197z"/>
			<path fill="#3F632C" d="M70.474,104.095c-0.009-0.006-0.03-0.006-0.048-0.02c-0.958,0.106-1.787,0.315-2.309,0.913
				c-0.57,0.672-0.774,1.28-0.449,1.885c0.235,0.166,0.596,0.267,0.886,0.368c0.176,0.061,0.212,0.063,0.118,0.009
				c0.096,0.05,0.203,0.092,0.308,0.128c0.228,0.087,0.474,0.145,0.729,0.174c-0.918-1.118-0.568-2.574,1.056-3.347
				C70.648,104.184,70.555,104.146,70.474,104.095z"/>
			<path fill="#3F632C" d="M59.626,99.06c0.09,0.016,0.178,0.021,0.271,0.021c0.494,0,0.822-0.111,1.02-0.271
				c0.162-0.03,0.334-0.078,0.489-0.159c0.354-0.162,0.719-0.361,1.112-0.485c0.262-0.085,0.47-0.147,0.713-0.199
				c0.015-0.001,0.074-0.007,0.145-0.023c0.018,0,0.025,0.012,0.034,0.012c0.781,0.037,1.517-0.229,1.65-0.713
				C62.703,97.141,61.215,98.063,59.626,99.06z"/>
			<path fill="#3F632C" d="M56.272,97.169c0.04,0.056,0.053,0.105,0.056,0.16c0.398-1.437-0.473-3.08-2.152-4.11
				C55.242,94.371,55.398,95.916,56.272,97.169z"/>
			<path fill="#3F632C" d="M41.623,87.332c0.274,0.039,0.501,0.112,0.705,0.21c1.096,0.348,2.137,0.799,3.11,1.303
				c-0.483-0.402-0.976-0.808-1.505-1.207c-1.237-0.931-2.876-1.044-4.203-0.705C40.382,87.03,41.013,87.165,41.623,87.332z"/>
			<path fill="#3F632C" d="M52.663,85.293c0.624,0.575,1.542,0.931,2.444,1.31c-0.14-0.114-0.284-0.23-0.396-0.354
				c-0.09-0.104-0.154-0.205-0.223-0.31c-0.119-0.102-0.222-0.219-0.292-0.361c-0.604-1.252-0.687-2.535-0.785-3.82
				c-0.235,1.146-0.589,2.273-0.97,3.401C52.526,85.188,52.601,85.233,52.663,85.293z"/>
			<path fill="#3F632C" d="M61.067,91.405c1.782,0.119,3.328-0.23,4.814-0.817c0.525-0.201,0.626-0.606,0.475-0.953
				c-0.394,0.164-0.799,0.329-1.189,0.494c-0.729,0.305-1.436,0.221-1.937-0.043c-0.012,0.036-0.028,0.067-0.043,0.099
				c-0.021,0.025-0.041,0.046-0.053,0.069c-0.054,0.063-0.112,0.123-0.177,0.18c-0.019,0.014-0.028,0.028-0.05,0.041
				c-0.087,0.063-0.185,0.121-0.3,0.171c-0.029,0.013-0.062,0.024-0.093,0.038c-0.093,0.032-0.201,0.063-0.313,0.088
				c-0.041,0.007-0.076,0.018-0.125,0.021c-0.152,0.026-0.317,0.044-0.497,0.044c-0.143,0-0.27-0.007-0.391-0.021
				c-0.045-0.008-0.078-0.014-0.113-0.023c-0.082-0.014-0.156-0.022-0.234-0.045c-0.036-0.014-0.07-0.021-0.113-0.035
				c-0.063-0.023-0.124-0.043-0.18-0.07c-0.034-0.015-0.064-0.03-0.098-0.048c-0.053-0.025-0.104-0.055-0.145-0.084
				c-0.029-0.019-0.057-0.042-0.085-0.063c-0.037-0.029-0.069-0.061-0.109-0.096c-0.018-0.022-0.044-0.049-0.067-0.076
				c-0.027-0.031-0.051-0.063-0.066-0.094c-0.022-0.03-0.043-0.061-0.057-0.096c-0.016-0.023-0.024-0.053-0.035-0.081
				c-0.016-0.04-0.029-0.075-0.038-0.116v-0.001C59.335,90.422,59.735,91.315,61.067,91.405z"/>
			<path fill="#3F632C" d="M72.604,92.871c0.02,0,0.027-0.001,0.046-0.003c0.009,0.002,0.026,0.003,0.036,0.003
				c0.647,0,1.021-0.185,1.158-0.442c1.912,0.022,3.849-0.348,5.743-0.165c0.114-0.043,0.228-0.087,0.342-0.13
				c-0.032-0.284-0.171-0.574-0.403-0.844c-2.385,0.396-4.809,0.683-7.278,0.841c-0.72,0.046-1.216-0.144-1.485-0.429
				C70.79,92.243,71.51,92.871,72.604,92.871z"/>
			<path fill="#3F632C" d="M74.956,102.149c1.864-0.145,3.632-0.142,5.453,0.063c0.597-0.208,1.204-0.417,1.802-0.622
				c-0.062-0.143-0.146-0.284-0.244-0.412c-3.48-0.009-6.972,0.402-10.199,1.205c-0.063,0.012-0.135,0.031-0.2,0.04
				C72.901,102.392,74.399,102.189,74.956,102.149z"/>
			<path fill="#3F632C" d="M70.474,104.095c-0.009-0.006-0.03-0.006-0.048-0.02c-0.958,0.106-1.787,0.315-2.309,0.913
				c-0.57,0.672-0.774,1.28-0.449,1.885c0.235,0.166,0.596,0.267,0.886,0.368c0.176,0.061,0.212,0.063,0.118,0.009
				c0.096,0.05,0.203,0.092,0.308,0.128c0.228,0.087,0.474,0.145,0.729,0.174c-0.918-1.118-0.568-2.574,1.056-3.347
				C70.648,104.184,70.555,104.146,70.474,104.095z"/>
			<path fill="#3F632C" d="M55.503,105.33c0.721-1.317,0.087-2.674-1.978-3.701c-1.173-0.571-2.191-1.09-3.324-1.491
				C52.821,101.449,55.273,103.507,55.503,105.33z"/>
			<path fill="#3F632C" d="M56.272,97.169c0.04,0.056,0.053,0.105,0.056,0.16c0.398-1.437-0.473-3.08-2.152-4.11
				C55.242,94.371,55.398,95.916,56.272,97.169z"/>
			<path fill="#3F632C" d="M59.626,99.06c0.09,0.016,0.178,0.021,0.271,0.021c0.494,0,0.822-0.111,1.02-0.271
				c0.162-0.03,0.334-0.078,0.489-0.159c0.354-0.162,0.719-0.361,1.112-0.485c0.262-0.085,0.47-0.147,0.713-0.199
				c0.015-0.001,0.074-0.007,0.145-0.023c0.018,0,0.025,0.012,0.034,0.012c0.781,0.037,1.517-0.229,1.65-0.713
				C62.703,97.141,61.215,98.063,59.626,99.06z"/>
			<path fill="#3F632C" d="M40.735,104.543c0.253,0.093,0.55,0.151,0.886,0.151c1.182,0,1.435-0.617,1.086-1.149
				c-0.081-0.252-0.319-0.501-0.672-0.655c-0.181-0.083-0.373-0.152-0.575-0.216c0.071,0.513-0.364,0.839-0.959,0.976
				c0.217,0.19,0.437,0.388,0.647,0.588c-0.342,0.011-0.688,0.033-1.031,0.037c-0.083,0.002-0.162-0.003-0.241-0.001
				c0.14,0.033,0.286,0.082,0.393,0.125C40.414,104.459,40.573,104.511,40.735,104.543z"/>
			<path fill="#3F632C" d="M49.843,107.197c-0.075-0.135-0.146-0.277-0.193-0.423c-0.305-0.939-1.544-1.504-2.988-1.643
				c-0.88-0.082-1.396,0.21-1.558,0.59C46.837,105.835,48.736,106.342,49.843,107.197z"/>
		</g>
	</g>
	<path fill="#BE1E2D" d="M60.458,92.545c-3.471,0-2.152,5.123,1.031,5.123C64.965,97.668,63.639,92.545,60.458,92.545z"/>
	<path fill="#BE1E2D" d="M46.916,97.942c-3.471,0-2.151,5.124,1.031,5.124C51.421,103.066,50.098,97.942,46.916,97.942z"/>
	<path fill="#BE1E2D" d="M55.914,103.811c-3.474,0-2.15,5.122,1.03,5.122C60.419,108.933,59.095,103.811,55.914,103.811z"/>
	<path fill="#BE1E2D" d="M48.528,87.432c-3.474,0-2.15,5.121,1.033,5.121C53.03,92.555,51.711,87.432,48.528,87.432z"/>
	<path fill="#BE1E2D" d="M40.969,100.858c-2.085,0-1.292,3.07,0.621,3.07C43.671,103.929,42.876,100.858,40.969,100.858z"/>
	<path fill="#BE1E2D" d="M58.485,88.078c-2.082,0-1.289,3.075,0.617,3.075C61.19,91.153,60.395,88.078,58.485,88.078z"/>
	<path fill="#BE1E2D" d="M68.998,98.968c-2.085,0-1.292,3.069,0.619,3.069C71.704,102.037,70.911,98.968,68.998,98.968z"/>
	<path fill="#D67884" d="M49.965,88.476c-0.144-0.077-0.256-0.103-0.418-0.129c-0.163-0.021-0.297-0.166-0.47-0.191
		c-0.152-0.02-0.313,0.039-0.438,0.134c-0.147,0.069-0.205,0.214-0.194,0.367c-0.019,0.362,0.327,0.63,0.632,0.617
		c0.029,0.016,0.05,0.042,0.085,0.057c0.158,0.063,0.315,0.012,0.473,0.099C50.255,89.76,50.552,88.796,49.965,88.476z"/>
	<path fill="#D67884" d="M58.691,88.532c-0.036,0-0.062,0.016-0.093,0.019c-0.031-0.004-0.061-0.019-0.092-0.019
		c-0.701,0-0.436,1.023,0.204,1.023c0.036,0,0.062-0.01,0.093-0.018c0.031,0.009,0.061,0.018,0.094,0.018
		C59.594,89.556,59.331,88.532,58.691,88.532z"/>
	<path fill="#D67884" d="M61.227,93.497c-0.104-0.131-0.262-0.23-0.45-0.23c-0.021,0-0.029,0.012-0.05,0.013
		c-0.012-0.001-0.029-0.013-0.043-0.013c-0.639,0-0.467,0.843,0.045,0.996c0.102,0.074,0.218,0.123,0.348,0.123
		C61.613,94.386,61.575,93.77,61.227,93.497z"/>
	<path fill="#D67884" d="M68.918,99.521c-0.689,0-0.424,1.019,0.206,1.019C69.823,100.539,69.558,99.521,68.918,99.521z"/>
	<path fill="#D67884" d="M57.448,104.479c-0.37-0.154-0.753-0.177-1.136-0.287c-0.672-0.18-0.989,0.769-0.334,0.958
		c0.379,0.1,0.776,0.125,1.137,0.278C57.76,105.712,58.069,104.746,57.448,104.479z"/>
	<path fill="#D67884" d="M47.882,99.025c-0.078-0.086-0.18-0.15-0.323-0.171c0.026,0.003,0.047,0.015,0.074,0.018
		c-0.173-0.15-0.35-0.162-0.49-0.089c-0.272,0.042-0.359,0.273-0.299,0.508c0.011,0.138,0.069,0.27,0.202,0.386
		c0.142,0.122,0.266,0.177,0.453,0.202c0.006,0.001,0.013-0.002,0.02-0.002c0.087,0.058,0.188,0.096,0.304,0.096
		C48.404,99.973,48.308,99.257,47.882,99.025z"/>
	<path fill="#D67884" d="M41.176,101.504c-0.694,0-0.429,1.028,0.205,1.028C42.078,102.534,41.811,101.504,41.176,101.504z"/>
</g>
</svg>
