<?xml version="1.0" encoding="utf-8"?>
<!-- Generator: Adobe Illustrator 16.0.0, SVG Export Plug-In . SVG Version: 6.00 Build 0)  -->
<!DOCTYPE svg PUBLIC "-//W3C//DTD SVG 1.1//EN" "http://www.w3.org/Graphics/SVG/1.1/DTD/svg11.dtd">
<svg version="1.1" id="Layer_1" xmlns="http://www.w3.org/2000/svg" xmlns:xlink="http://www.w3.org/1999/xlink" x="0px" y="0px"
	 width="105px" height="106px" viewBox="0 0 105 106" enable-background="new 0 0 105 106" xml:space="preserve">
<g>
	<g>
		<g>
			<path fill="#D88A00" d="M86.882,58.479c-0.093,0.883-1.616,2.33-2.129,2.959c-1.872,2.307-4.007,4.514-6.294,6.408
				c-3.972,3.293-8.765,5.563-13.883,6.291c-5.88,0.838-14.575-4.598-19.727-0.875c-2.354,1.701-2.598,4.66-1.658,7.214
				c4.672,12.7,19.213,14.959,29.302,6.921c4.931-3.926,8.188-9.829,10.438-15.611c1.328-3.418,2.357-6.971,3.263-10.523
				C86.422,60.369,86.785,59.398,86.882,58.479z"/>
			<path fill="#AA6900" d="M86.777,58.85c0,0-10.556,32.828-43.868,17.164l2.025-3.512l3.559-0.404l6.205,0.936l3.644,0.549
				l4.648-0.176l2.627,0.703l3.915-1.498l4.912-2.41c0,0,10.637-7.939,12.3-11.252"/>
			<path fill="#ED9406" d="M42.925,76.629c0,0,13.992,18.27,37.229,1.529c0,0-5.139,11.69-16.962,13.581
				c0,0-16.958,2.585-20.511-13.704L42.925,76.629z"/>
			<g>
				<path d="M86.882,58.479c0,0-0.027,0.117-0.077,0.35c-0.087,0.219-0.243,0.545-0.508,0.922c-0.535,0.754-1.394,1.781-2.476,3.096
					c-0.545,0.656-1.147,1.383-1.802,2.174c-0.739,0.732-1.537,1.523-2.391,2.371c-0.42,0.412-0.877,0.893-1.37,1.273
					c-0.488,0.402-0.965,0.83-1.535,1.225c-0.551,0.408-1.121,0.826-1.736,1.186c-0.602,0.389-1.229,0.764-1.898,1.1
					c-2.651,1.393-5.721,2.568-9.233,2.943c-3.713,0.193-7.121-1.01-10.625-1.641c-1.734-0.311-3.518-0.555-5.135-0.279
					c-0.387,0.105-0.809,0.133-1.158,0.309l-0.551,0.209c-0.17,0.094-0.328,0.205-0.496,0.303l-0.248,0.148l-0.064,0.037
					l-0.029,0.016c0.172-0.139,0.027-0.02,0.057-0.045l-0.133,0.119l-0.533,0.475c-0.176,0.16-0.189,0.273-0.301,0.402
					c-0.094,0.113-0.189,0.242-0.258,0.428c-0.707,1.271-0.576,3.108,0,4.563l0.588,1.332l0.295,0.668
					c0.104,0.212,0.227,0.38,0.338,0.573l0.68,1.127c0.225,0.379,0.547,0.714,0.814,1.074c2.184,2.909,5.474,4.806,8.948,5.607
					c3.501,0.663,7.182,0.394,10.403-0.896c3.225-1.254,6.038-3.268,8.261-5.621c2.203-2.334,3.937-4.962,5.311-7.475
					c1.367-2.553,2.447-4.928,3.257-7.178c0.421-1.109,0.836-2.143,1.182-3.107c0.308-0.975,0.591-1.867,0.846-2.676
					c0.501-1.621,0.945-2.891,1.23-3.76C86.76,58.949,86.882,58.479,86.882,58.479z M86.882,58.479c0,0-0.077,0.482-0.224,1.387
					c-0.209,0.891-0.512,2.199-0.899,3.859c-0.199,0.836-0.421,1.758-0.662,2.762c-0.275,0.992-0.617,2.047-0.958,3.188
					c-0.633,2.273-1.583,4.869-2.861,7.522c-1.286,2.671-2.917,5.478-5.233,8.092c-2.271,2.588-5.234,4.924-8.802,6.381
					c-3.534,1.485-7.671,1.977-11.692,1.207c-3.989-0.868-7.847-3.069-10.394-6.405c-0.311-0.42-0.66-0.8-0.936-1.258l-0.813-1.381
					c-0.297-0.468-0.496-0.916-0.68-1.36l-0.576-1.336c-0.41-1.125-0.674-2.142-0.664-3.302c0.006-1.121,0.186-2.309,0.775-3.35
					c0.215-0.508,0.738-1.094,1.098-1.494l0.537-0.473l0.135-0.115l0.127-0.105l0.047-0.025l0.088-0.055L44.658,72
					c0.246-0.137,0.486-0.285,0.734-0.408l0.779-0.285c0.518-0.223,1.053-0.262,1.576-0.379c2.113-0.295,4.071,0.053,5.905,0.418
					c1.834,0.391,3.571,0.867,5.249,1.273c1.68,0.396,3.304,0.709,4.808,0.662c3.167-0.227,6.182-1.186,8.749-2.373
					c0.654-0.287,1.271-0.613,1.862-0.955c0.612-0.314,1.156-0.686,1.707-1.025c0.554-0.322,1.075-0.725,1.588-1.09
					c0.532-0.355,0.943-0.744,1.401-1.131c0.89-0.764,1.725-1.479,2.494-2.141c0.71-0.742,1.362-1.424,1.952-2.039
					c1.163-1.248,2.145-2.168,2.729-2.859c0.295-0.346,0.471-0.641,0.578-0.85C86.845,58.594,86.882,58.479,86.882,58.479z"/>
			</g>
		</g>
		<g>
			<path fill="#D88A00" d="M70.117,101.389c-0.728,0.05-2.112-0.977-2.693-1.303c-2.129-1.188-4.212-2.604-6.067-4.186
				c-3.219-2.746-5.729-6.302-7.038-10.337c-1.504-4.634,1.664-12.427-2.071-16.066c-1.705-1.664-4.134-1.443-6.066-0.325
				c-9.604,5.567-9.385,17.636-1.465,24.662c3.869,3.43,9.095,5.231,14.09,6.236c2.948,0.593,5.965,0.924,8.962,1.155
				C68.522,101.284,69.359,101.441,70.117,101.389z"/>
			<path fill="#AA6900" d="M69.803,101.356c0,0-28.022-3.908-20.053-33.039l3.122,1.143l0.829,2.818l0.116,5.146l0.069,3.023
				l0.798,3.733l-0.195,2.224l1.759,2.953l2.641,3.63c0,0,7.915,7.482,10.83,8.356"/>
			<path fill="#ED9406" d="M49.255,68.416c0,0-12.797,13.884,4.006,30.307c0,0-10.174-2.505-13.368-11.797
				c0,0-4.479-13.344,8.189-18.505L49.255,68.416z"/>
			<g>
				<path d="M70.117,101.389c0,0-0.1-0.004-0.292-0.012c-0.192-0.035-0.479-0.112-0.823-0.271c-0.689-0.32-1.648-0.858-2.868-1.539
					c-0.609-0.344-1.286-0.723-2.021-1.135c-0.701-0.49-1.46-1.02-2.271-1.584c-0.204-0.143-0.41-0.288-0.62-0.437l-0.159-0.11
					c-0.101-0.078-0.11-0.094-0.17-0.146l-0.287-0.254c-0.388-0.345-0.785-0.699-1.193-1.063c-0.853-0.666-1.563-1.666-2.385-2.604
					c-0.432-0.464-0.769-0.998-1.104-1.546c-0.343-0.547-0.694-1.103-1.051-1.671c-0.322-0.585-0.56-1.23-0.848-1.86
					c-0.137-0.32-0.277-0.641-0.419-0.965l-0.104-0.244c-0.023-0.064-0.021-0.027-0.066-0.175L53.4,85.653l-0.139-0.495
					c-0.7-3.032-0.213-5.957-0.205-8.865c0.008-1.435-0.056-2.894-0.499-4.12c-0.137-0.283-0.215-0.613-0.4-0.858l-0.235-0.396
					l-0.302-0.34l-0.144-0.17l-0.037-0.043c0.033,0.027-0.099-0.091,0.069,0.057L51.481,70.4l-0.115-0.09l-0.458-0.366
					c-0.151-0.115-0.227-0.098-0.334-0.163c-0.09-0.054-0.197-0.104-0.346-0.134c-1.045-0.367-2.465-0.016-3.506,0.623l-0.992,0.664
					c-0.344,0.221-0.668,0.445-0.902,0.683l-0.795,0.692c-0.268,0.229-0.49,0.535-0.74,0.797c-2.01,2.137-3.063,5.009-3.221,7.88
					c-0.043,2.877,0.67,5.776,2.143,8.172c1.445,2.404,3.438,4.388,5.631,5.85c2.17,1.445,4.523,2.489,6.738,3.256
					c2.248,0.755,4.303,1.307,6.234,1.663c0.953,0.188,1.847,0.389,2.674,0.537c0.828,0.117,1.591,0.227,2.278,0.323
					c1.377,0.186,2.466,0.381,3.206,0.495C69.722,101.351,70.117,101.389,70.117,101.389z M70.117,101.389
					c0,0-0.4,0.009-1.152,0.028c-0.751-0.034-1.85-0.087-3.251-0.152c-0.704-0.038-1.483-0.081-2.331-0.128
					c-0.842-0.076-1.744-0.196-2.714-0.304c-1.927-0.177-4.174-0.564-6.508-1.215c-2.354-0.655-4.865-1.564-7.332-3.072
					c-2.432-1.472-4.768-3.547-6.471-6.253c-1.723-2.671-2.729-5.982-2.674-9.389c0.141-3.393,1.393-6.876,3.758-9.442
					c0.303-0.314,0.563-0.655,0.902-0.948l1.021-0.866c0.346-0.313,0.68-0.538,1.012-0.745l0.998-0.655
					c0.885-0.512,1.684-0.868,2.654-1.033c0.938-0.159,1.959-0.182,2.923,0.162c0.453,0.1,1.044,0.467,1.433,0.709l0.457,0.367
					l0.113,0.094l0.027,0.022c0.186,0.167,0.069,0.065,0.117,0.111l0.059,0.066l0.233,0.272c0.151,0.186,0.309,0.367,0.449,0.555
					l0.352,0.609c0.258,0.4,0.37,0.836,0.541,1.256c0.551,1.711,0.536,3.357,0.496,4.9c-0.061,1.549-0.202,3.019-0.301,4.425
					c-0.092,1.41-0.119,2.753,0.116,3.93l0.116,0.502l0.027,0.124c-0.021-0.068,0.021,0.047,0.027,0.063l0.087,0.227
					c0.116,0.303,0.23,0.602,0.347,0.899c0.237,0.593,0.432,1.197,0.691,1.763c0.299,0.547,0.593,1.082,0.882,1.609
					c0.281,0.536,0.563,1.058,0.929,1.497c0.702,0.908,1.268,1.843,2.084,2.606c0.375,0.398,0.74,0.784,1.097,1.162l0.265,0.28
					c0.034,0.035,0.109,0.117,0.108,0.113l0.143,0.117c0.189,0.158,0.376,0.315,0.559,0.467c0.735,0.615,1.425,1.194,2.062,1.727
					c0.696,0.476,1.336,0.912,1.917,1.309c1.166,0.771,2.04,1.45,2.674,1.829c0.32,0.19,0.581,0.297,0.766,0.354
					C70.02,101.375,70.117,101.389,70.117,101.389z"/>
			</g>
		</g>
		<g>
			<path fill="#D88A00" d="M72.495,76.975c-0.319,0.323-1.396,0.417-1.804,0.503c-1.494,0.32-3.059,0.521-4.585,0.546
				c-2.654,0.043-5.306-0.59-7.592-1.942c-2.628-1.555-4.368-6.532-7.631-6.695c-1.492-0.074-2.541,1.033-2.986,2.359
				c-2.209,6.598,2.895,12.179,9.528,12.2c3.239,0.012,6.444-1.309,9.206-2.905c1.634-0.943,3.189-2.039,4.693-3.172
				C71.704,77.586,72.162,77.313,72.495,76.975z"/>
			<path fill="#AA6900" d="M72.337,77.089c0,0-14.794,9.772-23.115-7.221l1.942-0.758l1.558,0.982l2.186,2.369l1.283,1.391
				l1.921,1.427l0.831,1.125l2.05,0.66l2.745,0.612c0,0,6.819,0.237,8.552-0.558"/>
			<path fill="#ED9406" d="M49.029,70.116c0,0-0.264,11.829,14.44,12.587c0,0-5.82,3.037-11.171-0.007c0,0-7.634-4.417-3.818-12.092
				L49.029,70.116z"/>
			<g>
				<path d="M72.495,76.975c0,0-0.169,0.211-0.635,0.354c-0.457,0.151-1.125,0.32-1.977,0.534c-0.426,0.105-0.897,0.223-1.413,0.351
					c-0.536,0.073-1.117,0.154-1.735,0.239c-1.33,0.143-2.591,0.171-4.236-0.1c-0.811-0.081-1.568-0.387-2.408-0.592
					c-0.404-0.137-0.795-0.342-1.203-0.519l-0.614-0.278l-0.157-0.072c-0.044-0.025-0.005,0.006-0.12-0.066l-0.068-0.041
					l-0.271-0.174c-1.7-1.196-2.69-2.765-3.887-4.103c-0.585-0.66-1.205-1.283-1.846-1.618c-0.319-0.153-0.628-0.293-0.939-0.296
					l-0.116-0.016l-0.029-0.005c0.048-0.001-0.127-0.001,0.102-0.003h-0.022l-0.091,0.004l-0.367,0.021
					c-0.162,0.059-0.131,0.025-0.285,0.107c-0.479,0.179-0.947,0.844-1.129,1.454l-0.188,0.722
					c-0.072,0.252-0.131,0.488-0.137,0.674c-0.051,0.398-0.113,0.799-0.09,1.241c-0.064,1.733,0.584,3.409,1.633,4.755
					c1.107,1.293,2.549,2.341,4.169,2.85c1.6,0.52,3.299,0.655,4.899,0.462c1.572-0.19,3.104-0.638,4.456-1.16
					c1.371-0.549,2.556-1.103,3.63-1.716c0.536-0.294,1.035-0.567,1.501-0.821c0.445-0.271,0.855-0.521,1.229-0.747
					c0.735-0.459,1.346-0.799,1.751-1.039C72.29,77.114,72.495,76.975,72.495,76.975z M72.495,76.975c0,0-0.178,0.178-0.517,0.512
					c-0.356,0.307-0.882,0.758-1.551,1.333c-0.341,0.287-0.716,0.604-1.124,0.947c-0.418,0.33-0.889,0.652-1.38,1.016
					c-0.96,0.733-2.189,1.522-3.555,2.211c-1.382,0.702-2.946,1.354-4.777,1.693c-1.789,0.345-3.806,0.366-5.802-0.21
					c-1.984-0.551-3.919-1.713-5.369-3.413c-1.406-1.722-2.307-3.988-2.262-6.279c-0.016-0.561,0.064-1.152,0.168-1.742
					c0.039-0.314,0.104-0.561,0.172-0.793l0.201-0.72c0.23-0.687,0.473-1.208,0.902-1.746c0.414-0.512,0.941-0.995,1.617-1.268
					c0.279-0.153,0.814-0.251,1.125-0.294l0.367-0.014l0.092-0.005h0.023c0.243,0.001,0.086,0.002,0.148,0.003l0.063,0.008
					l0.246,0.035c0.669,0.07,1.266,0.352,1.794,0.646c1.041,0.633,1.729,1.449,2.357,2.211c1.225,1.512,2.168,3.11,3.259,3.98
					c0.601,0.439,1.358,0.777,2.01,1.141c0.713,0.242,1.396,0.604,2.078,0.738c0.688,0.146,1.311,0.363,2.017,0.4
					c0.341,0.038,0.673,0.073,0.997,0.11l0.24,0.028c0.024,0.002,0.111,0.011,0.083,0.01l0.117-0.001
					c0.152,0,0.302-0.002,0.446-0.003c0.597,0,1.156-0.001,1.674-0.003c0.528-0.046,1.01-0.089,1.449-0.129
					c0.871-0.091,1.569-0.111,2.025-0.18C72.297,77.146,72.495,76.975,72.495,76.975z"/>
			</g>
		</g>
	</g>
	<polygon fill="#E7B97D" points="22.235,50.753 40.08,55.406 55.956,55.406 66.18,49.009 69.099,40.758 73.731,39.506 
		72.052,31.991 70.739,26.438 67.647,23.072 65.38,22.75 25.293,21.731 20.297,38.936 20.506,46.063 20.977,53.371 	"/>
	<path opacity="0.3" fill="#C18C4D" d="M74.709,39.888c0,0-32.255-35.904-55.45,4.34"/>
	<path opacity="0.5" fill="#C18C4D" d="M73.458,41.083c0,0-31.243-30.547-53.708,3.692"/>
	<g>
		<path d="M52.424,25.991c1.861-0.111,3.518,2.35,3.695,5.5c0.178,3.149-1.189,5.793-3.052,5.905c-1.861,0.111-3.517-2.35-3.695-5.5
			C49.195,28.748,50.562,26.104,52.424,25.991z"/>
	</g>
	<g>
		<path d="M34.72,26.692c1.861,0.133,3.181,2.789,2.944,5.936c-0.235,3.146-1.936,5.588-3.797,5.456
			c-1.86-0.133-3.179-2.789-2.942-5.936C31.159,29.002,32.86,26.561,34.72,26.692z"/>
	</g>
	<polygon fill="#757575" points="22.521,43.127 27.285,29.724 29.835,24.781 36.104,21.731 38.819,21.27 46.391,21.731 
		50.308,21.731 55.751,22.28 62.126,24.781 67.271,30.527 70.896,38.936 73.403,37.224 69.841,23.417 65.055,18.369 61.812,15.522 
		58.026,13.354 46.834,10.625 37.051,11.033 27.285,17.757 23.352,25.939 21.85,30.967 19.973,43.486 	"/>
	<path fill="#B5B5B5" d="M24.328,25.155c0,0,15.535-21.066,42.943-2.875l-1.455-2.752l-5.884-5.004L44.507,9.88l-9.314,2.16
		l-5.96,3.277l-3.307,6.429L24.328,25.155z"/>
	<polygon fill="#757575" points="66.057,44.667 71.084,39.804 64.059,38.23 41.112,32.435 33.387,37.206 21.67,42.625 
		20.114,44.565 19.856,48.842 23.096,54.16 54.773,57.993 	"/>
	<path fill="#B5B5B5" d="M61.968,45.155c0,0-22.845-3.256-41.497,1.244l-0.412,1.693l7.451,3.846l21.487,4.171l9.152-2.726
		l3.816-2.962v-5.267H61.968z"/>
	<path d="M19.075,45.747c0.04,0.901,0.133,1.692,0.229,2.34c0.08,0.65,0.217,1.135,0.275,1.479c0.081,0.338,0.124,0.519,0.124,0.519
		l0.713-0.041c0,0,0.022-0.184,0.064-0.529c0.03-0.343,0.075-0.846,0.132-1.486c0.054-0.63,0.107-1.391,0.166-2.27
		c0.06-0.875,0.126-1.862,0.198-2.938c0.07-1.076,0.189-2.239,0.349-3.464c0.161-1.225,0.336-2.515,0.571-3.842
		c0.485-2.648,1.141-5.454,2.059-8.174c0.446-1.364,0.955-2.702,1.553-3.998c2.16-4.685,5.357-7.766,9.875-10.198
		c5.765-3.104,12.841-1.726,18.692,0.469l2.567,0.808c0.837,0.274,1.752,0.551,2.47,0.84c1.509,0.614,2.862,1.556,4.106,2.624
		c1.229,1.086,2.328,2.326,3.295,3.658c0.947,1.357,1.686,2.604,2.599,4.431l0.796-0.495c0.325-1.904-0.512-3.523-1.486-4.998
		c-0.951-1.5-2.087-2.924-3.454-4.188c-1.349-1.276-2.977-2.354-4.808-3.123c-1.853-0.698-3.518-1.188-5.313-1.71
		c-1.769-0.506-3.553-0.973-5.377-1.37c-7.163-1.561-14.631-1.224-20.233,4.093c-1.346,1.277-2.711,2.843-3.655,4.446
		c-0.735,1.249-1.346,2.582-1.887,3.95c-0.514,1.356-1.09,2.733-1.565,4.143c-0.979,2.81-1.702,5.699-2.216,8.435
		c-0.237,1.371-0.465,2.699-0.581,3.971c-0.13,1.269-0.219,2.472-0.261,3.585C19.011,43.821,19.024,44.843,19.075,45.747z"/>
	<path fill="#757575" d="M19.856,49.433c0,0,4.642,22.646,27.2,23.728c0,0,22.012,1.616,27.976-27.025c0,0,1.08-1.998,0.002-2.198
		c-1.147-0.212-0.111-3.325-2.083-4.103c-1.438-0.566-6.408,0.493-8.134,0c0,0-4.941,8.546-19.043,10.603
		c-14.104,2.057-13.681,1.401-19.963-1.021S19.856,49.433,19.856,49.433z"/>
	<path fill="#636363" d="M46.131,54.246c0,0,15.5-4.931,19.919-15.432l7.659,0.692l1.33,3.626l-3.05,2.665l-13.886,6.084
		l-12.385,2.894"/>
	<path d="M41.914,25.606l-1.87-3.468l0.081,0.149l-0.097-0.538c-0.164-0.916-0.043-1.765,0.166-2.591
		c0.114-0.411,0.232-0.822,0.433-1.215c0.229-0.383,0.572-0.739,1.288-1.01c0.518,0.563,0.666,1.035,0.696,1.48
		c0.001,0.439-0.076,0.857-0.158,1.277c-0.187,0.832-0.458,1.645-1.018,2.39l-0.015-0.388L41.914,25.606z"/>
	<path fill="#B5B5B5" d="M46.332,64.545c-0.999,1.382-1.148,3.273-0.159,4.998c1.108,1.932,2.803,3.466,5.179,3.154
		c0,0,19.042-2.586,23.689-26.562c-1.164,1.276-2.519,3.172-3.847,4.622c-2.622,2.866-6.858,7.348-10.39,9.041
		c-3.832,1.838-8.088,1.728-12.071,3.031C47.704,63.166,46.885,63.777,46.332,64.545z"/>
	<path fill="#636363" d="M48.388,73.161c0,0-24.892-1.256-27.611-22.949c4.086,7.304,19.421,8.469,25.176,17.989
		c1.205,1.994,2.049,4.792,4.355,5.792C50.305,73.992,48.388,73.161,48.388,73.161z"/>
	<g>
		<path d="M74.876,44.072c0.001,0-0.937,0.987-2.144,1.864c-1.218,0.873-2.991,2.096-5.333,3.299
			c-1.172,0.6-2.459,1.229-3.872,1.812c-1.4,0.605-2.933,1.152-4.55,1.644c-1.617,0.494-3.326,0.924-5.092,1.256
			c-1.766,0.323-3.582,0.599-5.417,0.713c-0.915,0.06-1.833,0.118-2.749,0.116c-0.915,0.029-1.826,0.009-2.729-0.029
			c-1.808-0.059-3.578-0.23-5.274-0.471c-0.854-0.088-1.672-0.281-2.478-0.432c-0.81-0.143-1.581-0.349-2.334-0.535
			c-1.518-0.35-2.896-0.823-4.177-1.223c-1.254-0.458-2.414-0.859-3.386-1.313c-0.98-0.436-1.853-0.783-2.525-1.143
			c-1.356-0.693-2.133-1.088-2.133-1.088l-0.386-1.432c0,0,1.769,0.887,3.17,1.451c0.684,0.306,1.563,0.588,2.55,0.947
			c0.976,0.381,2.139,0.674,3.363,1.082c1.254,0.332,2.601,0.736,4.068,1.01c1.452,0.328,3.014,0.547,4.625,0.766
			c1.613,0.205,3.292,0.348,5.002,0.38c0.855,0.024,1.716,0.033,2.58-0.007c0.865-0.008,1.731-0.076,2.594-0.145
			c0.867-0.05,1.722-0.188,2.582-0.265c0.852-0.125,1.704-0.239,2.538-0.396c1.672-0.313,3.303-0.682,4.854-1.113
			c3.098-0.877,5.911-1.926,8.218-2.999c2.297-1.083,4.168-2.073,5.404-2.849c1.258-0.763,2.076-1.489,2.078-1.489L74.876,44.072z"
			/>
	</g>
	<g>
		<path fill="#757575" d="M46.404,15.596c1.564-0.07,5.828,0.094,5.453-2.457c-0.176-1.174-1.16-2.188-1.958-2.996
			c-1.593-1.606-3.494-3.074-5.77-3.502c-0.634-0.117-1.327-0.218-1.979-0.193c-0.646,0.023-1.329,0.177-1.955,0.341
			c-2.238,0.597-4.023,2.198-5.492,3.924c-0.736,0.864-1.646,1.946-1.73,3.131c-0.185,2.572,4.056,2.091,5.621,2.044
			C39.896,15.847,45.102,15.653,46.404,15.596z"/>
		<path fill="#B5B5B5" d="M38.516,15.626c0,0-5.283-4.683,2.255-9.082c0,0-6.037,1.748-7.842,6.543l0.064,1.714l0.962,1.223
			l1.446-0.054L38.516,15.626z"/>
		<path fill="#636363" d="M43.939,6.608l4.15,1.873l2.051,1.832l1.137,1.707l0.073,1.959l-1.182,1.211l-2.329,0.315l-1.628,0.054
			C46.211,15.561,50.624,13.022,43.939,6.608z"/>
		<g>
			<g>
				<path d="M46.38,14.422c0.988-0.004,1.893,0.021,2.767-0.086c0.856-0.088,1.713-0.389,1.902-0.786
					c0.119-0.185,0.129-0.515,0.029-0.885c-0.102-0.361-0.295-0.733-0.545-1.095c-0.497-0.711-1.202-1.43-1.852-2.074
					c-1.334-1.303-2.927-2.389-4.743-2.706c-0.927-0.179-1.841-0.256-2.728-0.056c-0.463,0.093-0.896,0.201-1.355,0.354
					c-0.415,0.137-0.845,0.333-1.24,0.561c-1.608,0.904-2.889,2.34-4.021,3.834c-0.549,0.729-1.001,1.541-0.974,2.246
					c0.009,0.353,0.118,0.545,0.348,0.722c0.238,0.172,0.612,0.3,1.019,0.362c0.829,0.133,1.754,0.092,2.69,0.025l2.896-0.188
					c1.924-0.138,3.855-0.217,5.775-0.231L46.38,14.422z M46.454,16.303l-0.019,0.001c-1.935,0.144-3.857,0.207-5.794,0.209
					l-2.888,0.03c-0.985,0.018-2.01,0.018-3.077-0.236c-0.53-0.133-1.099-0.326-1.615-0.765c-0.535-0.429-0.824-1.226-0.76-1.837
					c0.095-1.26,0.778-2.157,1.401-2.926c1.281-1.488,2.712-2.924,4.506-3.883c0.449-0.231,0.902-0.437,1.405-0.601
					c0.459-0.147,0.964-0.271,1.447-0.358c1.011-0.207,2.06-0.131,3.023,0.053c2.019,0.336,3.805,1.438,5.312,2.716
					c0.762,0.661,1.454,1.288,2.146,2.099c0.336,0.406,0.646,0.871,0.851,1.428c0.194,0.537,0.321,1.237,0.022,1.939
					c-0.298,0.7-0.897,1.113-1.42,1.359c-0.537,0.246-1.065,0.384-1.583,0.481C48.393,16.208,47.375,16.242,46.454,16.303z"/>
			</g>
		</g>
	</g>
	<g>
		<path d="M41.571,54.252c0,0,0.085,1.268,0.373,3.145c0.073,0.47,0.158,0.975,0.273,1.505c0.082,0.536,0.218,1.09,0.341,1.667
			c0.137,0.575,0.304,1.161,0.472,1.757c0.191,0.587,0.337,1.201,0.571,1.784c0.219,0.588,0.427,1.183,0.697,1.738
			c0.129,0.281,0.255,0.56,0.378,0.836c0.141,0.268,0.28,0.531,0.418,0.791c0.136,0.261,0.27,0.517,0.4,0.77
			c0.152,0.238,0.3,0.473,0.442,0.7c0.287,0.456,0.555,0.895,0.857,1.257c0.283,0.377,0.543,0.725,0.773,1.031
			c0.258,0.285,0.482,0.532,0.67,0.737c0.368,0.416,0.579,0.653,0.579,0.653l-0.255,0.282c0,0-0.242-0.215-0.666-0.591
			c-0.21-0.192-0.465-0.425-0.757-0.692c-0.265-0.295-0.563-0.627-0.89-0.991c-0.335-0.358-0.637-0.793-0.96-1.249
			c-0.162-0.229-0.33-0.464-0.502-0.703c-0.15-0.254-0.305-0.513-0.461-0.774c-0.332-0.516-0.607-1.085-0.875-1.67
			c-0.291-0.572-0.52-1.183-0.758-1.789c-0.255-0.603-0.417-1.233-0.628-1.84c-0.161-0.62-0.314-1.231-0.439-1.827
			c-0.25-1.192-0.406-2.321-0.459-3.292c-0.079-0.97-0.068-1.78-0.045-2.349c0.016-0.565,0.063-0.892,0.063-0.892L41.571,54.252z"/>
	</g>
	<g>
		<path d="M41.542,33.875c0,0-0.383,1.211-0.798,3.064c-0.103,0.464-0.207,0.965-0.293,1.501c-0.118,0.528-0.194,1.095-0.29,1.677
			c-0.082,0.586-0.14,1.192-0.2,1.809c-0.035,0.616-0.123,1.241-0.117,1.869c-0.011,0.627-0.033,1.257,0.017,1.872
			c0.018,0.31,0.033,0.615,0.048,0.916c0.033,0.301,0.067,0.598,0.101,0.89c0.032,0.293,0.063,0.579,0.093,0.862
			c0.056,0.278,0.107,0.549,0.157,0.813c0.102,0.529,0.191,1.035,0.341,1.483c0.127,0.454,0.242,0.872,0.346,1.241
			c0.137,0.359,0.255,0.672,0.355,0.931c0.191,0.521,0.302,0.818,0.302,0.818l-0.341,0.172c0,0-0.147-0.289-0.405-0.792
			c-0.125-0.256-0.278-0.565-0.453-0.921c-0.139-0.371-0.295-0.788-0.468-1.247c-0.181-0.456-0.304-0.97-0.438-1.513
			c-0.068-0.271-0.139-0.553-0.212-0.838c-0.048-0.291-0.097-0.588-0.146-0.89c-0.122-0.601-0.172-1.23-0.208-1.873
			c-0.063-0.64-0.053-1.291-0.055-1.942c-0.018-0.653,0.062-1.301,0.086-1.942c0.075-0.636,0.155-1.261,0.256-1.861
			c0.201-1.202,0.467-2.31,0.771-3.234c0.278-0.931,0.584-1.682,0.813-2.202c0.221-0.521,0.384-0.808,0.384-0.808L41.542,33.875z"/>
	</g>
	<path d="M19.406,49.264c0.033,1.451,0.373,2.888,0.811,4.266c0.885,2.787,2.191,5.457,3.795,7.899
		c1.084,1.682,2.475,3.358,4.111,4.971c1.629,1.621,3.527,3.158,5.672,4.486c2.131,1.338,4.5,2.521,7.221,3.2
		c2.646,0.687,5.459,0.918,8.205,0.635c2.746-0.271,5.425-0.963,7.904-1.979c2.472-1.04,4.732-2.397,6.75-3.911
		c2.027-1.507,3.754-3.242,5.236-4.995c1.49-1.752,2.661-3.594,3.6-5.354c1.996-3.746,3.073-8.011,3.387-12.232
		c0.271-3.652-0.482-7.208-1.237-10.759c-0.473-2.22-1.049-4.417-1.867-6.537c-0.861-2.232-1.955-4.382-3.258-6.389
		c-0.511-0.786-1.051-1.563-1.668-2.27c-0.188-0.215-0.729-0.954-1.086-0.911c-0.703,0.086,0.422,2.575,0.545,2.884
		c0.821,2.061,1.772,4.067,2.633,6.111c1.417,3.366,2.359,6.814,3.062,10.395c0.63,3.208,0.992,6.524,0.555,9.784
		c-0.422,3.142-1.702,5.9-3.434,8.529c-1.002,1.521-2.245,3.055-3.676,4.555c-1.434,1.5-3.125,2.894-4.965,4.174
		c-3.691,2.531-8.207,4.42-12.853,4.808c-2.313,0.188-4.648,0.094-6.855-0.465c-2.146-0.519-4.291-1.431-6.246-2.539
		c-1.949-1.113-3.736-2.382-5.324-3.716c-1.57-1.354-2.963-2.758-4.117-4.166c-0.604-0.735-1.17-1.499-1.715-2.278
		c-1.623-2.32-3.131-4.993-3.162-7.901c-0.002-0.129,0.057-1.731,0.195-1.678l-2.154-0.834
		C19.564,47.083,19.402,49.05,19.406,49.264z"/>
	<path fill="#636363" d="M71.434,38.569l-2.26-4.161l-5.068-7.88l-5.235-3.156l-10.556-1.641h-5.872c0,0,0.7-2.48,3.277-2.781
		s20.5-2.406,27.298,17.769L71.434,38.569z"/>
	<path fill="#636363" d="M24.054,38.814l1.221-3.226l2.446-8.075l2.725-3.539l6.103-2.45l3.513-0.458c0,0-0.74-2.405-2.32-2.502
		c-1.579-0.098-12.575-0.787-14.034,19.749L24.054,38.814z"/>
	<path d="M23.494,42.451c1.57-4.64,2.983-9.111,5.217-13.499c0.98-1.926,2.1-4.011,3.995-5.179c1.367-0.843,3.308-1.097,4.885-1.276
		c2.651-0.302,5.323-0.151,7.98-0.029c2.503,0.115,5.017,0.115,7.511,0.373c1.427,0.147,2.847,0.389,4.231,0.766
		c1.566,0.427,3.134,1.108,4.472,2.038c3.065,2.128,4.897,5.515,6.568,8.753c0.927,1.794,1.823,3.604,2.73,5.407
		c0.309-0.077,0.619-0.185,0.906-0.318c-0.83-2.934-1.854-5.708-3.383-8.355c-1.46-2.526-3.128-5.182-5.576-6.861
		c-4.002-2.748-9.337-2.887-14.004-3.323C43.505,20.43,37.352,19.266,32.21,22c-1.846,0.981-3.11,2.627-4.108,4.421
		c-2.778,4.995-4.203,11.203-5.581,16.706C22.845,43.206,23.169,42.373,23.494,42.451z"/>
	<g>
		<path d="M71.874,40.62c-2.68-0.177-5.317-0.522-7.941-0.931c-2.625-0.4-5.229-0.889-7.823-1.417
			c-1.293-0.282-2.592-0.542-3.88-0.843c-1.288-0.305-2.579-0.593-3.858-0.931c-2.565-0.652-5.117-1.356-7.631-2.22l1.129-0.146
			c-1.457,1.005-2.976,1.894-4.505,2.765c-1.538,0.854-3.093,1.676-4.671,2.455c-0.794,0.381-1.578,0.781-2.379,1.147
			c-0.802,0.365-1.606,0.728-2.432,1.049c-0.82,0.331-1.653,0.639-2.507,0.91c-0.849,0.278-1.714,0.526-2.616,0.706l-0.474-0.881
			c0.647-0.653,1.331-1.238,2.031-1.793c0.696-0.563,1.412-1.088,2.141-1.59c0.723-0.512,1.469-0.983,2.216-1.451
			c0.748-0.467,1.513-0.901,2.269-1.353c1.521-0.887,3.063-1.732,4.624-2.544c1.569-0.795,3.149-1.572,4.79-2.234l0.562-0.227
			l0.567,0.08c2.632,0.371,5.227,0.901,7.808,1.484c1.293,0.28,2.575,0.608,3.861,0.921c1.285,0.316,2.56,0.674,3.84,1.01
			c2.552,0.707,5.094,1.453,7.615,2.288c2.523,0.826,5.031,1.715,7.498,2.773L71.874,40.62z"/>
	</g>
	<g>
		<ellipse fill="#757575" cx="74.736" cy="41.627" rx="3.954" ry="5.109"/>
		<path fill="#636363" d="M72.826,46.382c0.632,0.527,1.371,0.835,2.168,0.835c2.329,0,4.217-2.578,4.217-5.759
			c0-1.197-0.268-2.308-0.725-3.229c-0.126,0.514-0.307,1.006-0.513,1.484C77.542,42.697,75.824,45.419,72.826,46.382z"/>
		<path fill="#B5B5B5" d="M78.489,38.828c0.073,0,0.142,0.008,0.214,0.011c-0.763-1.463-2.065-2.431-3.55-2.431
			c-2.352,0-4.257,2.422-4.257,5.409c0,0.725,0.116,1.412,0.318,2.042C72.202,41.059,74.624,38.828,78.489,38.828z"/>
		<g>
			<path d="M70.29,41.607c0,0,0.009-0.119,0.025-0.341c0.032-0.226,0.01-0.541,0.101-0.972c0.088-0.433,0.193-0.964,0.453-1.514
				c0.095-0.292,0.278-0.563,0.461-0.855c0.16-0.308,0.422-0.566,0.681-0.849c0.239-0.303,0.617-0.486,0.944-0.745
				c0.189-0.09,0.392-0.169,0.594-0.255l0.308-0.123l0.335-0.052c0.244-0.024,0.412-0.088,0.73-0.076
				c0.208,0.022,0.419,0.045,0.633,0.068c0.201-0.004,0.469,0.138,0.704,0.209c0.251,0.083,0.488,0.186,0.68,0.335
				c0.871,0.495,1.507,1.334,1.945,2.237l0.301,0.7l0.188,0.739c0.074,0.245,0.108,0.497,0.121,0.752l0.062,0.802l-0.061,0.71
				c-0.011,0.231-0.041,0.474-0.117,0.738l-0.191,0.766l-0.302,0.7c-0.438,0.902-1.069,1.746-1.942,2.241
				c-0.832,0.504-1.869,0.757-2.738,0.542l-0.301-0.045l-0.326-0.123c-0.214-0.086-0.429-0.17-0.626-0.264
				c-0.328-0.259-0.708-0.443-0.947-0.746c-0.259-0.283-0.522-0.542-0.684-0.85c-0.183-0.293-0.367-0.564-0.462-0.856
				c-0.263-0.556-0.365-1.075-0.453-1.5c-0.096-0.423-0.066-0.77-0.095-0.999c-0.014-0.23-0.021-0.354-0.021-0.354L70.29,41.607z
				 M70.795,41.627c0,0,0.012,0.114,0.034,0.328c0.036,0.211,0.02,0.532,0.125,0.917c0.099,0.387,0.21,0.857,0.468,1.346
				c0.094,0.261,0.272,0.493,0.443,0.745c0.151,0.27,0.394,0.479,0.624,0.714c0.214,0.258,0.543,0.383,0.818,0.596
				c0.151,0.057,0.305,0.115,0.46,0.173l0.234,0.093l0.303,0.032c0.741,0.153,1.497-0.085,2.156-0.505
				c0.68-0.412,1.182-1.132,1.55-1.895l0.251-0.597l0.145-0.612c0.063-0.192,0.092-0.419,0.1-0.665l0.053-0.711
				c-0.059-0.793-0.143-1.755-0.547-2.505c-0.369-0.762-0.866-1.486-1.548-1.898c-0.157-0.137-0.325-0.209-0.49-0.271
				c-0.18-0.055-0.289-0.182-0.525-0.192c-0.212-0.031-0.422-0.063-0.629-0.094c-0.098-0.007-0.341,0.034-0.502,0.045l-0.27,0.025
				l-0.251,0.092c-0.167,0.062-0.332,0.123-0.494,0.182c-0.275,0.213-0.605,0.338-0.821,0.597c-0.231,0.235-0.475,0.445-0.626,0.715
				c-0.172,0.252-0.351,0.485-0.445,0.747c-0.26,0.494-0.368,0.953-0.468,1.332c-0.109,0.377-0.087,0.73-0.12,0.944
				c-0.019,0.222-0.028,0.34-0.028,0.34L70.795,41.627z"/>
		</g>
	</g>
	<g>
		
			<ellipse transform="matrix(0.9988 -0.048 0.048 0.9988 -2.1315 1.0318)" fill="#757575" cx="20.402" cy="44.864" rx="3.019" ry="3.891"/>
		<path fill="#636363" d="M22.032,48.409c-0.462,0.425-1.017,0.687-1.623,0.715c-1.775,0.086-3.311-1.805-3.427-4.225
			c-0.044-0.911,0.12-1.764,0.436-2.482c0.113,0.386,0.27,0.754,0.444,1.11C18.301,45.779,19.709,47.786,22.032,48.409z"/>
		<path fill="#B5B5B5" d="M17.436,42.872c-0.056,0.003-0.106,0.011-0.162,0.017c0.528-1.142,1.486-1.925,2.619-1.979
			c1.793-0.086,3.334,1.686,3.443,3.958c0.026,0.551-0.036,1.079-0.168,1.565C22.314,44.338,20.385,42.73,17.436,42.872z"/>
		<g>
			<path d="M23.35,44.743c0,0-0.012-0.09-0.034-0.258c-0.033-0.16-0.029-0.434-0.128-0.71c-0.09-0.278-0.19-0.615-0.407-0.975
				c-0.193-0.36-0.481-0.735-0.861-1.043c-0.171-0.183-0.421-0.26-0.633-0.406c-0.249-0.051-0.486-0.201-0.757-0.176
				c-0.113-0.001-0.309-0.021-0.357-0.014c-0.156,0.032-0.315,0.065-0.476,0.098c-0.185,0.018-0.243,0.116-0.373,0.162
				c-0.114,0.05-0.23,0.106-0.341,0.214c-0.483,0.327-0.82,0.881-1.067,1.458c-0.272,0.582-0.301,1.258-0.311,1.907
				c0.05,0.259,0.051,0.743,0.159,0.993l0.127,0.442l0.207,0.433c0.3,0.55,0.693,1.065,1.203,1.345
				c0.498,0.286,1.048,0.438,1.593,0.303l0.23-0.034l0.165-0.074c0.11-0.046,0.219-0.092,0.326-0.136
				c0.196-0.166,0.436-0.266,0.588-0.464c0.347-0.343,0.596-0.742,0.753-1.119c0.179-0.374,0.249-0.729,0.311-1.023
				c0.068-0.292,0.045-0.533,0.066-0.693c0.01-0.162,0.016-0.248,0.016-0.248L23.35,44.743z M23.854,44.692v0.006
				c0,0,0,0.095-0.001,0.273c-0.012,0.177,0.024,0.443-0.032,0.773c-0.05,0.332-0.109,0.737-0.289,1.177
				c-0.159,0.442-0.42,0.925-0.822,1.37c-0.175,0.244-0.462,0.405-0.709,0.619c-0.297,0.137-0.685,0.37-0.968,0.39
				c-0.668,0.203-1.5,0.049-2.173-0.312c-0.708-0.352-1.235-0.984-1.613-1.67l-0.263-0.534l-0.181-0.594
				c-0.142-0.433-0.12-0.693-0.196-1.146c0.017-0.789,0.077-1.599,0.42-2.322c0.31-0.72,0.78-1.396,1.448-1.814
				c0.145-0.123,0.331-0.212,0.528-0.288c0.183-0.065,0.4-0.186,0.549-0.187c0.162-0.024,0.322-0.048,0.48-0.072
				c0.269-0.021,0.389,0.023,0.586,0.034c0.364,0.003,0.672,0.195,0.984,0.295c0.265,0.189,0.565,0.322,0.762,0.548
				c0.44,0.403,0.745,0.859,0.944,1.283c0.219,0.416,0.32,0.825,0.401,1.158c0.084,0.331,0.078,0.567,0.111,0.739
				c0.021,0.169,0.032,0.259,0.032,0.259L23.854,44.692z"/>
		</g>
	</g>
	<g>
		<path d="M35.696,49.642c0,0-0.335-0.569-0.578-1.431c-0.264-0.862-0.437-2.017-0.438-3.177c-0.021-1.16,0.103-2.324,0.287-3.2
			c0.171-0.876,0.423-1.464,0.422-1.464s0.29,0.571,0.518,1.433c0.241,0.862,0.442,2.016,0.497,3.175
			c0.076,1.158-0.021,2.321-0.228,3.198C35.993,49.052,35.695,49.642,35.696,49.642z"/>
	</g>
	<g>
		<path d="M44.504,50.416c0,0-0.335-0.723-0.578-1.814c-0.264-1.091-0.437-2.55-0.438-4.014c-0.022-1.463,0.103-2.93,0.287-4.032
			c0.172-1.103,0.423-1.841,0.423-1.841s0.29,0.724,0.518,1.816c0.242,1.091,0.442,2.55,0.497,4.012
			c0.076,1.461-0.021,2.928-0.228,4.031C44.802,49.676,44.504,50.416,44.504,50.416z"/>
	</g>
	<g>
		<path d="M30.064,48.291c0,0-0.195-0.39-0.343-0.971c-0.069-0.291-0.146-0.629-0.194-0.991c-0.055-0.362-0.083-0.748-0.098-1.133
			c-0.001-0.385-0.023-0.77,0.024-1.129c0.036-0.36,0.136-0.694,0.233-0.98c0.207-0.572,0.536-0.948,0.536-0.948
			s0.31,0.393,0.486,0.975c0.083,0.291,0.165,0.629,0.182,0.991c0.029,0.361-0.013,0.745-0.034,1.129
			c-0.035,0.384-0.083,0.767-0.157,1.126c-0.066,0.359-0.16,0.693-0.245,0.98C30.279,47.911,30.064,48.291,30.064,48.291z"/>
	</g>
	<g>
		<path d="M25.79,47.216c0,0-0.195-0.258-0.343-0.64c-0.069-0.191-0.146-0.414-0.193-0.65c-0.055-0.237-0.083-0.489-0.098-0.74
			c-0.001-0.251-0.023-0.502,0.024-0.735c0.036-0.234,0.136-0.449,0.233-0.633c0.207-0.368,0.536-0.605,0.536-0.605
			s0.31,0.263,0.486,0.646c0.083,0.191,0.165,0.414,0.183,0.65c0.029,0.236-0.013,0.485-0.034,0.735
			c-0.035,0.25-0.083,0.498-0.157,0.73c-0.066,0.232-0.16,0.448-0.245,0.632C26.005,46.974,25.79,47.216,25.79,47.216z"/>
	</g>
	<g>
		<path d="M62.574,47.641c0,0-0.216-0.379-0.393-0.952c-0.084-0.287-0.179-0.621-0.244-0.98c-0.074-0.359-0.122-0.742-0.157-1.126
			c-0.021-0.384-0.063-0.768-0.034-1.129c0.018-0.361,0.101-0.7,0.183-0.991c0.177-0.582,0.486-0.975,0.486-0.975
			s0.329,0.376,0.536,0.948c0.098,0.286,0.197,0.62,0.233,0.98c0.047,0.359,0.025,0.745,0.024,1.129
			c-0.016,0.385-0.043,0.771-0.099,1.133c-0.047,0.362-0.124,0.701-0.193,0.991C62.77,47.251,62.574,47.641,62.574,47.641z"/>
	</g>
	<g>
		<path d="M52.746,48.781c0,0-0.335-0.585-0.578-1.472c-0.265-0.886-0.438-2.073-0.438-3.265c-0.022-1.192,0.103-2.388,0.287-3.289
			c0.171-0.899,0.423-1.504,0.422-1.504s0.29,0.587,0.518,1.474c0.241,0.887,0.442,2.073,0.497,3.263
			c0.076,1.19-0.02,2.386-0.227,3.287C53.043,48.175,52.745,48.781,52.746,48.781z"/>
	</g>
</g>
</svg>
