<?xml version="1.0" encoding="utf-8"?>
<!-- Generator: Adobe Illustrator 16.0.0, SVG Export Plug-In . SVG Version: 6.00 Build 0)  -->
<!DOCTYPE svg PUBLIC "-//W3C//DTD SVG 1.1//EN" "http://www.w3.org/Graphics/SVG/1.1/DTD/svg11.dtd">
<svg version="1.1" id="Layer_1" xmlns="http://www.w3.org/2000/svg" xmlns:xlink="http://www.w3.org/1999/xlink" x="0px" y="0px"
	 width="18.883px" height="18.652px" viewBox="0 0 18.883 18.652" enable-background="new 0 0 18.883 18.652" xml:space="preserve">
<g>
	<g>
		<g>
			<path fill="#636363" d="M9.321,4.177c1.242,0.497,7.156,2.174,8.225,3.314c1.384,1.483-1.264,4.982-2.09,6.052"/>
			<path d="M9.708,3.177c1.104,0.51,2.396,0.973,3.619,1.442c1.233,0.496,2.47,0.946,3.725,1.603
				c0.316,0.181,0.625,0.343,0.984,0.685L18.1,6.971l0.073,0.088l0.075,0.097c0.076,0.112,0.178,0.264,0.218,0.369
				c0.112,0.229,0.16,0.465,0.196,0.692c0.104,0.914-0.162,1.639-0.407,2.313c-0.53,1.338-1.263,2.496-1.948,3.674l-1.701-1.313
				c0.903-0.896,1.692-1.904,2.213-2.974c0.257-0.524,0.4-1.1,0.356-1.5c-0.022-0.093-0.038-0.183-0.077-0.245
				c-0.021-0.049-0.022-0.026-0.027-0.057L16.991,8.02c0.002,0.003-0.062-0.07-0.005-0.007l-0.022-0.02
				c-0.116-0.112-0.387-0.275-0.644-0.406c-1.077-0.548-2.325-0.965-3.561-1.337c-1.25-0.396-2.472-0.682-3.828-1.07L9.708,3.177z"
				/>
		</g>
		<g>
			<path fill="#757575" d="M14.604,7.829c-0.994-1.268-2.086-2.421-3.01-3.744C9.708,1.383,5.428-0.04,3.237,3.061
				C1.226,5.906,0.712,9.91,1.747,13.213c0.307,0.978,0.755,1.97,1.289,2.845c0.996,1.625,3.023,1.821,4.727,1.856
				c1.732,0.031,3.559-0.143,5.18-0.779c1.717-0.678,3.008-1.84,2.982-3.805c-0.01-0.713-0.533-3.242-0.672-3.999"/>
			<path d="M14.604,7.829c-0.996-0.495-1.74-1.144-2.439-1.898c-0.344-0.382-0.688-0.766-1.016-1.177
				c-0.324-0.411-0.592-0.71-0.933-0.999C8.897,2.597,7.01,2.003,5.612,2.495C4.911,2.759,4.383,3.207,3.913,3.977
				C3.423,4.734,3.06,5.55,2.782,6.429c-0.545,1.742-0.674,3.648-0.336,5.451c0.16,0.906,0.439,1.795,0.822,2.644
				c0.188,0.412,0.417,0.873,0.635,1.207c0.205,0.303,0.448,0.539,0.795,0.742c0.678,0.396,1.59,0.571,2.539,0.639
				c0.965,0.07,1.936,0.078,2.887-0.014c0.949-0.091,1.886-0.279,2.756-0.617c0.853-0.336,1.656-0.822,2.074-1.558
				c0.207-0.362,0.302-0.771,0.345-1.19c0.012-0.215,0.026-0.428,0.012-0.629l-0.041-0.724c-0.059-0.989-0.115-2.008-0.014-3.05
				c0.479,0.932,0.821,1.886,1.084,2.878c0.067,0.25,0.12,0.502,0.165,0.771c0.043,0.295,0.04,0.588,0.005,0.873
				c-0.058,0.58-0.271,1.151-0.57,1.653c-0.631,1.007-1.582,1.693-2.572,2.127c-0.984,0.443-2.027,0.707-3.07,0.861
				c-1.044,0.154-2.09,0.197-3.133,0.178c-1.047-0.026-2.184-0.135-3.29-0.692c-0.541-0.269-1.071-0.713-1.447-1.23
				c-0.351-0.494-0.586-0.932-0.84-1.42c-0.489-0.963-0.87-1.988-1.108-3.055c-0.457-2.142-0.344-4.367,0.264-6.471
				C1.039,4.758,1.526,3.73,2.129,2.801c0.553-0.95,1.61-1.938,2.839-2.285c1.227-0.382,2.509-0.26,3.59,0.156
				c1.092,0.41,2.057,1.054,2.826,1.88c0.388,0.408,0.732,0.909,0.986,1.319c0.256,0.409,0.541,0.81,0.828,1.21
				C13.773,5.881,14.355,6.745,14.604,7.829z"/>
		</g>
	</g>
	<path fill="#B5B5B5" d="M15.213,10.701c-0.001,0-4.886,5.963-12.405,2.641c0,0,0.439,2.789,2.415,3.396c0,0,2.039,0.879,5.778,0.25
		c1.021-0.172,1.985-0.473,2.879-1.006c0.386-0.23,0.888-0.498,1.115-0.904c0.243-0.434,0.336-1.021,0.383-1.51
		c0.056-0.56,0.029-1.123-0.024-1.685c-0.023-0.25-0.054-0.502-0.1-0.75C15.236,11.041,15.236,11.041,15.213,10.701z"/>
</g>
</svg>
