<?xml version="1.0" encoding="utf-8"?>
<!-- Generator: Adobe Illustrator 16.0.0, SVG Export Plug-In . SVG Version: 6.00 Build 0)  -->
<!DOCTYPE svg PUBLIC "-//W3C//DTD SVG 1.1//EN" "http://www.w3.org/Graphics/SVG/1.1/DTD/svg11.dtd">
<svg version="1.1" id="Layer_1" xmlns="http://www.w3.org/2000/svg" xmlns:xlink="http://www.w3.org/1999/xlink" x="0px" y="0px"
	 width="21.813px" height="41.154px" viewBox="0 0 21.813 41.154" enable-background="new 0 0 21.813 41.154" xml:space="preserve">
<g id="g3_1_">
	<g id="g5_1_">
		<g id="g7_1_">
			<g id="g9_1_">
				<g id="g11_1_">
					<path id="path13_1_" fill="#424242" d="M16.234,29.858c-0.394,8.732-0.274,6.455-7.265,6.143
						C1.98,35.688,4.607,38.161,5,29.428c0.393-8.734-3.103-14.154,3.883-13.84C15.875,15.902,16.624,21.126,16.234,29.858z"/>
					<path id="path67_2_" fill="#5E5D5E" d="M16.064,34.378c-1.237-2.965-11.522-1.779-11.521-1.779
						c0-7.135,5.354-6.678,5.354-6.678C16.836,25.134,16.064,34.378,16.064,34.378L16.064,34.378z"/>
					<g id="g16_1_">
						<path id="path18_1_" d="M16.764,29.885c-0.051,1.242-0.088,2.482-0.186,3.748c-0.051,0.639-0.093,1.271-0.296,1.973
							c-0.105,0.342-0.271,0.75-0.651,1.074c-0.39,0.326-0.859,0.42-1.227,0.447c-0.742,0.045-1.355-0.047-1.98-0.102
							c-0.62-0.061-1.229-0.119-1.836-0.156c-1.213-0.08-2.431-0.092-3.627-0.014c-0.604,0.037-1.183,0.105-1.834,0.172
							c-0.171,0.014-0.343,0.029-0.589,0.021c-0.129-0.01-0.282-0.016-0.524-0.105c-0.237-0.066-0.601-0.393-0.698-0.693
							c-0.185-0.566-0.084-0.742-0.084-0.955l0.082-0.521c0.231-1.229,0.393-2.379,0.5-3.588c0.211-2.4,0.188-4.813-0.033-7.254
							c-0.086-1.229-0.226-2.461-0.274-3.762c-0.015-0.65-0.015-1.321,0.093-2.036c0.107-0.701,0.35-1.522,0.954-2.175
							c0.601-0.656,1.416-0.958,2.117-1.085c0.717-0.132,1.399-0.136,2.058-0.102c1.272,0.07,2.677,0.302,3.908,0.906
							c1.258,0.592,2.313,1.657,2.919,2.871c0.618,1.21,0.918,2.502,1.088,3.773C16.956,24.874,16.88,27.385,16.764,29.885z
							 M15.693,29.835c0.085-2.469,0.161-4.955-0.218-7.34c-0.188-1.184-0.494-2.348-1.063-3.326
							c-0.557-0.983-1.381-1.738-2.396-2.171c-0.507-0.22-1.05-0.366-1.611-0.464c-0.285-0.05-0.567-0.082-0.845-0.104
							c-0.276-0.02-0.649-0.04-0.892-0.04c-1.143-0.017-2.348,0.177-2.787,0.765C5.4,17.704,5.37,18.91,5.466,20.072
							c0.084,1.185,0.25,2.421,0.383,3.671c0.26,2.506,0.355,5.09,0.072,7.645c-0.113,1.268-0.363,2.574-0.646,3.777l-0.082,0.4
							c-0.037,0.094,0.014,0.236-0.063-0.033c-0.043-0.152-0.285-0.361-0.379-0.377c-0.097-0.041-0.093-0.023-0.07-0.021
							c0.065,0.014,0.203,0.018,0.347,0.014c0.588-0.021,1.254-0.051,1.892-0.041c1.286,0.01,2.562,0.109,3.82,0.268
							c1.242,0.135,2.556,0.455,3.603,0.484c0.515-0.023,0.604-0.102,0.816-0.621c0.166-0.492,0.245-1.104,0.312-1.703
							C15.581,32.321,15.632,31.073,15.693,29.835z"/>
					</g>
				</g>
			</g>
			<g id="g20_1_">
				<path id="path22_1_" fill="#757575" d="M19.642,20.008c-0.596,13.308-0.417,9.839-11.068,9.358
					c-10.652-0.479-6.647,3.295-6.049-10.017C3.125,6.035-2.205,2.773,8.445,3.253C19.098,3.731,20.238,6.69,19.642,20.008z"/>
				<path id="path24_1_" fill="#636363" d="M19.146,27.229l-0.768,2.896h-2.727l-7.836-0.727l-6.484-0.23H0.73l0.848-1.992
					l0.793-5.455c2.64,6.205,16.008,4.314,16.008,4.314L19.146,27.229z"/>
				<path fill="#636363" d="M19.085,17.233l0.496,2.775l-0.496,1.714c0,0-2.729-4.521-16.579-3.796L2.303,16.34
					C2.303,16.34,9.933,12.233,19.085,17.233z"/>
				<g id="g26_1_">
					<path id="path28_1_" d="M21.063,20.066c-0.12,1.537-0.234,3.072-0.387,4.634c-0.078,0.781-0.165,1.563-0.3,2.377
						c-0.154,0.813-0.287,1.646-0.827,2.6c-0.268,0.471-0.772,0.973-1.351,1.199c-0.57,0.234-1.089,0.26-1.543,0.26
						c-0.902-0.023-1.667-0.172-2.438-0.295c-1.524-0.252-3.013-0.496-4.523-0.648c-1.513-0.17-3.025-0.219-4.541-0.195
						c-0.758,0.014-1.512,0.057-2.289,0.098c-0.408,0.004-0.756,0.063-1.342-0.059c-0.148-0.041-0.352-0.117-0.523-0.299
						c-0.17-0.182-0.246-0.406-0.27-0.563c-0.05-0.324-0.012-0.539,0.014-0.754c0.291-1.598,0.562-3.031,0.666-4.563
						c0.104-1.516,0.111-3.039-0.053-4.56L1.35,19.306c0.149-2.206,0.136,0.595-0.021-1.625C1.2,15.46,0.87,13.25,0.684,10.953
						C0.597,9.804,0.531,8.631,0.656,7.377C0.72,6.75,0.841,6.097,1.095,5.44c0.246-0.656,0.666-1.311,1.223-1.827
						c1.145-1.039,2.543-1.358,3.766-1.509c1.256-0.138,2.422-0.1,3.625,0.002c2.366,0.212,4.928,0.916,6.931,2.646
						c2.018,1.717,3.104,4.164,3.688,6.478c0.585,2.343,0.79,4.681,0.866,6.986C21.28,20.52,21.18,17.802,21.063,20.066z
						 M18.223,19.94c0.097-4.442,0.324-3.947-0.579-8.057c-0.467-2.03-1.306-3.902-2.729-5.162
						c-1.405-1.277-3.379-1.922-5.464-2.155C8.415,4.453,7.318,4.404,6.333,4.496C5.343,4.59,4.441,4.848,3.892,5.343
						c-0.551,0.476-0.859,1.296-0.979,2.29c-0.121,0.985-0.09,2.072-0.027,3.165c0.311,4.401,0.92,3.999,0.811,8.596v-0.025
						l-0.006,0.033l-0.846,4.644l-0.467,2.301c-0.164,0.752-0.367,1.535-0.473,2.23c-0.023,0.166-0.033,0.338-0.021,0.395
						c0.006,0.029,0.002-0.004-0.035-0.045c-0.04-0.039-0.057-0.031-0.023-0.021c0.17,0.041,0.605,0.008,0.959-0.021
						c0.76-0.072,1.541-0.146,2.322-0.188c1.561-0.084,3.127-0.064,4.689-0.021c1.563,0.053,3.132,0.195,4.657,0.346
						c0.756,0.066,1.522,0.133,2.16,0.092c0.314-0.02,0.577-0.082,0.713-0.164c0.134-0.082,0.195-0.156,0.298-0.361
						c0.198-0.408,0.312-1.133,0.381-1.832c0.07-0.719,0.107-1.469,0.133-2.223C18.189,23.018,18.2,21.479,18.223,19.94z"/>
				</g>
			</g>
		</g>
	</g>
	<path id="path30_1_" fill="#B5B5B5" d="M18.278,15.128c0-0.008,0.771-6.318-4.48-9.184c0,0-2.168-1.983-8.489-1.286
		c0,0-1.616,0.294-1.912,1.285C3.298,6.271,3.533,6.789,3.722,7.031c0.299,0.378,1.291,0.393,1.728,0.455
		c0.765,0.11,1.533,0.179,2.302,0.253c1.006,0.1,1.953,0.435,2.89,0.799c2.646,1.033,4.969,2.824,6.318,5.376
		c0.458,0.865,0.745,1.803,0.927,2.761C18.088,17.747,18.352,14.034,18.278,15.128z"/>
</g>
<g>
	<path d="M2.021,16.216c-0.013,0.012,0.238-0.218,0.677-0.506c0.225-0.134,0.494-0.315,0.82-0.479
		c0.32-0.182,0.697-0.352,1.117-0.518c0.418-0.167,0.884-0.322,1.384-0.453c0.501-0.128,1.035-0.254,1.597-0.312
		c0.559-0.099,1.142-0.111,1.735-0.131c0.592-0.005,1.193,0.038,1.792,0.084c0.59,0.102,1.188,0.171,1.761,0.303
		c0.566,0.158,1.13,0.292,1.656,0.472c0.518,0.202,1.018,0.398,1.491,0.583c0.462,0.209,0.879,0.448,1.271,0.648
		c0.794,0.384,1.362,0.86,1.795,1.126c0.419,0.29,0.651,0.463,0.651,0.463l-0.523,0.852c0,0-0.264-0.103-0.711-0.298
		c-0.222-0.1-0.491-0.22-0.8-0.358c-0.303-0.15-0.663-0.273-1.05-0.417c-0.385-0.144-0.801-0.3-1.241-0.466
		c-0.448-0.134-0.92-0.275-1.407-0.421c-0.488-0.139-1.005-0.224-1.52-0.348c-0.518-0.11-1.052-0.158-1.58-0.244
		c-0.532-0.023-1.064-0.093-1.589-0.092c-0.523,0.017-1.042-0.009-1.538,0.05c-0.999,0.06-1.917,0.243-2.701,0.422
		c-0.781,0.194-1.422,0.403-1.859,0.578c-0.438,0.178-0.654,0.274-0.667,0.286L2.021,16.216z"/>
</g>
<ellipse cx="15.093" cy="13.274" rx="0.354" ry="0.458"/>
<ellipse cx="10.906" cy="12.357" rx="0.354" ry="0.458"/>
<ellipse cx="5.802" cy="12.816" rx="0.354" ry="0.458"/>
</svg>
