<?xml version="1.0" encoding="UTF-8" standalone="no"?>
<!-- Created with Inkscape (http://www.inkscape.org/) -->

<svg
   xmlns:dc="http://purl.org/dc/elements/1.1/"
   xmlns:cc="http://creativecommons.org/ns#"
   xmlns:rdf="http://www.w3.org/1999/02/22-rdf-syntax-ns#"
   xmlns:svg="http://www.w3.org/2000/svg"
   xmlns="http://www.w3.org/2000/svg"
   xmlns:sodipodi="http://sodipodi.sourceforge.net/DTD/sodipodi-0.dtd"
   xmlns:inkscape="http://www.inkscape.org/namespaces/inkscape"
   version="1.1"
   width="120"
   height="160"
   viewBox="0 0 120 160"
   id="Layer_1"
   xml:space="preserve"
   inkscape:version="0.48.2 r9819"
   sodipodi:docname="tree.svg"><sodipodi:namedview
   pagecolor="#ffffff"
   bordercolor="#666666"
   borderopacity="1"
   objecttolerance="10"
   gridtolerance="10"
   guidetolerance="10"
   inkscape:pageopacity="0"
   inkscape:pageshadow="2"
   inkscape:window-width="1920"
   inkscape:window-height="1032"
   id="namedview196"
   showgrid="false"
   inkscape:zoom="2.95"
   inkscape:cx="30"
   inkscape:cy="135.36361"
   inkscape:window-x="0"
   inkscape:window-y="0"
   inkscape:window-maximized="0"
   inkscape:current-layer="Layer_1" /><metadata
   id="metadata25"><rdf:RDF><cc:Work
       rdf:about=""><dc:format>image/svg+xml</dc:format><dc:type
         rdf:resource="http://purl.org/dc/dcmitype/StillImage" /><dc:title /></cc:Work></rdf:RDF></metadata><defs
   id="defs23"><clipPath
     id="clipPath7498"><path
       d="m 298.423,525.068 c -0.285,-0.188 -0.534,-0.46 -0.709,-0.792 l 0,0 c -0.322,-0.61 -0.359,-1.353 -0.103,-1.934 l 0,0 c 0.274,-0.621 0.844,-0.996 1.472,-0.975 l 0,0 c 0.307,0.009 0.61,0.112 0.877,0.29 l 0,0 c 0.537,0.351 0.91,0.995 0.974,1.682 l 0,0 c 0.034,0.374 -0.026,0.734 -0.163,1.042 l 0,0 c -0.128,0.296 -0.325,0.544 -0.579,0.717 l 0,0 c -0.251,0.172 -0.543,0.258 -0.842,0.258 l 0,0 c -0.314,0 -0.636,-0.096 -0.927,-0.288"
       id="path7500"
       inkscape:connector-curvature="0" /></clipPath><clipPath
     id="clipPath7460"><path
       d="m 298.977,521.637 c -0.002,-0.38 -0.005,-0.761 -0.007,-1.14 l 0,0 c -0.003,-0.338 -0.004,-0.674 -0.006,-1.012 l 0,0 c 0.159,0.018 0.317,0.036 0.478,0.053 l 0,0 0.005,1.009 c 0.003,0.381 0.005,0.761 0.007,1.141 l 0,0 c -0.159,-0.017 -0.318,-0.035 -0.477,-0.051"
       id="path7462"
       inkscape:connector-curvature="0" /></clipPath><clipPath
     id="clipPath7344"><path
       d="m 293.033,532.373 c -0.39,-0.259 -0.74,-0.606 -1.023,-1.025 l 0,0 c -0.289,-0.427 -0.514,-0.93 -0.645,-1.489 l 0,0 c -0.262,-1.113 -0.117,-2.249 0.329,-3.187 l 0,0 c 0.451,-0.95 1.213,-1.698 2.171,-2.02 l 0,0 c 0.434,-0.145 0.874,-0.19 1.3,-0.145 l 0,0 c 0.51,0.053 0.998,0.236 1.434,0.526 l 0,0 c 0.79,0.525 1.407,1.404 1.669,2.515 l 0,0 c 0.132,0.565 0.16,1.131 0.098,1.677 l 0,0 c -0.061,0.534 -0.208,1.045 -0.428,1.509 l 0,0 c -0.247,0.52 -0.583,0.976 -0.997,1.339 l 0,0 c -0.343,0.3 -0.737,0.536 -1.172,0.681 l 0,0 c -0.329,0.11 -0.66,0.163 -0.985,0.163 l 0,0 c -0.623,0 -1.226,-0.194 -1.751,-0.544"
       id="path7346"
       inkscape:connector-curvature="0" /></clipPath><clipPath
     id="clipPath7242"><path
       d="m 295.255,525.119 c -0.225,-0.017 -0.449,-0.033 -0.674,-0.049 l 0,0 c 0.032,-0.627 0.062,-1.253 0.094,-1.88 l 0,0 c 0.025,-0.493 0.05,-0.987 0.074,-1.479 l 0,0 c 0.223,0.016 0.449,0.032 0.673,0.048 l 0,0 c 0.1,0.008 0.202,0.014 0.302,0.021 l 0,0 c -0.025,0.494 -0.049,0.987 -0.074,1.479 l 0,0 c -0.032,0.627 -0.063,1.254 -0.095,1.882 l 0,0 c -0.1,-0.008 -0.201,-0.014 -0.3,-0.022"
       id="path7244"
       inkscape:connector-curvature="0" /></clipPath></defs>

<g
   transform="matrix(12.311963,0,0,-11.438888,-3585.1395,6097.5189)"
   id="g7238"><g
     clip-path="url(#clipPath7242)"
     id="g7240"><g
       id="g7246"><g
         transform="scale(1,-1)"
         id="g7248"><g
           id="g7250"><path
             d="m 295.72357,-521.77985 c -0.0503,0.003 -0.10058,0.007 -0.15087,0.0103 -0.0122,-0.24659 -0.0244,-0.49317 -0.0366,-0.73976 0.0503,-0.004 0.10059,-0.007 0.15088,-0.0107 0.0122,0.24659 0.0244,0.49317 0.0366,0.74024 z"
             id="path7252"
             style="fill:#98753b;fill-opacity:1;fill-rule:nonzero;stroke:none"
             inkscape:connector-curvature="0" /><path
             d="m 295.68695,-522.52009 c -0.0122,-0.24609 -0.0244,-0.49219 -0.0366,-0.73877 -0.0249,10e-4 -0.0503,0.003 -0.0757,0.005 0.0127,0.24658 0.0244,0.49268 0.0371,0.73926 0.0249,-10e-4 0.0498,-0.003 0.0752,-0.005 z"
             id="path7254"
             style="fill:#98753b;fill-opacity:1;fill-rule:nonzero;stroke:none"
             inkscape:connector-curvature="0" /><path
             d="m 295.61176,-522.51472 c -0.0254,10e-4 -0.0508,0.003 -0.0757,0.005 -0.006,-0.12304 -0.0122,-0.24658 -0.0181,-0.37012 0.0249,-0.001 0.0498,-0.003 0.0752,-0.005 0.006,0.12305 0.0122,0.2461 0.0186,0.36963 z"
             id="path7256"
             style="fill:#a37d3c;fill-opacity:1;fill-rule:nonzero;stroke:none"
             inkscape:connector-curvature="0" /><path
             d="m 295.5932,-522.88435 c -0.0254,0.002 -0.0503,0.003 -0.0752,0.005 -0.006,-0.12304 -0.0127,-0.24609 -0.0186,-0.36963 0.0254,-0.001 0.0503,-0.003 0.0752,-0.005 0.006,0.12353 0.0127,0.24658 0.0186,0.36963 z"
             id="path7258"
             style="fill:#a9813c;fill-opacity:1;fill-rule:nonzero;stroke:none"
             inkscape:connector-curvature="0" /><path
             d="m 295.5727,-521.76959 c -0.0122,-0.24659 -0.0244,-0.49317 -0.0366,-0.73976 -0.0249,0.002 -0.0503,0.004 -0.0757,0.006 0.0127,0.2461 0.0244,0.49219 0.0371,0.73927 0.0249,-0.002 0.0498,-0.004 0.0752,-0.005 z"
             id="path7260"
             style="fill:#98753b;fill-opacity:1;fill-rule:nonzero;stroke:none"
             inkscape:connector-curvature="0" /><path
             d="m 295.4975,-521.76422 c -0.0254,0.002 -0.0503,0.004 -0.0752,0.006 -0.006,-0.12354 -0.0122,-0.24708 -0.0186,-0.37012 0.0254,-0.002 0.0498,-0.004 0.0752,-0.006 0.006,0.12304 0.0122,0.24658 0.0186,0.37012 z"
             id="path7262"
             style="fill:#98753b;fill-opacity:1;fill-rule:nonzero;stroke:none"
             inkscape:connector-curvature="0" /><path
             d="m 295.47895,-522.13434 c -0.0254,0.002 -0.0498,0.004 -0.0752,0.006 -0.006,-0.12305 -0.0117,-0.2461 -0.0181,-0.36915 0.0249,-0.002 0.0498,-0.004 0.0747,-0.006 0.006,0.12305 0.0127,0.2461 0.0186,0.36915 z"
             id="path7264"
             style="fill:#a9813c;fill-opacity:1;fill-rule:nonzero;stroke:none"
             inkscape:connector-curvature="0" /><path
             d="m 295.53607,-522.50935 c -0.0249,0.002 -0.0503,0.004 -0.0757,0.006 -0.006,-0.12305 -0.0117,-0.24658 -0.0181,-0.37012 0.0249,-0.002 0.0503,-0.004 0.0757,-0.006 0.006,0.12354 0.0117,0.24708 0.0181,0.37012 z"
             id="path7266"
             style="fill:#ae843d;fill-opacity:1;fill-rule:nonzero;stroke:none"
             inkscape:connector-curvature="0" /><path
             d="m 295.51801,-522.87947 c -0.0254,0.002 -0.0508,0.004 -0.0757,0.006 -0.006,-0.12305 -0.0122,-0.24658 -0.0181,-0.37012 0.0249,-0.002 0.0498,-0.004 0.0752,-0.005 0.006,0.12354 0.0122,0.24659 0.0186,0.36963 z"
             id="path7268"
             style="fill:#b68b3d;fill-opacity:1;fill-rule:nonzero;stroke:none"
             inkscape:connector-curvature="0" /><path
             d="m 295.46039,-522.50349 c -0.0249,0.002 -0.0498,0.004 -0.0747,0.006 -0.006,-0.12305 -0.0122,-0.24658 -0.0181,-0.37012 0.0244,-0.002 0.0498,-0.004 0.0747,-0.006 0.006,0.12354 0.0122,0.24707 0.0181,0.37012 z"
             id="path7270"
             style="fill:#b68b3d;fill-opacity:1;fill-rule:nonzero;stroke:none"
             inkscape:connector-curvature="0" /><path
             d="m 295.44232,-522.87361 c -0.0249,0.002 -0.0503,0.004 -0.0747,0.006 -0.006,-0.12305 -0.0127,-0.24658 -0.0186,-0.37012 0.0249,-0.002 0.0498,-0.004 0.0752,-0.006 0.006,0.12354 0.0117,0.24707 0.0181,0.37012 z"
             id="path7272"
             style="fill:#bf923d;fill-opacity:1;fill-rule:nonzero;stroke:none"
             inkscape:connector-curvature="0" /><path
             d="m 295.42231,-521.75836 c -0.0562,0.004 -0.11231,0.008 -0.16846,0.0127 -0.006,-0.12353 -0.0122,-0.24707 -0.0181,-0.37012 0.0557,-0.004 0.11231,-0.009 0.16797,-0.0127 0.006,0.12304 0.0127,0.24658 0.0186,0.37012 z"
             id="path7274"
             style="fill:#98753b;fill-opacity:1;fill-rule:nonzero;stroke:none"
             inkscape:connector-curvature="0" /><path
             d="m 295.40375,-522.12848 c -0.0557,0.004 -0.1123,0.008 -0.16797,0.0127 -0.006,-0.12353 -0.0127,-0.24707 -0.0186,-0.37012 0.0562,-0.004 0.1123,-0.008 0.16845,-0.0117 0.006,0.12305 0.0122,0.2461 0.0181,0.36915 z"
             id="path7276"
             style="fill:#ab833d;fill-opacity:1;fill-rule:nonzero;stroke:none"
             inkscape:connector-curvature="0" /><path
             d="m 295.25385,-521.74567 c -0.0122,-0.24707 -0.0244,-0.49365 -0.0366,-0.74024 -0.0561,0.004 -0.11231,0.008 -0.16846,0.0117 0.0122,0.24707 0.0244,0.49366 0.0366,0.74024 0.0562,-0.004 0.11231,-0.008 0.16846,-0.0117 z"
             id="path7278"
             style="fill:#98753b;fill-opacity:1;fill-rule:nonzero;stroke:none"
             inkscape:connector-curvature="0" /><path
             d="m 295.38568,-522.49763 c -0.0562,0.004 -0.1123,0.008 -0.16845,0.0117 -0.006,-0.12354 -0.0122,-0.24707 -0.0186,-0.37012 0.0566,-0.004 0.11231,-0.008 0.16895,-0.0117 0.006,0.12354 0.0117,0.24707 0.0181,0.37012 z"
             id="path7280"
             style="fill:#b98e3d;fill-opacity:1;fill-rule:nonzero;stroke:none"
             inkscape:connector-curvature="0" /><path
             d="m 295.36762,-522.86775 c -0.0566,0.004 -0.11231,0.008 -0.16895,0.0117 -0.006,-0.12305 -0.0117,-0.24658 -0.0181,-0.37012 0.0562,-0.004 0.1123,-0.008 0.16845,-0.0117 0.006,0.12354 0.0122,0.24707 0.0186,0.37012 z"
             id="path7282"
             style="fill:#c3953d;fill-opacity:1;fill-rule:nonzero;stroke:none"
             inkscape:connector-curvature="0" /><path
             d="m 295.21723,-522.48591 c -0.0561,0.004 -0.11231,0.008 -0.16846,0.0117 -0.006,-0.12354 -0.0122,-0.24707 -0.0181,-0.37012 0.0557,-0.004 0.1123,-0.008 0.16796,-0.0117 0.006,0.12305 0.0127,0.24658 0.0186,0.37012 z"
             id="path7284"
             style="fill:#b68b3d;fill-opacity:1;fill-rule:nonzero;stroke:none"
             inkscape:connector-curvature="0" /><path
             d="m 295.19867,-522.85603 c -0.0557,0.004 -0.1123,0.008 -0.16796,0.0117 -0.006,-0.12354 -0.0127,-0.24707 -0.0186,-0.37012 0.0562,-0.004 0.1123,-0.008 0.16846,-0.0117 0.006,0.12354 0.0122,0.24707 0.0181,0.37012 z"
             id="path7286"
             style="fill:#bf923d;fill-opacity:1;fill-rule:nonzero;stroke:none"
             inkscape:connector-curvature="0" /><path
             d="m 295.08539,-521.73395 c -0.1123,0.008 -0.22461,0.0151 -0.33642,0.023 -0.0122,-0.2461 -0.0244,-0.49268 -0.0366,-0.73878 0.11181,-0.008 0.22412,-0.0166 0.33642,-0.0244 0.0122,0.24707 0.0244,0.49366 0.0366,0.74024 z"
             id="path7288"
             style="fill:#98753b;fill-opacity:1;fill-rule:nonzero;stroke:none"
             inkscape:connector-curvature="0" /><path
             d="m 295.04877,-522.47419 c -0.0562,0.004 -0.1123,0.008 -0.16845,0.0117 -0.006,-0.12305 -0.0122,-0.2461 -0.0186,-0.36963 0.0566,-0.004 0.1123,-0.008 0.16895,-0.0122 0.006,0.12305 0.0117,0.24658 0.0181,0.37012 z"
             id="path7290"
             style="fill:#ae843d;fill-opacity:1;fill-rule:nonzero;stroke:none"
             inkscape:connector-curvature="0" /><path
             d="m 295.03071,-522.84431 c -0.0566,0.004 -0.11231,0.008 -0.16895,0.0122 -0.006,-0.12354 -0.0117,-0.24659 -0.0181,-0.36964 0.0562,-0.004 0.11231,-0.009 0.16846,-0.0127 0.006,0.12305 0.0122,0.24658 0.0186,0.37012 z"
             id="path7292"
             style="fill:#b68b3d;fill-opacity:1;fill-rule:nonzero;stroke:none"
             inkscape:connector-curvature="0" /><path
             d="m 294.88032,-522.46247 c -0.0122,-0.2461 -0.0244,-0.49317 -0.0366,-0.73927 -0.0562,0.004 -0.1123,0.008 -0.16845,0.0127 0.0122,0.2461 0.0244,0.49268 0.0371,0.73926 0.0557,-0.004 0.11181,-0.008 0.16797,-0.0127 z"
             id="path7294"
             style="fill:#a37d3c;fill-opacity:1;fill-rule:nonzero;stroke:none"
             inkscape:connector-curvature="0" /><path
             d="m 295.65033,-523.25886 c -0.0161,-0.31348 -0.0317,-0.62696 -0.0474,-0.94093 -0.0254,0.002 -0.0503,0.004 -0.0752,0.005 0.0156,0.31348 0.0312,0.62696 0.0469,0.94044 0.0254,-10e-4 0.0508,-0.003 0.0757,-0.005 z"
             id="path7296"
             style="fill:#98753b;fill-opacity:1;fill-rule:nonzero;stroke:none"
             inkscape:connector-curvature="0" /><path
             d="m 295.57465,-523.25398 c -0.0249,10e-4 -0.0498,0.003 -0.0752,0.005 -0.008,-0.15674 -0.0161,-0.31397 -0.0244,-0.47071 0.0254,-10e-4 0.0508,-0.003 0.0762,-0.004 0.008,0.15674 0.0156,0.31348 0.0234,0.47022 z"
             id="path7298"
             style="fill:#ab833d;fill-opacity:1;fill-rule:nonzero;stroke:none"
             inkscape:connector-curvature="0" /><path
             d="m 295.55121,-523.7242 c -0.0254,10e-4 -0.0508,0.003 -0.0762,0.004 -0.008,-0.15674 -0.0156,-0.31299 -0.0234,-0.46973 0.0254,-10e-4 0.0508,-0.003 0.0762,-0.005 0.008,0.15674 0.0156,0.31348 0.0234,0.47022 z"
             id="path7300"
             style="fill:#a9813c;fill-opacity:1;fill-rule:nonzero;stroke:none"
             inkscape:connector-curvature="0" /><path
             d="m 295.60297,-524.19979 c -0.0503,0.004 -0.10059,0.007 -0.15137,0.0103 -0.0156,-0.31299 -0.0312,-0.62647 -0.0469,-0.93995 0.0503,-0.003 0.10058,-0.007 0.15039,-0.0107 0.0161,0.31348 0.0317,0.62696 0.0479,0.94044 z"
             id="path7302"
             style="fill:#98753b;fill-opacity:1;fill-rule:nonzero;stroke:none"
             inkscape:connector-curvature="0" /><path
             d="m 295.49945,-523.2491 c -0.0254,10e-4 -0.0503,0.003 -0.0752,0.005 -0.008,-0.15674 -0.0166,-0.31348 -0.0244,-0.47022 0.0254,-0.002 0.0508,-0.004 0.0752,-0.006 0.008,0.15674 0.0166,0.31397 0.0244,0.47071 z"
             id="path7304"
             style="fill:#b98e3d;fill-opacity:1;fill-rule:nonzero;stroke:none"
             inkscape:connector-curvature="0" /><path
             d="m 295.47504,-523.71981 c -0.0244,0.002 -0.0498,0.004 -0.0752,0.006 -0.008,-0.15674 -0.0156,-0.31348 -0.0234,-0.47022 0.0254,-0.002 0.0503,-0.004 0.0752,-0.005 0.008,0.15674 0.0156,0.31299 0.0234,0.46973 z"
             id="path7306"
             style="fill:#b68b3d;fill-opacity:1;fill-rule:nonzero;stroke:none"
             inkscape:connector-curvature="0" /><path
             d="m 295.42426,-523.24373 c -0.0254,0.002 -0.0503,0.004 -0.0752,0.006 -0.008,-0.15674 -0.0166,-0.31348 -0.0244,-0.47022 0.0254,-0.002 0.0498,-0.004 0.0752,-0.006 0.008,0.15674 0.0161,0.31348 0.0244,0.47022 z"
             id="path7308"
             style="fill:#c3953d;fill-opacity:1;fill-rule:nonzero;stroke:none"
             inkscape:connector-curvature="0" /><path
             d="m 295.39984,-523.71395 c -0.0254,0.002 -0.0498,0.004 -0.0752,0.006 -0.008,-0.15674 -0.0156,-0.31348 -0.0234,-0.47022 0.0249,-0.002 0.0498,-0.004 0.0752,-0.006 0.008,0.15674 0.0156,0.31348 0.0234,0.47022 z"
             id="path7310"
             style="fill:#bf923d;fill-opacity:1;fill-rule:nonzero;stroke:none"
             inkscape:connector-curvature="0" /><path
             d="m 295.4516,-524.18954 c -0.0156,-0.31299 -0.0312,-0.62647 -0.0469,-0.93995 -0.0254,0.002 -0.0503,0.003 -0.0752,0.005 0.0156,0.31396 0.0312,0.62696 0.0469,0.94043 0.0254,-0.002 0.0503,-0.004 0.0752,-0.005 z"
             id="path7312"
             style="fill:#ae843d;fill-opacity:1;fill-rule:nonzero;stroke:none"
             inkscape:connector-curvature="0" /><path
             d="m 295.37641,-524.18417 c -0.0254,0.002 -0.0503,0.004 -0.0752,0.006 -0.008,-0.15674 -0.0156,-0.31348 -0.0234,-0.47022 0.0254,-0.002 0.0498,-0.004 0.0752,-0.005 0.008,0.15626 0.0156,0.31299 0.0234,0.46973 z"
             id="path7314"
             style="fill:#b68b3d;fill-opacity:1;fill-rule:nonzero;stroke:none"
             inkscape:connector-curvature="0" /><path
             d="m 295.35297,-524.6539 c -0.0254,10e-4 -0.0498,0.003 -0.0752,0.005 -0.008,-0.15673 -0.0156,-0.31347 -0.0229,-0.47021 0.0249,-0.002 0.0498,-0.004 0.0747,-0.006 0.008,0.15722 0.0156,0.31396 0.0234,0.4707 z"
             id="path7316"
             style="fill:#a9813c;fill-opacity:1;fill-rule:nonzero;stroke:none"
             inkscape:connector-curvature="0" /><path
             d="m 295.34906,-523.23787 c -0.0562,0.004 -0.1123,0.008 -0.16845,0.0117 -0.008,-0.15674 -0.0161,-0.31348 -0.0239,-0.47022 0.0557,-0.004 0.11231,-0.008 0.16797,-0.0117 0.008,0.15674 0.0161,0.31348 0.0244,0.47022 z"
             id="path7318"
             style="fill:#c6973d;fill-opacity:1;fill-rule:nonzero;stroke:none"
             inkscape:connector-curvature="0" /><path
             d="m 295.32465,-523.70809 c -0.0557,0.004 -0.1123,0.008 -0.16797,0.0117 -0.008,-0.15674 -0.0161,-0.31348 -0.0239,-0.47022 0.0562,-0.004 0.1123,-0.008 0.16845,-0.0117 0.008,0.15674 0.0156,0.31348 0.0234,0.47022 z"
             id="path7320"
             style="fill:#c3953d;fill-opacity:1;fill-rule:nonzero;stroke:none"
             inkscape:connector-curvature="0" /><path
             d="m 295.18061,-523.22615 c -0.0562,0.004 -0.11231,0.008 -0.16846,0.0117 -0.008,-0.15674 -0.0166,-0.31348 -0.0244,-0.46973 0.0566,-0.004 0.1123,-0.008 0.16894,-0.0122 0.008,0.15674 0.0156,0.31348 0.0239,0.47022 z"
             id="path7322"
             style="fill:#c3953d;fill-opacity:1;fill-rule:nonzero;stroke:none"
             inkscape:connector-curvature="0" /><path
             d="m 295.15668,-523.69637 c -0.0566,0.004 -0.1123,0.008 -0.16894,0.0122 -0.008,-0.15674 -0.0156,-0.31348 -0.0234,-0.46973 0.0562,-0.004 0.1123,-0.009 0.16846,-0.0127 0.008,0.15674 0.0156,0.31348 0.0239,0.47022 z"
             id="path7324"
             style="fill:#bf923d;fill-opacity:1;fill-rule:nonzero;stroke:none"
             inkscape:connector-curvature="0" /><path
             d="m 295.30121,-524.17831 c -0.0562,0.004 -0.1123,0.008 -0.16845,0.0117 -0.008,-0.15625 -0.0156,-0.31299 -0.0234,-0.46973 0.0562,-0.004 0.11279,-0.008 0.16845,-0.0122 0.008,0.15674 0.0156,0.31348 0.0234,0.47022 z"
             id="path7326"
             style="fill:#b98e3d;fill-opacity:1;fill-rule:nonzero;stroke:none"
             inkscape:connector-curvature="0" /><path
             d="m 295.27777,-524.64853 c -0.0557,0.004 -0.1123,0.008 -0.16845,0.0122 -0.008,-0.15625 -0.0156,-0.31299 -0.0234,-0.46973 0.0562,-0.004 0.11279,-0.009 0.16895,-0.0127 0.007,0.15674 0.0151,0.31348 0.0229,0.47021 z"
             id="path7328"
             style="fill:#ab833d;fill-opacity:1;fill-rule:nonzero;stroke:none"
             inkscape:connector-curvature="0" /><path
             d="m 295.13276,-524.16659 c -0.0156,-0.31299 -0.0312,-0.62598 -0.0469,-0.93946 -0.0562,0.004 -0.1123,0.008 -0.16846,0.0117 0.0156,0.31348 0.0312,0.62696 0.0469,0.94044 0.0562,-0.004 0.1123,-0.009 0.16846,-0.0127 z"
             id="path7330"
             style="fill:#b68b3d;fill-opacity:1;fill-rule:nonzero;stroke:none"
             inkscape:connector-curvature="0" /><path
             d="m 295.01215,-523.21443 c -0.0562,0.004 -0.1123,0.008 -0.16846,0.0127 -0.008,-0.15722 -0.0161,-0.31396 -0.0239,-0.4707 0.0557,-0.004 0.1123,-0.008 0.16797,-0.0117 0.008,0.15625 0.0161,0.31299 0.0244,0.46973 z"
             id="path7332"
             style="fill:#b98e3d;fill-opacity:1;fill-rule:nonzero;stroke:none"
             inkscape:connector-curvature="0" /><path
             d="m 294.98774,-523.68416 c -0.0557,0.004 -0.11231,0.008 -0.16797,0.0117 -0.008,-0.15625 -0.0156,-0.31299 -0.0234,-0.46973 0.0557,-0.004 0.11182,-0.008 0.16797,-0.0117 0.008,0.15625 0.0156,0.31299 0.0234,0.46973 z"
             id="path7334"
             style="fill:#b68b3d;fill-opacity:1;fill-rule:nonzero;stroke:none"
             inkscape:connector-curvature="0" /><path
             d="m 294.84369,-523.20174 c -0.0161,-0.31396 -0.0317,-0.62695 -0.0474,-0.94043 -0.0557,0.004 -0.11181,0.008 -0.16797,0.0127 0.0151,0.31348 0.0308,0.62696 0.0469,0.94044 0.0562,-0.004 0.1123,-0.009 0.16845,-0.0127 z"
             id="path7336"
             style="fill:#ab833d;fill-opacity:1;fill-rule:nonzero;stroke:none"
             inkscape:connector-curvature="0" /><path
             d="m 294.9643,-524.15389 c -0.1123,0.008 -0.22363,0.0156 -0.33594,0.0244 -0.0156,-0.31348 -0.0312,-0.62647 -0.0474,-0.93995 0.1123,-0.008 0.22412,-0.0166 0.33642,-0.0249 0.0156,0.31348 0.0312,0.62696 0.0469,0.94044 z"
             id="path7338"
             style="fill:#ae843d;fill-opacity:1;fill-rule:nonzero;stroke:none"
             inkscape:connector-curvature="0" /></g></g></g></g></g><g
   transform="matrix(12.311963,0,0,-11.438888,-3585.1395,6097.5189)"
   id="g7340"><g
     clip-path="url(#clipPath7344)"
     id="g7342"><g
       id="g7348"><g
         transform="scale(1,-1)"
         id="g7350"><g
           id="g7352"><path
             d="m 293.03311,-532.37266 c 0.39941,-0.26612 0.84374,-0.44141 1.3076,-0.51075 -0.12402,0.19727 -0.23144,0.44873 -0.33447,0.72071 -0.53076,-0.006 -1.05077,0.0742 -1.5244,0.24267 0.17139,-0.17138 0.35644,-0.32275 0.55127,-0.45263 z"
             id="path7354"
             style="fill:#5da450;fill-opacity:1;fill-rule:nonzero;stroke:none"
             inkscape:connector-curvature="0" /><path
             d="m 292.48184,-531.92003 c 0.47363,-0.16845 0.99364,-0.24902 1.5244,-0.24267 -0.0513,0.13574 -0.10156,0.27637 -0.15185,0.41797 -0.5498,-0.0391 -1.09472,-0.004 -1.61913,0.0967 0.0786,-0.0957 0.16113,-0.18653 0.24658,-0.27198 z"
             id="path7356"
             style="fill:#5da450;fill-opacity:1;fill-rule:nonzero;stroke:none"
             inkscape:connector-curvature="0" /><path
             d="m 292.23526,-531.64805 c 0.52441,-0.10108 1.06933,-0.13574 1.61913,-0.0967 -0.0508,0.14111 -0.10156,0.2832 -0.1543,0.42187 -0.57128,-0.0811 -1.14159,-0.0957 -1.68943,-0.0254 0.0708,-0.10449 0.1455,-0.20459 0.2246,-0.2998 z"
             id="path7358"
             style="fill:#5da450;fill-opacity:1;fill-rule:nonzero;stroke:none"
             inkscape:connector-curvature="0" /><path
             d="m 294.34071,-532.88341 c 0.46386,-0.0688 0.94823,-0.0312 1.4287,0.12989 -0.0269,0.13232 -0.0547,0.27148 -0.084,0.4165 -0.49169,-0.1665 -1.01463,-0.24023 -1.52,-0.21387 0.0552,-0.12158 0.11328,-0.23388 0.17529,-0.33252 z"
             id="path7360"
             style="fill:#5da450;fill-opacity:1;fill-rule:nonzero;stroke:none"
             inkscape:connector-curvature="0" /><path
             d="m 294.16542,-532.55089 c 0.50537,-0.0264 1.02831,0.0474 1.52,0.21387 -0.0298,0.14502 -0.0605,0.29639 -0.0918,0.45215 -0.51611,-0.17871 -1.05712,-0.27197 -1.58739,-0.27783 0.0513,-0.13574 0.104,-0.2666 0.15918,-0.38819 z"
             id="path7362"
             style="fill:#68aa4f;fill-opacity:1;fill-rule:nonzero;stroke:none"
             inkscape:connector-curvature="0" /><path
             d="m 294.00624,-532.1627 c 0.53027,0.006 1.07128,0.0991 1.58739,0.27783 -0.0312,0.15576 -0.064,0.3169 -0.0972,0.48194 -0.54101,-0.19092 -1.09374,-0.30323 -1.64207,-0.3418 0.0503,-0.1416 0.10058,-0.28223 0.15185,-0.41797 z"
             id="path7364"
             style="fill:#75b14e;fill-opacity:1;fill-rule:nonzero;stroke:none"
             inkscape:connector-curvature="0" /><path
             d="m 293.85439,-531.74473 c 0.54833,0.0386 1.10106,0.15088 1.64207,0.3418 -0.0332,0.16552 -0.0669,0.33496 -0.10156,0.50683 -0.55224,-0.19726 -1.12401,-0.3457 -1.69481,-0.42676 0.0527,-0.13867 0.10352,-0.28076 0.1543,-0.42187 z"
             id="path7366"
             style="fill:#7fb64d;fill-opacity:1;fill-rule:nonzero;stroke:none"
             inkscape:connector-curvature="0" /><path
             d="m 295.76941,-532.75352 c 0.21777,0.0723 0.4248,0.16748 0.6206,0.28222 -0.0103,0.13086 -0.0244,0.271 -0.041,0.41797 -0.21484,-0.11328 -0.44042,-0.20849 -0.66357,-0.28369 0.0293,-0.14502 0.0571,-0.28418 0.084,-0.4165 z"
             id="path7368"
             style="fill:#5da450;fill-opacity:1;fill-rule:nonzero;stroke:none"
             inkscape:connector-curvature="0" /><path
             d="m 295.68542,-532.33702 c 0.22315,0.0752 0.44873,0.17041 0.66357,0.28369 -0.0166,0.14746 -0.0356,0.30176 -0.0571,0.46143 -0.22607,-0.11279 -0.46191,-0.21094 -0.69823,-0.29297 0.0312,-0.15576 0.062,-0.30713 0.0918,-0.45215 z"
             id="path7370"
             style="fill:#75b14e;fill-opacity:1;fill-rule:nonzero;stroke:none"
             inkscape:connector-curvature="0" /><path
             d="m 295.59363,-531.88487 c 0.23632,0.082 0.47216,0.18018 0.69823,0.29297 -0.0215,0.15967 -0.0444,0.32373 -0.0688,0.49121 -0.23438,-0.11181 -0.47705,-0.21338 -0.72656,-0.30224 0.0332,-0.16504 0.0659,-0.32618 0.0972,-0.48194 z"
             id="path7372"
             style="fill:#87bc4c;fill-opacity:1;fill-rule:nonzero;stroke:none"
             inkscape:connector-curvature="0" /><path
             d="m 295.49646,-531.40293 c 0.24951,0.0889 0.49218,0.19043 0.72656,0.30224 -0.0244,0.16748 -0.0503,0.33741 -0.0762,0.5083 -0.24511,-0.11035 -0.49657,-0.2124 -0.75194,-0.30371 0.0347,-0.17187 0.0684,-0.34131 0.10156,-0.50683 z"
             id="path7374"
             style="fill:#94c44a;fill-opacity:1;fill-rule:nonzero;stroke:none"
             inkscape:connector-curvature="0" /><path
             d="m 296.39001,-532.4713 c 0.1958,0.11426 0.37988,0.24805 0.55126,0.39844 0.005,0.12989 0.008,0.26709 0.007,0.41016 -0.18067,-0.14649 -0.38477,-0.27686 -0.59912,-0.39063 0.0166,-0.14697 0.0308,-0.28711 0.041,-0.41797 z"
             id="path7376"
             style="fill:#5da450;fill-opacity:1;fill-rule:nonzero;stroke:none"
             inkscape:connector-curvature="0" /><path
             d="m 296.34899,-532.05333 c 0.21435,0.11377 0.41845,0.24414 0.59912,0.39063 -9.8e-4,0.14355 -0.005,0.29297 -0.0117,0.44775 -0.20117,-0.13818 -0.41797,-0.26464 -0.64453,-0.37695 0.0215,-0.15967 0.0405,-0.31397 0.0571,-0.46143 z"
             id="path7378"
             style="fill:#79b34e;fill-opacity:1;fill-rule:nonzero;stroke:none"
             inkscape:connector-curvature="0" /><path
             d="m 296.29186,-531.5919 c 0.22656,0.11231 0.44336,0.23877 0.64453,0.37695 -0.007,0.15479 -0.0166,0.31397 -0.0293,0.47754 -0.22119,-0.12988 -0.44921,-0.25146 -0.68407,-0.36328 0.0244,-0.16748 0.0474,-0.33154 0.0688,-0.49121 z"
             id="path7380"
             style="fill:#8dc04b;fill-opacity:1;fill-rule:nonzero;stroke:none"
             inkscape:connector-curvature="0" /><path
             d="m 296.22302,-531.10069 c 0.23486,0.11182 0.46288,0.2334 0.68407,0.36328 -0.0127,0.16358 -0.0283,0.33057 -0.0464,0.50001 -0.22997,-0.12598 -0.46874,-0.24463 -0.71386,-0.35499 0.0259,-0.17089 0.0518,-0.34082 0.0762,-0.5083 z"
             id="path7382"
             style="fill:#99c849;fill-opacity:1;fill-rule:nonzero;stroke:none"
             inkscape:connector-curvature="0" /><path
             d="m 296.94127,-532.07286 c 0.10351,0.0908 0.20215,0.1875 0.2959,0.28955 0.0132,0.12745 0.0244,0.26123 0.0337,0.4004 -0.10596,-0.0981 -0.21533,-0.1919 -0.32275,-0.27979 9.7e-4,-0.14307 -0.001,-0.28027 -0.007,-0.41016 z"
             id="path7384"
             style="fill:#5da450;fill-opacity:1;fill-rule:nonzero;stroke:none"
             inkscape:connector-curvature="0" /><path
             d="m 296.94811,-531.6627 c 0.10742,0.0879 0.21679,0.18164 0.32275,0.27979 0.009,0.13916 0.0156,0.28369 0.019,0.4331 -0.11719,-0.0947 -0.23633,-0.18359 -0.35351,-0.26514 0.007,-0.15478 0.0107,-0.3042 0.0117,-0.44775 z"
             id="path7386"
             style="fill:#7ab44e;fill-opacity:1;fill-rule:nonzero;stroke:none"
             inkscape:connector-curvature="0" /><path
             d="m 297.23717,-531.78331 c 0.0937,0.10205 0.18212,0.20948 0.26562,0.32178 0.0303,0.12256 0.0562,0.25293 0.0781,0.38867 -0.0996,-0.10791 -0.2041,-0.21142 -0.31005,-0.31005 -0.009,-0.13917 -0.0205,-0.27295 -0.0337,-0.4004 z"
             id="path7388"
             style="fill:#5da450;fill-opacity:1;fill-rule:nonzero;stroke:none"
             inkscape:connector-curvature="0" /><path
             d="m 297.27086,-531.38291 c 0.10595,0.0986 0.21044,0.20214 0.31005,0.31005 0.0215,0.13575 0.0391,0.27686 0.0522,0.42188 -0.11084,-0.10352 -0.22607,-0.2041 -0.34326,-0.29883 -0.003,-0.14941 -0.01,-0.29394 -0.019,-0.4331 z"
             id="path7390"
             style="fill:#77b24e;fill-opacity:1;fill-rule:nonzero;stroke:none"
             inkscape:connector-curvature="0" /><path
             d="m 296.93639,-531.21495 c 0.11718,0.0815 0.23632,0.17041 0.35351,0.26514 0.003,0.14942 0.003,0.30322 -9.8e-4,0.46094 -0.12646,-0.0898 -0.25488,-0.17334 -0.38183,-0.24854 0.0127,-0.16357 0.0225,-0.32275 0.0293,-0.47754 z"
             id="path7392"
             style="fill:#8fc14b;fill-opacity:1;fill-rule:nonzero;stroke:none"
             inkscape:connector-curvature="0" /><path
             d="m 296.90709,-530.73741 c 0.12695,0.0752 0.25537,0.1587 0.38183,0.24854 -0.004,0.15723 -0.0117,0.31836 -0.0244,0.48193 -0.13623,-0.0811 -0.27246,-0.15869 -0.40381,-0.23046 0.0181,-0.16944 0.0337,-0.33643 0.0464,-0.50001 z"
             id="path7394"
             style="fill:#9bca49;fill-opacity:1;fill-rule:nonzero;stroke:none"
             inkscape:connector-curvature="0" /><path
             d="m 297.2899,-530.94981 c 0.11719,0.0947 0.23242,0.19531 0.34326,0.29883 0.0132,0.14453 0.023,0.29297 0.0288,0.44336 -0.1211,-0.0972 -0.2461,-0.19238 -0.37305,-0.28125 0.004,-0.15772 0.004,-0.31152 9.8e-4,-0.46094 z"
             id="path7396"
             style="fill:#8abe4c;fill-opacity:1;fill-rule:nonzero;stroke:none"
             inkscape:connector-curvature="0" /><path
             d="m 297.28892,-530.48887 c 0.12695,0.0889 0.25195,0.18408 0.37305,0.28125 0.005,0.1499 0.007,0.30176 0.006,0.45313 -0.13184,-0.0869 -0.26758,-0.17139 -0.40332,-0.25245 0.0127,-0.16357 0.0205,-0.3247 0.0244,-0.48193 z"
             id="path7398"
             style="fill:#96c64a;fill-opacity:1;fill-rule:nonzero;stroke:none"
             inkscape:connector-curvature="0" /><path
             d="m 297.50279,-531.46153 c 0.0605,0.24512 0.10351,0.52051 0.13037,0.81055 0.11035,0.10352 0.2163,0.21045 0.31396,0.31836 -0.0488,-0.27637 -0.11523,-0.54199 -0.21045,-0.77832 -0.0727,-0.1211 -0.15088,-0.23828 -0.23388,-0.35059 z"
             id="path7400"
             style="fill:#5da450;fill-opacity:1;fill-rule:nonzero;stroke:none"
             inkscape:connector-curvature="0" /><path
             d="m 297.73667,-531.11094 c 0.0952,0.23633 0.16162,0.50195 0.21045,0.77832 0.0972,0.1084 0.18652,0.21826 0.26513,0.32715 -0.0718,-0.25244 -0.16357,-0.4961 -0.27392,-0.72803 -0.0615,-0.12988 -0.1289,-0.25586 -0.20166,-0.37744 z"
             id="path7402"
             style="fill:#5da450;fill-opacity:1;fill-rule:nonzero;stroke:none"
             inkscape:connector-curvature="0" /><path
             d="m 297.63316,-530.65098 c 0.11035,0.10352 0.2163,0.21045 0.31396,0.31836 0.0234,0.13867 0.043,0.27979 0.0586,0.4209 -0.10791,-0.0991 -0.22363,-0.19873 -0.34374,-0.2959 -0.006,-0.15039 -0.0156,-0.29883 -0.0288,-0.44336 z"
             id="path7404"
             style="fill:#7fb64d;fill-opacity:1;fill-rule:nonzero;stroke:none"
             inkscape:connector-curvature="0" /><path
             d="m 297.66197,-530.20762 c 0.12011,0.0972 0.23583,0.19678 0.34374,0.2959 0.0161,0.14111 0.0283,0.28223 0.0381,0.4209 -0.11768,-0.0884 -0.24463,-0.17676 -0.37597,-0.26367 10e-4,-0.15137 -4.9e-4,-0.30323 -0.006,-0.45313 z"
             id="path7406"
             style="fill:#8abe4c;fill-opacity:1;fill-rule:nonzero;stroke:none"
             inkscape:connector-curvature="0" /><path
             d="m 297.94712,-530.33262 c 0.0972,0.1084 0.18652,0.21826 0.26513,0.32715 0.0357,0.12598 0.0669,0.25439 0.0928,0.38477 -0.0903,-0.0942 -0.19092,-0.19239 -0.29932,-0.29102 -0.0156,-0.14111 -0.0352,-0.28223 -0.0586,-0.4209 z"
             id="path7408"
             style="fill:#6fad4f;fill-opacity:1;fill-rule:nonzero;stroke:none"
             inkscape:connector-curvature="0" /><path
             d="m 298.00571,-529.91172 c 0.1084,0.0986 0.20898,0.19678 0.29932,0.29102 0.0259,0.12988 0.0464,0.2622 0.0615,0.39551 -0.0952,-0.0874 -0.20459,-0.17676 -0.32275,-0.26563 -0.01,-0.13867 -0.022,-0.27979 -0.0381,-0.4209 z"
             id="path7410"
             style="fill:#77b24e;fill-opacity:1;fill-rule:nonzero;stroke:none"
             inkscape:connector-curvature="0" /><path
             d="m 292.01066,-531.34825 c -0.28906,0.42774 -0.51367,0.93067 -0.64551,1.49024 0.54248,0.125 1.12695,0.29346 1.73241,0.48291 0.15429,-0.63769 0.41845,-1.38818 0.64941,-1.94092 -0.58691,-0.0874 -1.17284,-0.10449 -1.73631,-0.0322 z"
             id="path7412"
             style="fill:#5da450;fill-opacity:1;fill-rule:nonzero;stroke:none"
             inkscape:connector-curvature="0" /><path
             d="m 293.74697,-531.31602 c -0.23096,0.55274 -0.49512,1.30323 -0.64941,1.94092 0.60546,0.18946 1.23192,0.39991 1.85936,0.60889 0.17773,-0.71533 0.35644,-1.41992 0.5288,-2.09668 -0.56494,-0.20801 -1.15185,-0.36573 -1.73875,-0.45313 z"
             id="path7414"
             style="fill:#84b94d;fill-opacity:1;fill-rule:nonzero;stroke:none"
             inkscape:connector-curvature="0" /><path
             d="m 295.48572,-530.86289 c 0.479,0.17627 0.94188,0.38867 1.37498,0.62549 -0.0708,0.65771 -0.17675,1.32324 -0.32079,1.97998 -0.5083,-0.1582 -1.04101,-0.32861 -1.58299,-0.50879 0.17773,-0.71533 0.35644,-1.41992 0.5288,-2.09668 z"
             id="path7416"
             style="fill:#99c849;fill-opacity:1;fill-rule:nonzero;stroke:none"
             inkscape:connector-curvature="0" /><path
             d="m 291.36515,-529.85801 c 0.54248,0.125 1.12695,0.29346 1.73241,0.48291 -0.15478,0.63868 -0.28906,1.35303 -0.38086,2.04444 -0.55565,-0.27051 -1.06786,-0.56836 -1.45213,-0.86865 -0.0596,-0.54053 -0.0303,-1.10255 0.10058,-1.6587 z"
             id="path7418"
             style="fill:#5da450;fill-opacity:1;fill-rule:nonzero;stroke:none"
             inkscape:connector-curvature="0" /><path
             d="m 291.26457,-528.19931 c 0.38427,0.30029 0.89648,0.59814 1.45213,0.86865 -0.0918,0.69092 -0.1416,1.35889 -0.12646,1.90479 -0.3667,-0.34619 -0.66943,-0.771 -0.89501,-1.24561 -0.22314,-0.46875 -0.37109,-0.9873 -0.43066,-1.52783 z"
             id="path7420"
             style="fill:#5da450;fill-opacity:1;fill-rule:nonzero;stroke:none"
             inkscape:connector-curvature="0" /><path
             d="m 293.09756,-529.3751 c 0.60546,0.18946 1.23192,0.39991 1.85936,0.60889 -0.17871,0.72168 -0.35449,1.43897 -0.53418,2.13184 -0.5537,-0.18555 -1.15087,-0.42676 -1.70604,-0.69629 0.0918,-0.69141 0.22608,-1.40576 0.38086,-2.04444 z"
             id="path7422"
             style="fill:#7db54d;fill-opacity:1;fill-rule:nonzero;stroke:none"
             inkscape:connector-curvature="0" /><path
             d="m 292.7167,-527.33066 c 0.55517,0.26953 1.15234,0.51074 1.70604,0.69629 -0.17968,0.69239 -0.36328,1.35987 -0.55712,1.98243 -0.479,-0.16065 -0.90868,-0.42774 -1.27538,-0.77393 -0.0151,-0.5459 0.0347,-1.21387 0.12646,-1.90479 z"
             id="path7424"
             style="fill:#6dac4f;fill-opacity:1;fill-rule:nonzero;stroke:none"
             inkscape:connector-curvature="0" /><path
             d="m 294.95692,-528.76621 c 0.54198,0.18018 1.07469,0.35059 1.58299,0.50879 -0.146,0.66553 -0.33105,1.32227 -0.55957,1.95313 -0.46679,-0.0566 -1.06981,-0.16797 -1.5576,-0.33008 0.17969,-0.69287 0.35547,-1.41016 0.53418,-2.13184 z"
             id="path7426"
             style="fill:#91c34b;fill-opacity:1;fill-rule:nonzero;stroke:none"
             inkscape:connector-curvature="0" /><path
             d="m 294.42274,-526.63437 c 0.48779,0.16211 1.09081,0.27344 1.5576,0.33008 -0.22802,0.63086 -0.49902,1.23584 -0.81542,1.79737 -0.42529,0.0449 -0.86522,0 -1.2993,-0.14502 0.19384,-0.62256 0.37744,-1.29004 0.55712,-1.98243 z"
             id="path7428"
             style="fill:#7db54d;fill-opacity:1;fill-rule:nonzero;stroke:none"
             inkscape:connector-curvature="0" /><path
             d="m 296.8607,-530.2374 c -0.0376,0.34716 -0.0845,0.69677 -0.14208,1.04638 0.14208,0.062 0.29003,0.12696 0.43944,0.19288 0.0459,-0.33692 0.0791,-0.67335 0.10645,-1.0088 -0.13623,-0.0811 -0.27246,-0.15869 -0.40381,-0.23046 z"
             id="path7430"
             style="fill:#9ecc48;fill-opacity:1;fill-rule:nonzero;stroke:none"
             inkscape:connector-curvature="0" /><path
             d="m 297.26451,-530.00694 c -0.0273,0.33545 -0.0605,0.67188 -0.10645,1.0088 0.14942,0.0659 0.29981,0.13379 0.4458,0.20166 0.0391,-0.32422 0.061,-0.64795 0.064,-0.95801 -0.13184,-0.0869 -0.26758,-0.17139 -0.40332,-0.25245 z"
             id="path7432"
             style="fill:#9bca49;fill-opacity:1;fill-rule:nonzero;stroke:none"
             inkscape:connector-curvature="0" /><path
             d="m 296.71862,-529.19102 c -0.0571,0.34913 -0.125,0.69825 -0.20313,1.04444 0.15283,0.0522 0.30811,0.10547 0.46289,0.15869 0.0762,-0.33691 0.13428,-0.67334 0.17968,-1.01025 -0.14941,-0.0659 -0.29736,-0.13086 -0.43944,-0.19288 z"
             id="path7434"
             style="fill:#9dcb49;fill-opacity:1;fill-rule:nonzero;stroke:none"
             inkscape:connector-curvature="0" /><path
             d="m 297.15806,-528.99814 c -0.0454,0.33691 -0.10351,0.67334 -0.17968,1.01025 0.15429,0.0527 0.30859,0.10498 0.45849,0.15625 0.0718,-0.31445 0.12793,-0.64014 0.16699,-0.96484 -0.14599,-0.0679 -0.29638,-0.13575 -0.4458,-0.20166 z"
             id="path7436"
             style="fill:#99c849;fill-opacity:1;fill-rule:nonzero;stroke:none"
             inkscape:connector-curvature="0" /><path
             d="m 297.66783,-529.75449 c -0.006,0.62012 -0.0869,1.29443 -0.23096,1.92285 0.1499,0.0513 0.29638,0.10157 0.43603,0.14893 0.13623,-0.58447 0.2124,-1.23877 0.1709,-1.80811 -0.11768,-0.0884 -0.24463,-0.17676 -0.37597,-0.26367 z"
             id="path7438"
             style="fill:#8fc14b;fill-opacity:1;fill-rule:nonzero;stroke:none"
             inkscape:connector-curvature="0" /><path
             d="m 298.0438,-529.49082 c 0.0415,0.56934 -0.0347,1.22364 -0.1709,1.80811 0.13965,0.0474 0.27246,0.0923 0.39551,0.13428 0.13232,-0.56397 0.16064,-1.13038 0.0981,-1.67676 -0.0952,-0.0874 -0.20459,-0.17676 -0.32275,-0.26563 z"
             id="path7440"
             style="fill:#7ab44e;fill-opacity:1;fill-rule:nonzero;stroke:none"
             inkscape:connector-curvature="0" /><path
             d="m 296.51549,-528.14658 c -0.14648,0.646 -0.33007,1.28272 -0.55419,1.89502 0.14013,0.0195 0.28564,0.0444 0.43212,0.0698 0.24268,-0.5708 0.44043,-1.17432 0.58496,-1.80616 -0.15478,-0.0532 -0.31006,-0.10644 -0.46289,-0.15869 z"
             id="path7442"
             style="fill:#97c74a;fill-opacity:1;fill-rule:nonzero;stroke:none"
             inkscape:connector-curvature="0" /><path
             d="m 296.97838,-527.98789 c -0.14453,0.63184 -0.34228,1.23536 -0.58496,1.80616 0.14698,0.0254 0.29492,0.0513 0.43945,0.0732 0.25928,-0.53662 0.46533,-1.12207 0.604,-1.72315 -0.1499,-0.0513 -0.3042,-0.10351 -0.45849,-0.15625 z"
             id="path7444"
             style="fill:#92c34a;fill-opacity:1;fill-rule:nonzero;stroke:none"
             inkscape:connector-curvature="0" /><path
             d="m 295.9613,-526.25156 c -0.22412,0.61182 -0.48876,1.19874 -0.79638,1.74464 0.12793,-0.0132 0.2539,-0.0347 0.37793,-0.064 0.32226,-0.50146 0.60839,-1.04004 0.85057,-1.61084 -0.14648,-0.0254 -0.29199,-0.0503 -0.43212,-0.0698 z"
             id="path7446"
             style="fill:#82b84d;fill-opacity:1;fill-rule:nonzero;stroke:none"
             inkscape:connector-curvature="0" /><path
             d="m 296.39342,-526.18173 c -0.24218,0.5708 -0.52831,1.10938 -0.85057,1.61084 0.12451,-0.0288 0.24706,-0.0654 0.36718,-0.10986 0.35156,-0.4043 0.66406,-0.89112 0.92284,-1.42774 -0.14453,-0.022 -0.29247,-0.0479 -0.43945,-0.0732 z"
             id="path7448"
             style="fill:#7db54d;fill-opacity:1;fill-rule:nonzero;stroke:none"
             inkscape:connector-curvature="0" /><path
             d="m 297.43687,-527.83164 c -0.13867,0.60108 -0.34472,1.18653 -0.604,1.72315 0.14453,0.0215 0.28613,0.0386 0.4209,0.0469 0.27392,-0.49317 0.48583,-1.05128 0.61913,-1.6211 -0.13965,-0.0474 -0.28613,-0.0977 -0.43603,-0.14893 z"
             id="path7450"
             style="fill:#86bb4c;fill-opacity:1;fill-rule:nonzero;stroke:none"
             inkscape:connector-curvature="0" /><path
             d="m 297.8729,-527.68271 c -0.1333,0.56982 -0.34521,1.12793 -0.61913,1.6211 0.13476,0.008 0.2622,0.007 0.37841,-0.008 0.28564,-0.42481 0.50537,-0.92286 0.63623,-1.47852 -0.12305,-0.042 -0.25586,-0.0869 -0.39551,-0.13428 z"
             id="path7452"
             style="fill:#74b04e;fill-opacity:1;fill-rule:nonzero;stroke:none"
             inkscape:connector-curvature="0" /><path
             d="m 296.83287,-526.10849 c 0.28955,0.043 0.56689,0.0688 0.79931,0.0386 -0.28564,0.42431 -0.6372,0.77539 -1.03221,1.0376 -0.21826,0.14502 -0.44922,0.26318 -0.68994,0.35156 0.35156,-0.4043 0.66406,-0.89112 0.92284,-1.42774 z"
             id="path7454"
             style="fill:#74b04e;fill-opacity:1;fill-rule:nonzero;stroke:none"
             inkscape:connector-curvature="0" /></g></g></g></g></g><g
   transform="matrix(12.311963,0,0,-11.438888,-3585.1395,6097.5189)"
   id="g7456"><g
     clip-path="url(#clipPath7460)"
     id="g7458"><g
       id="g7464"><g
         transform="scale(1,-1)"
         id="g7466"><g
           id="g7468"><path
             d="m 299.45472,-521.68765 c -0.0796,0.009 -0.15918,0.0176 -0.23877,0.0259 -4.9e-4,0.0952 -0.001,0.19043 -0.002,0.28565 0.0801,-0.009 0.15966,-0.0181 0.23925,-0.0269 4.9e-4,-0.0947 9.8e-4,-0.18945 0.001,-0.28467 z"
             id="path7470"
             style="fill:#98753b;fill-opacity:1;fill-rule:nonzero;stroke:none"
             inkscape:connector-curvature="0" /><path
             d="m 299.45325,-521.40298 c -0.0796,0.009 -0.15917,0.0181 -0.23925,0.0269 -4.9e-4,0.0952 -9.8e-4,0.18994 -10e-4,0.28467 0.0796,-0.009 0.15918,-0.0176 0.23877,-0.0264 4.9e-4,-0.0947 10e-4,-0.18994 0.002,-0.28516 z"
             id="path7472"
             style="fill:#ab833d;fill-opacity:1;fill-rule:nonzero;stroke:none"
             inkscape:connector-curvature="0" /><path
             d="m 299.21595,-521.66177 c -0.001,0.19043 -0.002,0.38086 -0.003,0.57032 -0.0801,0.009 -0.15966,0.0171 -0.23925,0.0254 10e-4,-0.19043 0.003,-0.38038 0.004,-0.57081 0.0791,-0.008 0.15869,-0.0161 0.23828,-0.0249 z"
             id="path7474"
             style="fill:#98753b;fill-opacity:1;fill-rule:nonzero;stroke:none"
             inkscape:connector-curvature="0" /><path
             d="m 299.4513,-521.11782 c -0.0796,0.009 -0.15918,0.0176 -0.23877,0.0264 -4.9e-4,0.0947 -9.7e-4,0.18994 -0.002,0.28515 0.0801,-0.009 0.15918,-0.0176 0.23877,-0.0264 4.9e-4,-0.0947 0.001,-0.18995 0.002,-0.28516 z"
             id="path7476"
             style="fill:#b98e3d;fill-opacity:1;fill-rule:nonzero;stroke:none"
             inkscape:connector-curvature="0" /><path
             d="m 299.44935,-520.83266 c -0.0796,0.009 -0.15869,0.0176 -0.23877,0.0264 -4.9e-4,0.0947 -9.8e-4,0.18946 -10e-4,0.28419 0.0796,-0.008 0.15869,-0.0166 0.23827,-0.0249 4.9e-4,-0.0952 10e-4,-0.19043 0.002,-0.28564 z"
             id="path7478"
             style="fill:#c3953d;fill-opacity:1;fill-rule:nonzero;stroke:none"
             inkscape:connector-curvature="0" /><path
             d="m 299.21253,-521.09145 c -9.7e-4,0.18994 -0.002,0.37988 -0.003,0.56934 -0.0796,0.008 -0.15918,0.0166 -0.23877,0.0254 9.7e-4,-0.18946 0.002,-0.3794 0.003,-0.56934 0.0796,-0.008 0.15918,-0.0166 0.23925,-0.0254 z"
             id="path7480"
             style="fill:#a8803c;fill-opacity:1;fill-rule:nonzero;stroke:none"
             inkscape:connector-curvature="0" /><path
             d="m 299.44739,-520.54702 c -0.0796,0.008 -0.15869,0.0166 -0.23827,0.0249 -4.9e-4,0.0845 -9.8e-4,0.16894 -10e-4,0.25293 0.0796,-0.009 0.15869,-0.0166 0.23828,-0.0254 4.9e-4,-0.084 9.8e-4,-0.16797 0.001,-0.25245 z"
             id="path7482"
             style="fill:#c6973d;fill-opacity:1;fill-rule:nonzero;stroke:none"
             inkscape:connector-curvature="0" /><path
             d="m 299.44593,-520.29457 c -0.0796,0.009 -0.15869,0.0166 -0.23828,0.0254 -4.9e-4,0.084 -9.8e-4,0.16845 -0.002,0.25293 0.0796,-0.009 0.15918,-0.0176 0.23877,-0.0264 4.8e-4,-0.084 9.7e-4,-0.16797 0.001,-0.25195 z"
             id="path7484"
             style="fill:#c3953d;fill-opacity:1;fill-rule:nonzero;stroke:none"
             inkscape:connector-curvature="0" /><path
             d="m 299.20912,-520.52211 c -9.8e-4,0.16894 -0.002,0.33691 -0.003,0.50586 -0.0791,0.009 -0.15869,0.0171 -0.23828,0.0259 9.7e-4,-0.16846 0.002,-0.33741 0.003,-0.50635 0.0796,-0.009 0.15918,-0.0171 0.23877,-0.0254 z"
             id="path7486"
             style="fill:#ae843d;fill-opacity:1;fill-rule:nonzero;stroke:none"
             inkscape:connector-curvature="0" /><path
             d="m 299.44447,-520.04262 c -0.0796,0.009 -0.15918,0.0176 -0.23877,0.0264 -4.9e-4,0.084 -9.8e-4,0.16797 -10e-4,0.25195 0.0796,-0.008 0.15918,-0.0166 0.23877,-0.0254 4.9e-4,-0.0845 9.8e-4,-0.16895 0.001,-0.25293 z"
             id="path7488"
             style="fill:#b98e3d;fill-opacity:1;fill-rule:nonzero;stroke:none"
             inkscape:connector-curvature="0" /><path
             d="m 299.443,-519.78969 c -0.0796,0.009 -0.15918,0.0171 -0.23877,0.0254 -4.9e-4,0.0845 -9.7e-4,0.16895 -10e-4,0.25293 0.0796,-0.009 0.15918,-0.0176 0.23877,-0.0264 4.8e-4,-0.084 9.7e-4,-0.16797 10e-4,-0.25196 z"
             id="path7490"
             style="fill:#ab833d;fill-opacity:1;fill-rule:nonzero;stroke:none"
             inkscape:connector-curvature="0" /><path
             d="m 299.2057,-520.01625 c -9.8e-4,0.16797 -0.002,0.33642 -0.003,0.50488 -0.0796,0.009 -0.15918,0.0176 -0.23877,0.0264 10e-4,-0.16895 0.002,-0.33692 0.003,-0.50537 0.0796,-0.009 0.15918,-0.0171 0.23828,-0.0259 z"
             id="path7492"
             style="fill:#a8803c;fill-opacity:1;fill-rule:nonzero;stroke:none"
             inkscape:connector-curvature="0" /></g></g></g></g></g><g
   transform="matrix(12.311963,0,0,-11.438888,-3585.1395,6097.5189)"
   id="g7494"><g
     clip-path="url(#clipPath7498)"
     id="g7496"><g
       id="g7502"><g
         transform="scale(1,-1)"
         id="g7504"><g
           id="g7506"><path
             d="m 299.96023,-521.65692 c 0.26856,-0.17578 0.49561,-0.42432 0.66407,-0.71534 -0.0674,0.006 -0.14551,0.002 -0.22949,-0.008 -0.16651,0.33545 -0.38624,0.63428 -0.64112,0.84229 0.0708,-0.0347 0.13965,-0.0742 0.20654,-0.11865 z"
             id="path7508"
             style="fill:#5da450;fill-opacity:1;fill-rule:nonzero;stroke:none"
             inkscape:connector-curvature="0" /><path
             d="m 299.75369,-521.53827 c 0.25488,-0.20801 0.47461,-0.50684 0.64112,-0.84229 -0.084,-0.0103 -0.17432,-0.0273 -0.26661,-0.0469 -0.16259,0.36181 -0.36523,0.69873 -0.5918,0.97852 0.0737,-0.0249 0.14649,-0.0547 0.21729,-0.0894 z"
             id="path7510"
             style="fill:#5da450;fill-opacity:1;fill-rule:nonzero;stroke:none"
             inkscape:connector-curvature="0" /><path
             d="m 300.6243,-522.37226 c -0.0674,0.006 -0.14551,0.002 -0.22949,-0.008 0.0835,-0.16748 0.15332,-0.34424 0.208,-0.52393 0.083,0.0254 0.15967,0.0488 0.22706,0.0684 -0.0523,0.1626 -0.12159,0.31836 -0.20557,0.46387 z"
             id="path7512"
             style="fill:#5da450;fill-opacity:1;fill-rule:nonzero;stroke:none"
             inkscape:connector-curvature="0" /><path
             d="m 300.82987,-522.83613 c -0.0674,-0.0195 -0.14405,-0.043 -0.22706,-0.0684 0.0547,-0.17968 0.0933,-0.36132 0.11426,-0.53906 0.0767,0.0371 0.14942,0.0723 0.2168,0.10449 -0.0161,0.17188 -0.0518,0.34082 -0.104,0.50293 z"
             id="path7514"
             style="fill:#5da450;fill-opacity:1;fill-rule:nonzero;stroke:none"
             inkscape:connector-curvature="0" /><path
             d="m 300.39481,-522.38056 c -0.084,-0.0103 -0.17432,-0.0273 -0.26661,-0.0469 0.0811,-0.18116 0.15235,-0.36866 0.21094,-0.55811 0.0913,0.0283 0.18067,0.0557 0.26367,0.0811 -0.0547,0.17969 -0.12451,0.35645 -0.208,0.52393 z"
             id="path7516"
             style="fill:#6fad4f;fill-opacity:1;fill-rule:nonzero;stroke:none"
             inkscape:connector-curvature="0" /><path
             d="m 300.60281,-522.90449 c -0.083,-0.0254 -0.17236,-0.0527 -0.26367,-0.0811 0.0586,-0.18945 0.10547,-0.38184 0.13721,-0.57227 0.0835,0.0386 0.16406,0.0772 0.24072,0.11426 -0.021,0.17774 -0.0596,0.35938 -0.11426,0.53906 z"
             id="path7518"
             style="fill:#77b24e;fill-opacity:1;fill-rule:nonzero;stroke:none"
             inkscape:connector-curvature="0" /><path
             d="m 299.5364,-521.44891 c -0.0737,0.0249 -0.14843,0.0439 -0.22412,0.0576 0.0991,-0.17529 0.19434,-0.35498 0.28467,-0.53808 0.0854,0.009 0.17334,0.0181 0.25977,0.022 -0.0996,0.16406 -0.20703,0.31836 -0.32032,0.4585 z"
             id="path7520"
             style="fill:#5da450;fill-opacity:1;fill-rule:nonzero;stroke:none"
             inkscape:connector-curvature="0" /><path
             d="m 299.85672,-521.90741 c -0.0864,-0.004 -0.17432,-0.0132 -0.25977,-0.022 0.0899,-0.18311 0.17481,-0.37012 0.25244,-0.56055 0.0923,0.021 0.18653,0.0435 0.27881,0.0625 -0.0811,0.18115 -0.17236,0.35596 -0.27148,0.52002 z"
             id="path7522"
             style="fill:#6fad4f;fill-opacity:1;fill-rule:nonzero;stroke:none"
             inkscape:connector-curvature="0" /><path
             d="m 299.31228,-521.3913 c -0.0757,0.0137 -0.15234,0.022 -0.229,0.0239 0.0923,-0.1919 0.18066,-0.38574 0.26465,-0.58203 0.0786,0.003 0.1626,0.0112 0.24902,0.02 -0.0903,0.1831 -0.18555,0.36279 -0.28467,0.53808 z"
             id="path7524"
             style="fill:#5da450;fill-opacity:1;fill-rule:nonzero;stroke:none"
             inkscape:connector-curvature="0" /><path
             d="m 299.59695,-521.92938 c -0.0864,-0.009 -0.17041,-0.0171 -0.24902,-0.02 0.084,-0.19629 0.16308,-0.39502 0.23633,-0.59571 0.083,0.0147 0.17285,0.0342 0.26513,0.0552 -0.0776,0.19043 -0.16259,0.37744 -0.25244,0.56055 z"
             id="path7526"
             style="fill:#77b24e;fill-opacity:1;fill-rule:nonzero;stroke:none"
             inkscape:connector-curvature="0" /><path
             d="m 300.1282,-522.42743 c -0.0923,-0.019 -0.18652,-0.0415 -0.27881,-0.0625 0.0776,-0.18995 0.14893,-0.38379 0.21094,-0.58057 0.0933,0.0278 0.1875,0.0566 0.27881,0.085 -0.0586,0.18945 -0.12988,0.37695 -0.21094,0.55811 z"
             id="path7528"
             style="fill:#7fb64d;fill-opacity:1;fill-rule:nonzero;stroke:none"
             inkscape:connector-curvature="0" /><path
             d="m 300.33914,-522.98554 c -0.0913,-0.0283 -0.18555,-0.0571 -0.27881,-0.085 0.062,-0.19727 0.11573,-0.39746 0.15918,-0.60059 0.0874,0.0361 0.17334,0.0747 0.25684,0.11328 -0.0317,0.19043 -0.0786,0.38282 -0.13721,0.57227 z"
             id="path7530"
             style="fill:#8abe4c;fill-opacity:1;fill-rule:nonzero;stroke:none"
             inkscape:connector-curvature="0" /><path
             d="m 299.84939,-522.48993 c -0.0923,-0.021 -0.18213,-0.0405 -0.26513,-0.0552 0.0737,-0.2002 0.1416,-0.40283 0.20361,-0.60742 0.0874,0.0259 0.17969,0.0532 0.27246,0.082 -0.062,0.19678 -0.1333,0.39062 -0.21094,0.58057 z"
             id="path7532"
             style="fill:#8abe4c;fill-opacity:1;fill-rule:nonzero;stroke:none"
             inkscape:connector-curvature="0" /><path
             d="m 300.06033,-523.0705 c -0.0928,-0.0288 -0.18506,-0.0562 -0.27246,-0.082 0.062,-0.20508 0.11768,-0.41211 0.16553,-0.62061 0.0898,0.0308 0.17871,0.0654 0.26611,0.10205 -0.0435,0.20313 -0.0972,0.40332 -0.15918,0.60059 z"
             id="path7534"
             style="fill:#96c64a;fill-opacity:1;fill-rule:nonzero;stroke:none"
             inkscape:connector-curvature="0" /><path
             d="m 299.08328,-521.36737 c -0.15723,0.005 -0.31055,-0.0137 -0.45655,-0.0557 0.0679,-0.18457 0.13672,-0.38476 0.20557,-0.59326 0.17871,0.0386 0.35449,0.0615 0.51563,0.0669 -0.084,0.19629 -0.17237,0.39013 -0.26465,0.58203 z"
             id="path7536"
             style="fill:#5da450;fill-opacity:1;fill-rule:nonzero;stroke:none"
             inkscape:connector-curvature="0" /><path
             d="m 299.34793,-521.9494 c -0.16114,-0.005 -0.33692,-0.0283 -0.51563,-0.0669 0.0688,-0.2085 0.1377,-0.42578 0.20508,-0.64502 0.19141,0.0479 0.37744,0.0874 0.54688,0.11621 -0.0732,0.20069 -0.15235,0.39942 -0.23633,0.59571 z"
             id="path7538"
             style="fill:#7ab44e;fill-opacity:1;fill-rule:nonzero;stroke:none"
             inkscape:connector-curvature="0" /><path
             d="m 298.62673,-521.42304 c -0.14599,-0.042 -0.28466,-0.10644 -0.41259,-0.19043 0.0142,-0.16894 0.0449,-0.3623 0.0869,-0.56933 0.17188,0.0713 0.35254,0.12744 0.53125,0.1665 -0.0688,0.2085 -0.13769,0.40869 -0.20557,0.59326 z"
             id="path7540"
             style="fill:#5da450;fill-opacity:1;fill-rule:nonzero;stroke:none"
             inkscape:connector-curvature="0" /><path
             d="m 298.8323,-522.0163 c -0.17871,-0.0391 -0.35937,-0.0952 -0.53125,-0.1665 0.042,-0.20655 0.0957,-0.42676 0.15527,-0.64844 0.19239,0.0644 0.38965,0.12158 0.58106,0.16992 -0.0674,0.21924 -0.13623,0.43652 -0.20508,0.64502 z"
             id="path7542"
             style="fill:#77b24e;fill-opacity:1;fill-rule:nonzero;stroke:none"
             inkscape:connector-curvature="0" /><path
             d="m 299.58426,-522.54511 c -0.16944,-0.0288 -0.35547,-0.0684 -0.54688,-0.11621 0.0669,-0.21924 0.13184,-0.44043 0.19385,-0.65674 0.19141,0.0571 0.37842,0.1123 0.55664,0.16553 -0.062,0.20459 -0.12988,0.40722 -0.20361,0.60742 z"
             id="path7544"
             style="fill:#8fc14b;fill-opacity:1;fill-rule:nonzero;stroke:none"
             inkscape:connector-curvature="0" /><path
             d="m 299.78787,-523.15253 c -0.17822,-0.0532 -0.36523,-0.1084 -0.55664,-0.16553 0.062,-0.21631 0.12012,-0.42774 0.17334,-0.62744 0.18359,0.0518 0.3667,0.10888 0.54883,0.17236 -0.0478,0.2085 -0.10352,0.41553 -0.16553,0.62061 z"
             id="path7546"
             style="fill:#9bca49;fill-opacity:1;fill-rule:nonzero;stroke:none"
             inkscape:connector-curvature="0" /><path
             d="m 299.03738,-522.66132 c -0.19141,-0.0483 -0.38867,-0.10547 -0.58106,-0.16992 0.0596,-0.22168 0.12549,-0.44483 0.19239,-0.65772 0.1958,0.0562 0.3916,0.11377 0.58252,0.1709 -0.062,0.21631 -0.12696,0.4375 -0.19385,0.65674 z"
             id="path7548"
             style="fill:#8abe4c;fill-opacity:1;fill-rule:nonzero;stroke:none"
             inkscape:connector-curvature="0" /><path
             d="m 299.23123,-523.31806 c -0.19092,-0.0571 -0.38672,-0.11475 -0.58252,-0.1709 0.0674,-0.21289 0.13574,-0.41553 0.20019,-0.59668 0.18653,0.0415 0.37159,0.0879 0.55567,0.14014 -0.0532,0.1997 -0.11133,0.41113 -0.17334,0.62744 z"
             id="path7550"
             style="fill:#96c64a;fill-opacity:1;fill-rule:nonzero;stroke:none"
             inkscape:connector-curvature="0" /><path
             d="m 298.21414,-521.61347 c 0.0283,-0.3374 0.12255,-0.77441 0.24218,-1.21777 -0.19238,-0.0649 -0.37988,-0.13721 -0.55176,-0.21582 -0.0869,0.41064 -0.11621,0.81689 -0.0371,1.12207 0.10206,0.12256 0.21876,0.22705 0.34669,0.31152 z"
             id="path7552"
             style="fill:#5da450;fill-opacity:1;fill-rule:nonzero;stroke:none"
             inkscape:connector-curvature="0" /><path
             d="m 297.86745,-521.92499 c -0.0791,-0.30518 -0.0498,-0.71143 0.0371,-1.12207 -0.17187,-0.0781 -0.32861,-0.16211 -0.45898,-0.25147 -0.0176,0.33447 0.0371,0.66553 0.16553,0.95655 0.0679,0.15527 0.15478,0.29492 0.25634,0.41699 z"
             id="path7554"
             style="fill:#5da450;fill-opacity:1;fill-rule:nonzero;stroke:none"
             inkscape:connector-curvature="0" /><path
             d="m 298.45632,-522.83124 c -0.19238,-0.0649 -0.37988,-0.13721 -0.55176,-0.21582 0.043,-0.20508 0.10059,-0.41114 0.16602,-0.60645 0.18945,0.0518 0.38379,0.10791 0.57813,0.16455 -0.0669,0.21289 -0.13282,0.43604 -0.19239,0.65772 z"
             id="path7556"
             style="fill:#7fb64d;fill-opacity:1;fill-rule:nonzero;stroke:none"
             inkscape:connector-curvature="0" /><path
             d="m 298.64871,-523.48896 c -0.19434,-0.0566 -0.38868,-0.11279 -0.57813,-0.16455 0.0659,-0.19531 0.13965,-0.37988 0.21533,-0.54151 0.18897,0.0317 0.37647,0.0679 0.56299,0.10938 -0.0645,0.18115 -0.13281,0.38379 -0.20019,0.59668 z"
             id="path7558"
             style="fill:#8abe4c;fill-opacity:1;fill-rule:nonzero;stroke:none"
             inkscape:connector-curvature="0" /><path
             d="m 297.90456,-523.04706 c -0.17187,-0.0781 -0.32861,-0.16211 -0.45898,-0.25147 0.009,-0.16748 0.0356,-0.33545 0.0801,-0.5 0.17285,0.0435 0.35644,0.0923 0.54492,0.14502 -0.0654,0.19531 -0.12305,0.40137 -0.16602,0.60645 z"
             id="path7560"
             style="fill:#6fad4f;fill-opacity:1;fill-rule:nonzero;stroke:none"
             inkscape:connector-curvature="0" /><path
             d="m 298.07058,-523.65351 c -0.18848,-0.0527 -0.37207,-0.10156 -0.54492,-0.14502 0.0449,-0.16455 0.10742,-0.32569 0.18799,-0.47803 0.19238,0.023 0.3833,0.0498 0.57226,0.0815 -0.0757,0.16163 -0.14941,0.3462 -0.21533,0.54151 z"
             id="path7562"
             style="fill:#77b24e;fill-opacity:1;fill-rule:nonzero;stroke:none"
             inkscape:connector-curvature="0" /><path
             d="m 300.93387,-523.33906 c -0.0674,-0.0322 -0.14014,-0.0674 -0.2168,-0.10449 0.0117,-0.0977 0.0205,-0.19824 0.0259,-0.29981 0.0703,0.0454 0.13721,0.0889 0.19873,0.12745 0.003,0.0913 9.8e-4,0.18359 -0.008,0.27685 z"
             id="path7564"
             style="fill:#5da450;fill-opacity:1;fill-rule:nonzero;stroke:none"
             inkscape:connector-curvature="0" /><path
             d="m 300.94168,-523.61591 c -0.0615,-0.0386 -0.12842,-0.082 -0.19873,-0.12745 0.005,-0.10156 0.007,-0.20312 0.004,-0.30273 0.0625,0.0542 0.11914,0.1084 0.16894,0.16113 0.0142,0.0879 0.0225,0.17774 0.0254,0.26905 z"
             id="path7566"
             style="fill:#5da450;fill-opacity:1;fill-rule:nonzero;stroke:none"
             inkscape:connector-curvature="0" /><path
             d="m 300.71707,-523.44355 c -0.0767,-0.0371 -0.15722,-0.0757 -0.24072,-0.11426 0.0181,-0.10742 0.0337,-0.2168 0.0454,-0.32568 0.0772,0.0474 0.15088,0.0942 0.22119,0.14013 -0.005,0.10157 -0.0142,0.20215 -0.0259,0.29981 z"
             id="path7568"
             style="fill:#7ab44e;fill-opacity:1;fill-rule:nonzero;stroke:none"
             inkscape:connector-curvature="0" /><path
             d="m 300.74295,-523.74336 c -0.0703,-0.0459 -0.14404,-0.0928 -0.22119,-0.14013 0.0117,-0.10889 0.0205,-0.21729 0.0254,-0.32276 0.0708,0.0518 0.13818,0.10596 0.2002,0.16016 0.003,0.0996 9.7e-4,0.20117 -0.004,0.30273 z"
             id="path7570"
             style="fill:#77b24e;fill-opacity:1;fill-rule:nonzero;stroke:none"
             inkscape:connector-curvature="0" /><path
             d="m 300.91629,-523.88496 c -0.0278,-0.17529 -0.0772,-0.34277 -0.14551,-0.49707 -0.0322,-0.0737 -0.0684,-0.14453 -0.10888,-0.21191 0.0542,0.15869 0.0796,0.34863 0.0854,0.54785 0.0625,0.0542 0.11914,0.1084 0.16894,0.16113 z"
             id="path7572"
             style="fill:#5da450;fill-opacity:1;fill-rule:nonzero;stroke:none"
             inkscape:connector-curvature="0" /><path
             d="m 300.74735,-524.04609 c -0.006,-0.19922 -0.0312,-0.38916 -0.0854,-0.54785 -0.0405,-0.0674 -0.085,-0.13184 -0.1333,-0.1919 0.0225,0.16846 0.0278,0.36865 0.0186,0.57959 0.0708,0.0518 0.13818,0.10596 0.2002,0.16016 z"
             id="path7574"
             style="fill:#6fad4f;fill-opacity:1;fill-rule:nonzero;stroke:none"
             inkscape:connector-curvature="0" /><path
             d="m 300.47635,-523.55781 c -0.0835,-0.0386 -0.16943,-0.0771 -0.25684,-0.11328 0.0249,-0.1167 0.0459,-0.2334 0.0635,-0.34766 0.0825,0.0425 0.16162,0.0889 0.23877,0.13526 -0.0117,0.10888 -0.0273,0.21826 -0.0454,0.32568 z"
             id="path7576"
             style="fill:#8fc14b;fill-opacity:1;fill-rule:nonzero;stroke:none"
             inkscape:connector-curvature="0" /><path
             d="m 300.52176,-523.88349 c -0.0771,-0.0464 -0.15625,-0.0928 -0.23877,-0.13526 0.0176,-0.11425 0.0317,-0.22656 0.0435,-0.33594 0.0757,0.0464 0.1499,0.0967 0.2207,0.14844 -0.005,0.10547 -0.0137,0.21387 -0.0254,0.32276 z"
             id="path7578"
             style="fill:#8abe4c;fill-opacity:1;fill-rule:nonzero;stroke:none"
             inkscape:connector-curvature="0" /><path
             d="m 300.21951,-523.67109 c -0.0874,-0.0366 -0.17627,-0.0713 -0.26611,-0.10205 0.0283,-0.12158 0.0547,-0.24219 0.0786,-0.36084 0.0854,0.0337 0.16944,0.0723 0.25098,0.11523 -0.0176,0.11426 -0.0386,0.23096 -0.0635,0.34766 z"
             id="path7580"
             style="fill:#9bca49;fill-opacity:1;fill-rule:nonzero;stroke:none"
             inkscape:connector-curvature="0" /><path
             d="m 300.28299,-524.01875 c -0.0815,-0.043 -0.16553,-0.0815 -0.25098,-0.11523 0.0239,-0.11817 0.0454,-0.23438 0.0654,-0.34668 0.0767,0.0371 0.15381,0.0796 0.22901,0.12597 -0.0117,0.10938 -0.0259,0.22169 -0.0435,0.33594 z"
             id="path7582"
             style="fill:#96c64a;fill-opacity:1;fill-rule:nonzero;stroke:none"
             inkscape:connector-curvature="0" /><path
             d="m 300.54715,-524.20625 c -0.0708,-0.0518 -0.14502,-0.10205 -0.2207,-0.14844 0.0117,-0.10888 0.0205,-0.21435 0.0278,-0.31445 0.0669,0.0488 0.1333,0.10156 0.1958,0.15723 0.003,0.0976 0.002,0.20019 -0.003,0.30566 z"
             id="path7584"
             style="fill:#7fb64d;fill-opacity:1;fill-rule:nonzero;stroke:none"
             inkscape:connector-curvature="0" /><path
             d="m 300.55008,-524.51191 c -0.0625,-0.0557 -0.12891,-0.1084 -0.1958,-0.15723 0.007,-0.10059 0.0127,-0.19629 0.0176,-0.28564 0.0561,0.0522 0.1084,0.10888 0.15674,0.16894 0.0112,0.0845 0.0186,0.17627 0.0215,0.27393 z"
             id="path7586"
             style="fill:#6fad4f;fill-opacity:1;fill-rule:nonzero;stroke:none"
             inkscape:connector-curvature="0" /><path
             d="m 300.32645,-524.35469 c -0.0752,-0.0464 -0.15235,-0.0889 -0.22901,-0.12597 0.02,-0.11231 0.0376,-0.22071 0.0532,-0.32422 0.0674,0.041 0.13624,0.0859 0.20362,0.13574 -0.007,0.1001 -0.0161,0.20557 -0.0278,0.31445 z"
             id="path7588"
             style="fill:#8abe4c;fill-opacity:1;fill-rule:nonzero;stroke:none"
             inkscape:connector-curvature="0" /><path
             d="m 300.35428,-524.66914 c -0.0674,-0.0498 -0.13623,-0.0947 -0.20362,-0.13574 0.0156,-0.10352 0.0293,-0.20166 0.0415,-0.29297 0.0635,0.043 0.12353,0.0908 0.17969,0.14307 -0.005,0.0894 -0.0103,0.18505 -0.0176,0.28564 z"
             id="path7590"
             style="fill:#77b24e;fill-opacity:1;fill-rule:nonzero;stroke:none"
             inkscape:connector-curvature="0" /><path
             d="m 299.9534,-523.77314 c -0.18213,-0.0635 -0.36524,-0.12061 -0.54883,-0.17236 0.0308,-0.11573 0.0645,-0.23633 0.0986,-0.3584 0.17774,0.0469 0.35498,0.10302 0.52881,0.16992 -0.0239,0.11865 -0.0503,0.23926 -0.0786,0.36084 z"
             id="path7592"
             style="fill:#9ecc48;fill-opacity:1;fill-rule:nonzero;stroke:none"
             inkscape:connector-curvature="0" /><path
             d="m 300.03201,-524.13398 c -0.17383,-0.0669 -0.35107,-0.12305 -0.52881,-0.16992 0.0337,-0.12159 0.0684,-0.24415 0.10156,-0.36329 0.17139,0.0488 0.33692,0.11084 0.49268,0.18653 -0.02,0.1123 -0.0415,0.22851 -0.0654,0.34668 z"
             id="path7594"
             style="fill:#9bca49;fill-opacity:1;fill-rule:nonzero;stroke:none"
             inkscape:connector-curvature="0" /><path
             d="m 299.40457,-523.9455 c -0.18408,-0.0522 -0.36914,-0.0986 -0.55567,-0.14014 0.0361,-0.10205 0.0737,-0.21533 0.11231,-0.33203 0.18213,0.0298 0.36328,0.0669 0.54199,0.11377 -0.0342,0.12207 -0.0679,0.24267 -0.0986,0.3584 z"
             id="path7596"
             style="fill:#9bca49;fill-opacity:1;fill-rule:nonzero;stroke:none"
             inkscape:connector-curvature="0" /><path
             d="m 299.5032,-524.3039 c -0.17871,-0.0469 -0.35986,-0.084 -0.54199,-0.11377 0.0386,-0.1167 0.0781,-0.23682 0.11816,-0.35303 0.17823,0.0205 0.3545,0.0552 0.52539,0.10351 -0.0332,0.11914 -0.0679,0.2417 -0.10156,0.36329 z"
             id="path7598"
             style="fill:#96c64a;fill-opacity:1;fill-rule:nonzero;stroke:none"
             inkscape:connector-curvature="0" /><path
             d="m 300.09744,-524.48066 c -0.15576,-0.0757 -0.32129,-0.1377 -0.49268,-0.18653 0.0337,-0.11865 0.0664,-0.2334 0.0957,-0.33984 0.16015,0.0498 0.3125,0.11719 0.45019,0.20215 -0.0156,0.10351 -0.0332,0.21191 -0.0532,0.32422 z"
             id="path7600"
             style="fill:#8fc14b;fill-opacity:1;fill-rule:nonzero;stroke:none"
             inkscape:connector-curvature="0" /><path
             d="m 300.15066,-524.80488 c -0.13769,-0.085 -0.29004,-0.15235 -0.45019,-0.20215 0.0293,-0.10596 0.0557,-0.20361 0.0772,-0.28809 0.1455,0.043 0.28515,0.10889 0.41455,0.19727 -0.0122,0.0913 -0.0259,0.18945 -0.0415,0.29297 z"
             id="path7602"
             style="fill:#7ab44e;fill-opacity:1;fill-rule:nonzero;stroke:none"
             inkscape:connector-curvature="0" /><path
             d="m 299.60476,-524.66719 c -0.17089,-0.0483 -0.34716,-0.083 -0.52539,-0.10351 0.04,-0.11621 0.0811,-0.22803 0.12207,-0.32813 0.17041,0.0107 0.33838,0.0425 0.49903,0.0918 -0.0293,0.10644 -0.062,0.22119 -0.0957,0.33984 z"
             id="path7604"
             style="fill:#8abe4c;fill-opacity:1;fill-rule:nonzero;stroke:none"
             inkscape:connector-curvature="0" /><path
             d="m 299.70047,-525.00703 c -0.16065,-0.0493 -0.32862,-0.0811 -0.49903,-0.0918 0.0415,-0.1001 0.083,-0.18848 0.125,-0.25781 0.15332,-0.002 0.30518,0.0186 0.45118,0.0615 -0.0215,0.0845 -0.0479,0.18213 -0.0772,0.28809 z"
             id="path7606"
             style="fill:#77b24e;fill-opacity:1;fill-rule:nonzero;stroke:none"
             inkscape:connector-curvature="0" /><path
             d="m 298.8489,-524.08564 c -0.18652,-0.0415 -0.37402,-0.0776 -0.56299,-0.10938 0.0415,-0.0893 0.083,-0.18799 0.12549,-0.28955 0.18457,0.0156 0.36768,0.0371 0.54981,0.0669 -0.0386,0.1167 -0.0762,0.22998 -0.11231,0.33203 z"
             id="path7608"
             style="fill:#8fc14b;fill-opacity:1;fill-rule:nonzero;stroke:none"
             inkscape:connector-curvature="0" /><path
             d="m 298.96121,-524.41767 c -0.18213,-0.0298 -0.36524,-0.0513 -0.54981,-0.0669 0.043,-0.10156 0.0869,-0.20605 0.13379,-0.30615 0.17676,-0.007 0.35645,-4.9e-4 0.53418,0.02 -0.04,0.11621 -0.0796,0.23633 -0.11816,0.35303 z"
             id="path7610"
             style="fill:#8abe4c;fill-opacity:1;fill-rule:nonzero;stroke:none"
             inkscape:connector-curvature="0" /><path
             d="m 298.28591,-524.19502 c -0.18896,-0.0317 -0.37988,-0.0586 -0.57226,-0.0815 0.0439,-0.083 0.0923,-0.16211 0.14502,-0.23731 0.18457,0.005 0.36914,0.0137 0.55273,0.0293 -0.0425,0.10156 -0.084,0.2002 -0.12549,0.28955 z"
             id="path7612"
             style="fill:#7ab44e;fill-opacity:1;fill-rule:nonzero;stroke:none"
             inkscape:connector-curvature="0" /><path
             d="m 298.4114,-524.48457 c -0.18359,-0.0156 -0.36816,-0.0244 -0.55273,-0.0293 0.0522,-0.0752 0.10839,-0.14648 0.16796,-0.21289 0.16749,-0.0351 0.3418,-0.0566 0.51856,-0.064 -0.0469,0.1001 -0.0908,0.20459 -0.13379,0.30615 z"
             id="path7614"
             style="fill:#77b24e;fill-opacity:1;fill-rule:nonzero;stroke:none"
             inkscape:connector-curvature="0" /><path
             d="m 299.07937,-524.7707 c 0.0801,-0.23242 0.16358,-0.44776 0.24707,-0.58594 -0.15332,0.002 -0.3081,0.0273 -0.45996,0.0752 -0.125,0.10791 -0.22852,0.29053 -0.32129,0.49073 0.17676,-0.007 0.35645,-4.9e-4 0.53418,0.02 z"
             id="path7616"
             style="fill:#7fb64d;fill-opacity:1;fill-rule:nonzero;stroke:none"
             inkscape:connector-curvature="0" /><path
             d="m 298.54519,-524.79072 c 0.0928,-0.2002 0.19629,-0.38282 0.32129,-0.49073 -0.15234,0.0483 -0.30176,0.11915 -0.44385,0.2129 -0.14306,0.0937 -0.27637,0.20898 -0.396,0.34179 0.16749,-0.0351 0.3418,-0.0566 0.51856,-0.064 z"
             id="path7618"
             style="fill:#6fad4f;fill-opacity:1;fill-rule:nonzero;stroke:none"
             inkscape:connector-curvature="0" /></g></g></g></g></g></svg>