<?xml version="1.0" encoding="utf-8"?>
<!-- Generator: Adobe Illustrator 16.0.0, SVG Export Plug-In . SVG Version: 6.00 Build 0)  -->
<!DOCTYPE svg PUBLIC "-//W3C//DTD SVG 1.1//EN" "http://www.w3.org/Graphics/SVG/1.1/DTD/svg11.dtd">
<svg version="1.1" id="Layer_1" xmlns="http://www.w3.org/2000/svg" xmlns:xlink="http://www.w3.org/1999/xlink" x="0px" y="0px"
	 width="41.875px" height="51.5px" viewBox="0 0 41.875 51.5" enable-background="new 0 0 41.875 51.5" xml:space="preserve">
<g>
	<g>
		<g>
			<g>
				<g>
					<path fill="#212121" d="M1.12,24.981C1.097,31.021,2.73,37.109,6.115,41.96c1.681,2.419,3.813,4.483,6.261,5.935
						c2.441,1.457,5.217,2.237,7.987,2.2c2.774-0.03,5.499-0.877,7.87-2.366c2.387-1.476,4.406-3.563,6.024-5.938
						c3.237-4.771,4.843-10.725,4.854-16.574c0.05-5.914-1.496-11.838-4.688-16.658c-1.594-2.394-3.594-4.504-5.962-6.007
						C26.113,1.038,23.37,0.163,20.633,0.1c-2.806-0.065-5.561,0.684-8.026,2.113c-2.463,1.422-4.616,3.464-6.321,5.861
						c-3.435,4.811-5.131,10.89-5.17,16.917L1.12,24.981L1.12,24.981z"/>
				</g>
			</g>
		</g>
	</g>
</g>
<g>
	<g>
		<g>
			<g>
				<g>
					<path fill="#3F3F3F" d="M34.428,8.559c-1.137-1.708-2.484-3.267-4.021-4.568c0.454,0.386,0.688,2.247,0.887,2.846
						c3.44,10.351,3.642,21.549,1.381,32.169c-0.36,1.698-0.928,5.985-2.301,7.151c1.476-1.253,2.774-2.739,3.886-4.366
						c3.237-4.771,4.844-10.725,4.854-16.574C39.162,19.303,37.616,13.378,34.428,8.559z"/>
				</g>
			</g>
		</g>
	</g>
</g>
<g>
	<g>
		<g>
			<g>
				<g>
					<path fill="#0C0C0C" d="M14.709,42.098c-4.011-7.627-7.661-15.305-6.478-24.177c0.842-6.318,3.737-12.235,7.772-17.175
						C14.831,1.1,13.691,1.587,12.61,2.213c-2.463,1.422-4.616,3.464-6.321,5.861C2.856,12.882,1.16,18.958,1.12,24.981l0,0
						C1.097,31.021,2.73,37.109,6.115,41.96c1.681,2.419,3.813,4.483,6.261,5.935c2.441,1.457,5.217,2.237,7.987,2.2
						c0.057-0.001,0.114-0.007,0.171-0.008C19.001,47.367,16.237,45.004,14.709,42.098z"/>
				</g>
			</g>
		</g>
	</g>
</g>
<g>
	<g>
		<g>
			<g>
				<g>
					<path d="M1.88,24.99c-0.022,5.572,1.546,11.188,4.795,15.662c1.614,2.229,3.66,4.136,6.011,5.472
						c2.344,1.343,5.008,2.063,7.668,2.03c2.662-0.027,5.278-0.812,7.556-2.182c2.288-1.361,4.229-3.287,5.781-5.479
						c3.106-4.4,4.647-9.892,4.662-15.287c0.047-5.455-1.438-10.919-4.498-15.365C32.327,7.633,30.407,5.687,28.13,4.3
						c-2.254-1.396-4.889-2.203-7.516-2.261c-2.693-0.062-5.339,0.631-7.706,1.948C10.546,5.3,8.479,7.184,6.842,9.395
						C3.545,13.833,1.916,19.44,1.879,24.999L1.88,24.99L1.88,24.99z M0.455,24.99c0.018-5.823,1.658-11.719,5.072-16.551
						c1.707-2.402,3.859-4.543,6.447-6.078c2.564-1.547,5.604-2.443,8.621-2.467c3.084-0.033,6.118,0.809,8.764,2.328
						c2.646,1.512,4.904,3.637,6.67,6.076c3.548,4.895,5.213,10.967,5.191,16.895c-0.046,5.984-1.772,11.997-5.373,16.866
						c-1.791,2.422-4.07,4.521-6.734,6.006c-2.653,1.492-5.721,2.304-8.771,2.232c-3.051-0.055-6.055-0.982-8.61-2.559
						c-2.571-1.563-4.701-3.729-6.383-6.146c-3.36-4.865-4.938-10.787-4.894-16.597V24.99L0.455,24.99z"/>
				</g>
			</g>
		</g>
	</g>
</g>
<g>
	<g>
		<g>
			<g>
				<g>
					<path d="M28.434,11.943c-0.041,0.044-0.082,0.088-0.14,0.125c-0.36,0.231-0.705,0.471-1.13,0.568
						c-0.045,0.01-0.084,0.004-0.126,0.007c1.651,3.951,2.526,8.331,2.554,12.713h-0.001c0.022,6.214-1.546,12.479-4.795,17.469
						c-1.412,2.174-3.151,4.071-5.14,5.51c0.154,0.031,0.313,0.06,0.465,0.09c0.622,0.136,1.208,0.343,1.768,0.597
						c1.631-1.482,3.047-3.238,4.232-5.146c3.359-5.428,4.938-12.031,4.895-18.511v-0.007l0,0
						C31.004,20.765,30.129,16.161,28.434,11.943z"/>
				</g>
			</g>
		</g>
	</g>
</g>
<g>
	<g>
		<g>
			<g>
				<g>
					<path d="M27.957,12.575c0.143-0.209,0.309-0.391,0.466-0.583c-0.067,0.083-0.435,0.123-0.541,0.15
						c-1.563,0.409-3.161,0.408-4.753,0.167c-0.62-0.094-1.232-0.222-1.848-0.346c-4.587-0.919-9.007-3.153-12.835-6.181
						c-0.399,0.32-0.811,0.607-1.238,0.853c4.083,3.353,8.847,5.879,13.897,7.012c2.508,0.557,5.086,0.763,7.59,0.497
						C29.087,13.459,27.404,13.107,27.957,12.575z"/>
				</g>
			</g>
		</g>
	</g>
</g>
<g>
	<g>
		<g>
			<g>
				<g>
					<path d="M31.355,5.426c-0.153,0.446-0.299,0.897-0.478,1.333c-0.231,0.581-0.466,1.163-0.729,1.732
						c-0.674,1.46-1.555,2.794-2.758,3.875c-0.08,0.074-0.315,0.358-0.425,0.368c0.247-0.025,0.49-0.063,0.744-0.067
						c0.747-0.167,0.114,1.43,0.899,1.481c1.603-1.943,2.852-4.208,3.77-6.609c0.154-0.408,0.277-0.827,0.414-1.242
						C32.295,6.045,31.813,5.753,31.355,5.426z"/>
				</g>
			</g>
		</g>
	</g>
</g>
<path fill="#3F3F3F" d="M26.438,16.154c-4.125,0.78-11.125-2.654-11.125-2.654v0.647c15.313,8.147,8.5,27.478,8.5,27.478
	C31.563,27.625,26.438,16.154,26.438,16.154z"/>
<circle cx="26.434" cy="16.5" r="0.536"/>
<circle cx="27.504" cy="25.5" r="0.536"/>
<circle cx="26.434" cy="34.833" r="0.536"/>
<circle cx="23.504" cy="41.625" r="0.536"/>
</svg>
