<?xml version="1.0" encoding="utf-8"?>
<!-- Generator: Adobe Illustrator 16.0.0, SVG Export Plug-In . SVG Version: 6.00 Build 0)  -->
<!DOCTYPE svg PUBLIC "-//W3C//DTD SVG 1.1//EN" "http://www.w3.org/Graphics/SVG/1.1/DTD/svg11.dtd">
<svg version="1.1" id="Layer_1" xmlns="http://www.w3.org/2000/svg" xmlns:xlink="http://www.w3.org/1999/xlink" x="0px" y="0px"
	 width="21.813px" height="41.154px" viewBox="0 0 21.813 41.154" enable-background="new 0 0 21.813 41.154" xml:space="preserve">
<g id="g3_1_">
	<g id="g5_1_">
		<g id="g7_1_">
			<g id="g9_1_">
				<g id="g11_1_">
					<path id="path13_1_" fill="#212121" d="M16.234,29.858c-0.394,8.731-0.273,6.455-7.265,6.143
						C1.98,35.688,4.607,38.161,5,29.427c0.393-8.733-3.104-14.153,3.883-13.84C15.875,15.902,16.624,21.126,16.234,29.858z"/>
					<path id="path67_2_" fill="#0C0C0C" d="M16.064,34.378c-1.236-2.965-11.521-1.778-11.521-1.778
						c0-7.136,5.354-6.679,5.354-6.679C16.836,25.134,16.064,34.378,16.064,34.378L16.064,34.378z"/>
					<g id="g16_1_">
						<path id="path18_1_" d="M16.764,29.885c-0.051,1.242-0.088,2.482-0.186,3.748c-0.052,0.64-0.094,1.271-0.296,1.974
							c-0.105,0.342-0.271,0.75-0.651,1.074c-0.39,0.325-0.859,0.42-1.228,0.446c-0.741,0.045-1.354-0.047-1.979-0.102
							c-0.62-0.062-1.229-0.119-1.836-0.156c-1.213-0.08-2.431-0.092-3.627-0.014c-0.604,0.037-1.184,0.104-1.834,0.172
							c-0.171,0.014-0.343,0.029-0.589,0.021c-0.129-0.01-0.282-0.016-0.524-0.104c-0.237-0.066-0.601-0.394-0.698-0.693
							c-0.185-0.565-0.084-0.742-0.084-0.955l0.082-0.521c0.231-1.229,0.394-2.379,0.5-3.588c0.211-2.4,0.188-4.813-0.033-7.254
							c-0.086-1.229-0.226-2.461-0.273-3.763c-0.015-0.649-0.015-1.32,0.093-2.036c0.107-0.7,0.351-1.521,0.954-2.175
							c0.601-0.656,1.416-0.958,2.117-1.085c0.717-0.132,1.398-0.136,2.058-0.102c1.272,0.069,2.677,0.302,3.908,0.905
							c1.258,0.593,2.313,1.657,2.919,2.871c0.618,1.21,0.918,2.502,1.088,3.773C16.956,24.874,16.88,27.385,16.764,29.885z
							 M15.693,29.835c0.085-2.469,0.161-4.955-0.218-7.34c-0.188-1.184-0.494-2.348-1.063-3.326
							c-0.558-0.982-1.382-1.737-2.396-2.171c-0.507-0.22-1.05-0.366-1.611-0.464c-0.284-0.05-0.566-0.082-0.845-0.104
							c-0.275-0.021-0.648-0.04-0.892-0.04c-1.144-0.018-2.349,0.177-2.787,0.765C5.4,17.704,5.37,18.91,5.466,20.072
							c0.084,1.185,0.25,2.421,0.383,3.671c0.26,2.506,0.355,5.09,0.072,7.646c-0.113,1.268-0.363,2.573-0.646,3.776l-0.082,0.4
							c-0.037,0.094,0.015,0.235-0.063-0.033c-0.043-0.152-0.285-0.361-0.379-0.377c-0.098-0.041-0.093-0.023-0.07-0.021
							c0.065,0.015,0.203,0.019,0.347,0.015c0.589-0.021,1.255-0.051,1.893-0.041c1.286,0.01,2.562,0.108,3.82,0.268
							c1.241,0.135,2.556,0.455,3.603,0.484c0.515-0.023,0.604-0.103,0.816-0.621c0.166-0.492,0.244-1.104,0.312-1.703
							C15.581,32.321,15.632,31.073,15.693,29.835z"/>
					</g>
				</g>
			</g>
			<g id="g20_1_">
				<path id="path22_1_" fill="#212121" d="M19.642,20.008c-0.596,13.309-0.417,9.84-11.067,9.358
					c-10.652-0.479-6.647,3.295-6.05-10.017C3.125,6.035-2.205,2.773,8.445,3.253C19.098,3.731,20.238,6.69,19.642,20.008z"/>
				<path id="path24_1_" fill="#3F3F3F" d="M19.146,27.229l-0.768,2.896h-2.728l-7.836-0.727l-6.483-0.23H0.73l0.849-1.992
					l0.793-5.454c2.64,6.204,16.008,4.313,16.008,4.313L19.146,27.229z"/>
				<path fill="#0C0C0C" d="M19.085,17.233l0.496,2.774l-0.496,1.715c0,0-2.729-4.521-16.579-3.797L2.303,16.34
					C2.303,16.34,9.933,12.233,19.085,17.233z"/>
				<g id="g26_1_">
					<path id="path28_1_" d="M21.063,20.066c-0.12,1.537-0.233,3.072-0.387,4.634c-0.078,0.781-0.165,1.563-0.3,2.377
						c-0.154,0.813-0.287,1.646-0.827,2.6c-0.269,0.472-0.772,0.974-1.351,1.199c-0.57,0.234-1.09,0.26-1.544,0.26
						c-0.901-0.022-1.667-0.172-2.438-0.295c-1.524-0.252-3.013-0.496-4.523-0.647c-1.513-0.17-3.024-0.219-4.541-0.195
						c-0.758,0.015-1.512,0.058-2.289,0.099c-0.407,0.004-0.756,0.063-1.342-0.06c-0.147-0.041-0.352-0.117-0.522-0.299
						c-0.17-0.182-0.246-0.406-0.271-0.563c-0.05-0.323-0.012-0.539,0.015-0.754c0.291-1.598,0.562-3.03,0.666-4.563
						c0.104-1.517,0.11-3.039-0.054-4.561L1.35,19.306c0.149-2.206,0.136,0.595-0.021-1.625C1.2,15.46,0.87,13.25,0.684,10.953
						C0.597,9.804,0.531,8.631,0.656,7.377C0.72,6.75,0.841,6.097,1.095,5.44c0.246-0.656,0.666-1.312,1.223-1.827
						c1.146-1.039,2.543-1.358,3.767-1.509C7.34,1.966,8.506,2.004,9.709,2.106c2.366,0.212,4.928,0.916,6.931,2.646
						c2.019,1.717,3.104,4.164,3.688,6.479c0.585,2.343,0.79,4.681,0.865,6.985C21.28,20.52,21.18,17.802,21.063,20.066z
						 M18.223,19.94c0.097-4.442,0.324-3.947-0.579-8.058c-0.467-2.029-1.306-3.901-2.729-5.161
						c-1.405-1.277-3.379-1.923-5.464-2.155c-1.036-0.113-2.134-0.162-3.118-0.07C5.343,4.59,4.441,4.848,3.892,5.343
						c-0.551,0.477-0.858,1.297-0.979,2.29c-0.121,0.985-0.09,2.072-0.027,3.165c0.311,4.401,0.92,3.999,0.811,8.597v-0.025
						l-0.006,0.033l-0.846,4.644l-0.467,2.302c-0.164,0.752-0.367,1.534-0.474,2.229c-0.022,0.166-0.032,0.338-0.021,0.396
						c0.006,0.028,0.002-0.005-0.035-0.046c-0.04-0.038-0.057-0.03-0.022-0.021c0.17,0.041,0.604,0.008,0.959-0.021
						c0.76-0.071,1.541-0.146,2.321-0.188c1.562-0.084,3.127-0.064,4.689-0.021c1.563,0.054,3.132,0.195,4.657,0.347
						c0.756,0.065,1.521,0.133,2.159,0.092c0.314-0.021,0.577-0.082,0.714-0.164c0.134-0.082,0.194-0.156,0.298-0.361
						c0.197-0.407,0.312-1.133,0.381-1.832c0.07-0.719,0.106-1.469,0.133-2.223C18.189,23.018,18.2,21.479,18.223,19.94z"/>
				</g>
			</g>
		</g>
	</g>
	<path id="path30_1_" fill="#3F3F3F" d="M18.278,15.128c0-0.008,0.771-6.317-4.479-9.184c0,0-2.168-1.983-8.489-1.286
		c0,0-1.616,0.294-1.912,1.285C3.298,6.271,3.533,6.789,3.722,7.031C4.021,7.409,5.013,7.424,5.45,7.486
		c0.765,0.11,1.532,0.179,2.302,0.253c1.006,0.1,1.953,0.435,2.89,0.799c2.646,1.033,4.969,2.824,6.318,5.376
		c0.458,0.865,0.745,1.803,0.927,2.761C18.088,17.747,18.352,14.034,18.278,15.128z"/>
</g>
<g>
	<path d="M2.021,16.216c-0.013,0.013,0.238-0.218,0.678-0.506c0.225-0.134,0.493-0.314,0.819-0.479
		c0.32-0.183,0.697-0.353,1.117-0.519c0.418-0.167,0.884-0.321,1.384-0.453c0.501-0.128,1.035-0.254,1.598-0.312
		c0.559-0.099,1.142-0.111,1.734-0.131c0.592-0.005,1.193,0.038,1.792,0.084c0.59,0.102,1.188,0.171,1.761,0.303
		c0.566,0.158,1.131,0.292,1.656,0.472c0.519,0.202,1.019,0.398,1.491,0.583c0.462,0.209,0.879,0.448,1.271,0.648
		c0.795,0.384,1.362,0.86,1.796,1.126c0.419,0.29,0.65,0.463,0.65,0.463l-0.522,0.853c0,0-0.265-0.104-0.711-0.299
		c-0.223-0.1-0.491-0.22-0.801-0.357c-0.303-0.15-0.663-0.273-1.05-0.417c-0.385-0.145-0.801-0.3-1.241-0.466
		c-0.447-0.135-0.92-0.275-1.406-0.421c-0.488-0.14-1.006-0.225-1.521-0.349c-0.518-0.109-1.052-0.158-1.58-0.244
		c-0.532-0.022-1.063-0.093-1.589-0.092c-0.522,0.018-1.042-0.009-1.538,0.05c-0.999,0.061-1.917,0.243-2.701,0.422
		c-0.78,0.194-1.422,0.403-1.858,0.578c-0.438,0.179-0.654,0.274-0.667,0.286L2.021,16.216z"/>
</g>
<ellipse cx="15.093" cy="13.274" rx="0.354" ry="0.458"/>
<ellipse cx="10.906" cy="12.357" rx="0.354" ry="0.458"/>
<ellipse cx="5.802" cy="12.816" rx="0.354" ry="0.458"/>
</svg>
