<?xml version="1.0" encoding="utf-8"?>
<!-- Generator: Adobe Illustrator 16.0.0, SVG Export Plug-In . SVG Version: 6.00 Build 0)  -->
<!DOCTYPE svg PUBLIC "-//W3C//DTD SVG 1.1//EN" "http://www.w3.org/Graphics/SVG/1.1/DTD/svg11.dtd">
<svg version="1.1" id="Layer_1" xmlns="http://www.w3.org/2000/svg" xmlns:xlink="http://www.w3.org/1999/xlink" x="0px" y="0px"
	 width="18.878px" height="20.104px" viewBox="0 0 18.878 20.104" enable-background="new 0 0 18.878 20.104" xml:space="preserve">
<g>
	<g>
		<g>
			<path fill="#212121" d="M15.236,11.2c0.053,0.768,0.287,3.341,0.215,4.049c-0.199,1.956-1.615,2.964-3.397,3.439
				c-1.681,0.45-3.516,0.418-5.231,0.188c-1.688-0.227-3.681-0.652-4.484-2.382c-0.819-1.761-1.221-3.712-1.123-5.65
				c0.068-1.346,0.546-2.62,0.982-3.879C3.07,4.456,5.166,0.64,8.356,1.097c1.063,0.152,2.337,0.536,2.933,1.507
				c0.674,1.094,0.396,2.564,1.164,3.647c0.793,1.119,1.586,2.212,2.307,3.384"/>
			<path d="M15.236,11.2c0.553,1.006,0.777,2.033,0.885,3.104c0.172,1.035-0.041,2.517-0.891,3.508
				c-0.832,1.027-2.018,1.54-3.109,1.855c-1.115,0.327-2.258,0.414-3.374,0.409c-1.135-0.014-2.176-0.12-3.311-0.351
				c-1.1-0.235-2.369-0.642-3.332-1.685c-0.479-0.509-0.79-1.202-0.969-1.667c-0.217-0.54-0.391-1.07-0.533-1.623
				c-0.283-1.1-0.428-2.234-0.408-3.372l0.019-0.427l0.017-0.244l0.021-0.194c0.02-0.237,0.08-0.576,0.136-0.871
				c0.121-0.565,0.286-1.103,0.462-1.62l0.553-1.502C1.601,6,1.825,5.498,2.077,5.004C2.581,4.02,3.183,3.069,3.972,2.229
				C4.753,1.403,5.778,0.643,7.036,0.43C7.64,0.318,8.325,0.378,8.85,0.503C9.407,0.624,9.964,0.8,10.501,1.091
				c0.531,0.286,1.051,0.733,1.354,1.323c0.301,0.571,0.396,1.16,0.502,1.681c0.094,0.521,0.203,1,0.367,1.388
				c0.098,0.209,0.158,0.331,0.316,0.563c0.137,0.224,0.278,0.443,0.405,0.674c0.523,0.913,1.009,1.871,1.312,2.915
				c-0.805-0.729-1.51-1.494-2.195-2.288c-0.174-0.196-0.336-0.402-0.5-0.604c-0.154-0.188-0.365-0.517-0.463-0.793
				c-0.24-0.582-0.281-1.148-0.369-1.655c-0.08-0.504-0.186-0.964-0.402-1.309C10.63,2.65,10.314,2.393,9.919,2.202
				C9.133,1.849,8.071,1.636,7.302,1.815C6.48,1.993,5.741,2.564,5.134,3.277C4.524,3.996,4.03,4.853,3.628,5.75
				C3.427,6.199,3.247,6.662,3.092,7.126L2.626,8.594c-0.289,0.975-0.457,1.849-0.422,2.794c0.016,0.954,0.146,1.909,0.404,2.831
				c0.127,0.458,0.289,0.92,0.471,1.348c0.211,0.502,0.352,0.771,0.594,1.031c0.957,1.043,3.226,1.263,5.125,1.399
				c0.976,0.041,1.94-0.021,2.856-0.203c0.92-0.18,1.75-0.534,2.318-1.089c0.572-0.582,0.842-1.313,0.813-2.349
				C14.8,13.336,14.839,12.281,15.236,11.2z"/>
		</g>
		<g>
			<path fill="#0C0C0C" d="M9.926,5.407c1.177,0.634,6.863,2.971,7.794,4.227c1.207,1.632-3.455,3.99-4.395,4.96"/>
			<path d="M9.926,5.407c0.951-0.429,1.628-0.364,2.261-0.125c0.625,0.241,1.248,0.502,1.855,0.802
				c1.219,0.608,2.367,1.324,3.52,2.249c0.287,0.254,0.596,0.471,0.895,0.972c0.336,0.526,0.258,1.255,0.053,1.662
				c-0.407,0.853-0.901,1.386-1.477,1.823c-1.186,0.813-2.455,1.25-3.707,1.804c0.354-0.62,0.869-1.099,1.328-1.593l1.375-1.399
				c0.424-0.43,0.959-0.819,1.092-1.202c0.064-0.192,0.017-0.219-0.021-0.257c-0.052-0.073-0.308-0.257-0.55-0.399
				c-1.043-0.599-2.313-1.043-3.491-1.604c-0.597-0.277-1.185-0.579-1.771-0.896C10.708,6.919,10.162,6.448,9.926,5.407z"/>
		</g>
	</g>
	<path fill="#3F3F3F" d="M2.362,13.126c0,0,4.455,4.438,12.468,0.835c-0.037,0.218-0.027,0.645-0.033,0.729
		c-0.031,0.388-0.058,0.836-0.205,1.197c-0.521,1.272-1.91,1.759-3.184,1.973c-1.449,0.244-2.906,0.375-4.36,0.088
		c-0.951-0.188-1.957-0.339-2.804-0.85c-0.655-0.396-1.064-1.12-1.352-1.813c-0.129-0.313-0.222-0.638-0.298-0.967
		c-0.044-0.19-0.083-0.384-0.12-0.575C2.45,13.611,2.362,13.286,2.362,13.126z"/>
</g>
</svg>
