<?xml version="1.0" encoding="utf-8"?>
<!-- Generator: Adobe Illustrator 16.0.0, SVG Export Plug-In . SVG Version: 6.00 Build 0)  -->
<!DOCTYPE svg PUBLIC "-//W3C//DTD SVG 1.1//EN" "http://www.w3.org/Graphics/SVG/1.1/DTD/svg11.dtd">
<svg version="1.1" id="Layer_1" xmlns="http://www.w3.org/2000/svg" xmlns:xlink="http://www.w3.org/1999/xlink" x="0px" y="0px"
	 width="165.162px" height="40px" viewBox="0 0 165.162 40" enable-background="new 0 0 165.162 40" xml:space="preserve">
<g>
	<g opacity="0.3" enable-background="new    ">
		<g>
			<g>
				<path fill="#FFFFFF" d="M82.58,40C54.018,40,0,35.82,0,20.001C0,4.18,54.018,0,82.58,0c28.563,0,82.582,4.18,82.582,20.001
					C165.162,35.82,111.144,40,82.58,40z M82.58,6C35.074,6,6,15.064,6,20.001C6,24.937,35.074,34,82.58,34
					c47.507,0,76.582-9.063,76.582-13.999C159.162,15.064,130.087,6,82.58,6z"/>
			</g>
		</g>
	</g>
	<g enable-background="new    ">
		<path fill="#FFFFFF" d="M82.58,37.5C37.676,37.5,2.5,29.813,2.5,20.001C2.5,10.188,37.676,2.5,82.58,2.5
			c44.906,0,80.082,7.688,80.082,17.501C162.662,29.813,127.486,37.5,82.58,37.5z M82.58,3.5C39.714,3.5,3.5,11.057,3.5,20.001
			C3.5,28.944,39.714,36.5,82.58,36.5c42.867,0,79.082-7.556,79.082-16.499C161.662,11.057,125.447,3.5,82.58,3.5z"/>
	</g>
	<g opacity="0.6" enable-background="new    ">
		<g>
			<path fill="#FFFFFF" d="M82.58,38.5C43.274,38.5,1.5,32.017,1.5,20.001C1.5,7.984,43.274,1.5,82.58,1.5
				c39.307,0,81.082,6.484,81.082,18.501C163.662,32.017,121.887,38.5,82.58,38.5z M82.58,4.5C37.892,4.5,4.5,12.684,4.5,20.001
				C4.5,27.317,37.892,35.5,82.58,35.5c44.689,0,78.082-8.183,78.082-15.499C160.662,12.684,127.27,4.5,82.58,4.5z"/>
		</g>
	</g>
</g>
</svg>
