<?xml version="1.0" encoding="utf-8"?>
<!-- Generator: Adobe Illustrator 16.0.0, SVG Export Plug-In . SVG Version: 6.00 Build 0)  -->
<!DOCTYPE svg PUBLIC "-//W3C//DTD SVG 1.1//EN" "http://www.w3.org/Graphics/SVG/1.1/DTD/svg11.dtd">
<svg version="1.1"
	 id="Layer_1" xmlns:sodipodi="http://sodipodi.sourceforge.net/DTD/sodipodi-0.dtd" xmlns:dc="http://purl.org/dc/elements/1.1/" xmlns:svg="http://www.w3.org/2000/svg" xmlns:rdf="http://www.w3.org/1999/02/22-rdf-syntax-ns#" xmlns:inkscape="http://www.inkscape.org/namespaces/inkscape" xmlns:cc="http://creativecommons.org/ns#" inkscape:version="0.48.2 r9819" sodipodi:docname="Arrow.svg"
	 xmlns="http://www.w3.org/2000/svg" xmlns:xlink="http://www.w3.org/1999/xlink" x="0px" y="0px" width="62.079px"
	 height="117.638px" viewBox="27.714 -27.717 62.079 117.638" enable-background="new 27.714 -27.717 62.079 117.638"
	 xml:space="preserve">
<g>
	<path opacity="0.3" fill="#515150" enable-background="new    " d="M84.207,38.986c-0.463,0.009-7.604-0.029-13.618-0.063
		l0.31-2.232v-4c-0.199-0.002-0.406-0.002-0.629-0.002c0-0.766-0.063-1.532-0.129-2.283c0.146-0.712,0.416-1.377,0.904-1.973
		l0.023-0.175c0,0.001,0,0.001,0,0.002l2.938-21.165v-4c-0.318-0.252-0.848-0.406-1.736-0.406c-1,0,2,3-1,2
		c-1.654-1.654-3.982-3.313-3.043-6.1H60.07c-0.221,1.314,0.01,2.754,0.133,4h-0.117c-0.397-1.333-1.346-2.667-1.686-4H48.35
		c-0.449,0-0.875,0.092-1.274,0.237c0.073,0.89,0.194,1.814,0.194,2.862c-0.482,0.963-1.432,1.457-2.506,1.715v4l2.197,23.035
		c0.242,0.02,0.454,0.078,0.652,0.151c0.039,0.015,0.082,0.024,0.12,0.041c0.259,0.112,0.471,0.278,0.658,0.469
		c-0.219,0.208-0.453,0.387-0.71,0.527v4l0.041,0.297l0,0l0.412,2.968c-7.524,0.042-16.114,0.165-17.276,0.443
		c-0.001-0.002-0.003-0.003-0.004-0.005c-0.049,0.013-0.1,0.026-0.125,0.04c-0.023,0.014-0.046,0.026-0.068,0.04
		c-0.271,0.162-0.491,0.363-0.678,0.586c0.705,1.476,0.559,2.82-0.178,4.1c0.023,0.046,0.053,0.087,0.077,0.133l-0.077-0.031v3.898
		c0.197,0.391,0.433,0.757,0.727,1.051c0,0,0.048,0.031,0.119,0.078c0.164,0.108,0.509,0.336,0.994,0.656
		c4.994,3.294,25.121,16.57,25.278,16.685c0.203,0.146,0.418,0.268,0.639,0.374c0.001-0.002,0.002-0.003,0.004-0.005
		c0,0.001,0,0.001,0,0.001c0.134-0.146,0.254-0.296,0.362-0.448c0.014-0.019,0.029-0.037,0.042-0.056
		c0.036-0.053,0.066-0.107,0.098-0.16c0.021-0.035,0.044-0.069,0.063-0.104c0.025-0.047,0.043-0.096,0.065-0.144
		c0.02-0.043,0.042-0.085,0.059-0.129c0.019-0.049,0.029-0.101,0.044-0.151c0.012-0.044,0.028-0.086,0.037-0.131
		c0.013-0.062,0.017-0.126,0.021-0.19c0.004-0.034,0.012-0.068,0.013-0.104c0.003-0.089-0.005-0.181-0.018-0.272
		c-0.001-0.012-0.001-0.023-0.002-0.035c-0.017-0.104-0.042-0.212-0.079-0.322c0.111,0,0.234,0.014,0.366,0.037
		c0.048,0.008,0.103,0.023,0.153,0.035c0.086,0.019,0.173,0.038,0.266,0.065c0.07,0.021,0.145,0.047,0.217,0.071
		c0.077,0.026,0.152,0.052,0.232,0.082c0.091,0.034,0.184,0.074,0.277,0.114c0.061,0.026,0.123,0.053,0.184,0.08
		c0.111,0.051,0.223,0.105,0.334,0.162c0.042,0.021,0.085,0.043,0.127,0.065c0.127,0.067,0.252,0.136,0.375,0.209
		c0.025,0.015,0.051,0.029,0.075,0.044c0.136,0.082,0.271,0.166,0.4,0.253c0.009,0.006,0.017,0.012,0.024,0.017
		c0.141,0.095,0.275,0.191,0.404,0.29l0,0c0.105,0.081,0.213,0.163,0.309,0.246c0.924-0.54,6.818-4.687,12.719-8.71l0,0
		c0.672-0.459,1.342-0.913,2.008-1.363c0,0-0.001,0-0.002-0.001c3.178-2.148,6.185-4.133,8.229-5.355l0,0
		c0.242-0.146,0.477-0.283,0.689-0.406c0.225-0.544,0.482-1.077,0.754-1.604c0.004-0.007,0.008-0.013,0.01-0.019
		c0.271-0.525,0.557-1.044,0.838-1.56c0.588-1.075,1.154-2.141,1.537-3.23v-4C87.878,39.16,86.037,38.953,84.207,38.986z"/>
	<g>
		<path fill="#414242" d="M85.653,37.984l-0.167,0.792c-0.442-0.03-0.898-0.037-1.354-0.029c-0.478,0.009-8.035-0.031-14.151-0.065
			c0.028-0.188,0.057-0.374,0.057-0.568l0.786-5.661v-4l-0.852,0.602c-0.134-1.82-0.105-3.512,0.997-4.859l0.024-0.175
			c0,0.001,0,0.001,0,0.002l2.938-21.165v-4l-1.233,2.689L72.37,2.458c-0.061-0.001-0.11-0.008-0.175-0.008
			c-0.315,0-0.232,0.299-0.065,0.677l-0.286,0.796l0.508,0.454l0.2-0.193c0.074,0.426-0.165,0.663-1.356,0.266
			c-1.655-1.654-3.983-3.313-3.043-6.1h-8.156c-0.291,1.724,0.199,3.666,0.199,5.1c0-1.7-1.436-3.4-1.869-5.1H48.275
			c-0.449,0-0.875,0.092-1.274,0.237c0.073,0.89,0.194,1.814,0.194,2.862c-0.283,0.566-0.739,0.956-1.275,1.245l0.519-0.936v-1.79
			l-1.75-0.805v4L46.886,26.2c1.094,0.087,1.733,0.77,2.052,1.661l-1.332-0.473v4l0.933,6.725c0,0.184,0.029,0.36,0.055,0.537
			c-7.644,0.039-16.622,0.161-17.811,0.446c-0.001-0.002-0.003-0.003-0.004-0.005c-0.049,0.013-0.1,0.026-0.125,0.04
			c-0.023,0.014-0.046,0.026-0.068,0.04c-0.271,0.162-0.491,0.363-0.678,0.586c0.053,0.109,0.091,0.218,0.134,0.326l-0.312-0.125
			v3.898c0.197,0.391,0.433,0.757,0.727,1.051c0,0,26.212,17.289,26.392,17.419c0.203,0.146,0.418,0.268,0.639,0.374
			c0.605-0.662,1.002-1.37,0.709-2.251c0.924,0,2.689,0.854,3.743,1.771c1.594-0.93,17.938-12.566,23.644-15.836
			c0.225-0.544,0.482-1.077,0.754-1.604c0.004-0.007,0.007-0.013,0.01-0.019c0.271-0.525,0.557-1.044,0.838-1.56
			c0.587-1.075,1.154-2.141,1.536-3.23v-4L85.653,37.984z"/>
		<path fill="#2B2B2B" d="M76.665,52.148c-0.689-0.546-1.371-1.102-2.035-1.675c0.061,0.249,0.101,0.514,0.099,0.806
			c-0.005,0.721-0.045,1.475-0.071,2.232C75.33,53.053,76,52.599,76.665,52.148z"/>
		<path fill="#2B2B2B" d="M31.748,44.985c0.105-1.564,0.182-3.177,0.625-4.688c0.176-0.601,0.481-1.052,0.851-1.396
			c-1.246,0.055-2.125,0.118-2.441,0.194c-0.001-0.002-0.003-0.003-0.004-0.005c-0.049,0.013-0.1,0.026-0.125,0.04
			c-0.023,0.014-0.046,0.026-0.068,0.04c-0.271,0.162-0.491,0.363-0.678,0.586c0.053,0.109,0.091,0.218,0.134,0.326l-0.312-0.125
			v3.898c0.197,0.391,0.433,0.757,0.727,1.051c0,0,0.458,0.303,1.244,0.82C31.716,45.48,31.731,45.232,31.748,44.985z"/>
		<path fill="#2B2B2B" d="M86.206,37.622c0.203,1.674-0.774,3.519-2.952,3.519c-1.694,0-2.661-1.12-2.913-2.404
			c-2.851-0.014-6.84-0.035-10.359-0.055c0.028-0.188,0.057-0.374,0.057-0.568l0.786-5.661v-4l-0.852,0.602
			c-0.134-1.82-0.105-3.512,0.997-4.859l0.024-0.175c0,0.001,0,0.001,0,0.002l2.938-21.165v-4l-1.233,2.689L72.37,2.458
			c-0.061-0.001-0.11-0.008-0.175-0.008c-0.315,0-0.232,0.299-0.065,0.677l-0.286,0.796l0.508,0.454l0.2-0.193
			c0.074,0.426-0.165,0.663-1.356,0.266c-1.655-1.654-3.983-3.313-3.043-6.1h-8.156c-0.291,1.724,0.199,3.666,0.199,5.1
			c0-1.7-1.436-3.4-1.869-5.1H48.275c-0.449,0-0.875,0.092-1.274,0.237c0.073,0.89,0.194,1.814,0.194,2.862
			c-0.283,0.566-0.739,0.956-1.275,1.245l0.519-0.936v-1.79l-1.75-0.805v4L46.886,26.2c0.29,0.023,0.544,0.093,0.772,0.192
			c0.454-1.669,1.102-3.281,1.65-4.966c1.227-3.77,7.19-2.156,5.954,1.641c-0.714,2.196-1.91,4.419-1.986,6.76
			c-0.104,3.204-4.14,3.828-5.629,1.858l0.892,6.428c0,0.184,0.029,0.36,0.055,0.537c-3.813,0.02-7.957,0.06-11.301,0.131
			c0.903,0.651,1.446,1.754,1.035,3.157c-0.496,1.691-0.542,3.401-0.701,5.069c3.857,0.307,7.637,1.29,11.595,1.184
			c3.984-0.105,3.974,6.069,0,6.176c-1.705,0.045-3.412-0.176-5.12-0.457c2.604,1.718,5.184,3.42,7.334,4.84
			c0.008-0.178,0.011-0.356,0.021-0.535c0.104-1.679,1.326-3.088,3.087-3.088c1.604,0,3.191,1.406,3.087,3.088
			c-0.092,1.493-0.084,2.989-0.142,4.482c0.603-0.661,0.998-1.368,0.705-2.247c0.84,0,2.371,0.707,3.435,1.525
			c0.099-1.686,0.169-3.374,0.311-5.052c0.333-3.938,6.511-3.97,6.176,0c-0.032,0.382-0.061,0.765-0.088,1.146
			c0.234-0.162,0.479-0.331,0.722-0.499c-0.037-0.224-0.071-0.448-0.093-0.682c-0.171-1.869-0.116-3.736-0.104-5.61
			c0.017-2.591,2.633-3.485,4.455-2.703c-0.952-2.584,2.646-5.515,5.172-3.19c0.116,0.106,0.24,0.203,0.357,0.308
			c-0.053-0.449-0.108-0.897-0.146-1.35c-0.138-1.68,1.509-3.088,3.088-3.088c1.787,0,2.95,1.411,3.088,3.088
			c0.067,0.822,0.187,1.637,0.324,2.448c0.243-0.146,0.477-0.283,0.69-0.406c0.225-0.544,0.482-1.077,0.754-1.604
			c0.004-0.007,0.007-0.013,0.01-0.019c0.271-0.525,0.557-1.044,0.838-1.56c0.587-1.075,1.154-2.141,1.536-3.23v-4L86.206,37.622z"
			/>
		<g>
			<path fill="#878787" d="M29.729,39.857c0.197,0.391,0.433,0.757,0.727,1.051c0,0,26.212,17.289,26.392,17.419
				c0.203,0.146,0.418,0.268,0.639,0.374c0.605-0.662,1.002-1.37,0.709-2.251c0.924,0,2.689,0.854,3.743,1.771
				c1.594-0.93,17.938-12.566,23.644-15.836c0.917-2.224,2.388-4.269,3.138-6.412c-0.915-1.053-2.758-1.26-4.587-1.227
				c-0.478,0.009-8.035-0.031-14.151-0.065c0.028-0.188,0.057-0.374,0.057-0.568l0.786-5.661c-0.2-0.002-0.406-0.002-0.629-0.002
				c0-3.048-0.994-6.093,0.774-8.256l2.962-21.338c-0.318-0.252-0.849-0.406-1.736-0.406c-1,0,2,3-1,2
				c-1.655-1.654-3.983-3.313-3.043-6.1h-8.156c-0.291,1.724,0.199,3.666,0.199,5.1c0-1.7-1.436-3.4-1.869-5.1H48.275
				c-0.449,0-0.875,0.092-1.274,0.237c0.073,0.89,0.194,1.814,0.194,2.862c-0.482,0.963-1.432,1.457-2.506,1.715L46.886,22.2
				c1.693,0.134,2.309,1.688,2.309,3.25c-0.338,1.015-0.908,1.567-1.589,1.938l0.933,6.725c0,0.184,0.029,0.36,0.055,0.537
				c-7.957,0.041-17.385,0.171-17.94,0.481c-0.023,0.014-0.046,0.026-0.068,0.04c-0.271,0.162-0.491,0.363-0.678,0.586
				C30.612,37.233,30.465,38.578,29.729,39.857z"/>
			<path fill="#A6A8AB" d="M50.384,0.13c0.531-2.198,2.613-3.068,4.16-1.363c1.359,1.5,3.883,4.33,6.136,3.232
				c1.224-0.596,1.428-1.158,2.72-1.589c2.112-0.704,4.226,0.394,5.279,2.192c1.315,2.242,0.654,5.535,0.686,7.982
				c0.038,3.112,0.814,6.316,1.629,9.436l2.938-21.165c-0.318-0.252-0.849-0.406-1.736-0.406c-1,0,2,3-1,2
				c-1.655-1.654-3.983-3.313-3.043-6.1h-8.156c-0.291,1.724,0.199,3.666,0.199,5.1c0-1.7-1.436-3.4-1.869-5.1H48.275
				c-0.449,0-0.875,0.092-1.274,0.237c0.073,0.89,0.194,1.814,0.194,2.862c-0.482,0.963-1.432,1.457-2.506,1.715l0.863,6.218
				C48.061,4.749,49.572,3.489,50.384,0.13z"/>
			<path fill="#58595B" d="M70.885,44.871c-2.961,1.11-5.587-0.368-8.406,1.023c-2.598,1.282-5.103,2.191-7.964,2.699
				c-1.766,0.313-4.543-0.25-6.359-0.496c-2.034-0.275-6.568-1.248-7.957-2.756c-3.106-3.374-6.128-6.981-9.421-10.25
				c-0.049,0.013-0.1,0.026-0.125,0.04c-0.023,0.014-0.046,0.026-0.068,0.04c-0.271,0.162-0.491,0.363-0.678,0.586
				c0.705,1.476,0.559,2.82-0.178,4.1c0.197,0.391,0.433,0.757,0.727,1.051c0,0,26.212,17.289,26.392,17.419
				c0.203,0.146,0.418,0.268,0.639,0.374c0.605-0.662,1.002-1.37,0.709-2.251c0.924,0,2.689,0.854,3.743,1.771
				c1.594-0.93,17.938-12.566,23.644-15.836c0.452-1.096,1.038-2.147,1.605-3.188C82.921,41.471,75.361,43.194,70.885,44.871z"/>
		</g>
	</g>
</g>
</svg>
