<?xml version="1.0" encoding="utf-8"?>
<!-- Generator: Adobe Illustrator 16.0.0, SVG Export Plug-In . SVG Version: 6.00 Build 0)  -->
<!DOCTYPE svg PUBLIC "-//W3C//DTD SVG 1.1//EN" "http://www.w3.org/Graphics/SVG/1.1/DTD/svg11.dtd">
<svg version="1.1"
	 id="Layer_1" xmlns:dc="http://purl.org/dc/elements/1.1/" xmlns:sodipodi="http://sodipodi.sourceforge.net/DTD/sodipodi-0.dtd" xmlns:rdf="http://www.w3.org/1999/02/22-rdf-syntax-ns#" xmlns:inkscape="http://www.inkscape.org/namespaces/inkscape" xmlns:svg="http://www.w3.org/2000/svg" xmlns:cc="http://creativecommons.org/ns#" sodipodi:docname="Arrow.svg" inkscape:version="0.48.2 r9819"
	 xmlns="http://www.w3.org/2000/svg" xmlns:xlink="http://www.w3.org/1999/xlink" x="0px" y="0px" width="62.621px"
	 height="62.476px" viewBox="-28.375 -1.5 62.621 62.476" enable-background="new -28.375 -1.5 62.621 62.476" xml:space="preserve"
	>
<g>
	<path opacity="0.7" fill="none" stroke="#1A1A1A" stroke-width="5" stroke-miterlimit="10" d="M31.188,29.563
		c0,18.281-12.677,28.313-28.313,28.313c-15.636,0-28.313-12.676-28.313-28.313c0-15.636,12.676-28.313,28.313-28.313
		C18.512,1.25,31.188,13.926,31.188,29.563z"/>
	<g>
		<rect x="-8.875" y="27.992" opacity="0.7" fill="#1A1A1A" width="21.375" height="4"/>
		<g opacity="0.7">
			<path fill="#1A1A1A" d="M11.794,23.776c0.683,6.784,27.952,5.989,0.683,6.784"/>
			<path fill="#1A1A1A" d="M11.719,36.325c0.054-6.263,27.312-7.165,0.054-6.263"/>
		</g>
	</g>
</g>
<sodipodi:namedview  bordercolor="#666666" objecttolerance="10" borderopacity="1" guidetolerance="10" inkscape:zoom="6.2719254" gridtolerance="10" inkscape:cy="18.813999" pagecolor="#ffffff" showgrid="false" inkscape:cx="9.4285002" inkscape:window-maximized="0" inkscape:current-layer="Layer_1" inkscape:window-y="0" inkscape:window-x="0" inkscape:window-height="1032" inkscape:window-width="1920" inkscape:pageshadow="2" inkscape:pageopacity="0" id="namedview5">
	</sodipodi:namedview>
<circle opacity="0.7" fill="none" stroke="#FFFFFF" stroke-width="5" stroke-miterlimit="10" cx="3.251" cy="29.313" r="28.313"/>
<rect x="-8.5" y="26.75" opacity="0.7" fill="#FFFFFF" width="21.375" height="4"/>
<g opacity="0.7">
	<path fill="#FFFFFF" d="M12.169,22.534c0.683,6.784,27.952,5.989,0.683,6.784"/>
	<path fill="#FFFFFF" d="M12.094,35.083c0.054-6.263,27.312-7.165,0.054-6.263"/>
</g>
</svg>
