<?xml version="1.0" encoding="utf-8"?>
<!-- Generator: Adobe Illustrator 16.0.0, SVG Export Plug-In . SVG Version: 6.00 Build 0)  -->
<!DOCTYPE svg PUBLIC "-//W3C//DTD SVG 1.1//EN" "http://www.w3.org/Graphics/SVG/1.1/DTD/svg11.dtd">
<svg version="1.1"
	 id="Layer_1" xmlns:sodipodi="http://sodipodi.sourceforge.net/DTD/sodipodi-0.dtd" xmlns:dc="http://purl.org/dc/elements/1.1/" xmlns:svg="http://www.w3.org/2000/svg" xmlns:rdf="http://www.w3.org/1999/02/22-rdf-syntax-ns#" xmlns:inkscape="http://www.inkscape.org/namespaces/inkscape" xmlns:cc="http://creativecommons.org/ns#" inkscape:version="0.48.2 r9819" sodipodi:docname="Arrow.svg"
	 xmlns="http://www.w3.org/2000/svg" xmlns:xlink="http://www.w3.org/1999/xlink" x="0px" y="0px" width="117.507px"
	 height="62.203px" viewBox="0 0 117.507 62.203" enable-background="new 0 0 117.507 62.203" xml:space="preserve">
<g>
	<path opacity="0.3" fill="#515150" enable-background="new    " d="M92.858,26.368c-0.01-0.005-0.021-0.013-0.037-0.019
		c-0.002-0.002-0.006-0.006-0.012-0.007c-0.015-0.008-0.026-0.017-0.043-0.025c-0.004-0.002-0.009-0.004-0.011-0.006
		c-0.021-0.011-0.045-0.025-0.073-0.038c-0.001,0-0.001,0-0.002,0c-0.025-0.018-0.063-0.034-0.097-0.053c0,0,0,0-0.002-0.001
		c-0.865-0.46-3.578-1.869-6.656-3.462c-0.385,0.37-0.692,0.756-0.848,1.182c-0.806-0.492-0.867-1.22-0.746-2.007
		c-2.336-1.206-4.729-2.438-6.569-3.39c-0.271-0.14-0.531-0.273-0.773-0.4c-1.522-0.785-2.522-1.297-2.532-1.301
		c-1.242-0.451-4.088-0.52-5.656,0.542c-0.09,0.063-0.178,0.132-0.268,0.205c-0.24,0.198-0.533,0.518-0.867,0.943l-1.148,2.429
		H43.379c-0.163,0.373-0.329,0.739-0.506,1.096c-0.365-0.728-0.912,0.364-1.093,0c-0.102-0.507-0.146-0.79-0.135-1.096H31.617
		c-0.071,0.097-0.144,0.193-0.22,0.286c-0.019,0.025-0.038,0.049-0.057,0.071c-0.07,0.088-0.145,0.176-0.221,0.26
		c-0.003,0.005-0.008,0.01-0.011,0.014c-0.082,0.092-0.168,0.18-0.253,0.265c-0.017,0.017-0.031,0.032-0.048,0.046
		c-0.083,0.084-0.172,0.165-0.261,0.245c0,0.001-0.001,0.001-0.003,0.001c-0.096,0.084-0.194,0.165-0.295,0.243
		c-0.007,0.006-0.015,0.013-0.024,0.019c-0.203,0.157-0.414,0.302-0.636,0.431c0,0.001,0,0.001-0.001,0.002
		c-0.113,0.066-0.228,0.129-0.346,0.188c-0.342,0.174-0.702,0.316-1.081,0.426l-5.034,10.891v0.004v0.267v2.852
		c-0.032,0.085-0.067,0.171-0.105,0.25v4.234v0.139c1.044,0.173,2.583-0.979,2.879,0.5l0.454,0.002l6.5,0.024l0.986,0.006
		l5.179,0.02c0.443-0.395,0.888-0.802,1.314-1.22c0,0,0,0,0.001,0c0.11-0.11,0.219-0.216,0.325-0.325
		c0.003-0.002,0.004-0.005,0.007-0.005c0.105-0.104,0.207-0.214,0.307-0.315c0.006-0.008,0.012-0.014,0.018-0.021
		c0.095-0.1,0.187-0.198,0.279-0.299c0.01-0.015,0.022-0.024,0.032-0.038c0.101-0.109,0.2-0.222,0.295-0.332
		c0.066,0.085,0.139,0.167,0.215,0.243c0.057,0.06,0.118,0.112,0.179,0.165c0.019,0.016,0.034,0.034,0.051,0.052
		c0-0.002,0-0.002,0-0.003c1.022,0.865,2.652,1.245,4.155,1.733c0,0.001,0,0.002,0,0.003c0.326,0.105,0.649,0.22,0.955,0.342
		c0.044,0.02,0.091,0.032,0.134,0.055l4.203,0.016l1.578,0.006l3.153,0.012l-0.995,2.104v4.418c0.002,0.317,0.063,0.541,0.185,0.66
		c0.043,0.039,0.088,0.075,0.133,0.113c0.011,0.01,0.021,0.014,0.031,0.023c0.038,0.025,0.077,0.055,0.12,0.082
		c0.007,0.009,0.019,0.012,0.025,0.021c0.047,0.026,0.096,0.054,0.145,0.079c0.007,0.005,0.013,0.01,0.017,0.012
		c0.058,0.025,0.113,0.055,0.174,0.082c0.001,0,0.002,0,0.003,0.002c1.506,0.651,4.276,0.336,6.141-0.559
		c0.054-0.023,8.404-4.145,16.148-7.867c0.054-0.089,0.112-0.182,0.177-0.273c0.705-1.107,1.725-2.151,2.682-3.313
		c0.15,0.702,0.113,1.492,0.336,2.158c0.008-0.007,0.014-0.007,0.021-0.01c1.59-0.766,3.088-1.482,4.403-2.116
		c0.289-0.142,0.563-0.271,0.83-0.399c2.547-1.226,4.229-2.029,4.233-2.033c0.947-0.455,1.863-1.186,2.438-1.896v-1.865
		c0.117-0.021,0.242-0.061,0.377-0.104l0.132,0.006v-4.42C93.796,27.117,93.391,26.691,92.858,26.368z"/>
	<g>
		<g>
			<path fill="#414242" d="M92.419,26.98c-0.056-0.086-0.106-0.18-0.162-0.273c-0.063-0.096-0.137-0.189-0.223-0.274
				c0.614,0,1.164,0.118,1.938-0.183c-0.181-0.495-0.584-0.92-1.117-1.244c-0.229-0.14-3.336-1.751-6.933-3.61
				c-0.385,0.37-0.692,0.757-0.848,1.182c-0.806-0.492-0.867-1.221-0.748-2.008c-4.806-2.483-9.854-5.082-9.877-5.091
				c-1.242-0.451-4.088-0.518-5.654,0.544c-0.09,0.063-0.178,0.132-0.268,0.205c-0.24,0.197-0.533,0.518-0.869,0.943l-1.147,2.427
				H43.379c-0.163,0.375-0.329,0.741-0.506,1.098c-0.365-0.73-0.912,0.362-1.093,0c-0.102-0.508-0.146-0.79-0.135-1.098H31.617
				c-0.866,1.204-2.035,2.091-3.458,2.499l-3.593,6.917l-1.44-0.395v3.166l-0.105,0.201v4.369c1.044,0.176,2.583-0.979,2.879,0.504
				l13.119,0.053c0.913-0.813,1.83-1.688,2.578-2.557c1.136,1.461,3.722,1.766,5.689,2.586l10.999,0.047l-3.06,6.462
				c0.002,0.313,0.063,0.536,0.185,0.659c1.192,1.154,4.608,0.899,6.789-0.146c0.051-0.023,8.403-4.145,16.146-7.861
				c0.71-1.217,1.816-2.338,2.855-3.592c0.15,0.701,0.113,1.493,0.336,2.157c5.229-2.513,9.479-4.553,9.488-4.56
				c0.947-0.455,1.863-1.186,2.438-1.896C92.858,27.966,92.677,27.461,92.419,26.98z"/>
			<path fill="#2B2B2B" d="M51.49,36.96l1.578,0.003c-0.313-1.087-0.896-2.122-1.43-3.122C51.583,34.879,51.494,35.922,51.49,36.96z
				"/>
			<path fill="#2B2B2B" d="M92.419,26.98c-0.056-0.086-0.106-0.18-0.162-0.273c-0.063-0.096-0.137-0.189-0.223-0.274
				c0.614,0,1.164,0.118,1.938-0.183c-0.181-0.495-0.584-0.92-1.117-1.244c-0.229-0.14-3.336-1.751-6.933-3.61
				c-0.385,0.37-0.692,0.757-0.848,1.182c-0.806-0.492-0.867-1.221-0.748-2.008c-4.806-2.483-9.854-5.082-9.877-5.091
				c-1.242-0.451-4.088-0.518-5.654,0.544c-0.09,0.063-0.178,0.132-0.268,0.205c-0.24,0.197-0.533,0.518-0.869,0.943l-1.147,2.427
				H43.379c-0.163,0.375-0.329,0.741-0.506,1.098c-0.365-0.73-0.912,0.362-1.093,0c-0.102-0.508-0.146-0.79-0.135-1.098H31.617
				c-0.866,1.204-2.035,2.091-3.458,2.499l-3.593,6.917l-1.44-0.395v0.264c1.125,0.408,1.528,1.529,1.36,2.659
				c-0.237,1.614-0.935,3.132-1.465,4.678v0.14c1.044,0.175,2.583-0.979,2.879,0.505h0.454c0.29-1.999,0.46-4.021,0.222-6.029
				c-0.143-1.194,1.114-2.211,2.212-2.211c1.313,0,2.07,1.019,2.212,2.211c0.237,2.004,0.088,4.036-0.19,6.047l3.03,0.013
				c-0.235-1.566-0.655-3.103-1.377-4.572c-0.53-1.086-0.304-2.387,0.794-3.029c0.713-0.417,1.707-0.377,2.399,0.087
				c0.373-0.728,1.165-1.237,1.995-1.237c1.245,0,2.162,1.008,2.213,2.211c0.076,1.791,0.259,3.567,0.469,5.347
				c0.451-0.443,0.879-0.89,1.264-1.339c0.13,0.169,0.28,0.318,0.445,0.457c0.312-1.646,0.583-3.295,0.804-4.946
				c0.158-1.197,0.886-2.214,2.211-2.214c1.086,0,2.372,1.013,2.213,2.214c-0.296,2.233-0.649,4.469-1.073,6.685
				c0.327,0.109,0.649,0.221,0.959,0.344c0.025-1.771,0.191-3.535,0.059-5.328c-0.087-1.202,1.073-2.213,2.214-2.213
				c0.953,0,1.669,0.565,2.006,1.354c0.166-0.217,0.377-0.412,0.641-0.566c0.992-0.578,2.482-0.282,3.027,0.797
				c1.004,1.983,2.039,3.888,2.452,6.054L58.285,37l-0.572,1.208c0.021,0.61-0.284,1.166-0.736,1.562l-1.75,3.692
				c0.002,0.313,0.063,0.537,0.184,0.66c1.193,1.151,4.609,0.899,6.789-0.146c0.051-0.023,8.404-4.146,16.147-7.863
				c0.71-1.215,1.815-2.336,2.854-3.592c0.151,0.703,0.114,1.494,0.338,2.158c5.229-2.514,9.478-4.554,9.487-4.562
				c0.947-0.454,1.863-1.183,2.438-1.896C92.858,27.966,92.677,27.461,92.419,26.98z"/>
			<path fill="#414242" d="M90.634,23.875l2.832-0.039v4.423c-0.573,0.716-1.491,1.44-2.438,1.896
				c-0.012,0.007-4.26,2.046-9.489,4.561c-0.222-0.664-0.185-1.457-0.336-2.157c-1.039,1.254-2.146,2.375-2.854,3.59
				c-7.743,3.722-16.099,7.841-16.146,7.863c-2.18,1.049-5.598,1.301-6.789,0.146c-0.121-0.122-0.184-0.346-0.186-0.659v-4.42
				l4.877-7.339c1.586-1.477,2.793-2.996,3.107-4.641c1.979-0.299,2.32-1.333,1.818-2.079c-0.299-0.394-0.791-0.683-1.297-0.961
				v-2.965l20.598-1.934c-0.119,0.786-0.058,1.512,0.748,2.006c0.151-0.425,0.463-0.813,0.849-1.181l8.049,1.887v4.423l-3.771-0.169
				L90.634,23.875z"/>
			<path fill="#2B2B2B" d="M85.925,19.991c-0.385,0.368-0.692,0.755-0.848,1.181c-0.806-0.494-0.867-1.22-0.746-2.006L63.734,21.1
				v0.72c0.014,0.013,0.023,0.024,0.033,0.038c0.596,0.882,0.805,1.782,0.791,2.715c0.18,0.136,0.344,0.285,0.473,0.453
				c0.412,0.609,0.252,1.414-0.902,1.847c-0.189,0.283-0.553,0.333-0.84,0.217c-0.025,0.004-0.051,0.008-0.076,0.012
				c-0.314,1.646-1.521,3.166-3.107,4.644l-4.877,7.339v4.42c0.002,0.314,0.063,0.537,0.186,0.659
				c0.172,0.166,0.394,0.303,0.646,0.41c0.11-1.62,0.124-3.271-0.179-4.854c-0.17-0.888,1.188-1.266,1.358-0.369
				c0.351,1.816,0.337,3.692,0.203,5.543c0.662,0.06,1.402,0.021,2.142-0.096c-0.229-0.861-0.326-1.757-0.269-2.648
				c0.017-0.262,0.069-0.514,0.16-0.75c0.101-0.313,0.271-0.58,0.491-0.799c0.025-0.025,0.052-0.049,0.074-0.07
				c0.054-0.58,0.297-1.116,0.701-1.502c0.315-0.717,1.184-1.202,1.928-1.241c0.037-0.159,0.076-0.313,0.121-0.474
				c0.209-0.682,0.807-1.248,1.496-1.502c0.143-0.474,0.448-0.893,0.959-1.192c0.524-0.306,1.09-0.363,1.604-0.229
				c-0.039-0.468,0.053-0.938,0.278-1.33c0.644-1.099,1.938-1.315,3.026-0.791c1.224,0.59,2.177,1.867,2.869,2.994
				c0.526,0.855,1.056,1.814,1.354,2.809c0.008-0.008,0.019-0.012,0.026-0.014c-0.01-1.511-0.625-2.98-0.646-4.52
				c-0.014-1.334,0.029-2.809,0.529-4.066c0.442-1.121,1.465-1.891,2.721-1.545c1.066,0.293,1.992,1.6,1.548,2.719
				c-0.431,1.078-0.431,2.146-0.354,3.426c0.037,0.549,0.178,1.166,0.314,1.806c0.707-1.104,1.723-2.149,2.682-3.313
				c0.152,0.701,0.113,1.494,0.336,2.158c0.008-0.002,0.014-0.002,0.021-0.008c-0.037-1.813-0.033-3.626,0.104-5.438
				c0.092-1.203,0.938-2.213,2.213-2.213c1.137,0,2.307,1.008,2.215,2.213c-0.088,1.104-0.119,2.213-0.125,3.322
				c0.392-0.189,0.761-0.367,1.111-0.535c0.059-1.541-0.253-3.074-0.121-4.617c0.094-1.064,0.75-1.979,1.795-2.173
				c0.16-0.249,0.371-0.465,0.614-0.641c0.007-0.065,0.015-0.129,0.025-0.193c0.176-1.194,1.663-1.834,2.719-1.544
				c1.271,0.348,1.724,1.529,1.549,2.72c0.062-0.416-0.024,0.411-0.024,0.389c-0.004,0.095-0.01,0.19-0.014,0.285l0.354,0.017V21.88
				L85.925,19.991z"/>
			<path fill="#878787" d="M92.419,22.611c-0.056-0.088-0.106-0.182-0.162-0.276c-0.063-0.096-0.137-0.188-0.223-0.275
				c0.614,0,1.164,0.12,1.938-0.183c-0.181-0.493-0.584-0.918-1.117-1.241c-0.229-0.14-3.336-1.751-6.933-3.61
				c-0.385,0.369-0.692,0.756-0.848,1.181c-0.806-0.495-0.867-1.221-0.748-2.007c-4.804-2.484-9.854-5.084-9.875-5.092
				c-1.242-0.451-4.088-0.519-5.656,0.542c-0.09,0.063-0.178,0.133-0.268,0.204c-0.24,0.198-0.533,0.52-0.867,0.945l-1.148,2.428
				H43.379c-0.163,0.372-0.329,0.739-0.506,1.095c-0.365-0.729-0.912,0.366-1.093,0c-0.102-0.507-0.146-0.788-0.135-1.095H31.617
				c-0.866,1.203-2.035,2.091-3.458,2.498l-5.033,10.892c0.362,1.119,0.381,2.313-0.105,3.365c1.044,0.179,2.583-0.978,2.879,0.506
				l13.12,0.052c0.913-0.813,1.83-1.685,2.578-2.56c1.136,1.463,3.722,1.767,5.689,2.588l10.998,0.048l-3.059,6.464
				c0.002,0.313,0.063,0.535,0.184,0.654c1.193,1.154,4.609,0.901,6.789-0.146c0.051-0.024,8.404-4.14,16.147-7.86
				c0.71-1.215,1.815-2.336,2.854-3.59c0.151,0.699,0.114,1.488,0.338,2.156c5.229-2.513,9.478-4.555,9.487-4.561
				c0.947-0.454,1.863-1.181,2.438-1.898C92.858,23.597,92.677,23.093,92.419,22.611z"/>
			<path fill="#A6A8AB" d="M31.975,17.354c1.399,0.173,2.749,0.453,4.109,0.825c0.997,0.271,2.106,0.692,3.146,0.727
				c2.596,0.09,5.199,0.024,7.789,0.212c1.331,0.097,2.63,0.263,3.967,0.126c1.123-0.114,2.229-0.356,3.332-0.593
				c1.338-0.288,2.75-0.691,4.125-0.69c1.229,0.001,2.461,0.214,3.625,0.612c1.088,0.371,2.174,0.96,3.354,0.905
				c0.885-0.041,1.791-0.329,2.603-0.736c2.157-1.086,4.146-2.482,6.228-3.708c1.203-0.707,2.388-1.424,3.515-2.227
				c-1.954-1.007-3.296-1.697-3.308-1.701c-1.242-0.451-4.088-0.519-5.656,0.542c-0.09,0.063-0.178,0.133-0.268,0.204
				c-0.24,0.198-0.533,0.52-0.867,0.945l-1.149,2.428H43.379c-0.163,0.372-0.329,0.739-0.506,1.095
				c-0.365-0.728-0.912,0.366-1.093,0c-0.102-0.507-0.146-0.788-0.135-1.095H31.617c-0.634,0.883-1.433,1.595-2.376,2.072
				C30.155,17.235,31.07,17.243,31.975,17.354z"/>
		</g>
	</g>
</g>
<path fill="#58595B" d="M93.975,21.877c-0.179-0.493-0.584-0.918-1.117-1.241c-0.034-0.021-0.127-0.073-0.274-0.15
	c-2.076,2.196-4.092,4.342-6.989,5.561c-0.704,0.293-1.648-0.067-2.154-0.57c-0.229-0.228-0.381-0.476-0.479-0.742
	c-0.076,0.037-0.152,0.07-0.229,0.107c-0.157,0.076-0.315,0.152-0.47,0.235c-1.801,0.939-3.371,2.168-5.27,2.937
	c-1.334,0.541-2.82,0.879-4.057,1.637c-1.229,0.75-2.15,1.863-3.335,2.67c-2.334,1.595-5.142,2.205-7.521,3.705
	c-2.156,1.356-4.44-1.715-2.682-3.479c0.873-0.87,1.744-1.74,2.596-2.636c-0.84-0.022-1.68-0.052-2.521-0.068
	c-1.277-0.028-2.56-0.052-3.839-0.024c-0.993,0.021-2.012,0.037-2.7,0.154c-1.968,0.346-4.037,0.877-6.005,0.26
	c-0.561-0.176-1.069-0.526-1.479-0.943c-0.078-0.08-0.156-0.141-0.215-0.18c-0.058-0.021-0.118-0.043-0.179-0.068
	c-0.901-0.357-1.803-0.75-2.734-1.032c-0.909-0.274-1.316-0.151-2.358,0.214c-0.929,0.327-1.859,0.604-2.802,0.883
	c-1.801,0.537-3.618,1.076-5.472,1.402c-1.983,0.354-4.469,0.811-6.102-0.715c-0.28-0.268-0.502-0.583-0.73-0.893
	c-0.003-0.004-0.005-0.006-0.006-0.01c-0.025-0.021-0.051-0.046-0.089-0.082c-0.171-0.173-0.203-0.195-0.088-0.07
	c-0.09-0.049-0.141-0.078-0.17-0.103c-0.026-0.006-0.058-0.014-0.095-0.021c-0.103-0.023-0.166-0.038-0.191-0.047
	c-0.304-0.014-0.611-0.014-0.914,0.027c-0.058,0.01-0.118,0.016-0.178,0.021v0.004c0.362,1.12,0.381,2.313-0.105,3.365
	c1.044,0.179,2.583-0.978,2.879,0.506l13.119,0.051c0.913-0.813,1.83-1.686,2.578-2.561c1.136,1.465,3.722,1.768,5.689,2.59
	l10.998,0.047l-3.059,6.464c0.002,0.312,0.063,0.535,0.184,0.656c1.193,1.153,4.609,0.901,6.789-0.146
	c0.051-0.024,8.404-4.14,16.147-7.862c0.71-1.215,1.815-2.336,2.854-3.59c0.151,0.701,0.114,1.49,0.338,2.158
	c5.229-2.513,9.478-4.555,9.487-4.561c0.947-0.454,1.863-1.181,2.438-1.898c-0.607-0.241-0.789-0.745-1.047-1.226
	c-0.057-0.088-0.107-0.182-0.162-0.276c-0.064-0.096-0.137-0.188-0.223-0.275C92.651,22.06,93.201,22.181,93.975,21.877z"/>
</svg>
