<?xml version="1.0" encoding="utf-8"?>
<!-- Generator: Adobe Illustrator 16.0.0, SVG Export Plug-In . SVG Version: 6.00 Build 0)  -->
<!DOCTYPE svg PUBLIC "-//W3C//DTD SVG 1.1//EN" "http://www.w3.org/Graphics/SVG/1.1/DTD/svg11.dtd">
<svg version="1.1"
	 id="Layer_1" xmlns:sodipodi="http://sodipodi.sourceforge.net/DTD/sodipodi-0.dtd" xmlns:dc="http://purl.org/dc/elements/1.1/" xmlns:svg="http://www.w3.org/2000/svg" xmlns:rdf="http://www.w3.org/1999/02/22-rdf-syntax-ns#" xmlns:inkscape="http://www.inkscape.org/namespaces/inkscape" xmlns:cc="http://creativecommons.org/ns#" inkscape:version="0.48.2 r9819" sodipodi:docname="Arrow.svg"
	 xmlns="http://www.w3.org/2000/svg" xmlns:xlink="http://www.w3.org/1999/xlink" x="0px" y="0px" width="62.079px"
	 height="117.638px" viewBox="27.714 -27.717 62.079 117.638" enable-background="new 27.714 -27.717 62.079 117.638"
	 xml:space="preserve">
<g>
	<path opacity="0.3" fill="#515150" enable-background="new    " d="M84.993,14.144c0,0-23.212-13.289-23.392-13.419
		c-0.203-0.146-0.418-0.268-0.639-0.374c-0.605,0.662-1.002,1.37-0.709,2.251c-0.924,0-2.69-0.854-3.744-1.771
		c-1.593,0.93-14.938,8.566-20.643,11.836c-0.224,0.542-0.481,1.074-0.752,1.599c-0.004,0.008-0.008,0.017-0.013,0.026
		c-0.271,0.523-0.556,1.041-0.836,1.555c-0.586,1.076-1.155,2.142-1.536,3.232v4c0.093,0.107,0.199,0.202,0.312,0.289
		c0.097,0.079,0.203,0.148,0.312,0.215c0.001,0,0.001,0,0.002,0.001l0,0c0.999,0.609,2.48,0.749,3.961,0.721
		c0.463-0.008,4.774,0.029,10.618,0.063l-0.31,2.232v1.974V30.6c0.146,0.001,0.303,0.001,0.46,0.001
		c-0.197,1.588-0.627,3.059-1.606,4.256l-2.961,21.338v4c0.103,0.082,0.239,0.148,0.392,0.207c0.025,0.01,0.053,0.02,0.081,0.028
		c0.311,0.105,0.711,0.171,1.264,0.171c0.109,0,0.165-0.041,0.191-0.104h0.004v-0.006c0.02-0.053,0.018-0.121,0-0.201V58.41
		c0.202,0.02,0.459,0.076,0.805,0.191c1.108,1.108,2.515,2.221,3.043,3.67v2.43h0.801h1.7h5.655c0.068-0.404,0.15-0.822,0.232-1.241
		c0.081-0.409,0.162-0.817,0.239-1.222c0.021-0.111,0.04-0.221,0.06-0.33c0.055-0.304,0.102-0.6,0.144-0.889
		c0.017-0.117,0.035-0.236,0.048-0.35c0.045-0.376,0.078-0.738,0.078-1.068c0,0.205,0.023,0.411,0.061,0.617
		c0.01,0.058,0.029,0.115,0.042,0.172c0.034,0.152,0.071,0.305,0.121,0.456c0.017,0.051,0.038,0.103,0.056,0.153
		c0.059,0.168,0.123,0.336,0.194,0.504c0.005,0.014,0.012,0.026,0.018,0.04c0.394,0.91,0.928,1.82,1.241,2.729l0,0
		c0.049,0.143,0.101,0.285,0.138,0.428h6.129h1.758h3.164c0.449,0,0.875-0.092,1.274-0.237v-3.142
		c0.222-0.329,0.511-0.586,0.833-0.803l0,0c0.215-0.146,0.447-0.27,0.693-0.375c0.001,0,0.002-0.002,0.004-0.002
		c0.246-0.105,0.508-0.19,0.781-0.256v-4l-0.863-6.218l0,0l-2.334-16.817c-0.618-0.049-1.09-0.291-1.443-0.649
		c0.223-0.213,0.461-0.396,0.724-0.539v-1.008v-2.992l-0.453-3.265c7.706-0.044,13.863-0.174,14.406-0.479
		c0.023-0.013,0.046-0.026,0.068-0.04c0.271-0.162,0.491-0.364,0.678-0.586c-0.705-1.476-0.559-2.82,0.178-4.1v-0.225v-3.775
		C85.522,14.803,85.287,14.438,84.993,14.144z"/>
	<path fill="#414242" d="M85.719,11.194l-1.312,0.181l-0.795,1.979C78.629,10.5,61.753,0.835,61.601,0.725
		c-0.203-0.146-0.418-0.268-0.639-0.374c-0.605,0.662-1.002,1.37-0.709,2.251c-0.924,0-2.69-0.854-3.744-1.771
		c-1.593,0.93-14.938,8.566-20.643,11.836c-0.252,0.612-0.548,1.209-0.858,1.8l-2.28,0.612v4c0.915,1.053,2.758,1.26,4.587,1.227
		c0.478-0.009,5.035,0.031,11.151,0.066c-0.028,0.187-0.057,0.374-0.057,0.568l-0.195,1.404L47.625,22.6v4
		c0.2,0.001,0.406,0.002,0.629,0.002c0,3.048-0.006,6.093-1.775,8.256l-2.418,17.422l-0.543-0.084v4
		c0.318,0.252,0.848,0.406,1.736,0.406c0.109,0,0.165-0.041,0.191-0.104h0.004v-0.006c0.02-0.053,0.018-0.121,0-0.201V54.41
		c0.202,0.02,0.459,0.076,0.805,0.191c1.108,1.108,2.515,2.221,3.043,3.67v2.43h8.156c0.291-1.724,0.801-3.666,0.801-5.1
		c0,1.7,1.436,3.4,1.869,5.1h11.051c0.449,0,0.875-0.092,1.274-0.237v-3.142c0.517-0.77,1.354-1.205,2.312-1.436v-4l-0.574-0.135
		l-2.623-18.9c-1.693-0.135-2.309-1.688-2.309-3.25c0.338-1.015,0.908-1.568,1.589-1.938v-4l-0.549,0.044l-0.384-2.769
		c0-0.184-0.029-0.36-0.055-0.537c7.957-0.042,14.385-0.171,14.94-0.482c0.023-0.013,0.046-0.026,0.068-0.04
		c0.271-0.162,0.491-0.364,0.678-0.586c-0.705-1.476-0.559-2.82,0.178-4.1V11.194z"/>
	<path fill="#2B2B2B" d="M50.097,60.701h1.7c-0.306-1.367-0.696-2.724-0.898-4.118C50.51,57.937,50.25,59.298,50.097,60.701z"/>
	<path fill="#2B2B2B" d="M84.408,11.375l-0.795,1.979C78.629,10.5,61.753,0.835,61.601,0.725c-0.203-0.146-0.418-0.268-0.639-0.374
		c-0.605,0.662-1.002,1.37-0.709,2.251c-0.924,0-2.69-0.854-3.744-1.771c-1.593,0.93-14.938,8.566-20.643,11.836
		c-0.252,0.612-0.548,1.209-0.858,1.8l-2.28,0.612v4c0.174,0.201,0.391,0.362,0.626,0.505c0.085-1.106,0.127-2.221,0.296-3.302
		c0.26-1.665,2.316-2.564,3.798-2.156c1.759,0.484,2.416,2.137,2.156,3.798c-0.124,0.794-0.177,1.593-0.229,2.389
		c0.636,0.004,1.396,0.009,2.27,0.015c-0.323-1.331-0.891-2.615-1.559-3.792c-1.969-3.468,3.367-6.578,5.332-3.116
		c1.185,2.086,2.17,4.501,2.537,6.949c0.17,0.001,0.338,0.002,0.511,0.003c-0.028,0.187-0.057,0.374-0.057,0.568l-0.195,1.404
		l-0.116,0.05c-0.001,0.236,0.007,0.473-0.008,0.708c-0.038,0.579-0.213,1.063-0.466,1.472V26.6c0.2,0.001,0.406,0.002,0.629,0.002
		c0,3.048-0.006,6.093-1.775,8.256l-2.418,17.422l-0.543-0.084v4c0.223,0.176,0.558,0.301,1.038,0.361
		c0.257-1.143,0.562-2.277,0.971-3.4c0.576-1.58,2.076-2.631,3.798-2.156c1.162,0.318,2.134,1.439,2.278,2.655
		c0.596-0.617,1.438-1.017,2.276-1.017c1.779,0,2.96,1.41,3.087,3.088c0.097,1.27,0.411,2.504,0.718,3.742
		c0.271-1.37,0.57-2.768,0.57-3.867c0,1.558,1.196,3.115,1.731,4.672c-0.169-1.253-0.425-2.497-0.708-3.727
		c-0.895-3.875,5.059-5.521,5.953-1.641c0.436,1.883,0.842,3.839,1.021,5.795h1.758c-0.586-2.079-1.104-4.177-1.607-6.279
		c-0.93-3.87,5.023-5.512,5.953-1.641c0.301,1.248,0.607,2.494,0.926,3.738c0.432-0.291,0.932-0.502,1.479-0.633v-4l-0.574-0.135
		l-2.623-18.9c-0.305-0.024-0.564-0.108-0.803-0.217c-0.711,1.164-2.025,1.836-3.451,1.443c-1.545-0.424-2.705-2.205-2.156-3.797
		c0.031-0.093,0.057-0.147,0.076-0.179c-0.001-0.018-0.002-0.022-0.003-0.043c0.001-0.166-0.011-0.331-0.024-0.496
		c-0.023-0.009-0.185-0.809-0.211-0.905c-0.244-0.882-0.546-1.744-0.838-2.61c-0.539-1.595,0.604-3.371,2.156-3.798
		c1.692-0.466,3.26,0.563,3.797,2.156c0.243,0.718,0.507,1.476,0.737,2.249v-2.992l-0.549,0.044l-0.188-1.355
		c-0.046-0.065-0.103-0.125-0.143-0.192c-0.822-1.403-0.364-2.869,0.704-3.879c0.038-0.062,0.069-0.115,0.086-0.147
		c-0.106,0.027,0.093-0.187,0,0c0.002,0,0.007-0.004,0.009-0.004c0.023-0.039,0.05-0.077,0.072-0.117
		c0.081-0.151,0.155-0.305,0.228-0.459c0.005-0.012,0.007-0.016,0.012-0.03c0.243-0.661,0.449-1.335,0.704-1.992
		c0.606-1.568,2.051-2.637,3.797-2.156c1.5,0.412,2.766,2.227,2.156,3.798c-0.426,1.099-0.775,2.172-1.244,3.165
		c1.703-0.026,3.218-0.06,4.477-0.104c-0.263-0.939-0.523-1.879-0.812-2.812c-1.081-3.503,3.847-5.142,5.568-2.453v-3.775
		L84.408,11.375z"/>
	<path fill="#878787" d="M85.719,11.194c-0.197-0.391-0.433-0.756-0.727-1.05c0,0-23.212-13.289-23.392-13.419
		c-0.203-0.146-0.418-0.268-0.639-0.374c-0.605,0.662-1.002,1.37-0.709,2.251c-0.924,0-2.69-0.854-3.744-1.771
		C54.917-2.24,41.572,5.396,35.867,8.666c-0.917,2.223-2.388,4.269-3.138,6.412c0.915,1.053,2.758,1.26,4.587,1.227
		c0.478-0.009,5.035,0.031,11.151,0.066c-0.028,0.187-0.057,0.374-0.057,0.568L47.625,22.6c0.2,0.001,0.406,0.002,0.629,0.002
		c0,3.048-0.006,6.093-1.775,8.256l-2.961,21.338c0.318,0.252,0.848,0.406,1.736,0.406c1,0-2-3,1-2
		c1.655,1.654,3.983,3.313,3.043,6.1h8.156c0.291-1.724,0.801-3.666,0.801-5.1c0,1.7,1.436,3.4,1.869,5.1h11.051
		c0.449,0,0.875-0.092,1.274-0.237c-0.073-0.89-0.194-1.814-0.194-2.862c0.482-0.963,1.432-1.457,2.506-1.715l-3.197-23.035
		c-1.693-0.134-2.309-1.688-2.309-3.25c0.338-1.015,0.908-1.568,1.589-1.938l-0.933-6.725c0-0.184-0.029-0.36-0.055-0.537
		c7.957-0.042,14.385-0.171,14.94-0.482c0.023-0.013,0.046-0.026,0.068-0.04c0.271-0.162,0.491-0.364,0.678-0.586
		C84.836,13.818,84.983,12.473,85.719,11.194z"/>
	<path fill="#58595B" d="M69.064,50.922c-0.531,2.198-3.613,3.068-5.16,1.363c-1.359-1.5-3.883-4.33-6.136-3.232
		c-1.224,0.596-2.428,1.158-3.72,1.589c-2.113,0.704-4.226-0.394-5.28-2.192c-1.315-2.242-0.654-5.535-0.685-7.982
		c-0.039-3.112-0.814-6.316-1.629-9.436l-2.938,21.165c0.318,0.252,0.848,0.406,1.736,0.406c1,0-2-3,1-2
		c1.655,1.654,3.983,3.313,3.043,6.1h8.156c0.291-1.724,0.801-3.666,0.801-5.1c0,1.7,1.436,3.4,1.869,5.1h11.051
		c0.449,0,0.875-0.092,1.274-0.237c-0.073-0.89-0.194-1.814-0.194-2.862c0.482-0.963,1.432-1.457,2.506-1.715l-0.863-6.218
		C71.387,46.303,69.876,47.563,69.064,50.922z"/>
	<path fill="#A6A8AB" d="M47.563,6.18c2.961-1.11,5.587,0.368,8.407-1.023c2.598-1.282,5.103-2.192,7.964-2.699
		c1.766-0.313,4.543,0.25,6.359,0.496c2.034,0.275,3.568,1.249,4.957,2.756c3.106,3.374,6.128,6.981,9.421,10.25
		c0.049-0.013,0.1-0.026,0.125-0.041c0.023-0.013,0.046-0.026,0.068-0.04c0.271-0.162,0.491-0.364,0.678-0.586
		c-0.705-1.476-0.559-2.82,0.178-4.1c-0.197-0.391-0.433-0.756-0.727-1.05c0,0-23.212-13.289-23.392-13.419
		c-0.203-0.146-0.418-0.268-0.639-0.374c-0.605,0.662-1.002,1.37-0.709,2.251c-0.924,0-2.69-0.854-3.744-1.771
		C54.917-2.24,41.572,5.396,35.867,8.666c-0.452,1.095-1.038,2.147-1.606,3.188C38.527,9.581,43.087,7.857,47.563,6.18z"/>
	<polyline fill="#2B2B2B" points="57.463,60.639 57.347,56.701 56.503,56.701 	"/>
	<path fill="#2B2B2B" d="M60.123,56.701v4c0,0,0.475-2.631,0.928-2.943s0.563-1.057,0.563-1.057H60.123z"/>
</g>
</svg>
