<?xml version="1.0" encoding="utf-8"?>
<!-- Generator: Adobe Illustrator 16.0.0, SVG Export Plug-In . SVG Version: 6.00 Build 0)  -->
<!DOCTYPE svg PUBLIC "-//W3C//DTD SVG 1.1//EN" "http://www.w3.org/Graphics/SVG/1.1/DTD/svg11.dtd">
<svg version="1.1"
	 id="Layer_1" xmlns:sodipodi="http://sodipodi.sourceforge.net/DTD/sodipodi-0.dtd" xmlns:dc="http://purl.org/dc/elements/1.1/" xmlns:svg="http://www.w3.org/2000/svg" xmlns:rdf="http://www.w3.org/1999/02/22-rdf-syntax-ns#" xmlns:inkscape="http://www.inkscape.org/namespaces/inkscape" xmlns:cc="http://creativecommons.org/ns#" inkscape:version="0.48.2 r9819" sodipodi:docname="Arrow.svg"
	 xmlns="http://www.w3.org/2000/svg" xmlns:xlink="http://www.w3.org/1999/xlink" x="0px" y="0px" width="117.507px"
	 height="62.203px" viewBox="0 0 117.507 62.203" enable-background="new 0 0 117.507 62.203" xml:space="preserve">
<g>
	<path opacity="0.3" fill="#515150" enable-background="new    " d="M93.658,24.795c-1.045-0.177-2.584,0.978-2.88-0.504
		L77.66,24.24c-0.914,0.814-1.83,1.685-2.578,2.559c-1.137-1.463-3.723-1.766-5.688-2.588l-8.638-0.037l0.49-1.034
		c0,0.001,0,0.001,0,0.001l0.207-0.44l-0.031-4.935l0.031-0.065c0-0.106-0.018-0.188-0.033-0.273v-0.049l-0.004,0.005
		c-0.031-0.144-0.074-0.266-0.147-0.338c-1.192-1.154-4.609-0.901-6.788,0.146c-0.051,0.025-8.404,4.139-16.148,7.861
		c-0.71,1.216-1.816,2.336-2.856,3.59c-0.152-0.701-0.114-1.49-0.336-2.158c-5.23,2.513-9.478,4.555-9.49,4.561
		c-0.946,0.454-1.863,1.182-2.438,1.898v1.806l-0.508,0.154v3.123l1.009,0.271c0.236,0.252,0.38,0.563,0.547,0.871
		c0.054,0.088,0.107,0.183,0.161,0.276c0.065,0.097,0.137,0.188,0.223,0.275c-0.615,0-1.164-0.12-1.939,0.183
		c0.178,0.492,0.584,0.918,1.117,1.241c0.015,0.009,0.044,0.024,0.083,0.047c0.029,0.017,0.069,0.037,0.11,0.06
		c0.012,0.008,0.021,0.013,0.034,0.02c0.018,0.01,0.028,0.016,0.047,0.025c0.86,0.459,3.576,1.867,6.656,3.459
		c0.224-0.215,0.417-0.437,0.574-0.666c0.021-0.031,0.042-0.063,0.062-0.096c0.085-0.137,0.16-0.275,0.212-0.42
		c0.804,0.495,0.867,1.221,0.747,2.008c2.335,1.207,4.725,2.438,6.57,3.391c0,0.001,0,0.001-0.001,0.001
		c1.955,1.007,3.296,1.696,3.308,1.7c1.242,0.451,4.087,0.519,5.655-0.541c0.09-0.063,0.178-0.135,0.267-0.205
		c0.241-0.197,0.534-0.52,0.869-0.944l1.149-2.428h12.677h1.181h9.276c0.164-0.372,0.33-0.739,0.508-1.097
		c0.041,0.084,0.086,0.137,0.131,0.176c0.012,0.012,0.023,0.02,0.035,0.027c0.04,0.026,0.08,0.043,0.121,0.049
		c0.006,0,0.012,0.002,0.018,0.002c0.051,0.002,0.102-0.01,0.152-0.029c0.002-0.001,0.004-0.002,0.005-0.002
		c0.138-0.059,0.272-0.176,0.387-0.243c0.104-0.063,0.19-0.087,0.244,0.021c0.103,0.508,0.146,0.789,0.136,1.097h10.027
		c0.193-0.271,0.408-0.519,0.632-0.753c0.063-0.068,0.132-0.133,0.199-0.197c0.009-0.009,0.021-0.016,0.028-0.023l0,0
		c0.166-0.16,0.338-0.312,0.519-0.451c0.074-0.057,0.146-0.116,0.222-0.17c0.25-0.178,0.518-0.332,0.791-0.474
		c0.271-0.134,0.553-0.247,0.846-0.345c0.076-0.023,0.145-0.063,0.222-0.085l4.442-9.614v0.001l0.59-1.274h0.001l0.001-0.004
		c-0.362-1.121-0.381-2.313,0.104-3.368V24.795L93.658,24.795z"/>
	<path fill="#414242" d="M93.658,18.913l-3.848,3.286v1.206l-12.15-0.047c-0.914,0.814-1.83,1.685-2.578,2.559
		c-1.137-1.463-3.723-1.766-5.688-2.588l-11-0.047l3.06-6.464l-0.031-5.049l-0.002-0.274l-3.238,3.193l-0.131,0.739
		c-1.223,0.073-2.535,0.383-3.57,0.881c-0.051,0.025-8.404,4.139-16.148,7.861c-0.71,1.216-1.816,2.336-2.856,3.59
		c-0.152-0.701-0.114-1.49-0.336-2.158c-2.954,1.419-5.593,2.688-7.334,3.524l0.717-0.84L26.09,26.19l-2.879,0.87v1.806
		l-0.508,0.154v3.123l1.009,0.271c0.236,0.252,0.38,0.563,0.547,0.873c0.054,0.088,0.107,0.182,0.161,0.275
		c0.065,0.096,0.137,0.188,0.223,0.275c-0.615,0-1.164-0.121-1.939,0.183c0.178,0.492,0.584,0.918,1.117,1.241
		c0.015,0.009,0.044,0.025,0.083,0.047c0.029,0.016,0.069,0.037,0.11,0.061c0.012,0.006,0.021,0.012,0.034,0.019
		c0.018,0.009,0.028,0.015,0.047,0.024c0.86,0.459,3.576,1.867,6.656,3.461c0.385-0.369,0.694-0.756,0.848-1.183
		c0.804,0.495,0.867,1.222,0.747,2.007c2.335,1.207,4.725,2.439,6.57,3.391c0,0.002,0,0.002-0.001,0.002
		c1.955,1.007,3.296,1.697,3.308,1.699c1.242,0.451,4.087,0.52,5.655-0.541c0.09-0.063,0.178-0.133,0.267-0.203
		c0.241-0.198,0.534-0.521,0.869-0.945l1.149-2.428h23.135c0.162-0.373,0.328-0.739,0.507-1.096c0.364,0.727,0.911-0.365,1.093,0
		c0.102,0.508,0.146,0.787,0.137,1.096h10.026c0.194-0.271,0.407-0.519,0.632-0.754c0.064-0.067,0.133-0.131,0.199-0.196
		c0.174-0.169,0.355-0.327,0.547-0.476c0.074-0.058,0.146-0.117,0.221-0.17c0.561-0.398,1.178-0.709,1.858-0.902l5.032-10.889l0,0
		l0.002-0.004c-0.362-1.12-0.381-2.313,0.104-3.367v-5H93.658z"/>
	<path fill="#2B2B2B" d="M23.898,32.669c0.027-0.61,0.055-1.224,0.059-1.835c0.011-1.683,1.396-3.088,3.087-3.088
		c0.388,0,0.759,0.082,1.105,0.219l-2.06-1.775l-2.879,0.87v1.806l-0.508,0.154v3.123l1.009,0.271
		C23.786,32.492,23.839,32.583,23.898,32.669z"/>
	<path fill="#2B2B2B" d="M60.021,13.764c0.411,1.186,0.875,2.332,1.225,3.494l0.207-0.44l-0.031-5.049l-0.002-0.274l-1.68,1.655
		C59.851,13.344,59.947,13.547,60.021,13.764z"/>
	<path fill="#2B2B2B" d="M93.658,18.913l-3.848,3.286v1.206l-12.15-0.047c-0.914,0.814-1.83,1.685-2.578,2.559
		c-1.137-1.463-3.723-1.766-5.688-2.588l-8.853-0.038c-0.778,0.543-1.819,0.762-2.691,0.521c-1.663-0.457-2.361-1.991-2.178-3.569
		c-0.005-0.023-0.009-0.038-0.014-0.056c-0.106,0.463-0.095-0.366,0,0c0-0.002,0.001-0.007,0.002-0.009
		c-0.032-0.179-0.066-0.355-0.11-0.532c-0.146-0.563-0.315-1.116-0.514-1.663c-0.2-0.55-0.412-1.096-0.621-1.643
		c-0.658,0.324-8.641,4.252-16.083,7.829c-0.71,1.216-1.816,2.336-2.856,3.59c-0.152-0.701-0.114-1.49-0.336-2.158
		c-2.318,1.113-4.434,2.131-6.083,2.923c0.504,0.439,0.869,1.032,1.009,1.7c0.366,0.347,0.666,0.805,0.832,1.415
		c0.623,2.288,0.498,4.635,0.125,6.954c0.258-0.284,0.462-0.584,0.578-0.903c0.804,0.495,0.867,1.222,0.747,2.007
		c0.013,0.008,0.027,0.014,0.04,0.021c0.028-1.783,0.059-3.555,0.432-5.328c0.346-1.648,2.252-2.582,3.798-2.157
		c1.381,0.38,2.159,1.571,2.218,2.89c1.357-1.1,3.562-0.996,4.549,0.315c0.37-0.498,0.895-0.89,1.591-1.08
		c1.511-0.415,3.499,0.499,3.798,2.157c0.263,1.451,0.719,2.833,1.188,4.207c0.606-2.621,1.368-5.207,1.983-7.832
		c0.691-2.951,4.299-2.698,5.586-0.703c1.591-1.253,4.306-1.08,4.868,1.453c0.52,2.34,0.584,4.682,0.443,7.031h1.182
		c0.078-2.19-0.121-4.416-0.064-6.586c0.08-3.046,3.717-3.754,5.369-2.131c0.334-0.127,0.695-0.207,1.094-0.207
		c1.582,0,3.223,1.408,3.088,3.088c-0.15,1.891-0.057,3.758-0.113,5.631c0.134-0.301,0.268-0.602,0.412-0.891
		c0.259,0.516,0.607,0.119,0.854-0.025c0.207-2.309,0.453-4.611,0.782-6.91c0.239-1.67,2.333-2.561,3.798-2.157
		c1.287,0.354,1.961,1.319,2.146,2.457c0.072-0.024,0.137-0.062,0.214-0.082c1.479-0.407,3.538,0.491,3.798,2.157
		c0.242,1.553,0.378,3.117,0.523,4.682c0.166-0.158,0.338-0.311,0.519-0.449c0.074-0.059,0.146-0.117,0.222-0.172
		c0.5-0.354,1.057-0.629,1.653-0.824c-0.022-0.332-0.056-0.664-0.087-0.996c-0.598-0.562-0.979-1.332-0.896-2.17
		c0.272-2.739-0.664-5.385-0.625-8.125c0.06-3.979,6.234-3.984,6.176,0c-0.008,0.536,0.029,1.068,0.08,1.6l0.589-1.275h0.001
		l0.001-0.004c-0.362-1.12-0.382-2.313,0.104-3.367v-5.002H93.658z"/>
	<path fill="#2B2B2B" d="M43.569,40.791c-0.137,1.403-0.276,2.81-0.389,4.217c0.553,0.08,1.203,0.109,1.863,0.064
		C44.676,43.621,44.081,42.214,43.569,40.791z"/>
	<g>
		<path fill="#878787" d="M24.259,28.286c0.054,0.088,0.107,0.182,0.161,0.276c0.065,0.096,0.137,0.188,0.223,0.275
			c-0.615,0-1.164-0.12-1.939,0.183c0.178,0.492,0.584,0.918,1.117,1.241c0.229,0.14,3.335,1.751,6.931,3.61
			c0.385-0.369,0.694-0.756,0.848-1.182c0.804,0.495,0.867,1.221,0.747,2.007c4.805,2.483,9.854,5.085,9.877,5.093
			c1.242,0.451,4.087,0.519,5.655-0.541c0.09-0.063,0.178-0.135,0.267-0.205c0.241-0.197,0.534-0.52,0.869-0.944l1.149-2.429h23.134
			c0.164-0.371,0.33-0.738,0.508-1.096c0.365,0.729,0.912-0.365,1.093,0c0.103,0.508,0.146,0.788,0.136,1.096h10.027
			c0.865-1.203,2.034-2.092,3.457-2.498l5.034-10.893c-0.362-1.12-0.382-2.313,0.104-3.367c-1.045-0.177-2.584,0.978-2.88-0.504
			L77.66,18.357c-0.914,0.814-1.83,1.685-2.578,2.559c-1.137-1.463-3.723-1.766-5.688-2.588l-11-0.047l3.06-6.464
			c-0.002-0.312-0.063-0.535-0.186-0.656c-1.191-1.154-4.609-0.901-6.788,0.146c-0.051,0.025-8.404,4.139-16.148,7.861
			c-0.71,1.216-1.816,2.336-2.856,3.59c-0.152-0.701-0.114-1.49-0.336-2.158c-5.23,2.513-9.478,4.555-9.49,4.561
			c-0.946,0.454-1.863,1.182-2.438,1.898C23.821,27.301,24,27.804,24.259,28.286z"/>
		<path fill="#58595B" d="M84.705,33.542c-1.399-0.172-2.75-0.453-4.109-0.824c-0.997-0.271-2.105-0.692-3.146-0.729
			c-2.596-0.09-5.199-0.023-7.789-0.212c-1.33-0.098-2.63-0.263-3.967-0.126c-1.123,0.114-2.229,0.355-3.333,0.594
			c-1.339,0.287-2.749,0.69-4.125,0.689c-1.227-0.001-2.461-0.214-3.625-0.611c-1.087-0.371-2.174-0.961-3.354-0.906
			c-0.883,0.04-1.79,0.33-2.601,0.735c-2.157,1.087-4.147,2.481-6.225,3.708c-1.204,0.707-2.388,1.424-3.515,2.227
			c1.955,1.008,3.296,1.697,3.308,1.701c1.242,0.451,4.087,0.519,5.655-0.541c0.09-0.063,0.178-0.135,0.267-0.205
			c0.241-0.197,0.534-0.52,0.869-0.944l1.149-2.429h23.135c0.162-0.371,0.328-0.738,0.507-1.096c0.364,0.729,0.911-0.365,1.093,0
			c0.102,0.508,0.146,0.788,0.137,1.096h10.026c0.634-0.883,1.433-1.594,2.376-2.071C86.522,33.662,85.607,33.656,84.705,33.542z"/>
		<path fill="#A6A8AB" d="M22.704,29.02c0.178,0.492,0.584,0.918,1.117,1.241c0.034,0.021,0.127,0.072,0.274,0.15
			c2.076-2.196,4.093-4.342,6.991-5.56c0.704-0.293,1.649,0.066,2.154,0.57c0.229,0.228,0.381,0.476,0.482,0.741
			c0.076-0.037,0.152-0.07,0.229-0.106c0.158-0.076,0.317-0.152,0.47-0.235c1.8-0.939,3.371-2.168,5.269-2.937
			c1.333-0.54,2.82-0.879,4.055-1.637c1.229-0.75,2.153-1.862,3.335-2.669c2.334-1.593,5.141-2.205,7.519-3.704
			c2.157-1.358,4.442,1.714,2.682,3.478c-0.873,0.87-1.744,1.742-2.597,2.636c0.841,0.024,1.681,0.05,2.522,0.069
			c1.277,0.028,2.559,0.051,3.838,0.025c0.994-0.021,2.014-0.037,2.701-0.154c1.967-0.347,4.037-0.878,6.004-0.26
			c0.562,0.175,1.069,0.527,1.479,0.943c0.077,0.08,0.155,0.141,0.215,0.179c0.058,0.023,0.118,0.044,0.179,0.069
			c0.901,0.358,1.803,0.75,2.733,1.032c0.909,0.275,1.315,0.152,2.358-0.213c0.929-0.328,1.859-0.602,2.802-0.883
			c1.801-0.536,3.618-1.075,5.472-1.403c1.983-0.352,4.469-0.809,6.104,0.715c0.279,0.267,0.502,0.583,0.729,0.892
			c0.004,0.004,0.006,0.007,0.008,0.009c0.024,0.021,0.051,0.047,0.088,0.082c0.172,0.174,0.203,0.196,0.09,0.071
			c0.09,0.049,0.141,0.079,0.17,0.102c0.025,0.006,0.058,0.014,0.096,0.022c0.104,0.022,0.166,0.038,0.189,0.045
			c0.305,0.014,0.611,0.014,0.914-0.028c0.059-0.01,0.117-0.015,0.179-0.02l0.001-0.004c-0.362-1.12-0.381-2.313,0.104-3.367
			c-1.044-0.177-2.582,0.978-2.879-0.504L77.66,18.356c-0.912,0.814-1.828,1.685-2.578,2.559c-1.136-1.463-3.722-1.766-5.688-2.588
			l-11-0.047l3.061-6.464c-0.004-0.312-0.063-0.535-0.187-0.656c-1.192-1.154-4.609-0.901-6.788,0.146
			c-0.051,0.025-8.404,4.139-16.148,7.861c-0.71,1.216-1.816,2.336-2.856,3.59c-0.152-0.701-0.114-1.49-0.336-2.158
			c-5.23,2.513-9.478,4.555-9.49,4.561c-0.946,0.454-1.863,1.182-2.438,1.898c0.609,0.241,0.789,0.744,1.048,1.226
			c0.054,0.088,0.107,0.182,0.161,0.276c0.065,0.096,0.137,0.188,0.223,0.275C24.028,28.837,23.479,28.717,22.704,29.02z"/>
	</g>
</g>
</svg>
