<?xml version="1.0" encoding="utf-8"?>
<!-- Generator: Adobe Illustrator 16.0.0, SVG Export Plug-In . SVG Version: 6.00 Build 0)  -->
<!DOCTYPE svg PUBLIC "-//W3C//DTD SVG 1.1//EN" "http://www.w3.org/Graphics/SVG/1.1/DTD/svg11.dtd">
<svg version="1.1" id="Layer_1" xmlns="http://www.w3.org/2000/svg" xmlns:xlink="http://www.w3.org/1999/xlink" x="0px" y="0px"
	 width="35.574px" height="122.516px" viewBox="0 0 35.574 122.516" enable-background="new 0 0 35.574 122.516"
	 xml:space="preserve">
<g>
	<g>
		<g>
			<path fill="#020202" d="M20.138,98.347l1.436-0.499c0.238-0.084,0.556-0.161,0.825-0.25c0.588-0.174,1.123-0.298,1.686-0.416
				c1.104-0.236,2.213-0.406,3.316-0.543c0.557-0.07,1.104-0.101,1.653-0.156c0.555-0.06,1.101-0.087,1.659-0.109
				c1.103-0.074,2.192-0.065,3.298-0.102l-1.522,1.524c-0.051-1.28-0.033-2.561-0.01-3.849l1.527,1.527l-2.452-0.008l-1.226,0.007
				l-0.612,0.001l-0.644-0.002c-0.212-0.001-0.404-0.014-0.655-0.035l-0.354-0.016l-0.35-0.029l-0.239-0.043l-0.154-0.03
				l-0.306-0.048l-0.307-0.047l-0.138-0.017l-0.178-0.041l-0.073-0.015l-0.396-0.099l-0.294-0.093l-0.671-0.205
				c-0.297-0.104-0.401-0.156-0.618-0.243c-0.208-0.091-0.464-0.222-0.688-0.329l-0.06-0.035l-0.062-0.046l-0.711-0.507
				l-0.641-0.459l0.041-0.814l0,0c0.022-3.275,0.115-6.559,0.166-9.842l0.276-9.822c0.151-6.562,0.463-13.111,0.717-19.657
				c0.121-3.279,0.25-6.548,0.432-9.827l0.51-9.826l0.629-9.81c0.101-1.639,0.251-3.268,0.378-4.908
				c0.119-1.638,0.255-3.271,0.408-4.91l0.404,1.108l0,0L15.887,4.819l3.297-0.084l0.002,0.002L9.771,14.804l0.361-1.047l0,0
				c0.306,3.261,0.508,6.538,0.761,9.808l0.608,9.821c0.413,6.544,0.696,13.102,0.987,19.649c0.257,6.545,0.499,13.106,0.625,19.661
				l0.197,9.835c0.011,3.286,0.08,6.571,0.036,9.853l-0.003,0.932l-0.671,0.402l-0.004-0.004l-0.371,0.244l-0.279,0.172
				c-0.326,0.193-0.467,0.237-0.684,0.341c-0.245,0.115-0.504,0.225-0.773,0.312l-0.69,0.221l-0.158,0.04l-0.259,0.079l-0.317,0.08
				L8.4,95.333l-0.333,0.055l-0.472,0.046l-0.66,0.056l-0.779,0.018l-0.647,0.02H4.182l-2.649-0.005l1.528-1.523l0.001,3.863
				L1.542,96.34c1.088,0.006,2.197-0.004,3.321,0.082c0.542,0.026,1.092,0.031,1.645,0.095c0.559,0.05,1.111,0.082,1.673,0.158
				c1.108,0.13,2.227,0.304,3.34,0.535c1.107,0.238,2.227,0.556,3.322,0.95l0.938,0.344l0.045,1.005l0,0
				c0.384,1.486,0.6,2.97,0.77,4.457c0.176,1.497,0.291,2.995,0.337,4.481c0.056,1.495,0.091,3.003,0.048,4.5
				c-0.03,1.502-0.113,3-0.313,4.508l-0.248,1.819l-1.274-0.218l-0.001,0.002l-0.219-0.008l-0.019,0.002l0,0
				c-0.028,0.001,0.246-0.008,0.131-0.004l0,0l-0.001,0.001l-0.005,0.005l-0.018,0.001l-0.063-0.004l-0.101,0.007
				c-0.066,0.009,0.093,0.007,0.121-0.019c0.061-0.011,0.069-0.009,0.094-0.027c0.05-0.036,0.107-0.081,0.177-0.169
				c0.08-0.08,0.123-0.228,0.142-0.385l0.008-0.052l-0.008-0.025v-0.174l-0.002,0.01l-0.005,0.005l0.003,0.028l0.012,0.098
				c0.01,0.093,0.01-0.039-0.011-0.107c-0.014-0.069-0.041-0.136-0.071-0.194c-0.054-0.117-0.136-0.195-0.188-0.229
				c-0.052-0.044-0.104-0.064-0.136-0.068c-0.022-0.005-0.039-0.005-0.053-0.014l-0.026,0.005l0.104-0.001l1.206,0.003l0.24,1.039
				c0.063,0.251,0.502,0.627,1.059,0.676c0.065,0.006,0.143,0.01,0.209,0.009c-0.024-0.006,0.271-0.003,0.229-0.025
				c-0.002,0,0.092,0,0.018,0.003l0.186-0.037c0.167-0.031,0.147-0.053,0.196-0.061l0.028,0.001c-0.142,0.043-0.04,0.01-0.064,0.021
				v-0.001l0.001-0.001l0.007-0.001l0.007-0.002l0.027-0.013l0.046-0.019l0.079-0.046c0.087-0.034-0.101,0.064-0.078,0.053l0,0
				l0.003-0.002l0.003-0.004l0.005-0.004l0.019-0.019l0.045-0.021l0.171-0.082c0.055-0.036,0.037-0.028,0.055-0.046
				c0.037-0.021,0.142-0.126,0.193-0.178l0.109-0.125c0.08-0.081,0.137-0.146,0.155-0.205l1.394-0.922
				c-0.056-0.002-0.129,0.008-0.252,0.097c-0.063,0.051-0.123,0.141-0.182,0.273c-0.026,0.057-0.039,0.133-0.056,0.199l0.006,0.068
				l0.002,0.025l0.01,0.184l-0.002-0.003l-0.002-0.003l0.001-0.007l-0.007-0.011l-0.009-0.098l-0.001-0.046
				c-0.001,0.031-0.004,0.063,0.012,0.106c0.007,0.07,0.025,0.135,0.053,0.193c0.054,0.102,0.06,0.117,0.105,0.168
				c0.055,0.075,0.121,0.122,0.174,0.146c0.037,0.021,0.079,0.032,0.106,0.032c-0.006,0.006,0.081,0.004-0.002-0.003l-0.203-0.001
				l-1.517,0.011l-0.002-1.534l0,0l0.012-1.52l1.515-0.007l0.052,0.009l0,0l-1.536,1.437c-0.176-0.754-0.266-1.507-0.356-2.261
				c-0.07-0.748-0.131-1.516-0.152-2.263c-0.054-1.501-0.024-3,0.061-4.507c0.104-1.491,0.232-2.984,0.453-4.48
				c0.104-0.742,0.242-1.488,0.384-2.24c0.161-0.738,0.328-1.482,0.553-2.224L20.138,98.347z M22.959,100.618
				c0.062,0.427,0.141,0.855,0.18,1.277c0.065,0.747,0.122,1.5,0.151,2.261c0.065,1.497,0.044,3.003-0.022,4.497
				c-0.059,1.498-0.19,2.993-0.394,4.487c-0.109,0.747-0.242,1.49-0.393,2.24c-0.176,0.736-0.34,1.478-0.603,2.219l-0.593,1.694
				l-0.928-0.243l0,0l-0.046-0.004l1.524-1.524l0,0L20.314,116l0.207,0.006c0.045-0.008,0.267,0.007,0.395,0.021
				c0.299,0.038,0.594,0.127,0.889,0.276c0.279,0.144,0.557,0.353,0.792,0.634c0.121,0.161,0.214,0.283,0.314,0.5
				c0.06,0.128,0.097,0.255,0.138,0.394l0.044,0.201l-0.002,0.043l0.018,0.102l0.021,0.22l-0.016,0.069l-0.004,0.162
				c-0.025,0.208-0.08,0.403-0.161,0.592c-0.149,0.385-0.39,0.677-0.649,0.915c-0.525,0.459-1.151,0.632-1.733,0.637l1.389-0.922
				c-0.195,0.452-0.477,0.841-0.785,1.149l0.111-0.127c-0.29,0.342-0.545,0.597-0.943,0.852c-0.216,0.155-0.327,0.2-0.43,0.258
				l-0.185,0.08l-0.075,0.051l-0.167,0.057l-0.15,0.056c-0.195,0.071-0.444,0.154-0.545,0.153l-0.179,0.052
				c-0.195,0.043-0.25,0.031-0.368,0.053c-0.288,0.034-0.242,0.024-0.529,0.035c-0.179,0.002-0.367-0.012-0.555-0.034
				c-0.725-0.073-1.459-0.325-2.107-0.778c-0.647-0.444-1.215-1.113-1.496-1.965l1.456,1.049l-0.118-0.003l-0.228-0.013
				c-0.151-0.006-0.308-0.029-0.459-0.072c-0.306-0.075-0.604-0.211-0.883-0.418c-0.288-0.201-0.549-0.492-0.736-0.847
				c-0.06-0.128-0.11-0.263-0.152-0.397c-0.035-0.125-0.078-0.328-0.069-0.307l-0.009-0.106l-0.006-0.029l-0.011-0.193l-0.001-0.046
				l0.021-0.156c0.027-0.439,0.216-0.833,0.438-1.147c0.233-0.313,0.516-0.538,0.807-0.71c0.162-0.063,0.284-0.136,0.468-0.191
				c0.166-0.053,0.452-0.11,0.54-0.11l0.1-0.011l0.229-0.014l0.211-0.004l0,0l-1.523,1.608c-0.343-1.479-0.556-2.971-0.737-4.469
				c-0.177-1.483-0.291-2.982-0.373-4.473c-0.08-1.491-0.105-2.982-0.082-4.489c0.033-1.499,0.116-3.007,0.353-4.515l0,0
				l0.978,1.351c-0.927-0.341-1.901-0.615-2.893-0.825c-0.999-0.211-2.022-0.361-3.059-0.493c-0.508-0.063-1.029-0.089-1.56-0.15
				c-0.509-0.052-1.038-0.062-1.562-0.093c-1.046-0.066-2.103-0.044-3.158-0.07L0,99.344l0.011-1.473l0.007-3.857l0.005-1.521
				l1.522-0.006l2.639-0.01l1.333,0.006l0.651-0.01l0.553-0.012l0.657-0.055c-0.053,0.004,0.26-0.036,0.187-0.021l0.313-0.064
				l0.573-0.087l0.32-0.08l0.043-0.014l0.019,0.001h0.017l0,0c0.091-0.033-0.12,0.04-0.098,0.031l0,0l0.069-0.03l0.161-0.049
				l0.574-0.17c0.158-0.05,0.301-0.121,0.467-0.168c0.178-0.099,0.453-0.21,0.501-0.259l0.284-0.168l0.021-0.017l0.005-0.005
				l0.005-0.005c0.013-0.013-0.139,0.08-0.072,0.047l0,0l0.038-0.021l0.058-0.048l0.116-0.083l0,0l-0.675,1.333
				c-0.304-3.273-0.502-6.533-0.759-9.807L8.93,72.888C8.528,66.347,8.239,59.8,7.964,53.247
				c-0.251-6.552-0.498-13.102-0.633-19.664l-0.192-9.834C7.13,20.46,7.069,17.185,7.1,13.897l0,0l-0.048-0.519l0.407-0.53
				l8.37-10.945L15.831,1.9L17.599,0l1.53,1.817l9.246,10.933l0,0l0.404,0.394l0.003,0.704c0.005,1.643-0.005,3.285-0.028,4.921
				c-0.024,1.641-0.021,3.283-0.066,4.917l-0.255,9.835l-0.361,9.828c-0.112,3.283-0.282,6.548-0.434,9.826
				c-0.341,6.548-0.642,13.089-1.048,19.629l-0.615,9.83c-0.222,3.271-0.444,6.541-0.71,9.813l0,0l-0.605-1.291l0.558,0.402
				l-0.117-0.07l0.428,0.199c0.148,0.075,0.432,0.187,0.497,0.207l0.513,0.153l0.294,0.091l0.003,0.002l0,0
				c0.026,0.004-0.18-0.056-0.094-0.03l0,0l0.016,0.012l0.055,0.001l0.069,0.024l0.15,0.037l0.071,0.025l0.008-0.002l0.007,0.007
				c-0.194-0.044-0.053-0.025-0.089-0.024l0.001-0.001l0.014-0.005l0.032,0.014l0.157,0.033l0.308,0.056l0.305,0.051l0.144,0.014
				l0.03,0.001l0.011,0.005l0.001-0.001c0.069,0.015-0.104-0.012-0.08-0.008l0,0l0.024,0.006l0.091,0.012l0.246,0.013l0.265,0.031
				c0.161,0.021,0.377,0.015,0.577,0.028l0.569-0.009l0.616,0.002l1.228-0.001l2.456-0.009l1.513-0.011l0.012,1.535
				c0.021,1.289,0.053,2.571-0.003,3.86l-0.018,1.488l-1.506,0.034c-1.063,0.029-2.109,0.024-3.148,0.094
				c-0.52,0.036-1.048,0.046-1.562,0.105c-0.518,0.049-1.04,0.079-1.554,0.146c-1.027,0.13-2.04,0.289-3.038,0.5
				c-0.489,0.116-1.003,0.216-1.447,0.359C23.162,100.552,23.055,100.58,22.959,100.618z"/>
		</g>
		<g>
			<path fill="#8E8D8D" d="M14.988,118.653c-0.002,1.3,1.267,2.346,2.827,2.344c1.559-0.004,2.824-1.06,2.834-2.354L14.988,118.653z
				"/>
			<path fill="#D0CFCD" d="M19.101,120.42c-0.13,0.018-0.288,0.09-0.366,0.11c-1.31,0.429-2.173-0.948-2.431-1.79
				c-0.02-0.033-0.01-0.062-0.015-0.085l-1.303-0.001c0.001,1.298,1.268,2.345,2.829,2.342c0.347,0.001,0.692-0.058,1.017-0.166
				c0.123-0.054,0.59-0.17,0.499-0.342C19.284,120.415,19.196,120.405,19.101,120.42z"/>
			<path fill="#7A7A7A" d="M16.609,119.169c0.347,0.134,0.741,0.085,1.106,0.132c0.856,0.118,1.643,0.37,2.408,0.688
				c0.418-0.396,0.688-0.897,0.688-1.47l-4.732,0.009c0.046,0.067,0.1,0.133,0.128,0.229
				C16.276,118.969,16.422,119.097,16.609,119.169z"/>
			<polygon fill="#722916" points="20.331,118.638 15.305,118.662 13.998,96.077 21.729,96.05 			"/>
			<g>
				<polygon fill="#391913" points="20.878,104.57 16.896,103.807 14.426,104.211 14.37,103.333 14.37,103.333 14.433,104.425 
					18.292,104.991 				"/>
				<polygon fill="#812A19" points="14.365,103.284 14.37,103.333 14.426,104.211 16.896,103.807 21.367,103.092 21.424,102.127 
									"/>
				<polygon fill="#391913" points="21.121,106.753 16.837,106.264 14.567,106.6 14.579,106.795 18.159,107.43 				"/>
				<polygon fill="#812A19" points="20.878,104.57 18.292,104.991 14.504,105.603 14.531,106.006 14.567,106.6 16.837,106.264 
					21.202,105.606 21.224,105.426 21.269,104.65 				"/>
				<polygon fill="#391913" points="20.572,108.896 17.001,108.564 14.712,108.988 14.71,109.018 17.593,109.53 				"/>
				<polygon fill="#812A19" points="21.121,106.753 18.159,107.43 14.659,108.235 14.661,108.343 14.712,108.988 17.001,108.564 
					20.734,107.888 21.058,107.828 21.127,106.747 				"/>
				<polygon fill="#391913" points="20.662,111.184 16.958,110.624 14.824,110.998 14.833,111.054 18.359,111.478 				"/>
				<polygon fill="#812A19" points="20.572,108.896 17.593,109.53 14.774,110.114 14.783,110.288 14.824,110.998 16.958,110.624 
					20.303,110.009 20.929,109.898 20.996,108.943 				"/>
				<polygon fill="#391913" points="15.062,113.055 17.854,113.555 20.727,113.243 20.727,113.179 17.51,112.516 				"/>
				<polygon fill="#812A19" points="20.662,111.184 18.359,111.478 14.881,111.927 14.889,111.963 14.945,113.046 15.062,113.055 
					17.51,112.516 20.778,111.769 20.815,111.767 20.846,111.21 				"/>
				<polygon fill="#812A19" points="17.854,113.555 14.994,113.89 15.038,114.609 16.843,114.404 20.419,114.024 20.673,113.988 
					20.727,113.243 				"/>
				<polygon fill="#391913" points="19.965,114.891 16.843,114.404 15.042,114.591 15.047,114.678 17.747,115.245 				"/>
				<polygon fill="#391913" points="15.158,116.555 15.167,116.731 18.576,117.526 20.451,117.526 20.474,117.048 16.858,116.338 
									"/>
				<polygon fill="#812A19" points="19.965,114.891 17.747,115.245 15.112,115.686 15.126,115.997 15.158,116.555 16.858,116.338 
					20.548,115.858 20.559,115.845 20.604,114.995 				"/>
			</g>
			<polygon fill="#D0CFCD" points="8.704,13.819 12.055,94.28 17.405,94.262 23.675,94.255 27.344,13.791 17.593,3.321 			"/>
			<g>
				<polygon fill="#8E8D8D" points="27.344,13.791 17.593,3.321 17.559,20.821 				"/>
				<polygon fill="#7A7A7A" points="17.405,94.262 23.675,94.255 27.344,13.791 17.559,20.821 				"/>
				<path opacity="0.3" fill="#434343" d="M25.453,25.276c-0.027,6.851-0.793,13.775-1.495,20.586
					c-0.765,7.409-1.704,14.812-2.132,22.25c-0.002,0.056-0.002,0.11-0.005,0.166c0.187,5.409,0.287,10.836,0.11,16.229
					c-0.103,3.131-0.102,6.485-0.464,9.751l2.207-0.003l3.669-80.465l-6.314-6.779C23.321,12.95,25.479,18.697,25.453,25.276z"/>
				<polygon fill="#BCBABA" points="8.704,13.819 12.055,94.28 17.405,94.262 17.559,20.821 				"/>
				<path opacity="0.3" fill="#434343" d="M12.214,85.309c-0.39-3.943,0.049-7.829,0.006-11.775
					c-0.038-3.627-0.312-7.253-0.421-10.879c-0.483-15.82-0.771-31.652-1.355-47.46l-1.739-1.375l3.352,80.46l1.701-0.006
					C13.135,91.305,12.511,88.333,12.214,85.309z"/>
			</g>
			<polygon opacity="0.2" fill="#FFFFFF" points="10.186,52.976 26.693,33.995 26.016,42.149 10.396,55.604 			"/>
			<polygon opacity="0.2" fill="#FFFFFF" points="10.505,57.136 25.872,45.917 25.647,49.225 10.52,60.281 			"/>
			<path opacity="0.5" fill="#421F15" enable-background="new    " d="M21.313,99.573c0,0-3.558,4.503-3.474,8.465
				c0,0-0.507-6.92-3.447-8.455l3.457-0.004L21.313,99.573z"/>
			<path opacity="0.5" fill="#515151" enable-background="new    " d="M11.189,93.17c0,0,2.816-6.228,2.833-8.824l3.372-0.011
				l4.933-0.013c0,0,0.113,6.86,2.905,9.016L11.189,93.17z"/>
			<g>
				<path fill="#020202" d="M29.451,95.374l-0.801,0.011c-0.299-0.022-0.622-0.038-0.914-0.063c-0.595-0.069-1.18-0.144-1.771-0.297
					c-1.176-0.287-2.339-0.787-3.372-1.521c-1.04-0.717-1.914-1.674-2.579-2.725c-0.328-0.536-0.623-1.09-0.859-1.685
					c-0.106-0.277-0.205-0.576-0.307-0.889c-0.083-0.313-0.165-0.573-0.239-1.01l0.001-0.001l1.664,1.474l-4.78-0.078l0,0l1.566-1.4
					c-0.095,0.556-0.201,0.902-0.336,1.33c-0.135,0.405-0.291,0.8-0.48,1.182c-0.354,0.763-0.815,1.498-1.366,2.151
					c-1.098,1.316-2.58,2.325-4.161,2.871c-0.786,0.285-1.594,0.459-2.396,0.567c-0.409,0.044-0.8,0.07-1.198,0.098
					c-0.38,0.016-0.821,0.018-1.159,0.005l-4.338-0.065l1.253-1.253c0.003,1.287-0.038,2.558-0.001,3.854l0,0l-1.255-1.255
					l2.181-0.041c0.736-0.001,1.451,0.017,2.187,0.034c0.729,0.006,1.475,0.086,2.199,0.118c0.743,0.064,1.474,0.153,2.214,0.233
					c0.737,0.122,1.473,0.22,2.226,0.403c0.371,0.079,0.736,0.153,1.105,0.26c0.37,0.11,0.754,0.201,1.122,0.336
					c0.742,0.252,1.494,0.539,2.232,0.936c0.38,0.22,0.746,0.428,1.12,0.709c0.185,0.127,0.368,0.288,0.557,0.454
					c0.099,0.083,0.197,0.197,0.289,0.288c0.055,0.056,0.11,0.119,0.166,0.19c0.059,0.065,0.102,0.113,0.211,0.286l0,0l-3.169,0.003
					c0.115-0.17,0.166-0.221,0.214-0.294c0.053-0.069,0.111-0.133,0.156-0.178c0.099-0.1,0.202-0.216,0.292-0.292
					c0.191-0.169,0.385-0.327,0.565-0.464c0.383-0.271,0.744-0.498,1.124-0.695c0.741-0.415,1.486-0.702,2.229-0.959
					c0.38-0.137,0.749-0.222,1.129-0.325c0.371-0.114,0.738-0.199,1.113-0.276c0.738-0.18,1.483-0.282,2.219-0.407
					c0.746-0.092,1.484-0.18,2.216-0.249c0.73-0.04,1.477-0.112,2.207-0.127c0.722-0.009,1.453-0.052,2.183-0.041l2.185,0.027l0,0
					l-1.262,1.262c0.037-1.281,0.006-2.569,0.014-3.855l1.245,1.245c-1.535,0.033-3.074,0.086-4.62,0.129L29.451,95.374z
					 M29.491,92.654c1.533,0.05,3.081,0.084,4.615,0.107l1.249,0.003l-0.005,1.242c0.011,1.291-0.028,2.569,0.007,3.857l0.017,1.221
					l-1.28,0.043l0,0l-2.098,0.112c-0.702,0.038-1.389,0.118-2.08,0.183c-0.687,0.064-1.37,0.177-2.059,0.26
					c-0.675,0.111-1.353,0.233-2.014,0.373c-0.659,0.159-1.334,0.289-1.952,0.5c-0.324,0.091-0.647,0.174-0.948,0.296
					c-0.308,0.117-0.636,0.205-0.91,0.35c-0.595,0.234-1.164,0.512-1.654,0.822c-0.241,0.158-0.471,0.33-0.655,0.486
					c-0.106,0.083-0.179,0.157-0.253,0.231c-0.044,0.041-0.046,0.068-0.076,0.098c-0.019,0.019-0.013,0.024-0.013,0.024
					c-0.002,0.011-0.003,0.022,0.049-0.082l-3.163,0.009l0,0c0.065,0.095,0.06,0.082,0.055,0.077c0,0,0-0.003-0.021-0.021
					c-0.026-0.029-0.035-0.062-0.077-0.094c-0.07-0.071-0.146-0.155-0.253-0.236c-0.179-0.169-0.41-0.327-0.656-0.477
					c-0.485-0.323-1.064-0.593-1.643-0.837c-0.287-0.125-0.604-0.225-0.913-0.341c-0.297-0.108-0.618-0.199-0.936-0.297
					c-0.637-0.205-1.297-0.326-1.952-0.484c-0.67-0.128-1.337-0.251-2.021-0.356c-0.69-0.084-1.361-0.197-2.056-0.254
					c-0.691-0.057-1.389-0.144-2.081-0.181l-2.091-0.103l-1.29-0.061l0.033-1.196l0,0c0.024-1.291,0.004-2.566,0.017-3.842
					l0.001-1.23l1.253-0.023l4.332-0.083c0.379-0.007,0.666-0.039,1-0.054c0.321-0.033,0.639-0.064,0.953-0.123
					c0.638-0.098,1.237-0.271,1.793-0.504c1.156-0.432,2.117-1.152,2.829-2.102c0.352-0.468,0.663-0.981,0.906-1.524
					c0.104-0.284,0.21-0.564,0.295-0.851c0.083-0.254,0.156-0.612,0.169-0.777l0.144-1.362l1.438-0.021l0,0l4.77-0.104l1.658,1.477
					l0,0c0.012,0.074,0.047,0.34,0.096,0.523c0.046,0.214,0.113,0.417,0.188,0.618c0.134,0.41,0.32,0.812,0.525,1.189
					c0.421,0.742,0.978,1.415,1.649,1.926c0.68,0.535,1.468,0.94,2.337,1.195c0.425,0.136,0.876,0.221,1.345,0.284l0.659,0.093
					l0.784,0.033L29.491,92.654z"/>
			</g>
			<path opacity="0.5" fill="#421F15" enable-background="new    " d="M15.229,117.537l-0.033-0.732c0,0,5.367-3.122,6.02-12.463
				l-0.82,13.285L15.229,117.537z"/>
			<path fill="#562617" d="M21.68,118.389c0,0.48-0.473,0.859-1.042,0.859l-5.646,0.009c-0.578,0.007-1.037-0.377-1.033-0.854l0,0
				c-0.001-0.471,0.463-0.863,1.035-0.869l5.646-0.006C21.215,117.522,21.676,117.904,21.68,118.389L21.68,118.389z"/>
			<path fill="#391912" d="M20.642,117.524l-3.013,0.005c0.114,0.004,0.244,0.239,0.316,0.291c0.462,0.3,1.126,0.111,1.617,0.338
				c0.513,0.217,0.843,0.646,1.005,1.092l0.082,0.001c0.564-0.004,1.037-0.388,1.032-0.866
				C21.679,117.901,21.219,117.521,20.642,117.524z"/>
			<path fill="#77321D" d="M17.996,119.042c-0.17-0.217-0.487-0.295-0.761-0.388c-0.359-0.114-0.69-0.286-1.028-0.439
				c-0.367-0.174-0.525-0.417-0.55-0.676l-0.675-0.008c-0.567,0.006-1.03,0.397-1.031,0.874c-0.001,0.474,0.461,0.859,1.037,0.853
				c0.824-0.005,1.663,0.005,2.5,0.005c0.123-0.005,0.495-0.004,0.527-0.152C18.021,119.09,18.015,119.065,17.996,119.042z"/>
			<g>
				<g>
					<path fill="#722916" d="M1.616,97.849l0.016-3.841l4.608-0.013c8.375-0.011,9.246-7.068,9.246-7.068l2.396,0.003l-0.038,14.827
						C17.846,101.758,15.502,97.835,1.616,97.849z"/>
					<path fill="#562617" d="M34.097,97.801l-0.004-3.857l-4.599,0.005c-8.383,0.015-9.226-7.034-9.226-7.034l-2.385,0.022
						l-0.041,14.821C17.846,101.758,20.215,97.821,34.097,97.801z"/>
				</g>
				<path opacity="0.5" fill="#421F15" enable-background="new    " d="M24.532,95.354c-0.003,2.138-2.353,3.877-5.263,3.878
					c-2.894,0.007-5.244-1.722-5.235-3.858c0.002-2.145,2.351-3.884,5.261-3.877C22.191,91.491,24.537,93.216,24.532,95.354z"/>
				<g>
					<path fill="#8E8D8D" d="M21.696,94.342c-0.008,1.741-1.721,3.173-3.838,3.18c-2.119-0.005-3.825-1.42-3.826-3.173
						c0.012-1.741,1.726-3.179,3.839-3.182C19.992,91.17,21.699,92.588,21.696,94.342z"/>
					<path fill="#D0CFCD" d="M19.634,91.542c-0.522-0.221-1.116-0.364-1.763-0.369c-2.116,0.001-3.829,1.437-3.839,3.176
						c0.006,0.577,0.205,1.107,0.511,1.563C15.645,94.184,17.631,92.728,19.634,91.542z"/>
					<path fill="#7A7A7A" d="M16.123,97.158c0.525,0.224,1.11,0.356,1.731,0.36c2.123-0.002,3.833-1.436,3.844-3.178
						c-0.001-0.646-0.237-1.246-0.641-1.755C20.111,94.548,18.37,96.273,16.123,97.158z"/>
				</g>
				<path fill="#903420" d="M9.313,94.687c1.142-0.363,2.123-0.783,3.06-1.245c1.288-0.757,2.363-1.673,2.782-3.035
					c0.303-0.925,1.081-2.292,0.475-3.235c-0.058-0.086-0.062-0.15-0.089-0.239l-0.059-0.003c-0.26,1.777-1.226,3.155-1.226,3.155
					c-0.794,1.559-3.041,2.8-3.041,2.8c-2.091,1.142-4.809,1.11-4.809,1.11l-3.862,0.001C4.638,94.659,7.518,95.259,9.313,94.687z"
					/>
				<path fill="#421F15" d="M26.4,94.646c-1.124-0.35-2.111-0.765-3.049-1.222c-1.286-0.758-2.351-1.672-2.771-3.023
					c-0.291-0.934-1.072-2.284-0.468-3.236c0.074-0.085,0.065-0.16,0.104-0.235l0.052-0.016c0.254,1.782,1.207,3.152,1.207,3.152
					c0.836,1.343,3.04,2.799,3.04,2.799c2.081,1.129,4.803,1.086,4.803,1.086l3.863,0.001C31.076,94.602,28.193,95.219,26.4,94.646z
					"/>
			</g>
		</g>
	</g>
	<path fill="none" stroke="#020202" stroke-width="0.6737" stroke-miterlimit="10" d="M21.597,94.329
		c0.001,1.761-1.719,3.18-3.821,3.191c-2.123-0.004-3.833-1.413-3.835-3.173c0.004-1.755,1.72-3.173,3.843-3.172
		C19.892,91.161,21.604,92.583,21.597,94.329z"/>
	<g>
		<path fill="#8E8D8D" d="M21.328,94.342c-0.008,1.574-1.556,2.867-3.47,2.873c-1.916-0.004-3.457-1.283-3.458-2.867
			c0.011-1.573,1.559-2.874,3.472-2.875C19.787,91.475,21.331,92.757,21.328,94.342z"/>
		<path fill="#D0CFCD" d="M19.464,91.812c-0.472-0.2-1.008-0.329-1.594-0.334c-1.913-0.001-3.461,1.298-3.47,2.87
			c0.005,0.522,0.185,1.001,0.461,1.414C15.858,94.2,17.653,92.882,19.464,91.812z"/>
		<path fill="#7A7A7A" d="M16.291,96.888c0.475,0.202,1.004,0.322,1.564,0.325c1.919-0.003,3.465-1.297,3.473-2.874
			c0.001-0.583-0.212-1.124-0.577-1.585C19.896,94.529,18.322,96.089,16.291,96.888z"/>
	</g>
</g>
</svg>
