<?xml version="1.0" encoding="utf-8"?>
<!-- Generator: Adobe Illustrator 16.0.0, SVG Export Plug-In . SVG Version: 6.00 Build 0)  -->
<!DOCTYPE svg PUBLIC "-//W3C//DTD SVG 1.1//EN" "http://www.w3.org/Graphics/SVG/1.1/DTD/svg11.dtd">
<svg version="1.1" id="Layer_1" xmlns="http://www.w3.org/2000/svg" xmlns:xlink="http://www.w3.org/1999/xlink" x="0px" y="0px"
	 width="100.008px" height="77.833px" viewBox="0 0 100.008 77.833" enable-background="new 0 0 100.008 77.833"
	 xml:space="preserve">
<g>
	<path fill="#FFFFFF" d="M68.374,51.744C67.943,51.676,88.82,29.23,92.322,26.665c-6.254,1.949-28.321,10.218-32.262,12.974
		C58.613,40.65,50.823,3.27,50.089,1c-2.983,5.495-12.251,38.827-12.74,38.865C36.7,40.313,10.484,25.036,10.43,24.979
		c-0.034,0.518,19.098,29.064,17.835,28.839c-1.662-0.305-23.318-4.604-27.081-5.803c3.763,4.787,47.153,27.18,48.725,28.092
		c14.517-7.181,43.417-24.684,48.631-25.972c0.035-0.075,0.058-0.149,0.091-0.226C97.111,49.346,73.425,52.534,68.374,51.744z"/>
	<g>
		<path fill="#C6C6C5" d="M70.844,48.82c4.166-4.629,12.655-13.679,17.777-18.744c-5.771,3.929-11.325,7.996-17.016,11.996
			c-4.76,3.337-9.672,6.605-14.236,10.101C61.941,51.232,66.414,50.061,70.844,48.82z"/>
		<path fill="#C6C6C5" d="M35.105,40.855c-0.257-0.778-0.565-1.571-0.827-2.372c-2.893-1.52-7.418-4.048-11.751-6.518
			c2.506,2.585,4.842,5.248,7.53,7.74c1.787,1.655,3.59,3.297,5.553,4.826c0.088-0.019,0.177-0.025,0.265-0.041
			C35.737,43.252,35.499,42.02,35.105,40.855z"/>
		<path fill="#C6C6C5" d="M26.137,53.4c-4.887-0.961-16.56-3.317-22.258-4.678c6.345,2.928,13.57,4.861,20.543,6.854
			c1.273,0.356,2.551,0.729,3.821,1.09C27.604,55.568,27.098,54.382,26.137,53.4z"/>
		<path fill="#C6C6C5" d="M53.473,40.99c1.375-1.544,3.51-4.041,4.614-5.715C56.464,30.85,53.109,9.199,51.15,5.013
			c0.506,4.263,0.234,25.114,1.15,29.38C52.766,36.584,53.15,38.788,53.473,40.99z"/>
		<path fill="#C6C6C5" d="M48.531,55.374c-0.943,1.353-2.206,8.906-3.605,10.511c-1.782-0.816-14.906-2.68-15.208-2.721
			c0,0.016,12.051,4.156,20.286,10.074c1.432-1.623,17.079-10.688,17.488-11.266c-2.12,1.569-12.463,1.932-14.727,3.313
			C51.632,64.204,49.589,57.393,48.531,55.374z"/>
	</g>
</g>
</svg>
