<?xml version="1.0" encoding="utf-8"?>
<!-- Generator: Adobe Illustrator 16.0.0, SVG Export Plug-In . SVG Version: 6.00 Build 0)  -->
<!DOCTYPE svg PUBLIC "-//W3C//DTD SVG 1.1//EN" "http://www.w3.org/Graphics/SVG/1.1/DTD/svg11.dtd">
<svg version="1.1" id="Layer_1" xmlns="http://www.w3.org/2000/svg" xmlns:xlink="http://www.w3.org/1999/xlink" x="0px" y="0px"
	 width="139.777px" height="139.778px" viewBox="41.111 80.222 139.777 139.778"
	 enable-background="new 41.111 80.222 139.777 139.778" xml:space="preserve">
<g>
	<g>
		<g>
			<path fill="#DE1F26" d="M154.198,187.801c0,2.809-2.276,5.083-5.085,5.083H73.6c-2.807,0-5.083-2.274-5.083-5.083v-75.515
				c0-2.807,2.276-5.084,5.083-5.084h75.513c2.808,0,5.085,2.277,5.085,5.084V187.801L154.198,187.801z"/>
			<g>
				<path fill="#1E1E1E" d="M139.187,192.884h9.927c2.808,0,5.085-2.274,5.085-5.083v-16.019c-1.994,2.565-3.984,4.962-5.978,7.352
					C144.462,183.831,143.288,188.897,139.187,192.884z"/>
				<path fill="#1E1E1E" d="M99.889,107.202H73.6c-2.807,0-5.083,2.277-5.083,5.084v10.949c6.116-3.802,14.048-5.505,19.924-7.465
					C92.759,114.333,96.687,111.257,99.889,107.202z"/>
				<path fill="#4C4C4C" d="M96.213,122.344c2.989-3.585,11.359-1.792,16.739-4.783c3.774-2.424,4.991-6.19,5.192-10.361H99.889
					c-3.201,4.054-7.13,7.13-11.447,8.567c-5.878,1.96-13.811,3.664-19.924,7.465v24.249c1.583-2.356,2.773-5.458,4.98-6.007
					C84.856,138.486,89.639,131.312,96.213,122.344z"/>
				<path fill="#757575" d="M136.547,107.202h-18.402c-0.201,4.169-1.42,7.936-5.192,10.363c-5.379,2.989-13.749,1.196-16.739,4.783
					c-6.577,8.968-11.357,16.138-22.716,19.128c-2.208,0.551-3.398,3.652-4.98,6.01v23.774c3.008-1.396,6.007-2.731,7.969-5.873
					c3.587-5.978,3.587-13.75,9.563-16.735c6.577-2.992,13.75-5.382,16.141-11.359c4.185-10.163,14.944-16.139,24.509-20.326
					C130.877,115.176,133.864,111.452,136.547,107.202z"/>
				<path fill="#757575" d="M127.898,160.604c2.392-3.585,7.768-2.986,11.357-5.378c5.979-4.185,0-10.76,2.392-16.738
					c0.597-1.194,1.196-2.988,2.389-2.988c4.707-1.433,7.942-4.407,10.163-8.181v-7.04c-1.588,1.137-3.228,2.044-4.779,2.667
					c-12.553,5.379-17.938,16.14-25.706,26.898c-2.391,3.589-7.174,7.174-10.164,10.164c-8.327,9.367-10.312,21.901-16.598,32.876
					h10.835c0.853-2.223,1.572-4.601,2.179-7.17c0.596-3.585,4.183-5.977,7.77-8.367
					C123.713,173.754,124.31,165.985,127.898,160.604z"/>
				<path fill="#939393" d="M149.113,107.202H147.5h-10.953c-2.683,4.249-5.67,7.976-9.846,9.763
					c-9.565,4.188-20.325,10.163-24.509,20.328c-2.393,5.979-9.564,8.365-16.141,11.357c-5.978,2.988-5.978,10.763-9.563,16.738
					c-1.961,3.139-4.961,4.475-7.969,5.87V187.8c0,2.809,2.276,5.083,5.083,5.083h11.1h12.251
					c6.286-10.974,8.271-23.508,16.598-32.878c2.988-2.988,7.771-6.576,10.164-10.166c7.769-10.759,13.152-21.516,25.706-26.897
					c1.552-0.623,3.192-1.531,4.779-2.666v-7.994C154.198,109.479,151.921,107.202,149.113,107.202z"/>
				<path fill="#4C4C4C" d="M144.035,135.496c-1.193,0-1.792,1.795-2.389,2.988c-2.392,5.98,3.585,12.554-2.392,16.738
					c-3.588,2.391-8.965,1.793-11.357,5.378c-3.587,5.38-4.186,13.152-10.164,16.737c-3.587,2.392-7.174,4.782-7.77,8.372
					c-0.608,2.568-1.327,4.947-2.179,7.17h20.978h10.424c4.102-3.987,5.275-9.053,9.035-13.75c1.993-2.388,3.983-4.787,5.978-7.352
					v-16.835v-27.63C151.978,131.088,148.742,134.065,144.035,135.496z"/>
			</g>
		</g>
		<g>
			<path d="M154.938,187.839c-0.002,1.93-1.133,3.903-2.828,4.911c-0.842,0.527-1.828,0.814-2.817,0.847l-2.63,0.054l-10.44,0.182
				l-20.873,0.363l-41.75,0.824c-2.475,0.054-4.963-1.276-6.267-3.425c-0.673-1.062-1.053-2.312-1.107-3.569l-0.053-2.678
				l-0.169-10.441l-0.341-20.872c-0.195-13.915-0.289-27.832-0.313-41.749c-0.022-2.828,1.532-5.625,3.971-7.065
				c1.202-0.747,2.617-1.152,4.027-1.197l2.703-0.001l10.438,0.029l20.875,0.13c6.956,0.042,13.918,0.156,20.876,0.283l20.995,0.356
				c0.257,0.022,0.341,0.008,0.742,0.063c0.374,0.047,0.737,0.116,1.026,0.205c0.618,0.161,1.206,0.419,1.758,0.733
				c1.099,0.642,2.026,1.552,2.659,2.648c0.648,1.083,0.985,2.347,1.005,3.595l-0.052,2.674l-0.223,10.439l-0.45,20.876
				l-0.762,41.748v0.034l0,0V187.839z M153.456,187.801l-0.759-41.748l-0.451-20.877l-0.228-10.438l-0.061-2.54
				c-0.04-0.49-0.185-0.958-0.459-1.355c-0.258-0.4-0.63-0.722-1.04-0.945c-0.211-0.104-0.423-0.196-0.654-0.238
				c-0.127-0.037-0.196-0.036-0.253-0.045c-0.03-0.022-0.384-0.021-0.558-0.03l-20.754,0.355c-6.957,0.126-13.919,0.24-20.876,0.283
				l-20.875,0.127l-10.436,0.032l-2.514,0.012c-0.328,0.012-0.644,0.091-0.918,0.263c-0.58,0.334-0.928,0.967-0.939,1.63
				c-0.022,13.916-0.117,27.831-0.312,41.749l-0.34,20.87l-0.169,10.443l-0.038,2.535c0,0.483,0.109,0.958,0.354,1.38
				c0.465,0.866,1.41,1.443,2.424,1.48l41.75,0.829l20.873,0.363l10.44,0.182l2.584,0.033c0.747-0.016,1.489-0.216,2.132-0.61
				c1.319-0.764,2.093-2.223,2.077-3.778v0.037L153.456,187.801L153.456,187.801z"/>
		</g>
	</g>
</g>
</svg>
