<?xml version="1.0" encoding="utf-8"?>
<!-- Generator: Adobe Illustrator 16.0.0, SVG Export Plug-In . SVG Version: 6.00 Build 0)  -->
<!DOCTYPE svg PUBLIC "-//W3C//DTD SVG 1.1//EN" "http://www.w3.org/Graphics/SVG/1.1/DTD/svg11.dtd">
<svg version="1.1" id="Layer_1" xmlns="http://www.w3.org/2000/svg" xmlns:xlink="http://www.w3.org/1999/xlink" x="0px" y="0px"
	 width="145.602px" height="141.21px" viewBox="0 0 145.602 141.21" enable-background="new 0 0 145.602 141.21"
	 xml:space="preserve">
<g>
	<path fill="#EF3E07" d="M140.165,70.423c-4.386,39.515-44.815,78.636-89.013,63.953c-40.737-13.535-59.09-65.55-36.133-103.132
		c18.46-30.218,68.691-32.716,97.374-15.776C134.789,28.696,142.473,49.616,140.165,70.423z"/>
	<path fill="#FF4E1F" d="M112.004,15.47c-6.404-3.784-13.887-6.59-21.847-8.343c2.146,1.36,4.252,2.854,6.311,4.521
		c10.508,8.503,17.614,22.375,21.287,35.203c8.753,30.572,2.924,69.148-32.866,78.264c-32.346,8.232-67.5-18.057-79.454-47.012
		c3.734,25.102,20.293,47.957,45.329,56.273c44.195,14.684,84.628-24.438,89.011-63.956
		C142.086,49.616,134.398,28.696,112.004,15.47z"/>
</g>
</svg>
