<?xml version="1.0" encoding="utf-8"?>
<!-- Generator: Adobe Illustrator 16.0.0, SVG Export Plug-In . SVG Version: 6.00 Build 0)  -->
<!DOCTYPE svg PUBLIC "-//W3C//DTD SVG 1.1//EN" "http://www.w3.org/Graphics/SVG/1.1/DTD/svg11.dtd">
<svg version="1.1" id="Layer_1" xmlns="http://www.w3.org/2000/svg" xmlns:xlink="http://www.w3.org/1999/xlink" x="0px" y="0px"
	 width="256.876px" height="257.085px" viewBox="0 0 256.876 257.085" enable-background="new 0 0 256.876 257.085"
	 xml:space="preserve">
<g>
	<path fill="#FFFFFF" d="M221.478,216.936c4.066-4.309,9.747-11,15.627-20.5c3.018-4.705,5.873-10.225,8.64-16.398
		c2.759-6.184,5.208-13.135,7.132-20.77c3.856-15.234,5.506-33.432,2.305-52.902c-1.688-9.688-4.496-19.653-8.718-29.463
		c-1.052-2.451-2.256-4.861-3.437-7.305c-1.316-2.372-2.537-4.831-4.018-7.158c-1.43-2.36-2.886-4.73-4.521-7.004
		c-1.56-2.332-3.309-4.543-5.048-6.786c-14.112-17.711-33.964-32.65-57.206-40.962c-11.558-4.262-23.934-6.691-36.472-7.49
		c-6.28-0.372-12.605-0.189-18.913,0.311c-6.31,0.514-12.574,1.662-18.757,3.109C85.747,6.635,73.803,11.439,62.85,17.906
		c-5.479,3.23-10.646,6.959-15.585,10.913c-2.417,2.045-4.834,4.062-7.167,6.343c-2.473,2.232-4.344,4.379-6.478,6.562l-3.191,3.665
		c-1.049,1.166-2.014,2.408-2.979,3.645c-1.981,2.429-3.769,5.006-5.561,7.563c-3.446,5.211-6.622,10.577-9.274,16.176
		c-5.315,11.185-9.011,22.981-10.931,34.91c-3.314,20.125-1.627,40.475,4.114,58.918c0.445-0.156,0.9-0.285,1.365-0.346
		c-4.899-18.469-5.328-38.547-0.688-57.607c1.355-5.646,3.224-11.165,5.36-16.562c2.146-5.402,4.867-10.56,7.791-15.559
		c2.956-4.992,6.37-9.688,9.985-14.187c1.875-2.201,3.724-4.412,5.754-6.465c0.987-1.049,1.966-2.102,3.03-3.074l3.021-2.87
		c2.266-1.913,4.596-4.083,6.781-5.661c2.146-1.729,4.518-3.346,6.857-4.969c4.77-3.108,9.666-5.975,14.777-8.354
		c5.112-2.355,10.299-4.485,15.633-6.086c5.335-1.586,10.718-2.895,16.156-3.701c21.734-3.346,43.663-0.4,62.539,7.483
		c1.197,0.462,2.369,0.965,3.515,1.523l3.45,1.61c2.23,1.203,4.502,2.288,6.632,3.617c4.37,2.453,8.442,5.3,12.354,8.243
		c1.903,1.544,3.85,3.008,5.625,4.663c0.897,0.813,1.826,1.585,2.694,2.42c0.868,0.836,1.73,1.672,2.592,2.505l1.084,1.042
		l1.353,1.445c0.9,0.961,1.801,1.918,2.694,2.873c1.472,1.798,2.896,3.314,4.335,5.174c11.602,14.584,19.083,30.969,22.813,46.938
		c3.814,15.98,3.914,31.48,1.823,44.885c-2.05,13.461-6.399,24.771-10.869,33.566c-4.467,8.842-9.201,15.143-12.555,19.285
		c-1.623,2.131-3.063,3.6-3.953,4.654c-0.917,1.043-1.388,1.578-1.388,1.578l0.109-0.109c0,0-0.525,0.539-1.546,1.578
		c-1.01,0.99-2.563,2.717-4.463,4.398c-0.978,0.877-1.994,1.9-3.257,2.963c-1.271,1.059-2.662,2.211-4.159,3.459
		c-3.102,2.369-6.713,5.061-11.002,7.723c-4.244,2.756-9.23,5.346-14.807,7.875c-5.577,2.547-11.867,4.787-18.779,6.568
		c-13.79,3.563-30.319,5.16-48.008,2.291c-9.759-1.578-19.857-4.574-29.681-9.121c-0.133,0.188-0.277,0.371-0.43,0.549
		c0.991,0.514,1.985,1.02,2.988,1.492c8.833,4.137,17.802,7.273,26.671,9.352c17.763,4.141,34.934,4.189,49.782,1.811
		c14.903-2.34,27.428-7.189,37.148-12.199c2.473-1.188,4.673-2.568,6.81-3.764c2.095-1.258,3.992-2.553,5.793-3.701
		c1.736-1.248,3.344-2.4,4.815-3.455c1.468-1.068,2.769-2.189,3.95-3.115c2.446-1.914,3.879-3.324,5.021-4.295
		c1.091-0.965,1.655-1.463,1.655-1.463l0.11-0.113c0,0,0.564-0.551,1.655-1.623C217.809,220.676,219.509,219.158,221.478,216.936z"
		/>
	<path fill="#D9D9D9" d="M129.568,2.068c30.875,8.824,67.334,23.197,88.324,48.73c23.914,29.087,35.174,65.572,36.28,102.785
		c2.886-13.994,3.818-30.117,1.004-47.223c-1.688-9.687-4.495-19.656-8.717-29.464c-1.052-2.449-2.256-4.86-3.437-7.305
		c-1.317-2.374-2.537-4.829-4.019-7.159c-1.43-2.359-2.885-4.73-4.521-7.004c-1.556-2.33-3.308-4.541-5.047-6.783
		c-14.113-17.711-33.964-32.65-57.203-40.964c-11.561-4.262-23.938-6.69-36.475-7.491c-4.461-0.264-8.943-0.237-13.426-0.027
		C124.772,0.753,127.187,1.388,129.568,2.068z"/>
</g>
</svg>
