<?xml version="1.0" encoding="utf-8"?>
<!-- Generator: Adobe Illustrator 16.0.0, SVG Export Plug-In . SVG Version: 6.00 Build 0)  -->
<!DOCTYPE svg PUBLIC "-//W3C//DTD SVG 1.1//EN" "http://www.w3.org/Graphics/SVG/1.1/DTD/svg11.dtd">
<svg version="1.1" id="Layer_1" xmlns="http://www.w3.org/2000/svg" xmlns:xlink="http://www.w3.org/1999/xlink" x="0px" y="0px"
	 width="54.064px" height="476.972px" viewBox="0 0 54.064 476.972" enable-background="new 0 0 54.064 476.972"
	 xml:space="preserve">
<g>
	<g>
		<path fill="#EF3E07" d="M51.373-1.472c-1.286,2.573-24.18,72.9-24.18,72.9L22.834,60.57c-0.465,0.956-0.044,30.756,0.491,56.089
			c0,0-20.158-76.467-20.513-76.112c-0.17,0.171,9.883,434.179,11.042,438.617c0.001-0.01,0.001-0.031,0.002-0.039
			C13.83,476.937,51.373-1.472,51.373-1.472z"/>
		<path fill="#FFFFFF" d="M27.193,71.429l-4.359-10.858c-0.465,0.956-0.044,30.756,0.491,56.089"/>
	</g>
	<g>
		<path fill="#FF4E1F" d="M16.959,412.449c2.099-29.679-1.149-59.281,0.616-88.807c-0.485-0.747-0.947-1.51-1.364-2.311
			c-2.529-4.865-4.907-9.801-7.195-14.781c1.486,60.441,2.918,115.898,3.854,146.889C14.227,439.849,15.982,426.223,16.959,412.449z
			"/>
		<path fill="#FF4E1F" d="M4.494,116.844c2.243,7.332,4.466,14.67,6.906,21.938c0.877,2.618,1.751,5.24,2.702,7.834
			c0.218,0.601,1.827,4.625,1.963,5.093c0.727,1.635,1.467,3.263,2.209,4.892c0.221-0.656,0.449-1.31,0.651-1.974
			c3.141-10.145,5.229-20.484,6.897-30.963c3.704-23.278,7.264-54.183,21.656-75.495c2.395-30.552,3.895-49.641,3.895-49.641
			c-1.286,2.573-24.18,72.9-24.18,72.9L22.835,60.57c-0.465,0.956-0.044,30.756,0.491,56.089c0,0-20.158-76.467-20.513-76.112
			C2.766,40.594,3.446,71.495,4.494,116.844z"/>
		<path fill="#FF4E1F" d="M27.193,71.429l-4.359-10.858c-0.465,0.956-0.044,30.756,0.491,56.089"/>
	</g>
</g>
</svg>
