<?xml version="1.0" encoding="utf-8"?>
<!-- Generator: Adobe Illustrator 16.0.0, SVG Export Plug-In . SVG Version: 6.00 Build 0)  -->
<!DOCTYPE svg PUBLIC "-//W3C//DTD SVG 1.1//EN" "http://www.w3.org/Graphics/SVG/1.1/DTD/svg11.dtd">
<svg version="1.1" id="Layer_1" xmlns="http://www.w3.org/2000/svg" xmlns:xlink="http://www.w3.org/1999/xlink" x="0px" y="0px"
	 width="35.317px" height="560.697px" viewBox="197.57 -90.757 35.317 560.697"
	 enable-background="new 197.57 -90.757 35.317 560.697" xml:space="preserve">
<g>
	<g>
		<path fill="#FFFFFF" d="M231.485-90.757c-1.658,3.317-10.859,114.296-10.859,114.296L215.006,9.54
			c-0.603,1.234-0.059,39.65,0.63,72.31c0,0-13.38-48.581-13.838-48.124c-0.22,0.22,3.74,430.494,5.235,436.215
			c-0.001-0.014-0.001-0.035-0.001-0.049c-0.035-2.824,16.856-100.163,17.913-156.276c4.678,30.889,8.281,52.46,8.822,54.243
			c-0.006-0.091-0.003-0.056-0.002-0.018C233.497,362.975,231.485-90.757,231.485-90.757z"/>
		<path fill="#FFFFFF" d="M220.625,23.539L215.006,9.54c-0.603,1.234-0.059,39.65,0.63,72.31"/>
	</g>
	<g>
		<path fill="#D9D9D9" d="M223.205,40.846c-0.26-0.701-0.525-1.401-0.771-2.108c-2.327-6.686-3.531-13.919-4.216-21.197l-3.212-8
			c-0.602,1.234-0.059,39.649,0.63,72.31c0,0-13.38-48.581-13.837-48.124c-0.22,0.219,3.739,430.495,5.234,436.214
			c0-0.014,0-0.034,0-0.05c-0.016-1.325,3.698-23.468,7.75-52.395c-10.59-31.09-8.505-62.301-6.063-95.201
			c1.274-17.171,0.363-34.094,0.56-51.271c0.211-18.613,1.57-37.175,3.513-55.686c1.748-16.63,3.684-33.2,6.895-49.587
			c-1.368-3.489-2.168-7.25-2.221-11.175C216.957,116.866,216.435,77.95,223.205,40.846z"/>
		<path fill="#D9D9D9" d="M218.217,17.54l-3.212-8c-0.602,1.234-0.059,39.649,0.63,72.31l4.43-51.758
			C219.19,25.987,218.618,21.774,218.217,17.54z"/>
	</g>
</g>
</svg>
