<?xml version="1.0" encoding="utf-8"?>
<!-- Generator: Adobe Illustrator 16.0.0, SVG Export Plug-In . SVG Version: 6.00 Build 0)  -->
<!DOCTYPE svg PUBLIC "-//W3C//DTD SVG 1.1//EN" "http://www.w3.org/Graphics/SVG/1.1/DTD/svg11.dtd">
<svg version="1.1" id="Layer_1" xmlns="http://www.w3.org/2000/svg" xmlns:xlink="http://www.w3.org/1999/xlink" x="0px" y="0px"
	 width="54.064px" height="476.972px" viewBox="125.309 -46.472 54.064 476.972"
	 enable-background="new 125.309 -46.472 54.064 476.972" xml:space="preserve">
<g>
	<g>
		<path fill="#FFFFFF" d="M179.373-46.472c-1.286,2.573-24.18,72.9-24.18,72.9l-4.359-10.858
			c-0.465,0.956-0.044,30.756,0.491,56.089c0,0-20.158-76.467-20.513-76.112c-0.17,0.171,9.883,434.179,11.042,438.616
			c0.001-0.01,0.001-0.031,0.002-0.039C141.83,431.937,179.373-46.472,179.373-46.472z"/>
		<path fill="#FFFFFF" d="M155.193,26.429l-4.359-10.858c-0.465,0.956-0.044,30.756,0.491,56.089"/>
	</g>
	<g>
		<path fill="#D9D9D9" d="M144.959,367.448c2.098-29.678-1.15-59.281,0.616-88.806c-0.485-0.747-0.947-1.509-1.364-2.31
			c-2.53-4.865-4.908-9.802-7.196-14.782c1.487,60.442,2.918,115.898,3.854,146.889
			C142.227,394.849,143.982,381.223,144.959,367.448z"/>
		<path fill="#D9D9D9" d="M132.494,71.844c2.243,7.332,4.466,14.67,6.906,21.938c0.877,2.618,1.751,5.24,2.702,7.834
			c0.218,0.601,1.827,4.625,1.963,5.093c0.727,1.635,1.467,3.263,2.209,4.892c0.221-0.656,0.449-1.31,0.652-1.974
			c3.14-10.145,5.228-20.484,6.897-30.963c3.704-23.278,7.264-54.183,21.656-75.495c2.395-30.552,3.895-49.641,3.895-49.641
			c-1.286,2.573-24.18,72.9-24.18,72.9l-4.359-10.858c-0.465,0.956-0.044,30.756,0.491,56.089c0,0-20.158-76.467-20.513-76.112
			C130.766-4.406,131.446,26.495,132.494,71.844z"/>
		<path fill="#D9D9D9" d="M155.193,26.429l-4.359-10.858c-0.465,0.956-0.044,30.756,0.491,56.089"/>
	</g>
</g>
</svg>
