<?xml version="1.0" encoding="utf-8"?>
<!-- Generator: Adobe Illustrator 16.0.0, SVG Export Plug-In . SVG Version: 6.00 Build 0)  -->
<!DOCTYPE svg PUBLIC "-//W3C//DTD SVG 1.1//EN" "http://www.w3.org/Graphics/SVG/1.1/DTD/svg11.dtd">
<svg version="1.1" id="Layer_1" xmlns="http://www.w3.org/2000/svg" xmlns:xlink="http://www.w3.org/1999/xlink" x="0px" y="0px"
	 width="35.316px" height="560.697px" viewBox="0 0 35.316 560.697" enable-background="new 0 0 35.316 560.697"
	 xml:space="preserve">
<g>
	<g>
		<path fill="#EF3E07" d="M31.485,0.243C29.827,3.56,20.626,114.539,20.626,114.539l-5.62-13.999
			c-0.604,1.234-0.06,39.65,0.63,72.31c0,0-13.38-48.581-13.838-48.124c-0.22,0.22,3.74,430.494,5.235,436.215
			c-0.001-0.015-0.001-0.035-0.001-0.05c-0.035-2.823,16.855-100.162,17.912-156.275c4.679,30.889,8.281,52.46,8.822,54.242
			c-0.006-0.09-0.003-0.056-0.002-0.018C33.497,453.976,31.485,0.243,31.485,0.243z"/>
		<path fill="#FFFFFF" d="M20.625,114.539l-5.619-13.999c-0.604,1.234-0.06,39.65,0.63,72.31"/>
	</g>
	<g>
		<path fill="#FF4E1F" d="M23.205,131.846c-0.261-0.701-0.525-1.401-0.771-2.108c-2.327-6.686-3.531-13.919-4.216-21.197l-3.212-8
			c-0.603,1.234-0.06,39.649,0.63,72.31c0,0-13.38-48.581-13.837-48.124c-0.22,0.219,3.739,430.495,5.234,436.214
			c0-0.015,0-0.034,0-0.051c-0.017-1.324,3.697-23.468,7.75-52.395c-10.591-31.09-8.506-62.302-6.063-95.201
			c1.274-17.171,0.363-34.094,0.56-51.271c0.212-18.613,1.57-37.176,3.514-55.687c1.748-16.63,3.684-33.2,6.895-49.587
			c-1.368-3.489-2.168-7.25-2.221-11.175C16.957,207.866,16.435,168.95,23.205,131.846z"/>
		<path fill="#FF4E1F" d="M18.217,108.54l-3.212-8c-0.603,1.234-0.06,39.649,0.63,72.31l4.43-51.758
			C19.19,116.987,18.618,112.774,18.217,108.54z"/>
	</g>
</g>
</svg>
