<?xml version="1.0" encoding="utf-8"?>
<!-- Generator: Adobe Illustrator 16.0.0, SVG Export Plug-In . SVG Version: 6.00 Build 0)  -->
<!DOCTYPE svg PUBLIC "-//W3C//DTD SVG 1.1//EN" "http://www.w3.org/Graphics/SVG/1.1/DTD/svg11.dtd">
<svg version="1.1" id="Layer_1" xmlns="http://www.w3.org/2000/svg" xmlns:xlink="http://www.w3.org/1999/xlink" x="0px" y="0px"
	 width="139.777px" height="139.778px" viewBox="41.111 80.222 139.777 139.778"
	 enable-background="new 41.111 80.222 139.777 139.778" xml:space="preserve">
<g>
	<g>
		<g>
			<path fill="#DE1F26" d="M156.147,189.653c0,2.907-2.35,5.253-5.263,5.253H72.627c-2.905,0-5.264-2.346-5.264-5.253v-77.938
				c0-2.897,2.362-5.254,5.264-5.254h78.257c2.913,0,5.263,2.356,5.263,5.254V189.653z"/>
			<g>
				<path fill="#C12026" d="M140.597,194.906h10.295c2.906,0,5.256-2.346,5.256-5.253v-16.528c-2.064,2.646-4.129,5.128-6.194,7.574
					C146.067,185.547,144.838,190.794,140.597,194.906z"/>
				<path fill="#C12026" d="M99.864,106.461H72.628c-2.905,0-5.265,2.356-5.265,5.254v11.3c6.339-3.925,14.556-5.688,20.652-7.709
					C92.48,113.822,96.556,110.647,99.864,106.461z"/>
				<path fill="#E91E25" d="M96.074,122.097c3.079-3.702,11.76-1.853,17.345-4.942c3.904-2.496,5.159-6.387,5.368-10.694H99.866
					c-3.31,4.187-7.386,7.361-11.848,8.843c-6.097,2.022-14.313,3.781-20.654,7.707v25.033c1.64-2.433,2.877-5.638,5.164-6.208
					C84.296,138.763,89.248,131.354,96.074,122.097z"/>
				<path fill="#E63B25" d="M137.862,106.461h-19.075c-0.211,4.307-1.466,8.196-5.372,10.694c-5.584,3.089-14.262,1.24-17.345,4.942
					c-6.826,9.257-11.776,16.664-23.55,19.742c-2.286,0.571-3.519,3.771-5.156,6.204V172.6c3.116-1.454,6.226-2.833,8.252-6.076
					c3.719-6.173,3.719-14.188,9.918-17.27c6.82-3.094,14.254-5.553,16.726-11.73c4.33-10.49,15.484-16.664,25.393-20.981
					C131.993,114.695,135.081,110.851,137.862,106.461z"/>
				<path fill="#E63B25" d="M128.894,161.59c2.479-3.696,8.055-3.089,11.77-5.551c6.208-4.329,0-11.107,2.482-17.274
					c0.622-1.241,1.236-3.089,2.479-3.089c4.867-1.477,8.225-4.548,10.529-8.445v-7.264c-1.645,1.173-3.355,2.105-4.967,2.745
					c-12.997,5.558-18.578,16.668-26.625,27.774c-2.477,3.702-7.438,7.408-10.533,10.482c-8.63,9.669-10.694,22.614-17.198,33.938
					h11.225c0.896-2.311,1.63-4.741,2.26-7.397c0.619-3.698,4.33-6.174,8.056-8.651C124.561,175.146,125.18,167.153,128.894,161.59z
					"/>
				<path fill="#F8971D" d="M150.892,106.461h-1.69h-11.339c-2.779,4.39-5.869,8.234-10.208,10.08
					c-9.906,4.315-21.064,10.492-25.39,20.98c-2.476,6.168-9.909,8.633-16.73,11.732c-6.193,3.081-6.193,11.097-9.917,17.27
					c-2.028,3.243-5.137,4.617-8.253,6.074v17.056c0,2.907,2.359,5.253,5.26,5.253h11.505h12.698
					c6.504-11.324,8.57-24.27,17.2-33.946c3.098-3.072,8.059-6.778,10.531-10.48c8.051-11.107,13.625-22.214,26.629-27.774
					c1.611-0.641,3.322-1.571,4.96-2.748v-8.246C156.147,108.817,153.798,106.461,150.892,106.461z"/>
				<path fill="#E91E25" d="M145.625,135.674c-1.243,0-1.857,1.852-2.479,3.089c-2.482,6.167,3.724,12.947-2.482,17.276
					c-3.713,2.462-9.288,1.854-11.77,5.549c-3.721,5.565-4.333,13.559-10.525,17.262c-3.725,2.478-7.441,4.955-8.058,8.657
					c-0.625,2.65-1.36,5.089-2.26,7.399h21.744h10.796c4.243-4.12,5.472-9.359,9.362-14.202c2.065-2.451,4.125-4.935,6.194-7.579
					v-17.398v-28.499C153.848,131.122,150.492,134.198,145.625,135.674z"/>
			</g>
		</g>
		<g>
			<path d="M156.929,189.704c-0.013,1.983-1.18,4.03-2.943,5.072c-0.862,0.538-1.897,0.822-2.928,0.864l-2.714,0.062l-10.814,0.175
				l-21.645,0.386l-43.258,0.839c-2.562,0.067-5.14-1.305-6.486-3.535c-0.701-1.085-1.096-2.37-1.152-3.67l-0.053-2.764
				l-0.177-10.789l-0.353-21.545c-0.207-14.36-0.302-28.721-0.327-43.084c-0.016-2.924,1.593-5.814,4.116-7.297
				c1.247-0.772,2.716-1.192,4.173-1.241h2.804l10.82,0.039l21.633,0.125c14.416,0.106,28.833,0.451,43.253,0.658
				c2.658,0.023,5.245,1.495,6.53,3.769c0.675,1.119,1.026,2.421,1.046,3.711l-0.047,2.765l-0.232,10.768l-0.465,21.551
				l-0.787,43.097v0.042h0.005V189.704z M155.384,189.653l-0.786-43.089l-0.471-21.55l-0.229-10.767l-0.07-2.629
				c-0.029-0.5-0.193-0.986-0.471-1.397c-0.558-0.835-1.5-1.328-2.474-1.289c-14.423,0.204-28.842,0.552-43.257,0.648l-21.637,0.133
				l-10.82,0.038l-2.609,0.006c-0.336,0.015-0.666,0.101-0.949,0.276c-0.601,0.343-0.959,0.993-0.972,1.681
				c-0.03,14.363-0.118,28.724-0.327,43.084l-0.349,21.545l-0.173,10.783l-0.038,2.611c0,0.504,0.11,1.001,0.37,1.432
				c0.475,0.892,1.455,1.488,2.51,1.535l43.254,0.843l21.643,0.378l10.814,0.179l2.691,0.047c0.76-0.026,1.529-0.226,2.198-0.634
				c1.368-0.796,2.17-2.306,2.156-3.905L155.384,189.653z"/>
		</g>
	</g>
	<g>
		<g>
			<g>
				<path fill="#010101" d="M78.153,189.59l1.833,0.888c0.306,0.146,0.68,0.374,1.02,0.544c0.722,0.393,1.346,0.783,1.992,1.206
					c1.271,0.822,2.482,1.713,3.658,2.63c0.595,0.459,1.143,0.949,1.716,1.417c0.582,0.468,1.126,0.963,1.677,1.468
					c1.115,0.976,2.139,2.018,3.222,3.032l-2.888,0.002c1.166-1.263,2.396-2.459,3.638-3.66v2.899l-2.316-2.334l-1.168-1.156
					l-0.582-0.579l-0.608-0.611c-0.201-0.202-0.371-0.395-0.587-0.656l-0.323-0.35l-0.302-0.358l-0.187-0.269l-0.118-0.175
					l-0.243-0.333l-0.246-0.337l-0.117-0.146l-0.13-0.207l-0.055-0.083l-0.281-0.471l-0.19-0.364l-0.441-0.83
					c-0.185-0.382-0.234-0.53-0.357-0.819c-0.11-0.283-0.23-0.649-0.34-0.962l-0.023-0.091l-0.015-0.102l-0.192-1.155l-0.173-1.041
					l0.812-0.732l0,0c3.126-3.085,6.326-6.109,9.486-9.173l9.574-9.05c6.362-6.076,12.867-11.99,19.313-17.954
					c3.223-2.994,6.444-5.972,9.726-8.906l9.797-8.832l9.896-8.704c1.65-1.458,3.337-2.861,5.01-4.294
					c1.667-1.44,3.343-2.86,5.042-4.267l-0.668,1.434l0,0l-0.229-19.211l3.205,3.045v0.004l-18.469,0.619l1.335-0.651l0,0
					c-2.801,3.381-5.716,6.679-8.576,10.02l-8.733,9.886c-5.815,6.595-11.762,13.08-17.693,19.563
					c-5.96,6.447-11.951,12.896-18.045,19.23l-9.136,9.51c-3.105,3.128-6.154,6.305-9.306,9.375l-0.886,0.88l-1.018-0.256v-0.007
					l-0.583-0.119l-0.428-0.104c-0.493-0.124-0.667-0.216-0.971-0.323c-0.342-0.124-0.691-0.266-1.028-0.438l-0.864-0.446
					l-0.188-0.112l-0.321-0.169l-0.376-0.227l-0.822-0.573l-0.368-0.264l-0.491-0.402l-0.679-0.574l-0.754-0.722l-0.633-0.595
					l-1.257-1.257l-2.506-2.517l2.893,0.005l-3.661,3.665v-2.885c1.026,1.037,2.085,2.081,3.07,3.225
					c0.489,0.54,1.006,1.067,1.47,1.652c0.482,0.575,0.975,1.132,1.435,1.734c0.928,1.174,1.823,2.4,2.659,3.674
					c0.825,1.275,1.585,2.638,2.249,4.051l0.565,1.217l-0.911,0.994l0,0c-1.044,1.771-2.246,3.384-3.495,4.955
					c-1.253,1.586-2.563,3.115-3.929,4.569c-1.364,1.468-2.761,2.931-4.221,4.308c-1.452,1.396-2.951,2.736-4.569,3.978l-1.96,1.49
					l-1.002-1.413h-0.003l-0.199-0.215l-0.02-0.015l0,0c-0.028-0.028,0.24,0.224,0.127,0.12l0,0h-0.002l-0.009-0.002l-0.017-0.015
					l-0.055-0.063l-0.102-0.088c-0.072-0.056,0.082,0.094,0.132,0.098c0.067,0.047,0.074,0.055,0.115,0.061
					c0.081,0.013,0.178,0.026,0.327,0.009c0.152,0,0.333-0.1,0.5-0.23l0.056-0.042l0.017-0.033l0.164-0.166l-0.011,0.01H54.8
					l-0.025,0.029l-0.082,0.104c-0.079,0.098,0.047-0.028,0.093-0.111c0.052-0.081,0.09-0.17,0.116-0.253
					c0.06-0.161,0.056-0.315,0.038-0.396c-0.008-0.092-0.038-0.16-0.064-0.192c-0.017-0.028-0.032-0.043-0.037-0.065l-0.03-0.021
					l0.099,0.098l1.141,1.147l-0.758,1.212c-0.177,0.299-0.118,1.072,0.363,1.643c0.057,0.069,0.126,0.146,0.19,0.207
					c-0.017-0.028,0.259,0.255,0.242,0.195c-0.001-0.002,0.087,0.088,0.013,0.017l0.212,0.142c0.188,0.13,0.19,0.09,0.243,0.13
					l0.026,0.028c-0.175-0.095-0.047-0.028-0.081-0.042H56.5h0.002l0.008,0.006l0.007,0.006l0.037,0.011l0.062,0.028l0.119,0.03
					c0.115,0.051-0.157-0.034-0.124-0.024l0,0h0.004h0.007h0.009h0.035l0.062,0.024l0.24,0.085c0.085,0.017,0.061,0.008,0.094,0.008
					c0.057,0.015,0.254,0.015,0.352,0.015l0.222-0.015c0.153,0,0.268-0.01,0.342-0.048l2.195,0.446
					c-0.051-0.053-0.129-0.113-0.33-0.144c-0.109-0.015-0.25,0.014-0.431,0.085c-0.079,0.028-0.164,0.089-0.243,0.138l-0.058,0.069
					l-0.023,0.026l-0.164,0.183v-0.004l0.002-0.005l0.006-0.006l0.004-0.016l0.084-0.102l0.043-0.045
					c-0.031,0.028-0.064,0.059-0.09,0.113c-0.059,0.073-0.103,0.151-0.133,0.234c-0.045,0.145-0.055,0.168-0.06,0.258
					c-0.019,0.123,0,0.231,0.027,0.305c0.016,0.055,0.045,0.104,0.072,0.13c-0.012,0,0.072,0.081,0-0.006l-0.192-0.193l-1.447-1.426
					l1.452-1.456l0,0l1.451-1.431l1.444,1.431l0.04,0.056l0,0l-2.819-0.094c0.548-0.881,1.177-1.68,1.806-2.481
					c0.642-0.775,1.313-1.562,2-2.29c1.373-1.473,2.821-2.866,4.33-4.214c1.512-1.316,3.05-2.609,4.677-3.82
					c0.803-0.603,1.64-1.18,2.488-1.759c0.852-0.547,1.716-1.094,2.631-1.583L78.153,189.59z M78.675,194.417
					c-0.346,0.463-0.678,0.944-1.041,1.382c-0.647,0.771-1.307,1.538-1.999,2.285c-1.358,1.482-2.806,2.89-4.285,4.243
					c-1.475,1.364-3.018,2.657-4.627,3.88c-0.812,0.605-1.642,1.184-2.496,1.752c-0.864,0.532-1.723,1.079-2.675,1.532l-2.167,1.043
					l-0.65-1.108l0,0l-0.04-0.048h2.891l0,0v-2.885l0.19,0.201c0.05,0.034,0.246,0.26,0.356,0.394
					c0.247,0.318,0.442,0.683,0.58,1.105c0.129,0.401,0.193,0.86,0.15,1.351c-0.038,0.266-0.067,0.472-0.177,0.771
					c-0.064,0.178-0.149,0.334-0.242,0.503l-0.149,0.233l-0.042,0.041l-0.08,0.111l-0.188,0.228l-0.081,0.053l-0.157,0.148
					c-0.222,0.173-0.458,0.307-0.714,0.41c-0.507,0.222-1.011,0.272-1.482,0.25c-0.935-0.063-1.691-0.492-2.248-1.04l2.19,0.444
					c-0.613,0.244-1.248,0.344-1.833,0.346l0.226-0.016c-0.6,0.049-1.082,0.049-1.703-0.086c-0.35-0.058-0.499-0.122-0.651-0.163
					l-0.251-0.101l-0.119-0.022l-0.212-0.104l-0.195-0.089c-0.253-0.12-0.568-0.277-0.662-0.374l-0.218-0.118
					c-0.226-0.146-0.268-0.207-0.4-0.299c-0.304-0.243-0.253-0.209-0.535-0.469c-0.171-0.168-0.337-0.359-0.493-0.557
					c-0.617-0.759-1.075-1.693-1.261-2.738c-0.192-1.034-0.095-2.208,0.446-3.282l0.384,2.376l-0.108-0.114l-0.204-0.23
					c-0.138-0.147-0.264-0.319-0.366-0.502c-0.219-0.36-0.372-0.771-0.442-1.233c-0.082-0.463-0.052-0.986,0.106-1.5
					c0.064-0.178,0.144-0.352,0.233-0.52c0.085-0.152,0.237-0.385,0.225-0.358l0.093-0.109l0.021-0.034l0.173-0.195l0.041-0.044
					l0.17-0.128c0.441-0.389,0.993-0.583,1.502-0.672c0.518-0.078,0.999-0.021,1.437,0.091c0.212,0.094,0.399,0.142,0.625,0.262
					c0.207,0.107,0.533,0.323,0.616,0.408l0.106,0.083l0.229,0.205l0.204,0.197l0,0l-2.968,0.082
					c1.078-1.729,2.289-3.344,3.538-4.936c1.237-1.575,2.551-3.103,3.886-4.595c1.337-1.49,2.728-2.927,4.177-4.332
					c1.453-1.391,2.961-2.743,4.616-3.945l0,0l-0.355,2.207c-0.556-1.203-1.219-2.386-1.96-3.525
					c-0.746-1.147-1.574-2.259-2.432-3.366c-0.421-0.542-0.891-1.061-1.335-1.623c-0.434-0.532-0.926-1.043-1.393-1.567
					c-0.929-1.056-1.952-2.034-2.927-3.061l-1.406-1.502l1.406-1.385l3.664-3.649l1.448-1.438l1.448,1.438l2.511,2.493l1.258,1.27
					l0.627,0.607l0.535,0.512l0.674,0.572c-0.053-0.047,0.281,0.212,0.198,0.157l0.359,0.236l0.625,0.46l0.379,0.229l0.054,0.028
					l0.017,0.019l0.017,0.015l0,0c0.118,0.055-0.153-0.075-0.123-0.062l0,0l0.094,0.035l0.2,0.107l0.705,0.384
					c0.196,0.102,0.4,0.17,0.602,0.282c0.261,0.077,0.628,0.231,0.72,0.231l0.429,0.109l0.036,0.007h0.01h0.009
					c0.025,0-0.208-0.057-0.113-0.026l0,0l0.056,0.018l0.099,0.009l0.19,0.032l0,0l-1.904,0.623
					c2.815-3.391,5.717-6.67,8.577-10.016l8.739-9.911c5.819-6.581,11.752-13.061,17.704-19.535
					c5.972-6.449,11.946-12.891,18.04-19.241l9.141-9.505c3.108-3.125,6.157-6.288,9.302-9.375v-0.001l0.447-0.538l0.886-0.116
					l18.312-2.442h0.004l3.477-0.125l-0.27,3.173l-1.6,19.13l0,0l0.01,0.756l-0.666,0.67c-1.552,1.561-3.118,3.11-4.691,4.639
					c-1.579,1.533-3.131,3.093-4.725,4.597L147.47,136l-9.661,8.973c-3.216,3.008-6.474,5.941-9.724,8.904
					c-6.53,5.883-13.016,11.8-19.602,17.614l-9.9,8.737c-3.313,2.89-6.623,5.779-9.977,8.631l0,0l0.65-1.8l0.147,0.911l-0.045-0.178
					l0.217,0.595c0.07,0.211,0.232,0.585,0.275,0.668l0.34,0.63l0.194,0.363v0.005l0,0c0.021,0.03-0.117-0.223-0.059-0.117l0,0
					l0.004,0.026l0.05,0.052l0.042,0.09l0.108,0.178l0.044,0.09l0.009,0.006v0.014c-0.143-0.225-0.027-0.072-0.062-0.109h0.003
					l0.017,0.009l0.017,0.046l0.118,0.179l0.239,0.344l0.24,0.337l0.123,0.15l0.028,0.028l0.005,0.015l0.002,0.002
					c0.053,0.077-0.086-0.11-0.068-0.085h0.001l0.016,0.03l0.077,0.097l0.22,0.246l0.222,0.28c0.132,0.173,0.343,0.371,0.52,0.572
					l0.548,0.534l0.582,0.585l1.165,1.163l2.336,2.32l1.445,1.425l-1.445,1.466c-1.203,1.241-2.387,2.488-3.662,3.655l-1.427,1.396
					l-1.46-1.396c-1.036-0.98-2.023-1.978-3.075-2.897c-0.525-0.458-1.036-0.95-1.58-1.379c-0.536-0.447-1.06-0.913-1.61-1.336
					c-1.097-0.851-2.208-1.66-3.355-2.407c-0.573-0.353-1.155-0.747-1.711-1.03C78.928,194.547,78.801,194.472,78.675,194.417z"/>
			</g>
			<g>
				<path fill="#8E8D8D" d="M54.02,203.957c-1.232,1.232-1.022,3.425,0.459,4.902c1.482,1.476,3.682,1.673,4.919,0.458
					L54.02,203.957z"/>
				<path fill="#CFCECD" d="M56.244,209.531c-0.14-0.105-0.358-0.188-0.452-0.242c-1.648-0.836-1.16-2.958-0.607-4.002
					c0.013-0.049,0.049-0.067,0.068-0.092l-1.236-1.238c-1.228,1.232-1.02,3.425,0.463,4.902c0.326,0.33,0.711,0.604,1.121,0.808
					c0.167,0.065,0.72,0.398,0.797,0.148C56.424,209.701,56.349,209.608,56.244,209.531z"/>
				<path fill="#797979" d="M55.068,205.985c0.202,0.457,0.622,0.783,0.924,1.172c0.7,0.926,1.207,1.911,1.631,2.935
					c0.772,0.022,1.504-0.199,2.047-0.74l-4.494-4.479c-0.021,0.109-0.033,0.221-0.097,0.339
					C54.942,205.481,54.959,205.738,55.068,205.985z"/>
				<polygon fill="#722815" points="59.099,209.009 54.313,204.266 74.484,181.616 81.838,188.92 				"/>
				<g>
					<polygon fill="#391812" points="72.955,196.191 69.903,191.693 67.178,189.734 67.958,188.849 67.958,188.849 66.982,189.945 
						70.104,194.139 					"/>
					<polygon fill="#802919" points="68,188.796 67.958,188.849 67.178,189.734 69.903,191.693 74.82,195.254 75.788,194.393 					
						"/>
					<polygon fill="#391812" points="71.116,198.491 67.518,193.967 65.049,192.133 64.874,192.329 67.666,196.325 					"/>
					<polygon fill="#802919" points="72.955,196.191 70.104,194.139 65.933,191.127 65.577,191.537 65.049,192.133 67.518,193.967 
						72.28,197.479 72.47,197.331 73.25,196.637 					"/>
					<polygon fill="#391812" points="68.564,200.001 65.493,196.303 62.922,194.533 62.891,194.562 65.138,197.778 					"/>
					<polygon fill="#802919" points="71.116,198.491 67.666,196.325 63.586,193.771 63.485,193.875 62.922,194.533 65.493,196.303 
						69.673,199.199 70.037,199.448 71.128,198.491 					"/>
					<polygon fill="#391812" points="66.48,202.257 63.5,198.214 61.123,196.545 61.077,196.608 64.018,200.353 					"/>
					<polygon fill="#802919" points="68.564,200.001 65.138,197.778 61.914,195.661 61.757,195.833 61.123,196.545 63.5,198.214 
						67.254,200.803 67.953,201.289 68.922,200.45 					"/>
					<polygon fill="#391812" points="59.397,198.722 61.57,201.843 64.59,204.27 64.65,204.208 62.229,200.531 					"/>
					<polygon fill="#802919" points="66.48,202.257 64.018,200.353 60.295,197.481 60.268,197.523 59.296,198.604 59.397,198.722 
						62.229,200.531 66.037,202.92 66.073,202.956 66.63,202.456 					"/>
					<polygon fill="#802919" points="61.57,201.843 58.542,199.448 57.903,200.172 59.807,201.688 63.557,204.718 63.833,204.924 
						64.59,204.27 					"/>
					<polygon fill="#391812" points="62.304,205.11 59.807,201.688 57.923,200.157 57.844,200.244 59.868,203.344 					"/>
					<polygon fill="#391812" points="56.171,202.131 56.012,202.305 58.49,206.292 60.268,208.07 60.743,207.637 57.988,203.536 
											"/>
					<polygon fill="#802919" points="62.304,205.11 59.868,203.344 56.952,201.263 56.671,201.57 56.171,202.131 57.988,203.536 
						61.942,206.58 61.964,206.576 62.814,205.815 					"/>
				</g>
				<polygon fill="#CFCECD" points="147.443,98.62 74.346,178.072 79.434,183.129 85.384,189.064 165.141,116.264 165.822,97.095 
									"/>
				<g>
					<polygon fill="#8E8D8D" points="165.141,116.264 165.822,97.095 149.201,113.653 					"/>
					<polygon fill="#797979" points="79.434,183.129 85.384,189.064 165.141,116.264 149.201,113.653 					"/>
					<polygon fill="#BCBABA" points="147.443,98.62 74.346,178.072 79.434,183.129 149.201,113.653 					"/>
				</g>
				<polygon opacity="0.7" fill="#FFFFFF" enable-background="new    " points="111.729,137.145 145.371,134.8 136.999,141.888 
					109.436,139.835 				"/>
				<polygon opacity="0.7" fill="#FFFFFF" enable-background="new    " points="108.089,141.392 133.292,145.323 129.941,148.246 
					105.12,144.386 				"/>
				<path opacity="0.5" fill="#421D13" enable-background="new    " d="M78.104,191.866c0,0-7.641,0.896-11.318,4.733
					c0,0,6.08-7.042,4.749-11.284l3.28,3.273L78.104,191.866z"/>
				<path opacity="0.5" fill="#505050" enable-background="new    " d="M74.576,176.199c0,0,8.574-3.232,11.052-5.678l3.207,3.187
					l4.688,4.663c0,0-6.396,6.611-5.793,11.302L74.576,176.199z"/>
				<g>
					<path fill="#010101" d="M89.8,195.601l-0.769-0.749c-0.262-0.305-0.554-0.626-0.807-0.928
						c-0.498-0.628-0.982-1.255-1.396-1.958c-0.843-1.388-1.472-2.965-1.754-4.641c-0.308-1.664-0.229-3.401,0.138-5.027
						c0.196-0.82,0.442-1.623,0.781-2.41c0.162-0.366,0.352-0.741,0.553-1.134c0.216-0.377,0.386-0.7,0.73-1.184h0.001l0.182,2.974
						l-4.458-4.607l0,0l2.811,0.157c-0.615,0.438-1.045,0.667-1.578,0.944c-0.512,0.257-1.034,0.483-1.576,0.665
						c-1.058,0.387-2.192,0.646-3.335,0.743c-2.288,0.209-4.65-0.242-6.666-1.223c-1.016-0.474-1.946-1.074-2.809-1.732
						c-0.43-0.345-0.825-0.692-1.228-1.042c-0.375-0.347-0.795-0.762-1.104-1.094l-4.049-4.176h2.375
						c-1.217,1.225-2.46,2.388-3.656,3.653l0,0v-2.38l2.107,2.03c0.698,0.696,1.359,1.39,2.041,2.104
						c0.684,0.696,1.317,1.48,1.971,2.198c0.644,0.764,1.253,1.541,1.878,2.32c0.584,0.815,1.189,1.605,1.729,2.493
						c0.276,0.426,0.552,0.843,0.802,1.294c0.246,0.456,0.524,0.905,0.745,1.381c0.465,0.943,0.905,1.927,1.228,3.004
						c0.153,0.567,0.302,1.113,0.391,1.733c0.055,0.296,0.076,0.623,0.098,0.96c0.014,0.171,0,0.372,0,0.546
						c0,0.105-0.009,0.218-0.023,0.338c-0.007,0.117-0.011,0.204-0.071,0.471l0,0l-3.007-3.001c0.27-0.051,0.367-0.051,0.481-0.075
						c0.116-0.015,0.231-0.022,0.317-0.022c0.187,0,0.396-0.014,0.553,0c0.342,0.022,0.675,0.055,0.976,0.098
						c0.62,0.104,1.177,0.233,1.725,0.406c1.096,0.309,2.075,0.743,3.022,1.205c0.489,0.23,0.921,0.5,1.379,0.761
						c0.459,0.243,0.889,0.511,1.317,0.792c0.871,0.529,1.674,1.139,2.49,1.719c0.794,0.619,1.577,1.235,2.336,1.864
						c0.73,0.656,1.506,1.294,2.213,1.972c0.692,0.674,1.426,1.328,2.108,2.029l2.045,2.098l0,0h-2.393
						c1.25-1.18,2.443-2.431,3.668-3.642v2.362c-1.486-1.425-2.996-2.835-4.502-4.259L89.8,195.601z M92.417,193.059
						c1.405,1.503,2.841,3.003,4.272,4.478l1.182,1.186l-1.182,1.174c-1.214,1.233-2.463,2.409-3.651,3.663l-1.141,1.174
						l-1.254-1.174l0,0l-2.095-1.882c-0.703-0.629-1.429-1.206-2.145-1.799c-0.712-0.59-1.467-1.132-2.198-1.706
						c-0.745-0.532-1.503-1.059-2.262-1.554c-0.776-0.474-1.539-0.991-2.325-1.379c-0.394-0.218-0.779-0.448-1.18-0.617
						c-0.402-0.179-0.797-0.408-1.194-0.53c-0.786-0.341-1.589-0.619-2.348-0.789c-0.379-0.08-0.759-0.133-1.082-0.161
						c-0.179-0.022-0.318-0.021-0.459-0.021c-0.081-0.002-0.108,0.021-0.165,0.021c-0.035,0.002-0.035,0.012-0.035,0.012
						c-0.012,0.008-0.024,0.017,0.124-0.032l-3.007-2.99l0,0c-0.027,0.151-0.021,0.134-0.021,0.125c0,0,0.003-0.002,0-0.04
						c0.003-0.051,0.025-0.092,0.016-0.162c0-0.133,0.009-0.285-0.016-0.464c-0.009-0.329-0.078-0.698-0.17-1.072
						c-0.154-0.768-0.446-1.571-0.765-2.351c-0.153-0.391-0.36-0.785-0.543-1.19c-0.179-0.384-0.395-0.775-0.605-1.166
						c-0.409-0.8-0.92-1.541-1.391-2.312c-0.514-0.755-1.029-1.506-1.577-2.253c-0.575-0.733-1.104-1.477-1.709-2.189
						c-0.602-0.711-1.18-1.452-1.802-2.145l-1.885-2.079l-1.164-1.279l1.164-1.105l0,0c1.248-1.2,2.438-2.428,3.658-3.626
						l1.168-1.165l1.21,1.165l4.185,4.027c0.364,0.353,0.667,0.595,0.998,0.9c0.336,0.271,0.667,0.543,1.021,0.783
						c0.697,0.515,1.428,0.919,2.177,1.224c1.505,0.688,3.1,0.914,4.674,0.69c0.777-0.112,1.559-0.303,2.304-0.588
						c0.368-0.168,0.733-0.334,1.086-0.526c0.319-0.161,0.727-0.431,0.896-0.575l1.429-1.155l1.383,1.342l0,0l4.62,4.423
						l0.172,2.972l0,0c-0.059,0.081-0.277,0.367-0.406,0.588c-0.159,0.246-0.287,0.502-0.407,0.763
						c-0.262,0.517-0.465,1.075-0.629,1.626c-0.304,1.104-0.415,2.267-0.262,3.389c0.137,1.151,0.5,2.283,1.083,3.35
						c0.273,0.529,0.621,1.039,1.005,1.545l0.537,0.71l0.712,0.775L92.417,193.059z"/>
				</g>
				<path opacity="0.5" fill="#421D13" enable-background="new    " d="M55.308,203.127l0.663-0.724c0,0,8.048,2.128,17.521-6.108
					l-13.372,11.817L55.308,203.127z"/>
				<path fill="#562515" d="M60.615,210.05c-0.456,0.458-1.263,0.368-1.804-0.172l-5.36-5.343c-0.554-0.542-0.625-1.34-0.17-1.789
					l0,0c0.444-0.448,1.257-0.381,1.805,0.158l5.358,5.346C60.996,208.788,61.071,209.588,60.615,210.05L60.615,210.05z"/>
				<path fill="#391811" d="M60.45,208.246l-2.859-2.85c0.104,0.111,0.004,0.457,0.024,0.576c0.153,0.722,0.961,1.172,1.212,1.854
					c0.281,0.692,0.185,1.411-0.083,1.988l0.077,0.077c0.539,0.532,1.351,0.615,1.801,0.157
					C61.076,209.588,61.001,208.792,60.45,208.246z"/>
				<path fill="#76311D" d="M56.504,207.178c0.044-0.365-0.183-0.741-0.354-1.089c-0.232-0.446-0.384-0.924-0.558-1.391
					c-0.183-0.513-0.103-0.892,0.119-1.162l-0.633-0.646c-0.543-0.531-1.354-0.599-1.805-0.15c-0.451,0.449-0.379,1.253,0.174,1.791
					c0.786,0.778,1.572,1.582,2.365,2.375c0.122,0.113,0.474,0.466,0.646,0.356C56.481,207.246,56.5,207.218,56.504,207.178z"/>
				<g>
					<g>
						<path fill="#722815" d="M61.066,171.56l3.656-3.627l4.38,4.356c7.95,7.931,15.465,2.066,15.465,2.066l2.27,2.273
							L72.745,190.65C72.745,190.652,74.243,184.71,61.066,171.56z"/>
						<path fill="#562515" d="M91.902,202.305l3.653-3.66l-4.363-4.355c-7.961-7.932-2.078-15.413-2.078-15.413l-2.281-2.241
							L72.744,190.65C72.745,190.652,78.724,189.163,91.902,202.305z"/>
					</g>
					<path opacity="0.5" fill="#421D13" enable-background="new    " d="M85.156,190.918c-2.03,2.024-5.906,1.445-8.666-1.312
						c-2.749-2.737-3.338-6.604-1.305-8.618c2.035-2.033,5.911-1.454,8.663,1.31C86.599,185.037,87.187,188.897,85.156,190.918z"/>
					<g>
						<path fill="#8E8D8D" d="M83.427,187.272c-1.659,1.642-4.639,1.377-6.653-0.625c-2.005-2.013-2.28-4.973-0.619-6.634
							c1.661-1.641,4.648-1.379,6.655,0.623C84.817,182.649,85.092,185.612,83.427,187.272z"/>
						<path fill="#CFCECD" d="M84.126,182.663c-0.286-0.706-0.713-1.403-1.323-2.021c-2.005-2.008-4.991-2.27-6.648-0.629
							c-0.542,0.552-0.856,1.242-0.999,1.965C77.84,181.384,81.103,181.886,84.126,182.663z"/>
						<path fill="#797979" d="M75.474,184.657c0.286,0.711,0.715,1.391,1.3,1.984c2.015,2.01,4.993,2.272,6.656,0.629
							c0.612-0.613,0.956-1.405,1.057-2.27C81.729,185.963,78.442,185.949,75.474,184.657z"/>
					</g>
					<path fill="#8F321F" d="M71.361,175.861c1.427,0.736,2.754,1.267,4.081,1.719c1.939,0.502,3.825,0.654,5.515-0.241
						c1.163-0.589,3.197-1.147,3.516-2.615c0.027-0.136,0.085-0.201,0.143-0.312l-0.053-0.057c-1.93,1.437-4.153,1.828-4.153,1.828
						c-2.231,0.723-5.537-0.229-5.537-0.229c-3.065-0.9-5.612-3.507-5.612-3.507l-3.662-3.661
						C66.956,171.401,69.116,174.699,71.361,175.861z"/>
					<path fill="#421D13" d="M87.597,192.019c-0.733-1.397-1.277-2.728-1.731-4.048c-0.501-1.938-0.644-3.813,0.238-5.494
						c0.61-1.161,1.15-3.182,2.625-3.512c0.151-0.01,0.214-0.089,0.323-0.123l0.063,0.034c-1.449,1.931-1.844,4.133-1.844,4.133
						c-0.48,2.065,0.229,5.535,0.229,5.535c0.902,3.042,3.523,5.581,3.523,5.581l3.661,3.663
						C92.072,196.408,88.754,194.263,87.597,192.019z"/>
				</g>
			</g>
		</g>
		<path fill="none" stroke="#010101" stroke-width="0.9032" stroke-miterlimit="10" d="M83.345,187.163
			c-1.668,1.672-4.644,1.385-6.648-0.595c-2.009-2.017-2.294-4.973-0.627-6.645c1.667-1.661,4.637-1.376,6.649,0.636
			C84.731,182.544,85.007,185.517,83.345,187.163z"/>
		<g>
			<path fill="#8E8D8D" d="M83.427,187.272c-1.659,1.642-4.639,1.377-6.653-0.625c-2.005-2.013-2.28-4.973-0.619-6.634
				c1.661-1.641,4.648-1.379,6.655,0.623C84.817,182.649,85.092,185.612,83.427,187.272z"/>
			<path fill="#CFCECD" d="M84.126,182.663c-0.286-0.706-0.713-1.403-1.323-2.021c-2.005-2.008-4.991-2.27-6.648-0.629
				c-0.542,0.552-0.856,1.242-0.999,1.965C77.84,181.384,81.103,181.886,84.126,182.663z"/>
			<path fill="#797979" d="M75.474,184.657c0.286,0.711,0.715,1.391,1.3,1.984c2.015,2.01,4.993,2.272,6.656,0.629
				c0.612-0.613,0.956-1.405,1.057-2.27C81.729,185.963,78.442,185.949,75.474,184.657z"/>
		</g>
	</g>
	<polygon fill="#CFCECD" points="149.201,113.653 165.822,97.095 147.443,98.62 	"/>
</g>
</svg>
