<?xml version="1.0" encoding="utf-8"?>
<!-- Generator: Adobe Illustrator 16.0.0, SVG Export Plug-In . SVG Version: 6.00 Build 0)  -->
<!DOCTYPE svg PUBLIC "-//W3C//DTD SVG 1.1//EN" "http://www.w3.org/Graphics/SVG/1.1/DTD/svg11.dtd">
<svg version="1.1" id="Layer_1" xmlns="http://www.w3.org/2000/svg" xmlns:xlink="http://www.w3.org/1999/xlink" x="0px" y="0px"
	 width="285.108px" height="189.212px" viewBox="-7.521 8.24 285.108 189.212" enable-background="new -7.521 8.24 285.108 189.212"
	 xml:space="preserve">
<g>
	<g>
		<g opacity="0.8">
			<path fill="#ED1C24" d="M51.787,108.188c2.164-0.902,4.313-1.678,6.392-2.424c1.291-0.463,2.509-0.903,3.642-1.342
				c7.559-2.919,13.802-3.792,19.647-2.74c0.834,0.151,1.714,0.425,2.639,0.718c1.632,0.512,3.667,1.149,4.74,0.702
				c0.035-0.016,0.068-0.029,0.103-0.048l2.342-1.203l0.32,2.616c0.993,8.065,4.163,14.585,9.423,19.382l1.277,1.161l-1.083,1.349
				c-0.619,0.772-1.185,1.938-0.735,2.688c6.077,10.128,14.641,18.446,25.45,24.723c2.848,1.653,5.925,3.198,9.148,4.587
				l3.272,1.415l-3.048,1.847c-0.826,0.501-1.506,1.17-1.861,1.833c-0.416,0.775-0.51,1.493-0.276,2.13
				c0.277,0.75,1.024,1.417,2.054,1.823c6.846,2.701,14.581,4.24,21.293,5.471c3.556,0.653,6.979,1.032,10.464,1.161l11.515,0.424
				l-11.075,3.18c-5.178,1.486-9.713,2.456-14.695,3.139c-5.21,0.713-10.452,0.486-15.526,0.271l-0.854-0.038
				c-1.674-0.069-3.35-0.135-5.023-0.199c-6.244-0.24-12.697-0.488-19.05-1.078c-24.293-2.266-54.077-7.938-68.861-31.909
				l-0.355-0.576c-2.188-3.541-4.45-7.204-5.951-11.255c-1.292-3.479-1.443-8.404-1.023-11.743
				C37.214,115.341,45.068,110.985,51.787,108.188z"/>
		</g>
		<g opacity="0.6">
			<g>
				<path fill="#ED1C24" d="M50.736,106.524c2.206-0.92,4.375-1.702,6.476-2.456c1.285-0.463,2.49-0.896,3.604-1.329
					c7.907-3.055,14.48-3.957,20.69-2.839c0.956,0.171,1.889,0.466,2.877,0.776c0.846,0.263,2.808,0.881,3.421,0.756l4.767-2.452
					l0.661,5.376c0.936,7.594,3.896,13.711,8.805,18.185l2.624,2.391l-2.223,2.767c-0.238,0.297-0.374,0.565-0.433,0.728
					c5.895,9.729,14.172,17.732,24.606,23.792c2.781,1.615,5.79,3.123,8.944,4.484l6.727,2.902l-6.265,3.799
					c-0.626,0.381-1.015,0.822-1.157,1.088c-0.171,0.319-0.184,0.499-0.165,0.548c0.037,0.095,0.286,0.426,0.944,0.686
					c6.684,2.637,14.31,4.153,20.931,5.367c3.464,0.637,6.795,1.004,10.187,1.13l23.671,0.875l-22.767,6.538
					c-5.275,1.514-9.89,2.499-14.967,3.195c-5.383,0.736-10.718,0.508-15.876,0.286l-0.851-0.036
					c-1.626-0.069-3.252-0.132-4.876-0.194l-0.14-0.006c-6.266-0.24-12.746-0.489-19.153-1.085
					c-24.745-2.307-55.099-8.12-70.334-32.822l-0.354-0.573c-2.237-3.622-4.551-7.368-6.121-11.599
					c-1.5-4.05-1.546-9.353-1.129-12.664C35.108,114.235,43.535,109.523,50.736,106.524z"/>
			</g>
		</g>
		<g>
			<g>
				<path fill="#ED1C24" d="M131.836,162.581c0.527-0.984,1.44-1.876,2.527-2.534c-3.229-1.395-6.354-2.948-9.343-4.687
					c-11.084-6.436-19.911-15.05-26.102-25.367c-0.864-1.44-0.319-3.297,0.878-4.786c-5.989-5.462-9.049-12.725-10.007-20.516
					c-2.414,1.241-6.162-0.751-8.647-1.198c-6.399-1.15-12.709,0.347-18.657,2.646c-8.958,3.46-23.132,6.955-24.568,18.342
					c-0.409,3.237-0.22,7.797,0.921,10.875c1.518,4.094,3.866,7.806,6.149,11.506c13.984,22.67,41.943,28.664,67.468,31.042
					c7.97,0.742,15.971,0.932,23.977,1.274c5.33,0.223,10.724,0.511,16.056-0.22c4.839-0.663,9.33-1.618,14.437-3.083
					c-3.674-0.138-7.174-0.538-10.729-1.188c-7.442-1.362-14.854-2.893-21.637-5.569
					C131.77,168.015,130.299,165.445,131.836,162.581z"/>
				<path fill="#E97524" d="M120.409,158.941c-0.003-0.015-0.003-0.03-0.007-0.048c-4.704-2.642-9.527-5.073-13.584-8.631
					c-3.002-2.63-6.087-5.441-8.416-8.686c-1.472-2.047-2.821-4.224-3.914-6.489c-1.077-2.232-1.621-4.639-2.185-7.052
					c-0.069-0.308-0.117-0.624-0.146-0.946c-0.077-0.76-3.146-2.969-3.768-3.686c-1.22-1.409-2.338-2.923-3.313-4.511
					c-2.073-3.389-1.675-11.092-7.647-9.851c-4.244,0.88-10.523-0.563-14.441,1.155c-4.361,1.906-7.372,6.801-11.817,8.492
					c-4.357,1.657-8.706,5.036-9.472,10.32c-0.82,5.648,3.661,11.51,7.148,15.441c2.41,2.715,5.11,5.151,7.845,7.528
					c3.573,3.099,7.622,5.577,11.793,7.89c7.418,3.893,15.22,7.127,23.398,9.32c6.249,1.397,12.644,2.15,19.103,2.166
					c0.79-0.012,1.578-0.022,2.367-0.032c1.396-0.022,2.794-0.065,4.19-0.072c1.559-0.338,3.146-0.425,4.636-0.161
					c1.127,0.198,2.261,0.314,3.401,0.369c1.683-0.099,3.366-0.282,5.046-0.507c-1.643-0.854-3.235-1.813-4.797-2.769
					C122.748,166.294,120.802,162.391,120.409,158.941z"/>
				<path fill="#F1B11D" d="M100.178,154.31c-1.608-1.857-2.728-3.89-3.979-6.015c-0.521-0.887-0.954-1.806-1.24-2.794
					c-0.378-0.916-0.649-1.848-0.815-2.793c-0.272-0.167-0.538-0.344-0.8-0.531c-3.287-2.399-6.831-4.723-9.278-8.04
					c-3.105-4.205-3.958-9.923-8.073-13.408c-3.278-2.772-7.699-1.979-11.36-0.38c-3.219,1.407-6.376,2.813-9.403,4.609
					c-8.312,4.936,4.379,15.738,8.254,19.063c2.335,2.005,4.824,3.871,7.308,5.679c3.055,2.222,6.14,4.362,9.418,6.26
					c6.19,3.155,12.777,5.575,19.568,7.344c5.423,1.284,10.95,2.407,16.534,2.986c-2.583-1.174-5.035-2.587-7.282-4.107
					C105.768,159.971,102.727,157.253,100.178,154.31z"/>
			</g>
		</g>
	</g>
	<g>
		<g opacity="0.8">
			<path fill="#ED1C24" d="M19.949,85.311c2.345-0.025,4.629,0.064,6.835,0.15c1.371,0.052,2.664,0.102,3.878,0.119
				c8.103,0.128,14.218,1.661,19.242,4.828c0.718,0.451,1.428,1.035,2.18,1.652c1.321,1.088,2.967,2.439,4.132,2.429
				c0.035-0.001,0.074-0.004,0.109-0.005l2.626-0.238L58.27,96.79c-2.105,7.851-1.611,15.083,1.469,21.5l0.747,1.557l-1.507,0.844
				c-0.866,0.482-1.825,1.353-1.69,2.218c1.835,11.668,6.659,22.588,14.327,32.461c2.02,2.6,4.293,5.185,6.76,7.682l2.505,2.537
				l-3.519,0.57c-0.952,0.154-1.833,0.52-2.409,1c-0.679,0.564-1.034,1.193-1.057,1.874c-0.024,0.801,0.418,1.698,1.221,2.459
				c5.336,5.069,11.929,9.397,17.689,13.054c3.052,1.938,6.084,3.572,9.268,4.997l10.517,4.711l-11.461-1.203
				c-5.358-0.563-9.923-1.364-14.798-2.6c-5.098-1.29-9.877-3.467-14.498-5.568l-0.777-0.354c-1.526-0.691-3.054-1.379-4.583-2.067
				c-5.696-2.563-11.588-5.212-17.255-8.141c-21.674-11.205-47.16-27.63-51.879-55.394l-0.115-0.667
				c-0.699-4.104-1.424-8.347-1.299-12.666c0.109-3.71,1.813-8.335,3.456-11.271C3.76,86.479,12.673,85.386,19.949,85.311z"/>
		</g>
		<g opacity="0.6">
			<g>
				<path fill="#ED1C24" d="M19.6,83.372c2.391-0.025,4.694,0.065,6.923,0.153c1.363,0.054,2.646,0.102,3.837,0.122
					c8.479,0.13,14.909,1.759,20.249,5.122c0.822,0.518,1.578,1.141,2.377,1.799c0.684,0.562,2.272,1.869,2.887,1.981l5.34-0.487
					l-1.401,5.234c-1.98,7.386-1.527,14.17,1.347,20.157l1.535,3.2l-3.1,1.733c-0.329,0.184-0.558,0.384-0.673,0.511
					c1.82,11.229,6.494,21.753,13.896,31.281c1.972,2.539,4.195,5.066,6.609,7.511l5.148,5.213l-7.232,1.172
					c-0.725,0.118-1.249,0.382-1.481,0.576c-0.279,0.232-0.355,0.394-0.357,0.444c-0.002,0.102,0.103,0.503,0.618,0.99
					c5.208,4.949,11.709,9.215,17.393,12.822c2.973,1.888,5.923,3.478,9.02,4.864l21.619,9.681l-23.556-2.474
					c-5.458-0.572-10.105-1.389-15.074-2.646c-5.268-1.334-10.126-3.546-14.824-5.684l-0.779-0.354
					c-1.481-0.672-2.963-1.341-4.445-2.007l-0.129-0.058c-5.717-2.571-11.632-5.23-17.349-8.187
					c-22.077-11.413-48.037-28.179-52.904-56.791l-0.115-0.666c-0.715-4.199-1.455-8.536-1.324-13.047
					c0.126-4.317,2.071-9.25,3.699-12.165C2.223,84.666,11.801,83.456,19.6,83.372z"/>
			</g>
		</g>
		<g>
			<g>
				<path fill="#ED1C24" d="M73.774,165.745c0.858-0.714,2.04-1.199,3.292-1.402c-2.472-2.504-4.783-5.115-6.904-7.848
					c-7.864-10.119-12.82-21.413-14.691-33.301c-0.261-1.661,0.94-3.177,2.609-4.108c-3.508-7.31-3.621-15.191-1.588-22.772
					c-2.703,0.245-5.431-3.007-7.566-4.351c-5.502-3.467-11.911-4.444-18.293-4.541c-9.599-0.15-24.049-2.223-29.65,7.794
					c-1.59,2.85-3.126,7.147-3.22,10.429c-0.129,4.366,0.657,8.686,1.388,12.973c4.464,26.258,28.14,42.294,50.911,54.067
					c7.113,3.674,14.457,6.852,21.754,10.167c4.853,2.205,9.749,4.494,14.968,5.813c4.731,1.2,9.252,1.998,14.539,2.553
					c-3.357-1.502-6.451-3.187-9.501-5.121c-6.388-4.054-12.686-8.25-17.971-13.275C71.677,170.757,71.276,167.823,73.774,165.745z"
					/>
				<path fill="#E97524" d="M64.544,158.087c0.004-0.016,0.008-0.03,0.015-0.047c-3.371-4.213-6.932-8.273-9.361-13.093
					c-1.795-3.564-3.604-7.325-4.546-11.209c-0.597-2.447-1.031-4.972-1.195-7.481c-0.162-2.474,0.235-4.908,0.619-7.355
					c0.048-0.313,0.125-0.624,0.216-0.933c0.215-0.732-1.803-3.932-2.11-4.828c-0.604-1.766-1.072-3.588-1.379-5.427
					c-0.654-3.917,2.605-10.909-3.399-11.998c-4.263-0.774-9.542-4.465-13.82-4.342c-4.759,0.135-9.386,3.541-14.138,3.444
					c-4.663-0.096-9.96,1.405-12.651,6.017c-2.876,4.929-0.92,12.044,0.838,16.996c1.216,3.417,2.808,6.691,4.455,9.917
					c2.149,4.214,4.974,8.03,7.972,11.736c5.417,6.391,11.438,12.312,18.198,17.411c5.27,3.638,10.917,6.734,16.899,9.169
					c0.736,0.284,1.472,0.571,2.208,0.856c1.303,0.505,2.614,0.987,3.91,1.506c1.572,0.268,3.074,0.784,4.358,1.586
					c0.97,0.607,1.978,1.14,3.016,1.619c1.598,0.538,3.228,0.998,4.867,1.421c-1.203-1.41-2.318-2.893-3.406-4.364
					C63.957,165.78,63.62,161.432,64.544,158.087z"/>
				<path fill="#F1B11D" d="M47.526,146.209c-0.795-2.324-1.071-4.63-1.436-7.068c-0.148-1.019-0.207-2.033-0.1-3.057
					c-0.009-0.99,0.088-1.955,0.29-2.892c-0.188-0.26-0.371-0.52-0.541-0.795c-2.149-3.456-4.562-6.938-5.59-10.933
					c-1.304-5.061,0.051-10.683-2.459-15.457c-1.998-3.798-6.393-4.721-10.387-4.608c-3.515,0.099-6.965,0.218-10.445,0.749
					c-9.559,1.459-1.84,16.23,0.504,20.769c1.414,2.729,3.021,5.393,4.649,8.002c1.997,3.203,4.057,6.345,6.385,9.332
					c4.555,5.248,9.755,9.961,15.389,14.142c4.546,3.226,9.249,6.338,14.208,8.97c-1.954-2.058-3.696-4.286-5.211-6.539
					C50.583,153.554,48.787,149.893,47.526,146.209z"/>
			</g>
		</g>
	</g>
	<g>
		<g opacity="0.8">
			<path fill="#ED1C24" d="M161.979,114.572c0.25-0.879,0.543-1.722,0.826-2.537c0.175-0.507,0.343-0.982,0.485-1.435
				c0.958-3.017,2.309-5.106,4.256-6.577c0.277-0.211,0.613-0.401,0.967-0.603c0.623-0.354,1.399-0.794,1.523-1.231
				c0.004-0.014,0.008-0.029,0.011-0.043l0.187-1.012l1.039,0.583c3.205,1.799,6.428,2.544,9.582,2.22l0.766-0.079l0.2,0.672
				c0.117,0.386,0.391,0.857,0.785,0.918c5.314,0.815,10.636,0.418,15.813-1.18c1.364-0.421,2.748-0.939,4.118-1.541l1.389-0.609
				l-0.141,1.39c-0.04,0.376,0.022,0.752,0.169,1.031c0.172,0.325,0.408,0.539,0.704,0.636c0.348,0.112,0.79,0.061,1.212-0.141
				c2.816-1.342,5.446-3.252,7.688-4.936c1.19-0.892,2.244-1.815,3.223-2.823l3.233-3.326l-1.802,4.133
				c-0.844,1.932-1.703,3.535-2.787,5.201c-1.132,1.741-2.617,3.247-4.054,4.705l-0.241,0.245c-0.474,0.481-0.943,0.965-1.416,1.448
				c-1.756,1.802-3.571,3.664-5.486,5.408c-7.321,6.665-17.353,14.083-30.039,12.273l-0.306-0.043
				c-1.876-0.266-3.814-0.541-5.693-1.143c-1.612-0.521-3.448-1.753-4.554-2.746C160.688,120.78,161.202,117.305,161.979,114.572z"
				/>
		</g>
		<g opacity="0.6">
			<g>
				<path fill="#ED1C24" d="M161.093,114.453c0.253-0.896,0.55-1.749,0.835-2.571c0.174-0.502,0.339-0.976,0.479-1.419
					c1.002-3.153,2.431-5.351,4.499-6.915c0.316-0.241,0.674-0.443,1.051-0.657c0.322-0.183,1.071-0.609,1.19-0.824l0.381-2.062
					l2.138,1.198c3.017,1.692,6.038,2.397,8.979,2.091l1.573-0.158l0.415,1.38c0.043,0.148,0.104,0.259,0.148,0.318
					c5.121,0.766,10.251,0.372,15.249-1.17c1.333-0.41,2.687-0.917,4.026-1.505l2.856-1.256l-0.292,2.856
					c-0.028,0.286,0.03,0.518,0.088,0.63c0.072,0.133,0.133,0.182,0.155,0.19c0.043,0.014,0.231,0.025,0.502-0.104
					c2.747-1.312,5.338-3.193,7.552-4.856c1.159-0.868,2.184-1.767,3.138-2.748l6.646-6.84l-3.705,8.495
					c-0.857,1.968-1.733,3.602-2.838,5.297c-1.17,1.799-2.68,3.331-4.141,4.813l-0.24,0.245c-0.461,0.469-0.918,0.938-1.375,1.405
					l-0.04,0.041c-1.763,1.81-3.584,3.678-5.517,5.437c-7.457,6.788-17.691,14.341-30.766,12.477l-0.305-0.043
					c-1.919-0.272-3.902-0.554-5.863-1.184c-1.879-0.604-3.821-1.968-4.916-2.952C159.723,121.121,160.258,117.383,161.093,114.453z
					"/>
			</g>
		</g>
		<g>
			<g>
				<path fill="#ED1C24" d="M203.203,104.796c-0.216-0.412-0.297-0.919-0.247-1.413c-1.37,0.602-2.772,1.129-4.204,1.571
					c-5.31,1.64-10.81,2.038-16.226,1.208c-0.756-0.117-1.286-0.76-1.509-1.505c-3.592,0.37-7.058-0.6-10.151-2.338
					c-0.194,1.043-1.922,1.644-2.75,2.269c-2.13,1.613-3.271,3.886-4.023,6.259c-1.134,3.571-3.651,8.712,0.114,12.097
					c1.069,0.961,2.781,2.089,4.21,2.547c1.897,0.609,3.877,0.874,5.836,1.151c11.999,1.71,21.661-5.08,29.353-12.083
					c2.4-2.187,4.609-4.526,6.873-6.828c1.507-1.532,3.054-3.068,4.215-4.85c1.051-1.615,1.905-3.204,2.734-5.109
					c-1.031,1.062-2.112,2.002-3.3,2.895c-2.487,1.868-5.026,3.684-7.815,5.013C205.167,106.227,203.836,105.997,203.203,104.796z"
					/>
				<path fill="#E97524" d="M198.823,107.264c-0.007-0.004-0.013-0.009-0.019-0.013c-2.222,0.719-4.397,1.527-6.78,1.815
					c-1.76,0.213-3.608,0.405-5.414,0.258c-1.14-0.092-2.294-0.254-3.411-0.516c-1.101-0.259-2.124-0.722-3.154-1.179
					c-0.13-0.059-0.259-0.128-0.384-0.202c-0.296-0.174-1.923,0.168-2.351,0.167c-0.839,0-1.689-0.061-2.53-0.183
					c-1.789-0.259-4.487-2.377-5.634-0.273c-0.813,1.496-3.017,2.996-3.439,4.612c-0.471,1.798,0.507,3.967-0.065,5.732
					c-0.562,1.732-0.494,3.905,1.228,5.505c1.84,1.712,5.173,1.894,7.539,1.875c1.632-0.015,3.244-0.187,4.84-0.388
					c2.085-0.261,4.071-0.827,6.029-1.471c3.403-1.204,6.667-2.694,9.652-4.566c2.18-1.504,4.164-3.217,5.897-5.142
					c0.206-0.239,0.414-0.478,0.621-0.715c0.366-0.422,0.724-0.851,1.095-1.269c0.293-0.554,0.688-1.05,1.18-1.427
					c0.375-0.285,0.72-0.594,1.045-0.919c0.413-0.528,0.797-1.079,1.166-1.639c-0.753,0.27-1.526,0.494-2.293,0.712
					C202.128,108.473,200.186,108.04,198.823,107.264z"/>
				<path fill="#F1B11D" d="M191.726,112.098c-1.107-0.002-2.147-0.195-3.255-0.372c-0.463-0.075-0.914-0.185-1.352-0.356
					c-0.435-0.125-0.847-0.286-1.236-0.481c-0.132,0.037-0.266,0.071-0.406,0.101c-1.755,0.357-3.549,0.812-5.411,0.683
					c-2.361-0.165-4.674-1.395-7.044-1.071c-1.888,0.259-2.781,1.784-3.176,3.292c-0.348,1.327-0.681,2.636-0.834,4.004
					c-0.427,3.763,6.905,2.78,9.153,2.486c1.355-0.179,2.698-0.436,4.023-0.71c1.625-0.334,3.231-0.699,4.798-1.186
					c2.805-1.027,5.45-2.367,7.909-3.938c1.918-1.284,3.805-2.644,5.511-4.16c-1.12,0.467-2.289,0.833-3.445,1.109
					C195.283,111.9,193.48,112.102,191.726,112.098z"/>
			</g>
		</g>
	</g>
	<g>
		<g opacity="0.8">
			<path fill="#ED1C24" d="M117.729,73.309c0.065-0.751,0.204-1.476,0.337-2.177c0.083-0.437,0.161-0.846,0.216-1.235
				c0.366-2.588,1.615-4.451,3.937-5.864c0.332-0.202,0.753-0.393,1.197-0.597c0.783-0.357,1.758-0.798,1.79-1.173
				c0-0.013,0-0.025,0-0.036l-0.07-0.855l1.703,0.376c5.249,1.154,10.17,1.441,14.627,0.85l1.083-0.144l0.518,0.534
				c0.299,0.308,0.855,0.669,1.447,0.678c7.973,0.129,15.544-0.744,22.502-2.592c1.833-0.488,3.663-1.058,5.443-1.695l1.805-0.646
				l0.267,1.163c0.069,0.313,0.289,0.618,0.595,0.832c0.36,0.252,0.773,0.405,1.232,0.453c0.543,0.057,1.165-0.03,1.709-0.24
				c3.623-1.397,6.784-3.242,9.462-4.861c1.42-0.858,2.634-1.729,3.709-2.66l3.558-3.078l-1.213,3.595
				c-0.566,1.682-1.268,3.094-2.274,4.579c-1.052,1.553-2.69,2.949-4.277,4.298l-0.268,0.229c-0.521,0.445-1.041,0.893-1.56,1.339
				c-1.934,1.666-3.933,3.391-6.116,5.024c-8.346,6.251-20.362,13.402-39.348,13.209l-0.457-0.003
				c-2.806-0.029-5.707-0.059-8.633-0.365c-2.514-0.262-5.587-1.091-7.522-1.796C117.962,78.564,117.529,75.645,117.729,73.309z"/>
		</g>
		<g opacity="0.6">
			<g>
				<path fill="#ED1C24" d="M116.404,73.303c0.063-0.766,0.205-1.499,0.34-2.209c0.083-0.432,0.162-0.839,0.218-1.217
					c0.38-2.708,1.706-4.668,4.171-6.171c0.38-0.23,0.827-0.434,1.3-0.649c0.406-0.187,1.346-0.613,1.445-0.803l-0.146-1.739
					l3.5,0.769c4.942,1.088,9.557,1.361,13.714,0.809l2.225-0.295l1.068,1.098c0.113,0.117,0.239,0.199,0.322,0.246
					c7.678,0.107,14.975-0.742,21.69-2.526c1.792-0.475,3.58-1.032,5.32-1.655l3.713-1.328l0.543,2.386
					c0.057,0.239,0.217,0.425,0.34,0.51c0.147,0.103,0.253,0.137,0.29,0.142c0.066,0.007,0.344-0.003,0.691-0.136
					c3.535-1.365,6.65-3.184,9.294-4.782c1.383-0.836,2.563-1.682,3.611-2.59l7.31-6.327l-2.492,7.39
					c-0.574,1.713-1.29,3.151-2.314,4.664c-1.087,1.605-2.752,3.024-4.366,4.397l-0.265,0.227c-0.508,0.433-1.013,0.867-1.515,1.301
					l-0.044,0.037c-1.941,1.672-3.948,3.403-6.15,5.052c-8.5,6.367-20.768,13.649-40.332,13.448l-0.457-0.004
					c-2.869-0.027-5.838-0.058-8.893-0.377c-2.921-0.305-6.199-1.232-8.118-1.932C116.678,78.945,116.188,75.804,116.404,73.303z"/>
			</g>
		</g>
		<g>
			<g>
				<path fill="#ED1C24" d="M174.123,61.017c-0.455-0.318-0.742-0.726-0.837-1.139c-1.782,0.636-3.632,1.217-5.558,1.727
					c-7.135,1.898-14.965,2.789-23.088,2.659c-1.137-0.02-2.12-0.496-2.694-1.089c-5.077,0.676-10.425,0.226-15.493-0.89
					c0.071,0.88-2.225,1.554-3.213,2.154c-2.54,1.549-3.424,3.542-3.71,5.578c-0.433,3.065-2.339,7.564,4.26,9.972
					c1.876,0.685,4.736,1.439,6.958,1.672c2.956,0.309,5.912,0.323,8.844,0.354c17.957,0.184,29.651-6.412,38.419-12.98
					c2.736-2.051,5.145-4.208,7.645-6.339c1.663-1.419,3.383-2.846,4.462-4.435c0.975-1.442,1.672-2.84,2.231-4.499
					c-1.135,0.982-2.383,1.869-3.801,2.727c-2.969,1.797-6.032,3.557-9.62,4.939C177.45,61.997,175.445,61.944,174.123,61.017z"/>
				<path fill="#E97524" d="M168.612,63.502c-0.011-0.002-0.021-0.004-0.032-0.007c-2.973,0.82-5.85,1.712-9.202,2.194
					c-2.479,0.355-5.09,0.704-7.755,0.767c-1.682,0.041-3.407,0.025-5.112-0.076c-1.685-0.101-3.321-0.376-4.969-0.651
					c-0.208-0.035-0.417-0.079-0.623-0.127c-0.488-0.112-2.729,0.336-3.347,0.38c-1.219,0.085-2.469,0.122-3.727,0.108
					c-2.681-0.032-7.307-1.503-8.252,0.352c-0.673,1.317-3.356,2.78-3.421,4.158c-0.074,1.531,2.078,3.223,1.845,4.739
					c-0.225,1.486,0.609,3.276,3.643,4.42c3.245,1.225,8.133,1.033,11.554,0.775c2.356-0.18,4.633-0.488,6.878-0.817
					c2.931-0.429,5.614-1.1,8.232-1.832c4.52-1.341,8.744-2.906,12.436-4.756c2.646-1.463,4.94-3.083,6.799-4.847
					c0.218-0.22,0.437-0.438,0.658-0.654c0.386-0.386,0.76-0.777,1.155-1.16c0.236-0.487,0.64-0.938,1.227-1.297
					c0.446-0.272,0.842-0.563,1.201-0.866c0.421-0.479,0.79-0.973,1.134-1.472c-1,0.298-2.043,0.565-3.078,0.823
					C173.807,64.163,170.849,64.004,168.612,63.502z"/>
				<path fill="#F1B11D" d="M159.971,68.22c-1.603,0.112-3.175,0.06-4.841,0.026c-0.695-0.014-1.384-0.059-2.076-0.156
					c-0.672-0.058-1.323-0.149-1.953-0.271c-0.18,0.045-0.365,0.087-0.556,0.125c-2.418,0.475-4.863,1.035-7.605,1.118
					c-3.476,0.106-7.241-0.67-10.563-0.161c-2.647,0.405-3.424,1.755-3.486,3.041c-0.054,1.131-0.091,2.246,0.147,3.392
					c0.661,3.15,10.942,1.584,14.099,1.113c1.902-0.284,3.761-0.635,5.587-0.998c2.242-0.442,4.442-0.908,6.548-1.47
					c3.715-1.136,7.091-2.51,10.122-4.057c2.341-1.259,4.613-2.573,6.569-4c-1.463,0.5-3.032,0.922-4.612,1.269
					C165.056,67.693,162.512,68.043,159.971,68.22z"/>
			</g>
		</g>
	</g>
	<g>
		<g opacity="0.8">
			<path fill="#ED1C24" d="M24.314,77.096c0.671-2.186,1.444-4.275,2.196-6.297c0.463-1.253,0.903-2.439,1.284-3.561
				c2.548-7.482,5.993-12.644,10.843-16.244c0.692-0.515,1.521-0.978,2.401-1.469c1.542-0.86,3.466-1.933,3.799-3.017
				c0.011-0.036,0.021-0.07,0.029-0.105l0.529-2.519l2.49,1.489c7.683,4.596,15.489,6.572,23.199,5.873l1.872-0.17l0.441,1.685
				c0.253,0.966,0.891,2.15,1.844,2.314c12.899,2.221,25.896,1.422,38.633-2.379c3.354-1,6.767-2.242,10.147-3.693l3.431-1.473
				l-0.443,3.461c-0.121,0.937,0.002,1.876,0.338,2.574c0.395,0.821,0.958,1.361,1.668,1.61c0.84,0.293,1.923,0.183,2.967-0.306
				c6.959-3.248,13.505-7.915,19.091-12.034c2.961-2.183,5.597-4.447,8.054-6.924l8.119-8.183l-4.689,10.239
				c-2.192,4.79-4.401,8.759-7.161,12.868c-2.886,4.301-6.613,8.006-10.218,11.591l-0.606,0.604
				c-1.189,1.182-2.371,2.37-3.555,3.557c-4.409,4.431-8.971,9.01-13.759,13.287c-18.322,16.356-43.301,34.495-74.101,29.536
				l-0.742-0.118c-4.552-0.731-9.258-1.487-13.794-3.056c-3.895-1.349-8.282-4.49-10.901-7.001
				C20.727,92.523,22.227,83.876,24.314,77.096z"/>
		</g>
		<g opacity="0.6">
			<g>
				<path fill="#ED1C24" d="M22.161,76.769c0.685-2.229,1.467-4.338,2.223-6.381c0.462-1.246,0.897-2.421,1.273-3.525
					c2.664-7.825,6.306-13.252,11.458-17.078c0.793-0.588,1.676-1.081,2.612-1.603c0.799-0.448,2.654-1.483,2.961-2.015l1.075-5.123
					l5.121,3.063c7.232,4.326,14.547,6.187,21.741,5.535l3.846-0.349l0.911,3.462c0.096,0.37,0.24,0.646,0.342,0.798
					c12.429,2.089,24.962,1.29,37.255-2.378c3.274-0.975,6.613-2.191,9.918-3.61l7.054-3.028l-0.914,7.111
					c-0.091,0.712,0.034,1.29,0.169,1.57c0.162,0.337,0.31,0.46,0.364,0.482c0.106,0.036,0.561,0.072,1.232-0.24
					c6.792-3.171,13.243-7.774,18.757-11.838c2.883-2.125,5.447-4.33,7.84-6.739l16.689-16.82l-9.639,21.045
					c-2.233,4.876-4.482,8.918-7.295,13.107c-2.981,4.443-6.772,8.21-10.438,11.855l-0.604,0.605
					c-1.153,1.147-2.303,2.299-3.45,3.452l-0.099,0.101c-4.427,4.444-9.005,9.042-13.839,13.357
					c-18.662,16.659-44.15,35.127-75.886,30.015l-0.739-0.118c-4.655-0.748-9.471-1.521-14.208-3.159
					c-4.528-1.569-9.172-5.037-11.769-7.53C18.346,93.34,19.92,84.04,22.161,76.769z"/>
			</g>
		</g>
		<g>
			<g>
				<path fill="#ED1C24" d="M125.501,54.181c-0.5-1.037-0.661-2.299-0.503-3.531c-3.387,1.454-6.84,2.721-10.363,3.772
					c-13.057,3.896-26.491,4.698-39.63,2.436c-1.838-0.318-3.083-1.943-3.573-3.806c-8.782,0.796-17.158-1.751-24.579-6.19
					c-0.545,2.593-4.801,4.033-6.861,5.563c-5.311,3.942-8.253,9.565-10.26,15.457c-3.02,8.864-9.52,21.588-0.586,30.161
					c2.54,2.436,6.633,5.308,10.078,6.501c4.583,1.586,9.392,2.312,14.146,3.077c29.127,4.69,53.16-11.898,72.41-29.083
					c6.009-5.368,11.562-11.119,17.246-16.78c3.783-3.765,7.663-7.542,10.617-11.942c2.679-3.992,4.872-7.922,7.035-12.644
					c-2.592,2.612-5.297,4.918-8.255,7.1c-6.196,4.566-12.514,9.002-19.409,12.222C130.183,57.817,126.959,57.201,125.501,54.181z"
					/>
				<path fill="#E97524" d="M114.646,60.176c-0.015-0.009-0.03-0.021-0.045-0.031c-5.465,1.714-10.824,3.653-16.653,4.287
					c-4.305,0.467-8.827,0.881-13.218,0.45c-2.769-0.273-5.572-0.719-8.276-1.407c-2.667-0.683-5.125-1.872-7.604-3.052
					c-0.316-0.151-0.623-0.326-0.921-0.515c-0.71-0.447-4.699,0.349-5.741,0.333c-2.047-0.033-4.115-0.211-6.154-0.544
					c-4.345-0.712-10.773-6.09-13.716-0.88c-2.089,3.698-7.569,7.358-8.715,11.373c-1.276,4.463,0.952,9.907-0.57,14.289
					c-1.491,4.298-1.48,9.722,2.6,13.775c4.359,4.327,12.475,4.905,18.242,4.938c3.978,0.023,7.92-0.354,11.825-0.795
					c5.102-0.579,9.985-1.918,14.8-3.455c8.383-2.882,16.443-6.479,23.857-11.041c5.418-3.668,10.378-7.87,14.741-12.608
					c0.521-0.588,1.042-1.175,1.564-1.761c0.922-1.041,1.826-2.095,2.761-3.126c0.752-1.368,1.747-2.591,2.979-3.513
					c0.931-0.699,1.797-1.452,2.609-2.256c1.048-1.303,2.021-2.659,2.957-4.044c-1.85,0.646-3.754,1.182-5.635,1.697
					C122.613,63.308,117.911,62.162,114.646,60.176z"/>
				<path fill="#F1B11D" d="M97,71.981c-2.699-0.044-5.22-0.563-7.91-1.047c-1.12-0.202-2.213-0.488-3.268-0.932
					c-1.05-0.326-2.041-0.743-2.977-1.243c-0.328,0.087-0.661,0.168-0.999,0.234c-4.302,0.832-8.707,1.9-13.239,1.511
					c-5.746-0.493-11.294-3.642-17.094-2.918c-4.617,0.576-6.905,4.349-7.977,8.096c-0.942,3.296-1.846,6.543-2.319,9.953
					c-1.304,9.366,16.633,7.169,22.135,6.518c3.312-0.392,6.609-0.988,9.854-1.623c3.992-0.777,7.93-1.63,11.785-2.788
					c6.913-2.465,13.451-5.708,19.558-9.532c4.769-3.138,9.464-6.457,13.728-10.179c-2.759,1.126-5.64,1.993-8.475,2.642
					C105.685,71.613,101.275,72.05,97,71.981z"/>
			</g>
		</g>
	</g>
	<g>
		<g opacity="0.8">
			<path fill="#ED1C24" d="M37.783,73.398c2.388-2.673,4.819-5.182,7.172-7.605c1.458-1.504,2.836-2.926,4.105-4.283
				c8.452-9.063,16.184-14.661,24.331-17.619c1.164-0.423,2.443-0.723,3.799-1.042c2.38-0.557,5.344-1.253,6.532-2.581
				c0.036-0.044,0.072-0.086,0.108-0.132l2.476-3.176l1.692,2.966c5.218,9.145,12.529,14.816,21.731,16.86l2.234,0.496l-0.758,2.435
				c-0.437,1.394-0.606,3.232,0.347,3.822c12.863,7.973,28.094,11.927,45.268,11.753c4.521-0.046,9.292-0.394,14.18-1.034
				l4.963-0.649l-3.084,4.474c-0.836,1.213-1.396,2.522-1.54,3.591c-0.166,1.252,0.063,2.198,0.677,2.807
				c0.727,0.721,2.026,0.989,3.568,0.74c10.256-1.67,21.108-5.405,30.475-8.773c4.963-1.784,9.619-3.808,14.235-6.182l15.247-7.844
				l-12.921,11.933c-6.043,5.583-11.492,10.058-17.666,14.509c-6.46,4.657-13.422,8.191-20.154,11.61l-1.133,0.575
				c-2.222,1.129-4.438,2.267-6.657,3.403c-8.271,4.241-16.824,8.624-25.408,12.513c-32.836,14.876-74.499,29.565-105.468,10.989
				l-0.744-0.446c-4.578-2.743-9.315-5.578-13.25-9.442c-3.379-3.318-5.973-9.231-7.048-13.62
				C22.228,92.727,30.369,81.699,37.783,73.398z"/>
		</g>
		<g opacity="0.6">
			<g>
				<path fill="#ED1C24" d="M35.6,72.126c2.435-2.726,4.891-5.258,7.266-7.707c1.45-1.497,2.816-2.905,4.062-4.24
					c8.842-9.478,16.99-15.357,25.648-18.498c1.331-0.486,2.691-0.805,4.136-1.146c1.233-0.289,4.095-0.96,4.837-1.558l5.035-6.463
					l3.48,6.096c4.912,8.606,11.754,13.938,20.339,15.845l4.594,1.02l-1.56,5c-0.165,0.533-0.212,0.958-0.211,1.203
					c12.434,7.616,27.139,11.393,43.715,11.224c4.419-0.043,9.082-0.383,13.862-1.009l10.2-1.335l-6.338,9.196
					c-0.633,0.919-0.924,1.743-0.981,2.171c-0.069,0.516,0.003,0.741,0.052,0.789c0.092,0.091,0.576,0.314,1.565,0.154
					c10.014-1.629,20.712-5.312,29.952-8.637c4.833-1.738,9.365-3.707,13.856-6.016l31.345-16.125l-26.561,24.53
					c-6.153,5.682-11.704,10.239-17.996,14.777c-6.675,4.811-13.753,8.405-20.599,11.881l-1.133,0.574
					c-2.156,1.095-4.309,2.199-6.461,3.302l-0.185,0.095c-8.304,4.257-16.889,8.657-25.551,12.582
					c-33.443,15.149-75.922,30.084-107.834,10.938l-0.746-0.444c-4.685-2.806-9.527-5.706-13.636-9.741
					c-3.93-3.858-6.567-10.312-7.633-14.665C18.94,92.903,27.654,81.022,35.6,72.126z"/>
			</g>
		</g>
		<g>
			<g>
				<path fill="#ED1C24" d="M168.8,81.785c0.212-1.586,0.972-3.342,2.071-4.935c-4.896,0.64-9.732,1.006-14.484,1.054
					c-17.606,0.177-33.33-3.943-46.433-12.064c-1.832-1.137-2.02-3.801-1.18-6.494c-10.482-2.33-18.01-8.989-23.051-17.821
					c-2.549,3.271-8.415,3.557-11.878,4.815c-8.919,3.238-16.431,9.65-23.086,16.785c-10.017,10.735-26.833,25.303-23.171,40.271
					c1.039,4.254,3.505,9.692,6.493,12.628c3.976,3.904,8.848,6.738,13.628,9.605c29.292,17.571,68.729,4.596,103.226-11.033
					c10.772-4.878,21.317-10.455,31.941-15.856c7.067-3.593,14.256-7.162,20.867-11.929c5.996-4.322,11.398-8.75,17.358-14.255
					c-4.868,2.504-9.635,4.555-14.594,6.339c-10.384,3.735-20.808,7.25-30.973,8.902C171.357,88.479,168.188,86.402,168.8,81.785z"
					/>
				<path fill="#E97524" d="M152.103,85.633c-0.009-0.017-0.017-0.037-0.027-0.056c-7.431,0.185-14.915,0.717-21.946-0.689
					c-5.199-1.04-10.596-2.231-15.216-4.509c-2.916-1.439-5.737-3.118-8.266-5.093c-2.492-1.948-4.374-4.497-6.281-7.04
					c-0.245-0.325-0.458-0.68-0.654-1.049c-0.467-0.874-5.552-1.348-6.711-1.772c-2.282-0.838-4.476-1.878-6.523-3.114
					c-4.36-2.636-7.582-12.346-14.78-6.491c-5.117,4.159-14.015,6.954-18.303,11.9c-4.767,5.5-6.324,13.672-11.304,18.968
					c-4.887,5.193-8.924,12.48-7.355,19.5c1.675,7.501,10.382,11.417,16.848,13.691c4.461,1.572,9.179,2.593,13.907,3.509
					c6.176,1.196,12.672,1.286,19.244,1.087c11.583-0.629,23.345-2.337,35.096-5.595c8.84-2.829,17.56-6.553,26.007-11.226
					c1.024-0.588,2.049-1.174,3.075-1.76c1.814-1.039,3.62-2.107,5.44-3.129c1.868-1.545,3.902-2.805,5.977-3.565
					c1.568-0.575,3.104-1.253,4.622-2.018c2.15-1.345,4.259-2.791,6.346-4.286c-2.565,0.15-5.108,0.133-7.61,0.099
					C158.737,92.925,154.298,89.564,152.103,85.633z"/>
				<path fill="#F1B11D" d="M123.426,94.657c-3.001-1.103-5.456-2.773-8.121-4.466c-1.111-0.704-2.125-1.514-2.981-2.516
					c-0.939-0.846-1.745-1.787-2.422-2.82c-0.437-0.011-0.87-0.03-1.302-0.075c-5.462-0.543-11.222-0.813-16.033-3.09
					c-6.102-2.89-9.997-9.263-17.064-10.534c-5.628-1.015-11.019,3.166-15.024,7.783C56.957,83,53.519,87.01,50.438,91.402
					c-8.46,12.074,13.375,16.066,20.054,17.319c4.022,0.755,8.181,1.23,12.306,1.637c5.07,0.498,10.143,0.879,15.346,0.817
					c9.624-0.637,19.404-2.461,29.135-5.231c7.708-2.368,15.473-5.009,23.051-8.357c-3.947,0.444-7.836,0.493-11.512,0.268
					C133.479,97.526,128.188,96.405,123.426,94.657z"/>
			</g>
		</g>
	</g>
	<g>
		<g opacity="0.8">
			<path fill="#ED1C24" d="M15.306,67.259c3.192-2.523,6.425-4.828,9.548-7.056c1.938-1.382,3.769-2.688,5.457-3.953
				c11.266-8.435,21.292-12.824,31.56-13.812c1.466-0.142,3.06-0.093,4.751-0.042c2.968,0.09,6.665,0.201,8.25-1.052
				c0.051-0.04,0.102-0.083,0.147-0.126l3.353-3.117l1.766,4.223c5.449,13.018,13.812,22.43,24.858,27.974l2.681,1.346l-1.176,2.76
				c-0.675,1.582-1.071,3.801,0.034,4.843c14.918,14.075,33.141,23.958,54.164,29.373c5.536,1.427,11.405,2.561,17.448,3.37
				l6.136,0.824l-4.228,4.521c-1.147,1.228-1.968,2.661-2.25,3.935c-0.332,1.496-0.15,2.739,0.539,3.694
				c0.815,1.13,2.379,1.889,4.29,2.083c12.716,1.298,26.369,0.237,38.168-0.859c6.252-0.581,12.153-1.555,18.042-2.979l19.451-4.702
				l-17.021,10.523c-7.964,4.922-15.087,8.669-23.092,12.149c-8.376,3.641-17.25,5.73-25.834,7.75l-1.443,0.34
				c-2.834,0.668-5.663,1.348-8.49,2.025c-10.55,2.534-21.458,5.15-32.354,7.146c-41.679,7.632-94.133,12.142-130.114-20.984
				l-0.864-0.794c-5.322-4.894-10.823-9.954-15.24-16.021c-3.792-5.21-6.365-13.373-7.229-19.153
				C-5.693,86.062,5.39,75.094,15.306,67.259z"/>
		</g>
		<g opacity="0.6">
			<g>
				<path fill="#ED1C24" d="M12.767,64.969c3.254-2.572,6.518-4.899,9.673-7.148c1.927-1.376,3.742-2.668,5.401-3.912
					c11.781-8.822,22.349-13.42,33.255-14.47c1.679-0.162,3.378-0.111,5.177-0.056c1.538,0.046,5.104,0.154,6.073-0.344l6.821-6.342
					l3.631,8.679c5.128,12.255,12.956,21.094,23.261,26.264l5.513,2.767l-2.419,5.672c-0.257,0.605-0.357,1.118-0.382,1.419
					c14.429,13.494,32.03,22.985,52.321,28.211c5.407,1.394,11.145,2.501,17.056,3.294l12.612,1.693l-8.692,9.294
					c-0.867,0.928-1.306,1.854-1.42,2.363c-0.136,0.615-0.071,0.918-0.018,0.991c0.103,0.144,0.673,0.578,1.897,0.705
					c12.416,1.266,25.875,0.218,37.516-0.863c6.087-0.564,11.831-1.513,17.561-2.898l39.982-9.667l-34.988,21.626
					c-8.104,5.012-15.359,8.829-23.52,12.375c-8.652,3.764-17.678,5.887-26.405,7.941l-1.443,0.34
					c-2.748,0.647-5.494,1.307-8.238,1.966l-0.237,0.056c-10.589,2.543-21.539,5.171-32.534,7.186
					c-42.449,7.771-95.928,12.314-133.004-21.819l-0.863-0.795c-5.444-5.007-11.071-10.181-15.685-16.52
					c-4.409-6.06-6.979-14.904-7.836-20.637C-9.732,85.203,2.138,73.367,12.767,64.969z"/>
			</g>
		</g>
		<g>
			<g>
				<path fill="#ED1C24" d="M174.691,120.579c0.42-1.894,1.53-3.815,3.035-5.425c-6.054-0.813-12.005-1.946-17.82-3.443
					c-21.554-5.552-40.362-15.805-55.56-30.143c-2.121-2.006-2.082-5.363-0.779-8.417c-12.583-6.315-21.11-17.022-26.372-29.595
					c-3.453,3.208-10.653,1.641-15.02,2.061c-11.241,1.082-21.083,6.551-29.951,13.19c-13.347,9.994-35.4,22.497-32.453,42.208
					c0.839,5.603,3.298,13.136,6.654,17.745c4.461,6.134,10.131,11.235,15.687,16.35c34.027,31.328,83.589,28.208,127.375,20.193
					c13.673-2.505,27.142-5.944,40.686-9.142c9.011-2.126,18.168-4.185,26.739-7.911c7.773-3.378,14.836-7.085,22.685-11.938
					c-6.21,1.502-12.248,2.476-18.496,3.056c-13.081,1.216-26.188,2.142-38.789,0.856
					C177.135,129.694,173.469,126.09,174.691,120.579z"/>
				<path fill="#E97524" d="M153.877,119.866c-0.011-0.026-0.019-0.054-0.03-0.08c-9.106-2.207-18.313-4.003-26.77-8.047
					c-6.253-2.99-12.732-6.231-18.154-10.565c-3.417-2.734-6.697-5.734-9.588-9.009c-2.85-3.226-4.889-6.993-6.964-10.765
					c-0.263-0.48-0.488-0.987-0.691-1.51c-0.481-1.235-6.653-3.488-8.026-4.393c-2.705-1.784-5.281-3.788-7.661-5.99
					c-5.059-4.686-8.009-17.751-17.415-12.871c-6.681,3.466-17.85,4.004-23.599,8.716c-6.395,5.239-9.13,14.834-15.764,19.751
					c-6.506,4.822-12.189,12.508-10.989,21.704c1.286,9.828,11.532,17.522,19.21,22.458c5.297,3.405,10.962,6.211,16.651,8.896
					c7.428,3.504,15.366,5.743,23.421,7.65c14.233,3.022,28.792,4.764,43.498,4.588c11.102-0.601,22.147-2.347,32.955-5.357
					c1.311-0.391,2.627-0.778,3.941-1.168c2.324-0.693,4.642-1.422,6.974-2.087c2.442-1.297,5.057-2.188,7.673-2.448
					c1.978-0.197,3.927-0.534,5.859-0.981c2.768-0.958,5.495-2.053,8.199-3.219c-3.151-0.658-6.263-1.51-9.318-2.375
					C161.244,131.055,156.159,125.444,153.877,119.866z"/>
				<path fill="#F1B11D" d="M117.881,121.625c-3.559-2.347-6.391-5.22-9.477-8.185c-1.288-1.239-2.447-2.57-3.389-4.092
					c-1.062-1.352-1.953-2.78-2.676-4.281c-0.531-0.155-1.061-0.323-1.583-0.519c-6.625-2.466-13.64-4.686-19.292-9.081
					c-7.167-5.57-11.281-14.729-19.797-18.62c-6.781-3.097-13.8,0.305-19.168,4.7c-4.722,3.867-9.339,7.7-13.552,12.122
					c-11.582,12.159,14.715,24.253,22.756,27.996c4.843,2.251,9.878,4.201,14.885,6.056c6.147,2.28,12.314,4.411,18.686,6.04
					c11.833,2.371,23.98,3.319,36.163,3.084c9.671-0.401,19.439-1.124,29.049-2.777c-4.873-0.745-9.636-1.959-14.107-3.442
					C129.884,128.467,123.525,125.349,117.881,121.625z"/>
			</g>
		</g>
	</g>
	<g>
		<g opacity="0.8">
			<path fill="#ED1C24" d="M74.5,61.861c0.116-1.346,0.292-2.653,0.465-3.917c0.106-0.782,0.208-1.524,0.286-2.219
				c0.521-4.647,1.742-8.073,3.838-10.785c0.3-0.385,0.675-0.762,1.072-1.159c0.698-0.697,1.566-1.568,1.623-2.237
				c0-0.021,0.002-0.044,0.003-0.064l0.007-1.521l1.426,0.536c4.391,1.643,8.572,1.762,12.429,0.349l0.937-0.343l0.4,0.914
				c0.229,0.522,0.677,1.124,1.18,1.092c6.802-0.407,13.343-2.569,19.438-6.424c1.605-1.016,3.216-2.178,4.788-3.457l1.596-1.297
				l0.132,2.051c0.036,0.557,0.197,1.082,0.44,1.439c0.288,0.422,0.629,0.661,1.017,0.711c0.458,0.058,0.999-0.146,1.48-0.563
				c3.209-2.781,6.06-6.329,8.48-9.435c1.281-1.646,2.388-3.297,3.384-5.046l3.29-5.777l-1.328,6.515
				c-0.62,3.047-1.334,5.625-2.314,8.355c-1.024,2.858-2.538,5.481-4.004,8.018l-0.246,0.427c-0.481,0.838-0.961,1.678-1.441,2.518
				c-1.789,3.131-3.638,6.367-5.633,9.459c-7.64,11.826-18.486,25.549-34.695,26.722l-0.389,0.028
				c-2.396,0.174-4.873,0.354-7.347,0.041c-2.125-0.267-4.687-1.502-6.282-2.609C74.271,71.227,74.14,66.044,74.5,61.861z"/>
		</g>
		<g opacity="0.6">
			<g>
				<path fill="#ED1C24" d="M73.367,61.956c0.119-1.373,0.297-2.693,0.47-3.968c0.106-0.778,0.208-1.513,0.283-2.198
					c0.545-4.859,1.839-8.465,4.068-11.345c0.34-0.442,0.741-0.842,1.163-1.265c0.36-0.361,1.2-1.202,1.298-1.548l0.018-3.093
					l2.927,1.097c4.135,1.548,8.055,1.664,11.652,0.346l1.924-0.706l0.823,1.876c0.087,0.2,0.189,0.341,0.256,0.416
					c6.551-0.421,12.854-2.522,18.737-6.245c1.567-0.992,3.141-2.128,4.679-3.378l3.279-2.668l0.272,4.219
					c0.028,0.423,0.152,0.738,0.25,0.882c0.118,0.174,0.206,0.228,0.235,0.23c0.059,0.006,0.294-0.031,0.604-0.3
					c3.132-2.716,5.941-6.213,8.33-9.278c1.248-1.602,2.326-3.209,3.295-4.911l6.76-11.878l-2.728,13.392
					c-0.632,3.103-1.36,5.727-2.358,8.509c-1.058,2.952-2.597,5.619-4.088,8.199l-0.244,0.427c-0.47,0.813-0.936,1.627-1.399,2.442
					l-0.042,0.071c-1.793,3.141-3.649,6.39-5.665,9.511c-7.78,12.042-18.853,26.023-35.554,27.229l-0.39,0.027
					c-2.451,0.179-4.982,0.364-7.566,0.037c-2.474-0.311-5.198-1.704-6.78-2.801C73.144,72.008,72.979,66.44,73.367,61.956z"/>
			</g>
		</g>
		<g>
			<g>
				<path fill="#ED1C24" d="M123.684,35.417c-0.364-0.533-0.578-1.239-0.624-1.969c-1.575,1.279-3.204,2.462-4.89,3.527
					c-6.25,3.955-13.013,6.173-19.942,6.589c-0.968,0.057-1.773-0.717-2.215-1.728c-4.392,1.609-8.923,1.236-13.167-0.352
					c-0.008,1.567-2.028,2.952-2.918,4.106c-2.297,2.965-3.214,6.592-3.626,10.252c-0.617,5.505-2.612,13.689,2.833,17.461
					c1.547,1.073,3.931,2.192,5.809,2.43c2.498,0.313,5.022,0.104,7.526-0.078c15.33-1.106,25.854-13.814,33.88-26.238
					c2.507-3.878,4.738-7.922,7.047-11.929c1.536-2.665,3.122-5.35,4.171-8.273c0.952-2.65,1.661-5.204,2.272-8.207
					c-1.049,1.844-2.187,3.528-3.469,5.171c-2.683,3.444-5.443,6.827-8.621,9.586C126.447,36.9,124.737,36.965,123.684,35.417z"/>
				<path fill="#E97524" d="M118.772,40.292c-0.008-0.002-0.017-0.006-0.026-0.01c-2.607,1.701-5.136,3.521-8.039,4.649
					c-2.147,0.832-4.407,1.662-6.689,1.988c-1.44,0.207-2.914,0.315-4.364,0.272c-1.43-0.046-2.806-0.409-4.191-0.766
					c-0.176-0.045-0.351-0.106-0.523-0.176c-0.407-0.165-2.357,0.817-2.889,0.943c-1.047,0.249-2.119,0.417-3.194,0.492
					c-2.286,0.158-6.121-2.102-7.08,1.285c-0.682,2.406-3.093,5.232-3.263,7.698c-0.186,2.739,1.514,5.585,1.194,8.309
					c-0.312,2.672,0.253,5.798,2.753,7.6c2.67,1.926,6.867,1.198,9.808,0.462c2.029-0.507,4-1.238,5.944-2.007
					c2.538-1,4.888-2.41,7.183-3.927c3.971-2.757,7.707-5.883,11.012-9.483c2.38-2.825,4.472-5.897,6.203-9.198
					c0.205-0.406,0.409-0.813,0.614-1.219c0.361-0.721,0.713-1.447,1.082-2.164c0.242-0.886,0.623-1.722,1.154-2.414
					c0.401-0.524,0.764-1.072,1.096-1.642c0.398-0.889,0.753-1.797,1.086-2.717c-0.875,0.612-1.79,1.171-2.696,1.714
					C123.159,41.056,120.643,41.01,118.772,40.292z"/>
				<path fill="#F1B11D" d="M111.005,49.406c-1.378,0.328-2.718,0.359-4.139,0.431c-0.592,0.03-1.178,0.007-1.762-0.111
					c-0.568-0.049-1.117-0.16-1.646-0.325c-0.158,0.094-0.318,0.183-0.485,0.266c-2.103,1.043-4.238,2.235-6.589,2.603
					c-2.98,0.467-6.131-0.622-9.012,0.554c-2.292,0.937-3.067,3.41-3.225,5.71c-0.138,2.024-0.261,4.014-0.151,6.04
					c0.309,5.57,9.221,1.958,11.955,0.862c1.65-0.659,3.267-1.436,4.856-2.224c1.951-0.971,3.869-1.978,5.715-3.149
					c3.266-2.324,6.261-5.049,8.976-8.053c2.104-2.432,4.153-4.959,5.939-7.663c-1.29,1.009-2.666,1.886-4.044,2.631
					C115.393,48.058,113.191,48.886,111.005,49.406z"/>
			</g>
		</g>
	</g>
</g>
</svg>
