<?xml version="1.0" encoding="utf-8"?>
<!-- Generator: Adobe Illustrator 16.0.0, SVG Export Plug-In . SVG Version: 6.00 Build 0)  -->
<!DOCTYPE svg PUBLIC "-//W3C//DTD SVG 1.1//EN" "http://www.w3.org/Graphics/SVG/1.1/DTD/svg11.dtd">
<svg version="1.1" id="Layer_1" xmlns="http://www.w3.org/2000/svg" xmlns:xlink="http://www.w3.org/1999/xlink" x="0px" y="0px"
	 width="100.008px" height="100px" viewBox="-36.566 -28.962 100.008 100" enable-background="new -36.566 -28.962 100.008 100"
	 xml:space="preserve">
<g>
	<path fill="#E63B25" d="M38.722,47.489c1.085-3.674,1.614-7.531,1.324-11.035c-0.271-3.351-0.027-6.811-1.087-10.051
		c-1.082-3.287-2.877-6.265-5.017-8.973c-1.416-1.79-2.879-3.54-4.369-5.271c-1.799-2.09-3.109-4.3-3.674-6.85
		c-0.034,0.015-0.069,0.029-0.097,0.043c-0.931,2.34-2.538,4.377-3.225,6.823c-0.366,1.31-1.773,1.438-2.63,0.835
		c-0.53-0.216-0.912-0.712-0.844-1.483c0.049-0.58,0.102-1.172,0.152-1.767c-0.195-1.137-0.341-2.28-0.497-3.42
		c-0.15-0.445-0.313-0.898-0.478-1.351c-0.101-0.288-0.126-0.556-0.085-0.792c-0.263-0.706-0.433-1.424-0.558-2.16
		c-2.001-7.135-3.466-14.784-10.164-19.034c0.088,0.67,0.172,1.338,0.257,2.009C8.309-9.481,7.525-3.738,6.065,1.576
		C4.888,5.862,3.228,9.994,1.742,14.18c-1.231,3.477-3.124,6.324-6.389,8.208c-0.658,0.382-1.349,0.702-2.059,0.965
		c-0.376,1.872-0.688,3.754-0.972,5.634c-0.252,2.116-0.4,4.245-0.455,6.368c0.213,5.001,1.273,10.011,2.898,14.732
		c1.773,5.163,4.323,9.666,8.297,13.45c2.456,2.341,4.979,3.946,8.401,4.36c1.609,0.196,3.2,0.4,4.794,0.677
		c1.329,0.229,2.814,0.537,4.16,0.27c1.764-0.341,3.189-1.372,4.606-2.411c1.311-0.96,2.723-1.66,4.059-2.559
		c2.704-1.82,4.233-5.174,5.896-7.868C36.518,53.514,37.812,50.566,38.722,47.489z"/>
	<path fill="#E63B25" d="M-5.161-24.929c-0.038-0.016-0.074-0.025-0.112-0.042c-5.575,10.366-3.03,24.308,6.682,31.433
		c1.417-6.029,2.75-12.434,0.81-18.484c-1.524-4.752-4.699-8.734-6.635-13.309C-4.677-25.217-4.925-25.082-5.161-24.929z"/>
	<path fill="#F99C22" d="M23.009,59.745c0.29-0.246,0.571-0.493,0.846-0.744c0.112-0.226,0.216-0.456,0.315-0.687
		c0.053-0.105,0.099-0.216,0.138-0.334c0.201-0.495,0.383-0.99,0.558-1.458c0.021-0.055,0.039-0.11,0.053-0.166
		c0.359-0.387,0.666-0.843,0.912-1.343c0.015-0.009,0.028-0.021,0.037-0.029c-0.032,0.119,0.037,0.039,0.129-0.102
		c0.353-0.29,0.654-0.641,0.871-1.064c0.273-0.548,0.548-1.092,0.815-1.638c0.546-1.642,0.953-3.323,1.151-5.034
		c0.497-4.31-0.304-8.28-2.451-12.049c-1.764-3.114-3.959-5.961-5.732-9.067c-0.504-0.427-1.107-0.871-1.707-1.03
		c-0.368-0.097-0.589-0.17-0.894,0.226c-0.819,1.06-2.087,1.056-2.895-0.018c-0.812-1.073-1.364-2.267-1.802-3.532
		c-0.1-0.293-0.119-0.552-0.081-0.79c-0.125-0.233-0.187-0.491-0.153-0.761c0.61-5.331-0.916-10.231-2.183-15.317
		c-0.007,0-0.014-0.002-0.023-0.002c-1.505,4.805-3.279,9.52-5.085,14.225c-0.21,1.321-0.295,2.646-0.297,3.969
		c0.013,0.044,0.018,0.085,0.029,0.131C5.638,23.45,5.624,23.738,5.551,24c0.057,1.845,0.269,3.691,0.531,5.537
		c0.237,0.359,0.334,0.804,0.183,1.275c0.17,1.115,0.347,2.229,0.517,3.34c0.137,0.905-0.229,1.802-1.182,2.06
		c-0.292,0.078-0.621,0.06-0.927-0.032c-0.491-0.023-0.983-0.244-1.33-0.751c-0.366-0.53-0.717-1.064-1.038-1.612
		c-0.687,3.482-0.182,7.066,0.561,10.535c0.717,3.367,1.212,7.085,2.754,10.194c1.816,3.657,4.87,6.168,8.118,8.462
		c1.552-0.106,3.122-0.21,4.619-0.631C20.128,61.879,21.615,60.921,23.009,59.745z"/>
	<path fill="#F99C22" d="M-0.036,1.43C0.339-4.058-0.503-9.711-4.114-13.825c-0.019,0.038-0.042,0.07-0.061,0.106
		c-1.708,3.262-0.731,8.01,0.587,11.26c0.381,0.936,0.986,1.927,1.76,2.602C-1.593,0.345-1.593,0.345-0.036,1.43z"/>
</g>
</svg>
