<?xml version="1.0" encoding="utf-8"?>
<!-- Generator: Adobe Illustrator 16.0.0, SVG Export Plug-In . SVG Version: 6.00 Build 0)  -->
<!DOCTYPE svg PUBLIC "-//W3C//DTD SVG 1.1//EN" "http://www.w3.org/Graphics/SVG/1.1/DTD/svg11.dtd">
<svg version="1.1" id="Layer_1" xmlns="http://www.w3.org/2000/svg" xmlns:xlink="http://www.w3.org/1999/xlink" x="0px" y="0px"
	 width="1024px" height="768px" viewBox="0 0 1024 768" enable-background="new 0 0 1024 768" xml:space="preserve">
<g id="Layer_1_1_">
	<rect fill="#B5C447" width="1024" height="768"/>
</g>
<g id="Layer_7">
	<path fill="#ADB543" d="M1067.093,141.23c-15.897-0.068-31.73,1.287-47.565,2.553c-15.311,1.225-30.705,1.133-45.979,2.664
		c-2.278,0.229-4.557,0.464-6.828,0.751c-0.227,0.029-0.419,0.053-0.598,0.075c-0.229,0.036-0.505,0.078-0.837,0.128
		c-3.271,0.496-6.538,1.021-9.791,1.628c-6.361,1.186-12.692,2.529-18.981,4.055c-1.314,0.319-2.628,0.647-3.938,0.976
		c5.552-0.336,11.113-0.561,16.642-0.425c10.359,0.255,20.658,1.627,30.888,3.217c4.854,0.754,9.694,1.576,14.544,2.358
		c2.406,0.388,4.813,0.779,7.227,1.128c0.559,0.081,0.978,0.143,1.283,0.189c0.196,0.022,0.409,0.047,0.659,0.076
		c4.721,0.545,9.437,0.922,14.157,1.036c13.238-1.888,26.501-3.615,39.835-5.054c14.982-1.617,29.979-3.116,44.966-4.718
		c-4.949-4.138-10.439-7.239-16.251-9.597C1080.053,141.743,1073.595,141.258,1067.093,141.23z"/>
	<path fill="#ADB543" d="M37.807,167.815c-15.898-0.101-31.731,1.925-47.566,3.82c-15.31,1.833-30.705,1.695-45.979,3.984
		c-2.278,0.341-4.557,0.695-6.828,1.125c-0.227,0.044-0.419,0.079-0.598,0.112c-0.229,0.054-0.505,0.116-0.837,0.191
		c-3.271,0.742-6.538,1.528-9.791,2.436c-6.361,1.773-12.692,3.783-18.981,6.066c-1.315,0.477-2.628,0.967-3.939,1.459
		c5.552-0.502,11.114-0.84,16.642-0.636c10.359,0.382,20.658,2.434,30.888,4.813c4.853,1.129,9.694,2.357,14.543,3.528
		c2.407,0.581,4.813,1.166,7.227,1.688c0.559,0.12,0.978,0.213,1.283,0.283c0.196,0.032,0.409,0.07,0.659,0.113
		c4.721,0.816,9.437,1.38,14.158,1.55c13.238-2.825,26.5-5.409,39.834-7.561c14.983-2.419,29.98-4.662,44.966-7.057
		c-4.949-6.189-10.439-10.829-16.251-14.357C50.767,168.582,44.309,167.857,37.807,167.815z"/>
	<path fill="#ADB543" d="M549.01,323.29c-15.897-0.068-31.729,1.287-47.565,2.553c-15.311,1.225-30.705,1.133-45.979,2.664
		c-2.278,0.229-4.557,0.464-6.828,0.751c-0.227,0.029-0.419,0.053-0.598,0.075c-0.229,0.036-0.505,0.078-0.837,0.128
		c-3.271,0.496-6.538,1.021-9.791,1.628c-6.361,1.186-12.692,2.529-18.981,4.055c-1.314,0.319-2.628,0.647-3.938,0.976
		c5.552-0.336,11.114-0.561,16.642-0.425c10.359,0.255,20.658,1.627,30.889,3.217c4.853,0.754,9.693,1.576,14.543,2.358
		c2.406,0.389,4.813,0.779,7.227,1.129c0.559,0.08,0.978,0.143,1.283,0.189c0.195,0.021,0.409,0.047,0.659,0.075
		c4.721,0.546,9.437,0.923,14.157,1.036c13.238-1.889,26.5-3.616,39.833-5.055c14.984-1.617,29.98-3.116,44.968-4.718
		c-4.949-4.138-10.439-7.239-16.252-9.597C561.971,323.802,555.512,323.318,549.01,323.29z"/>
	<path fill="#ADB543" d="M232.648,28.096c-31.03-0.058-61.931,1.094-92.839,2.172c-29.879,1.042-59.93,0.964-89.74,2.266
		c-4.449,0.195-8.894,0.395-13.327,0.64c-0.442,0.024-0.82,0.044-1.167,0.064c-0.45,0.03-0.987,0.066-1.635,0.108
		c-6.382,0.422-12.759,0.869-19.11,1.385C2.415,35.739-9.94,36.882-22.215,38.18c-2.569,0.271-5.131,0.551-7.689,0.831
		c10.834-0.286,21.69-0.477,32.479-0.361c20.219,0.217,40.32,1.384,60.288,2.737c9.469,0.642,18.919,1.341,28.385,2.006
		c4.696,0.331,9.393,0.663,14.104,0.96c1.09,0.068,1.906,0.122,2.505,0.161c0.381,0.019,0.796,0.04,1.285,0.063
		c9.213,0.465,18.42,0.786,27.633,0.882c25.838-1.607,51.722-3.076,77.748-4.3c29.246-1.376,58.515-2.651,87.765-4.014
		c-9.66-3.52-20.375-6.158-31.72-8.164C257.946,28.531,245.339,28.119,232.648,28.096z"/>
	<path fill="#ADB543" d="M1010.207,603.167c-46.303-0.313-92.411,5.908-138.531,11.718c-44.584,5.631-89.425,5.2-133.906,12.229
		c-6.639,1.05-13.271,2.134-19.886,3.452c-0.66,0.135-1.224,0.241-1.741,0.341c-0.671,0.17-1.473,0.357-2.438,0.592
		c-9.522,2.276-19.039,4.688-28.517,7.468c-18.525,5.441-36.962,11.61-55.276,18.621c-3.834,1.461-7.656,2.967-11.475,4.475
		c16.166-1.543,32.366-2.573,48.465-1.945c30.17,1.165,60.163,7.468,89.959,14.766c14.129,3.46,28.229,7.234,42.354,10.821
		c7.008,1.783,14.016,3.577,21.046,5.182c1.627,0.367,2.845,0.654,3.737,0.869c0.569,0.099,1.188,0.216,1.917,0.351
		c13.748,2.502,27.484,4.231,41.234,4.752c38.555-8.67,77.178-16.596,116.011-23.202c43.64-7.423,87.313-14.3,130.96-21.651
		c-14.414-18.997-30.403-33.234-47.332-44.055C1047.954,605.517,1029.143,603.293,1010.207,603.167z"/>
	<path fill="#ADB543" d="M-120.075,556.161c46.303-0.197,92.411,3.726,138.531,7.388c44.584,3.551,89.425,3.279,133.906,7.71
		c6.639,0.662,13.271,1.347,19.886,2.177c0.66,0.086,1.224,0.152,1.741,0.216c0.671,0.106,1.473,0.226,2.439,0.373
		c9.522,1.436,19.039,2.956,28.516,4.708c18.526,3.431,36.962,7.319,55.277,11.739c3.834,0.923,7.656,1.871,11.474,2.821
		c-16.166-0.973-32.366-1.623-48.464-1.227c-30.17,0.733-60.164,4.708-89.959,9.31c-14.129,2.181-28.23,4.562-42.354,6.822
		c-7.008,1.124-14.016,2.255-21.046,3.267c-1.627,0.231-2.845,0.413-3.737,0.548c-0.569,0.063-1.189,0.138-1.917,0.222
		c-13.748,1.577-27.485,2.669-41.234,2.996c-38.555-5.467-77.178-10.464-116.011-14.63c-43.64-4.68-87.314-9.016-130.96-13.649
		c14.414-11.979,30.403-20.953,47.332-27.775C-157.822,557.643-139.01,556.241-120.075,556.161z"/>
	<path fill="#ADB543" d="M847.466-30.072c-46.303-0.313-92.411,5.908-138.531,11.718c-44.584,5.631-89.425,5.2-133.905,12.229
		c-6.64,1.05-13.271,2.134-19.887,3.452c-0.659,0.135-1.224,0.242-1.74,0.341c-0.672,0.17-1.474,0.358-2.439,0.592
		c-9.521,2.276-19.039,4.688-28.516,7.468c-18.526,5.441-36.962,11.61-55.277,18.621c-3.834,1.461-7.656,2.967-11.474,4.474
		c16.166-1.542,32.365-2.573,48.464-1.945c30.17,1.165,60.164,7.468,89.959,14.766c14.129,3.46,28.229,7.234,42.354,10.821
		c7.008,1.783,14.017,3.577,21.046,5.182c1.628,0.367,2.846,0.654,3.737,0.869c0.569,0.099,1.189,0.216,1.917,0.35
		c13.748,2.502,27.485,4.232,41.234,4.752c38.555-8.669,77.178-16.595,116.011-23.202c43.64-7.423,87.314-14.3,130.96-21.651
		c-14.414-18.997-30.403-33.234-47.332-44.055C885.213-27.722,866.401-29.946,847.466-30.072z"/>
	<path fill="#ADB543" d="M875.241,277.721c-0.536-0.084-1.893-0.26-2.551-0.346c-0.114-0.013-0.229-0.028-0.344-0.04
		c-2.272-0.235-4.548-0.452-6.829-0.597c-4.053-0.258-8.113-0.424-12.177-0.414c-6.618,0.017-13.251,0.305-19.831,1.053
		c-0.771,0.128-3.273,0.5-4.12,0.658c-2.152,0.401-4.267,0.92-6.402,1.397c-5.068,1.132-10.17,2.104-15.307,2.879
		c-10.651,1.606-21.347,2.818-32.059,3.922c3.671,0.591,7.34,1.199,11.012,1.791c2.406,0.389,4.813,0.779,7.228,1.129
		c0.559,0.08,0.977,0.143,1.283,0.189c0.194,0.021,0.407,0.047,0.657,0.074c4.722,0.547,9.438,0.924,14.158,1.037
		c13.238-1.889,26.5-3.616,39.834-5.055c13.563-1.464,27.137-2.837,40.704-4.271C885.496,279.659,880.394,278.528,875.241,277.721z"
		/>
	<path fill="#ADB543" d="M261.763,434.713c-0.536-0.084-1.892-0.26-2.551-0.347c-0.114-0.013-0.229-0.028-0.343-0.04
		c-2.273-0.235-4.548-0.451-6.829-0.598c-4.053-0.259-8.114-0.425-12.177-0.413c-6.618,0.017-13.251,0.306-19.831,1.053
		c-0.772,0.128-3.274,0.501-4.12,0.657c-2.153,0.4-4.267,0.92-6.403,1.397c-5.068,1.132-10.17,2.104-15.306,2.879
		c-10.652,1.605-21.347,2.817-32.059,3.922c3.671,0.593,7.34,1.199,11.012,1.791c2.406,0.39,4.813,0.779,7.227,1.13
		c0.559,0.079,0.977,0.143,1.283,0.188c0.195,0.021,0.408,0.047,0.658,0.074c4.721,0.547,9.438,0.924,14.158,1.037
		c13.238-1.89,26.5-3.616,39.834-5.056c13.563-1.465,27.137-2.838,40.704-4.271C272.018,436.65,266.915,435.52,261.763,434.713z"/>
	<path opacity="0.1" fill="#ADB543" enable-background="new    " d="M872.768-22.924c-130.534-0.34-260.524,6.432-390.546,12.764
		C356.529-4.033,230.116-4.497,104.712,3.156C85.999,4.299,67.3,5.479,48.65,6.914c-1.86,0.146-3.448,0.265-4.907,0.377
		c-1.892,0.176-4.154,0.389-6.88,0.641c-26.844,2.477-53.673,5.104-80.39,8.139c-52.23,5.926-104.204,12.643-155.84,20.272
		c-10.808,1.595-21.584,3.234-32.345,4.88c45.575-1.679,91.247-2.805,136.628-2.125c85.057,1.275,169.616,8.135,253.613,16.086
		c39.834,3.771,79.588,7.881,119.405,11.79c19.757,1.944,39.513,3.899,59.333,5.646c4.586,0.397,8.019,0.711,10.536,0.945
		c1.604,0.109,3.353,0.232,5.404,0.375c38.76,2.73,77.487,4.615,116.246,5.184c108.695-9.442,217.58-18.082,327.058-25.273
		c123.031-8.086,246.158-15.578,369.203-23.588c-40.635-20.688-85.713-36.193-133.438-47.98
		C979.184-20.363,926.15-22.784,872.768-22.924z"/>
	<path opacity="0.1" fill="#ADB543" enable-background="new    " d="M964.572,28.107c-173.409-0.385-346.094,7.29-518.82,14.467
		c-166.974,6.945-334.907,6.419-501.499,15.094c-24.86,1.295-49.7,2.633-74.476,4.259c-2.471,0.165-4.58,0.3-6.518,0.427
		c-2.514,0.2-5.518,0.441-9.14,0.727c-35.661,2.807-71.301,5.786-106.793,9.225c-69.384,6.717-138.429,14.33-207.024,22.979
		c-14.358,1.808-28.674,3.666-42.969,5.531c60.543-1.903,121.216-3.179,181.503-2.409c112.993,1.445,225.325,9.22,336.911,18.233
		c52.917,4.273,105.728,8.933,158.623,13.363c26.246,2.204,52.492,4.42,78.822,6.399c6.094,0.45,10.651,0.806,13.997,1.071
		c2.13,0.124,4.453,0.264,7.178,0.425c51.492,3.095,102.938,5.231,154.426,5.875c144.396-10.703,289.043-20.495,434.479-28.646
		c163.439-9.165,327.008-17.657,490.466-26.736c-53.981-23.448-113.865-41.024-177.266-54.384
		C1105.939,31.009,1035.488,28.266,964.572,28.107z"/>
	<path opacity="0.1" fill="#ADB543" enable-background="new    " d="M1109.105,505.137c-130.534-0.34-260.524,6.433-390.547,12.765
		c-125.69,6.127-252.104,5.663-377.509,13.315c-18.714,1.144-37.412,2.323-56.063,3.758c-1.86,0.146-3.448,0.266-4.907,0.377
		c-1.892,0.177-4.154,0.39-6.88,0.642c-26.844,2.477-53.673,5.104-80.39,8.139c-52.23,5.926-104.204,12.644-155.84,20.272
		c-10.808,1.595-21.584,3.233-32.345,4.88c45.575-1.68,91.247-2.806,136.628-2.125c85.057,1.274,169.616,8.135,253.613,16.086
		c39.834,3.771,79.588,7.881,119.405,11.79c19.757,1.943,39.514,3.898,59.334,5.646c4.587,0.397,8.019,0.711,10.535,0.945
		c1.604,0.109,3.353,0.231,5.404,0.375c38.76,2.729,77.487,4.615,116.246,5.184c108.695-9.441,217.58-18.082,327.059-25.272
		c123.031-8.086,246.158-15.578,369.203-23.588c-40.635-20.688-85.713-36.193-133.438-47.98
		C1215.521,507.697,1162.489,505.276,1109.105,505.137z"/>
	<path opacity="0.1" fill="#ADB543" enable-background="new    " d="M677.46,550.105c-130.535-0.341-260.525,6.432-390.546,12.764
		c-125.691,6.127-252.104,5.662-377.508,13.315c-18.714,1.144-37.412,2.322-56.063,3.759c-1.86,0.145-3.448,0.264-4.907,0.377
		c-1.892,0.176-4.154,0.389-6.88,0.641c-26.844,2.477-53.673,5.104-80.39,8.139c-52.23,5.927-104.204,12.644-155.84,20.271
		c-10.808,1.596-21.584,3.233-32.345,4.881c45.575-1.68,91.247-2.805,136.628-2.125c85.057,1.275,169.616,8.135,253.613,16.086
		c39.834,3.77,79.588,7.881,119.405,11.789c19.757,1.945,39.514,3.9,59.334,5.646c4.587,0.396,8.018,0.712,10.536,0.945
		c1.604,0.109,3.352,0.232,5.403,0.375c38.761,2.73,77.488,4.615,116.246,5.185c108.695-9.443,217.581-18.082,327.058-25.273
		c123.031-8.086,246.158-15.578,369.203-23.588c-40.635-20.688-85.713-36.193-133.438-47.98
		C783.876,552.666,730.843,550.244,677.46,550.105z"/>
	<path opacity="0.1" fill="#ADB543" enable-background="new    " d="M954.162,222.197c-191.623-0.408-382.445,7.714-573.313,15.31
		c-184.512,7.349-370.083,6.791-554.175,15.972c-27.471,1.37-54.92,2.785-82.298,4.507c-2.73,0.174-5.061,0.316-7.203,0.452
		c-2.777,0.211-6.098,0.466-10.1,0.769c-39.407,2.971-78.791,6.122-118.01,9.762c-76.672,7.108-152.968,15.164-228.77,24.314
		c-15.866,1.914-31.686,3.879-47.482,5.854c66.903-2.015,133.948-3.364,200.567-2.549c124.861,1.53,248.993,9.757,372.299,19.294
		c58.475,4.521,116.833,9.453,175.285,14.14c29.001,2.333,58.005,4.679,87.101,6.772c6.732,0.477,11.77,0.854,15.465,1.135
		c2.354,0.131,4.92,0.278,7.934,0.449c56.899,3.275,113.751,5.535,170.647,6.217c159.563-11.326,319.399-21.688,480.111-30.313
		c180.607-9.698,361.355-18.685,541.982-28.292c-59.65-24.813-125.824-43.412-195.883-57.55
		C1110.379,225.269,1032.527,222.364,954.162,222.197z"/>
	<path opacity="0.1" fill="#ADB543" enable-background="new    " d="M689.292,148.461c-221.747-1.301-442.567,24.613-663.438,48.847
		c-213.518,23.446-428.263,21.667-641.292,50.961c-31.79,4.372-63.553,8.886-95.236,14.379c-3.16,0.555-5.856,1.01-8.335,1.443
		c-3.214,0.673-7.056,1.486-11.688,2.452c-45.602,9.479-91.177,19.53-136.562,31.146c-88.725,22.677-177.015,48.383-264.732,77.578
		c-18.36,6.107-36.667,12.375-54.946,18.68c77.42-6.428,155.005-10.734,232.097-8.133c144.49,4.883,288.135,31.131,430.825,61.56
		c67.667,14.427,135.199,30.161,202.84,45.117c33.561,7.44,67.124,14.925,100.794,21.604c7.791,1.521,13.62,2.725,17.896,3.621
		c2.724,0.417,5.694,0.892,9.181,1.434c65.843,10.45,131.633,17.66,197.473,19.836c184.646-36.139,369.611-69.196,555.586-96.717
		c209-30.945,418.162-59.619,627.184-90.271c-69.026-79.167-145.604-138.508-226.676-183.618
		C870.066,158.26,779.977,148.992,689.292,148.461z"/>
	<path opacity="0.1" fill="#ADB543" enable-background="new    " d="M954.162,693.721c-191.623-0.406-382.445,7.715-573.313,15.312
		c-184.513,7.348-370.083,6.791-554.175,15.972c-27.471,1.37-54.92,2.785-82.298,4.507c-2.73,0.174-5.061,0.316-7.203,0.452
		c-2.777,0.211-6.098,0.466-10.1,0.77c-39.407,2.971-78.791,6.12-118.01,9.762c-76.672,7.106-152.968,15.164-228.77,24.313
		c-15.866,1.914-31.686,3.88-47.482,5.854c66.903-2.015,133.948-3.364,200.567-2.549c124.861,1.529,248.993,9.757,372.299,19.294
		c58.475,4.521,116.833,9.453,175.285,14.141c29.001,2.332,58.005,4.678,87.101,6.771c6.732,0.477,11.771,0.854,15.466,1.135
		c2.354,0.131,4.92,0.279,7.934,0.449c56.898,3.274,113.751,5.534,170.646,6.217c159.563-11.326,319.4-21.688,480.111-30.313
		c180.607-9.698,361.355-18.686,541.982-28.293c-59.65-24.813-125.824-43.41-195.883-57.549
		C1110.379,696.793,1032.527,693.888,954.162,693.721z"/>
</g>
<g id="Layer_6">
</g>
<g id="Layer_4">
	<path opacity="0.3" enable-background="new    " d="M-104.701,63.302c0.513,0.085,1.028,0.16,1.542,0.24
		c8.679-0.792,17.43-1.51,26.156-2.186c14.508-1.123,29.101-2.168,43.5-3.4c6.823-0.584,13.627-1.192,20.326-1.883
		c3.168-0.327,6.328-0.661,9.454-1.021c1.212-0.154,2.42-0.31,3.622-0.469c18.381-2.477,36.043-5.454,53.806-8.267
		c18.366-2.908,36.668-5.848,54.898-8.824c36.333-5.93,72.134-12.122,108.806-17.882c17.854-2.805,35.787-5.571,53.895-8.241
		c7.827-1.154,15.892-2.229,23.915-3.328c1.457-0.261,2.98-0.499,4.574-0.705c0.345-0.065,0.691-0.128,1.036-0.193
		c1.948-0.369,4.102-0.661,6.374-0.881c1.878-0.474,5.257-1.291,6.424-1.606c2.081-0.563,4.187-1.12,6.324-1.668
		c0.307-0.084,0.627-0.164,0.951-0.241c5.622-1.426,11.504-2.772,17.938-3.885c1.06-0.184,2.143-0.347,3.243-0.493
		c9.983-1.93,20.183-3.752,30.527-5.541c2.813-0.857,6.144-1.571,9.816-2.117c4.575-1.013,9.362-1.93,14.482-2.656
		c2.569-0.849,5.592-1.569,9.084-2.156l3.121-0.375c2.384-0.332,4.651-0.721,7.014-1.066c0.109-0.016,0.218-0.03,0.326-0.045
		c4.183-0.941,8.393-1.872,12.665-2.779c3.647-0.986,7.263-1.982,10.789-3.004c4.162-1.206,8.27-2.429,12.156-3.707
		c1.852-0.608,3.688-1.22,5.459-1.848c0.065-0.025,0.125-0.048,0.198-0.076c0.966-0.369,1.935-0.723,2.918-1.061
		c-1.34-1.084-4.635-1.948-9.907-1.948c-3.554,0-6.214,0.393-7.984,0.981c-0.371,0.089-0.729,0.184-1.049,0.293
		c-7.576,2.576-14.768,5.242-22.008,7.892c-0.988-0.492-2.36-0.913-3.958-1.179c-5.621-0.936-11.435-0.237-15.029,1.12
		c-1.927,0.727-2.519,0.939-4.775,1.753c-1.5,0.541-3.016,1.077-4.527,1.615c-2.497-0.228-5.354-0.208-8.296,0.192
		c-36.676,5.002-73.65,9.59-108.703,15.496c-36.118,6.085-72.623,11.985-109.514,17.683c-17.557,2.712-35.287,5.319-53.066,7.899
		c-16.169,1.974-31.494,4.477-47.452,6.591c-9.691,1.284-19.801,2.262-29.409,3.611C24.431,35.416,14.331,37.14,4.31,38.876
		c-7.042,1.22-13.643,2.6-20.079,4.051c-12.535,1.97-25.104,3.921-37.815,5.801c-10.589,1.566-21.522,2.892-32.151,4.433
		c-10.169,1.476-20.067,3.445-24.011,6.613C-111.373,61.081-108.728,62.637-104.701,63.302z M-44.233,57.835
		c3.325-0.446,6.703-0.861,10.078-1.259c3.096-0.365,6.211-0.714,9.334-1.058c-6.639,0.994-13.603,1.958-20.724,2.705
		C-45.104,58.093-44.667,57.964-44.233,57.835z"/>
	<path opacity="0.3" enable-background="new    " d="M974.284,651.195c-12.734-19.738-38.272-23.029-59.581-26.331
		c-10.518-1.63-21.151-3.161-31.287-6.513c-0.615-0.202-1.226-0.423-1.833-0.648c0.198,0.055-1.822-0.787-2.364-1.057
		c-1-0.495-1.963-1.061-2.916-1.639c-0.317-0.191-0.982-0.678-1.467-1.03c-0.456-0.417-0.902-0.846-1.337-1.285
		c-0.134-0.137-0.241-0.242-0.343-0.344c-0.237-0.349-0.457-0.708-0.665-1.075c-0.205-0.482-0.624-1.447-0.769-1.952
		c-0.159-0.563-0.349-1.096-0.555-1.605c-0.734-2.573-2.173-4.906-4.292-6.594c-0.285,0.064-0.574,0.116-0.865,0.159
		c-1.039,0.854-2.252,1.499-3.632,1.793c-4.566,0.973-8.753,0.544-13.265,0.397c7.944,15.069,22.353,24.714,37.706,31.654
		c12.013,5.43,26.328,10.253,37.249,18.563c3.164,0.619,6.313,1.305,9.438,2.115c2.501,0.648,4.966,1.423,7.398,2.289
		c0.43,0.153,0.734,0.259,0.958,0.334c0.021,0.01,0.035,0.018,0.061,0.027c1.071,0.475,2.112,1.015,3.146,1.566
		c0.997,0.533,1.952,1.139,2.896,1.757c0.114,0.073,0.198,0.129,0.293,0.188c0.06,0.055,0.123,0.111,0.212,0.188
		c0.778,0.668,1.486,1.411,2.18,2.166c0.087,0.14,0.19,0.305,0.316,0.5c3.981,6.171,11.911,8.686,18.472,4.844
		C975.576,666.071,978.277,657.385,974.284,651.195z"/>
	<path opacity="0.3" enable-background="new    " d="M866.508,685.31c0.63-0.112,1.294-0.179,2.002-0.179
		c7.691,0,10.854,7.02,9.489,12.795c5.394,5.198,11.208,9.949,17.237,14.202c1.259-0.625,2.42-1.43,3.406-2.417
		c5.438-5.438,4.874-13.588,0-19.092c-9.293-10.495-19.633-27.504-33.445-34.006c-2.363,1.541-5.36,2.279-8.018,1.595
		c-1.792,0.124-3.599,0.125-5.338,0.129c-0.341,0.001-0.674-0.029-1.006-0.063C854.533,667.99,859.951,677.051,866.508,685.31z"/>
</g>
<g id="Layer_3">
	<path fill="#4A7336" d="M458.948-31.703c-2.771-1.344-10.22-2.14-15.029-1.12c-4.055,0.86-8.199,1.686-12.277,2.537
		c-2.372,0.149-4.22,0.497-5.535,0.959c-1.66,0.403-2.782,0.946-3.327,1.542c-1.408,0.231-2.836,0.454-4.284,0.669
		c-1.613-0.1-3.29-0.083-4.895,0.099c-8.691,0.989-16.436,2.045-23.853,3.683c-0.818,0.181-1.457,0.4-1.953,0.642
		c-0.574,0.105-1.152,0.208-1.717,0.317c-15.548,3.017-31.752,5.515-49.007,7.655c-36.844,4.57-72.621,9.913-108.62,14.992
		c-31.643,4.464-59.717,10.685-88.003,16.627C111.976,22.88,83.127,28.23,50.435,32.157c-17.161,2.062-33.98,4.341-51.04,6.468
		c-14.049,1.751-28.477,3.19-42.87,4.687c-25.499,2.653-54.842,5.662-71.502,12.117c-3.55,1.375-0.822,3.479,3.941,4.271
		c5.571,0.928,11.496,0.25,15.029-1.12c7.292-2.825,20.328-4.607,31.253-6.097c12.656-1.726,25.962-3.042,39.159-4.387
		c17.528-1.786,34.599-3.862,51.552-6.047c17.717-2.283,35.842-4.344,53.417-6.707c31.584-4.248,59.495-10.387,87.429-16.271
		c14.167-2.984,28.451-5.924,43.307-8.627c15.31-2.786,31.421-5.028,47.711-7.298c33.463-4.665,66.79-9.335,100.608-13.788
		c15.675-2.064,29.425-4.779,44.082-7.324c14.674-2.548,30.94-4.018,44.582-7.076c1.563-0.35,2.502-0.833,2.933-1.363
		c1.668-0.341,3.336-0.68,4.979-1.029C459.795-28.448,462.231-30.11,458.948-31.703z"/>
	<path fill="#4A7336" d="M988.117,622.939c-21.106,0.805-42.127-6.44-63.309-9.846c-19.99-3.213-41.352-3.299-60.058-10.992
		c-1.866,0.529-3.758,0.771-5.766,0.722c-1.023,0.224-2.045,0.341-3.091,0.349c-0.625,0.186-1.28,0.289-1.961,0.289h-0.157
		c-0.39,0.053-0.776,0.078-1.161,0.088c-1.421,0.438-2.846,0.858-4.271,1.271c4.229,3.94,8.622,7.616,14.311,9.744
		c11.633,4.352,22.869,10.595,35.133,12.985c6.646,1.295,13.222,2.61,19.78,4.313c5.887,1.525,11.278,3.896,16.996,5.882
		c6.553,2.276,12.97,3.444,19.845,4.199c6.132,0.673,11.549,2.21,17.479,3.728c2.501,0.641,3.996,2.189,4.655,4.033
		c3.849,0.271,7.705,0.383,11.573,0.235c7.352-0.28,13.5-5.93,13.5-13.5C1001.617,629.293,995.475,622.659,988.117,622.939z"/>
	<path fill="#4A7336" d="M890.801,681.796c-8.96-7.021-17.511-14.546-26.471-21.567c-0.345-0.271-0.702-0.517-1.059-0.762
		c-1.863,0.271-3.672,0.199-5.605-0.061c-1.104-0.147-2.451-0.422-3.594-0.45c-0.03,0.002-0.049,0.002-0.078,0.004
		c3.25,2.055,5.682,4.805,7.801,8.032c2.325,3.541,4.793,5.99,8.36,8.324c3.016,1.973,5.803,5.441,9.327,6.463
		c3.902,1.13,7.191,2.384,10.246,5.146c6.8,6.157-3.271,16.166-10.039,10.039c-1.563-1.415-4.021-1.854-6.293-2.542
		c1.388,2.35,1.052,5.229-0.323,7.438c5.583,3.688,12.492,4.262,17.728-0.975C895.532,696.156,896.604,686.344,890.801,681.796z"/>
</g>
<g id="Layer_2">
	<path fill="#588C3F" d="M451.456-35.375c-5.697-1.62-13.375-1.295-19.191,0c-8.669,1.931-18.496,3.424-28.538,4.77
		c-1.442-0.357-3.166-0.617-5.139-0.721c-13.711-0.721-26.949-0.584-39.964-0.001c-1.991-1.158-4.64-2.227-7.888-3.15
		c-5.413-1.538-12.24-2.609-19.603-3.113c-9.882-3.894-28.009-6.169-44.708-4.59c-7.107,0.672-14.319,1.169-21.661,1.531
		c-30.851,0.857-61.863-0.278-92.779,0.209c-17.768,0.281-35.394,0.715-53.215,0.81c-17.739,0.095-35.481,0.098-53.215,0.27
		c-18.31,0.177-34.179,3.49-39.476,8.253c-6.751-0.34-13.539-0.612-20.34-0.797c-15.837-3.404-39.077-3.151-53.662,0.849
		c-3.218,0.218-6.413,0.462-9.594,0.723c-7.881-0.981-16.79-1.285-25.401-1.555c-0.912-0.056-1.815-0.123-2.711-0.211
		c-20.51-2.024-46.247,2.248-50.872,8.208c-10.485,13.511-3.829,27.482,7.303,40.853c-2.662,4.435-4.582,8.889-3.712,13.399
		c0.405,2.103,2.411,4.1,5.822,5.838c-1.1,2.679-0.242,5.164,4.893,7.654c4.521,2.193,11.015,3.749,18.614,4.702
		c-6.839,1.043-13.586,2.136-20.162,3.32c-14.738,2.653-1.134,9.33,13.697,6.66c16.542-2.978,34.102-5.425,51.691-7.854
		c17.84-2.463,35.123-5.104,52.313-7.91c16.872-2.755,34.319-5.224,52.074-7.485c17.127-2.18,35.302-3.69,52.187-6.002
		c29.801-4.08,51.22-11.557,78.09-16.831c15.408-3.024,32.227-5.602,48.469-8.245c17.368-2.827,35.091-5.484,53.433-7.766
		c14.886-1.853,30.169-3.357,44.667-5.472c13.687-1.996,26.513-4.425,39.058-6.945c13.479-2.708,28.842-4.552,43.825-6.467
		c16.247-2.077,31.632-4.347,45.697-7.48C457.288-31.22,456.213-34.023,451.456-35.375z"/>
	<g>
		<path opacity="0.3" enable-background="new    " d="M101.59,691.922c15.143-4.916,28.987-12.953,43.932-18.377
			c15.133-5.492,31.197-8.223,46.129-14.301c7.479-3.043,14.497-7.289,21.726-10.876c6.91-3.429,13.865-6.768,20.78-10.188
			c12.87-6.365,25.584-13.037,37.539-20.992c-0.632-1.587-1.606-3.097-2.964-4.453c-4.896-4.896-14.308-5.6-19.092,0
			c-0.288,0.338-0.582,0.657-0.883,0.973c-0.041-0.043-1.84,1.463-2.396,1.802c-1.305,0.797-2.688,1.462-4.066,2.122
			c-0.312,0.139-0.546,0.244-0.726,0.325c-0.601,0.238-1.203,0.476-1.809,0.701c-6.512,2.474-13.289,4.246-20.009,6.047
			c-16.438,4.403-32.257,10.414-47.872,17.157c-35.56,15.354-71.047,31.819-109.42,38.971c-7.24,1.348-11.254,9.971-9.429,16.605
			c2.073,7.536,9.379,10.774,16.606,9.43c8.425-1.57,16.727-3.586,24.932-5.93C94.794,697.121,96.95,693.428,101.59,691.922z"/>
		<path opacity="0.3" enable-background="new    " d="M-166.094,796.77c1.481-1.012,3.398-1.692,5.77-1.827
			c27.173-1.564,54.495-3.468,81.374-7.438c24.279-3.588,48.648-7.402,71.865-14.686c24.091-7.56,46.351-18.863,70.927-25.398
			c25.737-6.842,51.167-13.434,76.037-22.434c1.288-0.465,2.637-0.601,3.958-0.479c0.082-5.842-4.444-11.717-13.399-11.44
			c-3.96,0.121-6.972,1.396-9.074,3.278c-47.718,9.734-92.512,27.396-139.618,38.879c-11.655,2.843-23.444,5.271-35.094,8.16
			c-12.219,3.029-24.448,6.021-36.894,8.297c-21.623,3.959-46.009,1.955-67.213,10.021c-6.725,2.559-11.326,7.803-8.996,14.25
			C-166.352,796.227-166.226,796.498-166.094,796.77z"/>
		<path fill="#4A7336" d="M264.84,623.671c4.995-3.593,9.887-7.276,14.636-11.229c-0.155-0.587-0.258-1.192-0.312-1.876
			c-0.521-0.091-1.041-0.185-1.564-0.261c-5.032-0.73-10.098-0.838-15.074-1.981c-0.567-0.13-1.083-0.31-1.549-0.526
			c-1.769-0.199-3.515-0.556-5.061-1.323c-1.549-0.069-3.014-0.286-4.479-0.694c-0.325-0.071-0.647-0.146-0.966-0.228
			c0.008-0.02,0.016-0.039,0.024-0.059c-0.046-0.012-0.088-0.029-0.134-0.041c-2.303,1.438-4.596,2.979-6.953,4.521
			c-7.443,4.875-17.69,6.06-27.096,8.05c-21.593,4.567-43.935,7.639-64.781,15.071c-19.753,7.044-37.61,16.738-57.875,21.826
			c-21.726,5.453-44.36,9.547-66.823,8.762c-7.358-0.258-13.5,6.337-13.5,13.5c0,7.554,6.147,13.242,13.5,13.5
			c23.155,0.81,46.034-3.645,68.56-8.514c20.5-4.43,38.824-14.203,58.112-21.19c9.275-3.361,18.691-5.836,28.178-7.984
			C208.101,640.01,236.217,630.596,264.84,623.671z"/>
		<path fill="#4A7336" d="M135.127,713.361c-0.348-0.232-0.699-0.451-1.057-0.648c-2.719-1.502-5.67-3.022-7.984-5.18
			c-2.829-0.07-5.791-0.849-9.069-1.65c-5.792-1.416-11.528-2.697-17.506-3.053c-11.383-0.68-23.653,4.072-34.103,8.041
			c-22.72,8.627-44.556,18.957-68.256,24.82c-12.256,3.03-24.93,4.36-37.332,6.725c-12.326,2.348-24.57,5.113-36.751,8.119
			c-25.047,6.182-49.761,13.643-74.334,21.473c-6.677,2.129-11.005,8.648-9.655,15.584c5.801-1.125,11.664-1.906,17.564-2.211
			c8.6-0.442,17.188,0.504,25.77,0.785c0.656-0.484,1.427-0.875,2.337-1.123c7.996-2.176,16.231-3.146,24.436-4.174
			c1.199-0.15,2.244,0.004,3.136,0.379c5.354-1.457,10.72-2.869,16.103-4.223c4.472-1.127,8.958-2.191,13.451-3.23
			c3.807-1.086,7.536-2.352,11.066-4.043c1.573-0.754,3.105-0.906,4.502-0.645c5.919-2.927,12.756-3.431,19.413-3.949
			c10.374-0.812,20.476-2.789,30.67-4.82c2.406-0.479,4.813-0.955,7.221-1.422c19.259-5.744,37.592-14.092,56.316-21.422
			c5.276-2.066,10.616-3.945,16.058-5.521c2.538-0.733,4.679-1.284,6.74-1.645c5.232-1.992,10.553-3.74,15.969-5.111
			c8.976-2.27,17.559-5.766,26.361-8.59C135.53,715.678,135.187,714.537,135.127,713.361z"/>
		<path fill="#588C3F" d="M277.407,609.513c-0.111-0.054-0.217-0.123-0.328-0.18c-15.656-2.601-31.454-4.296-47.076-7.108
			c-7.966-1.434-11.91-2.395-20.406-2.796c-8.019-0.379-16.034-0.17-24.038-0.921c-16.429-1.541-32.742-4.518-49.014-7.199
			c-15.873-2.616-31.634-5.84-47.328-9.368c-15.76-3.544-31.462-7.331-47.2-10.972c-15.423-3.567-31-6.477-46.389-10.168
			c-14.882-3.567-29.657-7.746-44.737-10.43c-7.36-1.31-13.574-2.12-21.763-2.35c-7.53-0.21-15.058-0.06-22.581,0.308
			c-15.932,0.773-31.889,2.269-47.854,1.888c-10.968-0.262-21.557-1.967-32.151-4.006c3.71,34.196-6.264,69.3-10.619,102.977
			c-2.712,20.974-2.206,41.636,0.695,62.56c2.79,20.121,7.143,39.984,10.147,60.072c-2.709,0.621-5.407,1.291-8.078,2.069
			c-5.055,1.476-6.633,6.039-5.741,10.035c55.377-9.791,111.334-16.246,166.418-27.692c14.396-2.992,28.711-6.318,42.926-10.076
			c12.567-3.32,23.106-8.074,34.167-12.791c13.031-5.558,26.353-11.527,40.419-13.91c13.137-2.228,26.216-2.584,39.481-2.072
			c-0.09-2.25-1.074-4.537-2.538-6.014c-0.217-0.219-0.439-0.428-0.658-0.644c-1.901-1.047-3.802-2.098-5.708-3.141
			c-8.368-4.588-16.78-8.887-25.853-11.924c-8.932-2.99-18.055-5.303-27.168-7.66c-1.036-0.268-1.817-0.764-2.38-1.391
			c-14.334-2-29.371-3.367-43.129-8.092c1.781-0.466,3.584-0.855,5.342-1.218c8.385-1.721,16.975-2.241,25.475-3.116
			c9.958-1.025,19.809-2.939,29.72-4.326c12.292-1.72,24.568-3.433,36.624-6.445c12.283-3.072,23.957-8.416,35.82-12.781
			c0.129-0.049,0.259-0.091,0.388-0.139c14.473-8.948,31.597-13.549,47.922-18.482c12.317-3.723,24.1-8.346,36.752-10.969
			c6.927-1.438,13.904-2.69,20.773-4.391c3.283-0.812,7.23-1.928,10.578-3.021C278.368,612.269,278.098,610.863,277.407,609.513z"/>
	</g>
	<g>
		<path opacity="0.3" enable-background="new    " d="M810.651,39.721c-38.918-12.278-80.596-19.746-122.013-23.13
			C646.82,13.175,605.979,3.79,564.857-3.367c-0.67,0.356-1.396,0.677-2.186,0.947c-3.032,1.041-6.042,2.108-9.055,3.17
			c0.148,0.184,0.302,0.365,0.439,0.563c0.283,0.404,0.641,0.82,1.124,1.248c10.94,2.421,21.834,5.039,32.923,6.961
			c11.47,1.987,22.946,3.123,34.493,4.602c11.409,1.462,21.96,3.928,32.707,7.282c10.891,3.399,21.875,6.103,33.4,7.818
			c11.289,1.681,22.654,2.479,33.975,3.907c11.967,1.51,23.667,3.72,35.531,5.676c11.854,1.952,23.713,3.076,35.352,5.923
			c6.023,1.474,8.814,6.798,6.836,10.369c-0.6,1.076-1.485,1.938-2.572,2.604c0.808,0.249,1.615,0.488,2.421,0.742
			C818.694,64.266,829.032,45.52,810.651,39.721z"/>
		<path opacity="0.3" enable-background="new    " d="M726.52,72.701c13.635,3.131,26.418,7.722,39.58,11.804
			c14.541,4.51,29.008,7.689,44.287,10.224c15.647,2.597,31.446,5.008,46.731,8.852c17.478,4.395,34.329,10.351,51.526,15.346
			c16.838,4.89,33.563,8.852,50.885,12.499c9.166,1.931,18.465,4.01,26.97,7.318c7.195,2.8,14.244,5.78,21.56,8.425
			c14.918,5.395,30.315,9.578,45.927,13.674c16.302,4.277,32.893,8.214,48.631,13.609c14.15,4.851,28.269,9.365,42.862,13.438
			c28.832,8.047,58.661,16.323,81.588,31.8c0.423,0.286,0.816,0.585,1.195,0.89c4.225-3.531,3.654-8.725-0.603-12.911
			c-15.078-14.822-38.596-24.98-61.495-33.037c-23.533-8.279-48.379-14.351-73.053-20.316
			c-28.526-6.897-55.976-15.074-83.398-24.193c-31.306-10.411-62.684-20.474-96.08-26.257c-15.974-2.766-32.279-4.239-48.362-6.44
			c-16.955-2.321-33.856-4.98-50.649-8.077c-30.486-5.624-64.536-13.896-91.468-25.15c-6.661-2.783-14.358-3.392-19.616,0.007
			C709.043,69.021,718.303,70.815,726.52,72.701z"/>
		<path fill="#4A7336" d="M815.814,32.409c-10.096-2.375-19.85-5.456-29.763-8.226c-10.349-2.892-20.946-4.978-31.72-6.534
			c-10.927-1.579-21.926-3.16-32.885-4.522c-11.85-1.473-23.768-2.224-35.627-3.593c-10.839-1.25-21.617-2.97-32.442-4.333
			c-10.631-1.338-21.323-2.09-31.97-3.334c-19.617-2.295-39.164-4.934-58.796-5.299c-0.511,0.168-1.026,0.332-1.539,0.497
			c-3.448,1.879-7.016,3.657-10.645,5.379c14.311,2.932,28.871,5.065,43.499,6.609c24.993,2.638,49.722,7.902,74.729,9.931
			c12.683,1.028,26.889,2.62,39.341,5.182c5.768,1.187,10.913,1.322,16.496,2.978c5.512,1.635,10.24,1.039,16.059,1.908
			c6.348,0.947,12.624,2.386,18.955,3.016c5.412,0.539,9.915,0.898,14.819,2.779c4.835,1.856,10.445,1.865,15.327,4.014
			c6.484,1.884,12.964,3.775,19.608,5.339c5.062,1.189,10.366,0.362,12.283-3.093C823.19,38.143,820.886,33.601,815.814,32.409z"/>
		<path fill="#4A7336" d="M909.724,109.167c11.479,3.437,22.676,7.209,33.964,10.973c10.698,3.566,21.676,5.939,32.648,8.902
			c18.321,4.946,34.106,13.799,52.477,18.57c13.655,2.543,27.33,4.687,40.799,8.136c12.047,3.084,23.835,6.725,35.348,10.798
			c12.167,4.304,23.832,8.878,36.505,12.341c11.244,3.072,21.165,7.478,31.25,11.965c1.974,0.724,3.955,1.439,5.961,2.117
			c4.924,1.663,9.323,3.854,13.064,6.408c2.482-0.63,4.673-1.659,6.148-2.998c5.13-4.648,2.47-10.528-3.784-14.61
			c-22.248-14.525-51.36-23.32-79.248-30.571c-11.678-3.038-23.406-5.953-35.149-8.84c-12.449-3.694-25.448-6.616-38.009-9.814
			c-16.547-4.212-32.605-9.308-49.061-13.688c-16.498-4.393-33.287-8.079-49.705-12.654c-16.168-4.506-31.026-10.978-47.159-15.523
			c-15.415-4.343-31.504-7.243-47.467-9.941c-17.663-2.984-35.284-6.058-52.905-9.21c-29.035-5.192-58.141-9.791-87.563-11.126
			c-0.125,0.123-0.257,0.241-0.405,0.344c-1.31,0.91-2.631,1.822-4.092,2.625c10.276,2.998,20.084,6.839,30.497,9.596
			c10.159,2.69,20.452,5.02,30.78,7.262"/>
		<path fill="#588C3F" d="M1294.487,28.25c-5.843-15.516-17.379-30.151-35.82-40.989c-19.141-11.249-42.492-18.809-65.802-24.136
			c-53.27-12.174-109.155-14.337-163.419-15.572c-20.772-0.472-41.517-0.666-62.281-1.059c-23.252-0.44-46.548-1.847-69.818-2.47
			c-58.344-1.56-116.214,1.097-171.604,10.344c-2.4,0.401-4.004,1.677-4.79,3.229c-5.308,0.002-10.575,0.302-15.801,0.799
			c-1.073,1.083-2.683,1.996-4.929,2.605c-14.006,3.8-26.345,9.702-40.374,13.408c-13.836,3.654-28.17,6.864-42.289,10.083
			c-14.125,3.221-27.787,7.763-42.558,9.761c-5.813,0.786-10.366,1.688-15.296,3.773c-2.266,0.957-4.479,1.822-6.746,2.585
			c0.729,0.223,1.505,0.386,2.328,0.472c15.226,1.588,30.43,3.375,45.628,5.22c3.479-0.037,6.962-0.08,10.461,0.084
			c8.588,0.401,17.153,1.843,25.758,1.947c9.975,0.121,19.427,0.855,29.234,2.915c9.225,1.938,18.339,4.191,27.713,5.604
			c0.122,0.018,0.233,0.045,0.354,0.065c5.029,0.559,10.058,1.132,15.079,1.747c24.688,3.024,49.89,6.415,74.075,11.752
			c10.49,2.315,20.851,5.119,31.269,7.725c-0.05,0.009-0.102,0.018-0.151,0.027c-12.623,2.174-25.185,3.783-38.208,4.97
			c-8.941,0.816-18.018,1.567-27.023,2.516c-17.72,4.237-34.461,10.186-48.048,18.614c1.432,1.067,3.398,1.884,5.868,2.225
			c35.992,4.965,72.098,9.338,107.903,15.357c35.207,5.919,69.243,15.174,103.022,24.839c34.111,9.76,68.247,19.453,102.166,29.595
			c33.725,10.086,67.382,20.312,101.49,29.641c29.453,8.057,59.271,15.297,89.506,21.324c5.136,1.023,9.938-2.097,10.316-5.292
			c0.396-3.359-2.755-5.874-7.015-7.125c4.848-5.658,6.224-12.204,3.931-19.417c-2.067-6.502-7.852-14.052-3.982-20.337
			c3.5-5.686,14.941-7.674,22.876-9.399c10.419-2.268,21.271-4.348,29.572-9.196c16.573-9.68,24.901-25.375,29.346-39.935
			C1301.145,61.106,1300.482,44.179,1294.487,28.25z"/>
	</g>
	<path fill="#588C3F" d="M1448.98,775.894c2.258-12.043,1.551-24.022,0.543-36.154c-2.029-24.445-6.5-48.64-11.182-72.69
		c-9.019-46.354-18.803-93.015-13.506-140.431c-1.76,0.547-3.604,0.927-5.504,1.102c-71.938,6.615-144.473,2.411-216.3,10.576
		c-2.604,0.296-5.204,0.596-7.803,0.924c-0.228,0.029-0.429,0.055-0.615,0.077c-0.325,0.055-0.851,0.139-1.649,0.262
		c-3.773,0.581-7.544,1.18-11.309,1.82c-7.519,1.281-15.021,2.65-22.502,4.129c-15.567,3.075-31.064,6.485-46.532,10.026
		c-30.875,7.069-61.672,14.595-92.816,20.412c-16.747,3.129-33.565,5.684-50.474,7.772c-2.242,0.277-4.483,0.563-6.724,0.854
		c-1.027,0.141-3.023,0.409-3.243,0.439c-3.811,0.538-7.617,1.089-11.42,1.671c-7.544,1.153-15.077,2.371-22.599,3.67
		c-25.838,4.461-51.543,9.634-77.273,14.664c28.022,9.737,58.071,12.223,87.064,17.949c17.563,3.471,34.688,7.914,51.945,12.652
		c2.592,0.712,5.181,1.364,7.773,1.966c-3.544,1.324-7.095,2.627-10.707,3.754c-7.943,2.478-16.668,3.472-24.886,4.679
		c-6.426,0.943-12.928,1.396-19.451,1.619c-18.778,3.14-37.843,6.088-56.782,8.009c-10.061,1.02-20.139,1.82-30.121,3.188
		c0.62,0.93,1.438,1.812,2.487,2.598c10.434,7.832,22.092,13.527,33.962,18.813c-22.979,4.202-45.883,8.319-68.319,15.44
		c-30.121,9.563-58.586,23.257-87.566,35.682c-57.83,24.795-117.191,46.042-177.489,64.002
		c-40.903,12.184-82.779,21.08-123.211,34.806c-32.103,10.896-63.334,24.439-94.428,38.075c-2.033-0.057-4.068-0.099-6.108-0.107
		c-4.532-0.02-7.186,2.875-7.971,6.279c-4.328,1.896-8.656,3.787-12.986,5.665c-4.254,1.845-5.178,7.997-3.049,11.63
		c2.547,4.351,7.378,4.894,11.629,3.05c7.272-3.152,14.554-6.277,21.843-9.384c31.159,1.308,61.656,8.119,91.987,15.19
		c33.942,7.913,68.003,13.892,102.337,19.804c17.159,2.955,34.963,6.728,52.433,6.501c16.716-0.216,33.074-5.072,49.046-9.509
		c34.076-9.465,68.398-14.65,103.641-17.198c35.099-2.537,70.304-3.418,105.292-7.393c35.441-4.025,70.789-9.856,106.586-8.536
		c36.203,1.334,72.089,7.033,107.968,11.662c35.601,4.592,71.329,6.186,107.067,9.22c67.5,5.729,134.883,13.335,202.479,4.479
		c20.962-2.744,44.83-7.153,59.354-24.044c7.713-8.968,11.053-20.093,11.769-31.741c0.45-7.344-1.107-14.747-2.206-21.978
		c-1.242-8.181-0.555-15.632,1.329-23.643C1443.327,797.373,1446.931,786.839,1448.98,775.894z"/>
</g>
</svg>
