<?xml version="1.0" encoding="utf-8"?>
<!-- Generator: Adobe Illustrator 16.0.0, SVG Export Plug-In . SVG Version: 6.00 Build 0)  -->
<!DOCTYPE svg PUBLIC "-//W3C//DTD SVG 1.1//EN" "http://www.w3.org/Graphics/SVG/1.1/DTD/svg11.dtd">
<svg version="1.1" xmlns="http://www.w3.org/2000/svg" xmlns:xlink="http://www.w3.org/1999/xlink" x="0px" y="0px" width="1024px"
	 height="768px" viewBox="0 0 1024 768" enable-background="new 0 0 1024 768" xml:space="preserve">
<g id="Layer_1">
	<rect fill="#B5C447" width="1024" height="768"/>
</g>
<g id="Layer_7">
	<path fill="#9B9D3A" d="M1017.17,43.239c-6.375-2.468-16.553-3.136-24.846-1.74C940.245,21.122,864.901,16.943,794.36,12.221
		c-18.915-1.265-37.789-2.641-56.373-4.489c-22.231-2.212-39.091-5.18-60.906-8.333c-49.133-7.104-99.69-12.619-150.544-17.516
		c-51.096-4.919-102.643-9.121-154.117-13.415c-51.042-4.257-102.564-2.905-153.383,2.944
		c-49.574,5.705-97.283,14.989-143.992,23.952C25.142,4.943-24.526,15.769-76.898,22.745
		c-52.622,7.008-106.658,11.786-160.002,17.593c-45.377,4.94-90.026,10.912-133.396,18.51
		c-77.148,13.516-151.844,32.366-203.604,60.21c-53.261,28.653-76.704,64.108-77.31,99.189
		c-0.49,28.443,14.617,57.932,48.552,82.604c-32.606,2.146-65.172,4.667-96.461,9.249c-41.254,6.041-75.651,16.589-107.11,29.045
		c-31.881,12.619-59.339,27.316-81.867,42.892c-44.571,30.814-70.616,68.818-45.237,103.177c24.493,33.152,90.6,58.15,168.296,70.01
		c18.369,2.803,37.322,4.875,56.719,6.287c21.894,1.596,44.131,1.822,66.263,2.711c27.877,1.119,55.573,2.824,83.699,3.064
		c27.804,0.236,55.631-1.986,82.662-4.934c50.804-5.543,98.844-15.873,146.896-24.635c50.571-9.217,101.521-18.063,152.903-26.434
		c51.445-8.381,103.372-16.227,155.748-23.479c26.317-3.641,52.363-7.287,78.097-11.654c21.205-3.604,42.188-7.436,63.191-11.242
		c1.403,0.092,2.809,0.174,4.217,0.244c43.902,2.229,87.564-3.857,127.563-11.484c21.132-4.029,41.738-8.484,62.258-13.035
		c8.847-1.959,17.686-3.924,26.578-5.848c4.199-0.906,8.418-1.797,12.65-2.676c2.036-0.422,4.088-0.834,6.137-1.246
		c1.059-0.215,2.122-0.424,3.186-0.631c0.312-0.059,0.702-0.133,1.218-0.23c49.164-9.229,94.156-25.285,138.253-38.256
		c19.24-5.658,39.941-15.965,52.098-24.464c9.803-6.856,11.831-17.068,7.118-24.415c-10.035-15.642-38.688-15.33-59.463-28.391
		c-2.541-1.598-4.881-3.242-7.105-4.919c-0.918-0.693-1.76-1.407-2.589-2.122c1.247,1.045-1.013-1.135-1.156-1.299
		c-0.678-0.769-1.195-1.563-1.701-2.354c-0.124-0.193-0.224-0.34-0.307-0.455c-0.006-0.029-0.013-0.054-0.021-0.083
		c-0.072-0.302,0-0.951,0.011-1.307c0.244-0.349,0.523-0.694,0.801-1.037c0.078-0.071,0.15-0.136,0.252-0.228
		c0.767-0.691-6.4-8.897-5.545-9.572c1.902-1.498,9.683-1.976,11.841-3.416c5.205-3.473,12.012-5.781,17.762-9.108
		c23.76-13.75,45.012-22.644,71.102-35.385c31.327-15.296,66.871-29.049,100.8-43.356c36.548-15.409,71.003-31.629,107.477-47.081
		c37.958-16.081,76.605-31.886,114.654-47.933c37.108-15.649,73.598-31.557,108.264-48.121
		C1025.882,52.693,1026.563,46.874,1017.17,43.239z"/>
	<path fill="#A8AF3F" d="M1017.17,29.739c-6.375-2.468-16.553-3.136-24.846-1.74C940.245,7.622,864.901,3.443,794.36-1.279
		c-18.915-1.265-37.789-2.641-56.373-4.489c-22.231-2.212-39.091-5.18-60.906-8.333c-49.133-7.104-99.69-12.619-150.544-17.516
		c-51.096-4.919-102.643-9.121-154.117-13.415c-51.042-4.257-102.564-2.905-153.383,2.944
		c-49.574,5.705-97.283,14.989-143.992,23.952C25.142-8.557-24.526,2.27-76.898,9.245c-52.622,7.008-106.658,11.786-160.002,17.593
		c-45.377,4.94-90.026,10.912-133.396,18.51c-77.148,13.516-151.844,32.366-203.604,60.21
		c-53.261,28.653-76.704,64.108-77.31,99.189c-0.49,28.443,14.617,57.932,48.552,82.604c-32.606,2.146-65.172,4.667-96.461,9.249
		c-41.254,6.041-75.651,16.589-107.11,29.045c-31.881,12.619-59.339,27.316-81.867,42.892
		c-44.571,30.813-70.616,68.817-45.237,103.177c24.493,33.153,90.6,58.151,168.296,70.01c18.369,2.804,37.322,4.875,56.719,6.288
		c21.894,1.596,44.131,1.822,66.263,2.71c27.877,1.119,55.573,2.825,83.699,3.065c27.804,0.236,55.631-1.986,82.662-4.935
		c50.804-5.543,98.844-15.872,146.896-24.634c50.571-9.218,101.521-18.063,152.903-26.434
		c51.445-8.381,103.372-16.227,155.748-23.479c26.317-3.641,52.363-7.286,78.097-11.654c21.205-3.603,42.188-7.436,63.191-11.242
		c1.403,0.093,2.809,0.174,4.217,0.245c43.902,2.228,87.564-3.858,127.563-11.484c21.132-4.029,41.738-8.484,62.258-13.035
		c8.847-1.96,17.686-3.924,26.578-5.848c4.199-0.906,8.418-1.798,12.65-2.677c2.036-0.421,4.088-0.834,6.137-1.245
		c1.059-0.215,2.122-0.424,3.186-0.631c0.312-0.06,0.702-0.133,1.218-0.23c49.164-9.229,95.817-20.306,139.915-33.275
		c19.24-5.658,38.326-11.824,50.483-20.323c9.803-6.856,10.641-14.704,5.928-22.051c-10.035-15.642-37.544-26.815-58.319-39.877
		c-2.541-1.598-4.881-3.242-7.105-4.919c-0.918-0.693-1.76-1.407-2.589-2.122c1.247,1.045-1.013-1.135-1.156-1.299
		c-0.678-0.769-1.195-1.563-1.701-2.354c-0.124-0.193-0.224-0.34-0.307-0.455c-0.006-0.029-0.013-0.054-0.021-0.083
		c-0.072-0.302,0-0.951,0.011-1.307c0.244-0.349,0.523-0.694,0.801-1.037c0.078-0.071,0.15-0.136,0.252-0.228
		c0.767-0.691,1.632-1.365,2.487-2.04c1.902-1.498,4.046-2.951,6.204-4.392c5.205-3.473,10.947-6.817,16.697-10.145
		c23.76-13.75,43.682-28.164,69.771-40.905c31.327-15.296,66.871-29.049,100.8-43.356c36.548-15.409,71.003-31.629,107.477-47.081
		c37.958-16.081,76.605-31.886,114.654-47.933c37.108-15.649,73.598-31.557,108.264-48.121
		C1025.882,39.193,1026.563,33.374,1017.17,29.739z"/>
</g>
<g id="Layer_6">
	<path fill="#6EAA44" d="M574.008,649.945c-1.859-18.093-18.693-28.714-33.631-36.063c-15.119-7.438-31.154-12.792-47.063-18.233
		c-11.95-4.088-23.342-10.158-34.579-15.869c-13.288-6.753-26.397-13.851-39.751-20.475c-28.25-14.014-58.211-23.313-87.769-34.08
		c-17.707-6.45-35.404-12.929-53.305-18.83c-9.007-2.97-17.988-5.855-27.267-7.832c-8.956-1.909-17.902-3.858-26.791-6.062
		c-16.458-4.079-31.605-8.564-45.613-17.244c-14.388-8.915-27.334-19.075-43.541-24.688c-4.26-1.476-8.827-0.131-12.159,2.677
		c-3.956-2.026-8.822-1.805-13.242,0.184c-8.047,3.62-21.819,7.44-32.629,9.61c-12.953,2.601-22.664,3.662-35.577,5.111
		c-25.762,2.891-51.958,5.125-76.829,12.86c-24.028,7.474-44.139,21.519-62.571,38.341c-18.68,17.048-34.821,37.157-48.113,58.64
		c-26.299,42.506-41.945,95.691-27.692,145.067c13.753,47.646,51.773,84.826,96.703,103.69c10.622,4.459,21.593,7.896,32.833,10.413
		c12.685,2.841,25.586,3.75,38.42,5.594c16.165,2.321,32.216,5.471,48.537,6.553c16.133,1.069,32.317-1.345,48.045-4.812
		c29.563-6.517,57.59-19.887,85.602-31.036c29.479-11.733,59.175-22.925,89.113-33.435c29.976-10.522,60.223-20.272,90.723-29.168
		c15.326-4.469,30.495-8.948,45.491-14.461c14.734-5.417,29.289-11.313,43.897-17.056c13.982-5.496,27.979-11.108,42.437-15.243
		c13.559-3.877,27.334-6.919,40.682-11.52C545.96,686.516,576.439,673.601,574.008,649.945z"/>
</g>
<g id="Layer_5">
	<g>
		<path opacity="0.3" d="M-301.486,507.065c1.183,0.58,2.372,1.09,3.558,1.639c20.025-5.404,40.215-10.309,60.347-14.918
			c33.475-7.664,67.144-14.793,100.367-23.201c15.743-3.984,31.44-8.137,46.895-12.852c7.31-2.236,14.601-4.514,21.813-6.959
			c2.796-1.049,5.583-2.111,8.357-3.207c42.409-16.901,83.159-37.218,124.139-56.413c42.375-19.841,61.008-55.297,103.07-75.605
			c83.828-40.469,98.724-37.163,183.333-76.47c41.191-19.14,226.666-155.082,268.443-173.304
			c18.061-7.874,88.175,9.144,103.022,1.548c2.441-1.251,4.939-2.369,7.482-3.365c23.031-13.172,46.566-25.603,70.434-37.808
			c6.492-5.849,14.172-10.724,22.648-14.449c10.555-6.913,21.6-13.168,33.414-18.123c5.928-5.793,12.9-10.706,20.959-14.71
			l7.201-2.556c5.496-2.263,10.732-4.921,16.182-7.274c0.252-0.108,0.502-0.205,0.752-0.311c9.65-6.421,19.363-12.773,29.219-18.964
			c8.418-6.732,16.76-13.528,24.893-20.501c9.604-8.227,19.08-16.574,28.047-25.297c4.271-4.151,8.512-8.328,12.596-12.61
			c0.154-0.172,0.289-0.328,0.459-0.52c2.227-2.521,4.463-4.933,6.732-7.242c-3.09-7.401-10.693-13.295-22.859-13.295
			c-8.197,0-14.338,2.684-18.422,6.699c-0.855,0.605-1.682,1.254-2.42,1.999c-17.48,17.581-34.072,35.771-50.777,53.857
			c-2.279-3.355-5.447-6.231-9.135-8.044c-12.969-6.388-26.379-1.615-34.676,7.64c-4.445,4.959-5.809,6.412-11.018,11.966
			c-3.461,3.689-6.957,7.353-10.445,11.022c-5.762-1.556-12.352-1.424-19.141,1.313C739.365-9.118,654.055,22.191,573.182,62.495
			c-83.33,41.529-167.557,81.787-252.672,120.67c-40.508,18.505-81.416,36.299-122.436,53.905
			c-37.303,13.468-72.664,30.552-109.48,44.981c-22.36,8.766-45.685,15.436-67.855,24.641c-24.298,10.088-47.6,21.852-70.722,33.701
			c-16.247,8.324-31.477,17.746-46.325,27.645c-28.921,13.445-57.919,26.761-87.246,39.593
			c-24.433,10.686-49.66,19.729-74.181,30.25c-23.462,10.073-46.3,23.509-55.398,45.128
			C-316.88,491.909-310.777,502.524-301.486,507.065z M-161.975,469.767c7.672-3.051,15.465-5.879,23.252-8.594
			c7.143-2.492,14.33-4.879,21.536-7.225c-15.317,6.785-31.384,13.361-47.816,18.459
			C-163.984,471.524-162.975,470.64-161.975,469.767z"/>
		<path fill="#59873E" d="M1131.34-184.63c-6.395-9.172-23.58-14.607-34.676-7.643c-9.357,5.872-18.918,11.506-28.328,17.316
			c-5.473,1.014-9.734,3.393-12.771,6.547c-3.828,2.751-6.42,6.454-7.678,10.521c-3.246,1.58-6.543,3.097-9.883,4.563
			c-3.721-0.679-7.588-0.567-11.291,0.676c-20.055,6.75-37.922,13.958-55.033,25.135c-1.887,1.233-3.363,2.728-4.504,4.379
			c-1.326,0.716-2.66,1.422-3.963,2.166c-35.873,20.587-73.258,37.631-113.07,52.24C765.135-37.541,682.588-1.083,599.531,33.575
			c-73.01,30.465-137.781,72.916-203.042,113.468c-65.691,40.821-132.251,77.324-207.682,104.127
			c-39.592,14.068-78.398,29.627-117.758,44.139c-32.414,11.955-65.702,21.771-98.911,31.986
			c-58.832,18.102-126.535,38.635-164.971,82.685c-8.19,9.389-1.897,23.74,9.092,29.15c12.854,6.328,26.523,1.701,34.675-7.646
			c16.824-19.277,46.902-31.434,72.11-41.6c29.201-11.779,59.902-20.757,90.349-29.935c40.442-12.189,79.827-26.361,118.941-41.27
			c40.879-15.578,82.697-29.641,123.247-45.77c72.872-28.986,137.266-70.881,201.718-111.033
			c32.686-20.364,65.64-40.428,99.917-58.875c35.322-19.011,72.494-34.31,110.08-49.804c77.209-31.83,154.096-63.704,232.125-94.088
			c36.168-14.084,67.893-32.615,101.707-49.981c33.857-17.389,71.385-27.419,102.861-48.288c3.605-2.389,5.771-5.689,6.764-9.301
			c3.846-2.325,7.697-4.644,11.492-7.023C1133.295-162.416,1138.914-173.761,1131.34-184.63z"/>
		<path fill="#6EAA44" d="M1134.72-204.01c-13.146-11.051-30.859-8.841-44.279,0c-20.002,13.178-42.674,23.364-65.84,32.548
			c-3.33-2.436-7.305-4.211-11.857-4.917c-31.637-4.922-62.178-3.988-92.207-0.012c-4.592-7.903-10.703-15.198-18.197-21.496
			c-12.488-10.494-28.24-17.804-45.225-21.243c-22.803-26.576-64.625-42.102-103.154-31.323
			c-16.398,4.588-33.037,7.981-49.977,10.449c-71.18,5.849-142.73-1.9-214.063,1.428c-40.996,1.916-81.661,4.88-122.781,5.528
			c-40.926,0.647-81.861,0.672-122.779,1.843c-42.242,1.21-78.855,23.818-91.079,56.322c-15.576-2.324-31.238-4.179-46.931-5.444
			c-36.539-23.231-90.157-21.506-123.811,5.793c-7.424,1.483-14.794,3.156-22.135,4.933c-18.183-6.697-38.738-8.768-58.604-10.612
			c-2.104-0.384-4.191-0.839-6.254-1.444c-47.323-13.813-106.703,15.341-117.375,56.016
			c-24.192,92.203-8.834,187.544,16.849,278.786c-6.141,30.264-10.572,60.66-8.564,91.438c0.934,14.352,5.562,27.98,13.434,39.836
			c-2.539,18.289-0.558,35.244,11.288,52.24c10.43,14.969,25.415,25.58,42.947,32.084c-15.78,7.121-31.347,14.576-46.519,22.658
			c-34.003,18.105-2.617,63.666,31.602,45.447c38.164-20.322,78.68-37.023,119.264-53.598
			c41.161-16.809,81.037-34.83,120.697-53.982c38.925-18.795,79.182-35.648,120.146-51.074
			c39.516-14.881,81.449-25.184,120.406-40.958c68.757-27.842,118.175-78.865,180.171-114.858
			c35.551-20.637,74.355-38.229,111.828-56.267c40.072-19.289,80.963-37.421,123.281-52.998
			c34.344-12.642,69.609-22.909,103.055-37.339c31.574-13.62,61.172-30.197,90.117-47.396c31.096-18.481,66.539-31.06,101.111-44.13
			c37.486-14.172,72.982-29.662,105.434-51.043C1148.177-175.659,1145.698-194.785,1134.72-204.01z"/>
	</g>
</g>
<g id="Layer_4">
	<path opacity="0.3" d="M-20.202,127.673c0.513,0.123,1.028,0.232,1.542,0.348c8.679-1.147,17.43-2.188,26.156-3.167
		c14.508-1.626,29.101-3.141,43.5-4.926c6.823-0.846,13.627-1.727,20.326-2.729c3.168-0.474,6.328-0.958,9.454-1.477
		c1.212-0.223,2.42-0.449,3.622-0.68c18.381-3.588,36.043-7.902,53.806-11.977c18.366-4.213,36.668-8.472,54.898-12.784
		c36.333-8.592,72.134-17.563,108.806-25.908c17.854-4.063,35.787-8.071,53.895-11.94c7.827-1.672,15.892-3.229,23.915-4.822
		c1.457-0.378,2.98-0.722,4.574-1.021c0.345-0.094,0.691-0.185,1.036-0.279c1.948-0.535,4.102-0.958,6.374-1.276
		c1.878-0.687,5.257-1.871,6.424-2.327c2.081-0.814,4.186-1.623,6.324-2.417c0.307-0.122,0.627-0.237,0.951-0.349
		c5.622-2.066,11.504-4.017,17.938-5.629c1.059-0.266,2.142-0.503,3.243-0.714c9.983-2.796,20.183-5.436,30.527-8.027
		c2.814-1.242,6.144-2.277,9.817-3.067c4.575-1.468,9.362-2.796,14.482-3.848c2.57-1.23,5.592-2.273,9.084-3.123l3.121-0.542
		c2.384-0.48,4.652-1.045,7.014-1.544c0.109-0.023,0.218-0.043,0.326-0.066c4.183-1.363,8.393-2.712,12.665-4.026
		c3.648-1.429,7.264-2.872,10.789-4.353c4.162-1.747,8.27-3.519,12.156-5.371c1.851-0.881,3.688-1.768,5.459-2.677
		c0.066-0.037,0.125-0.07,0.199-0.11c0.965-0.535,1.934-1.047,2.918-1.538c-1.34-1.571-4.635-2.823-9.908-2.823
		c-3.553,0-6.214,0.57-7.984,1.422c-0.371,0.128-0.729,0.266-1.049,0.424c-7.576,3.732-14.768,7.594-22.008,11.434
		c-0.988-0.712-2.36-1.323-3.958-1.708C494.608,2.7,488.795,3.713,485.2,5.678c-1.927,1.053-2.518,1.361-4.775,2.541
		c-1.5,0.783-3.016,1.561-4.528,2.34c-2.497-0.33-5.354-0.302-8.296,0.279c-36.675,7.247-73.65,13.894-108.702,22.451
		c-36.118,8.817-72.623,17.364-109.514,25.619c-17.557,3.929-35.287,7.707-53.066,11.444c-16.169,2.859-31.494,6.486-47.452,9.55
		c-9.691,1.861-19.801,3.277-29.409,5.231c-10.531,2.142-20.631,4.639-30.652,7.155c-7.042,1.768-13.643,3.768-20.079,5.87
		c-12.535,2.854-25.104,5.682-37.815,8.405c-10.589,2.269-21.522,4.189-32.151,6.423c-10.169,2.138-20.067,4.991-24.011,9.581
		C-26.874,124.456-24.229,126.709-20.202,127.673z M40.266,119.753c3.325-0.647,6.703-1.248,10.078-1.824
		c3.096-0.529,6.211-1.036,9.334-1.534c-6.639,1.44-13.603,2.836-20.724,3.919C39.395,120.127,39.832,119.94,40.266,119.753z"/>
	<path opacity="0.3" d="M247.698,426.366c15.143-4.915,28.987-12.953,43.932-18.376c15.133-5.492,31.197-8.224,46.129-14.301
		c7.479-3.044,14.497-7.289,21.726-10.876c6.91-3.429,13.865-6.767,20.78-10.188c12.87-6.366,25.584-13.037,37.539-20.993
		c-0.632-1.587-1.606-3.096-2.964-4.453c-4.896-4.896-14.308-5.599-19.092,0c-0.288,0.337-0.582,0.658-0.883,0.972
		c-0.041-0.043-1.84,1.463-2.396,1.802c-1.305,0.797-2.688,1.462-4.066,2.122c-0.312,0.139-0.546,0.244-0.726,0.325
		c-0.601,0.238-1.203,0.476-1.809,0.701c-6.512,2.474-13.289,4.246-20.009,6.047c-16.438,4.404-32.257,10.414-47.872,17.157
		c-35.56,15.354-71.047,31.82-109.42,38.971c-7.24,1.349-11.254,9.971-9.429,16.606c2.073,7.537,9.379,10.775,16.606,9.429
		c8.425-1.57,16.727-3.585,24.932-5.93C240.902,431.566,243.058,427.873,247.698,426.366z"/>
	<path opacity="0.3" d="M-19.986,531.214c1.481-1.012,3.398-1.692,5.77-1.828c27.173-1.563,54.495-3.467,81.374-7.438
		c24.279-3.587,48.648-7.401,71.865-14.686c24.091-7.559,46.351-18.862,70.927-25.397c25.737-6.843,51.167-13.435,76.037-22.435
		c1.288-0.465,2.637-0.6,3.958-0.478c0.082-5.842-4.444-11.717-13.399-11.442c-3.96,0.122-6.972,1.397-9.074,3.279
		c-47.718,9.735-92.512,27.397-139.618,38.88c-11.655,2.841-23.444,5.271-35.094,8.159c-12.219,3.03-24.448,6.02-36.894,8.297
		c-21.623,3.96-46.009,1.955-67.213,10.021c-6.725,2.559-11.326,7.802-8.996,14.249C-20.244,530.671-20.118,530.942-19.986,531.214z
		"/>
	<path opacity="0.3" d="M616.951,553.834c-12.734-19.738-38.272-23.029-59.581-26.331c-10.517-1.63-21.151-3.161-31.287-6.512
		c-0.615-0.203-1.226-0.423-1.833-0.649c0.198,0.055-1.822-0.787-2.364-1.056c-1-0.496-1.963-1.061-2.916-1.639
		c-0.318-0.192-0.983-0.678-1.467-1.03c-0.456-0.417-0.902-0.846-1.337-1.286c-0.134-0.136-0.241-0.242-0.343-0.343
		c-0.237-0.349-0.457-0.708-0.665-1.075c-0.205-0.483-0.624-1.448-0.768-1.953c-0.16-0.563-0.349-1.095-0.555-1.605
		c-0.734-2.573-2.172-4.906-4.292-6.594c-0.285,0.065-0.573,0.116-0.864,0.159c-1.039,0.854-2.252,1.499-3.632,1.793
		c-4.568,0.973-8.753,0.544-13.264,0.398c7.945,15.069,22.352,24.714,37.706,31.654c12.013,5.43,26.328,10.253,37.249,18.563
		c3.164,0.62,6.314,1.305,9.439,2.116c2.501,0.648,4.966,1.423,7.398,2.289c0.43,0.153,0.735,0.259,0.958,0.334
		c0.022,0.01,0.035,0.017,0.061,0.027c1.071,0.475,2.112,1.015,3.145,1.567c0.997,0.533,1.952,1.138,2.897,1.756
		c0.114,0.074,0.198,0.129,0.293,0.189c0.059,0.054,0.123,0.111,0.212,0.188c0.778,0.668,1.486,1.411,2.179,2.166
		c0.087,0.14,0.191,0.305,0.317,0.5c3.981,6.171,11.911,8.686,18.471,4.844C618.243,568.71,620.944,560.023,616.951,553.834z"/>
	<path opacity="0.3" d="M509.175,587.948c0.63-0.113,1.294-0.179,2.001-0.179c7.692,0,10.853,7.019,9.49,12.795
		c5.394,5.198,11.208,9.949,17.237,14.202c1.259-0.625,2.42-1.43,3.407-2.417c5.438-5.438,4.874-13.588,0-19.092
		c-9.293-10.495-19.633-27.504-33.447-34.006c-2.363,1.541-5.36,2.28-8.016,1.595c-1.792,0.124-3.599,0.125-5.338,0.129
		c-0.34,0.001-0.674-0.029-1.006-0.063C497.201,570.629,502.618,579.689,509.175,587.948z"/>
	<path opacity="0.3" d="M693.195,81.944c-35.429-9.986-72.777-13.27-109.472-11.267c-37.05,2.023-73.865-3.892-110.692-6.855
		c-0.552,0.568-1.156,1.1-1.818,1.574c-2.551,1.828-5.081,3.686-7.615,5.537c0.15,0.217,0.303,0.43,0.445,0.666
		c0.29,0.483,0.647,0.969,1.116,1.453c9.852,1.463,19.684,3.19,29.614,3.979c10.271,0.816,20.46,0.518,30.746,0.66
		c10.164,0.14,19.679,1.72,29.459,4.431c9.909,2.746,19.829,4.572,30.121,5.024c10.081,0.443,20.137-0.277,30.219-0.167
		c10.657,0.116,21.154,1.186,31.77,1.898c10.604,0.711,21.127,0.338,31.636,2.25c5.439,0.989,8.443,7.501,7.078,12.465
		c-0.412,1.496-1.102,2.757-1.984,3.795c0.733,0.2,1.468,0.387,2.201,0.593C702.81,112.712,709.928,86.66,693.195,81.944z"/>
	<path opacity="0.3" d="M622.811,137.994c12.289,1.971,23.984,5.979,35.959,9.264c13.229,3.63,26.254,5.535,39.926,6.474
		c14.001,0.962,28.115,1.659,41.928,4.305c15.794,3.025,31.2,8.182,46.812,12.033c15.284,3.77,30.372,6.347,45.952,8.421
		c8.244,1.097,16.619,2.369,24.426,5.366c6.607,2.537,13.102,5.332,19.796,7.649c13.652,4.726,27.6,7.795,41.724,10.72
		c14.749,3.054,29.719,5.618,44.09,10.216c12.923,4.135,25.78,7.835,39.011,10.888c26.137,6.03,53.174,12.203,74.903,28.839
		c0.401,0.307,0.778,0.636,1.143,0.975c3.338-5.26,2.298-11.946-1.875-16.747c-14.774-16.996-36.469-26.603-57.401-33.563
		c-21.512-7.153-43.946-11.223-66.219-15.182c-25.749-4.576-50.686-10.989-75.699-18.636c-28.555-8.729-57.136-16.993-87.042-19.362
		c-14.305-1.133-28.767-0.528-43.108-0.907c-15.119-0.4-30.227-1.25-45.284-2.689c-27.337-2.612-58.076-8.127-82.881-18.634
		c-6.134-2.598-12.952-2.199-17.211,3.048C607.092,135.901,615.403,136.806,622.811,137.994z"/>
</g>
<g id="Layer_3">
	<path fill="#4A7336" d="M543.447-9.972c-2.771-1.947-10.22-3.101-15.029-1.623c-4.056,1.247-8.199,2.443-12.277,3.676
		c-2.372,0.215-4.22,0.72-5.536,1.39c-1.66,0.584-2.782,1.37-3.327,2.233c-1.408,0.335-2.836,0.658-4.284,0.969
		c-1.613-0.144-3.29-0.121-4.894,0.144c-8.692,1.433-16.436,2.963-23.853,5.336c-0.818,0.262-1.457,0.579-1.953,0.93
		c-0.574,0.152-1.152,0.302-1.717,0.46c-15.548,4.371-31.752,7.989-49.007,11.091c-36.844,6.622-72.621,14.362-108.62,21.72
		c-31.643,6.468-59.717,15.48-88.003,24.09c-28.472,8.667-57.321,16.417-90.013,22.107c-17.161,2.987-33.98,6.29-51.04,9.371
		c-14.049,2.538-28.477,4.622-42.87,6.791c-25.499,3.843-54.842,8.202-71.502,17.555c-3.55,1.993-0.822,5.04,3.941,6.188
		c5.571,1.344,11.496,0.361,15.029-1.623c7.292-4.093,20.328-6.674,31.253-8.833c12.656-2.5,25.962-4.407,39.159-6.355
		c17.528-2.588,34.599-5.596,51.552-8.761c17.717-3.308,35.842-6.293,53.417-9.717c31.584-6.154,59.495-15.049,87.429-23.573
		c14.167-4.323,28.451-8.583,43.307-12.5c15.31-4.036,31.421-7.284,47.711-10.574c33.463-6.758,66.789-13.525,100.608-19.976
		c15.675-2.99,29.425-6.924,44.082-10.611c14.674-3.692,30.94-5.821,44.583-10.252c1.563-0.507,2.501-1.208,2.932-1.975
		c1.667-0.494,3.336-0.986,4.98-1.491C544.295-5.255,546.73-7.664,543.447-9.972z"/>
	<path fill="#4A7336" d="M696.963,71.606c-9.105-1.533-17.984-4.041-26.972-6.118c-9.382-2.168-18.899-3.248-28.513-3.609
		c-9.753-0.367-19.569-0.724-29.327-0.802c-10.55-0.085-21.086,0.782-31.636,0.833c-9.641,0.047-19.277-0.525-28.917-0.626
		c-9.469-0.099-18.929,0.577-28.4,0.603c-17.453,0.047-34.878-0.367-52.144,2.197c-0.43,0.299-0.866,0.591-1.299,0.887
		c-2.829,2.985-5.774,5.856-8.778,8.665c12.86,1.607,25.86,2.134,38.857,1.882c22.205-0.431,44.451,2.604,66.604,1.376
		c11.236-0.623,23.867-0.748,35.061,0.665c5.185,0.654,9.714,0.034,14.785,1.329c5.006,1.279,9.094-0.232,14.289,0
		c5.668,0.252,11.326,1.156,16.947,0.997c4.805-0.136,8.794-0.365,13.292,1.329c4.437,1.672,9.36,0.813,13.867,2.86
		c5.888,1.453,11.769,2.916,17.763,3.925c4.564,0.769,9.135-1.133,10.456-5.937C704.032,77.943,701.537,72.376,696.963,71.606z"/>
	<path fill="#4A7336" d="M787.363,157.174c10.432,2.704,20.648,5.89,30.946,9.05c9.759,2.994,19.638,4.389,29.575,6.553
		c16.591,3.613,31.365,12.715,47.98,16.091c12.247,1.203,24.47,1.88,36.647,4.292c10.892,2.157,21.614,5.079,32.141,8.608
		c11.124,3.729,21.837,7.887,33.318,10.441c10.186,2.266,19.351,6.475,28.667,10.765c1.808,0.638,3.62,1.264,5.451,1.837
		c4.494,1.407,8.582,3.583,12.131,6.335c2.113-1.207,3.928-2.888,5.084-4.862c4.017-6.857,1.068-14.115-4.844-18.47
		c-21.035-15.499-47.498-22.459-72.723-27.598c-10.563-2.151-21.159-4.138-31.764-6.084c-11.309-2.889-23.02-4.688-34.373-6.913
		c-14.958-2.931-29.581-7.089-44.476-10.254c-14.933-3.173-30.05-5.379-44.933-8.804c-14.656-3.373-28.369-9.512-42.997-12.941
		c-13.979-3.277-28.399-4.567-42.688-5.612c-15.809-1.156-31.592-2.437-47.382-3.817c-26.019-2.275-52.035-3.763-77.991-0.947
		c-0.096,0.18-0.199,0.354-0.319,0.512c-1.054,1.39-2.119,2.785-3.316,4.058c9.328,2.318,18.335,5.81,27.759,7.792
		c9.195,1.935,18.47,3.377,27.766,4.703"/>
	<path fill="#4A7336" d="M410.948,358.116c4.995-3.592,9.887-7.276,14.636-11.229c-0.155-0.587-0.258-1.192-0.312-1.875
		c-0.521-0.09-1.041-0.184-1.564-0.26c-5.032-0.731-10.098-0.837-15.074-1.982c-0.567-0.13-1.083-0.309-1.549-0.527
		c-1.769-0.199-3.515-0.556-5.061-1.324c-1.549-0.07-3.014-0.287-4.479-0.695c-0.325-0.071-0.647-0.146-0.966-0.227
		c0.008-0.02,0.016-0.039,0.024-0.058c-0.046-0.011-0.088-0.029-0.134-0.042c-2.303,1.44-4.596,2.979-6.953,4.522
		c-7.443,4.874-17.69,6.058-27.096,8.048c-21.593,4.569-43.935,7.638-64.781,15.072c-19.753,7.044-37.61,16.739-57.875,21.826
		c-21.726,5.454-44.36,9.547-66.823,8.762c-7.358-0.258-13.5,6.336-13.5,13.5c0,7.554,6.147,13.243,13.5,13.5
		c23.155,0.81,46.034-3.644,68.56-8.513c20.5-4.431,38.824-14.203,58.112-21.192c9.275-3.361,18.691-5.836,28.178-7.984
		C354.209,374.455,382.325,365.04,410.948,358.116z"/>
	<path fill="#4A7336" d="M281.235,447.807c-0.348-0.232-0.699-0.452-1.057-0.649c-2.719-1.502-5.67-3.023-7.984-5.179
		c-2.829-0.071-5.791-0.848-9.069-1.65c-5.792-1.417-11.528-2.697-17.506-3.054c-11.383-0.68-23.653,4.073-34.103,8.041
		c-22.72,8.628-44.556,18.957-68.256,24.82c-12.256,3.032-24.93,4.361-37.332,6.725c-12.326,2.348-24.57,5.114-36.751,8.12
		c-25.047,6.181-49.761,13.642-74.334,21.473c-6.677,2.128-11.005,8.648-9.655,15.583c5.801-1.124,11.664-1.906,17.564-2.21
		c8.6-0.443,17.188,0.503,25.77,0.784c0.656-0.483,1.427-0.875,2.337-1.122c7.996-2.176,16.231-3.146,24.436-4.175
		c1.199-0.15,2.244,0.005,3.136,0.379c5.354-1.456,10.72-2.868,16.103-4.223c4.472-1.126,8.958-2.191,13.451-3.229
		c3.807-1.087,7.536-2.352,11.066-4.043c1.573-0.754,3.105-0.907,4.502-0.645c5.919-2.927,12.756-3.431,19.413-3.95
		c10.374-0.811,20.476-2.788,30.67-4.82c2.406-0.479,4.813-0.955,7.221-1.421c19.259-5.745,37.592-14.092,56.316-21.423
		c5.276-2.065,10.616-3.944,16.058-5.521c2.538-0.735,4.679-1.286,6.74-1.645c5.232-1.992,10.553-3.741,15.969-5.111
		c8.976-2.27,17.559-5.766,26.361-8.59C281.638,450.122,281.294,448.982,281.235,447.807z"/>
	<path fill="#4A7336" d="M630.784,525.578c-21.106,0.805-42.127-6.44-63.308-9.845c-19.991-3.213-41.352-3.299-60.057-10.993
		c-1.867,0.53-3.758,0.771-5.767,0.722c-1.023,0.224-2.044,0.341-3.089,0.349c-0.625,0.185-1.282,0.289-1.961,0.289h-0.159
		c-0.389,0.053-0.776,0.078-1.161,0.088c-1.421,0.437-2.844,0.858-4.27,1.271c4.229,3.941,8.622,7.616,14.31,9.744
		c11.633,4.352,22.869,10.595,35.133,12.986c6.646,1.295,13.222,2.61,19.78,4.312c5.887,1.526,11.279,3.896,16.996,5.882
		c6.553,2.276,12.97,3.444,19.845,4.199c6.132,0.673,11.549,2.21,17.479,3.728c2.501,0.64,3.996,2.189,4.655,4.033
		c3.849,0.271,7.705,0.383,11.573,0.235c7.352-0.28,13.5-5.929,13.5-13.5C644.284,531.932,638.142,525.298,630.784,525.578z"/>
	<path fill="#4A7336" d="M533.468,584.435c-8.96-7.022-17.511-14.546-26.471-21.568c-0.345-0.271-0.702-0.516-1.059-0.761
		c-1.862,0.271-3.67,0.199-5.605-0.061c-1.104-0.147-2.45-0.422-3.594-0.45c-0.03,0.002-0.049,0.002-0.078,0.004
		c3.25,2.055,5.682,4.805,7.801,8.032c2.325,3.541,4.792,5.99,8.36,8.324c3.016,1.973,5.803,5.442,9.327,6.463
		c3.903,1.13,7.192,2.384,10.246,5.147c6.8,6.157-3.271,16.166-10.039,10.039c-1.563-1.415-4.02-1.855-6.293-2.542
		c1.388,2.349,1.052,5.229-0.323,7.438c5.583,3.688,12.492,4.262,17.728-0.974C538.199,598.795,539.271,588.982,533.468,584.435z"/>
</g>
<g id="Layer_2">
	<path fill="#588C3F" d="M535.955-15.291c-5.698-2.346-13.375-1.877-19.191,0c-8.669,2.798-18.496,4.96-28.538,6.91
		c-1.443-0.517-3.166-0.894-5.139-1.044c-13.711-1.045-26.949-0.847-39.964-0.002c-1.991-1.678-4.64-3.227-7.888-4.563
		c-5.413-2.228-12.24-3.78-19.602-4.51c-9.882-5.642-28.009-8.938-44.708-6.65c-7.107,0.974-14.319,1.694-21.661,2.218
		c-30.851,1.242-61.863-0.403-92.779,0.303c-17.768,0.407-35.394,1.036-53.215,1.174c-17.739,0.137-35.481,0.143-53.215,0.391
		c-18.31,0.257-34.179,5.057-39.476,11.958c-6.751-0.493-13.539-0.887-20.34-1.156c-15.837-4.932-39.077-4.566-53.662,1.23
		c-3.218,0.315-6.413,0.67-9.594,1.047c-7.881-1.422-16.79-1.861-25.401-2.253c-0.912-0.082-1.815-0.178-2.711-0.307
		c-20.51-2.933-46.247,3.257-50.872,11.893c-10.485,19.575-3.829,39.817,7.303,59.188c-2.662,6.425-4.582,12.878-3.712,19.413
		c0.405,3.047,2.411,5.94,5.822,8.458c-1.1,3.882-0.242,7.482,4.893,11.09c4.521,3.178,11.015,5.431,18.614,6.812
		c-6.839,1.512-13.586,3.095-20.162,4.81c-14.738,3.844-1.134,13.517,13.697,9.648c16.542-4.314,34.102-7.86,51.691-11.378
		c17.84-3.569,35.123-7.394,52.313-11.46c16.872-3.991,34.319-7.569,52.074-10.844c17.127-3.159,35.302-5.347,52.187-8.696
		c29.801-5.911,51.22-16.744,78.09-24.385c15.408-4.381,32.227-8.116,48.469-11.946c17.368-4.095,35.091-7.945,53.433-11.252
		c14.886-2.684,30.169-4.864,44.667-7.927c13.686-2.892,26.513-6.411,39.058-10.063c13.478-3.924,28.841-6.594,43.825-9.369
		c16.247-3.009,31.632-6.297,45.697-10.837C541.787-9.272,540.713-13.333,535.955-15.291z"/>
	<path fill="#588C3F" d="M423.515,343.958c-0.111-0.054-0.217-0.123-0.328-0.18c-15.656-2.601-31.454-4.296-47.076-7.108
		c-7.966-1.434-11.91-2.395-20.406-2.796c-8.019-0.379-16.034-0.17-24.038-0.92c-16.429-1.541-32.742-4.519-49.014-7.2
		c-15.873-2.616-31.634-5.84-47.328-9.368c-15.76-3.543-31.462-7.332-47.2-10.972c-15.423-3.567-31-6.477-46.389-10.167
		c-14.882-3.569-29.657-7.746-44.737-10.429c-7.36-1.31-13.574-2.121-21.763-2.349c-7.53-0.21-15.058-0.06-22.581,0.307
		c-15.932,0.775-31.889,2.269-47.854,1.888c-10.968-0.262-21.557-1.967-32.151-4.005c3.71,34.196-6.264,69.299-10.619,102.977
		c-2.712,20.973-2.206,41.635,0.695,62.558c2.79,20.122,7.143,39.985,10.147,60.072c-2.709,0.621-5.407,1.291-8.078,2.07
		c-5.055,1.475-6.633,6.039-5.741,10.036c55.377-9.792,111.334-16.247,166.418-27.694c14.396-2.991,28.711-6.318,42.926-10.075
		c12.567-3.32,23.106-8.074,34.167-12.791c13.031-5.558,26.353-11.527,40.419-13.911c13.137-2.226,26.216-2.583,39.481-2.072
		c-0.09-2.249-1.074-4.537-2.538-6.013c-0.217-0.219-0.439-0.428-0.658-0.643c-1.901-1.047-3.802-2.098-5.708-3.142
		c-8.368-4.587-16.78-8.887-25.853-11.924c-8.932-2.989-18.055-5.302-27.168-7.659c-1.036-0.268-1.817-0.764-2.38-1.391
		c-14.334-2-29.371-3.368-43.129-8.093c1.781-0.465,3.584-0.855,5.342-1.216c8.385-1.722,16.975-2.243,25.475-3.118
		c9.958-1.024,19.809-2.938,29.72-4.325c12.292-1.72,24.568-3.432,36.624-6.446c12.283-3.071,23.957-8.415,35.82-12.781
		c0.129-0.048,0.259-0.09,0.388-0.138c14.473-8.949,31.597-13.55,47.922-18.483c12.317-3.722,24.1-8.345,36.752-10.969
		c6.927-1.437,13.904-2.691,20.773-4.39c3.283-0.812,7.23-1.927,10.578-3.02C424.476,346.713,424.206,345.308,423.515,343.958z"/>
	<path fill="#588C3F" d="M1116.544-7.973c-6.742-19.333-18.391-36.634-35.702-47.914c-17.968-11.706-39.245-17.95-60.254-21.288
		c-48.009-7.626-97.273-1.79-145.016,5.007c-18.276,2.602-36.498,5.563-54.759,8.267c-20.45,3.028-41.038,4.801-61.521,7.594
		c-51.357,7.003-101.858,19.434-149.497,40.077c-2.065,0.895-3.339,2.808-3.866,4.953c-4.658,0.825-9.249,2.032-13.782,3.492
		c-0.829,1.579-2.146,3.018-4.052,4.16c-11.894,7.126-22.105,16.736-34.03,23.743c-11.76,6.909-24.001,13.317-36.055,19.704
		c-12.06,6.39-23.574,14.431-36.325,19.323c-5.02,1.926-8.92,3.809-13.029,7.291c-1.888,1.6-3.742,3.071-5.649,4.417
		c0.662,0.179,1.36,0.271,2.091,0.255c13.526-0.288,27.053-0.312,40.581-0.261c3.049-0.588,6.101-1.182,9.188-1.511
		c7.577-0.807,15.243-0.253,22.805-1.45c8.764-1.388,17.134-1.894,25.955-0.727c8.297,1.098,16.528,2.625,24.9,3.015
		c0.109,0.005,0.21,0.023,0.317,0.03c4.472-0.051,8.942-0.082,13.413-0.058c21.979,0.12,44.444,0.638,66.223,3.853
		c9.446,1.395,18.829,3.445,28.241,5.231c-0.043,0.02-0.087,0.039-0.13,0.058c-10.85,4.792-21.704,8.835-33.008,12.403
		c-7.762,2.449-15.646,4.834-23.45,7.468c-15.106,8.271-29.177,18.623-40.221,31.721c1.367,1.171,3.18,1.931,5.381,1.993
		c32.101,0.9,64.236,1.01,96.281,3.314c31.51,2.266,62.34,9.065,92.988,16.438c30.947,7.445,61.912,14.799,92.729,22.774
		c30.644,7.93,61.242,16.053,92.144,22.938c26.684,5.946,53.602,10.769,80.76,13.946c4.612,0.54,8.5-4.275,8.5-8.5
		c0-4.442-3.029-7.236-6.897-8.206c3.664-8.13,4.189-16.882,1.426-25.935c-2.492-8.161-8.354-17.112-5.614-25.908
		c2.479-7.959,12.312-12.324,19.094-15.804c8.905-4.57,18.21-8.965,24.989-16.575c13.534-15.192,19.205-36.955,21.588-56.633
		C1125.809,33.851,1123.465,11.875,1116.544-7.973z"/>
	<path fill="#588C3F" d="M1091.648,678.532c2.257-12.043,1.55-24.023,0.543-36.155c-2.03-24.445-6.501-48.639-11.182-72.69
		c-9.019-46.354-18.803-93.015-13.506-140.431c-1.76,0.547-3.603,0.927-5.504,1.102c-71.937,6.615-144.473,2.411-216.3,10.576
		c-2.603,0.296-5.204,0.596-7.802,0.924c-0.228,0.029-0.429,0.054-0.616,0.077c-0.325,0.055-0.85,0.139-1.649,0.262
		c-3.773,0.581-7.544,1.179-11.309,1.82c-7.518,1.281-15.02,2.65-22.502,4.129c-15.567,3.075-31.064,6.485-46.532,10.026
		c-30.875,7.069-61.672,14.595-92.816,20.412c-16.747,3.129-33.566,5.684-50.474,7.773c-2.242,0.277-4.483,0.562-6.724,0.854
		c-1.027,0.141-3.023,0.409-3.243,0.44c-3.81,0.538-7.617,1.088-11.42,1.67c-7.544,1.154-15.077,2.372-22.598,3.67
		c-25.838,4.461-51.543,9.634-77.274,14.664c28.023,9.738,58.072,12.223,87.065,17.95c17.563,3.47,34.687,7.914,51.945,12.652
		c2.592,0.712,5.181,1.364,7.773,1.966c-3.543,1.324-7.094,2.627-10.707,3.754c-7.943,2.477-16.668,3.471-24.885,4.678
		c-6.426,0.944-12.928,1.396-19.452,1.62c-18.778,3.139-37.842,6.088-56.782,8.008c-10.06,1.02-20.137,1.821-30.121,3.188
		c0.62,0.93,1.438,1.811,2.487,2.598c10.435,7.832,22.092,13.527,33.962,18.812c-22.979,4.202-45.882,8.319-68.32,15.441
		c-30.121,9.562-58.585,23.256-87.566,35.681c-57.831,24.795-117.192,46.042-177.49,64.002
		c-40.904,12.184-82.779,21.08-123.211,34.806c-32.102,10.896-63.334,24.439-94.427,38.075c-2.034-0.057-4.069-0.099-6.109-0.107
		c-4.532-0.02-7.185,2.875-7.97,6.279c-4.329,1.896-8.657,3.787-12.987,5.665c-4.254,1.845-5.178,7.997-3.049,11.63
		c2.547,4.35,7.378,4.893,11.629,3.05c7.273-3.153,14.554-6.278,21.843-9.384c31.159,1.307,61.656,8.119,91.987,15.19
		c33.943,7.913,68.003,13.892,102.337,19.804c17.159,2.955,34.962,6.727,52.433,6.501c16.716-0.216,33.074-5.072,49.046-9.509
		c34.076-9.465,68.398-14.65,103.64-17.198c35.099-2.537,70.304-3.418,105.292-7.393c35.442-4.025,70.79-9.856,106.585-8.536
		c36.204,1.334,72.089,7.033,107.968,11.662c35.601,4.592,71.329,6.186,107.068,9.22c67.5,5.73,134.882,13.335,202.478,4.48
		c20.962-2.745,44.83-7.154,59.354-24.044c7.712-8.968,11.052-20.093,11.768-31.742c0.45-7.343-1.107-14.747-2.206-21.977
		c-1.242-8.181-0.555-15.632,1.329-23.643C1085.994,700.012,1089.598,689.478,1091.648,678.532z"/>
</g>
</svg>
