<?xml version="1.0" encoding="utf-8"?>
<!-- Generator: Adobe Illustrator 15.0.0, SVG Export Plug-In . SVG Version: 6.00 Build 0)  -->
<!DOCTYPE svg PUBLIC "-//W3C//DTD SVG 1.1//EN" "http://www.w3.org/Graphics/SVG/1.1/DTD/svg11.dtd" [
	<!ENTITY ns_flows "http://ns.adobe.com/Flows/1.0/">
	<!ENTITY ns_extend "http://ns.adobe.com/Extensibility/1.0/">
	<!ENTITY ns_ai "http://ns.adobe.com/AdobeIllustrator/10.0/">
	<!ENTITY ns_graphs "http://ns.adobe.com/Graphs/1.0/">
]>
<svg version="1.1" id="Layer_1" xmlns:x="&ns_extend;" xmlns:i="&ns_ai;" xmlns:graph="&ns_graphs;"
	 xmlns="http://www.w3.org/2000/svg" xmlns:xlink="http://www.w3.org/1999/xlink" xmlns:a="http://ns.adobe.com/AdobeSVGViewerExtensions/3.0/"
	 x="0px" y="0px" width="48.667px" height="32.667px" viewBox="0 0 48.667 32.667" enable-background="new 0 0 48.667 32.667"
	 xml:space="preserve">
<g>
	<path fill="#FFFFFF" d="M44.403,14.012c-0.583-1.036-1.458-1.962-2.626-2.662C36.453,8.157,5.226,2.352,3,2
		c4.055,1.423,24.212,7.787,29.373,9.91c3.11,1.28,7.155,3.898,4.893,7.759c-1.935,3.3-21.518,8.881-26.591,10.677
		c1.21-0.21,27.043-5.498,30.409-6.93C45.159,21.682,46.251,17.297,44.403,14.012z"/>
	<path fill="#E5E5E5" d="M41.794,16.492c-0.556-4.931-7.836-6.696-12.428-8.542c3.986,2.069,7.97,4.708,9.025,8.545
		c0.857,3.116-0.047,5.809-1.955,8.161C39.694,23.083,42.266,20.671,41.794,16.492z"/>
</g>
</svg>
