<?xml version="1.0" encoding="utf-8"?>
<!-- Generator: Adobe Illustrator 15.0.0, SVG Export Plug-In . SVG Version: 6.00 Build 0)  -->
<!DOCTYPE svg PUBLIC "-//W3C//DTD SVG 1.1//EN" "http://www.w3.org/Graphics/SVG/1.1/DTD/svg11.dtd">
<svg version="1.1" id="Layer_1" xmlns="http://www.w3.org/2000/svg" xmlns:xlink="http://www.w3.org/1999/xlink" x="0px" y="0px"
	 width="105px" height="106px" viewBox="0 0 105 106" enable-background="new 0 0 105 106" xml:space="preserve">
<g>
	<g>
		<polygon fill="#E7B97D" points="28.077,53.753 45.154,58.406 60.348,58.406 70.132,52.009 72.925,43.758 75.752,40.771 
			75.752,34.99 74.495,29.437 70.302,27.18 69.365,25.75 31.005,24.73 28.077,42.457 24.424,49.062 26.874,56.37 		"/>
		<g>
			<path fill="#7A3419" d="M21.8,54.724h3.273l1.128-5.662c0,0,1.415-4.897,1.473-5.359c0.057-0.461,1.901-7.831,1.901-7.831h-1.368
				l-5.989,10.158l-0.418,5.06V54.724z"/>
			<g>
				<path fill="#7A3419" d="M21.069,55.927c0,0-2.211-6.412,1.889-13.362c4.094-6.955,6.719-7.574,6.719-7.574"/>
				<path d="M19.711,56.384c0.193-0.729-0.036-1.17-0.099-1.729c-0.084-0.534-0.142-1.068-0.175-1.603
					c-0.069-1.068-0.04-2.139,0.076-3.198c0.229-2.121,0.847-4.186,1.758-6.094c0.455-0.962,1.002-1.862,1.546-2.717
					c0.554-0.87,1.135-1.717,1.766-2.542c0.622-0.829,1.291-1.633,2.042-2.386c0.378-0.375,0.775-0.739,1.216-1.074
					c0.221-0.168,0.451-0.33,0.701-0.481c0.124-0.076,0.256-0.148,0.396-0.218c0.16-0.073,0.246-0.125,0.535-0.208l0.403,1.712
					c0.048-0.013-0.098,0.038-0.163,0.074c-0.085,0.043-0.174,0.09-0.264,0.146c-0.18,0.109-0.363,0.236-0.542,0.373
					c-0.36,0.273-0.707,0.589-1.042,0.922c-0.67,0.67-1.294,1.414-1.876,2.195c-0.577,0.785-1.118,1.608-1.628,2.446
					c-0.518,0.852-1,1.685-1.388,2.55c-0.795,1.735-1.248,3.608-1.389,5.494c-0.067,0.944-0.058,1.892,0.039,2.829
					c0.047,0.468,0.115,0.933,0.205,1.389c0.112,0.432,0.1,0.977,0.597,1.205L19.711,56.384z"/>
			</g>
			<g>
				<polygon fill="#7A3419" points="74.53,43.572 79.582,42.998 79.582,49.062 72.925,49.062 				"/>
				<g>
					<path fill="#E7B97D" d="M73.628,43.664c2.593,0.241,5.266-0.612,6.383-3.104c1.692-3.779,1.44-8.376-0.766-11.887
						c-1.946-3.091-6.296-7.027-9.88-3.763"/>
					<path d="M73.673,42.988c1.27,0.102,2.503-0.07,3.563-0.59c1.067-0.529,1.819-1.365,2.235-2.539
						c0.904-2.319,1.055-4.967,0.435-7.377c-0.31-1.208-0.811-2.36-1.487-3.389c-0.688-1.036-1.532-1.998-2.473-2.785
						c-0.937-0.782-2.01-1.398-3.056-1.553c-1.044-0.164-1.996,0.187-2.801,0.951l-1.447-1.589c0.587-0.522,1.297-0.975,2.104-1.23
						c0.805-0.258,1.679-0.297,2.477-0.153c1.612,0.298,2.902,1.153,3.99,2.095c1.087,0.961,1.998,2.057,2.761,3.27
						c0.765,1.228,1.309,2.579,1.628,3.973c0.636,2.793,0.399,5.742-0.709,8.388c-0.251,0.623-0.658,1.368-1.184,1.914
						c-0.524,0.567-1.165,1.016-1.848,1.332c-1.366,0.635-2.89,0.776-4.277,0.635L73.673,42.988z"/>
				</g>
				<polygon fill="#EA2127" points="30.699,26.123 49.088,24.73 69.866,26.246 66.837,21.368 63.753,18.521 60.153,16.353 
					49.51,13.625 40.206,14.032 33.11,19.82 				"/>
				<path fill="#C49560" d="M26.844,50.885c0,0,4.917-6.832,19.975-3.342c0,0,9.623,2.76,12.048,0.872c0,0,6.782-2.631,9.84-15.633
					c0,0,4.517,4.991,4.218,8.784l-3.56,10.945c0,0-12.434,7.821-12.867,7.674c-0.439-0.143-12.232-0.725-12.232-0.725
					s-3.112-1.6-3.509-2.254c-0.394-0.654-6.458-1.759-6.458-1.759l-3.6-0.725h-3.854V50.885z"/>
				<path fill="#B02125" d="M31.945,24.756c0,0,10.934-17.668,36.999,0.524l-1.383-2.752l-5.596-5.006l-14.668-4.642l-8.859,2.16
					l-4.818,3.757l-1.849,3.545L31.945,24.756z"/>
				<path fill="#5A2514" d="M21.521,54.724l3.782-2.955l0.384-4.102C25.687,47.667,21.695,50.136,21.521,54.724z"/>
				<g>
					<path d="M70.805,28.493c-1.464-1.21-2.166-2.594-3.027-3.952c-0.877-1.332-1.876-2.572-2.991-3.658
						c-1.128-1.07-2.357-2.01-3.727-2.624c-0.652-0.289-1.481-0.566-2.241-0.84l-2.33-0.807c-1.56-0.518-3.128-1.007-4.702-1.402
						c-0.787-0.195-1.575-0.369-2.352-0.495c-0.399-0.065-0.748-0.108-1.172-0.147l-1.268-0.15c-0.822-0.105-1.601-0.2-2.343-0.194
						c-0.765-0.001-1.387,0.117-2.188,0.335c-1.494,0.403-2.943,1.045-4.256,1.873c-2.639,1.661-4.735,4.094-5.679,7.056
						c-1.015,2.959-1.242,6.238-1.547,9.551c-0.152,1.662-0.32,3.35-0.621,5.044c-0.15,0.847-0.337,1.694-0.571,2.534
						c-0.244,0.859-0.488,1.604-0.754,2.429c-0.52,1.59-1.051,3.146-1.444,4.696c-0.194,0.777-0.357,1.554-0.467,2.333
						c-0.101,0.784-0.164,1.549-0.493,2.341l-1.51-0.009c-0.316-0.871-0.252-1.767-0.125-2.63c0.119-0.868,0.294-1.722,0.5-2.559
						c0.417-1.676,0.958-3.273,1.464-4.846c0.514-1.582,0.976-3.089,1.23-4.672c0.274-1.583,0.431-3.209,0.574-4.859
						c0.284-3.293,0.53-6.727,1.684-10.088c0.543-1.657,1.458-3.304,2.595-4.668c1.145-1.377,2.511-2.55,4.015-3.484
						c1.504-0.94,3.135-1.645,4.85-2.116c0.798-0.229,1.825-0.422,2.728-0.407c0.922-0.004,1.799,0.098,2.626,0.199l1.21,0.136
						c0.404,0.034,0.882,0.089,1.303,0.156c0.865,0.136,1.704,0.316,2.532,0.516c1.656,0.399,3.276,0.864,4.881,1.37
						c1.629,0.521,3.141,1.012,4.822,1.71c1.662,0.768,3.14,1.847,4.365,3.123c1.239,1.265,2.27,2.689,3.134,4.189
						c0.884,1.474,1.645,3.095,1.349,4.998L70.805,28.493z"/>
				</g>
				<path fill="#7A3419" d="M74.533,48.398c-0.093-1.084-0.261-2.13-0.482-3.145c-0.661-4.104-1.913-7.313-3.798-10.972
					c0.213,0.41-0.118,1.924-0.143,2.368c-0.112,2.001-0.376,3.983-0.993,5.896c-1.354,4.215-4.354,9.721-8.884,11.044
					c-5.568,1.632-11.548-1.868-17.009-2.724c-4.338-0.682-8.762-1.195-13.124-0.42c-2.856,0.507-6.711,3.708-8.8,5.608
					c-2.739,2.492-4.806,5.658-5.959,9.186c-2.4,7.357-0.53,15.56,6.294,19.772c3.896,2.405,9.025,3.825,13.548,4.406
					c0,0-5.339-5.575-3.446-10.807c0,0,16.833,20.816,43.445,3.939c0,0-7.109,0.42-10.088-1.177c0,0,45.119-4.607,15.612-42.832"/>
				<path fill="#A24C2C" d="M77.367,43.758c1.197,1.886,2.281,3.899,3.155,5.949c1.425,3.343,3.204,7.653,2.787,11.346
					c-0.413,3.638-3.425,6.627-6.267,8.544c-3.168,2.14-6.572,4.104-10.256,5.191c-3.928,1.164-16.748,2.643-16.906,2.354
					c0,0,2.913,5.622,9.099,7.171c0,0-11.444,4.457-29.955-13.372c0,0-4.568,2.134-2.624,11.047c0,0-8.222,1.97-11.957-8.702
					l4.538,10.83l8.712,3.626l7.489,1.677l-2.272-3.155l-1.561-4.738l0.387-2.913l2.448,2.47l6.571,4.555l7.596,2.81l6.522,0.703
					l8.216-1.128l6.059-2.186l4.212-3.235l-7.074-0.746l-1.193-0.479l7.607-1.607l5.691-2.132l7.559-5.102
					c0,0,9.314-8.008,1.146-24.18l-5.552-8.713l-0.431-1.522l-1.735,3.482L77.367,43.758z"/>
				<path fill="#C49560" d="M74.084,41.566c0,0,6.056-1.676,5.498-10.596c0.011,0.154,0.18,0.397,0.234,0.543
					c0.193,0.508,0.346,1.027,0.456,1.556c0.371,1.773,0.193,3.688-0.161,5.461c-0.529,2.663-1.908,3.959-4.098,4.539
					c-0.099,0.026-1.396,0.354-1.434,0.213L74.084,41.566z"/>
				<path fill="#5A2514" d="M15.168,73.463c-0.092-0.651,0.753-1.833,1.042-2.347c0.984-1.766,2.122-3.46,3.294-5.107
					c1.741-2.457,4.024-5.023,6.561-6.676c2.857-1.867,6.158-2.157,9.479-1.716c2.341,0.308,4.61,0.93,6.9,1.477
					c3.537,0.845,7.095,1.114,10.722,1.232c2.926,0.095,5.967,0.109,8.705-1.078c2.761-1.199,4.641-3.535,6.125-6.075
					c1.067-1.819,2.048-3.662,2.806-5.631c0.732-1.901,1.231-3.945,1.438-5.976c0.776-7.641-1.408-5.695-1.408-5.695l-1.466,5.827
					l-1.097,3.18l-1.55,3.294l-1.55,3.022l-3.78,2.112l-4.943,0.099l-5.361-0.415l-7.293-1.796l-8.368-1.129l-7.208,1.009
					l-5.188,3.482l-5.254,5.632l-2.052,3.998l-1.277,4.042C14.444,68.229,15.168,73.462,15.168,73.463z"/>
				<g>
					<path d="M74.501,48.402c-0.222-0.287-0.348-0.59-0.533-0.874c-0.146-0.287-0.268-0.564-0.42-0.846
						c-0.16-0.277-0.247-0.564-0.383-0.841c-0.064-0.162-0.098-0.233-0.166-0.471l-0.145-0.446c-0.164-0.591-0.34-1.136-0.535-1.709
						c-0.178-0.567-0.358-1.131-0.556-1.688l-1.037-3.417c-0.325-1.166-0.591-2.375-0.474-3.828l0,0v0
						c0.317,0.548,0.29,1.209,0.333,1.793l0.02,0.436l0.045,0.413c0.025,0.293,0.051,0.586,0.065,0.893
						c0.058,1.209,0.021,2.429-0.186,3.651c-0.42,2.446-1.382,4.712-2.567,6.877c-1.211,2.146-2.809,4.213-5.113,5.652
						c-2.389,1.465-5.202,1.661-7.69,1.373c-2.52-0.295-4.832-1.036-7.052-1.73c-1.111-0.346-2.204-0.683-3.283-0.953
						c-0.54-0.137-1.076-0.253-1.607-0.346l-1.696-0.267c-2.273-0.333-4.535-0.575-6.767-0.576c-1.116,0-2.223,0.06-3.314,0.197
						c-0.534,0.069-1.133,0.152-1.516,0.26c-0.444,0.127-0.913,0.319-1.379,0.551c-1.879,0.948-3.693,2.359-5.402,3.831
						l-0.638,0.564l-0.619,0.573c-0.396,0.38-0.755,0.751-1.124,1.169c-0.722,0.815-1.384,1.686-1.962,2.609
						c-2.328,3.674-3.443,8.157-2.855,12.417c0.29,2.122,1.012,4.172,2.164,5.938c1.145,1.771,2.712,3.25,4.551,4.325
						c3.791,2.219,8.253,3.445,12.708,4.041h0l-1.236,2.449c-0.786-0.855-1.386-1.67-1.977-2.584
						c-0.576-0.904-1.085-1.863-1.486-2.896c-0.399-1.03-0.691-2.137-0.775-3.305c-0.087-1.163,0.054-2.39,0.467-3.525l0.855-2.354
						l1.658,1.931c1.147,1.337,2.632,2.671,4.128,3.811c1.517,1.153,3.136,2.174,4.832,3.035c3.391,1.72,7.091,2.804,10.872,3.087
						c3.781,0.294,7.616-0.21,11.279-1.333c3.669-1.12,7.17-2.836,10.458-4.905l0.82,2.542c-0.912,0.044-1.771,0.053-2.657,0.042
						c-0.88-0.013-1.763-0.049-2.65-0.121c-0.89-0.074-1.783-0.181-2.692-0.359c-0.91-0.189-1.833-0.417-2.806-0.927l-3.78-1.979
						l4.28-0.551c4.801-0.617,9.715-1.968,14.049-4.153c2.165-1.105,4.195-2.456,5.888-4.117c1.694-1.654,3.026-3.633,3.777-5.833
						c0.76-2.197,0.938-4.586,0.66-6.953c-0.273-2.372-0.97-4.722-1.901-6.986c-1.899-4.531-4.618-8.74-7.407-12.92l1.367-1.056
						c3.377,3.854,6.301,8.187,8.324,13.028c1.007,2.417,1.788,4.97,2.11,7.641c0.327,2.659,0.147,5.458-0.742,8.068
						c-0.876,2.614-2.451,4.958-4.373,6.851c-1.924,1.905-4.165,3.399-6.505,4.609c-2.346,1.209-4.801,2.142-7.299,2.881
						c-2.515,0.732-5.012,1.292-7.675,1.623l0.501-2.53c0.543,0.286,1.292,0.495,2.052,0.641c0.769,0.147,1.573,0.24,2.386,0.303
						c0.814,0.062,1.64,0.091,2.467,0.098c0.821,0.006,1.672-0.01,2.465-0.053l5.255-0.286l-4.436,2.828
						c-3.44,2.194-7.147,4.047-11.101,5.28c-3.945,1.235-8.148,1.823-12.325,1.522c-4.175-0.286-8.286-1.457-11.994-3.359
						c-1.857-0.946-3.623-2.063-5.276-3.324c-1.663-1.284-3.176-2.613-4.625-4.304l2.513-0.422c-0.539,1.451-0.361,3.15,0.278,4.781
						c0.315,0.816,0.736,1.617,1.223,2.384c0.479,0.752,1.067,1.533,1.621,2.138l2.756,3.005l-3.992-0.556h0
						c-4.774-0.651-9.516-1.927-13.812-4.432c-2.192-1.282-4.119-3.093-5.505-5.248c-1.4-2.149-2.258-4.617-2.597-7.118
						c-0.683-5.024,0.625-10.146,3.285-14.348c0.663-1.056,1.419-2.051,2.246-2.982c0.404-0.458,0.857-0.926,1.305-1.354
						l0.667-0.616l0.675-0.596c1.828-1.563,3.718-3.067,6.015-4.232c0.579-0.286,1.193-0.545,1.872-0.739
						c0.745-0.197,1.309-0.26,1.93-0.348c1.226-0.158,2.455-0.227,3.674-0.23c2.441-0.005,4.838,0.25,7.184,0.585l1.767,0.265
						c0.62,0.103,1.227,0.229,1.82,0.375c1.188,0.288,2.331,0.631,3.452,0.971c2.239,0.671,4.405,1.356,6.532,1.625
						c2.107,0.27,4.224,0.056,5.872-0.919c1.72-0.983,3.151-2.672,4.314-4.52c1.168-1.865,2.042-3.948,2.75-6.035
						c0.348-1.048,0.631-2.148,0.898-3.264c0.071-0.274,0.134-0.564,0.197-0.854c0.032-0.133,0.068-0.298,0.117-0.459l0.144-0.431
						c0.168-0.561,0.457-1.091,0.453-1.677v0l0,0c1.248,0.749,2.058,1.77,2.703,2.88c0.304,0.565,0.582,1.144,0.847,1.733
						c0.258,0.592,0.45,1.21,0.65,1.825c0.161,0.627,0.294,1.261,0.404,1.896c0.086,0.632,0.162,1.298,0.21,1.926l0.028,0.907
						c-0.005,0.328,0.011,0.651-0.046,0.984c-0.038,0.327-0.094,0.666-0.149,0.991c-0.106,0.329-0.181,0.643-0.335,0.971
						L74.501,48.402z"/>
				</g>
			</g>
			<g>
				<polygon points="62.141,41.518 62.484,37.022 48.726,33.827 48.26,35.638 				"/>
				<ellipse cx="55.508" cy="33.363" rx="2.5" ry="4.76"/>
			</g>
			<g>
				<polygon points="32.152,41.447 31.842,36.952 44.202,33.757 44.622,35.567 				"/>
				<path d="M40.357,33.289c0-2.626-1.005-4.755-2.246-4.755s-2.248,2.129-2.248,4.755c0,2.631,1.007,4.761,2.248,4.761
					S40.357,35.92,40.357,33.289z"/>
			</g>
			<g>
				<path d="M30.21,24.776c0.953-0.298,1.723-0.441,2.572-0.601c0.83-0.148,1.656-0.265,2.482-0.364
					c1.65-0.195,3.297-0.316,4.94-0.389c3.287-0.143,6.562-0.098,9.823,0.058c6.523,0.319,12.993,1.081,19.413,2.081l-0.15,1.122
					c-6.427-0.71-12.879-1.178-19.315-1.205c-3.216-0.011-6.429,0.089-9.61,0.371c-1.59,0.141-3.171,0.329-4.73,0.584
					c-0.778,0.129-1.552,0.274-2.311,0.445c-0.737,0.166-1.552,0.376-2.137,0.591L30.21,24.776z"/>
			</g>
			<path d="M77.367,43.758c0,0,3.428-1.229,4.178-5.976l-1.323,0.087c0,0-0.445,3.803-3.01,4.77L77.367,43.758z"/>
		</g>
	</g>
	<g>
		<path d="M45.612,28.604l-1.87-3.467l0.081,0.15l-0.096-0.538c-0.164-0.916-0.043-1.764,0.166-2.591
			c0.115-0.411,0.233-0.822,0.432-1.213c0.229-0.384,0.573-0.741,1.288-1.01c0.518,0.561,0.666,1.035,0.697,1.48
			c0.001,0.439-0.077,0.858-0.159,1.277c-0.185,0.833-0.458,1.645-1.016,2.39l-0.015-0.388L45.612,28.604z"/>
	</g>
</g>
</svg>
