<?xml version="1.0" encoding="utf-8"?>
<!-- Generator: Adobe Illustrator 15.0.0, SVG Export Plug-In . SVG Version: 6.00 Build 0)  -->
<!DOCTYPE svg PUBLIC "-//W3C//DTD SVG 1.1//EN" "http://www.w3.org/Graphics/SVG/1.1/DTD/svg11.dtd">
<svg version="1.1" id="Layer_1" xmlns="http://www.w3.org/2000/svg" xmlns:xlink="http://www.w3.org/1999/xlink" x="0px" y="0px"
	 width="21.812px" height="41.154px" viewBox="0 0 21.812 41.154" enable-background="new 0 0 21.812 41.154" xml:space="preserve">
<g>
	<g>
		<g>
			<g>
				<g>
					<path fill="#E8BB7D" d="M16.82,31.036c-0.394,8.733-0.274,6.456-7.265,6.144c-6.986-0.313-4.359,2.16-3.969-6.572
						c0.393-8.734-3.104-14.155,3.884-13.841C16.461,17.079,17.21,22.303,16.82,31.036z"/>
					<g>
						<path d="M17.353,31.061c-0.051,1.243-0.088,2.483-0.185,3.749c-0.051,0.637-0.093,1.271-0.296,1.971
							c-0.106,0.342-0.272,0.75-0.652,1.076c-0.388,0.325-0.859,0.419-1.223,0.448c-0.743,0.046-1.356-0.047-1.981-0.101
							c-0.62-0.062-1.228-0.119-1.836-0.157c-1.214-0.08-2.43-0.091-3.628-0.013c-0.605,0.037-1.181,0.104-1.833,0.171
							c-0.17,0.014-0.342,0.03-0.588,0.021c-0.131-0.012-0.283-0.017-0.527-0.107c-0.238-0.067-0.604-0.394-0.699-0.694
							c-0.182-0.567-0.084-0.743-0.084-0.956l0.082-0.519c0.234-1.228,0.391-2.379,0.5-3.588c0.21-2.4,0.186-4.812-0.033-7.254
							c-0.09-1.229-0.229-2.461-0.277-3.761c-0.016-0.651-0.015-1.322,0.093-2.037c0.109-0.701,0.349-1.521,0.954-2.175
							c0.604-0.656,1.416-0.958,2.118-1.085c0.717-0.132,1.397-0.136,2.057-0.102c1.272,0.07,2.677,0.302,3.908,0.906
							c1.258,0.592,2.312,1.657,2.919,2.871c0.618,1.214,0.918,2.505,1.088,3.773C17.543,26.052,17.467,28.564,17.353,31.061z
							 M16.285,31.012c0.085-2.468,0.161-4.954-0.218-7.339c-0.188-1.185-0.494-2.349-1.062-3.327
							c-0.557-0.984-1.381-1.738-2.396-2.171c-0.507-0.22-1.052-0.366-1.613-0.464c-0.285-0.05-0.565-0.081-0.843-0.104
							c-0.273-0.021-0.646-0.04-0.89-0.04c-1.146-0.018-2.347,0.177-2.788,0.765c-0.484,0.55-0.509,1.756-0.416,2.917
							c0.085,1.186,0.251,2.421,0.382,3.671C6.7,27.427,6.8,30.011,6.515,32.565C6.4,33.834,6.15,35.14,5.866,36.344l-0.082,0.4
							c-0.036,0.093,0.013,0.237-0.064-0.033c-0.043-0.153-0.286-0.362-0.379-0.378c-0.1-0.034-0.096-0.019-0.071-0.017
							c0.064,0.01,0.203,0.013,0.345,0.009c0.588-0.017,1.254-0.047,1.891-0.04c1.288,0.009,2.562,0.109,3.822,0.268
							c1.24,0.138,2.555,0.454,3.602,0.484c0.516-0.023,0.605-0.101,0.817-0.622c0.166-0.491,0.244-1.104,0.311-1.703
							C16.168,33.498,16.219,32.252,16.285,31.012z"/>
					</g>
				</g>
				<path fill="none" stroke="#000000" stroke-width="0.3581" stroke-miterlimit="10" d="M16.536,30.251
					c0,0-7.279,3.065-11.621,3.474"/>
				<path fill="none" stroke="#000000" stroke-width="0.3581" stroke-miterlimit="10" d="M16.738,29.38
					c0,0-7.281,3.066-11.621,3.473"/>
				<path fill="none" stroke="#000000" stroke-width="0.3581" stroke-miterlimit="10" d="M16.493,31.128
					c0,0-7.281,3.067-11.623,3.474"/>
				<path fill="none" stroke="#000000" stroke-width="0.3581" stroke-miterlimit="10" d="M16.343,32.003
					c0,0-7.279,3.064-11.621,3.472"/>
				<path fill="none" stroke="#000000" stroke-width="0.3581" stroke-miterlimit="10" d="M16.56,32.893
					c0,0-7.279,3.064-11.621,3.472"/>
				<path fill="none" stroke="#000000" stroke-width="0.3581" stroke-miterlimit="10" d="M16.473,34.648
					c0,0-4.789,2.109-9.129,2.517"/>
				<path fill="none" stroke="#000000" stroke-width="0.3581" stroke-miterlimit="10" d="M16.966,33.448
					c0,0-6.309,2.848-10.647,3.254"/>
				<path fill="none" stroke="#000000" stroke-width="0.3581" stroke-miterlimit="10" d="M16.423,35.635
					c0,0-2.171,0.933-4.895,1.693"/>
				<path fill="none" stroke="#000000" stroke-width="0.3581" stroke-miterlimit="10" d="M12.202,30.85c0,0-1.765,3.001-3.62,6.331"
					/>
				<path fill="none" stroke="#000000" stroke-width="0.3581" stroke-miterlimit="10" d="M11.013,30.057
					c0,0-1.361,4.071-4.136,7.438"/>
				<path fill="none" stroke="#000000" stroke-width="0.3581" stroke-miterlimit="10" d="M9.83,29.998c0,0-1.456,4.066-4.229,7.432"
					/>
				<path fill="none" stroke="#000000" stroke-width="0.3581" stroke-miterlimit="10" d="M8.525,30.186c0,0-1.351,3.819-4.122,7.184
					"/>
				<path fill="none" stroke="#000000" stroke-width="0.3581" stroke-miterlimit="10" d="M7.808,30.149c0,0-0.486,1.295-2.938,4.451
					"/>
				<path fill="none" stroke="#000000" stroke-width="0.3581" stroke-miterlimit="10" d="M12.794,31.501
					c0,0-1.438,2.182-3.068,5.688"/>
				<path fill="none" stroke="#000000" stroke-width="0.3581" stroke-miterlimit="10" d="M14.132,30.111
					c0,0-0.896,3.749-3.668,7.112"/>
				<path fill="none" stroke="#000000" stroke-width="0.3581" stroke-miterlimit="10" d="M14.917,30.584c0,0-0.791,3.37-3.563,6.734
					"/>
				<path fill="none" stroke="#000000" stroke-width="0.3581" stroke-miterlimit="10" d="M16.1,31.885c0,0-0.551,2.373-2.889,5.789"
					/>
				<path fill="none" stroke="#000000" stroke-width="0.3581" stroke-miterlimit="10" d="M15.596,30.69c0,0-0.578,3.569-3.351,6.936
					"/>
				<path fill="none" stroke="#000000" stroke-width="0.3581" stroke-miterlimit="10" d="M16.764,32.615
					c0,0-0.871,2.196-2.252,4.666"/>
			</g>
			<g>
				<path fill="#3D3D3D" d="M20.228,21.181c-0.598,13.312-0.417,9.843-11.068,9.362c-10.652-0.478-6.646,3.296-6.049-10.017
					C3.709,7.214-1.621,3.95,9.031,4.43C19.684,4.908,20.825,7.867,20.228,21.181z"/>
				<g>
					<path d="M21.649,21.244c-0.12,1.536-0.233,3.075-0.387,4.635c-0.078,0.781-0.165,1.566-0.3,2.377
						c-0.154,0.812-0.287,1.646-0.827,2.599c-0.267,0.47-0.771,0.973-1.35,1.2c-0.57,0.233-1.089,0.26-1.541,0.258
						c-0.903-0.022-1.668-0.171-2.438-0.294c-1.525-0.256-3.014-0.497-4.525-0.65c-1.511-0.17-3.026-0.221-4.54-0.195
						c-0.759,0.012-1.511,0.055-2.29,0.095c-0.408,0.005-0.756,0.064-1.342-0.057c-0.149-0.04-0.353-0.118-0.523-0.299
						s-0.243-0.402-0.27-0.562c-0.048-0.324-0.012-0.538,0.014-0.753c0.292-1.597,0.563-3.03,0.667-4.562
						c0.105-1.514,0.111-3.037-0.053-4.559l-0.006,0.008c0.15-2.206,0.14,0.595-0.018-1.625c-0.134-2.222-0.465-4.432-0.648-6.728
						c-0.087-1.149-0.155-2.323-0.029-3.577c0.065-0.627,0.188-1.278,0.44-1.937c0.246-0.656,0.666-1.312,1.221-1.827
						C4.049,3.752,5.448,3.433,6.67,3.282c1.256-0.138,2.422-0.1,3.625,0.002c2.365,0.212,4.928,0.915,6.931,2.646
						c2.018,1.717,3.104,4.163,3.688,6.478c0.585,2.344,0.79,4.682,0.866,6.986C21.866,21.698,21.767,18.979,21.649,21.244z
						 M18.808,21.117c0.097-4.441,0.324-3.946-0.579-8.057c-0.467-2.03-1.306-3.902-2.729-5.162
						c-1.405-1.277-3.379-1.922-5.461-2.152C9.005,5.634,7.909,5.584,6.924,5.677C5.932,5.769,5.028,6.028,4.48,6.522
						c-0.552,0.476-0.858,1.296-0.979,2.29c-0.122,0.985-0.09,2.072-0.027,3.165c0.309,4.4,0.919,3.999,0.809,8.596l0.001-0.025
						l-0.006,0.033l-0.846,4.645l-0.467,2.301c-0.163,0.755-0.363,1.534-0.47,2.231c-0.026,0.166-0.036,0.34-0.024,0.396
						c0.006,0.029,0.003-0.004-0.035-0.045c-0.04-0.039-0.06-0.036-0.023-0.026c0.17,0.045,0.603,0.013,0.959-0.018
						c0.757-0.068,1.541-0.143,2.321-0.185c1.562-0.09,3.13-0.067,4.691-0.023c1.562,0.049,3.131,0.191,4.656,0.341
						c0.756,0.066,1.523,0.134,2.161,0.093c0.313-0.021,0.577-0.083,0.713-0.165c0.133-0.082,0.195-0.155,0.297-0.36
						c0.199-0.408,0.312-1.133,0.381-1.833c0.071-0.718,0.107-1.468,0.133-2.223C18.775,24.195,18.788,22.657,18.808,21.117z"/>
				</g>
			</g>
		</g>
	</g>
	<path fill="#565656" d="M18.925,16.304c0-0.008,0.771-6.317-4.481-9.184c0,0-2.168-1.982-8.487-1.285c0,0-1.617,0.294-1.911,1.285
		C3.948,7.449,4.18,7.968,4.371,8.21c0.298,0.378,1.291,0.394,1.727,0.455c0.763,0.11,1.533,0.179,2.301,0.253
		c1.005,0.1,1.953,0.435,2.89,0.799c2.646,1.033,4.969,2.824,6.318,5.376c0.458,0.865,0.745,1.803,0.927,2.761
		C18.735,18.926,18.999,15.213,18.925,16.304z"/>
</g>
</svg>
