<?xml version="1.0" encoding="utf-8"?>
<!-- Generator: Adobe Illustrator 15.0.0, SVG Export Plug-In . SVG Version: 6.00 Build 0)  -->
<!DOCTYPE svg PUBLIC "-//W3C//DTD SVG 1.1//EN" "http://www.w3.org/Graphics/SVG/1.1/DTD/svg11.dtd">
<svg version="1.1" id="Layer_1" xmlns="http://www.w3.org/2000/svg" xmlns:xlink="http://www.w3.org/1999/xlink" x="0px" y="0px"
	 width="21.739px" height="39.984px" viewBox="272.307 262.912 21.739 39.984"
	 enable-background="new 272.307 262.912 21.739 39.984" xml:space="preserve">
<g>
	<g>
		<g>
			<g>
				<path fill="#E8BB7D" d="M277.225,294.482c-0.604,8.723-0.462,6.446,6.517,6.929c6.849,0.473,4.219,0.743,4.69-6.078
					c0.602-8.723,4.691-13.711-2.286-14.192C279.164,280.658,277.828,285.762,277.225,294.482z"/>
				<g>
					<path d="M277.758,294.52c-0.074,1.227-0.163,2.457-0.192,3.663c-0.003,0.597,0.003,1.208,0.104,1.719
						c0.051,0.252,0.137,0.459,0.229,0.555c0.086,0.094,0.221,0.158,0.462,0.195c0.476,0.07,1.102,0.03,1.706,0.005
						c0.613-0.029,1.239-0.058,1.867-0.067c1.264-0.024,2.521,0.049,3.735,0.085c0.604,0.018,1.232,0.042,1.734-0.002
						c0.242,0,0.443-0.137,0.237-0.019c-0.087,0.078-0.108,0.161-0.099,0.114c0.004-0.04,0.008-0.143,0.002-0.263
						c-0.026-0.505-0.116-1.163-0.166-1.789c-0.053-0.636-0.07-1.28-0.07-1.922c0.012-2.559,0.448-5.094,0.99-7.513
						c0.271-1.21,0.568-2.405,0.773-3.551c0.209-1.135,0.26-2.271-0.211-2.808c-0.453-0.594-1.668-0.884-2.762-0.979
						c-1.212-0.101-2.308-0.065-3.361,0.283c-1.035,0.336-1.915,1.008-2.56,1.927c-0.651,0.914-1.08,2.025-1.392,3.172
						C278.156,289.631,277.952,292.084,277.758,294.52z M276.691,294.445c0.167-2.466,0.378-4.944,0.962-7.416
						c0.3-1.23,0.739-2.464,1.459-3.599c0.713-1.133,1.839-2.09,3.134-2.565c1.27-0.497,2.688-0.579,3.924-0.528
						c0.688,0.035,1.323,0.098,2.018,0.278c0.675,0.18,1.426,0.49,2.015,1.135c0.594,0.648,0.83,1.509,0.885,2.225
						c0.062,0.733-0.002,1.401-0.08,2.048c-0.175,1.288-0.454,2.487-0.684,3.687c-0.483,2.39-0.838,4.74-0.889,7.108
						c-0.029,1.207,0.071,2.273,0.117,3.661c-0.003,0.188-0.008,0.394-0.059,0.656c-0.046,0.254-0.182,0.639-0.497,0.929
						c-0.312,0.287-0.638,0.38-0.87,0.43c-0.242,0.049-0.441,0.06-0.627,0.063c-0.729,0.004-1.328-0.076-1.953-0.139
						c-1.24-0.135-2.436-0.288-3.634-0.334c-0.603-0.028-1.207-0.038-1.824-0.047c-0.624-0.02-1.237,0.005-1.977-0.146
						c-0.359-0.076-0.826-0.261-1.141-0.645c-0.307-0.379-0.404-0.784-0.467-1.132c-0.107-0.704-0.078-1.332-0.055-1.964
						C276.498,296.898,276.602,295.674,276.691,294.445z"/>
				</g>
			</g>
			<path fill="none" stroke="#000000" stroke-width="0.3581" stroke-miterlimit="10" d="M277.593,293.735
				c0,0,6.886,3.156,11.152,4.053"/>
			<path fill="none" stroke="#000000" stroke-width="0.3581" stroke-miterlimit="10" d="M277.492,292.847
				c0,0,6.886,3.874,11.152,4.771"/>
			<path fill="none" stroke="#000000" stroke-width="0.3581" stroke-miterlimit="10" d="M277.537,294.612
				c0,0,6.886,3.156,11.152,4.055"/>
			<path fill="none" stroke="#000000" stroke-width="0.3581" stroke-miterlimit="10" d="M277.585,295.496
				c0,0,6.885,3.156,11.153,4.055"/>
			<path fill="none" stroke="#000000" stroke-width="0.3581" stroke-miterlimit="10" d="M277.269,296.356
				c0,0,6.886,3.156,11.153,4.055"/>
			<path fill="none" stroke="#000000" stroke-width="0.3581" stroke-miterlimit="10" d="M277.157,298.111
				c0,0,4.518,1.925,8.783,2.821"/>
			<path fill="none" stroke="#000000" stroke-width="0.3581" stroke-miterlimit="10" d="M276.803,296.863
				c0,0,5.945,2.829,10.21,3.726"/>
			<path fill="none" stroke="#000000" stroke-width="0.3581" stroke-miterlimit="10" d="M277.094,299.098
				c0,0,2.052,1.171,4.67,2.236"/>
			<path fill="none" stroke="#000000" stroke-width="0.3581" stroke-miterlimit="10" d="M281.831,294.822
				c0,0,1.412,2.466,2.878,5.983"/>
			<path fill="none" stroke="#000000" stroke-width="0.3581" stroke-miterlimit="10" d="M283.104,294.17c0,0,0.89,3.485,3.263,7.142
				"/>
			<path fill="none" stroke="#000000" stroke-width="0.3581" stroke-miterlimit="10" d="M284.285,294.246
				c0,0,0.984,3.49,3.355,7.146"/>
			<path fill="none" stroke="#000000" stroke-width="0.3581" stroke-miterlimit="10" d="M285.562,294.58c0,0,0.906,3.231,3.278,6.89
				"/>
			<path fill="none" stroke="#000000" stroke-width="0.3581" stroke-miterlimit="10" d="M286.276,294.626
				c0,0,0.337,0.626,2.413,4.041"/>
			<path fill="none" stroke="#000000" stroke-width="0.3581" stroke-miterlimit="10" d="M281.168,295.401
				c0,0,1.182,2.331,2.404,5.999"/>
			<path fill="none" stroke="#000000" stroke-width="0.3581" stroke-miterlimit="10" d="M279.998,293.869
				c0,0,0.466,3.826,2.837,7.483"/>
			<path fill="none" stroke="#000000" stroke-width="0.3581" stroke-miterlimit="10" d="M279.165,294.25
				c0,0,0.404,3.438,2.775,7.096"/>
			<path fill="none" stroke="#000000" stroke-width="0.3581" stroke-miterlimit="10" d="M277.842,295.408c0,0,0.276,2.42,2.212,6.08
				"/>
			<path fill="none" stroke="#000000" stroke-width="0.3581" stroke-miterlimit="10" d="M278.477,294.278
				c0,0,0.168,3.613,2.541,7.271"/>
			<path fill="none" stroke="#000000" stroke-width="0.3581" stroke-miterlimit="10" d="M277.099,296.059
				c0,0,0.615,2.28,1.707,4.891"/>
		</g>
		<g>
			<g>
				<g>
					<path fill="#3D3D3D" d="M274.657,286.057c-0.071,13.325-2.227,9.85,8.437,9.905c10.663,0.06,9.357,2.904,9.428-10.422
						s-1.433-20.644-7.737-20.644C277.123,264.896,274.73,272.73,274.657,286.057z"/>
					<g>
						<path d="M276.079,286.066c-0.062,1.574-0.158,3.164-0.277,4.733l-0.178,2.331c-0.056,0.735-0.11,1.576-0.029,2.017
							c0.017,0.102,0.036,0.134,0.009,0.11c-0.031-0.021-0.069-0.023-0.009,0.008c0.129,0.06,0.49,0.09,0.841,0.086
							c0.726-0.003,1.527-0.062,2.314-0.095c1.585-0.074,3.188-0.069,4.766,0.006c1.585,0.043,3.166,0.164,4.722,0.298
							c0.771,0.059,1.555,0.132,2.248,0.086c0.735-0.082,1.029-0.263,1.212-0.907c0.302-1.321,0.16-2.968,0.095-4.5
							c-0.109-1.562-0.234-3.13-0.438-4.704l-0.005-0.001c0.133-4.167,0.085-8.386-0.703-12.375c-0.397-1.965-0.99-3.936-2.09-5.323
							c-1.081-1.407-2.688-1.89-4.58-1.667c-1.84,0.168-3.413,1.016-4.511,2.453c-1.111,1.429-1.795,3.299-2.256,5.229
							C276.306,277.751,276.191,281.924,276.079,286.066z M273.236,286.047c-0.025-4.259,0.212-8.568,1.297-12.867
							c0.57-2.131,1.371-4.312,2.894-6.196c0.761-0.931,1.723-1.756,2.832-2.318c1.104-0.571,2.32-0.87,3.5-0.959
							c1.136-0.088,2.429-0.037,3.634,0.42c1.216,0.44,2.275,1.294,3.01,2.272c1.473,1.989,2.008,4.219,2.412,6.353
							c0.387,2.152,0.517,4.296,0.649,6.425c0.115,2.13,0.19,4.252,0.231,6.371h-0.005c-0.224,1.556-0.321,3.115-0.409,4.684
							l-0.113,2.368c-0.048,0.801-0.088,1.598-0.334,2.478c-0.124,0.429-0.371,0.947-0.842,1.278
							c-0.467,0.328-0.965,0.409-1.395,0.455c-0.867,0.084-1.652,0.026-2.439-0.005c-1.566-0.08-3.111-0.146-4.655-0.136
							c-1.55,0.032-3.078,0.148-4.611,0.333c-0.772,0.088-1.527,0.204-2.363,0.286c-0.427,0.027-0.861,0.084-1.492-0.059
							c-0.312-0.077-0.716-0.264-1.001-0.586c-0.29-0.316-0.425-0.655-0.509-0.931c-0.28-1.089-0.218-1.835-0.251-2.656l0.012-2.358
							C273.296,289.141,273.283,287.602,273.236,286.047z"/>
					</g>
				</g>
				<path fill="#565656" d="M276.395,279.278c0,0-0.104-14.455,9.666-13.151c0,0,2.629,0.084,3.987,4.649
					C290.048,270.776,281.187,268.141,276.395,279.278z"/>
			</g>
		</g>
	</g>
</g>
</svg>
