<?xml version="1.0" encoding="utf-8"?>
<!-- Generator: Adobe Illustrator 15.0.0, SVG Export Plug-In . SVG Version: 6.00 Build 0)  -->
<!DOCTYPE svg PUBLIC "-//W3C//DTD SVG 1.1//EN" "http://www.w3.org/Graphics/SVG/1.1/DTD/svg11.dtd">
<svg version="1.1" id="Layer_1" xmlns="http://www.w3.org/2000/svg" xmlns:xlink="http://www.w3.org/1999/xlink" x="0px" y="0px"
	 width="18.883px" height="18.653px" viewBox="274.298 274.127 18.883 18.653"
	 enable-background="new 274.298 274.127 18.883 18.653" xml:space="preserve">
<g>
	<g>
		<g>
			<path fill="#E8BB7D" d="M283.685,278.178c1.243,0.497,7.156,2.173,8.225,3.314c1.384,1.484-1.263,4.982-2.089,6.053"/>
			<path d="M284.072,277.176c1.104,0.509,2.396,0.972,3.619,1.442c1.234,0.496,2.47,0.947,3.725,1.602
				c0.316,0.181,0.625,0.343,0.984,0.685l0.065,0.065l0.073,0.088l0.076,0.097c0.076,0.112,0.177,0.263,0.217,0.369
				c0.112,0.229,0.16,0.465,0.196,0.693c0.103,0.914-0.162,1.638-0.407,2.312c-0.531,1.337-1.262,2.496-1.949,3.673l-1.701-1.312
				c0.904-0.896,1.693-1.903,2.213-2.973c0.256-0.524,0.401-1.099,0.357-1.499c-0.022-0.093-0.039-0.182-0.078-0.245
				c-0.02-0.049-0.023-0.027-0.027-0.057l-0.08-0.095c0.003,0.003-0.061-0.071-0.004-0.007l-0.023-0.019
				c-0.117-0.112-0.386-0.275-0.643-0.406c-1.077-0.548-2.325-0.965-3.56-1.337c-1.251-0.398-2.472-0.683-3.829-1.072
				L284.072,277.176z"/>
		</g>
		<g>
			<path fill="#E8BB7D" d="M288.967,281.828c-0.994-1.267-2.086-2.421-3.009-3.744c-1.886-2.702-6.166-4.125-8.357-1.023
				c-2.011,2.844-2.525,6.848-1.49,10.151c0.307,0.977,0.755,1.97,1.29,2.845c0.995,1.624,3.023,1.822,4.726,1.856
				c1.732,0.033,3.559-0.142,5.179-0.779c1.717-0.678,3.008-1.84,2.984-3.804c-0.01-0.713-0.533-3.243-0.672-3.999"/>
			<path d="M288.967,281.828c-0.997-0.495-1.741-1.143-2.439-1.899c-0.344-0.381-0.688-0.765-1.016-1.176
				c-0.324-0.411-0.592-0.71-0.932-0.999c-1.318-1.157-3.206-1.752-4.604-1.26c-0.701,0.264-1.229,0.712-1.699,1.483
				c-0.49,0.757-0.852,1.573-1.131,2.452c-0.545,1.743-0.674,3.649-0.335,5.452c0.159,0.905,0.439,1.794,0.822,2.643
				c0.187,0.412,0.417,0.872,0.635,1.206c0.204,0.302,0.448,0.539,0.795,0.742c0.677,0.397,1.589,0.572,2.539,0.64
				c0.964,0.069,1.935,0.077,2.886-0.014c0.95-0.09,1.886-0.279,2.756-0.618c0.851-0.335,1.657-0.822,2.075-1.556
				c0.207-0.364,0.301-0.772,0.344-1.192c0.012-0.214,0.027-0.427,0.012-0.629l-0.041-0.723c-0.059-0.99-0.117-2.007-0.014-3.05
				c0.479,0.931,0.822,1.886,1.084,2.879c0.068,0.249,0.12,0.501,0.165,0.771c0.043,0.296,0.04,0.589,0.005,0.874
				c-0.057,0.58-0.271,1.151-0.572,1.654c-0.63,1.006-1.581,1.693-2.572,2.127c-0.984,0.443-2.027,0.707-3.07,0.861
				c-1.044,0.154-2.09,0.198-3.133,0.178c-1.046-0.028-2.184-0.135-3.29-0.693c-0.541-0.269-1.071-0.713-1.447-1.232
				c-0.351-0.494-0.586-0.93-0.84-1.42c-0.489-0.962-0.87-1.987-1.108-3.053c-0.458-2.141-0.344-4.368,0.264-6.472
				c0.297-1.047,0.785-2.074,1.387-3.004c0.553-0.951,1.611-1.939,2.839-2.286c1.227-0.381,2.509-0.259,3.59,0.157
				c1.091,0.41,2.056,1.053,2.826,1.88c0.387,0.408,0.733,0.909,0.987,1.319c0.255,0.409,0.541,0.809,0.828,1.21
				C288.139,279.88,288.72,280.744,288.967,281.828z"/>
		</g>
	</g>
	<path fill="#C69760" d="M289.577,284.7c-0.001,0.001-4.885,5.963-12.405,2.641c0,0,0.439,2.789,2.415,3.396
		c0,0,2.039,0.877,5.778,0.25c1.021-0.172,1.986-0.473,2.879-1.007c0.386-0.231,0.888-0.498,1.115-0.904
		c0.244-0.434,0.336-1.021,0.383-1.509c0.055-0.56,0.029-1.124-0.025-1.684c-0.024-0.25-0.053-0.502-0.099-0.751
		C289.602,285.04,289.602,285.04,289.577,284.7z"/>
</g>
</svg>
