<?xml version="1.0" encoding="utf-8"?>
<!-- Generator: Adobe Illustrator 15.0.0, SVG Export Plug-In . SVG Version: 6.00 Build 0)  -->
<!DOCTYPE svg PUBLIC "-//W3C//DTD SVG 1.1//EN" "http://www.w3.org/Graphics/SVG/1.1/DTD/svg11.dtd">
<svg version="1.1" id="Layer_1" xmlns="http://www.w3.org/2000/svg" xmlns:xlink="http://www.w3.org/1999/xlink" x="0px" y="0px"
	 width="21.17px" height="40.657px" viewBox="0 0 21.17 40.657" enable-background="new 0 0 21.17 40.657" xml:space="preserve">
<g>
	<g>
		<g>
			<g>
				<g>
					<path fill="#E8BB7D" d="M12.016,15.518c6.987-0.314,3.491,5.106,3.884,13.841c0.391,8.732,3.018,6.259-3.969,6.572
						c-6.99,0.312-6.871,2.59-7.265-6.144C4.276,21.055,5.025,15.831,12.016,15.518z"/>
					<g>
						<path d="M4.257,22.252c0.17-1.269,0.47-2.56,1.088-3.773c0.606-1.214,1.661-2.279,2.919-2.871
							c1.231-0.604,2.636-0.836,3.908-0.906c0.659-0.034,1.34-0.03,2.057,0.102c0.702,0.127,1.515,0.429,2.118,1.085
							c0.605,0.653,0.845,1.474,0.954,2.175c0.107,0.715,0.108,1.386,0.093,2.037c-0.049,1.3-0.188,2.532-0.277,3.761
							c-0.219,2.442-0.243,4.854-0.033,7.254c0.109,1.209,0.266,2.36,0.5,3.588l0.082,0.519c0,0.213,0.098,0.389-0.084,0.956
							c-0.096,0.301-0.461,0.627-0.699,0.694c-0.244,0.091-0.396,0.096-0.527,0.107c-0.246,0.009-0.418-0.008-0.588-0.021
							c-0.652-0.066-1.228-0.134-1.833-0.171c-1.198-0.078-2.414-0.067-3.628,0.013c-0.608,0.038-1.216,0.096-1.836,0.157
							c-0.625,0.054-1.238,0.146-1.981,0.101c-0.363-0.029-0.835-0.123-1.223-0.448c-0.38-0.326-0.546-0.734-0.652-1.076
							c-0.203-0.7-0.245-1.334-0.296-1.971c-0.097-1.266-0.134-2.506-0.185-3.749C4.02,27.316,3.943,24.803,4.257,22.252z
							 M5.43,33.463c0.066,0.6,0.145,1.212,0.311,1.703c0.212,0.521,0.302,0.599,0.817,0.622c1.047-0.03,2.361-0.347,3.602-0.484
							c1.26-0.158,2.534-0.259,3.822-0.268c0.637-0.007,1.303,0.023,1.891,0.04c0.142,0.004,0.28,0.001,0.345-0.009
							c0.024-0.002,0.028-0.018-0.071,0.017c-0.093,0.016-0.336,0.225-0.379,0.378c-0.077,0.271-0.028,0.126-0.064,0.033l-0.082-0.4
							c-0.284-1.203-0.534-2.51-0.649-3.778c-0.284-2.554-0.185-5.139,0.074-7.645c0.131-1.25,0.297-2.485,0.382-3.671
							c0.093-1.161,0.068-2.367-0.416-2.917c-0.441-0.588-1.643-0.782-2.788-0.765c-0.244,0-0.616,0.02-0.89,0.04
							c-0.277,0.022-0.558,0.054-0.843,0.104c-0.562,0.098-1.106,0.244-1.613,0.464c-1.015,0.433-1.839,1.187-2.396,2.171
							c-0.568,0.979-0.874,2.143-1.062,3.327c-0.379,2.385-0.303,4.871-0.218,7.339C5.268,31.003,5.318,32.25,5.43,33.463z"/>
					</g>
				</g>
				<path fill="none" stroke="#000000" stroke-width="0.3581" stroke-miterlimit="10" d="M16.571,32.476
					C12.229,32.068,4.95,29.002,4.95,29.002"/>
				<path fill="none" stroke="#000000" stroke-width="0.3581" stroke-miterlimit="10" d="M16.369,31.604
					c-4.34-0.406-11.621-3.473-11.621-3.473"/>
				<path fill="none" stroke="#000000" stroke-width="0.3581" stroke-miterlimit="10" d="M16.616,33.353
					c-4.342-0.406-11.623-3.474-11.623-3.474"/>
				<path fill="none" stroke="#000000" stroke-width="0.3581" stroke-miterlimit="10" d="M16.765,34.226
					c-4.342-0.407-11.621-3.472-11.621-3.472"/>
				<path fill="none" stroke="#000000" stroke-width="0.3581" stroke-miterlimit="10" d="M16.547,35.117
					c-4.342-0.407-11.621-3.472-11.621-3.472"/>
				<path fill="none" stroke="#000000" stroke-width="0.3581" stroke-miterlimit="10" d="M14.142,35.917
					C9.802,35.509,5.013,33.4,5.013,33.4"/>
				<path fill="none" stroke="#000000" stroke-width="0.3581" stroke-miterlimit="10" d="M15.168,35.454
					C10.829,35.047,4.521,32.2,4.521,32.2"/>
				<path fill="none" stroke="#000000" stroke-width="0.3581" stroke-miterlimit="10" d="M9.958,36.08
					c-2.724-0.761-4.895-1.693-4.895-1.693"/>
				<path fill="none" stroke="#000000" stroke-width="0.3581" stroke-miterlimit="10" d="M12.904,35.933
					c-1.855-3.33-3.62-6.331-3.62-6.331"/>
				<path fill="none" stroke="#000000" stroke-width="0.3581" stroke-miterlimit="10" d="M14.608,36.247
					c-2.774-3.366-4.136-7.438-4.136-7.438"/>
				<path fill="none" stroke="#000000" stroke-width="0.3581" stroke-miterlimit="10" d="M15.885,36.181
					c-2.772-3.365-4.229-7.432-4.229-7.432"/>
				<path fill="none" stroke="#000000" stroke-width="0.3581" stroke-miterlimit="10" d="M17.083,36.122
					c-2.771-3.364-4.122-7.184-4.122-7.184"/>
				<path fill="none" stroke="#000000" stroke-width="0.3581" stroke-miterlimit="10" d="M16.615,33.352
					c-2.451-3.156-2.938-4.451-2.938-4.451"/>
				<path fill="none" stroke="#000000" stroke-width="0.3581" stroke-miterlimit="10" d="M11.761,35.94
					c-1.63-3.506-3.068-5.688-3.068-5.688"/>
				<path fill="none" stroke="#000000" stroke-width="0.3581" stroke-miterlimit="10" d="M11.022,35.975
					c-2.772-3.363-3.668-7.112-3.668-7.112"/>
				<path fill="none" stroke="#000000" stroke-width="0.3581" stroke-miterlimit="10" d="M10.133,36.07
					c-2.772-3.364-3.563-6.734-3.563-6.734"/>
				<path fill="none" stroke="#000000" stroke-width="0.3581" stroke-miterlimit="10" d="M8.274,36.425
					c-2.338-3.416-2.889-5.789-2.889-5.789"/>
				<path fill="none" stroke="#000000" stroke-width="0.3581" stroke-miterlimit="10" d="M9.24,36.377
					c-2.772-3.366-3.351-6.936-3.351-6.936"/>
				<path fill="none" stroke="#000000" stroke-width="0.3581" stroke-miterlimit="10" d="M6.974,36.033
					c-1.381-2.47-2.252-4.666-2.252-4.666"/>
			</g>
			<g>
				<path fill="#3D3D3D" d="M12.455,3.182c10.652-0.48,5.322,2.783,5.92,16.097c0.598,13.312,4.604,9.539-6.049,10.017
					c-10.651,0.48-10.471,3.949-11.068-9.362C0.661,6.619,1.802,3.66,12.455,3.182z"/>
				<g>
					<path d="M-0.293,18.145c0.076-2.305,0.281-4.643,0.866-6.986c0.583-2.314,1.67-4.761,3.688-6.478
						c2.003-1.73,4.565-2.434,6.931-2.646c1.203-0.102,2.369-0.14,3.625-0.002c1.222,0.151,2.621,0.47,3.766,1.509
						c0.555,0.516,0.975,1.171,1.221,1.827c0.253,0.658,0.375,1.31,0.44,1.937c0.126,1.254,0.058,2.428-0.029,3.577
						c-0.184,2.296-0.515,4.506-0.648,6.728c-0.157,2.22-0.168-0.581-0.018,1.625l-0.006-0.008
						c-0.164,1.521-0.158,3.045-0.053,4.559c0.104,1.532,0.375,2.966,0.667,4.562c0.025,0.215,0.062,0.429,0.014,0.753
						c-0.026,0.159-0.099,0.381-0.27,0.562s-0.374,0.259-0.523,0.299c-0.586,0.121-0.934,0.062-1.342,0.057
						c-0.779-0.04-1.531-0.083-2.29-0.095c-1.514-0.025-3.029,0.025-4.54,0.195c-1.512,0.153-3,0.395-4.525,0.65
						c-0.771,0.123-1.535,0.271-2.438,0.294C3.789,31.066,3.271,31.04,2.7,30.806c-0.578-0.228-1.083-0.73-1.35-1.2
						c-0.54-0.953-0.673-1.786-0.827-2.599c-0.135-0.811-0.222-1.596-0.3-2.377c-0.153-1.56-0.267-3.099-0.387-4.635
						C-0.281,17.731-0.38,20.45-0.293,18.145z M2.761,24.461c0.025,0.755,0.062,1.505,0.133,2.223
						c0.069,0.7,0.182,1.425,0.381,1.833c0.102,0.205,0.164,0.278,0.297,0.36c0.136,0.082,0.399,0.145,0.713,0.165
						c0.638,0.041,1.405-0.026,2.161-0.093c1.525-0.149,3.094-0.292,4.656-0.341c1.562-0.044,3.129-0.066,4.691,0.023
						c0.78,0.042,1.564,0.116,2.321,0.185c0.356,0.03,0.789,0.062,0.959,0.018c0.036-0.01,0.017-0.013-0.023,0.026
						c-0.038,0.041-0.041,0.074-0.035,0.045c0.012-0.057,0.002-0.23-0.024-0.396c-0.106-0.697-0.307-1.477-0.47-2.231l-0.467-2.301
						l-0.846-4.645l-0.006-0.033l0.001,0.025c-0.11-4.597,0.5-4.195,0.809-8.596c0.062-1.093,0.095-2.18-0.027-3.165
						c-0.12-0.994-0.427-1.814-0.979-2.29c-0.548-0.494-1.452-0.753-2.443-0.846c-0.985-0.093-2.081-0.043-3.116,0.069
						C9.364,4.728,7.391,5.373,5.985,6.65c-1.423,1.26-2.262,3.132-2.729,5.162c-0.903,4.11-0.676,3.615-0.579,8.057
						C2.698,21.409,2.711,22.947,2.761,24.461z"/>
				</g>
			</g>
		</g>
	</g>
	<path fill="#565656" d="M2.953,16.605c0.182-0.958,0.469-1.896,0.927-2.761c1.35-2.552,3.673-4.343,6.318-5.376
		c0.937-0.364,1.885-0.699,2.89-0.799c0.768-0.074,1.538-0.143,2.301-0.253c0.436-0.062,1.429-0.077,1.727-0.455
		c0.19-0.242,0.423-0.761,0.326-1.089c-0.294-0.991-1.911-1.285-1.911-1.285C9.211,3.89,7.043,5.873,7.043,5.873
		c-5.252,2.866-4.481,9.176-4.481,9.184C2.487,13.964,2.751,17.677,2.953,16.605z"/>
</g>
</svg>
