<?xml version="1.0" encoding="utf-8"?>
<!-- Generator: Adobe Illustrator 16.0.0, SVG Export Plug-In . SVG Version: 6.00 Build 0)  -->
<!DOCTYPE svg PUBLIC "-//W3C//DTD SVG 1.1//EN" "http://www.w3.org/Graphics/SVG/1.1/DTD/svg11.dtd">
<svg version="1.1" id="Layer_1" xmlns="http://www.w3.org/2000/svg" xmlns:xlink="http://www.w3.org/1999/xlink" x="0px" y="0px"
	 width="139.777px" height="139.778px" viewBox="41.111 80.222 139.777 139.778"
	 enable-background="new 41.111 80.222 139.777 139.778" xml:space="preserve">
<g>
	<g>
		<g>
			<path fill="#DE1F26" d="M155.59,189.909c0,2.905-2.354,5.259-5.261,5.259H72.194c-2.904,0-5.259-2.354-5.259-5.259v-78.137
				c0-2.905,2.355-5.26,5.259-5.26h78.135c2.906,0,5.261,2.355,5.261,5.26V189.909z"/>
			<g>
				<path fill="#620C0D" d="M140.056,195.168h10.273c2.906,0,5.261-2.354,5.261-5.259v-16.577c-2.063,2.656-4.123,5.135-6.185,7.608
					C145.516,185.801,144.3,191.043,140.056,195.168z"/>
				<path fill="#620C0D" d="M99.396,106.512H72.194c-2.904,0-5.259,2.355-5.259,5.26v11.33c6.327-3.935,14.535-5.697,20.616-7.725
					C92.018,113.89,96.083,110.707,99.396,106.512z"/>
				<path fill="#7C1319" d="M95.593,122.18c3.092-3.71,11.752-1.855,17.319-4.949c3.907-2.509,5.164-6.405,5.374-10.721h-18.89
					c-3.311,4.194-7.378,7.377-11.844,8.865c-6.083,2.029-14.291,3.79-20.616,7.725v25.089c1.637-2.437,2.869-5.646,5.154-6.216
					C83.841,138.882,88.79,131.458,95.593,122.18z"/>
				<path fill="#C82026" d="M137.327,106.512h-19.041c-0.21,4.314-1.469,8.212-5.374,10.723c-5.567,3.092-14.226,1.237-17.319,4.949
					c-6.805,9.278-11.752,16.698-23.504,19.794c-2.286,0.569-3.518,3.778-5.154,6.216v24.601c3.114-1.444,6.215-2.827,8.245-6.079
					c3.712-6.185,3.712-14.226,9.896-17.316c6.805-3.094,14.227-5.567,16.701-11.754c4.331-10.515,15.462-16.698,25.36-21.03
					C131.46,114.762,134.549,110.909,137.327,106.512z"/>
				<path fill="#C82026" d="M128.377,161.768c2.474-3.712,8.039-3.091,11.752-5.567c6.185-4.329,0-11.132,2.474-17.318
					c0.618-1.237,1.237-3.091,2.473-3.091c4.87-1.484,8.217-4.561,10.515-8.465v-7.285c-1.644,1.177-3.339,2.115-4.947,2.76
					c-12.987,5.566-18.557,16.701-26.597,27.834c-2.474,3.712-7.421,7.42-10.516,10.516c-8.615,9.691-10.67,22.66-17.174,34.017
					h11.21c0.882-2.3,1.628-4.761,2.255-7.42c0.617-3.708,4.329-6.183,8.039-8.657C124.046,175.375,124.664,167.335,128.377,161.768
					z"/>
				<path fill="#DE1F26" d="M150.329,106.512h-1.669h-11.333c-2.778,4.396-5.867,8.252-10.189,10.102
					c-9.898,4.333-21.029,10.515-25.36,21.032c-2.475,6.188-9.896,8.658-16.701,11.752c-6.185,3.093-6.185,11.136-9.896,17.319
					c-2.029,3.249-5.131,4.632-8.245,6.076v17.115c0,2.905,2.355,5.259,5.259,5.259h11.485h12.677
					c6.504-11.356,8.559-24.325,17.174-34.019c3.093-3.094,8.04-6.805,10.516-10.518c8.04-11.133,13.609-22.265,26.597-27.833
					c1.608-0.644,3.304-1.583,4.947-2.758v-8.271C155.59,108.867,153.235,106.512,150.329,106.512z"/>
				<path fill="#7C1319" d="M145.075,135.787c-1.237,0-1.855,1.857-2.473,3.093c-2.474,6.188,3.709,12.989-2.474,17.318
					c-3.711,2.475-9.277,1.855-11.752,5.567c-3.711,5.565-4.331,13.609-10.517,17.317c-3.71,2.475-7.422,4.949-8.039,8.662
					c-0.629,2.659-1.373,5.12-2.255,7.42h21.706h10.785c4.244-4.126,5.46-9.367,9.35-14.228c2.062-2.471,4.122-4.953,6.185-7.608
					v-17.418v-28.589C153.292,131.227,149.945,134.307,145.075,135.787z"/>
			</g>
		</g>
		<g>
			<path d="M156.356,189.947c-0.005,1.998-1.173,4.04-2.927,5.082c-0.872,0.545-1.892,0.841-2.916,0.876l-2.722,0.054l-10.801,0.189
				l-21.599,0.375l-43.199,0.855c-2.56,0.054-5.135-1.323-6.484-3.545c-0.697-1.098-1.089-2.392-1.146-3.693l-0.054-2.771
				l-0.175-10.801l-0.353-21.598c-0.202-14.4-0.3-28.799-0.323-43.199c-0.023-2.925,1.585-5.82,4.108-7.311
				c1.244-0.771,2.708-1.191,4.166-1.239l2.797-0.001l10.8,0.031l21.601,0.135c7.198,0.043,14.401,0.162,21.599,0.292l21.724,0.368
				c0.266,0.024,0.353,0.01,0.769,0.066c0.387,0.049,0.763,0.12,1.061,0.211c0.64,0.167,1.249,0.435,1.819,0.76
				c1.136,0.663,2.098,1.606,2.752,2.74c0.67,1.121,1.02,2.428,1.039,3.719l-0.051,2.769l-0.233,10.8l-0.465,21.601l-0.79,43.198
				v0.035H156.356z M154.823,189.909l-0.787-43.198l-0.467-21.602l-0.233-10.8l-0.064-2.629c-0.04-0.507-0.191-0.99-0.474-1.401
				c-0.267-0.415-0.652-0.748-1.078-0.978c-0.216-0.108-0.438-0.204-0.675-0.247c-0.133-0.038-0.202-0.037-0.263-0.047
				c-0.03-0.022-0.396-0.021-0.576-0.03l-21.476,0.368c-7.197,0.129-14.4,0.248-21.599,0.292l-21.601,0.132l-10.798,0.033
				l-2.6,0.012c-0.34,0.011-0.667,0.094-0.952,0.272c-0.599,0.345-0.96,1-0.971,1.686c-0.023,14.398-0.121,28.797-0.323,43.199
				l-0.352,21.596L69.36,187.37l-0.039,2.624c0,0.5,0.112,0.991,0.366,1.427c0.481,0.898,1.458,1.493,2.508,1.533l43.199,0.858
				l21.599,0.375l10.801,0.188l2.676,0.036c0.772-0.018,1.54-0.225,2.204-0.631c1.365-0.792,2.167-2.3,2.151-3.912v0.04H154.823z"/>
		</g>
	</g>
	<g>
		<g>
			<g>
				<polygon fill="#E8B97D" points="142.88,142.444 122.137,136.789 103.674,136.789 91.789,144.563 88.394,154.587 84.96,158.216 
					84.96,165.238 86.486,171.988 91.582,174.729 92.719,176.467 139.327,177.704 142.88,156.17 147.322,148.144 144.343,139.264 
									"/>
				<g>
					<path fill="#7B3519" d="M150.509,141.264h-3.978l-1.371,6.88c0,0-1.718,5.949-1.786,6.508
						c-0.071,0.561-2.312,9.518-2.312,9.518h1.661l7.277-12.346l0.504-6.146v-4.414H150.509z"/>
					<g>
						<path fill="#7B3519" d="M151.396,139.802c0,0,2.688,7.792-2.296,16.236c-4.974,8.448-8.161,9.204-8.161,9.204"/>
						<path fill="#010101" d="M153.046,139.247c-0.233,0.882,0.043,1.422,0.119,2.099c0.104,0.649,0.173,1.298,0.213,1.947
							c0.083,1.298,0.048,2.599-0.091,3.887c-0.282,2.576-1.029,5.085-2.136,7.403c-0.555,1.17-1.22,2.26-1.88,3.302
							c-0.674,1.058-1.38,2.087-2.146,3.088c-0.756,1.01-1.569,1.987-2.481,2.9c-0.46,0.456-0.941,0.897-1.478,1.305
							c-0.268,0.202-0.548,0.402-0.851,0.584c-0.15,0.094-0.311,0.179-0.483,0.265c-0.194,0.089-0.298,0.153-0.649,0.256
							l-0.487-2.082c-0.06,0.015,0.117-0.046,0.195-0.089c0.104-0.054,0.211-0.11,0.321-0.179c0.217-0.131,0.441-0.288,0.657-0.453
							c0.438-0.335,0.857-0.72,1.267-1.122c0.813-0.813,1.571-1.717,2.28-2.665c0.698-0.954,1.354-1.954,1.978-2.974
							c0.629-1.034,1.215-2.045,1.687-3.097c0.964-2.108,1.517-4.384,1.688-6.675c0.082-1.147,0.071-2.3-0.048-3.437
							c-0.056-0.571-0.14-1.135-0.25-1.687c-0.134-0.526-0.119-1.188-0.726-1.467L153.046,139.247z"/>
					</g>
					<g>
						<polygon fill="#7B3519" points="86.443,154.812 80.309,155.51 80.309,148.144 88.394,148.144 						"/>
						<g>
							<path fill="#E8B97D" d="M87.542,154.7c-3.152-0.291-6.397,0.744-7.755,3.773c-2.054,4.59-1.749,10.177,0.931,14.441
								c2.364,3.754,7.648,8.536,12.004,4.571"/>
							<path fill="#010101" d="M87.487,155.522c-1.542-0.122-3.042,0.086-4.331,0.716c-1.296,0.645-2.209,1.659-2.715,3.085
								c-1.097,2.816-1.28,6.036-0.528,8.963c0.376,1.467,0.984,2.867,1.808,4.118c0.836,1.26,1.861,2.429,3.006,3.385
								c1.139,0.948,2.441,1.7,3.714,1.887c1.268,0.198,2.423-0.229,3.402-1.156l1.758,1.933c-0.713,0.635-1.574,1.184-2.555,1.49
								c-0.979,0.313-2.04,0.364-3.009,0.189c-1.959-0.364-3.524-1.401-4.846-2.546c-1.323-1.17-2.428-2.499-3.357-3.976
								c-0.929-1.49-1.589-3.131-1.977-4.824c-0.772-3.395-0.483-6.979,0.863-10.192c0.305-0.759,0.799-1.664,1.438-2.326
								c0.637-0.689,1.416-1.235,2.245-1.62c1.66-0.77,3.51-0.941,5.195-0.77L87.487,155.522z"/>
						</g>
						<polygon fill="#E92629" points="139.696,176.014 117.356,177.704 92.111,175.864 95.791,181.789 99.536,185.249 
							103.912,187.883 116.843,191.196 128.148,190.703 136.767,183.669 						"/>
						<path fill="#C49560" d="M144.38,145.927c0,0-5.974,8.302-24.268,4.063c0,0-11.692-3.354-14.641-1.061
							c0,0-8.238,3.198-11.954,18.994c0,0-5.488-6.066-5.124-10.673l4.325-13.298c0,0,15.106-9.502,15.632-9.321
							c0.533,0.171,14.862,0.877,14.862,0.877s3.78,1.943,4.264,2.738c0.479,0.795,7.845,2.138,7.845,2.138l4.374,0.879h4.681
							L144.38,145.927L144.38,145.927z"/>
						<path fill="#B02326" d="M138.187,177.676c0,0-13.285,21.465-44.954-0.64l1.679,3.345l6.798,6.08l17.82,5.641l10.765-2.625
							l5.854-4.563l2.247-4.304L138.187,177.676z"/>
						<path fill="#5A2616" d="M150.848,141.264l-4.596,3.59l-0.468,4.982C145.786,149.838,150.636,146.838,150.848,141.264z"/>
						<g>
							<path fill="#010101" d="M90.97,173.136c1.779,1.469,2.63,3.148,3.678,4.8c1.064,1.618,2.279,3.127,3.634,4.446
								c1.369,1.298,2.863,2.438,4.526,3.188c0.793,0.35,1.8,0.688,2.724,1.02l2.834,0.98c1.892,0.631,3.797,1.223,5.712,1.705
								c0.953,0.239,1.913,0.448,2.854,0.602c0.487,0.078,0.91,0.132,1.425,0.179l1.541,0.186c0.998,0.125,1.945,0.242,2.849,0.235
								c0.928,0,1.684-0.143,2.654-0.41c1.815-0.488,3.576-1.266,5.172-2.274c3.209-2.019,5.753-4.975,6.9-8.572
								c1.231-3.598,1.508-7.577,1.879-11.603c0.186-2.019,0.388-4.068,0.756-6.127c0.182-1.028,0.407-2.061,0.693-3.082
								c0.296-1.042,0.592-1.944,0.916-2.951c0.631-1.932,1.277-3.822,1.754-5.704c0.235-0.945,0.434-1.888,0.566-2.835
								c0.124-0.95,0.199-1.881,0.6-2.844l1.833,0.011c0.388,1.056,0.307,2.146,0.153,3.193c-0.144,1.056-0.357,2.094-0.608,3.109
								c-0.506,2.036-1.164,3.978-1.778,5.89c-0.624,1.922-1.184,3.753-1.492,5.674c-0.336,1.926-0.524,3.901-0.699,5.905
								c-0.344,4-0.644,8.172-2.046,12.254c-0.658,2.016-1.771,4.016-3.153,5.671c-1.39,1.676-3.052,3.098-4.878,4.235
								c-1.827,1.141-3.808,1.996-5.894,2.567c-0.968,0.278-2.218,0.514-3.312,0.495c-1.12,0.008-2.187-0.117-3.191-0.239
								l-1.473-0.167c-0.49-0.042-1.071-0.11-1.58-0.188c-1.052-0.164-2.073-0.382-3.079-0.628
								c-2.011-0.485-3.979-1.048-5.929-1.665c-1.979-0.632-3.815-1.227-5.858-2.075c-2.018-0.935-3.813-2.246-5.302-3.794
								c-1.506-1.536-2.759-3.266-3.808-5.092c-1.073-1.79-1.998-3.761-1.637-6.072L90.97,173.136z"/>
						</g>
						<path fill="#7B3519" d="M86.44,148.946c0.116,1.318,0.318,2.592,0.587,3.823c0.802,4.986,2.325,8.885,4.614,13.332
							c-0.26-0.496,0.144-2.336,0.173-2.878c0.138-2.432,0.457-4.839,1.207-7.163c1.644-5.122,5.29-11.812,10.795-13.421
							c6.766-1.982,14.028,2.271,20.664,3.312c5.271,0.831,10.646,1.453,15.944,0.509c3.47-0.615,8.154-4.505,10.689-6.812
							c3.329-3.027,5.839-6.875,7.242-11.16c2.916-8.938,0.646-18.903-7.646-24.02c-4.735-2.923-10.967-4.649-16.463-5.354
							c0,0,6.487,6.772,4.188,13.129c0,0-20.45-25.29-52.783-4.785c0,0,8.636-0.509,12.255,1.43c0,0-54.816,5.598-18.965,52.039"/>
						<path fill="#A34D2C" d="M82.998,154.587c-1.453-2.293-2.771-4.739-3.833-7.228c-1.731-4.063-3.894-9.302-3.387-13.787
							c0.502-4.421,4.163-8.051,7.614-10.379c3.849-2.601,7.984-4.989,12.46-6.308c4.774-1.413,20.348-3.209,20.54-2.859
							c0,0-3.539-6.832-11.055-8.714c0,0,13.9-5.413,36.394,16.247c0,0,5.548-2.592,3.188-13.423c0,0,9.989-2.393,14.526,10.572
							l-5.513-13.157l-10.586-4.407l-9.096-2.033l2.759,3.834l1.897,5.756l-0.469,3.538l-2.974-3.001l-7.984-5.533l-9.232-3.414
							l-7.923-0.855l-9.98,1.37l-7.363,2.656l-5.115,3.932l8.595,0.906l1.449,0.583l-9.242,1.951l-6.916,2.59l-9.183,6.198
							c0,0-11.317,9.729-1.393,29.376l6.745,10.587l0.524,1.848l2.109-4.228L82.998,154.587z"/>
						<path fill="#C49560" d="M86.985,157.25c0,0-7.355,2.037-6.677,12.873c-0.014-0.186-0.221-0.481-0.285-0.659
							c-0.234-0.617-0.421-1.248-0.553-1.891c-0.451-2.153-0.233-4.479,0.195-6.635c0.645-3.235,2.319-4.81,4.979-5.514
							c0.12-0.033,1.696-0.429,1.744-0.26L86.985,157.25z"/>
						<path fill="#5A2616" d="M158.565,118.497c0.114,0.792-0.914,2.229-1.265,2.853c-1.193,2.146-2.577,4.204-4.002,6.204
							c-2.114,2.984-4.887,6.101-7.971,8.112c-3.471,2.268-7.482,2.62-11.517,2.085c-2.844-0.374-5.601-1.13-8.383-1.793
							c-4.299-1.028-8.622-1.354-13.025-1.498c-3.555-0.114-7.252-0.131-10.577,1.313c-3.355,1.454-5.641,4.295-7.442,7.381
							c-1.296,2.211-2.489,4.449-3.409,6.839c-0.89,2.313-1.496,4.795-1.748,7.264c-0.942,9.284,1.71,6.92,1.71,6.92l1.781-7.082
							l1.332-3.862l1.882-4.002l1.884-3.673l4.593-2.563l6.004-0.122l6.515,0.504l8.86,2.182l10.165,1.371l8.758-1.226l6.304-4.229
							l6.384-6.842l2.493-4.856l1.553-4.911C159.446,124.856,158.565,118.497,158.565,118.497z"/>
						<g>
							<path fill="#010101" d="M86.479,148.946c0.27,0.348,0.423,0.718,0.647,1.059c0.178,0.349,0.326,0.688,0.51,1.03
								c0.194,0.336,0.301,0.685,0.465,1.023c0.077,0.194,0.12,0.279,0.203,0.57l0.175,0.542c0.199,0.717,0.411,1.38,0.65,2.076
								c0.215,0.688,0.433,1.376,0.674,2.049l1.26,4.153c0.395,1.417,0.72,2.884,0.576,4.652l0,0l0,0
								c-0.385-0.667-0.353-1.469-0.407-2.18l-0.023-0.527l-0.055-0.502c-0.03-0.357-0.063-0.714-0.079-1.089
								c-0.069-1.468-0.025-2.949,0.227-4.435c0.51-2.972,1.679-5.725,3.118-8.355c1.473-2.606,3.415-5.118,6.213-6.867
								c2.902-1.781,6.32-2.018,9.344-1.669c3.061,0.358,5.871,1.261,8.566,2.104c1.35,0.418,2.68,0.828,3.99,1.156
								c0.653,0.166,1.309,0.309,1.951,0.421l2.062,0.325c2.762,0.404,5.512,0.698,8.223,0.698c1.354,0,2.698-0.071,4.025-0.238
								c0.646-0.085,1.378-0.187,1.842-0.316c0.54-0.155,1.106-0.391,1.676-0.67c2.282-1.151,4.485-2.867,6.564-4.653l0.773-0.687
								l0.753-0.695c0.48-0.464,0.916-0.912,1.365-1.421c0.877-0.989,1.683-2.049,2.384-3.169c2.831-4.463,4.185-9.909,3.47-15.085
								c-0.352-2.578-1.231-5.068-2.63-7.215c-1.391-2.149-3.295-3.948-5.528-5.254c-4.605-2.696-10.027-4.184-15.44-4.909l0,0
								l1.502-2.976c0.953,1.039,1.685,2.03,2.401,3.14c0.699,1.099,1.317,2.264,1.804,3.518c0.485,1.252,0.842,2.596,0.941,4.016
								c0.109,1.414-0.063,2.904-0.564,4.284l-1.04,2.86l-2.015-2.347c-1.396-1.625-3.198-3.247-5.017-4.63
								c-1.845-1.402-3.809-2.642-5.869-3.688c-4.124-2.09-8.616-3.407-13.209-3.75c-4.596-0.357-9.252,0.254-13.702,1.62
								c-4.458,1.361-8.711,3.447-12.705,5.961l-0.997-3.088c1.105-0.055,2.152-0.066,3.227-0.051
								c1.07,0.017,2.143,0.058,3.22,0.148c1.082,0.089,2.168,0.22,3.271,0.437c1.107,0.229,2.229,0.506,3.409,1.126l4.595,2.402
								l-5.201,0.67c-5.832,0.748-11.802,2.391-17.066,5.045c-2.63,1.343-5.097,2.985-7.155,5.002
								c-2.059,2.006-3.68,4.411-4.592,7.082c-0.923,2.667-1.141,5.573-0.8,8.447c0.332,2.884,1.178,5.738,2.308,8.487
								c2.309,5.506,5.611,10.618,9.001,15.696l-1.661,1.283c-4.103-4.682-7.656-9.944-10.112-15.826
								c-1.223-2.937-2.173-6.04-2.563-9.285c-0.398-3.229-0.178-6.629,0.902-9.801c1.064-3.177,2.978-6.026,5.313-8.324
								c2.338-2.315,5.06-4.13,7.904-5.6c2.849-1.469,5.832-2.603,8.866-3.5c3.056-0.89,6.09-1.571,9.326-1.972l-0.608,3.075
								c-0.66-0.347-1.569-0.603-2.495-0.78c-0.934-0.179-1.909-0.291-2.897-0.368c-0.99-0.077-1.993-0.11-2.999-0.12
								c-0.998-0.007-2.031,0.012-2.995,0.066l-6.386,0.347l5.391-3.436c4.179-2.665,8.683-4.916,13.487-6.415
								c4.792-1.5,9.9-2.214,14.973-1.849c5.073,0.347,10.071,1.77,14.572,4.08c2.257,1.15,4.403,2.506,6.411,4.038
								c2.02,1.559,3.857,3.174,5.619,5.229l-3.055,0.513c0.653-1.761,0.439-3.827-0.338-5.808
								c-0.385-0.991-0.894-1.964-1.485-2.897c-0.581-0.913-1.296-1.862-1.968-2.596l-3.348-3.651l4.849,0.676l0,0
								c5.799,0.792,11.562,2.341,16.779,5.385c2.662,1.558,5.005,3.757,6.688,6.377c1.703,2.61,2.744,5.608,3.157,8.649
								c0.829,6.103-0.76,12.326-3.993,17.43c-0.805,1.282-1.723,2.49-2.729,3.621c-0.488,0.559-1.04,1.127-1.583,1.647
								l-0.811,0.747l-0.82,0.722c-2.22,1.9-4.517,3.729-7.307,5.144c-0.706,0.346-1.451,0.659-2.275,0.895
								c-0.905,0.24-1.589,0.317-2.345,0.425c-1.487,0.188-2.984,0.272-4.462,0.275c-2.965,0.009-5.879-0.302-8.728-0.711
								l-2.146-0.32c-0.755-0.125-1.493-0.278-2.213-0.456c-1.444-0.349-2.834-0.766-4.194-1.18
								c-2.72-0.813-5.354-1.646-7.936-1.975c-2.559-0.328-5.133-0.067-7.135,1.116c-2.089,1.194-3.827,3.246-5.241,5.492
								c-1.417,2.269-2.479,4.798-3.341,7.333c-0.423,1.273-0.769,2.612-1.093,3.968c-0.086,0.332-0.163,0.685-0.239,1.038
								c-0.038,0.16-0.082,0.36-0.143,0.556l-0.175,0.524c-0.205,0.681-0.554,1.326-0.549,2.036l0,0l0,0
								c-1.517-0.909-2.501-2.15-3.286-3.498c-0.367-0.688-0.706-1.39-1.026-2.105c-0.313-0.721-0.546-1.47-0.79-2.218
								c-0.196-0.763-0.357-1.532-0.492-2.305c-0.104-0.767-0.198-1.576-0.255-2.339l-0.036-1.104
								c0.005-0.399-0.012-0.791,0.057-1.194c0.046-0.396,0.116-0.806,0.18-1.203c0.13-0.401,0.22-0.783,0.409-1.179L86.479,148.946
								z"/>
						</g>
					</g>
					<g>
						<polygon fill="#010101" points="101.496,157.312 101.081,162.771 117.795,166.653 118.361,164.453 						"/>
						<ellipse fill="#010101" cx="109.556" cy="167.216" rx="3.038" ry="5.784"/>
					</g>
					<g>
						<polygon fill="#010101" points="137.931,157.394 138.307,162.855 123.293,166.739 122.781,164.539 						"/>
						<path fill="#010101" d="M127.962,167.307c0,3.19,1.223,5.775,2.729,5.775c1.506,0,2.73-2.585,2.73-5.775
							c0-3.195-1.225-5.784-2.73-5.784C129.185,161.522,127.962,164.111,127.962,167.307z"/>
					</g>
					<g>
						<path fill="#010101" d="M140.29,177.649c-1.157,0.36-2.091,0.535-3.124,0.731c-1.009,0.179-2.013,0.321-3.016,0.439
							c-2.006,0.238-4.005,0.385-6.002,0.474c-3.994,0.175-7.972,0.117-11.932-0.071c-7.925-0.385-15.787-1.312-23.587-2.528
							l0.182-1.361c7.809,0.862,15.648,1.43,23.468,1.465c3.908,0.011,7.809-0.11,11.676-0.453c1.931-0.171,3.852-0.399,5.745-0.709
							c0.945-0.157,1.885-0.336,2.807-0.542c0.897-0.2,1.887-0.456,2.6-0.717L140.29,177.649z"/>
					</g>
					<path fill="#010101" d="M82.998,154.587c0,0-4.165,1.492-5.076,7.26l1.606-0.107c0,0,0.542-4.617,3.656-5.794L82.998,154.587z"
						/>
				</g>
			</g>
			<g>
				<path fill="#010101" d="M121.577,173l2.273,4.211l-0.1-0.185l0.115,0.652c0.2,1.112,0.054,2.146-0.2,3.152
					c-0.14,0.495-0.282,0.998-0.524,1.472c-0.278,0.467-0.695,0.902-1.564,1.227c-0.629-0.681-0.807-1.255-0.847-1.796
					c-0.002-0.532,0.093-1.042,0.193-1.552c0.225-1.013,0.556-2.001,1.233-2.906l0.018,0.475L121.577,173z"/>
			</g>
		</g>
	</g>
</g>
</svg>
