<?xml version="1.0" encoding="UTF-8" standalone="no"?>
<!-- Generator: Adobe Illustrator 15.0.0, SVG Export Plug-In . SVG Version: 6.00 Build 0)  -->

<svg
   xmlns:dc="http://purl.org/dc/elements/1.1/"
   xmlns:cc="http://creativecommons.org/ns#"
   xmlns:rdf="http://www.w3.org/1999/02/22-rdf-syntax-ns#"
   xmlns:svg="http://www.w3.org/2000/svg"
   xmlns="http://www.w3.org/2000/svg"
   xmlns:sodipodi="http://sodipodi.sourceforge.net/DTD/sodipodi-0.dtd"
   xmlns:inkscape="http://www.inkscape.org/namespaces/inkscape"
   version="1.1"
   id="Layer_1"
   x="0px"
   y="0px"
   width="88"
   height="26"
   viewBox="0 -20.318 88 26"
   enable-background="new 0 -20.318 26 88.044"
   xml:space="preserve"
   inkscape:version="0.48.2 r9819"
   sodipodi:docname="ninja_weapon_1_effect_1.svg"><metadata
   id="metadata13"><rdf:RDF><cc:Work
       rdf:about=""><dc:format>image/svg+xml</dc:format><dc:type
         rdf:resource="http://purl.org/dc/dcmitype/StillImage" /></cc:Work></rdf:RDF></metadata><defs
   id="defs11" /><sodipodi:namedview
   pagecolor="#ffffff"
   bordercolor="#666666"
   borderopacity="1"
   objecttolerance="10"
   gridtolerance="10"
   guidetolerance="10"
   inkscape:pageopacity="0"
   inkscape:pageshadow="2"
   inkscape:window-width="1280"
   inkscape:window-height="777"
   id="namedview9"
   showgrid="false"
   inkscape:zoom="2.680478"
   inkscape:cx="13"
   inkscape:cy="44.021999"
   inkscape:window-x="-8"
   inkscape:window-y="-8"
   inkscape:window-maximized="1"
   inkscape:current-layer="Layer_1" />
<g
   id="g3"
   transform="matrix(0.04105123,0.99915704,-0.99915704,0.04105123,68.550198,-21.978252)">
	<path
   d="M 23.582,19.871 C 22.949,2.583 15.325,-12.122 4.752,-18.99 c 1.98,2.91 3.76,6.213 5.298,9.837 -1.917,-2.129 -4.014,-3.949 -6.248,-5.402 2.698,4.978 3.568,6.173 4.652,9.761 -1.275,-1.415 -4.288,-3.991 -4.403,-4.096 0.015,0.032 0.36,0.782 0.505,1.096 1.33,2.957 2.807,5.614 3.399,9.559 -1.016,-1.907 -1.747,-2.536 -4,-4.908 3.517,8.831 5.507,21.346 5.089,35.167 -0.418,13.7 -2.665,26.058 -7.104,34.569 -0.047,0.074 -0.115,0.208 -0.122,0.224 0.037,-0.036 0.09,-0.071 0.13,-0.107 3.847,-3.695 7.92,-7.211 11.19,-11.458 3.27,-4.251 5.737,-9.278 7.5,-14.328 1.046,-3.002 1.808,-6.162 2.292,-9.307 0.593,-3.847 0.796,-7.856 0.652,-11.746 z"
   id="path5"
   inkscape:connector-curvature="0"
   style="fill:#56c1ef" />
	<path
   d="m 10.33,56.186 c 25.232,-36.793 0.364,-67.861 0.364,-67.861 2.113,4.667 3.653,9.291 4.738,13.803 -2.438,-5.151 -4.813,-8.116 -4.813,-8.116 1.851,4.09 3.224,8.145 4.212,12.108 -2.191,-4.546 -4.277,-7.153 -4.277,-7.153 1.793,3.961 3.095,7.88 4.012,11.708 C 12.503,6.308 10.489,3.79 10.489,3.79 22.967,31.364 9.776,56.984 9.776,56.984 9.966,56.72 10.15,56.454 10.33,56.186 z"
   id="path7"
   inkscape:connector-curvature="0"
   style="fill:#ade1f7" />
</g>
</svg>