<?xml version="1.0" encoding="utf-8"?>
<!-- Generator: Adobe Illustrator 16.0.0, SVG Export Plug-In . SVG Version: 6.00 Build 0)  -->
<!DOCTYPE svg PUBLIC "-//W3C//DTD SVG 1.1//EN" "http://www.w3.org/Graphics/SVG/1.1/DTD/svg11.dtd">
<svg version="1.1"
	 id="Layer_1" sodipodi:docname="ninja_weapon_1.svg" inkscape:version="0.48.2 r9819" xmlns:sodipodi="http://sodipodi.sourceforge.net/DTD/sodipodi-0.dtd" xmlns:inkscape="http://www.inkscape.org/namespaces/inkscape" xmlns:svg="http://www.w3.org/2000/svg" xmlns:dc="http://purl.org/dc/elements/1.1/" xmlns:cc="http://creativecommons.org/ns#" xmlns:rdf="http://www.w3.org/1999/02/22-rdf-syntax-ns#"
	 xmlns="http://www.w3.org/2000/svg" xmlns:xlink="http://www.w3.org/1999/xlink" x="0px" y="0px" width="33.984px"
	 height="115.35px" viewBox="0 0 33.984 115.35" enable-background="new 0 0 33.984 115.35" xml:space="preserve">
<sodipodi:namedview  id="namedview41" inkscape:pageshadow="2" inkscape:window-width="1920" inkscape:pageopacity="0" inkscape:window-height="1032" inkscape:window-x="12" inkscape:window-y="0" inkscape:current-layer="g3" inkscape:window-maximized="0" borderopacity="1" objecttolerance="10" inkscape:zoom="8" inkscape:cx="24.104946" gridtolerance="10" inkscape:cy="51.189313" guidetolerance="10" pagecolor="#ffffff" showgrid="false" bordercolor="#666666">
	</sodipodi:namedview>
<g>
	<g>
		<g>
			<path d="M30.229,25.114l-1.51-0.043c-0.524-0.029-1.01,0.002-1.568-0.078l-1.631-0.177c-0.544-0.063-1.089-0.113-1.631-0.19
				l-1.611-0.335c-0.537-0.121-1.073-0.197-1.611-0.399l-1.612-0.533L18.1,23.044l-0.072-1.102l-1.09-16.437l-0.115-1.737
				l1.741-0.016l0.188-0.001h0.023l0.026,0h0.001c0.132-0.006-0.18,0.008-0.147,0.007l0.002,0h0.003l0.006,0l0.046-0.004
				l0.094-0.008l0.04-0.004l-0.059,0.001c-0.039,0.003-0.077,0.011-0.114,0.022c-0.086,0.033-0.086,0.023-0.129,0.05
				c-0.066,0.036-0.153,0.094-0.225,0.192c-0.091,0.099-0.159,0.251-0.193,0.431c-0.009,0.044-0.012,0.091-0.01,0.136l0.001,0.017
				l0.014,0.208L18.13,4.793L18.127,4.77l-0.006-0.046c-0.003-0.019-0.01-0.09-0.01-0.064c0.005,0.08,0.021,0.162,0.049,0.239
				c0.082,0.186,0.087,0.194,0.14,0.264c0.048,0.054,0.073,0.096,0.125,0.13c0.164,0.13,0.284,0.149,0.38,0.149l-0.199-0.011
				c0.29,0.038,0.639-0.022,0.899-0.155l-0.71,0.166l-0.089,0l-0.287,0.001l-1.281-1.126c-0.017-0.015-0.023-0.03-0.024-0.052
				c-0.019-0.019-0.036-0.039-0.045-0.065c-0.045-0.044-0.091-0.097-0.163-0.145c-0.024-0.033-0.081-0.04-0.116-0.067
				c-0.035-0.029-0.087-0.04-0.134-0.056c-0.045-0.021-0.092-0.04-0.147-0.043c-0.054-0.004-0.101-0.035-0.159-0.028
				c-0.056-0.001-0.111-0.005-0.167-0.013l-0.003,0l0,0c-0.029,0.001,0.254-0.013,0.133-0.007l-0.002,0l-0.012,0.001l-0.021,0.002
				L16.231,3.85l-0.088,0.008l-0.176,0.016L15.88,3.882l-0.044,0.004l-0.005,0l-0.004,0h-0.001c0.579-0.105,0.16-0.029,0.289-0.052
				l-0.011,0.003l-0.021,0.006l-0.17,0.047l-0.341,0.094c0.431-0.176-0.296,0.144,0.105-0.043l-0.301,0.185
				c-0.04,0.027-0.124,0.07-0.127,0.084c0.009,0.008,0.018,0.014,0.024,0.016c0.013,0.004,0.018-0.004,0.008-0.017l-0.037-0.05
				l-0.09,0.194c-0.014,0.031-0.033,0.054-0.061,0.073c-0.003,0.024-0.011,0.041-0.031,0.055l-1.499,0.997
				c0.101-0.002,0.224-0.025,0.386-0.159c0.086-0.069,0.165-0.177,0.232-0.333c0.028-0.079,0.048-0.162,0.062-0.254l0.002-0.067
				L14.244,4.63V4.628c0.011,0.174-0.016-0.239-0.013-0.196v0.001l0,0.003l0,0.005l0.001,0.012l0.012,0.093l0.006,0.046
				c-0.001-0.038-0.005-0.08-0.013-0.12c-0.014-0.081-0.041-0.161-0.076-0.233c-0.055-0.115-0.073-0.144-0.128-0.204
				c-0.073-0.097-0.161-0.154-0.228-0.189c-0.069-0.036-0.132-0.052-0.187-0.059c-0.004-0.008-0.103-0.001-0.031-0.001l0.187-0.002
				l1.748-0.015l-0.093,1.747l-0.896,16.841l-0.063,1.176l-1.059,0.296l-1.459,0.408c-0.487,0.151-0.973,0.244-1.458,0.327
				l-1.458,0.268c-0.486,0.098-0.968,0.116-1.453,0.177c-0.967,0.09-1.939,0.236-2.899,0.242l-2.887,0.104L3.432,23.7l0.022,3.568
				l-1.653-1.634l4.001-0.022l0.25-0.001l0.335,0.009l0.5,0.023l0.5,0.023l0.229,0.02l0.124,0.014l0.34,0.051l0.494,0.081
				l0.32,0.055l0.371,0.086l0.96,0.28l-0.472-0.069l0.01,0.003l0.563,0.1l1.139,0.499l0.053,0.023l0.181,0.124l0.186,0.126
				l0.007,0.005l0.729,0.555l-0.02,0.783c-0.09,3.533-0.169,7.065-0.185,10.598c-0.022,3.532-0.072,7.065-0.04,10.597l0.048,10.596
				l0.14,10.594l0.191,10.595l0.216,10.594l0.11,5.298l0.055,2.648l0.027,1.324c0.003,0.263,0.008,0.338,0.031,0.531
				c0.017,0.181,0.049,0.373,0.077,0.561c0.262,1.527,0.836,3.02,1.663,4.298c0.844,1.271,1.94,2.34,3.243,3.124l-0.277-0.138
				c1.648,0.66,3.317,1.27,4.948,1.976l0.007,0.003l-2.237,1.543c0.171-3.504,0.255-7.008,0.366-10.512
				c0.123-3.504,0.174-7.007,0.249-10.511l0.137-10.51l0.054-10.509l-0.026-10.509l-0.049-5.254
				c-0.027-1.751-0.035-3.503-0.096-5.254c-0.056-1.751-0.084-3.502-0.161-5.253c-0.082-1.751-0.131-3.502-0.238-5.253
				c-0.184-3.502-0.421-7.003-0.777-10.504v-0.001l-0.006-0.839l0.611-0.446l0.607-0.443l0.305-0.219l0.153-0.109l0.189-0.12
				l0.137-0.085l0.097-0.059l0.035-0.02c-0.048,0.028,0.008-0.002,0.006-0.001l0.194-0.099l0.036-0.017l0.074-0.033l0.146-0.067
				l0.588-0.266l0.259-0.092l-0.112,0.034l-0.054,0.021l-0.014,0.006l-0.007,0.003c0.074-0.028-0.175,0.066,0.165-0.062l0.008-0.002
				l0.06-0.019l0.12-0.037l0.24-0.073l0.479-0.147l0.184-0.049l0.062-0.014l0.122-0.028l0.327-0.063l0.494-0.088l0.315-0.053
				l0.376-0.044l0.501-0.029l0.501-0.03l0.332-0.014l0.251-0.001l4.016-0.03l-1.632,1.654L30.229,25.114z M33.499,21.92l0.03,5.154
				l0.011,1.642l-1.643,0.012l-4.015,0.029l-0.251,0.002l-0.063,0c0.163-0.005,0.044-0.001,0.08-0.003l-0.002,0h-0.004l-0.008,0
				l-0.016,0.001l-0.032,0.002l-0.125,0.007l-0.501,0.029l-0.501,0.03h-0.004c-0.028,0.003,0.239-0.023,0.125-0.012H26.58
				l-0.008,0.001l-0.016,0.002l-0.031,0.004l-0.062,0.008l-0.125,0.017l-0.031,0.004l-0.004,0c0.136-0.021,0.037-0.006,0.066-0.01
				l-0.002,0l-0.008,0.001l-0.016,0.003l-0.062,0.011l-0.123,0.022l-0.495,0.087l-0.123,0.022l-0.031,0.005l-0.015,0.003
				l-0.008,0.001l-0.004,0l-0.002,0c0.035-0.007-0.082,0.017,0.078-0.016l-0.062,0.014l-0.122,0.028l-0.062,0.014l-0.03,0.007
				l-0.004,0.001l-0.002,0c0.246-0.067,0.067-0.018,0.121-0.033l-0.007,0.002l-0.016,0.005l-1.032,0.317l0.259-0.092l-0.588,0.267
				l-0.146,0.066l-0.073,0.033l-0.037,0.017l-0.019,0.008l-0.009,0.004l-0.005,0.002l-0.001,0v0
				c-0.141,0.073,0.19-0.099,0.156-0.082l-0.002,0.001l-0.102,0.056c0.033-0.02-0.029,0.019-0.04,0.026l-0.137,0.085l-0.068,0.043
				L23.5,29.795l-0.017,0.011c0.097-0.06,0.019-0.011,0.037-0.022l-0.108,0.081l-0.218,0.159l-0.438,0.314l0.605-1.285v0.001
				c-0.312,3.505-0.504,7.009-0.642,10.513c-0.085,1.752-0.111,3.504-0.17,5.256c-0.056,1.751-0.062,3.503-0.094,5.255
				c-0.038,1.752-0.023,3.503-0.028,5.255l0.019,5.254l0.109,10.509l0.189,10.507l0.272,10.508c0.12,3.502,0.216,7.004,0.384,10.506
				c0.157,3.502,0.286,7.004,0.502,10.506l0.144,2.333l-2.381-0.79l-0.008-0.002c-1.681-0.579-3.323-1.254-4.986-1.877l-0.145-0.054
				l-0.133-0.084c-1.705-1.075-3.162-2.565-4.225-4.266c-1.048-1.716-1.717-3.604-2.007-5.564c-0.032-0.25-0.066-0.494-0.085-0.754
				c-0.026-0.246-0.033-0.612-0.028-0.791l0.003-1.324l0.008-2.649l0.015-5.298l0.027-10.597l0.001-10.596l-0.048-10.596
				L9.916,49.618c-0.031-3.532-0.144-7.063-0.229-10.594c-0.079-3.531-0.221-7.062-0.374-10.593l0.709,1.337l-0.011-0.007
				l-0.286-0.198l0.234,0.146l-0.76-0.333l0.563,0.1l-0.01-0.003l-0.472-0.069l-0.96-0.28L8.311,29.12
				c-0.114-0.029,0.153,0.039,0.125,0.032H8.434L8.43,29.151l-0.015-0.003l-0.031-0.006l-0.061-0.013l-0.122-0.027L8.194,29.1
				L8.19,29.099c0.032,0.006-0.074-0.014,0.071,0.014H8.259L8.244,29.11l-0.031-0.005l-0.062-0.01l-0.123-0.02l-0.494-0.082
				l-0.124-0.02l-0.062-0.01L7.334,28.96l-0.004,0c-0.021-0.003,0.174,0.024,0.091,0.012H7.419l-0.008-0.001L7.38,28.968
				l-0.125-0.014l-0.062-0.007l-0.016-0.001L7.17,28.945c-0.093-0.007,0.125,0.01,0.102,0.008H7.27H7.266l-0.031-0.001l-0.5-0.023
				l-0.5-0.023l-0.125-0.006l-0.031-0.002H6.072l-0.004,0c0.038,0.001-0.086-0.001,0.083,0.002H6.149H6.133l-0.063,0L5.821,28.9
				l-4.001,0.022l-1.643,0.009l-0.01-1.644L0.144,23.72l-0.01-1.594l1.644-0.06l2.729-0.099c0.916-0.004,1.8-0.143,2.698-0.225
				c0.444-0.056,0.903-0.071,1.335-0.16l1.305-0.241c0.438-0.074,0.873-0.155,1.281-0.286l1.248-0.345l-1.122,1.472l0.896-16.841
				l1.655,1.731l-0.187,0.001c-0.052,0.002-0.274-0.009-0.403-0.024c-0.302-0.038-0.605-0.125-0.897-0.273
				c-0.291-0.146-0.572-0.362-0.813-0.643c-0.123-0.164-0.219-0.292-0.327-0.519c-0.058-0.13-0.106-0.268-0.143-0.407l-0.045-0.207
				l-0.005-0.046l-0.012-0.093l-0.015-0.223l0.003-0.08l0.013-0.161c0.019-0.218,0.07-0.42,0.149-0.614
				c0.15-0.392,0.393-0.696,0.658-0.936c0.536-0.469,1.164-0.651,1.76-0.66L12.04,3.186c0.105-0.212,0.22-0.423,0.344-0.623
				c0.137-0.18,0.283-0.355,0.434-0.523l-0.126,0.144c0.158-0.178,0.331-0.351,0.512-0.512l0.276-0.232
				c0.084-0.064,0.11-0.071,0.168-0.109l0.301-0.185c0.603-0.308,0.094-0.088,0.75-0.33l0.34-0.094l0.17-0.047l0.021-0.006
				l0.312-0.057l0.044-0.004l0.088-0.008l0.177-0.016l0.088-0.008l0.226-0.014l0.538,0.032c0.18,0.007,0.359,0.059,0.537,0.092
				c0.179,0.032,0.354,0.088,0.529,0.155c0.174,0.063,0.348,0.125,0.515,0.222c0.166,0.094,0.337,0.168,0.491,0.291
				c0.32,0.218,0.612,0.494,0.873,0.81c0.122,0.169,0.241,0.342,0.348,0.522c0.096,0.194,0.184,0.394,0.262,0.595l-1.568-1.125
				l0.089,0l-0.71,0.166c0.265-0.133,0.616-0.192,0.909-0.155l-0.199-0.011c0.594,0,1.223,0.169,1.769,0.626
				c0.136,0.126,0.265,0.244,0.38,0.403c0.117,0.176,0.209,0.28,0.323,0.588c0.05,0.135,0.089,0.276,0.116,0.414l0.018,0.121
				l0.006,0.046l0.003,0.023l0.014,0.226l-0.002,0.04c-0.005,0.107-0.016,0.216-0.032,0.322c-0.065,0.429-0.258,0.805-0.492,1.106
				c-0.238,0.285-0.518,0.506-0.808,0.656c-0.157,0.073-0.264,0.135-0.474,0.193c-0.097,0.028-0.196,0.051-0.295,0.07l-0.149,0.025
				L19.1,7.019l-0.093,0.008l-0.227,0.012l-0.188,0.002l1.626-1.752l1.089,16.437l-1.027-1.417l1.328,0.434
				c0.428,0.17,0.92,0.235,1.389,0.341l1.417,0.297c0.479,0.066,0.963,0.108,1.443,0.165l1.443,0.163
				c0.465,0.076,1.017,0.047,1.521,0.076L33.499,21.92z"/>
		</g>
		<g>
			<g>
				<path fill="#5754A3" d="M18.799,4.361c-0.008-1.198-1.188-2.166-2.634-2.155c-1.448,0.009-2.613,0.99-2.607,2.189L18.799,4.361z
					"/>
				<path fill="#402D87" d="M14.973,2.744c0.125-0.019,0.272-0.08,0.341-0.103c1.207-0.406,2.024,0.873,2.271,1.649
					c0.012,0.028-0.002,0.05,0.004,0.076l1.212-0.007c-0.01-1.2-1.189-2.164-2.636-2.154c-0.322,0.002-0.642,0.059-0.939,0.161
					c-0.118,0.042-0.547,0.155-0.46,0.314C14.799,2.744,14.88,2.753,14.973,2.744z"/>
				<path fill="#231E5F" d="M17.297,3.892c-0.327-0.123-0.69-0.08-1.035-0.124c-0.787-0.097-1.522-0.336-2.234-0.621
					c-0.38,0.37-0.625,0.836-0.622,1.363l4.381-0.028c-0.044-0.065-0.097-0.125-0.122-0.21C17.602,4.07,17.469,3.956,17.297,3.892z"
					/>
				<polygon fill="#722715" points="13.846,4.392 18.51,4.363 19.897,25.276 12.73,25.323 				"/>
				<g>
					<polygon fill="#391712" points="13.452,17.427 17.143,18.115 19.432,17.733 19.488,18.55 19.49,18.552 19.422,17.536 
						15.844,17.03 					"/>
					<polygon fill="#802919" points="19.49,18.591 19.488,18.55 19.432,17.733 17.143,18.115 13.012,18.804 12.963,19.696 					"/>
					<polygon fill="#391712" points="13.209,15.411 17.188,15.848 19.281,15.524 19.274,15.347 15.944,14.769 					"/>
					<polygon fill="#802919" points="13.452,17.427 15.844,17.03 19.347,16.446 19.322,16.08 19.281,15.524 17.188,15.848 
						13.141,16.472 13.131,16.645 13.092,17.36 					"/>
					<polygon fill="#391712" points="13.698,13.418 17.009,13.712 19.134,13.316 19.132,13.29 16.462,12.828 					"/>
					<polygon fill="#802919" points="13.209,15.411 15.944,14.769 19.179,14.009 19.174,13.906 19.134,13.316 17.009,13.712 
						13.556,14.356 13.256,14.413 13.198,15.412 					"/>
					<polygon fill="#391712" points="13.602,11.303 17.038,11.81 19.008,11.446 19.002,11.4 15.728,11.018 					"/>
					<polygon fill="#802919" points="13.698,13.418 16.462,12.828 19.061,12.273 19.052,12.109 19.008,11.446 17.038,11.81 
						13.934,12.39 13.361,12.497 13.311,13.383 					"/>
					<polygon fill="#391712" points="18.77,9.539 16.177,9.088 13.531,9.402 13.527,9.452 16.511,10.06 					"/>
					<polygon fill="#802919" points="13.602,11.303 15.728,11.018 18.948,10.59 18.946,10.555 18.876,9.557 18.77,9.539 
						16.511,10.06 13.486,10.759 13.455,10.766 13.427,11.278 					"/>
					<polygon fill="#802919" points="16.177,9.088 18.824,8.775 18.787,8.109 17.118,8.31 13.809,8.679 13.567,8.706 13.531,9.402 
											"/>
					<polygon fill="#391712" points="14.215,7.865 17.118,8.31 18.78,8.127 18.772,8.038 16.262,7.526 					"/>
					<polygon fill="#391712" points="18.656,6.304 18.645,6.143 15.48,5.419 13.749,5.431 13.726,5.871 17.085,6.514 					"/>
					<polygon fill="#802919" points="14.215,7.865 16.262,7.526 18.712,7.117 18.691,6.822 18.656,6.304 17.085,6.514 13.665,6.974 
						13.663,6.993 13.622,7.776 					"/>
				</g>
				<g>
					<path fill="#797979" d="M22.26,113.132l-0.555-86.204L11.99,26.99l0.438,68.031C12.553,114.285,22.26,113.132,22.26,113.132z"
						/>
				</g>
				<g>
					<path fill="#606161" d="M22.26,113.132l-0.555-86.204l-3.844,0.024l0.44,68.033C18.427,114.247,22.26,113.132,22.26,113.132z"
						/>
				</g>
				<path opacity="0.2" fill="#391712" d="M13.088,22.654c0,0,3.557-4.339,3.527-9.012c0,0,0.841,7.686,3.479,8.966l-3.805,0.024
					L13.088,22.654z"/>
				<path opacity="0.5" fill="#421D12" enable-background="new    " d="M18.579,5.4l0.044,0.68c0,0-4.953,2.908-5.483,11.565
					l0.656-12.314L18.579,5.4z"/>
				<path fill="#562415" d="M12.603,4.635C12.6,4.195,13.027,3.835,13.56,3.831l5.226-0.033c0.534-0.004,0.969,0.351,0.973,0.793
					l0,0c0.002,0.44-0.428,0.8-0.96,0.804l-5.228,0.034C13.038,5.433,12.607,5.077,12.603,4.635L12.603,4.635z"/>
				<path fill="#391810" d="M13.566,5.43l2.796-0.017c-0.105,0-0.223-0.216-0.295-0.264c-0.427-0.278-1.037-0.102-1.501-0.304
					c-0.474-0.207-0.782-0.599-0.936-1.015l-0.074,0.001c-0.533,0.003-0.96,0.363-0.957,0.805
					C12.601,5.076,13.034,5.434,13.566,5.43z"/>
				<path fill="#76311D" d="M16.01,4.013c0.156,0.199,0.457,0.274,0.709,0.357c0.334,0.11,0.643,0.262,0.957,0.404
					c0.334,0.153,0.482,0.385,0.512,0.626l0.614-0.005c0.532-0.003,0.961-0.365,0.959-0.805c-0.003-0.441-0.436-0.797-0.971-0.792
					c-0.771,0.005-1.54,0.01-2.313,0.015c-0.118,0-0.459,0.009-0.488,0.141C15.985,3.972,15.995,3.993,16.01,4.013z"/>
			</g>
			<path fill="#BBB9B9" d="M15.427,96.519l-0.085-0.66c0.066-1.252-0.121-2.597,0.013-3.75c0.334-2.898-0.82-5.063-0.895-7.845
				c-0.043-1.624,0.328-3.18,0.113-4.807c-0.3-2.247,0.856-4.261,1.156-6.434c0.489-3.565-2.216-6.742-2.051-10.338
				c0.12-2.627-0.05-5.226,0.357-7.835c0.737-4.714,0.835-9.497,0.819-14.258c-0.006-1.836,0.133-3.906-0.069-5.818
				c-0.137-1.285-1.086-2.804-1.021-4.176c0.079-1.721,2.336-2.216,2.308-3.635l-5.13,0.033l0.666,74.527
				c0,0,0.115,6.249,5.678,9.68C17.286,111.203,13.534,104.859,15.427,96.519z"/>
			<path opacity="0.5" fill="#4F504F" enable-background="new    " d="M21.711,27.948c0,0-1.775,3.079-1.743,8.191l-3.133,0.021
				l-3.473,0.022c0,0,0.191-6.359-2.413-8.338L21.711,27.948z"/>
			<g>
				<path d="M6.101,25.69l0.741-0.001c0.284,0.018,0.575,0.024,0.849,0.052c0.547,0.056,1.096,0.13,1.642,0.271
					c1.092,0.258,2.175,0.72,3.135,1.389c0.967,0.664,1.787,1.544,2.413,2.522c0.312,0.491,0.582,1.007,0.798,1.543
					c0.111,0.27,0.208,0.544,0.296,0.826c0.087,0.3,0.155,0.53,0.225,0.934v0.002l-1.543-1.349l4.429,0.056l0.002,0.001
					l-1.443,1.295c0.078-0.515,0.177-0.838,0.297-1.232c0.124-0.375,0.267-0.739,0.435-1.096c0.327-0.71,0.749-1.384,1.254-1.996
					c1.006-1.227,2.373-2.166,3.83-2.679c0.73-0.264,1.474-0.431,2.216-0.53c0.371-0.056,0.743-0.075,1.107-0.102
					c0.358-0.006,0.754-0.02,1.076-0.01l4.013,0.045l-1.152,1.167c-0.007-1.191,0.01-2.38-0.023-3.568l-0.004-0.002l1.173,1.156
					l-2.021,0.045c-0.673,0.015-1.351-0.013-2.027-0.021c-0.677-0.006-1.359-0.07-2.041-0.104c-0.679-0.051-1.365-0.129-2.049-0.209
					c-0.685-0.109-1.369-0.196-2.061-0.359c-0.342-0.069-0.689-0.139-1.035-0.242c-0.345-0.1-0.692-0.175-1.036-0.303
					c-0.691-0.231-1.387-0.489-2.079-0.864c-0.346-0.185-0.689-0.38-1.038-0.641c-0.173-0.119-0.349-0.266-0.524-0.421
					c-0.085-0.071-0.182-0.177-0.271-0.269c-0.043-0.041-0.095-0.1-0.147-0.166c-0.051-0.061-0.097-0.109-0.197-0.267l-0.002-0.002
					l2.93-0.021c-0.103,0.161-0.15,0.213-0.195,0.273c-0.051,0.064-0.104,0.128-0.146,0.168c-0.089,0.093-0.187,0.199-0.271,0.27
					c-0.174,0.158-0.348,0.311-0.517,0.43c-0.347,0.263-0.685,0.465-1.032,0.656c-0.687,0.384-1.376,0.648-2.068,0.888
					c-0.342,0.133-0.688,0.214-1.029,0.319c-0.347,0.106-0.69,0.18-1.034,0.254c-0.684,0.171-1.369,0.266-2.055,0.386
					c-0.684,0.086-1.367,0.175-2.047,0.234c-0.679,0.043-1.362,0.114-2.036,0.132c-0.679,0.014-1.355,0.05-2.032,0.045l-2.018-0.019
					l0,0l1.155-1.17c-0.015,1.189,0.013,2.378,0.022,3.568l-1.168-1.152c1.424-0.026,2.849-0.08,4.273-0.132L6.101,25.69z
					 M6.083,28.221c-1.425-0.036-2.85-0.068-4.275-0.078l-1.16-0.007L0.64,26.989c-0.008-1.188,0.008-2.377-0.025-3.567
					l-0.028-1.125l1.185-0.046l0,0l1.939-0.113c0.646-0.041,1.285-0.121,1.927-0.179c0.64-0.061,1.267-0.17,1.903-0.254
					c0.628-0.1,1.248-0.223,1.867-0.346c0.606-0.151,1.224-0.279,1.809-0.468c0.294-0.088,0.592-0.172,0.871-0.284
					c0.283-0.107,0.578-0.197,0.841-0.322c0.543-0.232,1.073-0.485,1.52-0.779c0.222-0.145,0.443-0.297,0.607-0.45
					c0.097-0.075,0.161-0.15,0.23-0.216c0.04-0.038,0.047-0.062,0.073-0.088c0.016-0.02,0.014-0.021,0.011-0.022
					c0.004-0.005,0.01-0.017-0.048,0.073l2.933-0.019l-0.004,0c-0.059-0.088-0.054-0.076-0.048-0.07
					c-0.004,0-0.004,0.003,0.015,0.021c0.024,0.027,0.033,0.05,0.074,0.087c0.066,0.067,0.135,0.141,0.233,0.215
					c0.166,0.149,0.388,0.3,0.613,0.44c0.449,0.292,0.984,0.535,1.526,0.759c0.266,0.124,0.562,0.207,0.845,0.312
					c0.283,0.107,0.581,0.188,0.878,0.272c0.587,0.184,1.202,0.302,1.813,0.444c0.621,0.116,1.245,0.231,1.875,0.324
					c0.633,0.073,1.264,0.178,1.905,0.229c0.638,0.047,1.281,0.12,1.925,0.153l1.942,0.091l1.2,0.055l-0.028,1.1l-0.004,0.001
					c-0.019,1.188,0.015,2.378,0.022,3.567l0.008,1.14l-1.16,0.027l-4.013,0.099c-0.352,0.004-0.621,0.027-0.932,0.045
					c-0.298,0.035-0.596,0.059-0.885,0.117c-0.58,0.1-1.143,0.251-1.664,0.465c-1.05,0.419-1.937,1.095-2.595,1.962
					c-0.331,0.435-0.606,0.916-0.817,1.427c-0.108,0.254-0.199,0.518-0.277,0.781c-0.068,0.245-0.137,0.573-0.151,0.721
					l-0.124,1.261l-1.318,0.037l-0.004,0l-4.427,0.11l-1.546-1.35l0,0c-0.005-0.082-0.051-0.327-0.097-0.5
					c-0.048-0.19-0.104-0.382-0.174-0.571c-0.13-0.379-0.299-0.745-0.499-1.092c-0.396-0.693-0.912-1.306-1.544-1.787
					c-0.626-0.484-1.362-0.85-2.167-1.082c-0.398-0.125-0.824-0.203-1.25-0.269l-0.619-0.071L6.05,28.219L6.083,28.221z"/>
			</g>
			<g>
				<g>
					<path fill="#722715" d="M31.864,23.517l0.021,3.567l-4.271,0.029c-7.75,0.05-8.509,6.581-8.509,6.581l-2.212,0.016
						l-0.089-13.741C16.804,19.969,19.01,23.599,31.864,23.517z"/>
					<path fill="#562415" d="M1.788,23.71l0.022,3.568l4.276-0.027c7.751-0.05,8.59,6.472,8.59,6.472l2.218-0.014l-0.09-13.74
						C16.804,19.969,14.644,23.628,1.788,23.71z"/>
				</g>
				
					<ellipse transform="matrix(-0.0063 -1 1 -0.0063 -10.2748 41.5867)" opacity="0.5" fill="#421D12" enable-background="new    " cx="15.526" cy="25.899" rx="3.586" ry="4.862"/>
				
					<ellipse transform="matrix(-0.0066 -1 1 -0.0066 -9.8786 43.866)" fill="none" stroke="#000000" stroke-width="0.9032" stroke-miterlimit="10" cx="16.848" cy="26.84" rx="2.939" ry="3.548"/>
				<g>
					
						<ellipse transform="matrix(-0.0066 -1 1 -0.0066 -9.8786 43.866)" fill="#5754A3" cx="16.848" cy="26.84" rx="2.939" ry="3.548"/>
					<path fill="#402D87" d="M15.226,29.44c0.491,0.21,1.046,0.339,1.64,0.336c1.96-0.012,3.539-1.337,3.53-2.958
						c-0.006-0.532-0.192-1.02-0.49-1.448C18.898,26.973,17.075,28.335,15.226,29.44z"/>
					<path fill="#231E5F" d="M18.434,24.222c-0.482-0.201-1.025-0.325-1.604-0.319c-1.962,0.011-3.542,1.337-3.532,2.959
						c0.004,0.599,0.229,1.157,0.604,1.618C14.768,26.661,16.364,25.052,18.434,24.222z"/>
				</g>
				<path fill="#8E311F" d="M24.759,26.487c-1.049,0.344-1.956,0.73-2.824,1.163c-1.182,0.709-2.167,1.568-2.55,2.822
					c-0.265,0.866-0.987,2.128-0.412,3c0.052,0.078,0.063,0.15,0.087,0.226l0.048-0.001c0.233-1.644,1.115-2.921,1.115-2.921
					c0.722-1.456,2.79-2.61,2.79-2.61c1.93-1.073,4.455-1.049,4.455-1.049l3.571-0.024C29.095,26.496,26.414,25.943,24.759,26.487z"
					/>
				<path fill="#421D12" d="M8.937,26.589c1.053,0.332,1.964,0.706,2.838,1.127c1.19,0.693,2.188,1.538,2.589,2.789
					c0.274,0.861,1.014,2.113,0.449,2.994c-0.052,0.077-0.061,0.15-0.081,0.226h-0.052c-0.253-1.64-1.152-2.907-1.152-2.907
					c-0.775-1.237-2.826-2.574-2.826-2.574c-1.944-1.048-4.465-0.991-4.465-0.991l-3.574,0.021
					C4.6,26.652,7.273,26.066,8.937,26.589z"/>
			</g>
		</g>
	</g>
	<polygon opacity="0.7" fill="#FFFFFF" enable-background="new    " points="21.857,50.179 11.211,53.426 11.227,55.887 
		21.866,51.809 	"/>
	<polygon opacity="0.7" fill="#FFFFFF" enable-background="new    " points="21.872,52.784 11.25,57.896 11.263,61.701 
		21.882,54.216 	"/>
</g>
</svg>
