<?xml version="1.0" encoding="utf-8"?>
<!-- Generator: Adobe Illustrator 16.0.0, SVG Export Plug-In . SVG Version: 6.00 Build 0)  -->
<!DOCTYPE svg PUBLIC "-//W3C//DTD SVG 1.1//EN" "http://www.w3.org/Graphics/SVG/1.1/DTD/svg11.dtd">
<svg version="1.1" id="Layer_1" xmlns="http://www.w3.org/2000/svg" xmlns:xlink="http://www.w3.org/1999/xlink" x="0px" y="0px"
	 width="60px" height="85px" viewBox="26.694 14.193 60 85" enable-background="new 26.694 14.193 60 85" xml:space="preserve">
<g>
	<path d="M73.926,60.908c-0.95-0.029-1.909-0.059-2.878-0.086c0.015-0.654,0.03-1.283,0.05-1.885
		c0.05-1.715,0.112-3.331,0.187-4.846c0.074-1.497,0.174-2.952,0.296-4.324c0.126-1.417,0.273-2.907,0.449-4.47l0.288-2.569
		l-4.824-3.075l-1.953,1.286c-0.881,0.578-1.806,1.293-2.755,2.126c-0.862,0.758-1.693,1.525-2.469,2.278
		c-0.777,0.754-1.479,1.469-2.086,2.126c-0.647,0.702-1.083,1.208-1.375,1.595l-0.106,0.147c-0.298,0.436-0.544,0.838-0.742,1.219
		c-0.251,0.475-0.459,0.994-0.626,1.548c-0.156,0.521-0.271,1.079-0.351,1.694c-0.065,0.507-0.113,1.092-0.144,1.785
		c-0.13,1.746-0.209,3.359-0.234,4.723l-0.018,0.469c-1.825,0.011-3.56,0.026-5.185,0.052c-0.128,0.002-0.255,0.004-0.38,0.006
		c1.011-1.518,2.014-3.008,3.003-4.46c2.318-3.444,4.5-6.781,6.487-9.919c2.031-3.207,3.867-6.319,5.458-9.252
		c1.656-3.055,2.996-6.049,3.982-8.899l0.965-2.793l-4.531-3.608l-1.951,0.807c-0.769,0.318-1.668,0.615-2.675,0.885
		c-1.119,0.3-2.319,0.597-3.562,0.881l-2.19,0.501l-0.632,2.283c-0.532,1.925-1.087,3.709-1.652,5.303
		c-0.549,1.553-1.187,3.109-1.894,4.624c-0.715,1.528-1.54,3.119-2.453,4.726c-0.944,1.661-2.062,3.525-3.315,5.533
		c-2.152,3.425-4.099,6.391-5.782,8.809c-1.769,2.531-3.268,4.693-4.497,6.488c-1.314,1.918-2.304,3.492-3.025,4.813
		c-0.999,1.828-1.484,3.494-1.484,5.092v4.377l4.106-0.395c2.458-0.232,5.809-0.414,9.959-0.533
		c3.222-0.092,6.889-0.148,10.938-0.172c-0.001,0.154-0.002,0.311-0.004,0.468c-0.013,1.724-0.031,3.515-0.058,5.376
		c-0.024,1.855-0.058,3.693-0.095,5.51c-0.039,1.805-0.082,3.398-0.133,4.79l-0.08,2.235l3.742,2.65l1.533-0.326
		c0.737-0.154,1.803-0.356,3.197-0.605c1.35-0.241,3.093-0.48,5.183-0.719l3.507-0.395l-0.138-3.738
		c-0.024-0.688-0.052-1.545-0.075-2.568c-0.024-1.021-0.044-2.133-0.057-3.333c-0.014-1.203-0.02-2.446-0.02-3.729v-5.457
		l2.367,0.055c1.631,0.037,2.878,0.115,3.701,0.23l2.97,0.416l5.405-15.305l-5.207-0.221C78.142,61.05,76.096,60.976,73.926,60.908z
		"/>
	<g>
		<path fill="#FFFFFF" stroke="#1B1B1C" stroke-width="8" stroke-miterlimit="10" d="M55.156,23.718
			c1.301-0.297,2.531-0.602,3.691-0.914c1.16-0.311,2.2-0.656,3.12-1.036l0.609,0.487c-0.919,2.653-2.154,5.415-3.71,8.284
			c-1.557,2.87-3.33,5.875-5.319,9.015c-1.989,3.141-4.133,6.416-6.427,9.827c-2.321,3.411-4.692,6.984-7.115,10.72l0.076,0.244
			c2.373-0.081,4.883-0.143,7.537-0.184c2.652-0.039,5.572-0.063,8.76-0.063c0.052-1.461,0.1-2.896,0.153-4.304
			c0.024-1.381,0.102-2.924,0.229-4.629c0.026-0.595,0.064-1.089,0.116-1.482c0.051-0.392,0.12-0.737,0.211-1.036
			c0.089-0.297,0.196-0.568,0.326-0.812c0.127-0.244,0.294-0.514,0.496-0.812c0.204-0.271,0.579-0.704,1.127-1.3
			c0.549-0.595,1.193-1.251,1.933-1.969c0.74-0.717,1.518-1.435,2.335-2.152c0.816-0.717,1.592-1.319,2.336-1.807l0.764,0.487
			c-0.177,1.598-0.332,3.12-0.458,4.568c-0.129,1.449-0.229,2.944-0.305,4.487c-0.077,1.543-0.141,3.188-0.19,4.934
			c-0.053,1.746-0.092,3.715-0.116,5.909c2.245,0.055,4.444,0.113,6.6,0.184c2.155,0.066,4.188,0.143,6.102,0.225l-2.524,7.146
			c-0.969-0.136-2.338-0.223-4.111-0.264s-3.846-0.089-6.219-0.144v9.543c0,1.299,0.007,2.56,0.02,3.775
			c0.012,1.219,0.031,2.35,0.059,3.393c0.023,1.041,0.05,1.914,0.075,2.619c-2.168,0.241-3.973,0.491-5.414,0.75
			c-1.439,0.258-2.542,0.467-3.308,0.631l-0.687-0.488c0.05-1.407,0.097-3.024,0.135-4.852c0.037-1.828,0.069-3.677,0.094-5.543
			c0.026-1.869,0.047-3.671,0.06-5.402c0.013-1.731,0.018-3.233,0.018-4.506c-5.636,0-10.578,0.062-14.823,0.183
			c-4.247,0.122-7.645,0.305-10.195,0.549c0-0.867,0.326-1.896,0.976-3.086c0.648-1.19,1.587-2.681,2.811-4.468
			c1.224-1.786,2.716-3.938,4.476-6.458c1.734-2.491,3.698-5.482,5.891-8.974c1.301-2.084,2.435-3.979,3.404-5.685
			s1.836-3.377,2.603-5.015c0.765-1.638,1.447-3.302,2.046-4.995C54.013,27.61,54.594,25.748,55.156,23.718z"/>
		<path fill="#B70000" d="M55.156,23.718c1.301-0.297,2.531-0.602,3.691-0.914c1.16-0.311,2.2-0.656,3.12-1.036l0.609,0.487
			c-0.919,2.653-2.154,5.415-3.71,8.284c-1.557,2.87-3.33,5.875-5.319,9.015c-1.989,3.141-4.133,6.416-6.427,9.827
			c-2.321,3.411-4.692,6.984-7.115,10.72l0.076,0.244c2.373-0.081,4.883-0.143,7.537-0.184c2.652-0.039,5.572-0.063,8.76-0.063
			c0.052-1.461,0.1-2.896,0.153-4.304c0.024-1.381,0.102-2.924,0.229-4.629c0.026-0.595,0.064-1.089,0.116-1.482
			c0.051-0.392,0.12-0.737,0.211-1.036c0.089-0.297,0.196-0.568,0.326-0.812c0.127-0.244,0.294-0.514,0.496-0.812
			c0.204-0.271,0.579-0.704,1.127-1.3c0.549-0.595,1.193-1.251,1.933-1.969c0.74-0.717,1.518-1.435,2.335-2.152
			c0.816-0.717,1.592-1.319,2.336-1.807l0.764,0.487c-0.177,1.598-0.332,3.12-0.458,4.568c-0.129,1.449-0.229,2.944-0.305,4.487
			c-0.077,1.543-0.141,3.188-0.19,4.934c-0.053,1.746-0.092,3.715-0.116,5.909c2.245,0.055,4.444,0.113,6.6,0.184
			c2.155,0.066,4.188,0.143,6.102,0.225l-2.524,7.146c-0.969-0.136-2.338-0.223-4.111-0.264s-3.846-0.089-6.219-0.144v9.543
			c0,1.299,0.007,2.56,0.02,3.775c0.012,1.219,0.031,2.35,0.059,3.393c0.023,1.041,0.05,1.914,0.075,2.619
			c-2.168,0.241-3.973,0.491-5.414,0.75c-1.439,0.258-2.542,0.467-3.308,0.631l-0.687-0.488c0.05-1.407,0.097-3.024,0.135-4.852
			c0.037-1.828,0.069-3.677,0.094-5.543c0.026-1.869,0.047-3.671,0.06-5.402c0.013-1.731,0.018-3.233,0.018-4.506
			c-5.636,0-10.578,0.062-14.823,0.183c-4.247,0.122-7.645,0.305-10.195,0.549c0-0.867,0.326-1.896,0.976-3.086
			c0.648-1.19,1.587-2.681,2.811-4.468c1.224-1.786,2.716-3.938,4.476-6.458c1.734-2.491,3.698-5.482,5.891-8.974
			c1.301-2.084,2.435-3.979,3.404-5.685s1.836-3.377,2.603-5.015c0.765-1.638,1.447-3.302,2.046-4.995
			C54.013,27.61,54.594,25.748,55.156,23.718z"/>
	</g>
</g>
</svg>
