<?xml version="1.0" encoding="utf-8"?>
<!-- Generator: Adobe Illustrator 16.0.0, SVG Export Plug-In . SVG Version: 6.00 Build 0)  -->
<!DOCTYPE svg PUBLIC "-//W3C//DTD SVG 1.1//EN" "http://www.w3.org/Graphics/SVG/1.1/DTD/svg11.dtd">
<svg version="1.1" id="Layer_1" xmlns="http://www.w3.org/2000/svg" xmlns:xlink="http://www.w3.org/1999/xlink" x="0px" y="0px"
	 width="60px" height="85px" viewBox="0 0 60 85" enable-background="new 0 0 60 85" xml:space="preserve">
<g>
	<path d="M54.698,26.82c-1.056-3.673-2.632-6.899-4.688-9.592c-2.128-2.779-4.775-4.97-7.873-6.51
		c-3.104-1.544-6.648-2.327-10.531-2.327c-3.306,0-6.515,0.569-9.537,1.692c-3.06,1.138-5.81,2.815-8.174,4.986
		c-2.385,2.191-4.302,4.888-5.697,8.016c-1.4,3.144-2.111,6.705-2.111,10.584c0,2.845,0.406,5.626,1.209,8.269
		c0.835,2.75,2.115,5.221,3.805,7.338c1.732,2.178,3.902,3.938,6.447,5.233c2.602,1.328,5.607,2,8.941,2
		c2.394,0,4.621-0.332,6.63-0.989c1.62-0.531,3.083-1.191,4.354-1.965c-0.16,0.858-0.344,1.674-0.551,2.44
		c-0.843,3.125-1.951,5.649-3.296,7.506c-1.247,1.724-2.619,2.92-4.192,3.664c-2.238,1.058-4.486,1.401-7.134,1.002
		c-0.606-0.092-1.243-0.267-1.896-0.512c-0.661-0.257-1.354-0.609-2.059-1.06c-0.687-0.438-1.395-1.021-2.104-1.729l-2.806-2.807
		l-2.83,2.778c-2.41,2.369-3.631,4.981-3.631,7.769c0,1.646,0.455,3.188,1.354,4.565c0.794,1.229,1.886,2.275,3.242,3.117
		c1.205,0.744,2.63,1.324,4.229,1.721c1.513,0.375,3.168,0.563,4.921,0.563c2.995,0,6.021-0.545,8.994-1.619
		c2.881-1.043,5.669-2.525,8.288-4.414c2.585-1.863,5.021-4.154,7.246-6.811c2.205-2.638,4.144-5.601,5.761-8.806
		c1.618-3.205,2.905-6.729,3.825-10.471c0.927-3.765,1.396-7.759,1.396-11.879C56.234,34.331,55.718,30.374,54.698,26.82z
		 M33.427,42.02c-0.44,0.049-0.836,0.075-1.171,0.075c-1.229,0-2.313-0.274-3.305-0.839c-1.131-0.641-2.096-1.5-2.947-2.63
		c-0.893-1.177-1.602-2.606-2.109-4.251c-0.525-1.705-0.795-3.568-0.795-5.538c0-1.377,0.146-2.621,0.437-3.703
		c0.248-0.932,0.595-1.708,1.026-2.303c0.354-0.485,0.765-0.831,1.28-1.087c0.537-0.265,1.233-0.399,2.068-0.399
		c1.276,0,2.444,0.34,3.567,1.039c1.188,0.74,2.266,1.938,3.197,3.558c1.063,1.843,1.926,4.248,2.563,7.147
		c0.443,2.021,0.742,4.312,0.894,6.847L37,40.783c-0.287,0.215-0.592,0.39-0.938,0.535c-0.441,0.189-0.893,0.343-1.33,0.455
		C34.279,41.889,33.84,41.973,33.427,42.02z"/>
	<g>
		<path fill="#B70000" stroke="#1B1C1C" stroke-width="8" stroke-miterlimit="10" d="M40.245,39.32
			c0-4.438-0.365-8.316-1.099-11.633c-0.729-3.315-1.73-6.077-3.006-8.284c-1.271-2.206-2.787-3.857-4.548-4.954
			c-1.76-1.096-3.653-1.645-5.685-1.645c-1.463,0-2.741,0.271-3.84,0.812c-1.098,0.542-2.01,1.313-2.739,2.315
			c-0.729,1.001-1.286,2.213-1.664,3.634c-0.38,1.421-0.569,2.999-0.569,4.73c0,2.383,0.325,4.623,0.978,6.721
			c0.647,2.099,1.563,3.926,2.739,5.482c1.18,1.557,2.563,2.789,4.162,3.695c1.6,0.906,3.355,1.359,5.278,1.359
			c0.487,0,1.028-0.033,1.624-0.102c0.596-0.067,1.211-0.184,1.848-0.346s1.272-0.379,1.908-0.649
			c0.637-0.271,1.225-0.608,1.768-1.015c0.056,0.107,0.097,0.229,0.121,0.365c0.026,0.137,0.041,0.271,0.041,0.406
			c0,0.758-0.312,1.584-0.935,2.477c-0.623,0.895-1.502,1.731-2.642,2.52c-1.137,0.785-2.512,1.439-4.119,1.969
			c-1.611,0.529-3.404,0.795-5.383,0.795c-2.707,0-5.084-0.521-7.127-1.563c-2.045-1.043-3.756-2.431-5.137-4.164
			c-1.381-1.731-2.416-3.736-3.104-6.011c-0.689-2.273-1.036-4.643-1.036-7.105c0-3.33,0.589-6.314,1.767-8.954
			c1.178-2.639,2.762-4.873,4.752-6.7c1.989-1.827,4.276-3.221,6.861-4.183c2.585-0.96,5.301-1.441,8.143-1.441
			c3.274,0,6.192,0.637,8.75,1.909c2.562,1.273,4.72,3.06,6.479,5.36c1.759,2.301,3.101,5.056,4.021,8.264s1.381,6.761,1.381,10.659
			c0,3.816-0.428,7.458-1.277,10.922c-0.854,3.469-2.023,6.676-3.516,9.625c-1.485,2.949-3.239,5.631-5.258,8.039
			c-2.018,2.41-4.188,4.453-6.518,6.135c-2.329,1.678-4.768,2.978-7.313,3.896c-2.545,0.92-5.09,1.381-7.633,1.381
			c-1.437,0-2.756-0.148-3.959-0.447c-1.205-0.299-2.234-0.711-3.088-1.236c-0.854-0.528-1.517-1.157-1.988-1.891
			c-0.476-0.729-0.711-1.527-0.711-2.396c0-1.678,0.813-3.313,2.438-4.909c0.92,0.92,1.848,1.678,2.779,2.271
			c0.937,0.596,1.86,1.066,2.781,1.422c0.92,0.353,1.827,0.597,2.721,0.729c0.896,0.135,1.762,0.203,2.602,0.203
			c2.382,0,4.663-0.516,6.842-1.543c2.18-1.029,4.088-2.674,5.729-4.934c1.638-2.263,2.941-5.199,3.919-8.813
			C39.758,48.884,40.245,44.492,40.245,39.32z"/>
		<path fill="#28B500" d="M40.245,39.32c0-4.438-0.365-8.316-1.099-11.633c-0.729-3.315-1.73-6.077-3.006-8.284
			c-1.271-2.206-2.787-3.857-4.548-4.954c-1.76-1.096-3.653-1.645-5.685-1.645c-1.463,0-2.741,0.271-3.84,0.812
			c-1.098,0.542-2.01,1.313-2.739,2.315c-0.729,1.001-1.286,2.213-1.664,3.634c-0.38,1.421-0.569,2.999-0.569,4.73
			c0,2.383,0.325,4.623,0.978,6.721c0.647,2.099,1.563,3.926,2.739,5.482c1.18,1.557,2.563,2.789,4.162,3.695
			c1.6,0.906,3.355,1.359,5.278,1.359c0.487,0,1.028-0.033,1.624-0.102c0.596-0.067,1.211-0.184,1.848-0.346
			s1.272-0.379,1.908-0.649c0.637-0.271,1.225-0.608,1.768-1.015c0.056,0.107,0.097,0.229,0.121,0.365
			c0.026,0.137,0.041,0.271,0.041,0.406c0,0.758-0.312,1.584-0.935,2.477c-0.623,0.895-1.502,1.731-2.642,2.52
			c-1.137,0.785-2.512,1.439-4.119,1.969c-1.611,0.529-3.404,0.795-5.383,0.795c-2.707,0-5.084-0.521-7.127-1.563
			c-2.045-1.043-3.756-2.431-5.137-4.164c-1.381-1.731-2.416-3.736-3.104-6.011c-0.689-2.273-1.036-4.643-1.036-7.105
			c0-3.33,0.589-6.314,1.767-8.954c1.178-2.639,2.762-4.873,4.752-6.7c1.989-1.827,4.276-3.221,6.861-4.183
			c2.585-0.96,5.301-1.441,8.143-1.441c3.274,0,6.192,0.637,8.75,1.909c2.562,1.273,4.72,3.06,6.479,5.36
			c1.759,2.301,3.101,5.056,4.021,8.264s1.381,6.761,1.381,10.659c0,3.816-0.428,7.458-1.277,10.922
			c-0.854,3.469-2.023,6.676-3.516,9.625c-1.485,2.949-3.239,5.631-5.258,8.039c-2.018,2.41-4.188,4.453-6.518,6.135
			c-2.329,1.678-4.768,2.978-7.313,3.896c-2.545,0.92-5.09,1.381-7.633,1.381c-1.437,0-2.756-0.148-3.959-0.447
			c-1.205-0.299-2.234-0.711-3.088-1.236c-0.854-0.528-1.517-1.157-1.988-1.891c-0.476-0.729-0.711-1.527-0.711-2.396
			c0-1.678,0.813-3.313,2.438-4.909c0.92,0.92,1.848,1.678,2.779,2.271c0.937,0.596,1.86,1.066,2.781,1.422
			c0.92,0.353,1.827,0.597,2.721,0.729c0.896,0.135,1.762,0.203,2.602,0.203c2.382,0,4.663-0.516,6.842-1.543
			c2.18-1.029,4.088-2.674,5.729-4.934c1.638-2.263,2.941-5.199,3.919-8.813C39.758,48.884,40.245,44.492,40.245,39.32z"/>
	</g>
</g>
</svg>
