<?xml version="1.0" encoding="utf-8"?>
<!-- Generator: Adobe Illustrator 16.0.0, SVG Export Plug-In . SVG Version: 6.00 Build 0)  -->
<!DOCTYPE svg PUBLIC "-//W3C//DTD SVG 1.1//EN" "http://www.w3.org/Graphics/SVG/1.1/DTD/svg11.dtd">
<svg version="1.1" id="Layer_1" xmlns="http://www.w3.org/2000/svg" xmlns:xlink="http://www.w3.org/1999/xlink" x="0px" y="0px"
	 width="60px" height="85px" viewBox="0 0 60 85" enable-background="new 0 0 60 85" xml:space="preserve">
<g>
	<path d="M50.357,46.75c-1.514-1.707-3.244-3.324-5.146-4.807c-0.385-0.301-0.771-0.598-1.16-0.891
		c0.317-0.275,0.628-0.55,0.933-0.82c1.635-1.449,3.072-2.961,4.277-4.488c1.303-1.646,2.342-3.418,3.088-5.262
		c0.801-1.976,1.207-4.155,1.207-6.479c0-2.229-0.402-4.376-1.193-6.379c-0.832-2.118-2.146-3.993-3.913-5.577
		c-1.703-1.523-3.849-2.725-6.37-3.572c-2.42-0.812-5.273-1.223-8.48-1.223c-3.01,0-5.77,0.352-8.205,1.047
		c-2.422,0.693-4.6,1.625-6.472,2.769c-1.903,1.166-3.563,2.544-4.935,4.097c-1.311,1.486-2.399,3.039-3.241,4.61
		c-0.86,1.604-1.496,3.244-1.892,4.881c-0.383,1.6-0.576,3.102-0.576,4.462c0,2.176,0.443,4.279,1.32,6.255
		c0.791,1.778,1.844,3.481,3.131,5.063c1.23,1.51,2.654,2.94,4.232,4.26c0.105,0.092,0.219,0.182,0.326,0.271
		c-0.965,0.822-1.852,1.617-2.646,2.384c-1.912,1.838-3.479,3.662-4.668,5.422c-1.242,1.848-2.158,3.715-2.72,5.551
		c-0.563,1.832-0.845,3.717-0.845,5.598c0,2.629,0.501,5.113,1.486,7.381c1.015,2.328,2.549,4.383,4.564,6.102
		c1.956,1.666,4.389,2.972,7.229,3.873c2.727,0.865,5.888,1.308,9.396,1.308c3.159,0,6.057-0.354,8.611-1.06
		c2.555-0.698,4.855-1.651,6.846-2.83c2.021-1.194,3.783-2.604,5.232-4.188c1.406-1.534,2.582-3.159,3.49-4.834
		c0.92-1.69,1.601-3.414,2.019-5.121c0.413-1.688,0.622-3.293,0.622-4.768c0-2.554-0.563-4.992-1.664-7.261
		C53.256,50.49,51.949,48.55,50.357,46.75z M23.704,64.582c-0.459-1.059-0.685-2.189-0.685-3.463c0-1.803,0.49-3.582,1.502-5.438
		c0.691-1.273,1.688-2.507,2.965-3.687c1.308,0.853,2.611,1.731,3.896,2.633c1.576,1.104,3.002,2.271,4.238,3.472
		c1.12,1.09,2.04,2.25,2.729,3.448c0.529,0.92,0.787,1.896,0.787,2.979c0,0.758-0.132,1.424-0.402,2.047
		c-0.262,0.604-0.639,1.127-1.152,1.598c-0.557,0.506-1.232,0.902-2.077,1.213c-0.877,0.32-1.929,0.484-3.126,0.484
		c-1.421,0-2.676-0.227-3.835-0.688c-1.155-0.465-2.119-1.072-2.946-1.861C24.791,66.548,24.17,65.652,23.704,64.582z
		 M37.037,24.052c0.32,0.831,0.479,1.705,0.479,2.672c0,1.512-0.402,2.999-1.231,4.549c-0.515,0.959-1.271,1.899-2.263,2.813
		c-0.937-0.639-1.84-1.267-2.701-1.876c-1.439-1.021-2.713-2.066-3.777-3.109c-0.925-0.903-1.652-1.838-2.163-2.783
		c-0.385-0.71-0.571-1.467-0.571-2.315c0-0.625,0.103-1.142,0.313-1.585c0.199-0.428,0.469-0.767,0.843-1.068
		c0.438-0.354,1.011-0.642,1.697-0.856c0.786-0.245,1.692-0.369,2.69-0.369c1.264,0,2.36,0.183,3.26,0.544
		c0.871,0.351,1.572,0.8,2.137,1.37C36.309,22.613,36.732,23.273,37.037,24.052z"/>
	<g>
		<path fill="#FFFFFF" stroke="#1B1C1C" stroke-width="8" stroke-miterlimit="10" d="M47.557,19.463
			c0,1.814-0.306,3.472-0.914,4.975c-0.605,1.502-1.447,2.931-2.519,4.285c-1.067,1.354-2.334,2.68-3.797,3.979
			c-1.461,1.3-3.062,2.654-4.791,4.061c1.76,1.191,3.498,2.457,5.219,3.797c1.72,1.34,3.254,2.774,4.606,4.303
			c1.354,1.531,2.449,3.154,3.289,4.873c0.841,1.721,1.261,3.555,1.261,5.502c0,1.164-0.17,2.438-0.511,3.818
			c-0.338,1.381-0.887,2.77-1.645,4.161c-0.758,1.396-1.732,2.74-2.924,4.039c-1.191,1.302-2.633,2.451-4.324,3.453
			s-3.648,1.808-5.867,2.416c-2.221,0.606-4.738,0.914-7.553,0.914c-3.113,0-5.842-0.373-8.186-1.117
			c-2.342-0.744-4.291-1.778-5.848-3.106c-1.558-1.324-2.722-2.875-3.492-4.648c-0.771-1.771-1.154-3.701-1.154-5.785
			c0-1.486,0.223-2.965,0.67-4.426c0.445-1.463,1.184-2.959,2.213-4.488c1.027-1.527,2.4-3.117,4.121-4.771
			c1.719-1.65,3.852-3.438,6.396-5.359c-1.463-1.001-2.892-2.084-4.285-3.249c-1.396-1.164-2.625-2.401-3.693-3.715
			s-1.93-2.701-2.578-4.163s-0.977-3.005-0.977-4.629c0-1.056,0.156-2.233,0.469-3.533c0.313-1.3,0.816-2.605,1.521-3.919
			c0.702-1.313,1.61-2.599,2.721-3.857c1.109-1.258,2.449-2.369,4.021-3.33c1.57-0.96,3.397-1.739,5.481-2.335
			c2.085-0.595,4.451-0.893,7.104-0.893c2.789,0,5.191,0.339,7.21,1.015c2.016,0.677,3.674,1.598,4.975,2.761
			c1.301,1.165,2.256,2.518,2.861,4.061C47.252,16.093,47.557,17.731,47.557,19.463z M41.141,59.99c0-1.787-0.438-3.445-1.318-4.975
			c-0.881-1.531-2.018-2.972-3.41-4.324c-1.396-1.354-2.973-2.646-4.73-3.879c-1.76-1.23-3.533-2.416-5.32-3.554l-1.137-0.729
			c-2.813,2.029-4.887,4.264-6.213,6.699c-1.326,2.438-1.988,4.887-1.988,7.35c0,1.814,0.338,3.5,1.017,5.057
			c0.678,1.559,1.608,2.902,2.803,4.041c1.189,1.139,2.599,2.029,4.224,2.682c1.625,0.646,3.396,0.978,5.32,0.978
			c1.678,0,3.18-0.244,4.506-0.731c1.325-0.486,2.457-1.156,3.394-2.011c0.935-0.854,1.646-1.84,2.132-2.965
			C40.898,62.5,41.141,61.289,41.141,59.99z M18.807,19.463c0,1.517,0.354,2.924,1.057,4.223s1.664,2.545,2.885,3.736
			c1.219,1.191,2.639,2.362,4.264,3.514c1.625,1.15,3.357,2.334,5.197,3.553c2.6-1.787,4.467-3.742,5.604-5.868
			c1.142-2.125,1.707-4.27,1.707-6.436c0-1.462-0.252-2.835-0.752-4.122c-0.502-1.286-1.225-2.409-2.172-3.371
			c-0.949-0.96-2.111-1.719-3.492-2.274c-1.381-0.554-2.965-0.833-4.752-0.833c-1.408,0-2.699,0.183-3.877,0.548
			c-1.178,0.366-2.188,0.887-3.022,1.563c-0.843,0.677-1.49,1.502-1.949,2.477C19.037,17.149,18.807,18.245,18.807,19.463z"/>
		<path fill="#28B500" d="M47.557,19.463c0,1.814-0.306,3.472-0.914,4.975c-0.605,1.502-1.447,2.931-2.519,4.285
			c-1.067,1.354-2.334,2.68-3.797,3.979c-1.461,1.3-3.062,2.654-4.791,4.061c1.76,1.191,3.498,2.457,5.219,3.797
			c1.72,1.34,3.254,2.774,4.606,4.303c1.354,1.531,2.449,3.154,3.289,4.873c0.841,1.721,1.261,3.555,1.261,5.502
			c0,1.164-0.17,2.438-0.511,3.818c-0.338,1.381-0.887,2.77-1.645,4.161c-0.758,1.396-1.732,2.74-2.924,4.039
			c-1.191,1.302-2.633,2.451-4.324,3.453s-3.648,1.808-5.867,2.416c-2.221,0.606-4.738,0.914-7.553,0.914
			c-3.113,0-5.842-0.373-8.186-1.117c-2.342-0.744-4.291-1.778-5.848-3.106c-1.558-1.324-2.722-2.875-3.492-4.648
			c-0.771-1.771-1.154-3.701-1.154-5.785c0-1.486,0.223-2.965,0.67-4.426c0.445-1.463,1.184-2.959,2.213-4.488
			c1.027-1.527,2.4-3.117,4.121-4.771c1.719-1.65,3.852-3.438,6.396-5.359c-1.463-1.001-2.892-2.084-4.285-3.249
			c-1.396-1.164-2.625-2.401-3.693-3.715s-1.93-2.701-2.578-4.163s-0.977-3.005-0.977-4.629c0-1.056,0.156-2.233,0.469-3.533
			c0.313-1.3,0.816-2.605,1.521-3.919c0.702-1.313,1.61-2.599,2.721-3.857c1.109-1.258,2.449-2.369,4.021-3.33
			c1.57-0.96,3.397-1.739,5.481-2.335c2.085-0.595,4.451-0.893,7.104-0.893c2.789,0,5.191,0.339,7.21,1.015
			c2.016,0.677,3.674,1.598,4.975,2.761c1.301,1.165,2.256,2.518,2.861,4.061C47.252,16.093,47.557,17.731,47.557,19.463z
			 M41.141,59.99c0-1.787-0.438-3.445-1.318-4.975c-0.881-1.531-2.018-2.972-3.41-4.324c-1.396-1.354-2.973-2.646-4.73-3.879
			c-1.76-1.23-3.533-2.416-5.32-3.554l-1.137-0.729c-2.813,2.029-4.887,4.264-6.213,6.699c-1.326,2.438-1.988,4.887-1.988,7.35
			c0,1.814,0.338,3.5,1.017,5.057c0.678,1.559,1.608,2.902,2.803,4.041c1.189,1.139,2.599,2.029,4.224,2.682
			c1.625,0.646,3.396,0.978,5.32,0.978c1.678,0,3.18-0.244,4.506-0.731c1.325-0.486,2.457-1.156,3.394-2.011
			c0.935-0.854,1.646-1.84,2.132-2.965C40.898,62.5,41.141,61.289,41.141,59.99z M18.807,19.463c0,1.517,0.354,2.924,1.057,4.223
			s1.664,2.545,2.885,3.736c1.219,1.191,2.639,2.362,4.264,3.514c1.625,1.15,3.357,2.334,5.197,3.553
			c2.6-1.787,4.467-3.742,5.604-5.868c1.142-2.125,1.707-4.27,1.707-6.436c0-1.462-0.252-2.835-0.752-4.122
			c-0.502-1.286-1.225-2.409-2.172-3.371c-0.949-0.96-2.111-1.719-3.492-2.274c-1.381-0.554-2.965-0.833-4.752-0.833
			c-1.408,0-2.699,0.183-3.877,0.548c-1.178,0.366-2.188,0.887-3.022,1.563c-0.843,0.677-1.49,1.502-1.949,2.477
			C19.037,17.149,18.807,18.245,18.807,19.463z"/>
	</g>
</g>
</svg>
