<?xml version="1.0" encoding="utf-8"?>
<!-- Generator: Adobe Illustrator 16.0.0, SVG Export Plug-In . SVG Version: 6.00 Build 0)  -->
<!DOCTYPE svg PUBLIC "-//W3C//DTD SVG 1.1//EN" "http://www.w3.org/Graphics/SVG/1.1/DTD/svg11.dtd">
<svg version="1.1" id="Layer_1" xmlns="http://www.w3.org/2000/svg" xmlns:xlink="http://www.w3.org/1999/xlink" x="0px" y="0px"
	 width="60px" height="85px" viewBox="26.694 14.193 60 85" enable-background="new 26.694 14.193 60 85" xml:space="preserve">
<g>
	<path d="M78.358,61.75c-1.514-1.707-3.244-3.324-5.146-4.807c-0.385-0.3-0.771-0.597-1.16-0.89c0.317-0.276,0.628-0.55,0.932-0.82
		c1.634-1.45,3.073-2.961,4.277-4.489c1.303-1.646,2.343-3.418,3.088-5.262c0.801-1.975,1.207-4.155,1.207-6.478
		c0-2.229-0.401-4.376-1.192-6.379c-0.833-2.118-2.148-3.993-3.915-5.577c-1.703-1.523-3.847-2.725-6.37-3.572
		c-2.42-0.812-5.273-1.223-8.48-1.223c-3.01,0-5.77,0.352-8.206,1.047c-2.422,0.693-4.599,1.625-6.471,2.769
		c-1.904,1.166-3.563,2.544-4.933,4.097c-1.311,1.486-2.401,3.039-3.243,4.61c-0.86,1.604-1.496,3.244-1.891,4.881
		c-0.382,1.6-0.576,3.102-0.576,4.462c0,2.176,0.443,4.279,1.32,6.255c0.791,1.778,1.844,3.481,3.132,5.064
		c1.23,1.509,2.654,2.94,4.232,4.259c0.107,0.092,0.218,0.182,0.326,0.271c-0.965,0.822-1.85,1.617-2.646,2.383
		c-1.912,1.838-3.481,3.662-4.668,5.423c-1.243,1.847-2.158,3.714-2.72,5.55c-0.562,1.832-0.845,3.717-0.845,5.598
		c0,2.629,0.501,5.113,1.487,7.381c1.014,2.328,2.55,4.382,4.565,6.1c1.956,1.667,4.389,2.971,7.23,3.874
		c2.725,0.865,5.886,1.306,9.396,1.306c3.159,0,6.056-0.355,8.611-1.058c2.555-0.7,4.857-1.653,6.846-2.831
		c2.021-1.195,3.783-2.605,5.234-4.189c1.406-1.535,2.581-3.16,3.49-4.834c0.919-1.691,1.599-3.414,2.017-5.121
		c0.413-1.688,0.622-3.293,0.622-4.768c0-2.552-0.561-4.992-1.664-7.26C81.256,65.49,79.949,63.55,78.358,61.75z M51.704,79.582
		c-0.459-1.059-0.684-2.19-0.684-3.463c0-1.803,0.491-3.582,1.502-5.438c0.692-1.273,1.687-2.506,2.965-3.686
		c1.307,0.852,2.611,1.732,3.897,2.633c1.576,1.104,3.002,2.271,4.238,3.472c1.12,1.089,2.04,2.249,2.729,3.448
		c0.529,0.92,0.786,1.896,0.786,2.979c0,0.757-0.131,1.423-0.401,2.046c-0.262,0.604-0.64,1.127-1.154,1.598
		c-0.555,0.506-1.233,0.902-2.077,1.213c-0.877,0.32-1.929,0.484-3.126,0.484c-1.421,0-2.676-0.226-3.835-0.688
		c-1.155-0.464-2.119-1.071-2.946-1.86C52.791,81.548,52.17,80.652,51.704,79.582z M65.037,39.052
		c0.322,0.831,0.479,1.705,0.479,2.672c0,1.512-0.403,2.999-1.233,4.55c-0.514,0.958-1.27,1.899-2.261,2.813
		c-0.937-0.639-1.84-1.266-2.702-1.876c-1.44-1.021-2.713-2.066-3.778-3.109c-0.925-0.904-1.652-1.839-2.163-2.783
		c-0.385-0.71-0.572-1.467-0.572-2.315c0-0.625,0.102-1.142,0.312-1.585c0.2-0.428,0.469-0.767,0.843-1.068
		c0.438-0.354,1.01-0.642,1.697-0.856c0.788-0.245,1.694-0.369,2.691-0.369c1.264,0,2.361,0.183,3.26,0.544
		c0.872,0.351,1.572,0.8,2.136,1.37C64.309,37.613,64.733,38.273,65.037,39.052z"/>
	<g>
		<path fill="#FFFFFF" stroke="#1B1C1C" stroke-width="8" stroke-miterlimit="10" d="M75.556,34.463
			c0,1.814-0.305,3.472-0.914,4.975c-0.606,1.502-1.447,2.931-2.518,4.284c-1.068,1.354-2.334,2.68-3.797,3.979
			c-1.461,1.3-3.06,2.654-4.791,4.061c1.76,1.191,3.498,2.457,5.219,3.796c1.719,1.34,3.254,2.775,4.608,4.304
			c1.353,1.53,2.449,3.154,3.289,4.873c0.839,1.72,1.259,3.554,1.259,5.502c0,1.164-0.17,2.438-0.509,3.817
			c-0.338,1.381-0.887,2.77-1.645,4.162c-0.758,1.395-1.732,2.74-2.924,4.039c-1.191,1.302-2.633,2.451-4.324,3.453
			s-3.648,1.808-5.867,2.416c-2.221,0.608-4.738,0.914-7.553,0.914c-3.113,0-5.842-0.373-8.184-1.117
			c-2.343-0.744-4.291-1.779-5.849-3.106c-1.557-1.325-2.721-2.876-3.492-4.649c-0.771-1.771-1.155-3.701-1.155-5.785
			c0-1.488,0.223-2.965,0.67-4.426c0.446-1.463,1.184-2.959,2.213-4.488c1.028-1.528,2.401-3.119,4.121-4.771
			c1.719-1.652,3.852-3.438,6.396-5.36c-1.463-1.001-2.891-2.084-4.285-3.249c-1.395-1.164-2.625-2.402-3.694-3.715
			c-1.068-1.313-1.929-2.701-2.578-4.163c-0.648-1.462-0.976-3.005-0.976-4.629c0-1.056,0.156-2.233,0.468-3.533
			c0.313-1.3,0.817-2.605,1.522-3.919c0.703-1.313,1.611-2.599,2.721-3.857c1.11-1.258,2.449-2.369,4.021-3.33
			c1.57-0.96,3.398-1.739,5.482-2.335c2.084-0.595,4.452-0.893,7.104-0.893c2.789,0,5.191,0.339,7.209,1.015
			c2.016,0.677,3.674,1.598,4.975,2.761c1.3,1.165,2.255,2.518,2.861,4.061C75.252,31.093,75.556,32.731,75.556,34.463z
			 M69.14,74.99c0-1.787-0.438-3.445-1.318-4.975c-0.881-1.529-2.018-2.971-3.411-4.324c-1.395-1.354-2.972-2.646-4.73-3.879
			c-1.76-1.23-3.533-2.416-5.32-3.553l-1.137-0.73c-2.813,2.029-4.887,4.264-6.213,6.699c-1.326,2.438-1.988,4.887-1.988,7.35
			c0,1.814,0.338,3.5,1.015,5.057c0.678,1.558,1.61,2.902,2.803,4.041c1.19,1.137,2.598,2.029,4.223,2.681
			c1.625,0.647,3.396,0.976,5.32,0.976c1.678,0,3.18-0.244,4.506-0.731s2.457-1.157,3.393-2.011c0.935-0.853,1.646-1.84,2.132-2.965
			C68.898,77.5,69.14,76.289,69.14,74.99z M46.806,34.463c0,1.517,0.353,2.924,1.057,4.223c0.703,1.299,1.664,2.545,2.884,3.736
			c1.219,1.191,2.639,2.362,4.264,3.513s3.357,2.335,5.197,3.553c2.6-1.787,4.467-3.742,5.604-5.868
			c1.14-2.125,1.707-4.27,1.707-6.436c0-1.462-0.252-2.835-0.752-4.122c-0.502-1.286-1.225-2.409-2.172-3.371
			c-0.949-0.96-2.111-1.719-3.492-2.274c-1.381-0.554-2.965-0.833-4.752-0.833c-1.408,0-2.699,0.183-3.877,0.548
			c-1.178,0.366-2.188,0.887-3.024,1.563c-0.841,0.677-1.49,1.502-1.949,2.477C47.037,32.149,46.806,33.245,46.806,34.463z"/>
		<path fill="#FFFFFF" d="M75.556,34.463c0,1.814-0.305,3.472-0.914,4.975c-0.606,1.502-1.447,2.931-2.518,4.284
			c-1.068,1.354-2.334,2.68-3.797,3.979c-1.461,1.3-3.06,2.654-4.791,4.061c1.76,1.191,3.498,2.457,5.219,3.796
			c1.719,1.34,3.254,2.775,4.608,4.304c1.353,1.53,2.449,3.154,3.289,4.873c0.839,1.72,1.259,3.554,1.259,5.502
			c0,1.164-0.17,2.438-0.509,3.817c-0.338,1.381-0.887,2.77-1.645,4.162c-0.758,1.395-1.732,2.74-2.924,4.039
			c-1.191,1.302-2.633,2.451-4.324,3.453s-3.648,1.808-5.867,2.416c-2.221,0.608-4.738,0.914-7.553,0.914
			c-3.113,0-5.842-0.373-8.184-1.117c-2.343-0.744-4.291-1.779-5.849-3.106c-1.557-1.325-2.721-2.876-3.492-4.649
			c-0.771-1.771-1.155-3.701-1.155-5.785c0-1.488,0.223-2.965,0.67-4.426c0.446-1.463,1.184-2.959,2.213-4.488
			c1.028-1.528,2.401-3.119,4.121-4.771c1.719-1.652,3.852-3.438,6.396-5.36c-1.463-1.001-2.891-2.084-4.285-3.249
			c-1.395-1.164-2.625-2.402-3.694-3.715c-1.068-1.313-1.929-2.701-2.578-4.163c-0.648-1.462-0.976-3.005-0.976-4.629
			c0-1.056,0.156-2.233,0.468-3.533c0.313-1.3,0.817-2.605,1.522-3.919c0.703-1.313,1.611-2.599,2.721-3.857
			c1.11-1.258,2.449-2.369,4.021-3.33c1.57-0.96,3.398-1.739,5.482-2.335c2.084-0.595,4.452-0.893,7.104-0.893
			c2.789,0,5.191,0.339,7.209,1.015c2.016,0.677,3.674,1.598,4.975,2.761c1.3,1.165,2.255,2.518,2.861,4.061
			C75.252,31.093,75.556,32.731,75.556,34.463z M69.14,74.99c0-1.787-0.438-3.445-1.318-4.975c-0.881-1.529-2.018-2.971-3.411-4.324
			c-1.395-1.354-2.972-2.646-4.73-3.879c-1.76-1.23-3.533-2.416-5.32-3.553l-1.137-0.73c-2.813,2.029-4.887,4.264-6.213,6.699
			c-1.326,2.438-1.988,4.887-1.988,7.35c0,1.814,0.338,3.5,1.015,5.057c0.678,1.558,1.61,2.902,2.803,4.041
			c1.19,1.137,2.598,2.029,4.223,2.681c1.625,0.647,3.396,0.976,5.32,0.976c1.678,0,3.18-0.244,4.506-0.731s2.457-1.157,3.393-2.011
			c0.935-0.853,1.646-1.84,2.132-2.965C68.898,77.5,69.14,76.289,69.14,74.99z M46.806,34.463c0,1.517,0.353,2.924,1.057,4.223
			c0.703,1.299,1.664,2.545,2.884,3.736c1.219,1.191,2.639,2.362,4.264,3.513s3.357,2.335,5.197,3.553
			c2.6-1.787,4.467-3.742,5.604-5.868c1.14-2.125,1.707-4.27,1.707-6.436c0-1.462-0.252-2.835-0.752-4.122
			c-0.502-1.286-1.225-2.409-2.172-3.371c-0.949-0.96-2.111-1.719-3.492-2.274c-1.381-0.554-2.965-0.833-4.752-0.833
			c-1.408,0-2.699,0.183-3.877,0.548c-1.178,0.366-2.188,0.887-3.024,1.563c-0.841,0.677-1.49,1.502-1.949,2.477
			C47.037,32.149,46.806,33.245,46.806,34.463z"/>
	</g>
</g>
</svg>
