<?xml version="1.0" encoding="utf-8"?>
<!-- Generator: Adobe Illustrator 16.0.0, SVG Export Plug-In . SVG Version: 6.00 Build 0)  -->
<!DOCTYPE svg PUBLIC "-//W3C//DTD SVG 1.1//EN" "http://www.w3.org/Graphics/SVG/1.1/DTD/svg11.dtd">
<svg version="1.1" id="Layer_1" xmlns="http://www.w3.org/2000/svg" xmlns:xlink="http://www.w3.org/1999/xlink" x="0px" y="0px"
	 width="60px" height="85px" viewBox="26.694 14.193 60 85" enable-background="new 26.694 14.193 60 85" xml:space="preserve">
<g>
	<path d="M82.698,40.82c-1.055-3.673-2.632-6.899-4.688-9.592c-2.128-2.779-4.776-4.97-7.873-6.51
		c-3.104-1.544-6.648-2.327-10.531-2.327c-3.306,0-6.515,0.569-9.537,1.692c-3.06,1.138-5.81,2.815-8.174,4.986
		c-2.385,2.191-4.302,4.888-5.698,8.016c-1.4,3.144-2.111,6.705-2.111,10.584c0,2.845,0.406,5.626,1.209,8.268
		c0.835,2.75,2.115,5.221,3.805,7.339c1.732,2.177,3.902,3.937,6.447,5.233c2.601,1.328,5.608,2,8.942,2
		c2.393,0,4.62-0.332,6.629-0.99c1.62-0.531,3.083-1.191,4.354-1.965c-0.159,0.859-0.343,1.674-0.55,2.441
		c-0.843,3.125-1.951,5.649-3.296,7.506c-1.247,1.723-2.619,2.92-4.193,3.664c-2.237,1.057-4.485,1.401-7.133,1.002
		c-0.607-0.092-1.244-0.266-1.895-0.512c-0.662-0.256-1.355-0.609-2.06-1.059c-0.686-0.438-1.394-1.021-2.104-1.729l-2.806-2.807
		l-2.829,2.779c-2.41,2.369-3.632,4.982-3.632,7.768c0,1.646,0.456,3.188,1.354,4.566c0.794,1.229,1.886,2.275,3.243,3.117
		c1.204,0.744,2.629,1.324,4.229,1.721c1.513,0.375,3.168,0.563,4.92,0.563c2.996,0,6.022-0.545,8.995-1.619
		c2.881-1.043,5.669-2.525,8.288-4.414c2.585-1.863,5.021-4.154,7.246-6.811c2.205-2.637,4.144-5.6,5.761-8.805
		c1.618-3.205,2.905-6.729,3.825-10.471c0.926-3.764,1.396-7.759,1.396-11.879C84.234,48.331,83.718,44.374,82.698,40.82z
		 M61.427,56.019c-0.441,0.05-0.836,0.076-1.171,0.076c-1.229,0-2.313-0.274-3.305-0.839c-1.131-0.641-2.095-1.5-2.947-2.63
		c-0.892-1.177-1.602-2.607-2.109-4.251c-0.526-1.705-0.796-3.568-0.796-5.538c0-1.377,0.146-2.621,0.437-3.703
		c0.248-0.932,0.595-1.708,1.027-2.303c0.354-0.485,0.764-0.831,1.28-1.087c0.537-0.265,1.233-0.399,2.068-0.399
		c1.277,0,2.444,0.34,3.567,1.039c1.188,0.74,2.266,1.938,3.198,3.558c1.063,1.843,1.925,4.247,2.563,7.147
		c0.443,2.02,0.742,4.312,0.893,6.846l-1.132,0.848c-0.287,0.215-0.592,0.39-0.938,0.536c-0.441,0.189-0.892,0.342-1.329,0.454
		C62.279,55.889,61.84,55.972,61.427,56.019z"/>
	<g>
		<path fill="#B70000" stroke="#1B1C1C" stroke-width="8" stroke-miterlimit="10" d="M68.245,53.321
			c0-4.439-0.365-8.317-1.099-11.634c-0.729-3.315-1.73-6.077-3.005-8.284c-1.271-2.206-2.788-3.857-4.548-4.954
			c-1.76-1.096-3.654-1.645-5.685-1.645c-1.463,0-2.741,0.271-3.84,0.812c-1.097,0.542-2.01,1.313-2.739,2.315
			c-0.73,1.001-1.286,2.213-1.664,3.634c-0.38,1.421-0.569,2.999-0.569,4.73c0,2.383,0.325,4.623,0.977,6.721
			c0.648,2.098,1.563,3.925,2.739,5.482c1.18,1.557,2.564,2.789,4.162,3.695c1.6,0.907,3.356,1.36,5.279,1.36
			c0.487,0,1.028-0.034,1.624-0.102c0.596-0.067,1.211-0.183,1.848-0.345c0.636-0.163,1.272-0.379,1.908-0.65
			c0.636-0.27,1.225-0.609,1.767-1.015c0.056,0.108,0.097,0.23,0.122,0.366c0.026,0.136,0.041,0.271,0.041,0.406
			c0,0.758-0.312,1.584-0.935,2.477c-0.623,0.894-1.502,1.731-2.641,2.519c-1.138,0.785-2.512,1.44-4.12,1.969
			c-1.611,0.529-3.404,0.794-5.383,0.794c-2.706,0-5.083-0.521-7.126-1.563c-2.045-1.043-3.757-2.431-5.137-4.164
			c-1.381-1.732-2.416-3.736-3.104-6.01c-0.69-2.274-1.036-4.643-1.036-7.106c0-3.33,0.589-6.314,1.767-8.954
			c1.178-2.639,2.762-4.873,4.751-6.7c1.99-1.827,4.277-3.221,6.862-4.183c2.585-0.96,5.3-1.441,8.143-1.441
			c3.274,0,6.192,0.637,8.75,1.909c2.561,1.273,4.719,3.06,6.479,5.36c1.759,2.301,3.1,5.056,4.02,8.264s1.381,6.761,1.381,10.659
			c0,3.817-0.427,7.458-1.277,10.922c-0.854,3.468-2.023,6.675-3.515,9.625c-1.486,2.949-3.24,5.631-5.258,8.039
			c-2.018,2.41-4.188,4.453-6.518,6.134c-2.329,1.678-4.768,2.978-7.312,3.897c-2.545,0.92-5.09,1.381-7.634,1.381
			c-1.436,0-2.755-0.149-3.959-0.447c-1.205-0.299-2.233-0.711-3.087-1.237c-0.854-0.528-1.517-1.157-1.989-1.89
			c-0.475-0.729-0.711-1.528-0.711-2.396c0-1.678,0.813-3.314,2.438-4.91c0.92,0.92,1.848,1.678,2.779,2.271
			c0.937,0.596,1.861,1.066,2.782,1.421c0.92,0.353,1.827,0.597,2.721,0.729c0.895,0.135,1.761,0.203,2.601,0.203
			c2.382,0,4.663-0.516,6.842-1.543c2.18-1.029,4.088-2.674,5.728-4.934c1.638-2.262,2.942-5.198,3.919-8.813
			C67.758,62.884,68.245,58.492,68.245,53.321z"/>
		<path fill="#B70000" d="M68.245,53.321c0-4.439-0.365-8.317-1.099-11.634c-0.729-3.315-1.73-6.077-3.005-8.284
			c-1.271-2.206-2.788-3.857-4.548-4.954c-1.76-1.096-3.654-1.645-5.685-1.645c-1.463,0-2.741,0.271-3.84,0.812
			c-1.097,0.542-2.01,1.313-2.739,2.315c-0.73,1.001-1.286,2.213-1.664,3.634c-0.38,1.421-0.569,2.999-0.569,4.73
			c0,2.383,0.325,4.623,0.977,6.721c0.648,2.098,1.563,3.925,2.739,5.482c1.18,1.557,2.564,2.789,4.162,3.695
			c1.6,0.907,3.356,1.36,5.279,1.36c0.487,0,1.028-0.034,1.624-0.102c0.596-0.067,1.211-0.183,1.848-0.345
			c0.636-0.163,1.272-0.379,1.908-0.65c0.636-0.27,1.225-0.609,1.767-1.015c0.056,0.108,0.097,0.23,0.122,0.366
			c0.026,0.136,0.041,0.271,0.041,0.406c0,0.758-0.312,1.584-0.935,2.477c-0.623,0.894-1.502,1.731-2.641,2.519
			c-1.138,0.785-2.512,1.44-4.12,1.969c-1.611,0.529-3.404,0.794-5.383,0.794c-2.706,0-5.083-0.521-7.126-1.563
			c-2.045-1.043-3.757-2.431-5.137-4.164c-1.381-1.732-2.416-3.736-3.104-6.01c-0.69-2.274-1.036-4.643-1.036-7.106
			c0-3.33,0.589-6.314,1.767-8.954c1.178-2.639,2.762-4.873,4.751-6.7c1.99-1.827,4.277-3.221,6.862-4.183
			c2.585-0.96,5.3-1.441,8.143-1.441c3.274,0,6.192,0.637,8.75,1.909c2.561,1.273,4.719,3.06,6.479,5.36
			c1.759,2.301,3.1,5.056,4.02,8.264s1.381,6.761,1.381,10.659c0,3.817-0.427,7.458-1.277,10.922
			c-0.854,3.468-2.023,6.675-3.515,9.625c-1.486,2.949-3.24,5.631-5.258,8.039c-2.018,2.41-4.188,4.453-6.518,6.134
			c-2.329,1.678-4.768,2.978-7.312,3.897c-2.545,0.92-5.09,1.381-7.634,1.381c-1.436,0-2.755-0.149-3.959-0.447
			c-1.205-0.299-2.233-0.711-3.087-1.237c-0.854-0.528-1.517-1.157-1.989-1.89c-0.475-0.729-0.711-1.528-0.711-2.396
			c0-1.678,0.813-3.314,2.438-4.91c0.92,0.92,1.848,1.678,2.779,2.271c0.937,0.596,1.861,1.066,2.782,1.421
			c0.92,0.353,1.827,0.597,2.721,0.729c0.895,0.135,1.761,0.203,2.601,0.203c2.382,0,4.663-0.516,6.842-1.543
			c2.18-1.029,4.088-2.674,5.728-4.934c1.638-2.262,2.942-5.198,3.919-8.813C67.758,62.884,68.245,58.492,68.245,53.321z"/>
	</g>
</g>
</svg>
