<?xml version="1.0" encoding="utf-8"?>
<!-- Generator: Adobe Illustrator 16.0.0, SVG Export Plug-In . SVG Version: 6.00 Build 0)  -->
<!DOCTYPE svg PUBLIC "-//W3C//DTD SVG 1.1//EN" "http://www.w3.org/Graphics/SVG/1.1/DTD/svg11.dtd">
<svg version="1.1" id="Layer_1" xmlns="http://www.w3.org/2000/svg" xmlns:xlink="http://www.w3.org/1999/xlink" x="0px" y="0px"
	 width="60px" height="85px" viewBox="0 0 60 85" enable-background="new 0 0 60 85" xml:space="preserve">
<g>
	<path d="M51.093,41.479c-1.792-2.117-4.026-3.806-6.646-5.022c-2.618-1.217-5.61-1.834-8.893-1.834
		c-2.513,0-4.803,0.344-6.809,1.024c-1.548,0.524-2.938,1.16-4.137,1.893c0.199-1.182,0.44-2.285,0.728-3.307
		c0.905-3.256,2.083-5.875,3.499-7.782c1.325-1.783,2.762-3.016,4.391-3.767c1.721-0.792,3.438-1.176,5.252-1.176
		c1.354,0,2.692,0.201,3.983,0.596c1.386,0.425,2.854,1.083,4.374,1.957l1.975,1.136l1.982-1.116
		c1.428-0.803,2.563-1.84,3.377-3.084c0.893-1.362,1.344-2.85,1.344-4.422c0-1.33-0.347-2.63-1.031-3.869
		c-0.651-1.18-1.613-2.21-2.86-3.067c-1.095-0.748-2.431-1.343-3.978-1.772c-1.467-0.406-3.172-0.611-5.063-0.611
		c-3.1,0-6.221,0.548-9.273,1.63c-2.979,1.055-5.871,2.575-8.584,4.516c-2.674,1.911-5.188,4.234-7.476,6.907
		c-2.283,2.667-4.286,5.696-5.953,9.002c-1.657,3.285-2.979,6.879-3.925,10.682c-0.954,3.832-1.438,7.906-1.438,12.113
		c0,4.492,0.558,8.61,1.651,12.239c1.133,3.759,2.804,7.019,4.964,9.688c2.215,2.734,4.922,4.869,8.044,6.34
		c3.11,1.467,6.614,2.209,10.415,2.209c3.51,0,6.844-0.631,9.911-1.877c3.069-1.248,5.788-3.018,8.073-5.254
		c2.296-2.248,4.125-4.969,5.438-8.09c1.313-3.121,1.979-6.572,1.979-10.262c0-2.933-0.442-5.761-1.318-8.406
		C54.182,45.966,52.838,43.541,51.093,41.479z M24.958,57.962c-0.45-1.994-0.756-4.274-0.913-6.813l1.281-0.963
		c0.283-0.213,0.589-0.388,0.929-0.531c0.449-0.191,0.896-0.344,1.336-0.455c0.45-0.117,0.896-0.199,1.316-0.246
		c0.464-0.051,0.866-0.076,1.202-0.076c1.234,0,2.336,0.27,3.363,0.82c1.12,0.604,2.08,1.434,2.935,2.535
		c0.897,1.168,1.627,2.602,2.157,4.258c0.547,1.709,0.824,3.607,0.824,5.645c0,2.736-0.488,4.785-1.451,6.092
		c-0.479,0.65-1.31,1.4-3.439,1.4c-1.311,0-2.506-0.334-3.659-1.021c-1.188-0.709-2.28-1.883-3.243-3.488
		C26.506,63.296,25.619,60.891,24.958,57.962z"/>
	<g>
		<path fill="#FFFFFF" stroke="#1B1C1C" stroke-width="8" stroke-miterlimit="10" d="M17.92,42.367
			c0,4.602,0.379,8.582,1.137,11.938c0.758,3.356,1.793,6.133,3.106,8.323c1.313,2.192,2.854,3.815,4.63,4.873
			c1.771,1.058,3.675,1.584,5.705,1.584c2.95,0,5.17-1.008,6.659-3.024c1.485-2.019,2.231-4.838,2.231-8.468
			c0-2.463-0.34-4.752-1.016-6.86c-0.68-2.111-1.611-3.938-2.803-5.48c-1.192-1.542-2.594-2.748-4.202-3.616
			c-1.611-0.866-3.364-1.299-5.261-1.299c-0.485,0-1.033,0.034-1.646,0.103c-0.608,0.067-1.231,0.183-1.868,0.345
			c-0.636,0.161-1.271,0.379-1.908,0.649c-0.637,0.271-1.226,0.608-1.767,1.016c-0.108-0.299-0.162-0.569-0.162-0.813
			c0-0.649,0.271-1.413,0.813-2.294c0.541-0.879,1.354-1.706,2.438-2.477c1.083-0.772,2.424-1.428,4.021-1.971
			c1.599-0.541,3.438-0.812,5.521-0.812c2.707,0,5.109,0.487,7.208,1.462s3.857,2.301,5.278,3.979
			c1.422,1.68,2.504,3.643,3.249,5.891c0.743,2.246,1.114,4.629,1.114,7.146c0,3.168-0.555,6.068-1.664,8.711
			c-1.108,2.64-2.627,4.898-4.549,6.779c-1.922,1.883-4.184,3.352-6.779,4.406c-2.6,1.055-5.4,1.584-8.405,1.584
			c-3.222,0-6.125-0.609-8.71-1.828c-2.586-1.219-4.799-2.965-6.643-5.236c-1.84-2.274-3.256-5.051-4.24-8.324
			c-0.989-3.274-1.482-6.973-1.482-11.086c0-3.897,0.439-7.614,1.319-11.147s2.085-6.815,3.612-9.847
			c1.529-3.032,3.338-5.766,5.423-8.203s4.338-4.521,6.762-6.253c2.422-1.732,4.954-3.066,7.593-4
			c2.641-0.934,5.286-1.401,7.939-1.401c1.543,0,2.876,0.156,3.999,0.467c1.123,0.312,2.051,0.718,2.78,1.218
			c0.729,0.501,1.271,1.07,1.623,1.706c0.354,0.636,0.528,1.279,0.528,1.929c0,0.786-0.229,1.53-0.69,2.233
			c-0.461,0.705-1.123,1.299-1.987,1.787c-1.786-1.028-3.521-1.8-5.197-2.314c-1.679-0.514-3.397-0.771-5.157-0.771
			c-2.383,0-4.688,0.515-6.924,1.543c-2.232,1.029-4.21,2.701-5.929,5.015c-1.722,2.314-3.103,5.347-4.144,9.096
			C18.436,32.373,17.92,36.952,17.92,42.367z"/>
		<path fill="#28B500" d="M17.92,42.367c0,4.602,0.379,8.582,1.137,11.938c0.758,3.356,1.793,6.133,3.106,8.323
			c1.313,2.192,2.854,3.815,4.63,4.873c1.771,1.058,3.675,1.584,5.705,1.584c2.95,0,5.17-1.008,6.659-3.024
			c1.485-2.019,2.231-4.838,2.231-8.468c0-2.463-0.34-4.752-1.016-6.86c-0.68-2.111-1.611-3.938-2.803-5.48
			c-1.192-1.542-2.594-2.748-4.202-3.616c-1.611-0.866-3.364-1.299-5.261-1.299c-0.485,0-1.033,0.034-1.646,0.103
			c-0.608,0.067-1.231,0.183-1.868,0.345c-0.636,0.161-1.271,0.379-1.908,0.649c-0.637,0.271-1.226,0.608-1.767,1.016
			c-0.108-0.299-0.162-0.569-0.162-0.813c0-0.649,0.271-1.413,0.813-2.294c0.541-0.879,1.354-1.706,2.438-2.477
			c1.083-0.772,2.424-1.428,4.021-1.971c1.599-0.541,3.438-0.812,5.521-0.812c2.707,0,5.109,0.487,7.208,1.462
			s3.857,2.301,5.278,3.979c1.422,1.68,2.504,3.643,3.249,5.891c0.743,2.246,1.114,4.629,1.114,7.146
			c0,3.168-0.555,6.068-1.664,8.711c-1.108,2.64-2.627,4.898-4.549,6.779c-1.922,1.883-4.184,3.352-6.779,4.406
			c-2.6,1.055-5.4,1.584-8.405,1.584c-3.222,0-6.125-0.609-8.71-1.828c-2.586-1.219-4.799-2.965-6.643-5.236
			c-1.84-2.274-3.256-5.051-4.24-8.324c-0.989-3.274-1.482-6.973-1.482-11.086c0-3.897,0.439-7.614,1.319-11.147
			s2.085-6.815,3.612-9.847c1.529-3.032,3.338-5.766,5.423-8.203s4.338-4.521,6.762-6.253c2.422-1.732,4.954-3.066,7.593-4
			c2.641-0.934,5.286-1.401,7.939-1.401c1.543,0,2.876,0.156,3.999,0.467c1.123,0.312,2.051,0.718,2.78,1.218
			c0.729,0.501,1.271,1.07,1.623,1.706c0.354,0.636,0.528,1.279,0.528,1.929c0,0.786-0.229,1.53-0.69,2.233
			c-0.461,0.705-1.123,1.299-1.987,1.787c-1.786-1.028-3.521-1.8-5.197-2.314c-1.679-0.514-3.397-0.771-5.157-0.771
			c-2.383,0-4.688,0.515-6.924,1.543c-2.232,1.029-4.21,2.701-5.929,5.015c-1.722,2.314-3.103,5.347-4.144,9.096
			C18.436,32.373,17.92,36.952,17.92,42.367z"/>
	</g>
</g>
</svg>
