<?xml version="1.0" encoding="utf-8"?>
<!-- Generator: Adobe Illustrator 16.0.0, SVG Export Plug-In . SVG Version: 6.00 Build 0)  -->
<!DOCTYPE svg PUBLIC "-//W3C//DTD SVG 1.1//EN" "http://www.w3.org/Graphics/SVG/1.1/DTD/svg11.dtd">
<svg version="1.1" id="Layer_1" xmlns="http://www.w3.org/2000/svg" xmlns:xlink="http://www.w3.org/1999/xlink" x="0px" y="0px"
	 width="60px" height="85px" viewBox="0 0 60 85" enable-background="new 0 0 60 85" xml:space="preserve">
<g>
	<path d="M47.869,40.199c-1.152-0.959-2.398-1.779-3.729-2.45c1.268-1.26,2.334-2.542,3.183-3.819
		c1.047-1.58,1.812-3.193,2.272-4.797c0.455-1.575,0.688-3.137,0.688-4.642c0-1.97-0.369-3.933-1.1-5.838
		c-0.74-1.929-1.836-3.673-3.259-5.187c-1.428-1.517-3.188-2.751-5.235-3.67C37.168,8.218,32.734,7.97,28.1,9.067
		c-1.816,0.432-3.623,1.031-5.367,1.78c-1.728,0.743-3.396,1.62-4.959,2.607c-1.614,1.02-3.061,2.137-4.293,3.321
		c-1.301,1.251-2.367,2.576-3.168,3.937c-0.987,1.674-1.488,3.396-1.488,5.119c0,1.309,0.279,2.5,0.826,3.533
		c0.527,0.999,1.25,1.838,2.146,2.493c0.793,0.582,1.696,1.019,2.685,1.295c2.533,0.714,5.34,0.394,7.89-0.881
		c1.937-0.967,3.411-2.512,4.271-4.467l1.024-2.335l-1.687-1.915c-0.279-0.318-0.465-0.57-0.588-0.758
		c0.281-0.17,0.646-0.317,1.076-0.436c1.035-0.284,2.404-0.291,3.576,0.108c0.449,0.154,0.848,0.407,1.208,0.769
		c0.386,0.384,0.715,0.951,0.983,1.682c0.305,0.825,0.466,1.997,0.466,3.389c0,1.898-0.29,3.004-0.534,3.6
		c-0.365,0.893-0.813,1.622-1.325,2.168c-0.563,0.601-1.179,1.078-1.88,1.459c-1.007,0.548-1.998,1.06-2.891,1.494
		c-0.799,0.373-1.541,0.695-2.201,0.955l-0.113,0.046c-0.994,0.426-1.898,0.917-2.689,1.462c-1.049,0.724-1.896,1.629-2.521,2.695
		c-0.687,1.174-1.032,2.569-1.032,4.147v5.478l5.217-1.666c1.109-0.354,2.063-0.607,2.824-0.754c0.67-0.129,1.399-0.193,2.172-0.193
		c1.565,0,2.887,0.232,3.922,0.691c1.004,0.444,1.795,1.022,2.42,1.764c0.662,0.785,1.146,1.713,1.478,2.84
		c0.377,1.275,0.567,2.699,0.567,4.229c0,1.951-0.258,3.531-0.764,4.695c-0.486,1.117-1.08,1.961-1.813,2.58
		c-0.765,0.645-1.606,1.086-2.582,1.354c-2.604,0.715-5.406,0.659-8.108-0.341c-1.418-0.524-2.963-1.571-4.59-3.112l-2.47-2.338
		l-2.705,2.063c-1.579,1.203-2.774,2.53-3.558,3.951c-0.84,1.524-1.269,3.098-1.269,4.672c0,1.604,0.429,3.121,1.271,4.517
		c0.759,1.241,1.812,2.329,3.133,3.233c1.209,0.823,2.652,1.476,4.293,1.932c1.563,0.433,3.314,0.652,5.21,0.652
		c2.521,0,5.101-0.394,7.67-1.164c2.478-0.746,4.905-1.783,7.226-3.086c2.299-1.291,4.491-2.847,6.521-4.617
		c2.043-1.785,3.853-3.758,5.378-5.86c1.548-2.138,2.794-4.418,3.703-6.781c0.958-2.496,1.441-5.063,1.441-7.627
		c0-2.898-0.617-5.523-1.834-7.799C51.118,43.505,49.639,41.674,47.869,40.199z"/>
	<g>
		<path fill="#FFFFFF" stroke="#1B1B1C" stroke-width="8" stroke-miterlimit="10" d="M20.975,21.657
			c-0.488,1.11-1.287,1.943-2.396,2.497c-1.11,0.555-2.232,0.833-3.37,0.833c-0.567,0-1.117-0.074-1.646-0.223
			c-0.526-0.148-0.994-0.372-1.399-0.67c-0.406-0.297-0.729-0.676-0.976-1.137c-0.244-0.46-0.365-1.015-0.365-1.665
			c0-1.001,0.312-2.03,0.935-3.086c0.622-1.056,1.455-2.084,2.497-3.086c1.042-1.001,2.262-1.942,3.655-2.822
			c1.394-0.879,2.86-1.651,4.403-2.315c1.543-0.663,3.112-1.184,4.711-1.563c1.599-0.378,3.142-0.568,4.629-0.568
			c2.031,0,3.83,0.352,5.4,1.056c1.569,0.705,2.891,1.625,3.961,2.762c1.066,1.137,1.881,2.43,2.438,3.878
			c0.554,1.448,0.832,2.917,0.832,4.406c0,1.137-0.178,2.314-0.528,3.533c-0.353,1.219-0.938,2.45-1.767,3.695
			c-0.825,1.246-1.908,2.498-3.25,3.755c-1.34,1.26-2.982,2.498-4.934,3.717l0.082,0.324c1.543,0.108,3.151,0.475,4.83,1.098
			c1.68,0.623,3.208,1.509,4.59,2.66c1.381,1.15,2.523,2.572,3.432,4.264c0.906,1.691,1.361,3.662,1.361,5.908
			c0,2.086-0.396,4.148-1.18,6.193c-0.786,2.043-1.854,3.998-3.208,5.866c-1.354,1.867-2.942,3.601-4.771,5.197
			s-3.775,2.979-5.85,4.144c-2.068,1.162-4.21,2.075-6.414,2.739c-2.207,0.664-4.381,0.994-6.52,0.994
			c-1.543,0-2.924-0.168-4.143-0.506c-1.22-0.343-2.254-0.802-3.105-1.381c-0.854-0.585-1.51-1.255-1.971-2.013
			c-0.461-0.76-0.688-1.567-0.688-2.438c0-0.895,0.257-1.809,0.771-2.74c0.516-0.934,1.34-1.834,2.479-2.699
			c2.029,1.922,4.016,3.24,5.948,3.959c1.935,0.717,3.892,1.074,5.866,1.074c1.6,0,3.162-0.209,4.689-0.629
			c1.529-0.42,2.896-1.137,4.104-2.15c1.203-1.018,2.172-2.36,2.902-4.041c0.729-1.68,1.098-3.774,1.098-6.293
			c0-1.922-0.244-3.709-0.73-5.36c-0.486-1.65-1.236-3.078-2.254-4.283c-1.016-1.205-2.303-2.151-3.855-2.841
			c-1.558-0.69-3.404-1.036-5.543-1.036c-1.029,0-2.004,0.088-2.926,0.265c-0.92,0.176-2.018,0.467-3.289,0.872
			c0-0.866,0.163-1.577,0.487-2.132c0.323-0.555,0.771-1.029,1.34-1.421c0.567-0.392,1.229-0.751,1.99-1.076
			c0.758-0.297,1.567-0.649,2.438-1.056c1-0.487,2.034-1.021,3.104-1.604c1.067-0.582,2.028-1.326,2.883-2.233
			s1.558-2.037,2.11-3.391c0.556-1.354,0.832-3.059,0.832-5.117c0-1.895-0.235-3.485-0.711-4.771
			c-0.473-1.285-1.108-2.328-1.906-3.126c-0.801-0.798-1.715-1.374-2.741-1.726c-1.028-0.351-2.101-0.528-3.208-0.528
			c-0.977,0-1.882,0.116-2.721,0.345c-0.842,0.23-1.57,0.542-2.192,0.934c-0.623,0.393-1.116,0.86-1.481,1.401
			c-0.363,0.542-0.547,1.124-0.547,1.746C19.188,19.098,19.783,20.303,20.975,21.657z"/>
		<path fill="#28B500" d="M20.975,21.657c-0.488,1.11-1.287,1.943-2.396,2.497c-1.11,0.555-2.232,0.833-3.37,0.833
			c-0.567,0-1.117-0.074-1.646-0.223c-0.526-0.148-0.994-0.372-1.399-0.67c-0.406-0.297-0.729-0.676-0.976-1.137
			c-0.244-0.46-0.365-1.015-0.365-1.665c0-1.001,0.312-2.03,0.935-3.086c0.622-1.056,1.455-2.084,2.497-3.086
			c1.042-1.001,2.262-1.942,3.655-2.822c1.394-0.879,2.86-1.651,4.403-2.315c1.543-0.663,3.112-1.184,4.711-1.563
			c1.599-0.378,3.142-0.568,4.629-0.568c2.031,0,3.83,0.352,5.4,1.056c1.569,0.705,2.891,1.625,3.961,2.762
			c1.066,1.137,1.881,2.43,2.438,3.878c0.554,1.448,0.832,2.917,0.832,4.406c0,1.137-0.178,2.314-0.528,3.533
			c-0.353,1.219-0.938,2.45-1.767,3.695c-0.825,1.246-1.908,2.498-3.25,3.755c-1.34,1.26-2.982,2.498-4.934,3.717l0.082,0.324
			c1.543,0.108,3.151,0.475,4.83,1.098c1.68,0.623,3.208,1.509,4.59,2.66c1.381,1.15,2.523,2.572,3.432,4.264
			c0.906,1.691,1.361,3.662,1.361,5.908c0,2.086-0.396,4.148-1.18,6.193c-0.786,2.043-1.854,3.998-3.208,5.866
			c-1.354,1.867-2.942,3.601-4.771,5.197s-3.775,2.979-5.85,4.144c-2.068,1.162-4.21,2.075-6.414,2.739
			c-2.207,0.664-4.381,0.994-6.52,0.994c-1.543,0-2.924-0.168-4.143-0.506c-1.22-0.343-2.254-0.802-3.105-1.381
			c-0.854-0.585-1.51-1.255-1.971-2.013c-0.461-0.76-0.688-1.567-0.688-2.438c0-0.895,0.257-1.809,0.771-2.74
			c0.516-0.934,1.34-1.834,2.479-2.699c2.029,1.922,4.016,3.24,5.948,3.959c1.935,0.717,3.892,1.074,5.866,1.074
			c1.6,0,3.162-0.209,4.689-0.629c1.529-0.42,2.896-1.137,4.104-2.15c1.203-1.018,2.172-2.36,2.902-4.041
			c0.729-1.68,1.098-3.774,1.098-6.293c0-1.922-0.244-3.709-0.73-5.36c-0.486-1.65-1.236-3.078-2.254-4.283
			c-1.016-1.205-2.303-2.151-3.855-2.841c-1.558-0.69-3.404-1.036-5.543-1.036c-1.029,0-2.004,0.088-2.926,0.265
			c-0.92,0.176-2.018,0.467-3.289,0.872c0-0.866,0.163-1.577,0.487-2.132c0.323-0.555,0.771-1.029,1.34-1.421
			c0.567-0.392,1.229-0.751,1.99-1.076c0.758-0.297,1.567-0.649,2.438-1.056c1-0.487,2.034-1.021,3.104-1.604
			c1.067-0.582,2.028-1.326,2.883-2.233s1.558-2.037,2.11-3.391c0.556-1.354,0.832-3.059,0.832-5.117
			c0-1.895-0.235-3.485-0.711-4.771c-0.473-1.285-1.108-2.328-1.906-3.126c-0.801-0.798-1.715-1.374-2.741-1.726
			c-1.028-0.351-2.101-0.528-3.208-0.528c-0.977,0-1.882,0.116-2.721,0.345c-0.842,0.23-1.57,0.542-2.192,0.934
			c-0.623,0.393-1.116,0.86-1.481,1.401c-0.363,0.542-0.547,1.124-0.547,1.746C19.188,19.098,19.783,20.303,20.975,21.657z"/>
	</g>
</g>
</svg>
