<?xml version="1.0" encoding="utf-8"?>
<!-- Generator: Adobe Illustrator 16.0.0, SVG Export Plug-In . SVG Version: 6.00 Build 0)  -->
<!DOCTYPE svg PUBLIC "-//W3C//DTD SVG 1.1//EN" "http://www.w3.org/Graphics/SVG/1.1/DTD/svg11.dtd">
<svg version="1.1" id="Layer_1" xmlns="http://www.w3.org/2000/svg" xmlns:xlink="http://www.w3.org/1999/xlink" x="0px" y="0px"
	 width="60px" height="85px" viewBox="26.694 14.193 60 85" enable-background="new 26.694 14.193 60 85" xml:space="preserve">
<g>
	<path d="M75.846,22.944c-1.429,0.104-3.157,0.205-5.136,0.298c-1.98,0.094-4.154,0.174-6.522,0.241
		c-4.884,0.139-10.229,0.139-15.234-0.04c-2.576-0.091-5.026-0.255-7.282-0.489l-3.305-0.342l-4.673,15.783l4.813,0.477
		c2.266,0.225,4.803,0.381,7.54,0.464c2.676,0.083,5.395,0.124,8.082,0.124c3.479,0,6.709-0.048,9.593-0.144
		c0.424-0.014,0.843-0.029,1.257-0.043c-1.771,3.407-3.515,6.674-5.209,9.756c-2.713,4.88-5.271,9.635-7.604,14.129
		c-2.355,4.53-4.514,9.016-6.408,13.332c-1.941,4.418-3.552,8.979-4.788,13.561l-0.705,2.615l4.752,3.565l2.188-1.041
		c0.993-0.476,2.081-0.917,3.228-1.313c1.179-0.41,2.507-0.812,3.948-1.188l2.38-0.627l0.514-2.407
		c0.576-2.699,1.174-5.197,1.776-7.425c0.592-2.188,1.277-4.383,2.04-6.526c0.758-2.136,1.664-4.408,2.695-6.757
		c1.042-2.374,2.317-5.09,3.811-8.098c1.537-3.153,3.002-6.03,4.355-8.552c1.375-2.563,2.63-4.882,3.753-6.941
		c1.141-2.065,2.158-3.919,3.056-5.562c0.927-1.699,1.729-3.279,2.391-4.698c0.704-1.517,1.252-2.932,1.628-4.202
		c0.435-1.459,0.652-2.901,0.652-4.285v-4.663l-4.608,0.709C78.409,22.718,77.56,22.819,75.846,22.944z"/>
	<g>
		<path fill="#FFFFFF" stroke="#1B1C1C" stroke-width="8" stroke-miterlimit="10" d="M39.258,22.393
			c2.354,0.244,4.872,0.413,7.553,0.508c2.682,0.095,5.389,0.142,8.121,0.142c2.52,0,4.977-0.034,7.37-0.102
			c2.396-0.067,4.595-0.148,6.599-0.244c2.003-0.095,3.749-0.196,5.238-0.305c1.488-0.108,2.585-0.216,3.289-0.325
			c0,1.002-0.162,2.051-0.487,3.147c-0.322,1.097-0.799,2.315-1.421,3.655c-0.623,1.34-1.381,2.829-2.272,4.467
			c-0.895,1.638-1.908,3.486-3.045,5.543c-1.14,2.085-2.396,4.413-3.776,6.984c-1.381,2.572-2.856,5.468-4.427,8.69
			c-1.519,3.06-2.811,5.807-3.878,8.244c-1.069,2.437-2.004,4.777-2.804,7.023c-0.799,2.247-1.51,4.521-2.132,6.822
			c-0.623,2.301-1.23,4.846-1.827,7.635c-1.543,0.406-2.958,0.832-4.241,1.279c-1.286,0.445-2.498,0.939-3.637,1.48l-0.647-0.486
			c1.188-4.412,2.721-8.744,4.588-12.994c1.868-4.25,3.966-8.615,6.295-13.096c2.327-4.48,4.845-9.159,7.553-14.03
			c2.682-4.873,5.441-10.125,8.283-15.755l-0.081-0.244c-2.382,0.136-5.009,0.25-7.878,0.345c-2.869,0.095-6.023,0.142-9.461,0.142
			c-2.653,0-5.307-0.041-7.959-0.122c-2.653-0.081-5.076-0.229-7.271-0.447L39.258,22.393z"/>
		<path fill="#B70000" d="M39.258,22.393c2.354,0.244,4.872,0.413,7.553,0.508c2.682,0.095,5.389,0.142,8.121,0.142
			c2.52,0,4.977-0.034,7.37-0.102c2.396-0.067,4.595-0.148,6.599-0.244c2.003-0.095,3.749-0.196,5.238-0.305
			c1.488-0.108,2.585-0.216,3.289-0.325c0,1.002-0.162,2.051-0.487,3.147c-0.322,1.097-0.799,2.315-1.421,3.655
			c-0.623,1.34-1.381,2.829-2.272,4.467c-0.895,1.638-1.908,3.486-3.045,5.543c-1.14,2.085-2.396,4.413-3.776,6.984
			c-1.381,2.572-2.856,5.468-4.427,8.69c-1.519,3.06-2.811,5.807-3.878,8.244c-1.069,2.437-2.004,4.777-2.804,7.023
			c-0.799,2.247-1.51,4.521-2.132,6.822c-0.623,2.301-1.23,4.846-1.827,7.635c-1.543,0.406-2.958,0.832-4.241,1.279
			c-1.286,0.445-2.498,0.939-3.637,1.48l-0.647-0.486c1.188-4.412,2.721-8.744,4.588-12.994c1.868-4.25,3.966-8.615,6.295-13.096
			c2.327-4.48,4.845-9.159,7.553-14.03c2.682-4.873,5.441-10.125,8.283-15.755l-0.081-0.244c-2.382,0.136-5.009,0.25-7.878,0.345
			c-2.869,0.095-6.023,0.142-9.461,0.142c-2.653,0-5.307-0.041-7.959-0.122c-2.653-0.081-5.076-0.229-7.271-0.447L39.258,22.393z"/>
	</g>
</g>
</svg>
