<?xml version="1.0" encoding="utf-8"?>
<!-- Generator: Adobe Illustrator 16.0.0, SVG Export Plug-In . SVG Version: 6.00 Build 0)  -->
<!DOCTYPE svg PUBLIC "-//W3C//DTD SVG 1.1//EN" "http://www.w3.org/Graphics/SVG/1.1/DTD/svg11.dtd">
<svg version="1.1" id="Layer_1" xmlns="http://www.w3.org/2000/svg" xmlns:xlink="http://www.w3.org/1999/xlink" x="0px" y="0px"
	 width="60px" height="85px" viewBox="26.693 14.193 60 85" enable-background="new 26.693 14.193 60 85" xml:space="preserve">
<g>
	<path d="M75.869,54.199c-1.152-0.959-2.398-1.779-3.727-2.45c1.266-1.26,2.333-2.542,3.181-3.82
		c1.047-1.58,1.812-3.193,2.274-4.796c0.455-1.575,0.686-3.137,0.686-4.642c0-1.97-0.369-3.933-1.098-5.838
		c-0.74-1.929-1.836-3.673-3.259-5.187c-1.428-1.517-3.188-2.751-5.236-3.67c-3.521-1.578-7.954-1.826-12.59-0.729
		c-1.817,0.432-3.622,1.031-5.366,1.78c-1.728,0.743-3.396,1.62-4.959,2.607c-1.616,1.02-3.061,2.137-4.293,3.321
		c-1.301,1.251-2.368,2.576-3.169,3.937c-0.988,1.674-1.489,3.396-1.489,5.119c0,1.309,0.28,2.5,0.828,3.533
		c0.527,0.999,1.25,1.838,2.144,2.493c0.793,0.582,1.696,1.019,2.684,1.296c2.533,0.713,5.341,0.393,7.889-0.881
		c1.937-0.967,3.412-2.512,4.271-4.468l1.024-2.335l-1.686-1.915c-0.28-0.318-0.465-0.57-0.587-0.758
		c0.281-0.17,0.645-0.317,1.076-0.436c1.035-0.284,2.404-0.291,3.576,0.108c0.449,0.154,0.847,0.407,1.208,0.769
		c0.385,0.384,0.715,0.951,0.985,1.682c0.303,0.825,0.464,1.997,0.464,3.389c0,1.898-0.29,3.005-0.534,3.6
		c-0.365,0.893-0.811,1.622-1.325,2.168c-0.563,0.601-1.179,1.078-1.88,1.459c-1.007,0.548-1.998,1.06-2.89,1.494
		c-0.798,0.374-1.54,0.695-2.202,0.955l-0.113,0.046c-0.995,0.426-1.899,0.917-2.689,1.462c-1.049,0.724-1.896,1.629-2.521,2.695
		c-0.686,1.174-1.032,2.57-1.032,4.148v5.477l5.217-1.666c1.109-0.354,2.061-0.607,2.823-0.754c0.67-0.129,1.4-0.193,2.173-0.193
		c1.565,0,2.886,0.232,3.921,0.692c1.004,0.444,1.796,1.022,2.421,1.763c0.661,0.785,1.144,1.713,1.476,2.84
		c0.377,1.276,0.568,2.699,0.568,4.228c0,1.952-0.258,3.532-0.764,4.696c-0.486,1.117-1.08,1.961-1.814,2.58
		c-0.763,0.644-1.606,1.086-2.582,1.354c-2.603,0.714-5.406,0.66-8.109-0.34c-1.418-0.526-2.962-1.573-4.589-3.113l-2.47-2.338
		l-2.705,2.063c-1.579,1.203-2.774,2.532-3.556,3.951c-0.841,1.526-1.269,3.098-1.269,4.672c0,1.604,0.428,3.121,1.272,4.516
		c0.757,1.242,1.81,2.33,3.131,3.234c1.209,0.824,2.653,1.475,4.293,1.932c1.563,0.433,3.315,0.652,5.21,0.652
		c2.52,0,5.101-0.393,7.67-1.164c2.478-0.746,4.907-1.783,7.225-3.086c2.3-1.291,4.492-2.846,6.521-4.617
		c2.043-1.785,3.853-3.758,5.378-5.861c1.548-2.137,2.794-4.418,3.703-6.781c0.958-2.496,1.443-5.063,1.443-7.626
		c0-2.899-0.617-5.524-1.835-7.799C79.118,57.505,77.638,55.674,75.869,54.199z"/>
	<g>
		<path fill="#FFFFFF" stroke="#1B1B1C" stroke-width="8" stroke-miterlimit="10" d="M48.974,35.657
			c-0.487,1.11-1.286,1.943-2.396,2.497c-1.11,0.555-2.232,0.833-3.37,0.833c-0.568,0-1.117-0.074-1.646-0.223
			c-0.527-0.148-0.994-0.372-1.4-0.67c-0.406-0.297-0.73-0.676-0.975-1.137c-0.244-0.46-0.365-1.015-0.365-1.665
			c0-1.001,0.311-2.03,0.934-3.086c0.622-1.056,1.455-2.084,2.497-3.086c1.042-1.001,2.262-1.942,3.655-2.822
			c1.394-0.879,2.862-1.651,4.405-2.315c1.543-0.663,3.112-1.184,4.711-1.563c1.597-0.378,3.14-0.568,4.629-0.568
			c2.03,0,3.83,0.352,5.4,1.056c1.569,0.705,2.89,1.625,3.96,2.762c1.067,1.137,1.881,2.43,2.437,3.878
			c0.554,1.448,0.832,2.917,0.832,4.406c0,1.137-0.177,2.314-0.528,3.533c-0.351,1.219-0.939,2.45-1.766,3.695
			c-0.826,1.246-1.909,2.497-3.249,3.756c-1.34,1.259-2.984,2.498-4.934,3.716l0.081,0.325c1.543,0.108,3.152,0.474,4.831,1.097
			c1.68,0.623,3.208,1.509,4.59,2.66c1.381,1.151,2.523,2.572,3.432,4.264c0.906,1.692,1.36,3.662,1.36,5.908
			c0,2.086-0.395,4.148-1.179,6.193c-0.786,2.043-1.854,3.999-3.208,5.867c-1.354,1.867-2.943,3.6-4.771,5.197
			c-1.827,1.597-3.776,2.979-5.849,4.143c-2.069,1.163-4.21,2.076-6.415,2.74c-2.206,0.664-4.38,0.994-6.519,0.994
			c-1.543,0-2.923-0.168-4.142-0.506c-1.219-0.341-2.254-0.8-3.106-1.381c-0.853-0.584-1.509-1.254-1.97-2.011
			c-0.46-0.759-0.689-1.569-0.689-2.438c0-0.893,0.257-1.807,0.771-2.74c0.514-0.934,1.34-1.834,2.477-2.7
			c2.03,1.922,4.015,3.241,5.949,3.959s3.891,1.075,5.867,1.075c1.598,0,3.161-0.209,4.689-0.629
			c1.529-0.42,2.896-1.137,4.103-2.151c1.204-1.017,2.172-2.36,2.903-4.04c0.729-1.68,1.097-3.775,1.097-6.294
			c0-1.922-0.244-3.709-0.731-5.36c-0.486-1.65-1.237-3.078-2.254-4.283c-1.015-1.205-2.301-2.152-3.856-2.842
			c-1.557-0.69-3.404-1.036-5.543-1.036c-1.029,0-2.004,0.088-2.925,0.264c-0.92,0.176-2.017,0.467-3.289,0.873
			c0-0.866,0.163-1.577,0.487-2.132c0.325-0.555,0.771-1.029,1.34-1.421s1.231-0.751,1.99-1.076c0.758-0.297,1.569-0.65,2.438-1.056
			c1.001-0.487,2.035-1.021,3.105-1.604c1.069-0.582,2.03-1.326,2.883-2.233c0.854-0.907,1.558-2.037,2.111-3.391
			c0.555-1.354,0.833-3.059,0.833-5.117c0-1.895-0.237-3.485-0.711-4.771c-0.474-1.285-1.11-2.328-1.908-3.126
			c-0.799-0.798-1.713-1.374-2.741-1.726c-1.028-0.351-2.099-0.528-3.208-0.528c-0.975,0-1.882,0.116-2.721,0.345
			c-0.84,0.23-1.57,0.542-2.192,0.934c-0.623,0.393-1.116,0.86-1.481,1.401c-0.365,0.542-0.548,1.124-0.548,1.746
			C47.188,33.098,47.783,34.303,48.974,35.657z"/>
		<path fill="#FFFFFF" d="M48.974,35.657c-0.487,1.11-1.286,1.943-2.396,2.497c-1.11,0.555-2.232,0.833-3.37,0.833
			c-0.568,0-1.117-0.074-1.646-0.223c-0.527-0.148-0.994-0.372-1.4-0.67c-0.406-0.297-0.73-0.676-0.975-1.137
			c-0.244-0.46-0.365-1.015-0.365-1.665c0-1.001,0.311-2.03,0.934-3.086c0.622-1.056,1.455-2.084,2.497-3.086
			c1.042-1.001,2.262-1.942,3.655-2.822c1.394-0.879,2.862-1.651,4.405-2.315c1.543-0.663,3.112-1.184,4.711-1.563
			c1.597-0.378,3.14-0.568,4.629-0.568c2.03,0,3.83,0.352,5.4,1.056c1.569,0.705,2.89,1.625,3.96,2.762
			c1.067,1.137,1.881,2.43,2.437,3.878c0.554,1.448,0.832,2.917,0.832,4.406c0,1.137-0.177,2.314-0.528,3.533
			c-0.351,1.219-0.939,2.45-1.766,3.695c-0.826,1.246-1.909,2.497-3.249,3.756c-1.34,1.259-2.984,2.498-4.934,3.716l0.081,0.325
			c1.543,0.108,3.152,0.474,4.831,1.097c1.68,0.623,3.208,1.509,4.59,2.66c1.381,1.151,2.523,2.572,3.432,4.264
			c0.906,1.692,1.36,3.662,1.36,5.908c0,2.086-0.395,4.148-1.179,6.193c-0.786,2.043-1.854,3.999-3.208,5.867
			c-1.354,1.867-2.943,3.6-4.771,5.197c-1.827,1.597-3.776,2.979-5.849,4.143c-2.069,1.163-4.21,2.076-6.415,2.74
			c-2.206,0.664-4.38,0.994-6.519,0.994c-1.543,0-2.923-0.168-4.142-0.506c-1.219-0.341-2.254-0.8-3.106-1.381
			c-0.853-0.584-1.509-1.254-1.97-2.011c-0.46-0.759-0.689-1.569-0.689-2.438c0-0.893,0.257-1.807,0.771-2.74
			c0.514-0.934,1.34-1.834,2.477-2.7c2.03,1.922,4.015,3.241,5.949,3.959s3.891,1.075,5.867,1.075c1.598,0,3.161-0.209,4.689-0.629
			c1.529-0.42,2.896-1.137,4.103-2.151c1.204-1.017,2.172-2.36,2.903-4.04c0.729-1.68,1.097-3.775,1.097-6.294
			c0-1.922-0.244-3.709-0.731-5.36c-0.486-1.65-1.237-3.078-2.254-4.283c-1.015-1.205-2.301-2.152-3.856-2.842
			c-1.557-0.69-3.404-1.036-5.543-1.036c-1.029,0-2.004,0.088-2.925,0.264c-0.92,0.176-2.017,0.467-3.289,0.873
			c0-0.866,0.163-1.577,0.487-2.132c0.325-0.555,0.771-1.029,1.34-1.421s1.231-0.751,1.99-1.076c0.758-0.297,1.569-0.65,2.438-1.056
			c1.001-0.487,2.035-1.021,3.105-1.604c1.069-0.582,2.03-1.326,2.883-2.233c0.854-0.907,1.558-2.037,2.111-3.391
			c0.555-1.354,0.833-3.059,0.833-5.117c0-1.895-0.237-3.485-0.711-4.771c-0.474-1.285-1.11-2.328-1.908-3.126
			c-0.799-0.798-1.713-1.374-2.741-1.726c-1.028-0.351-2.099-0.528-3.208-0.528c-0.975,0-1.882,0.116-2.721,0.345
			c-0.84,0.23-1.57,0.542-2.192,0.934c-0.623,0.393-1.116,0.86-1.481,1.401c-0.365,0.542-0.548,1.124-0.548,1.746
			C47.188,33.098,47.783,34.303,48.974,35.657z"/>
	</g>
</g>
</svg>
