<?xml version="1.0" encoding="utf-8"?>
<!-- Generator: Adobe Illustrator 16.0.0, SVG Export Plug-In . SVG Version: 6.00 Build 0)  -->
<!DOCTYPE svg PUBLIC "-//W3C//DTD SVG 1.1//EN" "http://www.w3.org/Graphics/SVG/1.1/DTD/svg11.dtd">
<svg version="1.1" id="Layer_1" xmlns="http://www.w3.org/2000/svg" xmlns:xlink="http://www.w3.org/1999/xlink" x="0px" y="0px"
	 width="60px" height="85px" viewBox="0 0 60 85" enable-background="new 0 0 60 85" xml:space="preserve">
<g>
	<path d="M53.311,14.784c-1.393-1.696-3.166-3.102-5.281-4.178c-2.184-1.11-4.762-1.673-7.659-1.673
		c-1.912,0-3.873,0.244-5.826,0.725c-1.872,0.46-3.716,1.09-5.479,1.873c-1.754,0.778-3.438,1.701-5.002,2.744
		c-1.588,1.058-3.01,2.204-4.229,3.406c-1.316,1.301-2.381,2.689-3.161,4.124c-0.915,1.684-1.378,3.398-1.378,5.098
		c0,1.319,0.279,2.529,0.826,3.591c0.521,1.02,1.238,1.889,2.128,2.583c0.821,0.644,1.774,1.133,2.83,1.45
		c1.827,0.555,3.844,0.57,5.722,0.089c0.883-0.226,1.729-0.55,2.518-0.964c0.812-0.426,1.564-0.955,2.248-1.572
		c0.754-0.684,1.384-1.471,1.865-2.34l1.551-2.791l-2.377-2.132c-0.455-0.407-0.563-0.631-0.563-0.631
		c-0.09-0.222-0.138-0.415-0.138-0.573c0-0.054,0.004-0.098,0.008-0.133c0.512-0.298,1.301-0.455,2.289-0.455
		c0.793,0,1.516,0.112,2.203,0.342c0.518,0.172,0.949,0.435,1.324,0.803c0.381,0.375,0.709,0.936,0.978,1.666
		c0.313,0.854,0.47,1.991,0.47,3.381c0,3.905-1.807,6.244-4.541,9.783c-0.42,0.544-0.85,1.1-1.279,1.675
		c-4.115,5.466-8.59,10.884-12.918,16.125l-1.929,2.336c-0.997,1.212-1.975,2.541-2.919,3.826c-1.869,2.547-3.803,5.183-5.854,6.834
		c-1.26,1.015-2.243,2.019-3.012,3.063c-1.064,1.455-1.604,3.043-1.604,4.72v4.403l4.384-0.424c1.342-0.129,2.68-0.229,3.979-0.289
		c1.336-0.065,2.772-0.121,4.312-0.16c1.547-0.039,3.269-0.065,5.165-0.077c1.914-0.017,4.15-0.021,6.712-0.021h2.804
		c1.25,0,2.618,0.015,4.11,0.039c1.494,0.027,3.026,0.066,4.604,0.121c1.525,0.052,2.922,0.129,4.146,0.229l3.021,0.255L54.052,66.4
		l-5.354-0.363c-1.226-0.084-2.526-0.152-3.908-0.209c-1.366-0.057-2.754-0.098-4.163-0.125c-1.395-0.027-2.768-0.047-4.119-0.063
		c-1.354-0.013-2.646-0.021-3.877-0.021h-0.406c7.271-9.5,19.952-26.083,20.742-27.173c1.266-1.745,2.29-3.618,3.051-5.57
		c0.813-2.095,1.227-4.337,1.227-6.666c0-1.881-0.309-3.828-0.908-5.785C55.695,18.354,54.68,16.455,53.311,14.784z"/>
	<g>
		<path fill="#FFFFFF" stroke="#1B1B1C" stroke-width="8" stroke-miterlimit="10" d="M27.934,23.255
			c-0.271,0.487-0.623,0.928-1.058,1.32c-0.435,0.393-0.905,0.725-1.421,0.995c-0.516,0.271-1.063,0.481-1.646,0.629
			c-0.582,0.149-1.17,0.224-1.767,0.224c-0.623,0-1.228-0.088-1.808-0.264c-0.584-0.176-1.09-0.433-1.522-0.771
			c-0.435-0.338-0.776-0.758-1.034-1.259c-0.259-0.5-0.387-1.089-0.387-1.767c0-1.028,0.297-2.091,0.895-3.188
			c0.594-1.096,1.414-2.159,2.457-3.188c1.041-1.029,2.254-2.003,3.635-2.924c1.381-0.92,2.85-1.726,4.406-2.416
			c1.555-0.69,3.159-1.239,4.813-1.645c1.65-0.406,3.273-0.609,4.873-0.609c2.271,0,4.223,0.413,5.848,1.239
			c1.624,0.826,2.957,1.875,4,3.147c1.041,1.272,1.809,2.7,2.295,4.284c0.486,1.583,0.73,3.12,0.73,4.609
			c0,1.841-0.318,3.58-0.955,5.218c-0.639,1.638-1.488,3.195-2.561,4.669c-1.066,1.477-25.664,33.604-25.664,33.604
			c0.703,0,1.326-0.016,1.867-0.041c0.541,0,1.108,0,1.705,0c0.596,0,1.285-0.014,2.07-0.041c0.757,0,1.73,0,2.923,0
			c1.22,0,2.497,0.008,3.837,0.021c1.342,0.014,2.701,0.032,4.082,0.061c1.383,0.027,2.74,0.068,4.08,0.123
			c1.342,0.055,2.604,0.121,3.797,0.201l-2.761,7.393c-1.302-0.107-2.748-0.189-4.347-0.244c-1.598-0.055-3.152-0.096-4.67-0.121
			c-1.518-0.027-2.91-0.039-4.184-0.039h-2.802c-2.572,0-4.818,0.006-6.741,0.021c-1.922,0.014-3.668,0.041-5.236,0.08
			c-1.57,0.041-3.039,0.096-4.406,0.163c-1.366,0.064-2.756,0.169-4.161,0.304c0-0.812,0.276-1.597,0.833-2.354
			c0.555-0.758,1.318-1.528,2.294-2.313c3.598-2.899,6.431-7.688,9.35-11.229c5.048-6.125,10.179-12.261,14.949-18.601
			c3.412-4.537,6.626-7.849,6.626-13.862c0-1.868-0.236-3.452-0.711-4.751c-0.477-1.3-1.117-2.349-1.932-3.147
			c-0.813-0.798-1.766-1.38-2.86-1.746c-1.099-0.365-2.254-0.548-3.474-0.548c-1.842,0-3.351,0.379-4.526,1.137
			c-1.179,0.758-1.769,1.909-1.769,3.452c0,0.677,0.144,1.367,0.428,2.071C26.613,21.848,27.146,22.552,27.934,23.255z"/>
		<path fill="#28B500" d="M27.934,23.255c-0.271,0.487-0.623,0.928-1.058,1.32c-0.435,0.393-0.905,0.725-1.421,0.995
			c-0.516,0.271-1.063,0.481-1.646,0.629c-0.582,0.149-1.17,0.224-1.767,0.224c-0.623,0-1.228-0.088-1.808-0.264
			c-0.584-0.176-1.09-0.433-1.522-0.771c-0.435-0.338-0.776-0.758-1.034-1.259c-0.259-0.5-0.387-1.089-0.387-1.767
			c0-1.028,0.297-2.091,0.895-3.188c0.594-1.096,1.414-2.159,2.457-3.188c1.041-1.029,2.254-2.003,3.635-2.924
			c1.381-0.92,2.85-1.726,4.406-2.416c1.555-0.69,3.159-1.239,4.813-1.645c1.65-0.406,3.273-0.609,4.873-0.609
			c2.271,0,4.223,0.413,5.848,1.239c1.624,0.826,2.957,1.875,4,3.147c1.041,1.272,1.809,2.7,2.295,4.284
			c0.486,1.583,0.73,3.12,0.73,4.609c0,1.841-0.318,3.58-0.955,5.218c-0.639,1.638-1.488,3.195-2.561,4.669
			c-1.066,1.477-25.664,33.604-25.664,33.604c0.703,0,1.326-0.016,1.867-0.041c0.541,0,1.108,0,1.705,0
			c0.596,0,1.285-0.014,2.07-0.041c0.757,0,1.73,0,2.923,0c1.22,0,2.497,0.008,3.837,0.021c1.342,0.014,2.701,0.032,4.082,0.061
			c1.383,0.027,2.74,0.068,4.08,0.123c1.342,0.055,2.604,0.121,3.797,0.201l-2.761,7.393c-1.302-0.107-2.748-0.189-4.347-0.244
			c-1.598-0.055-3.152-0.096-4.67-0.121c-1.518-0.027-2.91-0.039-4.184-0.039h-2.802c-2.572,0-4.818,0.006-6.741,0.021
			c-1.922,0.014-3.668,0.041-5.236,0.08c-1.57,0.041-3.039,0.096-4.406,0.163c-1.366,0.064-2.756,0.169-4.161,0.304
			c0-0.812,0.276-1.597,0.833-2.354c0.555-0.758,1.318-1.528,2.294-2.313c3.598-2.899,6.431-7.688,9.35-11.229
			c5.048-6.125,10.179-12.261,14.949-18.601c3.412-4.537,6.626-7.849,6.626-13.862c0-1.868-0.236-3.452-0.711-4.751
			c-0.477-1.3-1.117-2.349-1.932-3.147c-0.813-0.798-1.766-1.38-2.86-1.746c-1.099-0.365-2.254-0.548-3.474-0.548
			c-1.842,0-3.351,0.379-4.526,1.137c-1.179,0.758-1.769,1.909-1.769,3.452c0,0.677,0.144,1.367,0.428,2.071
			C26.613,21.848,27.146,22.552,27.934,23.255z"/>
	</g>
</g>
</svg>
