<?xml version="1.0" encoding="utf-8"?>
<!-- Generator: Adobe Illustrator 16.0.0, SVG Export Plug-In . SVG Version: 6.00 Build 0)  -->
<!DOCTYPE svg PUBLIC "-//W3C//DTD SVG 1.1//EN" "http://www.w3.org/Graphics/SVG/1.1/DTD/svg11.dtd">
<svg version="1.1" id="Layer_1" xmlns="http://www.w3.org/2000/svg" xmlns:xlink="http://www.w3.org/1999/xlink" x="0px" y="0px"
	 width="60px" height="85px" viewBox="26.694 14.193 60 85" enable-background="new 26.694 14.193 60 85" xml:space="preserve">
<g>
	<path d="M67.627,22.211c-0.782,0.438-1.831,0.929-3.115,1.462c-1.318,0.548-2.888,1.108-4.659,1.665
		c-1.797,0.564-3.824,1.112-6.026,1.627c-2.196,0.514-4.589,0.973-7.11,1.363l-2.692,0.417L41.596,39.53h5
		c0.27,0,0.431-0.013,1.479-0.146l2.259-0.197c0.904-0.079,1.871-0.15,2.894-0.216c0.913-0.058,1.75-0.089,2.487-0.093
		c0.008,0.293,0.015,0.591,0.02,0.895l0.081,6.21c0.013,1.234,0.021,22.289,0.021,24.326c0,4.12-0.026,8.057-0.081,11.695
		c-0.054,3.681-0.135,7.104-0.24,10.176l-0.077,2.229l3.964,2.646l1.626-0.325c0.76-0.15,1.938-0.354,3.513-0.602
		c1.554-0.246,3.476-0.487,5.708-0.727l3.894-0.412l-0.328-3.9c-0.052-0.604-0.094-1.385-0.131-2.342
		c-0.041-1.006-0.074-2.099-0.101-3.281c-0.027-1.174-0.04-2.367-0.04-3.584l-0.001-3.59c-0.024-1.045-0.039-1.961-0.039-2.744
		v-1.666c0-5.44,0.041-30.707,0.121-35.112c0.079-4.354,0.278-8.474,0.596-12.246l0.186-2.205L69.9,20.943L67.627,22.211z"/>
	<g>
		<path fill="#FFFFFF" stroke="#1B1B1C" stroke-width="8" stroke-miterlimit="10" d="M57.833,65.771
			c0-1.624-0.007-23.079-0.021-24.365c-0.016-1.286-0.026-2.443-0.041-3.472s-0.026-1.949-0.04-2.761
			c-0.016-0.813-0.035-1.584-0.063-2.315c-0.026-0.487-0.081-0.886-0.162-1.198c-0.081-0.311-0.258-0.568-0.527-0.771
			c-0.271-0.203-0.648-0.345-1.138-0.426c-0.486-0.082-1.15-0.122-1.989-0.122c-0.866,0-1.827,0.034-2.883,0.102
			c-1.057,0.068-2.052,0.142-2.984,0.223c-0.935,0.082-1.713,0.149-2.335,0.203c-0.648,0.082-1.001,0.122-1.056,0.122l0.729-3.249
			c2.626-0.406,5.097-0.879,7.41-1.421c2.313-0.541,4.419-1.11,6.313-1.706c1.896-0.595,3.561-1.191,4.994-1.787
			c1.436-0.595,2.611-1.15,3.533-1.665l0.648,0.487c-0.324,3.872-0.527,8.04-0.607,12.507c-0.082,4.467-0.122,29.53-0.122,35.186
			v1.666c0,0.813,0.014,1.76,0.04,2.843c0,1.083,0,2.247,0,3.491c0,1.246,0.014,2.472,0.041,3.676
			c0.025,1.205,0.062,2.322,0.103,3.35c0.041,1.029,0.088,1.868,0.143,2.52c-2.302,0.242-4.271,0.492-5.908,0.752
			c-1.639,0.257-2.862,0.467-3.676,0.629l-0.729-0.484c0.106-3.113,0.188-6.531,0.243-10.256
			C57.806,73.805,57.833,69.886,57.833,65.771z"/>
		<path fill="#B70000" d="M57.833,65.771c0-1.624-0.007-23.079-0.021-24.365c-0.016-1.286-0.026-2.443-0.041-3.472
			s-0.026-1.949-0.04-2.761c-0.016-0.813-0.035-1.584-0.063-2.315c-0.026-0.487-0.081-0.886-0.162-1.198
			c-0.081-0.311-0.258-0.568-0.527-0.771c-0.271-0.203-0.648-0.345-1.138-0.426c-0.486-0.082-1.15-0.122-1.989-0.122
			c-0.866,0-1.827,0.034-2.883,0.102c-1.057,0.068-2.052,0.142-2.984,0.223c-0.935,0.082-1.713,0.149-2.335,0.203
			c-0.648,0.082-1.001,0.122-1.056,0.122l0.729-3.249c2.626-0.406,5.097-0.879,7.41-1.421c2.313-0.541,4.419-1.11,6.313-1.706
			c1.896-0.595,3.561-1.191,4.994-1.787c1.436-0.595,2.611-1.15,3.533-1.665l0.648,0.487c-0.324,3.872-0.527,8.04-0.607,12.507
			c-0.082,4.467-0.122,29.53-0.122,35.186v1.666c0,0.813,0.014,1.76,0.04,2.843c0,1.083,0,2.247,0,3.491
			c0,1.246,0.014,2.472,0.041,3.676c0.025,1.205,0.062,2.322,0.103,3.35c0.041,1.029,0.088,1.868,0.143,2.52
			c-2.302,0.242-4.271,0.492-5.908,0.752c-1.639,0.257-2.862,0.467-3.676,0.629l-0.729-0.484c0.106-3.113,0.188-6.531,0.243-10.256
			C57.806,73.805,57.833,69.886,57.833,65.771z"/>
	</g>
</g>
</svg>
