<?xml version="1.0" encoding="utf-8"?>
<!-- Generator: Adobe Illustrator 16.0.0, SVG Export Plug-In . SVG Version: 6.00 Build 0)  -->
<!DOCTYPE svg PUBLIC "-//W3C//DTD SVG 1.1//EN" "http://www.w3.org/Graphics/SVG/1.1/DTD/svg11.dtd">
<svg version="1.1" id="Layer_1" xmlns="http://www.w3.org/2000/svg" xmlns:xlink="http://www.w3.org/1999/xlink" x="0px" y="0px"
	 width="60px" height="85px" viewBox="26.693 14.193 60 85" enable-background="new 26.693 14.193 60 85" xml:space="preserve">
<g>
	<path d="M74.476,60.908c-0.962-0.029-1.932-0.059-2.912-0.086c0.014-0.654,0.031-1.283,0.05-1.885
		c0.05-1.715,0.113-3.331,0.189-4.846c0.075-1.497,0.176-2.952,0.298-4.324c0.128-1.417,0.278-2.907,0.456-4.47l0.29-2.569
		l-4.884-3.075l-1.978,1.286c-0.892,0.578-1.827,1.293-2.788,2.126c-0.873,0.758-1.715,1.525-2.5,2.278
		c-0.786,0.754-1.497,1.469-2.111,2.126c-0.654,0.702-1.097,1.208-1.392,1.595l-0.107,0.147c-0.303,0.436-0.55,0.838-0.75,1.219
		c-0.254,0.475-0.466,0.994-0.634,1.548c-0.158,0.521-0.275,1.079-0.355,1.694c-0.067,0.507-0.116,1.092-0.146,1.785
		c-0.131,1.746-0.212,3.359-0.238,4.723l-0.017,0.469c-1.849,0.011-3.604,0.026-5.25,0.052c-0.129,0.002-0.258,0.004-0.386,0.006
		c1.025-1.518,2.039-3.008,3.041-4.461c2.346-3.444,4.556-6.781,6.567-9.919c2.057-3.207,3.915-6.319,5.525-9.252
		c1.676-3.055,3.032-6.049,4.03-8.899l0.979-2.793l-4.587-3.608l-1.976,0.807c-0.779,0.318-1.689,0.615-2.708,0.885
		c-1.134,0.3-2.348,0.597-3.606,0.881l-2.219,0.501l-0.639,2.283c-0.54,1.925-1.102,3.709-1.673,5.303
		c-0.556,1.553-1.202,3.109-1.918,4.624c-0.724,1.528-1.559,3.119-2.483,4.726c-0.956,1.661-2.086,3.525-3.355,5.533
		c-2.179,3.425-4.149,6.391-5.854,8.809c-1.79,2.53-3.308,4.693-4.551,6.487c-1.332,1.918-2.333,3.493-3.063,4.814
		c-1.012,1.828-1.502,3.494-1.502,5.091v4.377l4.157-0.394c2.488-0.233,5.881-0.414,10.083-0.533
		c3.262-0.092,6.975-0.149,11.074-0.172c-0.001,0.154-0.002,0.31-0.004,0.467c-0.013,1.724-0.033,3.515-0.059,5.376
		c-0.024,1.856-0.058,3.694-0.095,5.51c-0.039,1.804-0.083,3.399-0.134,4.79l-0.081,2.236l3.788,2.65l1.552-0.326
		c0.747-0.155,1.826-0.357,3.235-0.606c1.367-0.241,3.132-0.481,5.248-0.718l3.55-0.395l-0.139-3.738
		c-0.025-0.689-0.053-1.545-0.077-2.569c-0.024-1.022-0.044-2.132-0.057-3.333c-0.014-1.203-0.021-2.446-0.021-3.729v-5.457
		l2.396,0.055c1.651,0.037,2.913,0.115,3.747,0.23l3.007,0.416l5.472-15.305l-5.271-0.221C78.746,61.05,76.674,60.976,74.476,60.908
		z"/>
	<g>
		<path fill="#FFFFFF" stroke="#1B1B1C" stroke-width="8" stroke-miterlimit="10" d="M55.474,23.718
			c1.317-0.297,2.563-0.602,3.737-0.914c1.175-0.311,2.228-0.656,3.158-1.036l0.617,0.487c-0.93,2.653-2.182,5.415-3.755,8.284
			c-1.576,2.87-3.371,5.875-5.385,9.015c-2.014,3.141-4.183,6.416-6.507,9.827c-2.35,3.411-4.75,6.984-7.203,10.72l0.077,0.244
			c2.402-0.081,4.944-0.143,7.63-0.184c2.686-0.039,5.641-0.062,8.868-0.062c0.053-1.461,0.103-2.896,0.155-4.304
			c0.026-1.381,0.104-2.924,0.233-4.629c0.026-0.595,0.065-1.089,0.118-1.482c0.05-0.392,0.121-0.737,0.212-1.036
			c0.091-0.297,0.199-0.568,0.331-0.812c0.128-0.244,0.296-0.514,0.502-0.812c0.206-0.271,0.587-0.704,1.142-1.3
			c0.555-0.595,1.207-1.251,1.956-1.969c0.749-0.717,1.537-1.435,2.363-2.152s1.612-1.319,2.363-1.807l0.774,0.487
			c-0.181,1.598-0.337,3.12-0.464,4.568c-0.131,1.449-0.233,2.944-0.31,4.487c-0.078,1.543-0.143,3.188-0.193,4.934
			c-0.053,1.746-0.092,3.715-0.117,5.909c2.273,0.055,4.499,0.114,6.682,0.183c2.181,0.067,4.239,0.143,6.177,0.225l-2.556,7.146
			c-0.98-0.136-2.368-0.223-4.162-0.264c-1.796-0.041-3.894-0.089-6.296-0.144v9.543c0,1.299,0.007,2.56,0.021,3.776
			c0.012,1.218,0.032,2.349,0.058,3.392c0.024,1.041,0.052,1.914,0.077,2.619c-2.194,0.242-4.022,0.492-5.48,0.75
			s-2.573,0.467-3.35,0.631l-0.696-0.488c0.05-1.407,0.097-3.024,0.136-4.852c0.037-1.828,0.071-3.676,0.095-5.543
			c0.026-1.869,0.048-3.67,0.061-5.402c0.013-1.731,0.019-3.233,0.019-4.506c-5.706,0-10.708,0.062-15.006,0.183
			c-4.299,0.122-7.74,0.305-10.322,0.549c0-0.867,0.33-1.896,0.988-3.086c0.657-1.19,1.606-2.681,2.846-4.468
			c1.239-1.786,2.75-3.938,4.531-6.457c1.756-2.491,3.743-5.482,5.964-8.974c1.317-2.084,2.465-3.979,3.446-5.685
			c0.98-1.706,1.859-3.377,2.635-5.015c0.774-1.638,1.465-3.302,2.071-4.995C54.319,27.61,54.906,25.748,55.474,23.718z"/>
		<path fill="#FFFFFF" d="M55.474,23.718c1.317-0.297,2.563-0.602,3.737-0.914c1.175-0.311,2.228-0.656,3.158-1.036l0.617,0.487
			c-0.93,2.653-2.182,5.415-3.755,8.284c-1.576,2.87-3.371,5.875-5.385,9.015c-2.014,3.141-4.183,6.416-6.507,9.827
			c-2.35,3.411-4.75,6.984-7.203,10.72l0.077,0.244c2.402-0.081,4.944-0.143,7.63-0.184c2.686-0.039,5.641-0.062,8.868-0.062
			c0.053-1.461,0.103-2.896,0.155-4.304c0.026-1.381,0.104-2.924,0.233-4.629c0.026-0.595,0.065-1.089,0.118-1.482
			c0.05-0.392,0.121-0.737,0.212-1.036c0.091-0.297,0.199-0.568,0.331-0.812c0.128-0.244,0.296-0.514,0.502-0.812
			c0.206-0.271,0.587-0.704,1.142-1.3c0.555-0.595,1.207-1.251,1.956-1.969c0.749-0.717,1.537-1.435,2.363-2.152
			s1.612-1.319,2.363-1.807l0.774,0.487c-0.181,1.598-0.337,3.12-0.464,4.568c-0.131,1.449-0.233,2.944-0.31,4.487
			c-0.078,1.543-0.143,3.188-0.193,4.934c-0.053,1.746-0.092,3.715-0.117,5.909c2.273,0.055,4.499,0.114,6.682,0.183
			c2.181,0.067,4.239,0.143,6.177,0.225l-2.556,7.146c-0.98-0.136-2.368-0.223-4.162-0.264c-1.796-0.041-3.894-0.089-6.296-0.144
			v9.543c0,1.299,0.007,2.56,0.021,3.776c0.012,1.218,0.032,2.349,0.058,3.392c0.024,1.041,0.052,1.914,0.077,2.619
			c-2.194,0.242-4.022,0.492-5.48,0.75s-2.573,0.467-3.35,0.631l-0.696-0.488c0.05-1.407,0.097-3.024,0.136-4.852
			c0.037-1.828,0.071-3.676,0.095-5.543c0.026-1.869,0.048-3.67,0.061-5.402c0.013-1.731,0.019-3.233,0.019-4.506
			c-5.706,0-10.708,0.062-15.006,0.183c-4.299,0.122-7.74,0.305-10.322,0.549c0-0.867,0.33-1.896,0.988-3.086
			c0.657-1.19,1.606-2.681,2.846-4.468c1.239-1.786,2.75-3.938,4.531-6.457c1.756-2.491,3.743-5.482,5.964-8.974
			c1.317-2.084,2.465-3.979,3.446-5.685c0.98-1.706,1.859-3.377,2.635-5.015c0.774-1.638,1.465-3.302,2.071-4.995
			C54.319,27.61,54.906,25.748,55.474,23.718z"/>
	</g>
</g>
</svg>
