<?xml version="1.0" encoding="utf-8"?>
<!-- Generator: Adobe Illustrator 16.0.0, SVG Export Plug-In . SVG Version: 6.00 Build 0)  -->
<!DOCTYPE svg PUBLIC "-//W3C//DTD SVG 1.1//EN" "http://www.w3.org/Graphics/SVG/1.1/DTD/svg11.dtd">
<svg version="1.1" id="Layer_1" xmlns="http://www.w3.org/2000/svg" xmlns:xlink="http://www.w3.org/1999/xlink" x="0px" y="0px"
	 width="60px" height="85px" viewBox="0 0 60 85" enable-background="new 0 0 60 85" xml:space="preserve">
<g>
	<path d="M26.035,25.374c0.007-0.081,0.014-0.161,0.021-0.242c0.008,0,0.02,0.001,0.025,0.001c0.759,0.028,1.72,0.05,2.881,0.063
		c1.137,0.015,2.646,0.021,4.537,0.021h1.787c0.857,0,1.818-0.021,2.883-0.064c1.01-0.041,2.092-0.088,3.234-0.143
		c1.234-0.059,2.471-0.163,3.664-0.31l2.436-0.297l5.828-15.982l-6.24,0.527c-2.49,0.21-5.188,0.371-8.017,0.476
		c-5.015,0.188-10.329,0.221-14.856,0.042c-1.939-0.078-3.812-0.22-5.564-0.423L14.327,8.54l-0.132,4.357
		c-0.156,5.332-0.467,10.601-0.918,15.661c-0.451,5.062-1.086,10.288-1.881,15.531l-0.303,2.002l3.666,3.658l2.262-0.646
		c1.527-0.438,2.949-0.756,4.224-0.945c1.247-0.188,2.517-0.279,3.771-0.279c1.813,0,3.426,0.199,4.805,0.596
		c1.179,0.338,2.117,0.828,2.875,1.502c0.723,0.64,1.271,1.474,1.678,2.547c0.462,1.218,0.693,2.775,0.693,4.634
		c0,2.012-0.252,3.688-0.748,4.979c-0.457,1.189-1.055,2.138-1.771,2.813c-0.735,0.689-1.569,1.186-2.554,1.504
		c-2.391,0.773-5.25,0.773-8.104-0.273c-1.412-0.521-2.92-1.553-4.479-3.072l-2.46-2.395l-2.739,2.067
		c-1.639,1.237-2.778,2.552-3.481,4.003c-0.685,1.408-1.029,2.846-1.029,4.268c0,1.604,0.396,3.129,1.18,4.533
		c0.75,1.338,1.82,2.486,3.184,3.42c1.215,0.828,2.668,1.479,4.324,1.934c1.572,0.433,3.355,0.65,5.301,0.65
		c2.605,0,5.233-0.4,7.813-1.191c2.499-0.766,4.916-1.838,7.187-3.188c2.252-1.34,4.363-2.943,6.276-4.766
		c1.912-1.82,3.597-3.82,5.005-5.947c1.424-2.152,2.563-4.439,3.383-6.799c0.862-2.473,1.301-5.006,1.301-7.529
		c0-2.473-0.461-4.961-1.365-7.404c-0.943-2.535-2.438-4.834-4.438-6.834c-1.976-1.976-4.496-3.585-7.494-4.783
		c-3.766-1.506-8.459-2.104-13.94-1.643l0.253-2.283C25.799,27.961,25.924,26.682,26.035,25.374z"/>
	<g>
		<path fill="#FFFFFF" stroke="#1B1C1C" stroke-width="8" stroke-miterlimit="10" d="M13.35,40.148
			c0.813-5.36,1.448-10.619,1.909-15.776c0.46-5.157,0.771-10.456,0.935-15.897c1.867,0.217,3.822,0.365,5.867,0.447
			c2.041,0.081,4.201,0.122,6.478,0.122c2.896,0,5.793-0.054,8.688-0.163c2.896-0.108,5.631-0.27,8.203-0.487l-2.844,7.797
			c-1.109,0.136-2.232,0.23-3.37,0.284c-1.137,0.055-2.207,0.102-3.208,0.142c-1.002,0.041-1.908,0.061-2.721,0.061H31.5
			c-1.867,0-3.363-0.006-4.486-0.021c-1.123-0.013-2.051-0.034-2.781-0.061c-0.758-0.026-1.416-0.047-1.969-0.061
			c-0.556-0.014-1.197-0.021-1.93-0.021c-0.081,1.381-0.176,2.708-0.284,3.979c-0.108,1.273-0.229,2.518-0.364,3.736
			c-0.137,1.218-0.271,2.443-0.406,3.675s-0.271,2.499-0.403,3.797c1.435-0.325,2.808-0.555,4.121-0.69
			c1.312-0.135,2.578-0.202,3.796-0.202c3.546,0,6.568,0.5,9.075,1.502c2.504,1.002,4.555,2.301,6.149,3.898
			c1.6,1.598,2.771,3.398,3.514,5.4c0.744,2.006,1.115,4.008,1.115,6.012c0,2.084-0.355,4.154-1.076,6.213
			c-0.717,2.059-1.695,4.025-2.94,5.908c-1.249,1.881-2.724,3.633-4.43,5.258s-3.562,3.031-5.563,4.225
			c-2.004,1.189-4.107,2.125-6.313,2.803c-2.207,0.679-4.422,1.017-6.641,1.017c-1.599,0-3.012-0.168-4.242-0.506
			c-1.23-0.343-2.272-0.802-3.127-1.383c-0.854-0.583-1.502-1.271-1.947-2.07c-0.446-0.799-0.672-1.658-0.672-2.578
			c0-0.813,0.209-1.649,0.632-2.521c0.419-0.864,1.185-1.719,2.294-2.559c1.977,1.924,3.938,3.24,5.887,3.961
			c1.949,0.717,3.885,1.074,5.807,1.074c1.731,0,3.371-0.252,4.914-0.752c1.543-0.502,2.896-1.299,4.063-2.396
			c1.164-1.097,2.084-2.523,2.762-4.281c0.676-1.762,1.016-3.898,1.016-6.416c0-2.354-0.316-4.373-0.955-6.053
			c-0.637-1.678-1.557-3.051-2.762-4.121c-1.203-1.069-2.68-1.854-4.426-2.355c-1.746-0.5-3.716-0.751-5.908-0.751
			c-1.461,0-2.918,0.108-4.365,0.325c-1.444,0.217-3.021,0.568-4.729,1.056L13.35,40.148z"/>
		<path fill="#28B500" d="M13.35,40.148c0.813-5.36,1.448-10.619,1.909-15.776c0.46-5.157,0.771-10.456,0.935-15.897
			c1.867,0.217,3.822,0.365,5.867,0.447c2.041,0.081,4.201,0.122,6.478,0.122c2.896,0,5.793-0.054,8.688-0.163
			c2.896-0.108,5.631-0.27,8.203-0.487l-2.844,7.797c-1.109,0.136-2.232,0.23-3.37,0.284c-1.137,0.055-2.207,0.102-3.208,0.142
			c-1.002,0.041-1.908,0.061-2.721,0.061H31.5c-1.867,0-3.363-0.006-4.486-0.021c-1.123-0.013-2.051-0.034-2.781-0.061
			c-0.758-0.026-1.416-0.047-1.969-0.061c-0.556-0.014-1.197-0.021-1.93-0.021c-0.081,1.381-0.176,2.708-0.284,3.979
			c-0.108,1.273-0.229,2.518-0.364,3.736c-0.137,1.218-0.271,2.443-0.406,3.675s-0.271,2.499-0.403,3.797
			c1.435-0.325,2.808-0.555,4.121-0.69c1.312-0.135,2.578-0.202,3.796-0.202c3.546,0,6.568,0.5,9.075,1.502
			c2.504,1.002,4.555,2.301,6.149,3.898c1.6,1.598,2.771,3.398,3.514,5.4c0.744,2.006,1.115,4.008,1.115,6.012
			c0,2.084-0.355,4.154-1.076,6.213c-0.717,2.059-1.695,4.025-2.94,5.908c-1.249,1.881-2.724,3.633-4.43,5.258
			s-3.562,3.031-5.563,4.225c-2.004,1.189-4.107,2.125-6.313,2.803c-2.207,0.679-4.422,1.017-6.641,1.017
			c-1.599,0-3.012-0.168-4.242-0.506c-1.23-0.343-2.272-0.802-3.127-1.383c-0.854-0.583-1.502-1.271-1.947-2.07
			c-0.446-0.799-0.672-1.658-0.672-2.578c0-0.813,0.209-1.649,0.632-2.521c0.419-0.864,1.185-1.719,2.294-2.559
			c1.977,1.924,3.938,3.24,5.887,3.961c1.949,0.717,3.885,1.074,5.807,1.074c1.731,0,3.371-0.252,4.914-0.752
			c1.543-0.502,2.896-1.299,4.063-2.396c1.164-1.097,2.084-2.523,2.762-4.281c0.676-1.762,1.016-3.898,1.016-6.416
			c0-2.354-0.316-4.373-0.955-6.053c-0.637-1.678-1.557-3.051-2.762-4.121c-1.203-1.069-2.68-1.854-4.426-2.355
			c-1.746-0.5-3.716-0.751-5.908-0.751c-1.461,0-2.918,0.108-4.365,0.325c-1.444,0.217-3.021,0.568-4.729,1.056L13.35,40.148z"/>
	</g>
</g>
</svg>
