<?xml version="1.0" encoding="utf-8"?>
<!-- Generator: Adobe Illustrator 16.0.0, SVG Export Plug-In . SVG Version: 6.00 Build 0)  -->
<!DOCTYPE svg PUBLIC "-//W3C//DTD SVG 1.1//EN" "http://www.w3.org/Graphics/SVG/1.1/DTD/svg11.dtd">
<svg version="1.1" id="Layer_1" xmlns="http://www.w3.org/2000/svg" xmlns:xlink="http://www.w3.org/1999/xlink" x="0px" y="0px"
	 width="60px" height="85px" viewBox="26.694 14.193 60 85" enable-background="new 26.694 14.193 60 85" xml:space="preserve">
<g>
	<path d="M77.897,30.544c-2.341-2.324-5.127-4.109-8.281-5.307c-4.908-1.862-10.546-2.268-16.387-1.118
		c-2.208,0.437-4.387,1.128-6.474,2.056c-2.116,0.941-4.143,2.163-6.021,3.633c-1.94,1.521-3.657,3.367-5.102,5.484
		c-1.442,2.116-2.589,4.561-3.406,7.268C31.188,45.995,31,61.446,31,61.595c0,2.104,0.391,14.463,2.116,18.592
		c1.416,3.393,3.368,6.271,5.804,8.561c2.425,2.279,5.27,4.014,8.455,5.155c3.104,1.112,6.398,1.677,9.796,1.677
		c2.192,0,4.427-0.242,6.637-0.721c2.227-0.482,4.4-1.225,6.468-2.203c2.104-0.996,4.091-2.277,5.901-3.806
		c1.857-1.567,3.489-3.442,4.853-5.573c1.351-2.113,2.425-4.525,3.191-7.172c1.012-3.492,1.151-15.689,1.151-15.809
		c0-0.164-0.271-16.968-1.968-21.245C82.083,35.724,80.23,32.862,77.897,30.544z M58.43,83.113c-1.625,0-2.885-0.322-3.851-0.984
		c-1.124-0.771-2.012-1.768-2.713-3.049c-0.792-1.447-1.374-3.146-1.728-5.06c-0.331-1.788-0.583-10.456-0.583-13.438
		c0-2.359,0.081-12.604,0.187-13.808c0.114-1.222,0.324-2.437,0.625-3.611c0.281-1.107,0.671-2.173,1.156-3.167
		c0.423-0.864,0.932-1.59,1.553-2.221c0.546-0.555,1.207-0.989,2.019-1.327c0.804-0.335,1.815-0.505,3.01-0.505
		c1.64,0,2.954,0.315,3.912,0.938c1.071,0.697,1.914,1.618,2.571,2.815c0.764,1.388,1.322,3.032,1.662,4.886
		c0.296,1.613,0.563,12.643,0.563,16.365c0,1.268-0.067,2.604-0.204,3.969c-0.059,0.592-0.113,1.722-0.206,3.662
		c-0.097,2.063-0.299,6.354-0.446,7.158c-0.287,1.155-0.677,2.256-1.153,3.27c-0.41,0.867-0.91,1.6-1.529,2.234
		c-0.56,0.576-1.219,1.025-2.019,1.375C60.498,82.945,59.546,83.113,58.43,83.113z"/>
	<path fill="#FFFFFF" stroke="#1B1B1C" stroke-width="8" stroke-miterlimit="10" d="M57.648,22.935c3.061,0,5.908,0.501,8.549,1.502
		c2.64,1.002,4.935,2.471,6.884,4.406c1.948,1.936,3.483,4.318,4.607,7.147c1.123,2.829,1.686,16.085,1.686,19.766
		c0,2.843-0.331,12.408-0.994,14.695c-0.664,2.289-1.569,4.332-2.721,6.133c-1.152,1.801-2.505,3.355-4.062,4.67
		c-1.558,1.313-3.235,2.396-5.035,3.248c-1.801,0.854-3.669,1.488-5.604,1.908c-1.938,0.42-3.865,0.629-5.787,0.629
		c-2.95,0-5.767-0.479-8.445-1.44c-2.681-0.96-5.035-2.396-7.064-4.306c-2.03-1.908-3.647-4.303-4.854-7.188
		C33.602,71.222,33,60.873,33,57.056c0-2.924,0.353-15.549,1.057-17.878c0.703-2.328,1.665-4.385,2.883-6.172
		c1.219-1.787,2.64-3.316,4.265-4.589c1.625-1.272,3.351-2.314,5.177-3.126c1.828-0.813,3.702-1.407,5.624-1.787
		C53.926,23.125,55.807,22.935,57.648,22.935z M56.43,82.574c1.679,0,3.152-0.277,4.427-0.834c1.271-0.555,2.368-1.305,3.289-2.254
		c0.92-0.947,1.679-2.051,2.272-3.309c0.597-1.26,1.068-2.6,1.422-4.021c0.353-1.421,0.603-9.883,0.751-11.386
		c0.147-1.502,0.225-2.957,0.225-4.365c0-2.438-0.211-14.798-0.63-17.086c-0.42-2.288-1.116-4.318-2.091-6.091
		c-0.976-1.773-2.274-3.188-3.898-4.243c-1.625-1.056-3.653-1.584-6.091-1.584c-1.732,0-3.249,0.271-4.548,0.812
		c-1.301,0.542-2.41,1.279-3.33,2.213c-0.92,0.934-1.686,2.024-2.294,3.269c-0.608,1.246-1.09,2.559-1.44,3.939
		c-0.353,1.381-0.597,2.789-0.73,4.223c-0.137,1.436-0.203,12.829-0.203,14.183c0,2.437,0.217,11.827,0.649,14.167
		c0.434,2.344,1.149,4.428,2.151,6.254c1.001,1.828,2.321,3.305,3.959,4.428S53.994,82.574,56.43,82.574z"/>
	<path fill="#B70000" d="M57.648,22.935c3.061,0,5.908,0.501,8.549,1.502c2.64,1.002,4.935,2.471,6.884,4.406
		c1.948,1.936,3.483,4.318,4.607,7.147c1.123,2.829,1.686,16.085,1.686,19.766c0,2.843-0.331,12.408-0.994,14.695
		c-0.664,2.289-1.569,4.332-2.721,6.133c-1.152,1.801-2.505,3.355-4.062,4.67c-1.558,1.313-3.235,2.396-5.035,3.248
		c-1.801,0.854-3.669,1.488-5.604,1.908c-1.938,0.42-3.865,0.629-5.787,0.629c-2.95,0-5.767-0.479-8.445-1.44
		c-2.681-0.96-5.035-2.396-7.064-4.306c-2.03-1.908-3.647-4.303-4.854-7.188C33.602,71.222,33,60.873,33,57.056
		c0-2.924,0.353-15.549,1.057-17.878c0.703-2.328,1.665-4.385,2.883-6.172c1.219-1.787,2.64-3.316,4.265-4.589
		c1.625-1.272,3.351-2.314,5.177-3.126c1.828-0.813,3.702-1.407,5.624-1.787C53.926,23.125,55.807,22.935,57.648,22.935z
		 M56.43,82.574c1.679,0,3.152-0.277,4.427-0.834c1.271-0.555,2.368-1.305,3.289-2.254c0.92-0.947,1.679-2.051,2.272-3.309
		c0.597-1.26,1.068-2.6,1.422-4.021c0.353-1.421,0.603-9.883,0.751-11.386c0.147-1.502,0.225-2.957,0.225-4.365
		c0-2.438-0.211-14.798-0.63-17.086c-0.42-2.288-1.116-4.318-2.091-6.091c-0.976-1.773-2.274-3.188-3.898-4.243
		c-1.625-1.056-3.653-1.584-6.091-1.584c-1.732,0-3.249,0.271-4.548,0.812c-1.301,0.542-2.41,1.279-3.33,2.213
		c-0.92,0.934-1.686,2.024-2.294,3.269c-0.608,1.246-1.09,2.559-1.44,3.939c-0.353,1.381-0.597,2.789-0.73,4.223
		c-0.137,1.436-0.203,12.829-0.203,14.183c0,2.437,0.217,11.827,0.649,14.167c0.434,2.344,1.149,4.428,2.151,6.254
		c1.001,1.828,2.321,3.305,3.959,4.428S53.994,82.574,56.43,82.574z"/>
</g>
</svg>
