<?xml version="1.0" encoding="utf-8"?>
<!-- Generator: Adobe Illustrator 16.0.0, SVG Export Plug-In . SVG Version: 6.00 Build 0)  -->
<!DOCTYPE svg PUBLIC "-//W3C//DTD SVG 1.1//EN" "http://www.w3.org/Graphics/SVG/1.1/DTD/svg11.dtd">
<svg version="1.1" id="Layer_1" xmlns="http://www.w3.org/2000/svg" xmlns:xlink="http://www.w3.org/1999/xlink" x="0px" y="0px"
	 width="60px" height="85px" viewBox="0 0 60 85" enable-background="new 0 0 60 85" xml:space="preserve">
<g>
	<path d="M47.846,8.944c-1.429,0.104-3.156,0.205-5.136,0.298c-1.979,0.094-4.153,0.174-6.522,0.241
		c-4.883,0.139-10.229,0.139-15.233-0.04c-2.576-0.091-5.026-0.255-7.282-0.489l-3.305-0.342L5.693,24.395l4.813,0.477
		c2.267,0.225,4.804,0.381,7.54,0.464c2.676,0.083,5.395,0.124,8.082,0.124c3.479,0,6.709-0.048,9.594-0.144
		c0.424-0.014,0.842-0.029,1.256-0.043c-1.771,3.407-3.515,6.674-5.209,9.756c-2.713,4.88-5.271,9.635-7.604,14.129
		c-2.355,4.529-4.514,9.016-6.408,13.332c-1.941,4.418-3.552,8.979-4.787,13.561l-0.705,2.615l4.752,3.564l2.188-1.041
		c0.992-0.476,2.081-0.916,3.229-1.313c1.178-0.41,2.506-0.813,3.947-1.188l2.38-0.627l0.515-2.407
		c0.576-2.699,1.174-5.197,1.775-7.425c0.592-2.188,1.277-4.383,2.04-6.526c0.759-2.136,1.664-4.408,2.695-6.757
		c1.042-2.374,2.317-5.09,3.812-8.098c1.536-3.154,3.002-6.031,4.354-8.553c1.375-2.563,2.63-4.882,3.753-6.941
		c1.141-2.064,2.158-3.918,3.056-5.562c0.927-1.699,1.729-3.279,2.392-4.698c0.703-1.517,1.252-2.932,1.627-4.202
		c0.436-1.459,0.652-2.901,0.652-4.285V7.946l-4.607,0.709C50.409,8.718,49.561,8.819,47.846,8.944z"/>
	<g>
		<path fill="#FFFFFF" stroke="#1B1C1C" stroke-width="8" stroke-miterlimit="10" d="M11.258,8.393
			c2.354,0.244,4.872,0.413,7.553,0.508c2.683,0.095,5.39,0.142,8.121,0.142c2.521,0,4.978-0.034,7.37-0.102
			c2.396-0.067,4.595-0.148,6.599-0.244c2.004-0.095,3.75-0.196,5.238-0.305c1.488-0.108,2.586-0.216,3.289-0.325
			c0,1.002-0.162,2.051-0.486,3.147c-0.322,1.097-0.799,2.315-1.422,3.655c-0.623,1.34-1.381,2.829-2.271,4.467
			c-0.895,1.638-1.908,3.486-3.045,5.543c-1.141,2.085-2.396,4.413-3.776,6.984c-1.381,2.572-2.856,5.468-4.427,8.689
			c-1.52,3.061-2.811,5.807-3.878,8.244c-1.069,2.438-2.004,4.777-2.804,7.023c-0.799,2.246-1.51,4.521-2.133,6.822
			c-0.623,2.301-1.229,4.846-1.826,7.635c-1.543,0.406-2.959,0.832-4.241,1.279c-1.286,0.444-2.498,0.938-3.638,1.479l-0.646-0.486
			c1.188-4.411,2.721-8.743,4.588-12.993c1.868-4.25,3.967-8.615,6.295-13.097c2.327-4.479,4.846-9.159,7.553-14.03
			c2.683-4.873,5.441-10.125,8.283-15.755l-0.08-0.244c-2.383,0.136-5.01,0.25-7.879,0.345c-2.869,0.095-6.023,0.142-9.461,0.142
			c-2.652,0-5.307-0.041-7.959-0.122s-5.076-0.229-7.271-0.447L11.258,8.393z"/>
		<path fill="#28B500" d="M11.258,8.393c2.354,0.244,4.872,0.413,7.553,0.508c2.683,0.095,5.39,0.142,8.121,0.142
			c2.521,0,4.978-0.034,7.37-0.102c2.396-0.067,4.595-0.148,6.599-0.244c2.004-0.095,3.75-0.196,5.238-0.305
			c1.488-0.108,2.586-0.216,3.289-0.325c0,1.002-0.162,2.051-0.486,3.147c-0.322,1.097-0.799,2.315-1.422,3.655
			c-0.623,1.34-1.381,2.829-2.271,4.467c-0.895,1.638-1.908,3.486-3.045,5.543c-1.141,2.085-2.396,4.413-3.776,6.984
			c-1.381,2.572-2.856,5.468-4.427,8.689c-1.52,3.061-2.811,5.807-3.878,8.244c-1.069,2.438-2.004,4.777-2.804,7.023
			c-0.799,2.246-1.51,4.521-2.133,6.822c-0.623,2.301-1.229,4.846-1.826,7.635c-1.543,0.406-2.959,0.832-4.241,1.279
			c-1.286,0.444-2.498,0.938-3.638,1.479l-0.646-0.486c1.188-4.411,2.721-8.743,4.588-12.993c1.868-4.25,3.967-8.615,6.295-13.097
			c2.327-4.479,4.846-9.159,7.553-14.03c2.683-4.873,5.441-10.125,8.283-15.755l-0.08-0.244c-2.383,0.136-5.01,0.25-7.879,0.345
			c-2.869,0.095-6.023,0.142-9.461,0.142c-2.652,0-5.307-0.041-7.959-0.122s-5.076-0.229-7.271-0.447L11.258,8.393z"/>
	</g>
</g>
</svg>
