<?xml version="1.0" encoding="utf-8"?>
<!-- Generator: Adobe Illustrator 16.0.0, SVG Export Plug-In . SVG Version: 6.00 Build 0)  -->
<!DOCTYPE svg PUBLIC "-//W3C//DTD SVG 1.1//EN" "http://www.w3.org/Graphics/SVG/1.1/DTD/svg11.dtd">
<svg version="1.1" id="Layer_1" xmlns="http://www.w3.org/2000/svg" xmlns:xlink="http://www.w3.org/1999/xlink" x="0px" y="0px"
	 width="60px" height="85px" viewBox="26.694 14.193 60 85" enable-background="new 26.694 14.193 60 85" xml:space="preserve">
<g>
	<path d="M81.31,28.784c-1.392-1.696-3.166-3.102-5.281-4.178c-2.184-1.11-4.762-1.673-7.659-1.673
		c-1.912,0-3.873,0.244-5.826,0.725c-1.872,0.46-3.716,1.09-5.479,1.873c-1.754,0.778-3.438,1.701-5.003,2.744
		c-1.587,1.058-3.01,2.204-4.228,3.406c-1.317,1.301-2.381,2.689-3.161,4.124c-0.915,1.684-1.378,3.398-1.378,5.098
		c0,1.319,0.279,2.529,0.826,3.591c0.521,1.019,1.239,1.889,2.128,2.583c0.822,0.644,1.775,1.133,2.83,1.451
		c1.827,0.554,3.844,0.57,5.722,0.088c0.883-0.225,1.729-0.55,2.518-0.964c0.811-0.425,1.564-0.955,2.247-1.572
		c0.755-0.684,1.384-1.471,1.865-2.34l1.552-2.791l-2.378-2.132c-0.454-0.407-0.563-0.631-0.563-0.631
		c-0.09-0.222-0.137-0.415-0.137-0.573c0-0.054,0.003-0.098,0.007-0.133c0.512-0.298,1.301-0.455,2.289-0.455
		c0.793,0,1.516,0.112,2.204,0.342c0.517,0.172,0.949,0.435,1.324,0.803c0.381,0.375,0.709,0.936,0.977,1.666
		c0.313,0.854,0.47,1.991,0.47,3.381c0,3.905-1.807,6.244-4.541,9.783c-0.42,0.544-0.85,1.1-1.28,1.675
		C57.24,60.14,52.766,65.559,48.438,70.8l-1.929,2.336c-0.997,1.212-1.975,2.541-2.919,3.826c-1.869,2.547-3.803,5.182-5.853,6.834
		c-1.26,1.015-2.244,2.018-3.013,3.064c-1.064,1.454-1.604,3.042-1.604,4.719v4.403l4.384-0.423c1.342-0.13,2.679-0.229,3.978-0.29
		c1.337-0.065,2.773-0.12,4.312-0.16c1.547-0.039,3.269-0.065,5.165-0.077c1.914-0.017,4.15-0.021,6.712-0.021h2.803
		c1.25,0,2.619,0.014,4.111,0.039c1.494,0.027,3.026,0.066,4.604,0.121c1.526,0.052,2.922,0.129,4.146,0.23l3.021,0.254L82.052,80.4
		l-5.354-0.363c-1.226-0.084-2.526-0.152-3.908-0.209c-1.366-0.056-2.754-0.098-4.163-0.125c-1.394-0.027-2.767-0.047-4.119-0.062
		c-1.354-0.013-2.646-0.021-3.877-0.021h-0.406c7.271-9.5,19.952-26.083,20.742-27.173c1.266-1.745,2.29-3.618,3.05-5.57
		c0.813-2.095,1.227-4.337,1.227-6.666c0-1.881-0.308-3.828-0.908-5.785C83.695,32.354,82.679,30.455,81.31,28.784z"/>
	<g>
		<path fill="#FFFFFF" stroke="#1B1B1C" stroke-width="8" stroke-miterlimit="10" d="M55.933,37.255
			c-0.271,0.487-0.623,0.928-1.057,1.32c-0.434,0.393-0.906,0.725-1.421,0.995c-0.516,0.271-1.063,0.481-1.646,0.629
			c-0.583,0.149-1.171,0.224-1.767,0.224c-0.623,0-1.227-0.088-1.808-0.264c-0.583-0.176-1.09-0.433-1.522-0.771
			c-0.434-0.338-0.777-0.758-1.034-1.259c-0.259-0.5-0.387-1.089-0.387-1.767c0-1.028,0.297-2.091,0.894-3.188
			c0.595-1.096,1.415-2.159,2.457-3.188c1.042-1.029,2.254-2.003,3.635-2.924c1.381-0.92,2.85-1.726,4.406-2.416
			s3.16-1.239,4.813-1.645c1.65-0.406,3.274-0.609,4.873-0.609c2.272,0,4.223,0.413,5.848,1.239c1.624,0.826,2.957,1.875,4,3.147
			c1.041,1.272,1.808,2.7,2.295,4.284c0.486,1.583,0.73,3.12,0.73,4.609c0,1.841-0.318,3.58-0.955,5.218
			c-0.638,1.638-1.488,3.195-2.56,4.67c-1.067,1.476-25.665,33.603-25.665,33.603c0.704,0,1.326-0.015,1.868-0.041
			c0.541,0,1.108,0,1.705,0c0.595,0,1.285-0.014,2.07-0.041c0.757,0,1.731,0,2.923,0c1.219,0,2.497,0.008,3.837,0.021
			c1.342,0.014,2.701,0.033,4.082,0.061c1.382,0.027,2.74,0.068,4.08,0.123c1.342,0.055,2.604,0.121,3.797,0.202l-2.761,7.392
			c-1.301-0.107-2.748-0.189-4.346-0.244s-3.153-0.096-4.67-0.121c-1.518-0.027-2.91-0.04-4.184-0.04h-2.802
			c-2.572,0-4.818,0.007-6.741,0.021c-1.922,0.014-3.668,0.041-5.237,0.08c-1.569,0.041-3.039,0.096-4.406,0.163
			c-1.366,0.065-2.755,0.169-4.161,0.304c0-0.812,0.276-1.597,0.833-2.354c0.555-0.758,1.319-1.529,2.294-2.314
			c3.598-2.9,6.431-7.688,9.35-11.229c5.047-6.125,10.179-12.261,14.949-18.601c3.412-4.537,6.626-7.848,6.626-13.862
			c0-1.868-0.237-3.452-0.711-4.751c-0.476-1.3-1.117-2.349-1.931-3.147c-0.813-0.798-1.766-1.38-2.861-1.746
			c-1.098-0.365-2.254-0.548-3.473-0.548c-1.842,0-3.351,0.379-4.527,1.137c-1.178,0.758-1.768,1.909-1.768,3.452
			c0,0.677,0.143,1.367,0.427,2.071C54.613,35.848,55.147,36.552,55.933,37.255z"/>
		<path fill="#B70000" d="M55.933,37.255c-0.271,0.487-0.623,0.928-1.057,1.32c-0.434,0.393-0.906,0.725-1.421,0.995
			c-0.516,0.271-1.063,0.481-1.646,0.629c-0.583,0.149-1.171,0.224-1.767,0.224c-0.623,0-1.227-0.088-1.808-0.264
			c-0.583-0.176-1.09-0.433-1.522-0.771c-0.434-0.338-0.777-0.758-1.034-1.259c-0.259-0.5-0.387-1.089-0.387-1.767
			c0-1.028,0.297-2.091,0.894-3.188c0.595-1.096,1.415-2.159,2.457-3.188c1.042-1.029,2.254-2.003,3.635-2.924
			c1.381-0.92,2.85-1.726,4.406-2.416s3.16-1.239,4.813-1.645c1.65-0.406,3.274-0.609,4.873-0.609c2.272,0,4.223,0.413,5.848,1.239
			c1.624,0.826,2.957,1.875,4,3.147c1.041,1.272,1.808,2.7,2.295,4.284c0.486,1.583,0.73,3.12,0.73,4.609
			c0,1.841-0.318,3.58-0.955,5.218c-0.638,1.638-1.488,3.195-2.56,4.67c-1.067,1.476-25.665,33.603-25.665,33.603
			c0.704,0,1.326-0.015,1.868-0.041c0.541,0,1.108,0,1.705,0c0.595,0,1.285-0.014,2.07-0.041c0.757,0,1.731,0,2.923,0
			c1.219,0,2.497,0.008,3.837,0.021c1.342,0.014,2.701,0.033,4.082,0.061c1.382,0.027,2.74,0.068,4.08,0.123
			c1.342,0.055,2.604,0.121,3.797,0.202l-2.761,7.392c-1.301-0.107-2.748-0.189-4.346-0.244s-3.153-0.096-4.67-0.121
			c-1.518-0.027-2.91-0.04-4.184-0.04h-2.802c-2.572,0-4.818,0.007-6.741,0.021c-1.922,0.014-3.668,0.041-5.237,0.08
			c-1.569,0.041-3.039,0.096-4.406,0.163c-1.366,0.065-2.755,0.169-4.161,0.304c0-0.812,0.276-1.597,0.833-2.354
			c0.555-0.758,1.319-1.529,2.294-2.314c3.598-2.9,6.431-7.688,9.35-11.229c5.047-6.125,10.179-12.261,14.949-18.601
			c3.412-4.537,6.626-7.848,6.626-13.862c0-1.868-0.237-3.452-0.711-4.751c-0.476-1.3-1.117-2.349-1.931-3.147
			c-0.813-0.798-1.766-1.38-2.861-1.746c-1.098-0.365-2.254-0.548-3.473-0.548c-1.842,0-3.351,0.379-4.527,1.137
			c-1.178,0.758-1.768,1.909-1.768,3.452c0,0.677,0.143,1.367,0.427,2.071C54.613,35.848,55.147,36.552,55.933,37.255z"/>
	</g>
</g>
</svg>
