<?xml version="1.0" encoding="utf-8"?>
<!-- Generator: Adobe Illustrator 16.0.0, SVG Export Plug-In . SVG Version: 6.00 Build 0)  -->
<!DOCTYPE svg PUBLIC "-//W3C//DTD SVG 1.1//EN" "http://www.w3.org/Graphics/SVG/1.1/DTD/svg11.dtd">
<svg version="1.1" id="Layer_1" xmlns="http://www.w3.org/2000/svg" xmlns:xlink="http://www.w3.org/1999/xlink" x="0px" y="0px"
	 width="60px" height="85px" viewBox="0 0 60 85" enable-background="new 0 0 60 85" xml:space="preserve">
<g>
	<path d="M50.896,16.544c-2.34-2.324-5.127-4.109-8.28-5.307c-4.908-1.862-10.546-2.268-16.388-1.118
		c-2.207,0.437-4.387,1.128-6.474,2.056c-2.116,0.941-4.144,2.163-6.021,3.633c-1.94,1.521-3.657,3.367-5.103,5.484
		c-1.442,2.116-2.589,4.561-3.405,7.268C4.188,31.995,4,47.445,4,47.595c0,2.104,0.391,14.464,2.116,18.593
		c1.416,3.393,3.368,6.271,5.804,8.561c2.426,2.279,5.27,4.014,8.455,5.154c3.104,1.113,6.398,1.678,9.796,1.678
		c2.192,0,4.427-0.242,6.638-0.721c2.227-0.482,4.399-1.226,6.467-2.203c2.104-0.996,4.092-2.277,5.901-3.807
		c1.857-1.566,3.489-3.441,4.853-5.572c1.352-2.113,2.426-4.525,3.191-7.172c1.012-3.492,1.151-15.689,1.151-15.81
		c0-0.164-0.271-16.968-1.968-21.245C55.083,21.724,53.23,18.862,50.896,16.544z M31.43,69.113c-1.625,0-2.885-0.322-3.851-0.984
		c-1.124-0.771-2.013-1.768-2.713-3.049c-0.792-1.447-1.374-3.146-1.728-5.061c-0.332-1.787-0.584-10.455-0.584-13.438
		c0-2.359,0.082-12.604,0.188-13.809c0.113-1.222,0.324-2.437,0.625-3.61c0.281-1.107,0.671-2.173,1.156-3.167
		c0.422-0.864,0.932-1.59,1.553-2.221c0.546-0.555,1.207-0.989,2.02-1.327c0.803-0.335,1.814-0.505,3.01-0.505
		c1.64,0,2.953,0.315,3.912,0.938c1.07,0.697,1.914,1.618,2.57,2.815c0.764,1.388,1.322,3.032,1.662,4.886
		c0.296,1.613,0.563,12.643,0.563,16.365c0,1.268-0.066,2.604-0.203,3.969c-0.06,0.592-0.113,1.723-0.207,3.662
		c-0.096,2.063-0.299,6.354-0.445,7.158c-0.287,1.154-0.678,2.256-1.152,3.27c-0.41,0.867-0.91,1.6-1.529,2.234
		c-0.561,0.576-1.219,1.025-2.02,1.375C33.498,68.945,32.546,69.113,31.43,69.113z"/>
	<path fill="#FFFFFF" stroke="#1B1B1C" stroke-width="8" stroke-miterlimit="10" d="M30.648,8.935c3.061,0,5.908,0.501,8.549,1.502
		c2.64,1.002,4.935,2.471,6.884,4.406c1.948,1.936,3.483,4.318,4.606,7.147c1.123,2.829,1.687,16.085,1.687,19.766
		c0,2.844-0.331,12.408-0.994,14.695c-0.664,2.289-1.569,4.332-2.721,6.133c-1.152,1.801-2.505,3.355-4.062,4.67
		c-1.559,1.313-3.236,2.396-5.035,3.248c-1.801,0.854-3.67,1.488-5.604,1.908c-1.938,0.42-3.865,0.629-5.787,0.629
		c-2.95,0-5.767-0.479-8.444-1.439c-2.682-0.961-5.035-2.396-7.064-4.307c-2.03-1.908-3.646-4.303-4.854-7.188
		C6.602,57.223,6,46.873,6,43.057c0-2.925,0.354-15.55,1.057-17.879c0.703-2.328,1.666-4.385,2.883-6.172
		c1.22-1.787,2.641-3.316,4.266-4.589c1.625-1.272,3.352-2.314,5.177-3.126c1.828-0.813,3.702-1.407,5.624-1.787
		C26.926,9.125,28.807,8.935,30.648,8.935z M29.43,68.574c1.68,0,3.152-0.277,4.428-0.834c1.271-0.555,2.367-1.305,3.289-2.254
		c0.92-0.947,1.679-2.051,2.271-3.31c0.598-1.26,1.068-2.6,1.422-4.021c0.354-1.422,0.604-9.883,0.751-11.387
		c0.147-1.502,0.226-2.957,0.226-4.364c0-2.438-0.211-14.798-0.631-17.086c-0.42-2.288-1.115-4.318-2.09-6.091
		c-0.977-1.773-2.275-3.188-3.898-4.243c-1.625-1.056-3.653-1.584-6.092-1.584c-1.731,0-3.248,0.271-4.547,0.812
		c-1.302,0.542-2.41,1.279-3.33,2.213c-0.92,0.934-1.687,2.024-2.295,3.269c-0.607,1.246-1.09,2.559-1.439,3.939
		c-0.354,1.381-0.598,2.789-0.73,4.223c-0.137,1.436-0.203,12.829-0.203,14.183c0,2.437,0.217,11.827,0.649,14.167
		c0.435,2.344,1.149,4.428,2.151,6.254c1,1.828,2.32,3.305,3.959,4.428C24.958,68.012,26.994,68.574,29.43,68.574z"/>
	<path fill="#28B500" d="M30.648,8.935c3.061,0,5.908,0.501,8.549,1.502c2.64,1.002,4.935,2.471,6.884,4.406
		c1.948,1.936,3.483,4.318,4.606,7.147c1.123,2.829,1.687,16.085,1.687,19.766c0,2.844-0.331,12.408-0.994,14.695
		c-0.664,2.289-1.569,4.332-2.721,6.133c-1.152,1.801-2.505,3.355-4.062,4.67c-1.559,1.313-3.236,2.396-5.035,3.248
		c-1.801,0.854-3.67,1.488-5.604,1.908c-1.938,0.42-3.865,0.629-5.787,0.629c-2.95,0-5.767-0.479-8.444-1.439
		c-2.682-0.961-5.035-2.396-7.064-4.307c-2.03-1.908-3.646-4.303-4.854-7.188C6.602,57.223,6,46.873,6,43.057
		c0-2.925,0.354-15.55,1.057-17.879c0.703-2.328,1.666-4.385,2.883-6.172c1.22-1.787,2.641-3.316,4.266-4.589
		c1.625-1.272,3.352-2.314,5.177-3.126c1.828-0.813,3.702-1.407,5.624-1.787C26.926,9.125,28.807,8.935,30.648,8.935z M29.43,68.574
		c1.68,0,3.152-0.277,4.428-0.834c1.271-0.555,2.367-1.305,3.289-2.254c0.92-0.947,1.679-2.051,2.271-3.31
		c0.598-1.26,1.068-2.6,1.422-4.021c0.354-1.422,0.604-9.883,0.751-11.387c0.147-1.502,0.226-2.957,0.226-4.364
		c0-2.438-0.211-14.798-0.631-17.086c-0.42-2.288-1.115-4.318-2.09-6.091c-0.977-1.773-2.275-3.188-3.898-4.243
		c-1.625-1.056-3.653-1.584-6.092-1.584c-1.731,0-3.248,0.271-4.547,0.812c-1.302,0.542-2.41,1.279-3.33,2.213
		c-0.92,0.934-1.687,2.024-2.295,3.269c-0.607,1.246-1.09,2.559-1.439,3.939c-0.354,1.381-0.598,2.789-0.73,4.223
		c-0.137,1.436-0.203,12.829-0.203,14.183c0,2.437,0.217,11.827,0.649,14.167c0.435,2.344,1.149,4.428,2.151,6.254
		c1,1.828,2.32,3.305,3.959,4.428C24.958,68.012,26.994,68.574,29.43,68.574z"/>
</g>
</svg>
