<?xml version="1.0" encoding="utf-8"?>
<!-- Generator: Adobe Illustrator 16.0.0, SVG Export Plug-In . SVG Version: 6.00 Build 0)  -->
<!DOCTYPE svg PUBLIC "-//W3C//DTD SVG 1.1//EN" "http://www.w3.org/Graphics/SVG/1.1/DTD/svg11.dtd">
<svg version="1.1" id="Layer_1" xmlns="http://www.w3.org/2000/svg" xmlns:xlink="http://www.w3.org/1999/xlink" x="0px" y="0px"
	 width="60px" height="85px" viewBox="0 0 60 85" enable-background="new 0 0 60 85" xml:space="preserve">
<g>
	<path d="M40.627,8.211c-0.781,0.438-1.831,0.929-3.115,1.462c-1.318,0.548-2.888,1.108-4.658,1.665
		c-1.797,0.564-3.824,1.112-6.026,1.627c-2.196,0.514-4.589,0.973-7.11,1.363l-2.691,0.417l-2.43,10.785h5
		c0.271,0,0.432-0.013,1.479-0.146l2.259-0.197c0.904-0.079,1.871-0.15,2.895-0.216c0.912-0.058,1.75-0.089,2.486-0.093
		c0.008,0.293,0.016,0.591,0.02,0.895l0.082,6.209c0.013,1.234,0.021,22.289,0.021,24.326c0,4.121-0.026,8.058-0.081,11.695
		c-0.054,3.682-0.135,7.104-0.24,10.176l-0.076,2.229l3.963,2.646l1.627-0.324c0.76-0.15,1.938-0.354,3.513-0.603
		c1.554-0.246,3.476-0.487,5.708-0.728l3.895-0.411l-0.328-3.9c-0.053-0.604-0.094-1.385-0.131-2.342
		c-0.041-1.006-0.074-2.099-0.102-3.281c-0.027-1.174-0.04-2.366-0.04-3.584l-0.001-3.59c-0.023-1.045-0.039-1.961-0.039-2.744
		v-1.666c0-5.44,0.041-30.707,0.121-35.112c0.079-4.354,0.277-8.474,0.596-12.246l0.187-2.205L42.9,6.943L40.627,8.211z"/>
	<g>
		<path fill="#FFFFFF" stroke="#1B1B1C" stroke-width="8" stroke-miterlimit="10" d="M30.833,51.771
			c0-1.625-0.007-23.08-0.021-24.365c-0.017-1.286-0.026-2.443-0.041-3.472c-0.016-1.029-0.026-1.949-0.041-2.761
			c-0.016-0.813-0.035-1.584-0.063-2.315c-0.025-0.487-0.081-0.886-0.162-1.198c-0.081-0.311-0.258-0.568-0.527-0.771
			c-0.271-0.203-0.647-0.345-1.138-0.426c-0.485-0.082-1.149-0.122-1.989-0.122c-0.865,0-1.826,0.034-2.883,0.102
			s-2.052,0.142-2.984,0.223c-0.935,0.082-1.713,0.149-2.334,0.203c-0.648,0.082-1.002,0.122-1.057,0.122l0.729-3.249
			c2.626-0.406,5.097-0.879,7.409-1.421c2.313-0.541,4.42-1.11,6.313-1.706c1.896-0.595,3.562-1.191,4.994-1.787
			c1.437-0.595,2.61-1.15,3.533-1.665l0.647,0.487c-0.324,3.872-0.527,8.04-0.607,12.507c-0.081,4.467-0.121,29.53-0.121,35.186
			v1.666c0,0.813,0.014,1.761,0.04,2.843c0,1.084,0,2.248,0,3.491c0,1.246,0.014,2.472,0.041,3.677
			c0.024,1.205,0.062,2.321,0.103,3.35c0.041,1.029,0.088,1.867,0.143,2.52c-2.301,0.242-4.271,0.492-5.907,0.752
			c-1.64,0.258-2.862,0.467-3.677,0.629l-0.729-0.483c0.105-3.113,0.188-6.531,0.243-10.256
			C30.807,59.805,30.833,55.886,30.833,51.771z"/>
		<path fill="#28B500" d="M30.833,51.771c0-1.625-0.007-23.08-0.021-24.365c-0.017-1.286-0.026-2.443-0.041-3.472
			c-0.016-1.029-0.026-1.949-0.041-2.761c-0.016-0.813-0.035-1.584-0.063-2.315c-0.025-0.487-0.081-0.886-0.162-1.198
			c-0.081-0.311-0.258-0.568-0.527-0.771c-0.271-0.203-0.647-0.345-1.138-0.426c-0.485-0.082-1.149-0.122-1.989-0.122
			c-0.865,0-1.826,0.034-2.883,0.102s-2.052,0.142-2.984,0.223c-0.935,0.082-1.713,0.149-2.334,0.203
			c-0.648,0.082-1.002,0.122-1.057,0.122l0.729-3.249c2.626-0.406,5.097-0.879,7.409-1.421c2.313-0.541,4.42-1.11,6.313-1.706
			c1.896-0.595,3.562-1.191,4.994-1.787c1.437-0.595,2.61-1.15,3.533-1.665l0.647,0.487c-0.324,3.872-0.527,8.04-0.607,12.507
			c-0.081,4.467-0.121,29.53-0.121,35.186v1.666c0,0.813,0.014,1.761,0.04,2.843c0,1.084,0,2.248,0,3.491
			c0,1.246,0.014,2.472,0.041,3.677c0.024,1.205,0.062,2.321,0.103,3.35c0.041,1.029,0.088,1.867,0.143,2.52
			c-2.301,0.242-4.271,0.492-5.907,0.752c-1.64,0.258-2.862,0.467-3.677,0.629l-0.729-0.483c0.105-3.113,0.188-6.531,0.243-10.256
			C30.807,59.805,30.833,55.886,30.833,51.771z"/>
	</g>
</g>
</svg>
