<?xml version="1.0" encoding="utf-8"?>
<!-- Generator: Adobe Illustrator 16.0.0, SVG Export Plug-In . SVG Version: 6.00 Build 0)  -->
<!DOCTYPE svg PUBLIC "-//W3C//DTD SVG 1.1//EN" "http://www.w3.org/Graphics/SVG/1.1/DTD/svg11.dtd">
<svg version="1.1" id="Layer_1" xmlns="http://www.w3.org/2000/svg" xmlns:xlink="http://www.w3.org/1999/xlink" x="0px" y="0px"
	 width="60px" height="85px" viewBox="26.694 14.193 60 85" enable-background="new 26.694 14.193 60 85" xml:space="preserve">
<g>
	<path d="M54.035,39.374c0.007-0.081,0.014-0.161,0.021-0.242c0.009,0,0.019,0.001,0.026,0.001c0.759,0.028,1.72,0.05,2.881,0.063
		c1.136,0.015,2.648,0.021,4.537,0.021h1.787c0.859,0,1.82-0.021,2.883-0.064c1.01-0.041,2.091-0.088,3.235-0.143
		c1.235-0.059,2.47-0.163,3.665-0.31l2.434-0.297l5.828-15.982l-6.24,0.527c-2.491,0.21-5.188,0.371-8.017,0.476
		c-5.014,0.188-10.329,0.221-14.856,0.042c-1.939-0.078-3.812-0.22-5.564-0.423l-4.329-0.503l-0.13,4.357
		c-0.158,5.332-0.468,10.601-0.919,15.661c-0.452,5.062-1.085,10.288-1.88,15.531l-0.303,2.002l3.666,3.658l2.261-0.646
		c1.528-0.438,2.949-0.756,4.223-0.946c1.247-0.187,2.516-0.279,3.772-0.279c1.811,0,3.426,0.199,4.804,0.596
		c1.178,0.338,2.117,0.828,2.875,1.502c0.722,0.639,1.27,1.473,1.677,2.547c0.462,1.217,0.694,2.775,0.694,4.633
		c0,2.012-0.252,3.688-0.747,4.979c-0.458,1.189-1.055,2.136-1.771,2.812c-0.735,0.69-1.57,1.185-2.554,1.503
		c-2.389,0.774-5.25,0.774-8.103-0.273c-1.412-0.521-2.919-1.553-4.479-3.072l-2.46-2.395l-2.739,2.068
		c-1.639,1.237-2.779,2.551-3.481,4.003c-0.685,1.408-1.031,2.845-1.031,4.267c0,1.604,0.396,3.129,1.18,4.533
		c0.75,1.338,1.82,2.487,3.184,3.42c1.214,0.828,2.668,1.479,4.324,1.934c1.572,0.432,3.355,0.65,5.301,0.65
		c2.605,0,5.233-0.4,7.813-1.191c2.499-0.766,4.916-1.838,7.187-3.188c2.251-1.34,4.363-2.943,6.276-4.765
		c1.912-1.821,3.596-3.821,5.004-5.948c1.424-2.152,2.563-4.439,3.384-6.798c0.862-2.472,1.3-5.006,1.3-7.53
		c0-2.472-0.46-4.961-1.366-7.404c-0.943-2.536-2.436-4.835-4.436-6.835c-1.976-1.975-4.497-3.584-7.494-4.783
		c-3.766-1.506-8.46-2.104-13.942-1.642l0.253-2.283C53.799,41.961,53.924,40.682,54.035,39.374z"/>
	<g>
		<path fill="#FFFFFF" stroke="#1B1C1C" stroke-width="8" stroke-miterlimit="10" d="M41.35,54.148
			c0.813-5.36,1.448-10.619,1.909-15.776c0.46-5.157,0.771-10.456,0.934-15.897c1.867,0.217,3.822,0.365,5.867,0.447
			c2.042,0.081,4.202,0.122,6.477,0.122c2.896,0,5.793-0.054,8.688-0.163c2.896-0.108,5.631-0.27,8.203-0.487l-2.843,7.797
			c-1.11,0.136-2.233,0.23-3.37,0.284c-1.137,0.055-2.207,0.102-3.208,0.142c-1.002,0.041-1.908,0.061-2.721,0.061H59.5
			c-1.867,0-3.363-0.006-4.486-0.021c-1.124-0.013-2.051-0.034-2.782-0.061c-0.757-0.026-1.415-0.047-1.968-0.061
			c-0.556-0.014-1.198-0.021-1.93-0.021c-0.081,1.381-0.176,2.708-0.284,3.979c-0.108,1.273-0.229,2.518-0.365,3.736
			s-0.271,2.443-0.406,3.675s-0.271,2.498-0.404,3.797c1.435-0.325,2.808-0.555,4.121-0.69c1.312-0.135,2.578-0.203,3.796-0.203
			c3.546,0,6.57,0.501,9.075,1.503c2.504,1.002,4.555,2.301,6.151,3.898c1.598,1.598,2.769,3.398,3.513,5.401
			c0.744,2.005,1.116,4.007,1.116,6.011c0,2.084-0.357,4.154-1.076,6.213c-0.717,2.058-1.697,4.025-2.942,5.908
			C69.381,75.623,67.906,77.375,66.2,79s-3.561,3.031-5.563,4.224c-2.004,1.19-4.108,2.125-6.313,2.803
			c-2.207,0.677-4.42,1.015-6.64,1.015c-1.598,0-3.011-0.168-4.242-0.506c-1.231-0.341-2.273-0.8-3.127-1.382
			c-0.853-0.583-1.502-1.272-1.948-2.071s-0.671-1.658-0.671-2.578c0-0.813,0.209-1.65,0.631-2.519
			c0.419-0.866,1.184-1.719,2.294-2.558c1.976,1.922,3.938,3.24,5.887,3.959c1.949,0.717,3.885,1.076,5.806,1.076
			c1.732,0,3.371-0.252,4.914-0.752c1.543-0.502,2.896-1.299,4.062-2.396c1.164-1.097,2.084-2.524,2.762-4.282
			c0.676-1.762,1.015-3.898,1.015-6.416c0-2.355-0.317-4.373-0.954-6.052c-0.637-1.678-1.557-3.052-2.762-4.122
			c-1.204-1.069-2.68-1.854-4.426-2.355c-1.746-0.5-3.716-0.751-5.908-0.751c-1.462,0-2.918,0.108-4.365,0.325
			c-1.446,0.217-3.023,0.568-4.729,1.056L41.35,54.148z"/>
		<path fill="#FFFFFF" d="M41.35,54.148c0.813-5.36,1.448-10.619,1.909-15.776c0.46-5.157,0.771-10.456,0.934-15.897
			c1.867,0.217,3.822,0.365,5.867,0.447c2.042,0.081,4.202,0.122,6.477,0.122c2.896,0,5.793-0.054,8.688-0.163
			c2.896-0.108,5.631-0.27,8.203-0.487l-2.843,7.797c-1.11,0.136-2.233,0.23-3.37,0.284c-1.137,0.055-2.207,0.102-3.208,0.142
			c-1.002,0.041-1.908,0.061-2.721,0.061H59.5c-1.867,0-3.363-0.006-4.486-0.021c-1.124-0.013-2.051-0.034-2.782-0.061
			c-0.757-0.026-1.415-0.047-1.968-0.061c-0.556-0.014-1.198-0.021-1.93-0.021c-0.081,1.381-0.176,2.708-0.284,3.979
			c-0.108,1.273-0.229,2.518-0.365,3.736s-0.271,2.443-0.406,3.675s-0.271,2.498-0.404,3.797c1.435-0.325,2.808-0.555,4.121-0.69
			c1.312-0.135,2.578-0.203,3.796-0.203c3.546,0,6.57,0.501,9.075,1.503c2.504,1.002,4.555,2.301,6.151,3.898
			c1.598,1.598,2.769,3.398,3.513,5.401c0.744,2.005,1.116,4.007,1.116,6.011c0,2.084-0.357,4.154-1.076,6.213
			c-0.717,2.058-1.697,4.025-2.942,5.908C69.381,75.623,67.906,77.375,66.2,79s-3.561,3.031-5.563,4.224
			c-2.004,1.19-4.108,2.125-6.313,2.803c-2.207,0.677-4.42,1.015-6.64,1.015c-1.598,0-3.011-0.168-4.242-0.506
			c-1.231-0.341-2.273-0.8-3.127-1.382c-0.853-0.583-1.502-1.272-1.948-2.071s-0.671-1.658-0.671-2.578
			c0-0.813,0.209-1.65,0.631-2.519c0.419-0.866,1.184-1.719,2.294-2.558c1.976,1.922,3.938,3.24,5.887,3.959
			c1.949,0.717,3.885,1.076,5.806,1.076c1.732,0,3.371-0.252,4.914-0.752c1.543-0.502,2.896-1.299,4.062-2.396
			c1.164-1.097,2.084-2.524,2.762-4.282c0.676-1.762,1.015-3.898,1.015-6.416c0-2.355-0.317-4.373-0.954-6.052
			c-0.637-1.678-1.557-3.052-2.762-4.122c-1.204-1.069-2.68-1.854-4.426-2.355c-1.746-0.5-3.716-0.751-5.908-0.751
			c-1.462,0-2.918,0.108-4.365,0.325c-1.446,0.217-3.023,0.568-4.729,1.056L41.35,54.148z"/>
	</g>
</g>
</svg>
