<?xml version="1.0" encoding="utf-8"?>
<!-- Generator: Adobe Illustrator 16.0.0, SVG Export Plug-In . SVG Version: 6.00 Build 0)  -->
<!DOCTYPE svg PUBLIC "-//W3C//DTD SVG 1.1//EN" "http://www.w3.org/Graphics/SVG/1.1/DTD/svg11.dtd">
<svg version="1.1" id="Layer_1" xmlns="http://www.w3.org/2000/svg" xmlns:xlink="http://www.w3.org/1999/xlink" x="0px" y="0px"
	 width="60px" height="85px" viewBox="26.694 14.193 60 85" enable-background="new 26.694 14.193 60 85" xml:space="preserve">
<g>
	<path d="M79.093,56.479c-1.792-2.117-4.027-3.806-6.646-5.023s-5.611-1.834-8.893-1.834c-2.512,0-4.802,0.344-6.808,1.024
		c-1.548,0.525-2.936,1.16-4.136,1.893c0.199-1.181,0.441-2.285,0.727-3.307c0.905-3.256,2.083-5.874,3.499-7.782
		c1.325-1.783,2.762-3.016,4.391-3.767c1.72-0.792,3.438-1.176,5.251-1.176c1.354,0,2.693,0.201,3.984,0.596
		c1.386,0.425,2.856,1.083,4.374,1.957l1.974,1.136l1.983-1.116c1.428-0.803,2.563-1.84,3.377-3.084
		c0.892-1.362,1.343-2.85,1.343-4.422c0-1.33-0.346-2.63-1.03-3.869c-0.653-1.18-1.615-2.21-2.862-3.067
		c-1.094-0.748-2.43-1.343-3.976-1.772c-1.468-0.406-3.172-0.611-5.064-0.611c-3.098,0-6.219,0.548-9.274,1.63
		c-2.98,1.055-5.87,2.575-8.584,4.516c-2.673,1.911-5.188,4.234-7.475,6.907c-2.283,2.667-4.286,5.696-5.953,9.002
		c-1.657,3.285-2.979,6.879-3.925,10.682c-0.954,3.832-1.438,7.906-1.438,12.113c0,4.492,0.557,8.611,1.652,12.24
		c1.133,3.758,2.803,7.018,4.964,9.688c2.215,2.735,4.922,4.869,8.044,6.34c3.11,1.467,6.614,2.209,10.415,2.209
		c3.509,0,6.843-0.631,9.911-1.877c3.07-1.248,5.788-3.017,8.073-5.254c2.296-2.248,4.125-4.969,5.438-8.09
		s1.977-6.572,1.977-10.261c0-2.933-0.442-5.761-1.318-8.406C82.181,60.966,80.838,58.541,79.093,56.479z M52.958,72.962
		c-0.45-1.994-0.756-4.275-0.913-6.814l1.281-0.962c0.284-0.214,0.589-0.388,0.929-0.532c0.449-0.191,0.897-0.344,1.336-0.455
		c0.45-0.117,0.895-0.199,1.316-0.246c0.464-0.051,0.868-0.076,1.204-0.076c1.234,0,2.335,0.269,3.363,0.82
		c1.12,0.604,2.08,1.434,2.933,2.535c0.899,1.168,1.627,2.602,2.158,4.258c0.547,1.709,0.824,3.607,0.824,5.645
		c0,2.736-0.488,4.785-1.451,6.091c-0.48,0.651-1.309,1.401-3.44,1.401c-1.31,0-2.506-0.334-3.659-1.021
		c-1.189-0.709-2.28-1.883-3.244-3.49C54.506,78.296,53.619,75.89,52.958,72.962z"/>
	<g>
		<path fill="#FFFFFF" stroke="#1B1C1C" stroke-width="8" stroke-miterlimit="10" d="M45.92,57.367
			c0,4.602,0.379,8.582,1.137,11.938c0.758,3.357,1.793,6.132,3.106,8.324c1.313,2.192,2.855,3.816,4.63,4.873
			c1.771,1.057,3.675,1.584,5.705,1.584c2.95,0,5.17-1.008,6.659-3.025c1.487-2.018,2.232-4.838,2.232-8.467
			c0-2.463-0.339-4.752-1.015-6.862c-0.679-2.112-1.611-3.938-2.802-5.481c-1.192-1.543-2.594-2.748-4.203-3.615
			c-1.611-0.866-3.364-1.299-5.26-1.299c-0.486,0-1.034,0.034-1.645,0.102c-0.609,0.068-1.232,0.183-1.868,0.345
			c-0.636,0.162-1.271,0.379-1.908,0.649c-0.637,0.271-1.226,0.609-1.767,1.015c-0.108-0.297-0.162-0.568-0.162-0.812
			c0-0.649,0.271-1.414,0.813-2.294c0.542-0.879,1.354-1.706,2.437-2.477c1.083-0.772,2.423-1.428,4.021-1.97
			c1.598-0.541,3.438-0.812,5.522-0.812c2.707,0,5.109,0.487,7.208,1.462c2.098,0.975,3.857,2.301,5.278,3.979
			c1.422,1.679,2.504,3.641,3.249,5.889c0.744,2.246,1.115,4.629,1.115,7.146c0,3.168-0.555,6.069-1.663,8.711
			c-1.11,2.64-2.628,4.899-4.55,6.78c-1.922,1.882-4.183,3.351-6.78,4.406c-2.599,1.055-5.4,1.584-8.405,1.584
			c-3.222,0-6.125-0.609-8.71-1.828c-2.586-1.219-4.799-2.965-6.641-5.237c-1.841-2.274-3.256-5.05-4.242-8.324
			c-0.989-3.274-1.482-6.972-1.482-11.086c0-3.897,0.439-7.614,1.319-11.147s2.085-6.815,3.613-9.847
			c1.529-3.032,3.337-5.766,5.422-8.203c2.085-2.437,4.338-4.521,6.762-6.253c2.422-1.732,4.954-3.066,7.593-4
			c2.64-0.934,5.286-1.401,7.939-1.401c1.543,0,2.876,0.156,3.999,0.467c1.123,0.312,2.051,0.718,2.781,1.218
			c0.73,0.501,1.271,1.07,1.624,1.706s0.528,1.279,0.528,1.929c0,0.786-0.23,1.53-0.69,2.233c-0.461,0.705-1.124,1.299-1.989,1.787
			c-1.786-1.028-3.521-1.8-5.197-2.314c-1.679-0.514-3.397-0.771-5.157-0.771c-2.383,0-4.689,0.515-6.924,1.543
			c-2.233,1.029-4.21,2.701-5.929,5.015c-1.72,2.314-3.101,5.347-4.143,9.096S45.92,51.952,45.92,57.367z"/>
		<path fill="#FFFFFF" d="M45.92,57.367c0,4.602,0.379,8.582,1.137,11.938c0.758,3.357,1.793,6.132,3.106,8.324
			c1.313,2.192,2.855,3.816,4.63,4.873c1.771,1.057,3.675,1.584,5.705,1.584c2.95,0,5.17-1.008,6.659-3.025
			c1.487-2.018,2.232-4.838,2.232-8.467c0-2.463-0.339-4.752-1.015-6.862c-0.679-2.112-1.611-3.938-2.802-5.481
			c-1.192-1.543-2.594-2.748-4.203-3.615c-1.611-0.866-3.364-1.299-5.26-1.299c-0.486,0-1.034,0.034-1.645,0.102
			c-0.609,0.068-1.232,0.183-1.868,0.345c-0.636,0.162-1.271,0.379-1.908,0.649c-0.637,0.271-1.226,0.609-1.767,1.015
			c-0.108-0.297-0.162-0.568-0.162-0.812c0-0.649,0.271-1.414,0.813-2.294c0.542-0.879,1.354-1.706,2.437-2.477
			c1.083-0.772,2.423-1.428,4.021-1.97c1.598-0.541,3.438-0.812,5.522-0.812c2.707,0,5.109,0.487,7.208,1.462
			c2.098,0.975,3.857,2.301,5.278,3.979c1.422,1.679,2.504,3.641,3.249,5.889c0.744,2.246,1.115,4.629,1.115,7.146
			c0,3.168-0.555,6.069-1.663,8.711c-1.11,2.64-2.628,4.899-4.55,6.78c-1.922,1.882-4.183,3.351-6.78,4.406
			c-2.599,1.055-5.4,1.584-8.405,1.584c-3.222,0-6.125-0.609-8.71-1.828c-2.586-1.219-4.799-2.965-6.641-5.237
			c-1.841-2.274-3.256-5.05-4.242-8.324c-0.989-3.274-1.482-6.972-1.482-11.086c0-3.897,0.439-7.614,1.319-11.147
			s2.085-6.815,3.613-9.847c1.529-3.032,3.337-5.766,5.422-8.203c2.085-2.437,4.338-4.521,6.762-6.253
			c2.422-1.732,4.954-3.066,7.593-4c2.64-0.934,5.286-1.401,7.939-1.401c1.543,0,2.876,0.156,3.999,0.467
			c1.123,0.312,2.051,0.718,2.781,1.218c0.73,0.501,1.271,1.07,1.624,1.706s0.528,1.279,0.528,1.929c0,0.786-0.23,1.53-0.69,2.233
			c-0.461,0.705-1.124,1.299-1.989,1.787c-1.786-1.028-3.521-1.8-5.197-2.314c-1.679-0.514-3.397-0.771-5.157-0.771
			c-2.383,0-4.689,0.515-6.924,1.543c-2.233,1.029-4.21,2.701-5.929,5.015c-1.72,2.314-3.101,5.347-4.143,9.096
			S45.92,51.952,45.92,57.367z"/>
	</g>
</g>
</svg>
