<?xml version="1.0" encoding="utf-8"?>
<!-- Generator: Adobe Illustrator 16.0.0, SVG Export Plug-In . SVG Version: 6.00 Build 0)  -->
<!DOCTYPE svg PUBLIC "-//W3C//DTD SVG 1.1//EN" "http://www.w3.org/Graphics/SVG/1.1/DTD/svg11.dtd">
<svg version="1.1" id="Layer_1" xmlns="http://www.w3.org/2000/svg" xmlns:xlink="http://www.w3.org/1999/xlink" x="0px" y="0px"
	 width="60px" height="85px" viewBox="0 0 60 85" enable-background="new 0 0 60 85" xml:space="preserve">
<g>
	<path d="M47.926,46.908c-0.949-0.029-1.908-0.059-2.878-0.086c0.015-0.654,0.03-1.283,0.05-1.885
		c0.051-1.715,0.112-3.332,0.188-4.847c0.074-1.497,0.174-2.952,0.296-4.323c0.126-1.418,0.272-2.908,0.448-4.471l0.289-2.569
		l-4.824-3.075l-1.953,1.286c-0.881,0.578-1.807,1.293-2.755,2.125c-0.862,0.759-1.693,1.525-2.47,2.278
		c-0.776,0.755-1.479,1.47-2.086,2.126c-0.646,0.702-1.082,1.208-1.375,1.596l-0.105,0.146c-0.298,0.436-0.544,0.838-0.742,1.219
		c-0.251,0.476-0.459,0.994-0.626,1.549c-0.155,0.521-0.271,1.078-0.351,1.693c-0.065,0.508-0.113,1.092-0.145,1.785
		c-0.13,1.746-0.209,3.359-0.234,4.723l-0.018,0.469c-1.824,0.012-3.56,0.026-5.185,0.053c-0.128,0.002-0.255,0.004-0.38,0.006
		c1.011-1.518,2.014-3.008,3.002-4.46c2.318-3.444,4.5-6.781,6.488-9.919c2.03-3.207,3.866-6.319,5.457-9.252
		c1.656-3.055,2.996-6.049,3.982-8.899l0.965-2.793l-4.531-3.608l-1.951,0.807c-0.769,0.318-1.668,0.615-2.674,0.885
		c-1.119,0.3-2.32,0.597-3.563,0.881l-2.189,0.501l-0.633,2.283c-0.531,1.925-1.087,3.709-1.652,5.303
		c-0.549,1.553-1.187,3.109-1.894,4.624c-0.715,1.528-1.54,3.119-2.453,4.726c-0.944,1.661-2.062,3.524-3.315,5.532
		c-2.151,3.426-4.098,6.392-5.781,8.81c-1.77,2.531-3.268,4.692-4.497,6.488c-1.313,1.918-2.304,3.491-3.024,4.813
		c-1,1.827-1.485,3.493-1.485,5.092v4.377l4.106-0.396c2.459-0.231,5.809-0.414,9.959-0.532c3.223-0.093,6.889-0.148,10.938-0.173
		c-0.001,0.154-0.003,0.312-0.005,0.468c-0.012,1.725-0.03,3.516-0.057,5.377c-0.025,1.854-0.059,3.692-0.096,5.51
		c-0.039,1.805-0.082,3.397-0.133,4.789l-0.08,2.235l3.742,2.65l1.533-0.326c0.736-0.153,1.803-0.356,3.196-0.604
		c1.351-0.241,3.093-0.48,5.183-0.72l3.508-0.395l-0.139-3.738c-0.023-0.688-0.052-1.545-0.074-2.567
		c-0.024-1.021-0.045-2.134-0.057-3.334c-0.015-1.203-0.021-2.445-0.021-3.729v-5.457l2.366,0.055
		c1.632,0.037,2.879,0.115,3.701,0.23l2.971,0.416l5.404-15.305l-5.207-0.222C52.143,47.05,50.096,46.977,47.926,46.908z"/>
	<g>
		<path fill="#FFFFFF" stroke="#1B1B1C" stroke-width="8" stroke-miterlimit="10" d="M29.156,9.718
			c1.301-0.297,2.531-0.602,3.691-0.914c1.159-0.311,2.199-0.656,3.119-1.036l0.609,0.487c-0.919,2.653-2.154,5.415-3.71,8.284
			c-1.558,2.87-3.33,5.875-5.319,9.015c-1.988,3.141-4.133,6.416-6.427,9.827c-2.321,3.411-4.692,6.984-7.115,10.721l0.076,0.243
			c2.373-0.081,4.883-0.143,7.537-0.184c2.651-0.039,5.571-0.063,8.76-0.063c0.052-1.461,0.101-2.896,0.153-4.304
			c0.023-1.381,0.102-2.924,0.229-4.629c0.026-0.595,0.064-1.089,0.116-1.481s0.12-0.738,0.211-1.037
			c0.089-0.297,0.196-0.567,0.326-0.812c0.127-0.244,0.294-0.515,0.496-0.812c0.204-0.271,0.579-0.705,1.127-1.301
			c0.549-0.595,1.192-1.25,1.933-1.969c0.74-0.717,1.518-1.435,2.336-2.152c0.815-0.717,1.592-1.319,2.336-1.807l0.764,0.487
			c-0.178,1.598-0.332,3.12-0.459,4.567c-0.129,1.449-0.229,2.944-0.305,4.487s-0.141,3.188-0.189,4.935
			c-0.053,1.746-0.092,3.715-0.116,5.908c2.245,0.055,4.444,0.113,6.601,0.185c2.154,0.065,4.188,0.143,6.102,0.225l-2.523,7.146
			c-0.97-0.135-2.339-0.223-4.111-0.264c-1.773-0.041-3.846-0.089-6.219-0.144v9.543c0,1.299,0.006,2.56,0.02,3.774
			c0.012,1.22,0.031,2.351,0.059,3.394c0.023,1.041,0.051,1.914,0.075,2.619c-2.168,0.241-3.974,0.491-5.414,0.75
			c-1.438,0.258-2.542,0.467-3.308,0.631l-0.688-0.488c0.051-1.407,0.098-3.024,0.135-4.852c0.037-1.828,0.069-3.677,0.095-5.543
			c0.026-1.869,0.047-3.671,0.06-5.402c0.014-1.731,0.018-3.233,0.018-4.506c-5.635,0-10.577,0.062-14.822,0.183
			c-4.247,0.122-7.645,0.305-10.195,0.549c0-0.867,0.326-1.896,0.977-3.086c0.647-1.189,1.586-2.681,2.811-4.468
			c1.225-1.786,2.717-3.938,4.477-6.458c1.733-2.49,3.697-5.482,5.891-8.974c1.301-2.084,2.436-3.979,3.404-5.685
			s1.836-3.377,2.603-5.015c0.765-1.638,1.447-3.302,2.046-4.995C28.014,13.61,28.594,11.748,29.156,9.718z"/>
		<path fill="#28B500" d="M29.156,9.718c1.301-0.297,2.531-0.602,3.691-0.914c1.159-0.311,2.199-0.656,3.119-1.036l0.609,0.487
			c-0.919,2.653-2.154,5.415-3.71,8.284c-1.558,2.87-3.33,5.875-5.319,9.015c-1.988,3.141-4.133,6.416-6.427,9.827
			c-2.321,3.411-4.692,6.984-7.115,10.721l0.076,0.243c2.373-0.081,4.883-0.143,7.537-0.184c2.651-0.039,5.571-0.063,8.76-0.063
			c0.052-1.461,0.101-2.896,0.153-4.304c0.023-1.381,0.102-2.924,0.229-4.629c0.026-0.595,0.064-1.089,0.116-1.481
			s0.12-0.738,0.211-1.037c0.089-0.297,0.196-0.567,0.326-0.812c0.127-0.244,0.294-0.515,0.496-0.812
			c0.204-0.271,0.579-0.705,1.127-1.301c0.549-0.595,1.192-1.25,1.933-1.969c0.74-0.717,1.518-1.435,2.336-2.152
			c0.815-0.717,1.592-1.319,2.336-1.807l0.764,0.487c-0.178,1.598-0.332,3.12-0.459,4.567c-0.129,1.449-0.229,2.944-0.305,4.487
			s-0.141,3.188-0.189,4.935c-0.053,1.746-0.092,3.715-0.116,5.908c2.245,0.055,4.444,0.113,6.601,0.185
			c2.154,0.065,4.188,0.143,6.102,0.225l-2.523,7.146c-0.97-0.135-2.339-0.223-4.111-0.264c-1.773-0.041-3.846-0.089-6.219-0.144
			v9.543c0,1.299,0.006,2.56,0.02,3.774c0.012,1.22,0.031,2.351,0.059,3.394c0.023,1.041,0.051,1.914,0.075,2.619
			c-2.168,0.241-3.974,0.491-5.414,0.75c-1.438,0.258-2.542,0.467-3.308,0.631l-0.688-0.488c0.051-1.407,0.098-3.024,0.135-4.852
			c0.037-1.828,0.069-3.677,0.095-5.543c0.026-1.869,0.047-3.671,0.06-5.402c0.014-1.731,0.018-3.233,0.018-4.506
			c-5.635,0-10.577,0.062-14.822,0.183c-4.247,0.122-7.645,0.305-10.195,0.549c0-0.867,0.326-1.896,0.977-3.086
			c0.647-1.189,1.586-2.681,2.811-4.468c1.225-1.786,2.717-3.938,4.477-6.458c1.733-2.49,3.697-5.482,5.891-8.974
			c1.301-2.084,2.436-3.979,3.404-5.685s1.836-3.377,2.603-5.015c0.765-1.638,1.447-3.302,2.046-4.995
			C28.014,13.61,28.594,11.748,29.156,9.718z"/>
	</g>
</g>
</svg>
