<?xml version="1.0" encoding="utf-8"?>
<!-- Generator: Adobe Illustrator 16.0.0, SVG Export Plug-In . SVG Version: 6.00 Build 0)  -->
<!DOCTYPE svg PUBLIC "-//W3C//DTD SVG 1.1//EN" "http://www.w3.org/Graphics/SVG/1.1/DTD/svg11.dtd">
<svg version="1.1" id="Layer_1" xmlns="http://www.w3.org/2000/svg" xmlns:xlink="http://www.w3.org/1999/xlink" x="0px" y="0px"
	 width="61.494px" height="40px" viewBox="0 0 61.494 40" enable-background="new 0 0 61.494 40" xml:space="preserve">
<g>
	<g>
		<path fill="#559331" d="M48.328,32.127c-0.982-0.674-0.915-2.078,0.902-2.559c3.735-0.965,7.188-2.279,10.735-3.486
			c-0.079-0.184-0.187-0.363-0.313-0.529c-4.463-0.01-8.939,0.516-13.078,1.545c-0.103,0.018-0.193,0.049-0.305,0.07
			c-1.246,0.307-2.174-0.098-2.557-0.68c-0.425-0.527-0.371-1.209,0.219-1.68c-1.048-0.828-0.476-2.391,1.741-2.391
			c0.029,0,0.045,0.002,0.074,0.002c-0.041-0.008-0.082-0.018-0.122-0.035c-1.574-0.346-1.853-1.68-0.851-2.374
			c0.003-0.007,0.004-0.01,0.019-0.01c0-0.005,0.007-0.005,0.012-0.01c0.004-0.008,0.008-0.01,0.013-0.015
			c3.319-2.552,7.746-4.331,12.227-6.02c-0.041-0.365-0.219-0.736-0.517-1.082c-3.059,0.508-6.166,0.875-9.333,1.078
			c-1.826,0.115-2.523-0.927-2.113-1.794c-0.955-0.29-1.699-1.042-1.27-1.701c0.392-0.608,0.808-1.195,1.259-1.763
			c-2.425,0.779-4.697,1.748-6.959,2.691c-0.933,0.391-1.841,0.283-2.483-0.055c-0.015,0.046-0.035,0.086-0.055,0.126
			c-0.026,0.033-0.053,0.059-0.068,0.089c-0.067,0.081-0.143,0.158-0.227,0.23c-0.023,0.018-0.036,0.037-0.063,0.053
			c-0.111,0.082-0.236,0.155-0.386,0.219c-0.037,0.016-0.079,0.031-0.119,0.049c-0.118,0.042-0.258,0.082-0.4,0.113
			c-0.052,0.009-0.097,0.022-0.16,0.027c-0.194,0.034-0.406,0.057-0.636,0.057c-0.184,0-0.346-0.009-0.501-0.026
			c-0.058-0.01-0.102-0.018-0.146-0.03c-0.106-0.018-0.2-0.029-0.302-0.058c-0.047-0.018-0.089-0.027-0.145-0.045
			c-0.08-0.03-0.16-0.055-0.23-0.09c-0.045-0.019-0.084-0.039-0.125-0.061c-0.067-0.033-0.135-0.07-0.186-0.108
			c-0.037-0.024-0.073-0.054-0.11-0.08c-0.047-0.038-0.087-0.078-0.14-0.123c-0.022-0.029-0.056-0.063-0.087-0.098
			c-0.033-0.04-0.063-0.081-0.084-0.121c-0.029-0.039-0.055-0.078-0.072-0.123c-0.02-0.03-0.032-0.067-0.045-0.104
			c-0.021-0.051-0.037-0.096-0.05-0.149c-0.008-0.02-0.008-0.039-0.009-0.059c-0.102-0.635,0.37-1.305,1.426-1.533
			c-0.455-0.451-0.559-1.047-0.067-1.504c0.803-0.745,1.668-1.462,2.487-2.209c-0.135-0.188-0.288-0.363-0.456-0.53
			c-1.758,0.491-3.434,1.068-4.833,1.89c-1.408,0.831-3.271,0.273-3.834-0.575c-0.847-0.049-1.644-0.357-1.96-1.011
			c-0.774-1.606-0.881-3.25-1.006-4.9c-0.736,3.593-2.388,7.074-3.16,10.673c-0.247,1.157-2.215,1.588-3.52,1.273
			c-0.033,0.131-0.066,0.265-0.081,0.412c-1.515-1.662-3.313-3.246-5.395-4.816C8.882,6.678,6.008,6.812,4.22,7.718
			c3.678,3.209,7.473,7.098,6.918,11.178c-0.122,0.919-1.348,1.388-2.513,1.391c0.297,0.446,0.586,0.885,0.887,1.329
			c-0.543-0.453-1.099-0.902-1.669-1.349c-0.041-0.035-0.097-0.055-0.137-0.082c-0.416-0.105-0.765-0.279-0.981-0.526
			c-2.024-0.814-4.759-0.509-6.258,0.438c3.59,1.968,6.689,4.212,7.247,7.318c0.127,0.703-0.447,1.129-1.234,1.307
			c0.279,0.246,0.559,0.5,0.831,0.754c-0.438,0.016-0.884,0.043-1.322,0.049c-1.572,0.037-3.063-0.158-4.538-0.316
			c5.539,2.01,9.843,6.855,13.564,9.264c0.325,0.203,0.502,0.43,0.593,0.656c1.695,0.334,3.285-0.162,4.236-1.023
			c0.962,0.221,1.988,0.291,2.913,0.152c2.076,1.385,6.609,1.699,8.42-0.488c0.045-0.053,0.095-0.113,0.14-0.168
			c1.423,0.396,3.126,0.459,4.556,0.037c-0.276-0.695,0.159-1.461,1.573-1.678c4.159-0.621,8.374-1.064,12.604-1.191
			c-0.454-0.141-0.907-0.289-1.378-0.414C46.996,33.872,47.254,32.743,48.328,32.127z"/>
		<g>
			<path fill="#3F632C" d="M44.627,11.971c-0.079-0.097-0.2-0.169-0.344-0.208C44.389,11.838,44.507,11.91,44.627,11.971z"/>
			<path fill="#3F632C" d="M32.229,9.377C32.22,9.4,32.216,9.43,32.208,9.453c0.036,0.06,0.037,0.133,0.008,0.208
				c0.151-0.069,0.302-0.134,0.489-0.175c-0.102-0.093-0.157-0.198-0.224-0.298C32.416,9.269,32.337,9.34,32.229,9.377z"/>
			<path fill="#3F632C" d="M44.282,11.763c-0.119-0.084-0.229-0.177-0.314-0.282c-0.021,0.083-0.022,0.158-0.042,0.234
				C44.045,11.708,44.167,11.728,44.282,11.763z"/>
			<path fill="#3F632C" d="M33.123,7.266c0.038,0.078,0.044,0.16-0.007,0.239c-0.054,0.064-0.102,0.13-0.15,0.191
				c0.238-0.223,0.474-0.436,0.727-0.648c-0.15,0.06-0.304,0.115-0.464,0.171C33.193,7.237,33.158,7.255,33.123,7.266z"/>
			<path fill="#3F632C" d="M49.564,29.383c-0.04,0.033-0.081,0.07-0.152,0.102c-0.221,0.102-0.371,0.15-0.531,0.213
				c-0.004,0.004-0.007,0.008-0.022,0.012c0.13-0.049,0.23-0.104,0.372-0.141c0.328-0.08,0.636-0.186,0.947-0.268
				c-0.188,0.029-0.38,0.059-0.57,0.074C49.596,29.375,49.576,29.377,49.564,29.383z"/>
			<path fill="#3F632C" d="M19.704,27.583c-0.712-0.641-1.998-1.055-3.078-1.549c1.381,1.191,2.308,2.631,3.182,3.986
				c0.339,0.523,0.67,0.988,0.974,1.465c0.204,0.535,0.463,1.242,0.854,1.809C22.747,31.493,21.338,29.067,19.704,27.583z"/>
			<path fill="#3F632C" d="M22.427,18.146c0.021,0.283,0.026,0.568,0.004,0.866c-0.036,0.514,0.042,1.029,0.187,1.543
				c-0.021,0.178-0.038,0.348-0.083,0.518c-0.027,0.105-0.053,0.205-0.084,0.299c1.434-0.99,2.291-2.447,1.51-3.68
				c-0.669-1.054-1.856-1.923-2.969-2.81c0.002,0.002,0,0.01,0.002,0.013C21.604,15.894,22.112,17.008,22.427,18.146z"/>
			<path fill="#3F632C" d="M36.538,21.702c-1.783,0.561-3,1.42-3.987,2.705c-0.78,1-1.317,1.916-1.186,3.045
				c0.012,0.076,0.021,0.146,0.025,0.217c0.002-0.023,0.01-0.039,0.022-0.064c0.323-0.342,0.605-0.693,0.847-1.061
				c0.53-0.379,0.63-0.887,0.929-1.365c0.59-0.951,1.265-1.668,2.25-2.469c0.15-0.131,0.154-0.254,0.078-0.367
				c0.065-0.049,0.129-0.109,0.182-0.162C35.97,22.024,36.259,21.86,36.538,21.702z"/>
			<path fill="#3F632C" d="M35.873,37.637c-0.068-0.172-0.096-0.34-0.068-0.51c-0.251,0.252-0.52,0.51-0.83,0.699
				C35.278,37.768,35.58,37.721,35.873,37.637z"/>
			<path fill="#3F632C" d="M3.572,22.012c0.153,0.109,0.315,0.221,0.466,0.334c-0.096-0.119-0.204-0.238-0.315-0.355
				C3.678,22,3.625,22.006,3.572,22.012z"/>
			<path fill="#3F632C" d="M54.446,27.545c-1.554,0.232-2.994,0.652-4.531,0.932c-0.161,0.029-0.31,0.049-0.46,0.053
				c-0.003,0-0.005,0-0.007,0.002c-0.113,0.037-0.234,0.07-0.376,0.086c-0.485,0.512-0.9,1.066-1.05,1.646
				c0.189-0.217,0.457-0.41,0.834-0.555c0.017-0.004,0.02-0.008,0.021-0.012c0.16-0.059,0.311-0.111,0.531-0.213
				c0.071-0.031,0.114-0.068,0.152-0.102c0.012-0.006,0.031-0.008,0.043-0.008c0.189-0.016,0.382-0.045,0.57-0.078
				c2.036-0.564,3.997-1.217,5.94-1.889C55.563,27.417,55.004,27.456,54.446,27.545z"/>
			<path fill="#3F632C" d="M41.898,34.999c-2.307,0.119-3.711,0.523-4.964,1.098c0.156-0.049,0.315-0.105,0.509-0.139
				c2.888-0.426,5.778-0.762,8.689-0.982C44.729,34.93,43.32,34.922,41.898,34.999z"/>
			<path fill="#3F632C" d="M47.252,16.462c-2.517,1.169-3.519,2.454-3.429,4.423c0.041,0.885,0.871,1.168,1.731,1.537
				c0.04-0.002,0.076-0.006,0.118-0.006c0.027,0,0.045,0.002,0.072,0.002l0,0c-0.041-0.008-0.081-0.016-0.121-0.035
				c-1.574-0.344-1.852-1.682-0.851-2.372c0.002-0.007,0.004-0.01,0.02-0.013c0-0.002,0.007-0.005,0.011-0.007
				c0.004-0.008,0.007-0.013,0.012-0.015c3.084-2.367,7.121-4.065,11.256-5.649C52.904,14.612,49.76,15.29,47.252,16.462z"/>
			<path fill="#3F632C" d="M31.117,37.391c0.067,0.1,0.115,0.184,0.143,0.285c0.018-0.027,0.04-0.057,0.058-0.076
				c0.012,0.004,0.027,0.006,0.035,0.008c0.034-0.039,0.053-0.1,0.053-0.145c0.018-0.07-0.002-0.143-0.04-0.203
				c0.398-0.492,0.701-1.084,0.814-1.656c0.488-0.438,1.017-0.9,1.389-1.393c0.208-0.199,0.432-0.412,0.627-0.635
				c0.288-0.311,0.744-0.545,0.943-0.875c0.974-0.615,1.907-1.279,2.626-1.973l0,0c0.131-0.105,0.245-0.217,0.36-0.326
				C34.041,31.53,29.164,34.881,31.117,37.391z"/>
			<path fill="#3F632C" d="M36.538,21.702c-1.783,0.561-3,1.42-3.987,2.705c-0.78,1-1.317,1.916-1.186,3.045
				c0.012,0.076,0.021,0.146,0.025,0.217c0.002-0.023,0.01-0.039,0.022-0.064c0.323-0.342,0.605-0.693,0.847-1.061
				c0.53-0.379,0.63-0.887,0.929-1.365c0.59-0.951,1.265-1.668,2.25-2.469c0.15-0.131,0.154-0.254,0.078-0.367
				c0.065-0.049,0.129-0.109,0.182-0.162C35.97,22.024,36.259,21.86,36.538,21.702z"/>
			<path fill="#3F632C" d="M42.756,12.964c0.695-0.189,1.407-0.369,2.125-0.523c-0.034-0.039-0.048-0.079-0.111-0.115
				c-0.01-0.092-0.034-0.184-0.071-0.264c-0.012-0.035-0.044-0.059-0.071-0.09c-0.12-0.062-0.235-0.133-0.344-0.208
				c-0.114-0.035-0.237-0.058-0.356-0.048c0.019-0.076,0.02-0.151,0.043-0.234c-0.287-0.31-0.38-0.68-0.159-1.024
				c0.151-0.229,0.315-0.438,0.471-0.665c0-0.054-0.031-0.096-0.049-0.148c-0.036,0.023-0.063,0.053-0.104,0.075
				c-1.855,1.191-2.804,2.698-3.679,4.23C41.147,13.571,41.863,13.202,42.756,12.964z"/>
			<path fill="#3F632C" d="M29.404,9.322c-0.603,0.828-0.856,1.771-1.082,2.718c0.002-0.012,0.008-0.015,0.01-0.02
				c0.065-0.029,0.123-0.053,0.169-0.094c0.359-0.304,0.788-0.64,1.106-0.999c0.044-0.042,0.085-0.092,0.135-0.134
				c0.741-0.283,1.673-0.659,1.68-0.657c0.04,0.002,0.079,0,0.116-0.001c0.154-0.189,0.386-0.344,0.679-0.473
				c0.03-0.075,0.027-0.146-0.008-0.208c0.008-0.022,0.013-0.053,0.021-0.075c0.108-0.038,0.188-0.109,0.253-0.19
				c-0.235-0.396-0.23-0.843,0.156-1.205c0.107-0.096,0.22-0.191,0.327-0.286c0.049-0.061,0.098-0.127,0.151-0.191
				c0.052-0.079,0.045-0.162,0.008-0.239c0.036-0.011,0.068-0.029,0.104-0.046c0.16-0.056,0.313-0.111,0.464-0.171
				c0.294-0.259,0.569-0.51,0.861-0.767C32.338,6.808,30.368,7.995,29.404,9.322z"/>
			<path fill="#3F632C" d="M11.134,18.896c-0.075,0.569-0.572,0.955-1.213,1.177c1.185-0.137,2.234-0.19,2.623-1.264
				c0.492-1.363,0.756-2.988,0.119-4.361c-0.648-1.404-4.845-5.522-7.408-6.311c-0.271-0.01-0.513-0.059-0.715-0.133
				C8.108,11.158,11.671,14.935,11.134,18.896z"/>
			<path fill="#3F632C" d="M7.688,27.885c2.067-0.756,1.586-2.779,0.473-4.07c-1.538-1.785-4.254-3.401-7.571-3.646
				c1.059,0.585,2.07,1.197,2.982,1.843C3.625,22.006,3.678,22,3.723,21.991c0.111,0.117,0.219,0.236,0.315,0.355
				c1.909,1.438,3.315,3.082,3.676,5.068C7.746,27.59,7.731,27.745,7.688,27.885z"/>
			<path fill="#3F632C" d="M19.704,27.583c-0.712-0.641-1.998-1.055-3.078-1.549c1.381,1.191,2.308,2.631,3.182,3.986
				c0.339,0.523,0.67,0.988,0.974,1.465c0.204,0.535,0.463,1.242,0.854,1.809C22.747,31.493,21.338,29.067,19.704,27.583z"/>
			<path fill="#3F632C" d="M22.427,18.146c0.021,0.283,0.026,0.568,0.004,0.866c-0.036,0.514,0.042,1.029,0.187,1.543
				c-0.021,0.178-0.038,0.348-0.083,0.518c-0.027,0.105-0.053,0.205-0.084,0.299c1.434-0.99,2.291-2.447,1.51-3.68
				c-0.669-1.054-1.856-1.923-2.969-2.81c0.002,0.002,0,0.01,0.002,0.013C21.604,15.894,22.112,17.008,22.427,18.146z"/>
			<path fill="#3F632C" d="M10.467,33.67c-1.042-0.82-2.016-1.734-3.292-2.416c-0.826-0.443-1.896-0.674-2.942-0.912
				c-0.021,0.037-0.06,0.061-0.062,0.113c3.911,2.139,7.164,5.389,10.059,7.461C14.264,36.442,11.773,34.69,10.467,33.67z"/>
		</g>
		<g>
			<path fill="#3F632C" d="M25.718,30.877c0.924-1.689,0.111-3.428-2.536-4.746c-1.504-0.732-2.81-1.396-4.263-1.912
				C22.278,25.901,25.423,28.54,25.718,30.877z"/>
			<path fill="#3F632C" d="M18.459,33.272c-0.096-0.172-0.188-0.355-0.248-0.543c-0.391-1.205-1.98-1.928-3.832-2.105
				c-1.128-0.105-1.79,0.27-1.998,0.756C14.605,31.524,17.041,32.176,18.459,33.272z"/>
			<path fill="#3F632C" d="M44.916,29.293c-0.011-0.008-0.039-0.008-0.062-0.025c-1.229,0.137-2.291,0.406-2.96,1.172
				c-0.731,0.861-0.993,1.641-0.576,2.418c0.302,0.213,0.764,0.34,1.136,0.471c0.226,0.076,0.271,0.082,0.151,0.012
				c0.123,0.063,0.261,0.117,0.395,0.162c0.292,0.113,0.607,0.186,0.936,0.223c-1.177-1.432-0.729-3.301,1.354-4.289
				C45.139,29.409,45.021,29.36,44.916,29.293z"/>
			<path fill="#3F632C" d="M31.005,22.836c0.115,0.02,0.228,0.027,0.348,0.027c0.634,0,1.055-0.143,1.308-0.346
				c0.208-0.039,0.429-0.1,0.627-0.205c0.455-0.209,0.922-0.463,1.427-0.621c0.336-0.111,0.603-0.191,0.914-0.256
				c0.019-0.002,0.096-0.01,0.186-0.029c0.022,0,0.032,0.014,0.044,0.014c1.002,0.049,1.944-0.293,2.116-0.914
				C34.95,20.377,33.042,21.559,31.005,22.836z"/>
			<path fill="#3F632C" d="M26.704,20.412c0.051,0.072,0.068,0.135,0.072,0.206c0.51-1.841-0.607-3.95-2.76-5.27
				C25.384,16.825,25.583,18.807,26.704,20.412z"/>
			<path fill="#3F632C" d="M7.92,7.798c0.351,0.05,0.643,0.144,0.904,0.27c1.406,0.446,2.74,1.024,3.989,1.67
				c-0.62-0.516-1.251-1.036-1.931-1.548C9.296,6.997,7.193,6.852,5.493,7.286C6.327,7.412,7.137,7.584,7.92,7.798z"/>
			<path fill="#3F632C" d="M22.076,5.184c0.799,0.738,1.978,1.193,3.134,1.679c-0.179-0.146-0.365-0.295-0.508-0.455
				c-0.116-0.132-0.198-0.263-0.286-0.397c-0.153-0.13-0.284-0.28-0.375-0.463c-0.774-1.605-0.881-3.25-1.006-4.898
				c-0.302,1.469-0.755,2.915-1.243,4.361C21.9,5.05,21.997,5.107,22.076,5.184z"/>
			<path fill="#3F632C" d="M32.853,13.021c2.286,0.153,4.269-0.295,6.174-1.048c0.674-0.258,0.803-0.778,0.609-1.222
				c-0.505,0.21-1.024,0.422-1.525,0.633c-0.935,0.391-1.841,0.283-2.483-0.055c-0.016,0.046-0.036,0.086-0.056,0.126
				c-0.026,0.033-0.053,0.059-0.067,0.089c-0.068,0.081-0.144,0.158-0.227,0.23c-0.023,0.018-0.036,0.037-0.063,0.053
				c-0.111,0.082-0.237,0.155-0.385,0.219c-0.038,0.016-0.079,0.031-0.119,0.049c-0.119,0.042-0.258,0.082-0.4,0.113
				c-0.053,0.009-0.098,0.022-0.16,0.027c-0.195,0.034-0.407,0.057-0.638,0.057c-0.183,0-0.346-0.009-0.501-0.026
				c-0.058-0.01-0.101-0.018-0.146-0.03c-0.104-0.018-0.2-0.029-0.3-0.058c-0.047-0.018-0.091-0.027-0.146-0.045
				c-0.08-0.03-0.159-0.055-0.23-0.09c-0.044-0.019-0.083-0.039-0.125-0.061c-0.068-0.033-0.135-0.07-0.186-0.108
				c-0.038-0.024-0.073-0.054-0.109-0.08c-0.048-0.038-0.089-0.078-0.14-0.123c-0.023-0.029-0.057-0.063-0.087-0.098
				c-0.035-0.04-0.065-0.081-0.085-0.121c-0.029-0.039-0.055-0.078-0.072-0.123c-0.021-0.03-0.031-0.067-0.046-0.104
				c-0.02-0.051-0.037-0.096-0.049-0.149v-0.001C30.632,11.761,31.145,12.906,32.853,13.021z"/>
			<path fill="#3F632C" d="M47.647,14.902c0.024,0,0.035-0.002,0.059-0.005c0.012,0.002,0.034,0.005,0.047,0.005
				c0.83,0,1.31-0.237,1.484-0.568c2.452,0.029,4.936-0.446,7.365-0.211c0.146-0.055,0.291-0.112,0.438-0.167
				c-0.041-0.365-0.219-0.736-0.517-1.082c-3.059,0.508-6.166,0.875-9.333,1.078c-0.923,0.059-1.56-0.184-1.905-0.55
				C45.32,14.096,46.243,14.902,47.647,14.902z"/>
			<path fill="#3F632C" d="M50.663,26.799c2.391-0.186,4.657-0.182,6.992,0.082c0.766-0.268,1.544-0.537,2.311-0.799
				c-0.079-0.184-0.187-0.363-0.313-0.529c-4.463-0.01-8.939,0.516-13.078,1.545c-0.08,0.016-0.173,0.041-0.257,0.053
				C48.028,27.11,49.949,26.85,50.663,26.799z"/>
			<path fill="#3F632C" d="M44.916,29.293c-0.011-0.008-0.039-0.008-0.062-0.025c-1.229,0.137-2.291,0.406-2.96,1.172
				c-0.731,0.861-0.993,1.641-0.576,2.418c0.302,0.213,0.764,0.34,1.136,0.471c0.226,0.076,0.271,0.082,0.151,0.012
				c0.123,0.063,0.261,0.117,0.395,0.162c0.292,0.113,0.607,0.186,0.936,0.223c-1.177-1.432-0.729-3.301,1.354-4.289
				C45.139,29.409,45.021,29.36,44.916,29.293z"/>
			<path fill="#3F632C" d="M25.718,30.877c0.924-1.689,0.111-3.428-2.536-4.746c-1.504-0.732-2.81-1.396-4.263-1.912
				C22.278,25.901,25.423,28.54,25.718,30.877z"/>
			<path fill="#3F632C" d="M26.704,20.412c0.051,0.072,0.068,0.135,0.072,0.206c0.51-1.841-0.607-3.95-2.76-5.27
				C25.384,16.825,25.583,18.807,26.704,20.412z"/>
			<path fill="#3F632C" d="M31.005,22.836c0.115,0.02,0.228,0.027,0.348,0.027c0.634,0,1.055-0.143,1.308-0.346
				c0.208-0.039,0.429-0.1,0.627-0.205c0.455-0.209,0.922-0.463,1.427-0.621c0.336-0.111,0.603-0.191,0.914-0.256
				c0.019-0.002,0.096-0.01,0.186-0.029c0.022,0,0.032,0.014,0.044,0.014c1.002,0.049,1.944-0.293,2.116-0.914
				C34.95,20.377,33.042,21.559,31.005,22.836z"/>
			<path fill="#3F632C" d="M6.78,29.87c0.325,0.117,0.705,0.191,1.136,0.191c1.515,0,1.839-0.791,1.393-1.473
				c-0.104-0.322-0.409-0.643-0.862-0.84c-0.232-0.105-0.479-0.195-0.738-0.275c0.092,0.654-0.466,1.074-1.229,1.248
				c0.279,0.246,0.56,0.5,0.83,0.754c-0.438,0.016-0.883,0.043-1.322,0.049c-0.107,0.002-0.208-0.004-0.309,0
				c0.18,0.043,0.367,0.105,0.504,0.16C6.369,29.762,6.572,29.827,6.78,29.87z"/>
			<path fill="#3F632C" d="M18.459,33.272c-0.096-0.172-0.188-0.355-0.248-0.543c-0.391-1.205-1.98-1.928-3.832-2.105
				c-1.128-0.105-1.79,0.27-1.998,0.756C14.605,31.524,17.041,32.176,18.459,33.272z"/>
		</g>
	</g>
	<path fill="#BE1E2D" d="M32.071,14.483c-4.45,0-2.76,6.57,1.322,6.57C37.851,21.053,36.151,14.483,32.071,14.483z"/>
	<path fill="#BE1E2D" d="M14.707,21.403c-4.451,0-2.758,6.572,1.322,6.572C20.484,27.975,18.788,21.403,14.707,21.403z"/>
	<path fill="#BE1E2D" d="M26.245,28.93c-4.455,0-2.757,6.566,1.322,6.566C32.021,35.497,30.324,28.93,26.245,28.93z"/>
	<path fill="#BE1E2D" d="M16.774,7.926c-4.455,0-2.758,6.567,1.325,6.567C22.546,14.496,20.855,7.926,16.774,7.926z"/>
	<path fill="#BE1E2D" d="M7.081,25.143c-2.674,0-1.656,3.938,0.796,3.938C10.545,29.081,9.526,25.143,7.081,25.143z"/>
	<path fill="#BE1E2D" d="M29.542,8.755c-2.67,0-1.653,3.943,0.791,3.943C33.011,12.699,31.991,8.755,29.542,8.755z"/>
	<path fill="#BE1E2D" d="M43.022,22.719c-2.674,0-1.656,3.936,0.794,3.936C46.493,26.655,45.476,22.719,43.022,22.719z"/>
	<path fill="#D67884" d="M18.616,9.265c-0.185-0.099-0.329-0.131-0.537-0.165c-0.208-0.028-0.38-0.213-0.603-0.246
		c-0.195-0.025-0.401,0.05-0.563,0.171c-0.188,0.089-0.262,0.274-0.249,0.471c-0.024,0.464,0.419,0.808,0.811,0.792
		c0.037,0.02,0.064,0.054,0.109,0.072c0.202,0.082,0.404,0.015,0.606,0.126C18.988,10.912,19.37,9.676,18.616,9.265z"/>
	<path fill="#D67884" d="M29.807,9.337c-0.047,0-0.079,0.02-0.119,0.024c-0.04-0.005-0.078-0.024-0.118-0.024
		c-0.899,0-0.559,1.313,0.262,1.313c0.047,0,0.079-0.013,0.119-0.022c0.04,0.011,0.078,0.022,0.12,0.022
		C30.965,10.65,30.626,9.337,29.807,9.337z"/>
	<path fill="#D67884" d="M33.059,15.703c-0.133-0.167-0.336-0.295-0.577-0.295c-0.028,0-0.038,0.015-0.064,0.018
		c-0.015-0.002-0.037-0.018-0.055-0.018c-0.819,0-0.599,1.082,0.058,1.277c0.13,0.095,0.279,0.158,0.445,0.158
		C33.553,16.843,33.504,16.054,33.059,15.703z"/>
	<path fill="#D67884" d="M42.92,23.428c-0.884,0-0.544,1.307,0.265,1.307C44.081,24.735,43.741,23.428,42.92,23.428z"/>
	<path fill="#D67884" d="M28.212,29.786c-0.475-0.197-0.966-0.225-1.457-0.367c-0.861-0.23-1.268,0.986-0.429,1.229
		c0.486,0.129,0.996,0.162,1.457,0.357C28.612,31.368,29.009,30.129,28.212,29.786z"/>
	<path fill="#D67884" d="M15.945,22.793c-0.1-0.109-0.23-0.193-0.414-0.221c0.034,0.006,0.06,0.021,0.094,0.023
		c-0.222-0.193-0.449-0.209-0.628-0.113c-0.35,0.053-0.461,0.352-0.383,0.652c0.014,0.174,0.089,0.344,0.259,0.492
		c0.182,0.158,0.341,0.229,0.581,0.262c0.007,0,0.017-0.004,0.025-0.004c0.112,0.072,0.241,0.123,0.39,0.123
		C16.614,24.008,16.491,23.088,15.945,22.793z"/>
	<path fill="#D67884" d="M7.346,25.971c-0.891,0-0.55,1.318,0.263,1.318C8.502,27.292,8.161,25.971,7.346,25.971z"/>
</g>
</svg>
