<?xml version="1.0" encoding="UTF-8" standalone="no"?>
<!-- Created with Inkscape (http://www.inkscape.org/) -->

<svg
   xmlns:dc="http://purl.org/dc/elements/1.1/"
   xmlns:cc="http://creativecommons.org/ns#"
   xmlns:rdf="http://www.w3.org/1999/02/22-rdf-syntax-ns#"
   xmlns:svg="http://www.w3.org/2000/svg"
   xmlns="http://www.w3.org/2000/svg"
   version="1.1"
   width="77.485001"
   height="99.060997"
   viewBox="0 0 77.485 99.061"
   id="Layer_1"
   xml:space="preserve"><metadata
   id="metadata55"><rdf:RDF><cc:Work
       rdf:about=""><dc:format>image/svg+xml</dc:format><dc:type
         rdf:resource="http://purl.org/dc/dcmitype/StillImage" /><dc:title></dc:title></cc:Work></rdf:RDF></metadata><defs
   id="defs53"><linearGradient
   id="linearGradient4213"><stop
     id="stop4215"
     style="stop-color:#d00000;stop-opacity:1"
     offset="0" /></linearGradient><linearGradient
   id="linearGradient4207"><stop
     id="stop4209"
     style="stop-color:#d00000;stop-opacity:1"
     offset="0" /></linearGradient>
		
		
		
		
		
		
		
		
	
	
	
</defs>
<path
   d="m 42.940792,94.814024 c 0.0011,0 0.0032,-0.0011 0.0055,-0.0011 0.479705,-0.168279 0.994375,-0.367154 1.540736,-0.597717 0.07758,-0.03278 0.156259,-0.06666 0.234935,-0.10053 0.159537,-0.06884 0.317981,-0.137682 0.480796,-0.211988 0.214173,-0.09834 0.432718,-0.20106 0.655633,-0.308147 0.12894,-0.06338 0.258974,-0.128941 0.3901,-0.195596 0.171559,-0.08523 0.344208,-0.174837 0.519043,-0.266624 0.111457,-0.059 0.219637,-0.114737 0.332187,-0.175929 0.275366,-0.149703 0.557287,-0.308147 0.841395,-0.474241 0.08851,-0.05136 0.178113,-0.105993 0.266623,-0.158444 0.274274,-0.163908 0.551824,-0.335465 0.833746,-0.513578 0.04153,-0.02622 0.08086,-0.05027 0.122385,-0.07649 0.336558,-0.216358 0.678579,-0.446923 1.023879,-0.686228 0.04481,-0.03169 0.09069,-0.06446 0.13659,-0.09617 0.72666,-0.509208 1.468617,-1.071959 2.223687,-1.694809 0.0077,-0.0065 0.0153,-0.01311 0.02294,-0.01967 10.141502,-8.37243 22.301296,-27.389044 22.301296,-70.472826 l -4.571942,-1.26537 c 0,0.0011 -0.0011,0.0011 -0.0021,0.0011 L 57.284933,13.901352 51.821331,9.9391478 c 0,-0.00111 0.0011,-0.00111 0.0011,-0.00212 L 49.510227,8.2618224 c 0,0 -0.0011,0 -0.0011,0.00109 L 39.08786,0.70675309 21.224067,13.902445 3.6367304,18.765052 c 0,8.256595 0.4512936,15.617159 1.2446085,22.199707 0.00437,0.03934 0.00874,0.07758 0.014206,0.115829 0.078676,0.652354 0.1606298,1.298153 0.2480474,1.935208 0.020762,0.151889 0.038245,0.309241 0.059006,0.461128 0.00109,-0.0011 0.00219,-0.0021 0.00328,-0.0032 3.8332601,27.763804 13.9824477,40.824 22.2412277,46.944326 0.01312,0.0099 0.02622,0.01967 0.03934,0.02841 4.494359,3.320777 8.418318,4.590518 10.450778,5.060388 0,0.0011 0.0011,0.0011 0.0021,0.0011 0.330001,0.07541 0.609738,0.13222 0.833746,0.171557 0.0142,0.0021 0.02731,0.0043 0.04153,0.0065 0.102715,0.01858 0.453479,0.08523 0.453479,0.08523 0,0 0.349671,-0.07103 0.355133,-0.07212 0.623944,-0.10053 1.784414,-0.346391 3.3175,-0.885103 z"
   id="path3"
   style="fill:#ffffff;fill-opacity:1;stroke:#ffffff;stroke-width:1.09272039;stroke-linecap:butt;stroke-miterlimit:10;stroke-opacity:1;stroke-dasharray:none;marker-start:none" />

</svg>