<?xml version="1.0" encoding="utf-8"?>
<!-- Generator: Adobe Illustrator 16.0.0, SVG Export Plug-In . SVG Version: 6.00 Build 0)  -->
<!DOCTYPE svg PUBLIC "-//W3C//DTD SVG 1.1//EN" "http://www.w3.org/Graphics/SVG/1.1/DTD/svg11.dtd">
<svg version="1.1"
	 id="Layer_1" sodipodi:docname="pointer.svg" inkscape:version="0.48.2 r9819" xmlns:dc="http://purl.org/dc/elements/1.1/" xmlns:cc="http://creativecommons.org/ns#" xmlns:rdf="http://www.w3.org/1999/02/22-rdf-syntax-ns#" xmlns:svg="http://www.w3.org/2000/svg" xmlns:sodipodi="http://sodipodi.sourceforge.net/DTD/sodipodi-0.dtd" xmlns:inkscape="http://www.inkscape.org/namespaces/inkscape"
	 xmlns="http://www.w3.org/2000/svg" xmlns:xlink="http://www.w3.org/1999/xlink" x="0px" y="0px" width="97.965px"
	 height="117.961px" viewBox="0 0 97.965 117.961" enable-background="new 0 0 97.965 117.961" xml:space="preserve">
<sodipodi:namedview  id="namedview51" inkscape:current-layer="Layer_1" inkscape:window-y="-8" inkscape:window-x="-8" inkscape:window-height="777" inkscape:window-width="1280" inkscape:pageshadow="2" inkscape:pageopacity="0" guidetolerance="10" inkscape:cx="38.7425" inkscape:zoom="2.3823705" gridtolerance="10" objecttolerance="10" bordercolor="#666666" borderopacity="1" pagecolor="#ffffff" showgrid="false" inkscape:cy="49.530499" inkscape:window-maximized="1">
	</sodipodi:namedview>
<g>
	<g>
		<path d="M49.054,103.657l-2.619-0.513c-0.119-0.028-0.257-0.065-0.407-0.108l-0.229-0.068c-0.916-0.27-1.884-0.618-2.855-1.032
			c-0.309-0.131-0.583-0.254-0.862-0.386l-0.109-0.051c-0.28-0.131-0.568-0.272-0.861-0.422l-0.09-0.047
			c-1.328-0.683-2.634-1.472-3.886-2.349L37.01,98.62l-0.531-0.414c-0.214-0.158-0.433-0.322-0.65-0.492L35.3,97.307
			c-0.283-0.229-0.566-0.467-0.854-0.709l-0.453-0.395c-0.317-0.281-0.643-0.574-0.968-0.881l-0.383-0.371
			c-0.276-0.271-0.553-0.543-0.826-0.826l-0.339-0.35c-0.338-0.355-0.676-0.729-1.016-1.113L30.1,92.245
			c-0.349-0.404-0.689-0.818-1.034-1.248L28.759,90.6c-0.313-0.397-0.621-0.813-0.931-1.24l-0.209-0.282
			c-0.355-0.498-0.705-1.019-1.054-1.543l-0.291-0.447c-0.343-0.532-0.685-1.084-1.021-1.653l-0.235-0.41
			c-0.326-0.563-0.646-1.14-0.962-1.729l-0.105-0.197c-0.351-0.662-0.684-1.336-1.011-2.021l-0.224-0.47
			c-0.318-0.682-0.633-1.383-0.941-2.106l-0.184-0.438c-0.306-0.734-0.604-1.482-0.896-2.261l-0.054-0.139
			c-0.303-0.813-0.592-1.646-0.875-2.498l-0.171-0.519c-0.271-0.838-0.537-1.696-0.792-2.586l-0.145-0.514
			c-0.258-0.908-0.508-1.84-0.744-2.805l-0.028-0.117c-0.229-0.936-0.455-1.941-0.674-2.975l-0.123-0.586
			c-0.207-1.002-1.041-5.842-1.213-7.089l-0.271-2.101c-0.153-1.29-0.285-2.58-0.401-3.886l-0.101-1.075
			c-0.086-1.04-0.158-2.092-0.226-3.147c-0.23-3.643-0.351-7.329-0.351-10.953v-3.805l17.363-4.802l17.16-12.559l17.161,12.56
			l17.363,4.802v3.805c0,6.737-0.359,13.134-1.068,19.013c-0.11,0.852-0.206,1.583-0.354,2.245c-0.064,0.556-0.301,2.42-0.473,3.434
			l-0.06,0.354c-0.188,1.086-0.394,2.146-0.604,3.184l-0.096,0.463c-0.213,1.012-0.438,1.99-0.667,2.945l-0.116,0.477
			c-0.236,0.951-0.479,1.879-0.736,2.777l-0.119,0.416c-0.264,0.906-0.532,1.803-0.813,2.664l-0.09,0.264
			c-0.291,0.881-0.586,1.729-0.894,2.543l-0.041,0.115c-0.31,0.823-0.623,1.607-0.938,2.377l-0.151,0.371
			c-0.308,0.723-0.615,1.409-0.933,2.086l-0.228,0.479c-0.307,0.644-0.612,1.261-0.93,1.861l-0.272,0.521
			c-0.31,0.574-0.618,1.143-0.938,1.688l-0.313,0.521c-0.299,0.498-0.596,0.981-0.896,1.451l-0.39,0.594
			c-0.252,0.383-0.5,0.742-0.748,1.1c-0.188,0.271-0.379,0.535-0.57,0.797c-0.225,0.309-0.45,0.605-0.676,0.896
			c-0.215,0.279-0.431,0.555-0.646,0.82c-0.213,0.264-0.434,0.524-0.649,0.785c-0.203,0.237-0.401,0.473-0.604,0.694
			c-0.205,0.229-0.404,0.451-0.604,0.668c-0.275,0.299-0.551,0.586-0.821,0.86l-0.087,0.089c-0.484,0.487-0.927,0.913-1.365,1.317
			c-3.054,2.799-6.322,4.924-9.748,6.349l-0.105,0.045c-0.24,0.098-0.477,0.188-0.7,0.272l-0.166,0.063
			c-0.207,0.074-0.42,0.152-0.624,0.227l-0.095,0.029c-0.617,0.209-1.158,0.369-1.63,0.492L49.054,103.657z M40.52,93.73
			c1.042,0.732,2.129,1.396,3.23,1.959c0.305,0.152,0.533,0.269,0.757,0.371l0.092,0.043c0.221,0.104,0.438,0.201,0.648,0.291
			c0.8,0.34,1.549,0.609,2.267,0.82l1.543,0.371l1.06-0.234c0.326-0.088,0.736-0.209,1.195-0.36
			c0.242-0.082,0.401-0.146,0.567-0.205l0.112-0.041c0.188-0.072,0.365-0.146,0.551-0.22l0.1-0.041
			c2.771-1.147,5.448-2.896,7.957-5.194c0.396-0.363,0.771-0.728,1.146-1.104l0.073-0.076c0.27-0.271,0.5-0.517,0.732-0.769
			c0.172-0.188,0.348-0.377,0.521-0.573c0.168-0.188,0.342-0.394,0.516-0.597c0.186-0.219,0.373-0.444,0.563-0.68
			c0.189-0.236,0.377-0.474,0.563-0.709c0.197-0.259,0.396-0.521,0.592-0.785c0.166-0.229,0.328-0.457,0.494-0.69
			c0.223-0.313,0.438-0.636,0.654-0.961l0.344-0.521c0.27-0.416,0.529-0.848,0.79-1.281l0.278-0.473
			c0.277-0.48,0.559-0.982,0.834-1.5l0.238-0.455c0.285-0.553,0.563-1.107,0.844-1.686l0.199-0.437
			c0.283-0.607,0.563-1.232,0.844-1.882l0.143-0.346c0.289-0.695,0.576-1.412,0.855-2.156l0.043-0.123
			c0.275-0.75,0.551-1.524,0.813-2.319l0.057-0.174c0.289-0.882,0.541-1.707,0.785-2.554l0.107-0.375
			c0.239-0.85,0.469-1.709,0.688-2.594l0.111-0.449c0.217-0.896,0.426-1.813,0.622-2.758l0.091-0.438
			c0.199-0.979,0.395-1.976,0.567-3l0.056-0.329c0.146-0.861,0.375-2.68,0.45-3.308l0.062-0.335c0.1-0.404,0.179-1.011,0.27-1.712
			c0.66-5.46,1.004-11.355,1.025-17.574L63.553,31.69L49.052,21.08l-14.5,10.611l-14.019,3.877c0.015,3.253,0.127,6.552,0.335,9.814
			c0.063,1.021,0.134,2.031,0.215,3.025l0.096,1.028c0.112,1.252,0.235,2.482,0.381,3.685l0.268,2.053
			c0.149,1.093,0.961,5.794,1.145,6.687l0.115,0.552c0.204,0.961,0.415,1.905,0.64,2.819c0.238,0.972,0.475,1.838,0.712,2.688
			l0.13,0.465c0.239,0.828,0.482,1.625,0.736,2.402l0.156,0.473c0.262,0.785,0.524,1.555,0.803,2.291l0.052,0.135
			c0.268,0.709,0.539,1.396,0.815,2.063l0.166,0.396c0.28,0.658,0.563,1.297,0.854,1.914l0.197,0.412
			c0.301,0.631,0.598,1.23,0.901,1.812l0.102,0.188c0.286,0.539,0.572,1.052,0.861,1.552l0.212,0.366
			c0.296,0.5,0.598,0.988,0.901,1.464l0.254,0.393c0.307,0.469,0.61,0.92,0.921,1.354l0.188,0.256
			c0.269,0.367,0.537,0.728,0.809,1.072l0.27,0.348c0.294,0.369,0.591,0.729,0.888,1.072l0.313,0.357
			c0.293,0.332,0.582,0.65,0.87,0.957l0.286,0.293c0.233,0.24,0.466,0.477,0.696,0.697l0.325,0.313
			c0.276,0.263,0.55,0.511,0.822,0.75l0.38,0.328c0.232,0.196,0.471,0.396,0.707,0.588l0.399,0.313
			c0.216,0.166,0.397,0.307,0.582,0.438L40.52,93.73z"/>
	</g>
	<g>
		<g>
			<g>
				<g>
					<g>
						<g>
							<g>
								<path fill="#7A7A7A" d="M19.69,34.62l14.24-3.85l15.125-10.83L64.18,30.77l14.237,3.85
									c-0.091,5.985-0.467,11.674-1.116,16.944l-0.289,2.213v0.003c-5.328,37.733-23.873,43.603-27.957,44.44
									c-4.083-0.84-22.627-6.705-27.956-44.44l-0.009-0.066c-0.047-0.35-0.262-1.975-0.282-2.146v-0.002
									C20.158,46.294,19.782,40.607,19.69,34.62z"/>
							</g>
						</g>
					</g>
				</g>
			</g>
			<g>
				<path fill="#D8AF03" d="M63.996,30.208L49.053,19.272L34.11,30.208L19.533,34.24c0,6.848,0.375,12.954,1.031,18.413
					c0.003,0.022,0.268,2.064,0.269,2.064c5.344,38.706,25.646,42.93,28.222,43.313c2.575-0.386,22.876-4.607,28.22-43.313
					c0.002,0,0.268-2.042,0.27-2.064c0.658-5.459,1.033-11.565,1.033-18.413L63.996,30.208z"/>
				<path fill="#FFD731" d="M36.28,91.032c1.412-9.166,7.959-56.872,8.973-68.978L34.11,30.208L19.533,34.24
					c0,6.848,0.375,12.954,1.031,18.413c0.003,0.022,0.268,2.064,0.269,2.064C23.549,74.391,30.128,85.15,36.28,91.032z"/>
				<path fill="#AF8D00" d="M63.996,30.208l-3.459-2.531c-2.708,22.523-5.128,47.671-8.221,69.47
					c7.061-4.701,21.604-18.131,24.955-42.429c0.002,0,0.268-2.042,0.27-2.064c0.658-5.459,1.033-11.565,1.033-18.413L63.996,30.208
					z"/>
			</g>
			<g opacity="0.1">
				<path fill="#FFFFFF" d="M21.304,59.782c8.777-3.99,17.597-7.963,26-12.701c7.162-4.039,14.459-8.188,20.492-13.82l-3.801-1.051
					l-3.122-2.285c-5.803,4.642-11.693,9.299-18.171,12.937c-7.444,4.183-15.191,7.469-22.021,12.691
					c0.071,0.558,0.15,1.167,0.15,1.167C20.978,57.767,21.138,58.781,21.304,59.782z"/>
				<path fill="#FFFFFF" d="M78.336,45.339c0.15-2.88,0.238-5.906,0.238-9.099l-0.287-0.08c-0.219,0.672-0.598,1.336-1.182,1.958
					C63.333,52.74,42.695,60.969,24.76,69.139c-0.445,0.201-0.886,0.334-1.318,0.41c0.682,2.439,1.435,4.678,2.235,6.738
					C45.52,70.443,65.137,61.428,78.336,45.339z"/>
				<path fill="#FFFFFF" d="M56.46,82.844c-7.224,3.158-14.432,6.004-21.813,8.506c6.54,7.15,13.025,8.479,14.408,8.685
					c2.179-0.324,17.056-3.406,24.815-27.814C68.419,76.309,62.766,80.086,56.46,82.844z"/>
			</g>
			<g opacity="0.2">
				<path fill="#FFFFFF" d="M21.304,57.781c8.777-3.989,17.597-7.962,26-12.7c7.162-4.039,14.459-8.188,20.492-13.82l-3.801-1.051
					l-3.122-2.285c-5.803,4.642-11.693,9.299-18.171,12.937c-7.444,4.183-15.191,7.469-22.021,12.691
					c0.071,0.558,0.15,1.167,0.15,1.167C20.978,55.767,21.138,56.781,21.304,57.781z"/>
				<path fill="#FFFFFF" d="M78.336,43.339c0.15-2.88,0.238-5.906,0.238-9.099l-0.287-0.08c-0.219,0.672-0.598,1.336-1.182,1.958
					C63.333,50.74,42.695,58.97,24.76,67.139c-0.445,0.201-0.886,0.334-1.318,0.41c0.682,2.439,1.435,4.678,2.235,6.738
					C45.52,68.443,65.137,59.428,78.336,43.339z"/>
				<path fill="#FFFFFF" d="M56.46,80.844c-7.224,3.158-14.432,6.004-21.813,8.506c6.54,7.15,13.025,8.479,14.408,8.685
					c2.179-0.324,17.056-3.406,24.815-27.814C68.419,74.309,62.766,78.086,56.46,80.844z"/>
			</g>
			<path opacity="0.5" fill="#AA8A02" enable-background="new    " d="M64.703,31.607l-3.143-2.367l0,0l-11.367-8.57L35.686,31.607
				l-14.151,4.031c0,6.848,0.361,12.955,1.002,18.414c0.003,0.021,0.259,2.064,0.26,2.064c0.16,1.192,0.334,2.354,0.521,3.479
				c0.063,0.385,0.139,0.744,0.203,1.125c0.128,0.729,0.255,1.461,0.396,2.16c0.089,0.451,0.188,0.877,0.28,1.316
				c0.129,0.598,0.252,1.203,0.388,1.779c0.107,0.475,0.229,0.914,0.342,1.371c0.13,0.521,0.257,1.045,0.392,1.545
				c0.129,0.479,0.268,0.932,0.398,1.395c0.132,0.451,0.259,0.91,0.395,1.348c0.146,0.479,0.303,0.928,0.452,1.387
				c0.131,0.396,0.261,0.802,0.396,1.185c0.166,0.476,0.338,0.926,0.509,1.381c0.127,0.34,0.253,0.688,0.384,1.019
				c0.188,0.473,0.376,0.92,0.566,1.371c0.122,0.289,0.243,0.584,0.366,0.864c0.205,0.468,0.415,0.912,0.625,1.354
				c0.113,0.242,0.228,0.49,0.343,0.729c0.227,0.459,0.456,0.9,0.688,1.342c0.104,0.193,0.206,0.396,0.313,0.59
				c0.247,0.455,0.496,0.894,0.748,1.318c0.091,0.156,0.182,0.313,0.271,0.471c0.27,0.443,0.538,0.875,0.812,1.295
				c0.075,0.117,0.15,0.236,0.229,0.354c0.288,0.438,0.579,0.854,0.871,1.27c0.061,0.082,0.119,0.168,0.179,0.25
				c0.312,0.429,0.62,0.836,0.934,1.23c0.042,0.055,0.083,0.104,0.125,0.16c0.329,0.414,0.657,0.811,0.985,1.188
				c0.023,0.026,0.05,0.061,0.072,0.084c0.347,0.397,0.691,0.776,1.036,1.146c0.005,0.004,0.008,0.008,0.012,0.012l0,0
				c6.065,6.377,11.895,7.604,13.179,7.801c0.482-0.074,1.621-0.301,3.17-0.887l0,0c0.014-0.006,0.021-0.01,0.035-0.02
				c0.348-0.131,0.715-0.279,1.1-0.451c0.059-0.025,0.112-0.051,0.17-0.074c0.148-0.066,0.305-0.146,0.459-0.217
				c0.111-0.059,0.227-0.107,0.338-0.166c0.146-0.072,0.297-0.15,0.446-0.229c0.134-0.07,0.271-0.146,0.405-0.223
				c0.146-0.08,0.286-0.158,0.436-0.242c0.17-0.098,0.344-0.201,0.52-0.309c0.136-0.082,0.27-0.16,0.4-0.246
				c0.271-0.178,0.549-0.354,0.828-0.553c0.12-0.082,0.241-0.17,0.362-0.256c0.194-0.142,0.396-0.279,0.595-0.433
				c0.131-0.098,0.26-0.196,0.391-0.299c0.203-0.156,0.406-0.32,0.613-0.488c0.123-0.102,0.246-0.202,0.371-0.309
				c0.247-0.209,0.498-0.433,0.75-0.656c0.081-0.073,0.161-0.146,0.243-0.219c0.332-0.31,0.666-0.627,1-0.964
				c0.088-0.09,0.177-0.185,0.265-0.271c0.252-0.26,0.506-0.526,0.758-0.805c0.113-0.123,0.229-0.252,0.345-0.381
				c0.231-0.27,0.472-0.539,0.704-0.82c0.109-0.133,0.229-0.267,0.337-0.403c0.269-0.328,0.53-0.668,0.798-1.021
				c0.072-0.101,0.146-0.188,0.225-0.289c0.342-0.459,0.681-0.937,1.019-1.433c0.063-0.094,0.124-0.188,0.188-0.282
				c0.271-0.406,0.539-0.822,0.809-1.255c0.104-0.166,0.205-0.34,0.311-0.512c0.229-0.385,0.461-0.772,0.688-1.18
				c0.104-0.188,0.21-0.371,0.313-0.563c0.239-0.44,0.479-0.899,0.721-1.368c0.078-0.154,0.156-0.304,0.232-0.455
				c0.313-0.636,0.623-1.283,0.928-1.961c0.045-0.101,0.088-0.203,0.131-0.306c0.256-0.578,0.506-1.17,0.752-1.774
				c0.093-0.229,0.183-0.459,0.271-0.688c0.196-0.513,0.396-1.029,0.589-1.563c0.094-0.26,0.187-0.518,0.274-0.779
				c0.196-0.563,0.392-1.146,0.577-1.734c0.074-0.229,0.15-0.455,0.226-0.688c0.257-0.828,0.507-1.683,0.745-2.562
				c0.021-0.086,0.045-0.18,0.066-0.266c0.213-0.793,0.42-1.604,0.617-2.438c0.069-0.297,0.139-0.604,0.207-0.904
				c0.146-0.648,0.293-1.313,0.432-1.988c0.07-0.346,0.144-0.691,0.21-1.047c0.136-0.691,0.266-1.402,0.39-2.129
				c0.057-0.326,0.112-0.646,0.169-0.979c0.173-1.053,0.337-2.129,0.481-3.237c0.003,0,0.26-2.044,0.262-2.064
				c0.641-5.459,1.005-11.566,1.005-18.414L64.703,31.607z M38.981,88.717c-0.301-0.328-0.604-0.678-0.904-1.037
				c-0.024-0.027-0.05-0.059-0.073-0.088c-0.287-0.346-0.575-0.707-0.861-1.082c-0.039-0.051-0.078-0.1-0.117-0.15
				C36.751,86,36.48,85.625,36.21,85.241c-0.052-0.076-0.104-0.148-0.155-0.226c-0.257-0.373-0.513-0.762-0.766-1.156
				c-0.064-0.104-0.129-0.198-0.193-0.303c-0.241-0.385-0.479-0.783-0.717-1.188c-0.075-0.129-0.15-0.258-0.228-0.389
				c-0.225-0.396-0.444-0.808-0.667-1.224c-0.084-0.157-0.169-0.313-0.253-0.477c-0.209-0.406-0.416-0.83-0.621-1.259
				c-0.091-0.188-0.183-0.375-0.271-0.565c-0.194-0.418-0.386-0.854-0.576-1.293c-0.097-0.224-0.193-0.438-0.287-0.662
				c-0.182-0.431-0.355-0.881-0.533-1.332c-0.1-0.252-0.197-0.498-0.296-0.756c-0.167-0.447-0.33-0.914-0.493-1.377
				c-0.099-0.285-0.199-0.563-0.298-0.854c-0.154-0.468-0.307-0.955-0.457-1.438c-0.098-0.313-0.194-0.609-0.29-0.932
				c-0.146-0.488-0.281-1.004-0.423-1.513c-0.093-0.34-0.188-0.664-0.276-1.012c-0.138-0.521-0.265-1.063-0.394-1.604
				c-0.085-0.354-0.176-0.701-0.258-1.063c-0.128-0.567-0.248-1.162-0.367-1.75c-0.075-0.363-0.154-0.713-0.227-1.082
				c-0.127-0.656-0.244-1.34-0.36-2.021c-0.058-0.33-0.119-0.643-0.174-0.977c-0.167-1.025-0.323-2.08-0.469-3.162v-0.002
				L25.91,53.63c-0.56-4.771-0.882-9.92-0.959-15.336l12.239-3.486l5.459-4.116l0,0l7.544-5.688l10.896,8.215
				c0,0.001,0,0.001,0,0.001l2.104,1.588l12.24,3.486c-0.078,5.416-0.397,10.563-0.959,15.336v0.002
				c-0.021,0.156-0.203,1.629-0.244,1.945l-0.008,0.059c-0.141,1.031-0.287,2.033-0.447,3.012c-0.051,0.322-0.107,0.631-0.162,0.946
				c-0.11,0.646-0.223,1.291-0.342,1.916c-0.065,0.361-0.146,0.709-0.215,1.064c-0.111,0.555-0.228,1.107-0.346,1.646
				c-0.079,0.361-0.166,0.716-0.247,1.066c-0.118,0.508-0.237,1.019-0.362,1.506c-0.088,0.353-0.182,0.688-0.271,1.026
				c-0.127,0.476-0.255,0.945-0.391,1.401c-0.094,0.329-0.188,0.653-0.289,0.979c-0.135,0.446-0.271,0.895-0.409,1.325
				c-0.103,0.31-0.2,0.605-0.306,0.905c-0.146,0.433-0.293,0.854-0.438,1.27c-0.104,0.278-0.204,0.561-0.312,0.834
				c-0.153,0.413-0.313,0.815-0.478,1.217c-0.103,0.254-0.201,0.506-0.308,0.752c-0.17,0.403-0.342,0.799-0.518,1.188
				c-0.1,0.223-0.195,0.442-0.296,0.66c-0.188,0.401-0.378,0.795-0.565,1.184c-0.09,0.18-0.179,0.363-0.27,0.543
				c-0.218,0.424-0.438,0.832-0.654,1.234c-0.065,0.121-0.135,0.252-0.201,0.371c-0.283,0.512-0.572,1.006-0.862,1.479
				c-0.005,0.004-0.009,0.012-0.013,0.021c-0.604,0.981-1.215,1.895-1.83,2.729c-0.051,0.065-0.104,0.131-0.147,0.194
				c-0.253,0.343-0.507,0.675-0.76,0.986c-0.079,0.104-0.159,0.191-0.236,0.289c-0.226,0.273-0.448,0.543-0.674,0.803
				c-0.093,0.104-0.187,0.207-0.276,0.313c-0.209,0.23-0.42,0.465-0.629,0.688c-0.102,0.104-0.199,0.207-0.3,0.312
				c-0.2,0.207-0.401,0.405-0.604,0.601c-0.104,0.104-0.207,0.198-0.312,0.297c-0.194,0.186-0.39,0.358-0.58,0.528
				c-0.104,0.095-0.21,0.187-0.313,0.272c-0.188,0.162-0.377,0.32-0.563,0.474c-0.104,0.086-0.206,0.17-0.311,0.25
				c-0.188,0.146-0.368,0.285-0.553,0.422c-0.103,0.076-0.201,0.152-0.305,0.226c-0.18,0.129-0.354,0.252-0.529,0.371
				c-0.101,0.067-0.199,0.143-0.301,0.203c-0.172,0.114-0.341,0.221-0.509,0.325c-0.099,0.06-0.194,0.123-0.291,0.183
				c-0.167,0.104-0.33,0.192-0.492,0.285c-0.092,0.051-0.187,0.106-0.271,0.155c-0.157,0.086-0.312,0.164-0.459,0.242
				c-0.301,0.151-0.594,0.299-0.868,0.428c-0.021,0.009-0.039,0.019-0.06,0.025c-0.166,0.075-0.33,0.146-0.49,0.217
				c-0.047,0.019-0.094,0.039-0.137,0.058c-0.168,0.069-0.328,0.131-0.482,0.19c-0.031,0.012-0.063,0.022-0.098,0.035
				c-0.166,0.063-0.322,0.116-0.479,0.17c-0.015,0.006-0.026,0.01-0.045,0.016c-0.163,0.056-0.319,0.104-0.468,0.148l0,0
				c-0.383,0.11-0.715,0.194-0.973,0.254C48.487,95.5,43.835,94.043,38.981,88.717z"/>
			<g>
				<g>
					<g>
						<g>
							<g>
								<g>
									<path fill="#7A7A7A" d="M63.996,30.208L49.053,19.272L34.11,30.208L19.533,34.24c0,6.848,0.374,12.954,1.03,18.413
										c0.004,0.021,0.269,2.064,0.27,2.064c5.344,38.706,25.646,42.93,28.222,43.313c2.575-0.388,22.876-4.607,28.22-43.313
										c0.002,0,0.268-2.043,0.27-2.064c0.658-5.459,1.033-11.565,1.033-18.413L63.996,30.208z M74.066,52.235L74.066,52.235
										c-0.021,0.157-0.209,1.631-0.252,1.946l-0.008,0.06c-4.719,34.166-21.141,39.476-24.753,40.231
										c-3.614-0.762-20.036-6.07-24.754-40.231v-0.003l-0.259-2.003c-0.575-4.771-0.907-9.921-0.987-15.337l12.607-3.485
										l13.394-9.805l13.396,9.805l12.604,3.485C74.973,42.314,74.643,47.462,74.066,52.235z"/>
								</g>
							</g>
						</g>
					</g>
					<g>
						<g>
							<g>
								<path fill="#424242" d="M36.621,89.193c0.278-0.631,0.581-1.245,0.896-1.854C32.239,81.723,26.724,71.795,24.3,54.24v-0.003
									l-0.259-2.003c-0.575-4.771-0.907-9.921-0.987-15.337l12.607-3.485l5.623-4.115c-0.437-0.508-0.775-1.082-0.973-1.696
									c-0.184-0.522-0.329-1.057-0.456-1.597l-5.746,4.205L19.533,34.24c0,6.848,0.374,12.954,1.03,18.413
									c0.004,0.021,0.269,2.064,0.27,2.064c2.6,18.823,8.732,29.479,14.647,35.516C35.798,89.813,36.183,89.465,36.621,89.193z"/>
							</g>
						</g>
					</g>
					<g>
						<g>
							<g>
								<path fill="#C1C1C1" d="M63.996,30.208l-3.232-2.367c-0.104,1.335-0.277,2.66-0.484,3.982l2.173,1.588l12.604,3.485
									c-0.082,5.416-0.412,10.564-0.988,15.337v0.001c-0.021,0.156-0.209,1.63-0.252,1.945l-0.008,0.06
									C69.436,85.9,55.02,92.777,50.053,94.219c0.461,0.496,0.918,1,1.365,1.518c0.396,0.453,0.688,0.931,0.896,1.41
									c6.627-2.438,20.646-11.229,24.955-42.429c0.002,0,0.269-2.043,0.271-2.064c0.658-5.459,1.033-11.565,1.033-18.413
									L63.996,30.208z"/>
							</g>
						</g>
					</g>
				</g>
				<g>
					<path fill="#666665" d="M64.883,28.607l-15.83-11.585L33.224,28.607l-15.689,4.341v1.521c0,6.615,0.352,12.891,1.049,18.672
						l0.021,0.16c0.1,0.762,0.182,1.396,0.296,1.912l-0.048,0.008c5.56,40.25,27.434,44.648,29.906,45.02l0.296,0.043l0.294-0.043
						c2.479-0.369,24.351-4.771,29.907-45.02l-0.063-0.01c0.139-0.574,0.229-1.279,0.332-2.09
						c0.695-5.766,1.047-12.041,1.047-18.652v-1.521L64.883,28.607z M75.549,52.702c-0.043,0.328-0.209,1.618-0.248,1.907
						l-0.008,0.063c-4.979,36.04-23.018,40.963-26.239,41.561c-3.226-0.598-21.265-5.521-26.24-41.561l-0.001-0.014
						c-0.021-0.162-0.185-1.42-0.242-1.871l-0.02-0.146c-0.622-5.162-0.962-10.758-1.012-16.654l13.457-3.721l14.059-10.288
						l14.058,10.288l13.457,3.721C76.518,41.882,76.178,47.483,75.549,52.702z"/>
					<path fill="#C1C1C1" d="M38.901,90.932c-6.165-5.281-13.249-15.707-16.087-36.259l-0.001-0.014
						c-0.021-0.162-0.185-1.42-0.242-1.871l-0.02-0.146c-0.622-5.162-0.962-10.758-1.012-16.654l13.457-3.721l7.684-5.623
						c0.273-1.612,0.635-5.222,0.617-5.408l-10.071,7.371l-15.689,4.341v1.521c0,6.615,0.353,12.891,1.049,18.672l0.021,0.16
						c0.1,0.762,0.182,1.396,0.296,1.912l-0.05,0.008c3.321,24.056,12.472,35.3,19.824,40.539
						C38.572,94.163,38.682,92.547,38.901,90.932z"/>
					<path fill="#424242" d="M74.643,31.306c-0.082,1.345-0.229,2.688-0.432,4.03l2.354,0.65
						c-0.051,5.896-0.392,11.495-1.021,16.716c-0.043,0.328-0.209,1.618-0.248,1.907l-0.008,0.063
						c-2.183,15.786-6.865,25.602-11.716,31.698c-0.747,2.639-1.5,5.276-2.247,7.918c6.961-5.771,14.885-17.045,17.926-39.069
						l-0.063-0.01c0.141-0.574,0.229-1.279,0.332-2.09c0.695-5.766,1.047-12.041,1.047-18.652v-1.521L74.643,31.306z"/>
				</g>
			</g>
		</g>
		<g opacity="0.2">
			<path fill="#FFFFFF" d="M75.549,52.702c-0.043,0.328-0.209,1.618-0.248,1.907l-0.008,0.063c-0.329,2.384-0.719,4.624-1.152,6.743
				c1.586-1.291,3.17-2.588,4.76-3.883c0.121-0.766,0.248-1.521,0.355-2.313l-0.063-0.01c0.139-0.574,0.229-1.279,0.332-2.09
				c0.695-5.766,1.049-12.041,1.049-18.652v-1.521l-0.735-0.202c-1.666,0.918-3.33,1.841-4.989,2.769l1.721,0.476
				C76.518,41.882,76.178,47.483,75.549,52.702z"/>
			<path fill="#FFFFFF" d="M34.149,85.866c-3.76-4.896-7.384-12.07-9.771-22.584c-1.224,0.616-2.443,1.237-3.672,1.848
				c2.396,9.998,5.923,17.15,9.677,22.279C31.64,86.9,32.897,86.391,34.149,85.866z"/>
			<path fill="#FFFFFF" d="M68.55,78.418c-7.268,14.73-17.188,17.389-19.496,17.813c-1.071-0.193-3.778-0.883-7.095-3.021
				c-1.419,0.613-2.839,1.222-4.27,1.813c5.378,4.148,10.005,5.058,11.066,5.213l0.296,0.046l0.294-0.046
				c2.032-0.303,17.141-3.34,25.559-26.694C72.816,75.204,70.701,76.836,68.55,78.418z"/>
			<path fill="#FFFFFF" d="M66.105,28.945l-1.225-0.338l-8.951-6.552c-1.104,0.84-2.217,1.683-3.326,2.522l9.246,6.766
				C63.268,30.542,64.686,29.742,66.105,28.945z"/>
			<path fill="#FFFFFF" d="M18.603,53.3c0.08,0.621,0.152,1.137,0.238,1.593c1.254-0.633,2.506-1.271,3.753-1.915
				c-0.01-0.07-0.019-0.137-0.024-0.188l-0.02-0.146c-0.424-3.52-0.706-7.254-0.865-11.135c-1.311,0.571-2.619,1.146-3.927,1.724
				c0.174,3.431,0.442,6.749,0.823,9.909L18.603,53.3z"/>
		</g>
	</g>
</g>
</svg>
