<?xml version="1.0" encoding="utf-8"?>
<!-- Generator: Adobe Illustrator 16.0.0, SVG Export Plug-In . SVG Version: 6.00 Build 0)  -->
<!DOCTYPE svg PUBLIC "-//W3C//DTD SVG 1.1//EN" "http://www.w3.org/Graphics/SVG/1.1/DTD/svg11.dtd">
<svg version="1.1" id="Layer_1" xmlns="http://www.w3.org/2000/svg" xmlns:xlink="http://www.w3.org/1999/xlink" x="0px" y="0px"
	 width="139.777px" height="139.778px" viewBox="41.111 80.222 139.777 139.778"
	 enable-background="new 41.111 80.222 139.777 139.778" xml:space="preserve">
<g>
	<g>
		<g>
			<path fill="#DE1F26" d="M155.834,189.896c0,2.904-2.356,5.262-5.263,5.262H72.392c-2.905,0-5.262-2.357-5.262-5.262v-78.177
				c0-2.909,2.356-5.262,5.262-5.262h78.179c2.906,0,5.263,2.355,5.263,5.262V189.896z"/>
			<g>
				<path fill="#1D0A3C" d="M140.291,195.157h10.28c2.906,0,5.263-2.357,5.263-5.262V173.31c-2.064,2.659-4.127,5.139-6.189,7.613
					C145.758,185.785,144.536,191.029,140.291,195.157z"/>
				<path fill="#1D0A3C" d="M99.608,106.456H72.392c-2.905,0-5.262,2.355-5.262,5.262v11.335c6.331-3.938,14.542-5.701,20.627-7.729
					C92.227,113.837,96.294,110.651,99.608,106.456z"/>
				<path fill="#231E5F" d="M95.803,122.132c3.095-3.712,11.76-1.855,17.33-4.95c3.908-2.511,5.169-6.41,5.379-10.726H99.608
					c-3.312,4.195-7.381,7.381-11.849,8.869c-6.083,2.03-14.297,3.792-20.626,7.729v25.104c1.638-2.437,2.869-5.647,5.155-6.221
					C84.046,138.84,88.997,131.414,95.803,122.132z"/>
				<path fill="#402D88" d="M137.562,106.456h-19.05c-0.21,4.316-1.476,8.215-5.379,10.726c-5.57,3.094-14.235,1.239-17.33,4.95
					c-6.806,9.282-11.759,16.708-23.517,19.805c-2.286,0.573-3.518,3.784-5.156,6.221v24.611c3.118-1.441,6.218-2.826,8.253-6.079
					c3.712-6.189,3.712-14.234,9.901-17.328c6.807-3.093,14.232-5.567,16.709-11.757c4.333-10.521,15.472-16.71,25.371-21.043
					C131.688,114.709,134.781,110.854,137.562,106.456z"/>
				<path fill="#402D88" d="M128.604,161.737c2.476-3.713,8.045-3.093,11.759-5.567c6.19-4.332,0-11.142,2.476-17.33
					c0.62-1.238,1.238-3.091,2.477-3.091c4.872-1.486,8.219-4.567,10.52-8.469v-7.289c-1.648,1.178-3.343,2.12-4.951,2.761
					c-12.997,5.569-18.565,16.707-26.61,27.849c-2.476,3.712-7.428,7.424-10.521,10.52c-8.619,9.695-10.675,22.674-17.187,34.037
					h11.217c0.883-2.305,1.63-4.767,2.254-7.423c0.62-3.714,4.332-6.19,8.044-8.666
					C124.272,175.354,124.889,167.309,128.604,161.737z"/>
				<path fill="#5754A4" d="M150.571,106.456h-1.672h-11.338c-2.78,4.397-5.873,8.253-10.196,10.107
					c-9.899,4.334-21.041,10.521-25.373,21.043c-2.475,6.188-9.902,8.662-16.709,11.755c-6.189,3.098-6.189,11.142-9.902,17.332
					c-2.033,3.249-5.135,4.634-8.252,6.078v17.124c0,2.907,2.357,5.262,5.262,5.262H83.88h12.683
					c6.51-11.363,8.567-24.342,17.187-34.037c3.092-3.093,8.044-6.808,10.522-10.52c8.04-11.142,13.61-22.28,26.606-27.849
					c1.612-0.645,3.307-1.583,4.952-2.761v-8.271C155.834,108.81,153.478,106.456,150.571,106.456z"/>
				<path fill="#231E5F" d="M145.314,135.749c-1.238,0-1.859,1.855-2.477,3.091c-2.476,6.191,3.715,12.998-2.476,17.33
					c-3.714,2.471-9.283,1.854-11.759,5.567c-3.715,5.571-4.331,13.617-10.521,17.327c-3.716,2.477-7.425,4.952-8.045,8.666
					c-0.626,2.657-1.372,5.122-2.254,7.423h21.715h10.792c4.245-4.127,5.467-9.372,9.354-14.233
					c2.063-2.477,4.125-4.951,6.189-7.614V155.88v-28.604C153.533,131.182,150.187,134.263,145.314,135.749z"/>
			</g>
		</g>
		<g>
			<path d="M156.602,189.935c-0.007,2-1.178,4.042-2.933,5.084c-0.871,0.546-1.891,0.841-2.914,0.877l-2.728,0.054l-10.802,0.188
				l-21.612,0.376l-43.333,0.856c-0.265-0.02-0.365,0.002-0.762-0.04c-0.372-0.04-0.735-0.1-1.029-0.183
				c-0.626-0.146-1.229-0.393-1.797-0.695c-1.129-0.624-2.106-1.526-2.788-2.633c-0.7-1.095-1.09-2.393-1.146-3.691l-0.053-2.775
				l-0.177-10.808l-0.353-21.606c-0.137-7.203-0.147-14.409-0.228-21.611l-0.09-21.776l0.016-0.338
				c0.004-0.104,0.005-0.206,0.039-0.464c0.05-0.441,0.129-0.874,0.221-1.2c0.178-0.713,0.464-1.394,0.818-2.033
				c0.724-1.271,1.758-2.36,3.013-3.114c1.247-0.771,2.711-1.193,4.168-1.239l2.801-0.001l10.806,0.032l21.612,0.134
				c7.203,0.044,14.407,0.163,21.609,0.292l21.736,0.368c0.269,0.025,0.354,0.011,0.768,0.065c0.39,0.05,0.764,0.121,1.064,0.212
				c0.638,0.166,1.248,0.434,1.817,0.759c1.14,0.665,2.103,1.608,2.756,2.743c0.671,1.122,1.017,2.43,1.037,3.721l-0.049,2.77
				l-0.236,10.806l-0.463,21.61l-0.789,43.222V189.935z M155.064,189.896l-0.785-43.222l-0.467-21.612l-0.237-10.806l-0.063-2.632
				c-0.04-0.507-0.193-0.99-0.472-1.401c-0.268-0.416-0.652-0.748-1.08-0.979c-0.219-0.107-0.44-0.201-0.678-0.247
				c-0.133-0.039-0.201-0.037-0.262-0.048c-0.032-0.022-0.396-0.019-0.578-0.029l-21.486,0.368
				c-7.202,0.128-14.406,0.247-21.609,0.291l-21.608,0.135l-10.806,0.032l-2.6,0.013c-0.342,0.011-0.667,0.094-0.954,0.271
				c-0.296,0.166-0.535,0.429-0.709,0.717c-0.077,0.15-0.154,0.3-0.19,0.464c-0.034,0.106-0.025,0.121-0.038,0.125
				c-0.011-0.036-0.019,0.087-0.024,0.208l-0.018,0.338l-0.092,21.444c-0.078,7.203-0.087,14.408-0.228,21.612l-0.347,21.606
				l-0.174,10.808l-0.038,2.628c0,0.5,0.11,0.992,0.362,1.428c0.237,0.445,0.61,0.816,1.043,1.093c0.221,0.128,0.452,0.244,0.7,0.31
				c0.141,0.05,0.221,0.057,0.295,0.078c0.046,0.035,0.399,0.039,0.585,0.058l43.107,0.855l21.612,0.375l10.802,0.188l2.68,0.036
				c0.775-0.018,1.542-0.225,2.206-0.631c1.366-0.796,2.169-2.303,2.155-3.914L155.064,189.896z"/>
		</g>
	</g>
	<g>
		<g>
			<g>
				<path fill="#010101" d="M66.578,169.836c0.378,0.403,0.764,0.783,1.127,1.185c1.042,1.154,2.054,2.347,3.026,3.589
					c1.934,2.493,3.752,5.141,5.101,8.298l0.74,1.729l-1.261,1.425l-15.837,17.852l-2.115,2.386l-2.255-2.253l-0.223-0.226
					l0.246,0.222h-0.005l-0.133-0.108l-0.117-0.117c0.18,0.181,0.43,0.348,0.836,0.406c0.377,0.068,1.082-0.042,1.599-0.571
					c-0.053,0.059,0.468-0.526,0.247-0.276l0,0l-0.002,0.003l-0.001,0.003l-0.005,0.004l-0.009,0.016l-0.019,0.024l-0.039,0.05
					c-0.003,0.007-0.098,0.121-0.029,0.042c0.186-0.199,0.337-0.574,0.378-0.728c0.086-0.289,0.086-0.546,0.061-0.745
					c-0.061-0.408-0.227-0.655-0.407-0.835l0.871,0.863l0.012,1.163c-0.005-0.464-0.182-1.331-0.875-2.02
					c-0.691-0.695-1.557-0.873-2.023-0.877l1.185,0.015l0.871,0.895l0.091,0.097l1,1.027l-0.478,2.425
					c0.03-0.156-0.053,0.258,0.262,0.611c0.046,0.071,0.183,0.202,0.286,0.271c-0.029-0.025,0.046,0.036-0.077-0.05l0.216,0.136
					c0.205,0.143,0.115,0.046,0.136,0.071c-0.441-0.175,0.372,0.138,0.028,0.006c0.166,0.055,0.378,0.115,0.281,0.076
					c-0.067-0.003,0.064-0.007,0.031,0l0.042-0.014l0.277-0.008c0.063,0,0.057-0.007,0.022,0.008l1.772-0.725l1.436,1.39
					c-0.2-0.19-0.472-0.365-0.949-0.413c-0.246-0.025-0.535,0.016-0.869,0.146c-0.162,0.076-0.316,0.173-0.472,0.285l-0.105,0.095
					l-0.048,0.052l-0.244,0.276h0.002l0.001-0.005l0.005-0.007l0.009-0.019l0.083-0.104c-0.589,0.814-0.46,1.396-0.373,1.73
					c0.056,0.18,0.138,0.324,0.228,0.442c0.009,0.032,0.162,0.172,0.08,0.089l-0.189-0.191l-2.255-2.252l2.386-2.115l18.276-16.21
					l1.537-1.362l1.817,0.93c2.696,1.385,5.056,3.072,7.281,4.856c2.223,1.79,4.288,3.705,6.27,5.683l-4.248-0.003l3.657-3.653
					l-0.002,4.241l-4.688-4.705c-0.339-0.347-0.83-0.902-1.246-1.417l-0.556-0.735l-0.586-0.863l-0.283-0.464l-0.205-0.353
					c-0.119-0.189-0.325-0.614-0.482-0.921l-0.149-0.325l-0.079-0.192l-0.16-0.378l-0.37-1.037l-0.069-0.189l-0.044-0.329
					c0.022,0.153,0.015,0.101,0.008,0.064L85.8,187.12l-0.037-0.197l-0.006-0.042l-0.222-1.674l1.05-0.967
					c7.537-6.943,14.916-14.035,22.191-21.229l10.888-10.823l10.771-10.942l21.374-22.045l5.332-5.521l2.666-2.76l1.334-1.382
					c0.36-0.354,0.616-0.703,0.953-1.161c2.554-3.569,3.57-8.048,2.511-12.114l0.179,0.539c-1.027-2.354-2.062-4.704-2.975-7.108
					l-0.012-0.026l4.876,0.929c-7.647,6.707-15.094,13.614-22.5,20.561l-11.029,10.502l-10.922,10.611
					c-7.206,7.147-14.476,14.232-21.485,21.575c-7.001,7.356-13.845,14.865-20.185,22.878l0,0l-1.027,1.027l-1.42-0.173
					c-0.455-0.052-0.902-0.113-1.35-0.197l-0.702-0.144l-0.678-0.172l0.221,0.055l-0.297-0.075l-0.203-0.069l-0.097-0.031
					l-0.191-0.067l-0.412-0.15c-0.367-0.153-0.652-0.254-1.08-0.467c-0.409-0.196-1.15-0.597-1.686-0.95l-0.771-0.521l-0.806-0.603
					l-0.415-0.342l-0.31-0.269c-0.187-0.146-0.483-0.435-0.715-0.652l-4.692-4.673l4.245-0.004L66.578,169.836z M58.144,169.782
					l5.772-5.776l2.121-2.118l2.126,2.118l4.581,4.563c0.17,0.154,0.255,0.261,0.49,0.454l0.311,0.267l0.156,0.133l0.02,0.017
					c0.088,0.071-0.118-0.099-0.097-0.077h0.001l0.004,0.003l0.009,0.008l0.04,0.035l0.08,0.062l0.499,0.377l0.583,0.4
					c0.38,0.241,0.596,0.37,1.167,0.652l0.419,0.186c0.071,0.032,0.242,0.087,0.359,0.128l0.193,0.067l0.096,0.036l0.024,0.008
					l0.011,0.004l0.005,0.003l-0.15-0.051l-0.197-0.042l0.17,0.039l0.051,0.01l0.203,0.06l0.229,0.05l0.418,0.085
					c0.299,0.057,0.607,0.1,0.911,0.136l-2.451,0.863l0.001-0.004c8.014-6.34,15.523-13.185,22.877-20.184
					c7.344-7.011,14.427-14.277,21.578-21.488l10.608-10.921l10.499-11.029c6.95-7.406,13.857-14.852,20.564-22.5l2.783-3.172
					l2.093,4.101l0.011,0.024c1.133,2.309,2.137,4.672,3.157,7.03l0.118,0.279l0.057,0.26c0.639,2.94,0.61,6.072-0.117,8.979
					c-0.725,2.919-2.038,5.59-3.82,7.946c-0.433,0.564-0.972,1.22-1.537,1.751l-1.374,1.338l-2.746,2.681l-5.5,5.36l-21.936,21.484
					l-10.889,10.818l-10.771,10.94c-7.162,7.315-14.219,14.731-21.12,22.299l0.828-2.64l0.009,0.038l0.09,0.535l-0.11-0.521
					l0.175,0.506l0.157,0.378l0.078,0.189l0.021,0.048l0.005,0.01v0.003c-0.167-0.363-0.045-0.1-0.082-0.178l0.001,0.003l0.048,0.1
					l0.031,0.063c0.097,0.173,0.111,0.255,0.277,0.53l0.205,0.356l0.051,0.085l0.001,0.009l0.001,0.003
					c-0.03-0.051,0.071,0.113-0.067-0.114l0.008,0.015l0.013,0.021l0.027,0.039l0.111,0.176l0.333,0.495l0.433,0.576
					c0.275,0.331,0.495,0.602,0.919,1.036l4.566,4.586l2.119,2.125l-2.121,2.119l-3.657,3.657l-2.119,2.116l-2.126-2.12
					c-1.863-1.855-3.785-3.634-5.79-5.251c-2.002-1.609-4.095-3.082-6.234-4.179l3.353-0.427l-18.264,16.214l0.129-4.369l0.19,0.188
					c0.047,0.044,0.306,0.332,0.436,0.497c0.309,0.406,0.563,0.868,0.73,1.395c0.171,0.52,0.245,1.116,0.19,1.745
					c-0.049,0.342-0.089,0.608-0.237,1.015c-0.09,0.232-0.201,0.461-0.329,0.676l-0.203,0.311l-0.04,0.054l-0.083,0.107
					l-0.267,0.303l-0.103,0.091l-0.212,0.18c-0.288,0.243-0.598,0.421-0.929,0.561c-0.66,0.288-1.321,0.36-1.925,0.321
					c-1.202-0.089-2.151-0.622-2.863-1.32l3.208,0.67c-0.732,0.285-1.488,0.403-2.174,0.403l0.322-0.018
					c-0.715,0.053-1.274,0.05-2.01-0.11c-0.435-0.089-0.545-0.139-0.709-0.186c-0.669-0.231-0.18-0.037-0.927-0.36
					c-0.279-0.137-0.689-0.364-0.76-0.422l-0.215-0.138c-0.269-0.178-0.319-0.232-0.488-0.358c-0.438-0.35-0.79-0.701-1.163-1.17
					c-0.71-0.892-1.239-1.972-1.454-3.189c-0.217-1.202-0.114-2.593,0.541-3.88l0.523,3.452l-0.092-0.092l2.055,0.906
					c-0.467-0.003-1.333-0.187-2.025-0.878c-0.696-0.693-0.875-1.56-0.88-2.022l0.88,2.022c-0.649-0.652-1.149-1.524-1.302-2.594
					c-0.077-0.531-0.054-1.127,0.119-1.737c0.078-0.317,0.321-0.839,0.569-1.188l0.117-0.159l0.039-0.051l0.286-0.327
					c0.998-1.011,2.421-1.293,3.456-1.13c1.07,0.154,1.939,0.655,2.596,1.304l-0.249-0.222h0.004l0.129,0.108l0.118,0.116
					l0.224,0.225l-4.369,0.128l15.836-17.851l-0.523,3.153c-0.995-2.351-2.56-4.702-4.292-6.921c-0.874-1.112-1.795-2.2-2.756-3.268
					c-0.974-1.077-1.938-2.088-2.992-3.147L58.144,169.782z"/>
			</g>
			<g>
				<g>
					<path fill="#5754A4" d="M55.933,202.753c-1.229,1.227-1.024,3.425,0.459,4.905c1.485,1.487,3.682,1.691,4.91,0.464
						L55.933,202.753z"/>
					<path fill="#402D88" d="M58.16,208.344c-0.148-0.115-0.36-0.2-0.456-0.247c-1.645-0.831-1.158-2.978-0.611-4.023
						c0.019-0.035,0.053-0.047,0.075-0.084l-1.238-1.236c-1.229,1.227-1.023,3.425,0.458,4.909c0.33,0.33,0.716,0.602,1.124,0.805
						c0.162,0.078,0.717,0.407,0.792,0.15C58.337,208.521,58.264,208.426,58.16,208.344z"/>
					<path fill="#231E5F" d="M56.98,204.776c0.205,0.46,0.619,0.795,0.926,1.189c0.699,0.91,1.201,1.913,1.632,2.937
						c0.77,0.018,1.5-0.203,2.041-0.746l-4.488-4.486c-0.021,0.114-0.031,0.228-0.093,0.34
						C56.853,204.278,56.87,204.532,56.98,204.776z"/>
					<polygon fill="#722815" points="61.008,207.825 56.229,203.048 76.379,180.332 83.723,187.675 					"/>
					<g>
						<polygon fill="#391812" points="74.848,194.964 71.799,190.459 69.074,188.485 69.863,187.598 69.861,187.598 68.884,188.701 
							72.004,192.902 						"/>
						<polygon fill="#802919" points="69.901,187.555 69.863,187.598 69.074,188.485 71.799,190.459 76.716,194.017 77.684,193.162 
													"/>
						<polygon fill="#391812" points="73.016,197.266 69.417,192.721 66.951,190.891 66.778,191.08 69.571,195.101 						"/>
						<polygon fill="#802919" points="74.848,194.964 72.004,192.902 67.835,189.888 67.484,190.284 66.951,190.891 69.417,192.721 
							74.179,196.256 74.367,196.092 75.146,195.404 						"/>
						<polygon fill="#391812" points="70.461,198.794 67.397,195.08 64.827,193.291 64.801,193.318 67.043,196.542 						"/>
						<polygon fill="#802919" points="73.016,197.266 69.571,195.101 65.494,192.539 65.391,192.648 64.827,193.291 67.397,195.08 
							71.575,197.981 71.938,198.232 73.028,197.275 						"/>
						<polygon fill="#391812" points="68.38,201.04 65.408,196.983 63.026,195.326 62.984,195.375 65.922,199.139 						"/>
						<polygon fill="#802919" points="70.461,198.794 67.043,196.542 63.823,194.425 63.666,194.604 63.026,195.326 65.408,196.983 
							69.162,199.596 69.858,200.077 70.82,199.225 						"/>
						<polygon fill="#391812" points="61.3,197.508 63.478,200.642 66.493,203.052 66.55,203.003 64.136,199.31 						"/>
						<polygon fill="#802919" points="68.38,201.04 65.922,199.139 62.204,196.256 62.171,196.295 61.21,197.381 61.3,197.508 
							64.136,199.31 67.937,201.72 67.976,201.742 68.534,201.251 						"/>
						<polygon fill="#802919" points="63.478,200.642 60.458,198.232 59.81,198.946 61.717,200.467 65.464,203.502 65.738,203.725 
							66.493,203.052 						"/>
						<polygon fill="#391812" points="64.213,203.909 61.717,200.467 59.835,198.938 59.751,199.032 61.778,202.143 						"/>
						<polygon fill="#391812" points="58.083,200.924 57.928,201.094 60.401,205.097 62.177,206.869 62.654,206.44 59.899,202.328 
													"/>
						<polygon fill="#802919" points="64.213,203.909 61.778,202.143 58.865,200.038 58.58,200.355 58.083,200.924 59.899,202.328 
							63.854,205.385 63.875,205.367 64.725,204.614 						"/>
					</g>
					<g>
						<path fill="#797979" d="M164.557,88.475l-88.315,88.313l9.953,9.95l69.697-69.694
							C175.622,97.308,164.557,88.475,164.557,88.475z"/>
					</g>
					<g>
						<path fill="#606161" d="M164.557,88.475l-88.315,88.313l3.937,3.936l69.694-69.696
							C169.608,91.293,164.557,88.475,164.557,88.475z"/>
					</g>
					<path opacity="0.2" fill="#391812" enable-background="new    " d="M80.606,190.024c0,0-8.093,0.745-12.88,5.533
						c0,0,7.066-8.692,5.702-12.716l3.899,3.899L80.606,190.024z"/>
					<path opacity="0.5" fill="#421D13" enable-background="new    " d="M57.229,201.921l0.656-0.741c0,0,8.04,2.146,17.505-6.115
						l-13.363,11.854L57.229,201.921z"/>
					<path fill="#562515" d="M62.524,208.86c-0.452,0.448-1.258,0.373-1.804-0.171l-5.353-5.355
						c-0.548-0.546-0.623-1.355-0.172-1.806l0,0c0.45-0.452,1.258-0.373,1.807,0.17l5.355,5.355
						C62.903,207.597,62.975,208.407,62.524,208.86L62.524,208.86z"/>
					<path fill="#391811" d="M62.362,207.054l-2.863-2.86c0.107,0.106,0.003,0.45,0.027,0.57c0.148,0.725,0.951,1.174,1.216,1.859
						c0.269,0.703,0.179,1.417-0.094,1.997l0.076,0.076c0.546,0.545,1.352,0.62,1.803,0.172
						C62.979,208.414,62.908,207.604,62.362,207.054z"/>
					<path fill="#76311D" d="M58.415,205.981c0.045-0.368-0.184-0.751-0.354-1.096c-0.227-0.456-0.385-0.931-0.557-1.399
						c-0.186-0.503-0.096-0.888,0.123-1.165l-0.629-0.627c-0.545-0.547-1.356-0.622-1.809-0.173
						c-0.45,0.453-0.377,1.261,0.172,1.805c0.79,0.793,1.577,1.581,2.368,2.369c0.121,0.122,0.475,0.468,0.643,0.36
						C58.395,206.046,58.409,206.018,58.415,205.981z"/>
				</g>
				<path fill="#BCBABA" d="M154.383,112.426l-0.596,0.762c-1.355,1.208-2.552,2.768-3.878,3.806
					c-3.325,2.605-4.385,5.998-7.178,8.904c-1.631,1.701-3.61,2.899-5.07,4.776c-2.012,2.598-5.265,3.456-7.81,5.358
					c-4.174,3.121-4.696,9.147-8.571,12.641c-2.829,2.549-5.338,5.368-8.442,7.601c-5.609,4.041-10.642,8.804-15.534,13.67
					c-1.888,1.873-4.164,3.835-5.928,5.988c-1.185,1.451-1.787,3.979-3.268,5.307c-1.854,1.67-4.661-0.152-6.094,1.319l5.254,5.256
					l76.162-76.541c0,0,6.326-6.477,4.202-15.707C167.632,95.565,164.91,105.892,154.383,112.426z"/>
				<path opacity="0.5" fill="#505050" enable-background="new    " d="M77.29,175.739c0,0,4.983-1.302,10.22-6.538l3.211,3.211
					l3.556,3.557c0,0-6.75,6.273-6.141,10.973L77.29,175.739z"/>
				<g>
					<path fill="#010101" d="M90.848,194.134l-0.757-0.764c-0.27-0.311-0.56-0.616-0.811-0.927
						c-0.499-0.621-0.981-1.265-1.393-1.969c-0.845-1.39-1.471-2.977-1.758-4.646c-0.301-1.673-0.229-3.411,0.145-5.055
						c0.188-0.821,0.446-1.624,0.778-2.395c0.165-0.394,0.35-0.771,0.552-1.146c0.22-0.395,0.387-0.702,0.734-1.18l0.002-0.004
						l0.18,2.964l-4.452-4.623v-0.003l2.806,0.171c-0.61,0.441-1.043,0.671-1.575,0.949c-0.511,0.257-1.032,0.478-1.568,0.667
						c-1.065,0.389-2.19,0.639-3.333,0.737c-2.29,0.212-4.649-0.242-6.662-1.222c-1.014-0.482-1.944-1.081-2.8-1.745
						c-0.434-0.325-0.833-0.689-1.231-1.039c-0.373-0.359-0.791-0.759-1.105-1.097l-4.04-4.186h2.377
						c-1.22,1.219-2.464,2.412-3.653,3.655v0.003V168.9l2.103,2.037c0.697,0.679,1.359,1.406,2.042,2.109
						c0.682,0.705,1.31,1.476,1.969,2.211c0.639,0.75,1.255,1.538,1.871,2.321c0.584,0.817,1.192,1.617,1.728,2.491
						c0.277,0.425,0.559,0.856,0.803,1.314c0.249,0.458,0.523,0.891,0.743,1.379c0.464,0.949,0.905,1.923,1.224,3.021
						c0.162,0.547,0.31,1.099,0.396,1.721c0.053,0.299,0.08,0.635,0.098,0.97c0.013,0.16,0.002,0.367,0,0.552
						c0.002,0.087-0.007,0.201-0.02,0.327c-0.011,0.108-0.015,0.205-0.077,0.474v0.004l-3.003-3.005
						c0.271-0.058,0.373-0.061,0.48-0.07c0.119-0.019,0.236-0.029,0.321-0.025c0.185-0.004,0.393-0.012,0.554,0.004
						c0.34,0.019,0.675,0.043,0.971,0.096c0.624,0.089,1.177,0.236,1.726,0.399c1.097,0.318,2.069,0.757,3.021,1.224
						c0.486,0.218,0.921,0.492,1.375,0.743c0.463,0.244,0.889,0.526,1.316,0.803c0.874,0.53,1.668,1.141,2.49,1.726
						c0.786,0.617,1.572,1.23,2.326,1.869c0.736,0.66,1.504,1.287,2.208,1.97c0.705,0.684,1.429,1.34,2.115,2.043l2.035,2.103l0,0
						h-2.382c1.24-1.195,2.438-2.438,3.656-3.657v2.38c-1.476-1.442-2.98-2.855-4.485-4.271L90.848,194.134z M93.477,191.575
						c1.414,1.507,2.83,3.008,4.27,4.488l1.175,1.202l-1.176,1.173c-1.217,1.217-2.458,2.416-3.653,3.658l-1.13,1.177l-1.254-1.177
						l0,0l-2.092-1.881c-0.7-0.624-1.432-1.201-2.145-1.804c-0.714-0.601-1.466-1.132-2.198-1.706
						c-0.744-0.546-1.502-1.061-2.258-1.569c-0.772-0.471-1.535-0.981-2.324-1.392c-0.391-0.214-0.78-0.433-1.18-0.61
						c-0.398-0.183-0.791-0.396-1.185-0.538c-0.793-0.326-1.593-0.615-2.352-0.774c-0.376-0.082-0.758-0.154-1.081-0.169
						c-0.177-0.024-0.317-0.014-0.457-0.018c-0.079-0.004-0.111,0.014-0.166,0.014c-0.037,0.004-0.037,0.008-0.035,0.011
						c-0.01,0-0.027,0.008,0.124-0.024l-3.003-3.007l0.001,0.004c-0.033,0.153-0.023,0.132-0.023,0.125c0.004,0,0.008,0,0.008-0.04
						c0.001-0.054,0.018-0.085,0.014-0.165c0-0.139,0.005-0.28-0.016-0.459c-0.017-0.325-0.086-0.706-0.172-1.081
						c-0.157-0.761-0.45-1.559-0.771-2.349c-0.143-0.397-0.36-0.787-0.539-1.187c-0.175-0.399-0.397-0.789-0.612-1.181
						c-0.407-0.789-0.913-1.548-1.387-2.318c-0.511-0.758-1.027-1.52-1.574-2.262c-0.57-0.729-1.103-1.488-1.705-2.199
						c-0.601-0.71-1.178-1.44-1.8-2.139l-1.884-2.097l-1.165-1.298l1.165-1.084h0.001c1.246-1.188,2.439-2.437,3.657-3.653
						l1.167-1.169l1.208,1.169l4.186,4.037c0.362,0.354,0.661,0.61,0.994,0.915c0.339,0.272,0.667,0.554,1.021,0.791
						c0.696,0.497,1.425,0.925,2.175,1.245c1.501,0.654,3.1,0.878,4.665,0.679c0.784-0.104,1.562-0.307,2.305-0.61
						c0.374-0.146,0.737-0.321,1.085-0.51c0.323-0.178,0.731-0.442,0.897-0.578l1.425-1.155l1.38,1.326l0.002,0.005l4.621,4.449
						l0.181,2.967l0,0c-0.079,0.09-0.284,0.389-0.416,0.61c-0.149,0.242-0.286,0.498-0.411,0.76c-0.257,0.523-0.462,1.07-0.618,1.63
						c-0.311,1.112-0.418,2.269-0.27,3.407c0.141,1.142,0.511,2.271,1.092,3.338c0.275,0.54,0.627,1.054,0.993,1.564l0.557,0.706
						l0.711,0.788L93.477,191.575z"/>
				</g>
				<g>
					<g>
						<path fill="#722815" d="M62.385,169.786l3.654-3.657l4.379,4.377c7.94,7.938,15.445,2.073,15.445,2.073l2.269,2.265
							l-14.077,14.077C74.056,188.921,75.554,182.953,62.385,169.786z"/>
						<path fill="#562515" d="M93.197,200.594l3.657-3.653l-4.381-4.38c-7.942-7.941-2.072-15.444-2.072-15.444l-2.271-2.27
							l-14.077,14.074C74.056,188.921,80.028,187.424,93.197,200.594z"/>
					</g>
					
						<ellipse transform="matrix(0.7071 0.7072 -0.7072 0.7071 154.1272 -3.652)" opacity="0.5" fill="#421D13" enable-background="new    " cx="81.471" cy="184.203" rx="7.045" ry="5.195"/>
					
						<ellipse transform="matrix(0.7072 0.707 -0.707 0.7072 152.3457 -4.0779)" fill="none" stroke="#010101" stroke-width="0.9032" stroke-miterlimit="10" cx="81.096" cy="181.885" rx="5.139" ry="4.256"/>
					<g>
						
							<ellipse transform="matrix(0.7072 0.707 -0.707 0.7072 152.3457 -4.0779)" fill="#5754A4" cx="81.096" cy="181.885" rx="5.139" ry="4.256"/>
						<path fill="#402D88" d="M85.427,180.909c-0.286-0.725-0.716-1.423-1.324-2.033c-2.008-2.008-4.981-2.287-6.643-0.629
							c-0.543,0.546-0.856,1.234-0.993,1.976C79.146,179.631,82.405,180.128,85.427,180.909z"/>
						<path fill="#231E5F" d="M76.782,182.91c0.284,0.702,0.708,1.388,1.304,1.979c2.009,2.013,4.982,2.29,6.644,0.629
							c0.615-0.613,0.961-1.408,1.054-2.27C83.028,184.209,79.746,184.201,76.782,182.91z"/>
					</g>
					<path fill="#8F321F" d="M72.68,174.083c1.421,0.732,2.745,1.275,4.074,1.732c1.935,0.491,3.821,0.639,5.505-0.244
						c1.161-0.61,3.198-1.148,3.512-2.629c0.028-0.132,0.09-0.218,0.145-0.318l-0.051-0.048c-1.931,1.434-4.146,1.823-4.146,1.823
						c-2.234,0.736-5.532-0.223-5.532-0.223c-3.069-0.896-5.616-3.525-5.616-3.525l-3.66-3.656
						C68.275,169.603,70.433,172.932,72.68,174.083z"/>
					<path fill="#421D13" d="M88.888,190.295c-0.728-1.425-1.272-2.743-1.726-4.071c-0.495-1.937-0.642-3.823,0.24-5.512
						c0.608-1.159,1.147-3.195,2.628-3.51c0.13-0.023,0.216-0.089,0.314-0.146l0.052,0.053c-1.433,1.931-1.825,4.146-1.825,4.146
						c-0.487,2.059,0.223,5.533,0.223,5.533c0.899,3.072,3.523,5.611,3.523,5.611l3.658,3.664
						C93.367,194.701,90.043,192.542,88.888,190.295z"/>
				</g>
			</g>
		</g>
		<polygon opacity="0.7" fill="#FFFFFF" enable-background="new    " points="100.061,152.969 114.243,160.636 116.768,158.113 
			101.732,151.296 		"/>
		<polygon opacity="0.7" fill="#FFFFFF" enable-background="new    " points="102.73,150.3 118.815,156.046 122.721,152.158 
			104.199,148.831 		"/>
	</g>
</g>
</svg>
