<?xml version="1.0" encoding="utf-8"?>
<!-- Generator: Adobe Illustrator 16.0.0, SVG Export Plug-In . SVG Version: 6.00 Build 0)  -->
<!DOCTYPE svg PUBLIC "-//W3C//DTD SVG 1.1//EN" "http://www.w3.org/Graphics/SVG/1.1/DTD/svg11.dtd">
<svg version="1.1" id="Layer_1" xmlns="http://www.w3.org/2000/svg" xmlns:xlink="http://www.w3.org/1999/xlink" x="0px" y="0px"
	 width="256.875px" height="257.085px" viewBox="0 0 256.875 257.085" enable-background="new 0 0 256.875 257.085"
	 xml:space="preserve">
<g>
	<radialGradient id="SVGID_1_" cx="128.9692" cy="128.9683" r="126.5" gradientUnits="userSpaceOnUse">
		<stop  offset="0" style="stop-color:#FFFFFF;stop-opacity:0"/>
		<stop  offset="0.7419" style="stop-color:#EF7100"/>
		<stop  offset="0.8656" style="stop-color:#F20606"/>
		<stop  offset="0.9462" style="stop-color:#F20606;stop-opacity:0"/>
	</radialGradient>
	<path fill="url(#SVGID_1_)" d="M128.969,2.468c-69.864,0-126.501,56.637-126.501,126.5c0,69.864,56.637,126.5,126.501,126.5
		c69.862,0,126.5-56.636,126.5-126.5C255.469,59.105,198.832,2.468,128.969,2.468z M223.505,150.102l-44.055-6.759l48.548,20.691
		l-50.682-14.504l48.621,30.512l-51.636-24.596l41.837,32.138l-45.521-26.636l33.422,33.96l-37.744-29.01l32.571,41.457
		l-37.495-37.014l28.065,53.2l-33.455-49.484l21.167,48.235l-27.066-45.28l14.979,50.596l-21.152-48.241l8.475,51.963
		l-14.965-50.508l4.019,59.22l-10.582-58.582l-4.647,52.508l-1.932-52.697l-10.511,43.801l4.018-44.811l-17.611,49.764l11.263-51.59
		l-26.998,58.107l20.939-60.636l-29.413,43.728l23.697-47.035l-34.655,39.667l29.424-43.721l-30.75,25.208l26.096-29.884
		l-43.459,29.904l39.376-35.064l-33.523,17.312l30.137-23.009l-49.517,18.187l46.86-24.184l-51.383,11.739l49.522-18.078
		l-40.688,2.573l39.594-9.107l-52.707-1.305l52.481-5.226l-68.531-8.569l69.131,1.956l-50.731-14.398l52.104,7.994L39.289,96.566
		l41.379,11.794L26.938,77.542l56.698,24.947L41.799,70.398L87.32,96.987l-37.505-37.05l41.827,32.102L50.438,41.542l46.128,46.099
		l-27.08-45.229l32.514,41.466L80.787,35.643l27.067,45.235L96.395,38.342l17.681,40.275l-8.569-52.011l14.965,50.555l-1.534-62.119
		l8.097,61.435l4.647-52.509l1.979,52.697l11.247-51.544L140.2,77.676l15.993-42.687l-9.644,44.464l23.636-47.088l-17.624,49.666
		l29.365-43.729l-23.648,47.083l40.66-44.841l-35.477,48.849l48.477-36.349l-43.776,40.977l34.982-22.307l-30.897,27.515
		l59.691-32.185l-56.259,37.835l38.249-12.354l-35.686,18.398l45.2-10.359l-43.245,16.698l60.24-6.218l-59.193,12.705L224.984,126
		l-43.515,4.371l55.469,9.671l-56.068-3.104L223.505,150.102z"/>
</g>
</svg>
