<?xml version="1.0" encoding="utf-8"?>
<!-- Generator: Adobe Illustrator 16.0.0, SVG Export Plug-In . SVG Version: 6.00 Build 0)  -->
<!DOCTYPE svg PUBLIC "-//W3C//DTD SVG 1.1//EN" "http://www.w3.org/Graphics/SVG/1.1/DTD/svg11.dtd">
<svg version="1.1" id="Layer_1" xmlns="http://www.w3.org/2000/svg" xmlns:xlink="http://www.w3.org/1999/xlink" x="0px" y="0px"
	 width="426.309px" height="426.309px" viewBox="0 0 426.309 426.309" enable-background="new 0 0 426.309 426.309"
	 xml:space="preserve">
<g>
	<radialGradient id="SVGID_1_" cx="212.9688" cy="213.9688" r="211.5" gradientUnits="userSpaceOnUse">
		<stop  offset="0" style="stop-color:#FFFFFF;stop-opacity:0"/>
		<stop  offset="0.7312" style="stop-color:#0287C1"/>
		<stop  offset="0.7957" style="stop-color:#143AC6"/>
		<stop  offset="0.8871" style="stop-color:#0287C1;stop-opacity:0"/>
	</radialGradient>
	<path fill="url(#SVGID_1_)" d="M212.969,2.469c-116.814,0-211.5,94.686-211.5,211.5c0,116.815,94.686,211.5,211.5,211.5
		c116.815,0,211.5-94.685,211.5-211.5C424.469,97.155,329.784,2.469,212.969,2.469z M371.04,249.317l-73.679-11.32l81.185,34.603
		l-84.732-24.26l81.265,51.031l-86.327-41.138l69.967,53.729l-76.098-44.539l55.87,56.797l-63.114-48.522l54.462,69.32
		l-62.696-61.892l46.936,88.973l-55.955-82.76l35.403,80.672l-45.27-75.729l25.057,84.601l-35.379-80.649l14.193,86.868
		l-25.035-84.432l6.708,99.022l-17.664-97.975l-7.775,87.806l-3.236-88.097l-17.572,73.223l6.71-74.907l-29.437,83.188
		l18.828-86.262l-45.129,97.146l35-101.366l-49.175,73.111l39.623-78.627l-57.949,66.301l49.192-73.1l-51.398,42.146l43.627-49.967
		l-72.665,49.997l65.839-58.629l-56.059,28.943l50.387-38.467l-82.792,30.422l78.358-40.438l-85.911,19.643l82.8-30.254
		l-68.037,4.323l66.206-15.231l-88.127-2.172l87.748-8.75L10.609,197.379l115.588,3.257l-84.825-24.064l87.117,13.371
		l-65.461-30.144l69.184,19.711l-89.833-51.517l94.796,41.711l-69.954-53.659l76.116,44.45L80.625,98.548l69.938,53.675
		l-68.897-84.43l77.133,77.072l-45.274-75.617l54.36,69.334l-35.473-80.641l45.252,75.627L158.502,62.44l29.561,67.337
		l-14.322-86.958l25.019,84.537l-2.558-103.861l13.528,102.709l7.776-87.791l3.311,88.113l18.819-86.191l-7.905,87.878
		l26.751-71.376l-16.124,74.342l39.53-78.726l-29.49,83.037l49.102-73.113l-39.515,78.717l67.962-74.971l-59.294,81.681
		l81.042-60.785l-73.184,68.515l58.469-37.286l-51.658,45.991l99.813-53.802l-94.069,63.253l63.955-20.654l-59.684,30.761
		l75.575-17.322l-72.304,27.915l100.725-10.391l-98.948,21.244l73.129,3.763l-72.784,7.318l92.757,16.166l-93.744-5.204
		L371.04,249.317z"/>
</g>
</svg>
