<?xml version="1.0" encoding="utf-8"?>
<!-- Generator: Adobe Illustrator 15.0.0, SVG Export Plug-In . SVG Version: 6.00 Build 0)  -->
<!DOCTYPE svg PUBLIC "-//W3C//DTD SVG 1.1//EN" "http://www.w3.org/Graphics/SVG/1.1/DTD/svg11.dtd">
<svg version="1.1" id="Layer_1" xmlns="http://www.w3.org/2000/svg" xmlns:xlink="http://www.w3.org/1999/xlink" x="0px" y="0px"
	 width="99.47px" height="62.364px" viewBox="0 0 99.47 62.364" enable-background="new 0 0 99.47 62.364" xml:space="preserve">
<g>
	<path fill="#A6A8AB" d="M98.768,43.393c0-0.13-0.003-0.287-0.005-0.415c0.062-0.189,0.113-0.411,0.17-0.631
		c-2.635-9.078-5.631-17.954-8.306-27.013c-1.855-2.691-3.974-5.122-6.469-7.207C77.94,2.975,70.355,0.493,62.545,0
		c-0.559,0.118-1.138,0.233-1.718,0.34c-0.518,0.107-1.021,0.181-1.547,0.282c-0.738,0.382-1.473,0.773-2.237,1.127
		c-0.818,0.536-1.786,0.965-2.867,1.202c-1.758,0.621-3.346,0.697-4.719,0.341c-0.863,0.134-1.734,0.25-2.609,0.338
		c-1.541,0.396-3.093,0.764-4.663,1.118c-1.109,0.316-2.2,0.643-3.297,0.96c-1.341,1.005-2.654,2.033-3.995,3.032
		c-0.54,0.428-1.121,0.818-1.71,1.238c-0.754,0.741-1.508,1.482-2.255,2.246c-0.56,1.294-1.104,2.579-1.612,3.835
		c-0.031-0.001-0.076-0.004-0.118-0.004c-0.304,0-0.599,0.078-0.883,0.182c-0.083,0.167-0.189,0.36-0.297,0.517
		c-2.246,4.16-6.439,5.726-9.582,7.511c-2.481,1.427-4.833,3.278-7.125,5.287c-4.467,5.665-7.497,12.311-9.767,19.187
		c-0.134,0.43-0.298,0.808-0.471,1.174c-0.113,0.569-0.253,1.14-0.467,1.659c-0.011,0.06-0.022,0.087-0.048,0.122
		c-0.15,0.418-0.347,0.801-0.555,1.171H0c1.073,0.591,2.166,1.162,3.257,1.711c1,0.489,2.027,0.951,3.039,1.419
		c0.323,0.124,0.89,0.345,1.725,0.683c4.772,1.684,9.637,3.188,14.62,4.17c0.836,0.183,7.604,1.08,5.704,0.952
		c2.357,0.229,4.72,0.434,7.089,0.486c4.967,0.156,9.927,0.092,14.874-0.315c0.821-0.082,7.822-0.985,5.687-0.584
		c2.437-0.408,4.876-0.799,7.294-1.291c4.995-1.034,9.959-2.193,14.879-3.585c7.145-2.012,14.193-4.3,21.181-6.825
		C99.628,47.494,99.424,45.291,98.768,43.393z"/>
	<g>
		<path fill="#58595B" d="M42.594,22.005c-2.989-5.531-3.935-10.772-1.432-16.96c-0.753,0.187-1.5,0.421-2.232,0.655
			c-1.346,1.011-2.689,2.032-4.039,3.041c-0.54,0.428-1.121,0.818-1.71,1.238c-0.754,0.741-1.508,1.482-2.255,2.246
			c-0.56,1.294-1.104,2.579-1.612,3.835c-0.009,0-0.017-0.001-0.024-0.001c0.701,1.46,1.638,2.659,2.677,3.459
			c3.226,5.586,6.406,11.235,9.334,17.242c0.368,0.778,0.806,1.399,1.251,1.922c0.138,0.192,0.258,0.413,0.395,0.626
			c0.416,0.612,0.859,1.148,1.299,1.562c0.031,0.062,0.046,0.092,0.065,0.126c1.147,2.029,2.456,3.095,3.751,3.438
			c-0.472-4.278-1.593-8.218-2.132-12.461C45.363,27.54,44.452,25.422,42.594,22.005z"/>
		<path fill="#58595B" d="M25.234,20.129c-2.152,1.812-4.704,2.943-6.799,4.137c-2.481,1.427-4.833,3.278-7.125,5.287
			c-4.467,5.665-7.497,12.311-9.767,19.187c-0.134,0.43-0.298,0.808-0.471,1.174c-0.113,0.569-0.253,1.14-0.467,1.659
			c-0.011,0.06-0.022,0.087-0.048,0.122c-0.15,0.418-0.347,0.801-0.555,1.171H0c1.073,0.591,2.166,1.162,3.257,1.711
			c1,0.489,2.027,0.951,3.039,1.419c0.323,0.124,0.89,0.345,1.725,0.683c0.381,0.122,0.754,0.245,1.122,0.374
			c0.333-1.878,0.792-3.682,1.264-5.501c0.016-0.752,0.122-1.529,0.31-2.238c-0.079-1.904,0.328-3.88,1.237-5.168
			c0.109-1.301,0.454-2.536,1.04-3.512c0.565-1.454,1.554-2.525,2.96-2.637c0.231-0.331,0.473-0.61,0.768-0.839
			c0.806-1.502,1.529-3.116,2.344-4.532c0.573-0.986,1.218-1.983,1.829-2.985c0.128-0.302,0.285-0.564,0.468-0.8
			c0.004-0.01,0.013-0.022,0.036-0.034c0.709-1.264,1.331-2.588,1.708-4.125c0.134-0.58,0.311-1.107,0.507-1.562
			c0.349-1.187,0.938-2.171,1.674-2.837C25.263,20.239,25.25,20.169,25.234,20.129z"/>
		<path fill="#58595B" d="M62.631,23.682c0.441,1.901,1.203,3.495,1.851,5.171c0.122,0.461,0.233,0.897,0.339,1.188
			c0.109,0.335,0.241,0.692,0.402,1.056c0.61,2.407,1.249,4.914,2.348,6.839c0.896,3.817,1.956,7.572,3.151,11.162
			c0.501,3.059,1.256,6.075,2.286,8.784c1.735-0.443,3.452-0.896,5.159-1.372c0.165-0.036,0.313-0.069,0.481-0.141
			c2.932-3.809,6.168-7.333,9.537-10.324c-2.028-2.181-3.38-2.524-5.964-2.485c-2.216,0.064-3.887-2.821-3.972-6.124
			c-0.053-2.75-2.325-7.647-3.083-10.251c-0.954-3.282-1.99-7.562-3.692-10.109c-0.594-0.869-3.664-0.504-4.811-0.803
			c-1.675-0.397-3.176-1.204-4.559-2.495c-0.417,1.874-0.342,3.914,0.089,5.884C62.172,20.922,62.3,22.257,62.631,23.682z"/>
	</g>
	<g>
		<path fill="#E6E7E8" d="M98.763,42.978c0.062-0.189,0.113-0.411,0.17-0.631c-2.635-9.078-5.631-17.954-8.306-27.013
			c-1.855-2.691-3.974-5.122-6.469-7.207c-4.048-3.362-8.681-5.572-13.564-6.891c1.31,1.97,2.574,4.002,4.002,5.795
			c0.486,0.594,0.816,1.234,1.045,1.914c0.6,0.474,1.141,1.233,1.575,2.387c2.851,7.734,3.418,16.419,6.953,23.524
			c1.174,1.027,2.375,1.868,3.769,2.3c2.251,0.66,4.184,1.7,5.956,4.02c1.041,1.323,1.332,3.504,1.083,5.467
			c0.374,1.382,0.621,2.817,0.823,4.301c1.184-0.427,2.366-0.82,3.548-1.259c0.28-2.191,0.076-4.395-0.58-6.292
			C98.768,43.263,98.765,43.106,98.763,42.978z"/>
		<path fill="#E6E7E8" d="M32.656,37.063c1.522,3.613,3.455,5.528,5.384,8.469c0.771,1.178,1.214,2.154,1.747,2.841
			c2.759-1.165,5.524-2.252,8.295-3.317c-0.734-2.468-1.677-4.592-2.732-6.554c-0.279-0.294-0.545-0.616-0.857-0.88
			c-0.292-0.277-0.586-0.526-0.861-0.771c0.122-0.036-1.199-2.868-1.342-3.236c-0.048-0.088-0.094-0.163-0.125-0.224
			c-0.564-0.817-1.121-1.635-1.695-2.458c-0.098-0.105-0.121-0.113-0.094-0.019c-0.089-0.185-0.185-0.343-0.271-0.527
			c-0.454-0.641-0.908-1.313-1.349-2.001c-2.946-4.488-5.639-9.525-9.32-12.612c-0.028,0.104-0.076,0.208-0.119,0.285
			c-0.031-0.001-0.076-0.004-0.118-0.004c-0.304,0-0.599,0.078-0.883,0.182c-0.083,0.167-0.189,0.36-0.297,0.517
			c-0.596,1.125-1.343,2.049-2.169,2.816C28.262,25.276,30.24,31.312,32.656,37.063z"/>
	</g>
	<path fill="#929497" d="M58.869,38.967c-0.171-1.036-0.173-1.984-0.053-2.829c-0.699-1.739-0.816-4.008-0.344-5.914
		c-0.187-0.78-0.363-1.531-0.578-2.298c-0.407-1.453-0.438-2.88-0.23-4.165c-0.538-0.8-0.946-1.82-1.135-2.943
		c-0.414-0.927-0.693-2.029-0.776-3.247c-0.362-0.9-0.585-1.989-0.585-3.112V7.231c-0.002-1.486-0.056-3.001-0.108-4.513
		c-0.277,0.096-0.57,0.147-0.858,0.226c-0.444,0.149-0.893,0.274-1.312,0.372c-0.294,2.389-0.657,4.785-1.243,7.068
		c0.041,1.174-0.126,2.418-0.469,3.548c-0.236,0.802-0.473,1.6-0.709,2.401c-0.369,1.821-0.764,3.673-1.224,5.464
		c-0.228,0.907-0.537,1.715-0.913,2.372c0.138,1.363,0.275,2.696,0.386,4.062c0.051,0.577,0.149,1.11,0.275,1.65
		c0.004,0.578,0.054,1.161,0.139,1.749c0.275,1.676,0.538,3.353,0.763,5.071c-0.012,0.618,0,1.273,0.058,1.911
		c0.009,0.116,0.032,0.239,0.04,0.362c-0.126,1.044-0.115,2.133,0.108,3.25c0.03,0.285,0.08,0.598,0.14,0.867
		c0.039,0.214,0.072,0.428,0.104,0.645c0.021,0.192,0.052,0.418,0.063,0.639c0.015,1.07,0.074,2.13,0.124,3.202
		c0,0.003,0,0.037,0,0.04c-0.002-0.057-0.002,0.145,0.002,0.542c0.004,0.447,0.04,0.89,0.066,1.292
		c0.011,0.291,0.034,0.551,0.043,0.813c0.021,0.556,0.058,1.084,0.079,1.632c0.046,1.162,0.089,2.324,0.091,3.494
		c0,0.173,0.014,0.37,0.018,0.54c-3.298,0.673-7.24-1.76-10.651-1.348c-1.88-1.64-3.996-2.927-5.872-3.273
		c-0.588-0.828-1.187-1.633-1.793-2.389c-0.018-0.001-0.019-0.008-0.021-0.01c0.003-3.161-0.414-6.346-1.492-8.554
		c-0.153-1.251-0.396-2.447-0.858-3.547c-0.557-1.392-1.3-2.541-2.12-3.412c-1.704,7.275-3.094,14.496-5.422,21.477
		c-0.605,1.854-1.226,3.714-1.834,5.567c0.63,0.133,1.242,0.28,1.874,0.404c0.836,0.183,7.604,1.08,5.704,0.952
		c2.357,0.229,4.72,0.434,7.089,0.486c4.967,0.156,9.927,0.092,14.874-0.315c0.821-0.082,7.822-0.985,5.687-0.584
		c1.298-0.213,2.588-0.432,3.878-0.662c-0.151-0.876-0.293-1.781-0.463-2.682c-0.505-2.713,0.161-4.858,1.256-6.164
		C60.13,47.551,59.571,43.26,58.869,38.967z"/>
</g>
</svg>
