<?xml version="1.0" encoding="utf-8"?>
<!-- Generator: Adobe Illustrator 16.0.0, SVG Export Plug-In . SVG Version: 6.00 Build 0)  -->
<!DOCTYPE svg PUBLIC "-//W3C//DTD SVG 1.1//EN" "http://www.w3.org/Graphics/SVG/1.1/DTD/svg11.dtd">
<svg version="1.1" id="Layer_1" xmlns="http://www.w3.org/2000/svg" xmlns:xlink="http://www.w3.org/1999/xlink" x="0px" y="0px"
	 width="100.008px" height="100px" viewBox="-36.566 -36.462 100.008 100" enable-background="new -36.566 -36.462 100.008 100"
	 xml:space="preserve">
<g>
	<path fill="#565656" d="M55.242,26.401c2.021-3.275,3.578-6.715,4.693-10.281c0.207-2.756-0.152-5.437-0.566-8.302
		c-1.008-7.084-0.564-14.574-4.887-20.724c-3.875-5.51-9.053-11.164-14.662-15.019c-11.135-7.646-25.604-10.256-38.225-4.396
		c-6.616,3.087-11.738,8.169-16.501,13.521c-3.514,3.94-6.962,7.829-9.737,12.217c0.1,0.462,0.044,0.985-0.268,1.521
		c-4.141,7.158-6.698,14.979-8.173,23.021c-0.154,5.395,0.177,10.806,1.017,16.148c2.009,5.9,5.362,11.253,10.096,15.321
		c7.019,6.035,15.3,9.163,24.657,9.303c8.232,0.118,15.642-2.541,23.003-5.8C37.727,47.606,48.438,37.417,55.242,26.401z"/>
	<path fill="#9D9D9D" d="M59.369,7.817c-1.008-7.084-0.564-14.574-4.887-20.724c-3.875-5.51-9.053-11.164-14.662-15.019
		c-11.135-7.646-25.604-10.256-38.225-4.396c-6.616,3.087-11.738,8.169-16.501,13.521c-3.514,3.94-6.962,7.829-9.737,12.212
		c0.1,0.466,0.044,0.99-0.268,1.526c-4.088,7.08-6.644,14.798-8.121,22.743c-0.021,0.16-0.036,0.329-0.053,0.498
		c-0.078,2.896-0.009,5.804,0.194,8.699c0.015,0.063,0.023,0.131,0.036,0.193c2.541-3.418,5.554-6.402,9.192-8.386
		c4.681-2.563,9.366-2.812,14.492-1.436c6.743,1.807,11.795,7.007,18.493,8.627c-1.213-3.486-3.21-6.693-6.072-9.473
		C-1.75,11.553-7.882,8.167-14.114,5.086c-0.684-0.337-1.015-0.848-1.119-1.393c-1.009-0.565-1.635-1.771-0.869-3.033
		C-11.5-6.942-5.384-14.337,2.737-18.494c8.203-4.202,17.111-4.871,25.992-2.446c0.404,0.108,0.725,0.293,0.975,0.528
		c0.182,0.091,0.367,0.173,0.545,0.272c0.328,0.177,0.572,0.389,0.754,0.631c1.887,0.38,2.381,3.617,0.047,4.459
		c-6.373,2.309-11.375,7.217-14.696,12.953c5.077-3.366,11.374-4.896,17.651-4.111C44.951-4.836,51.949,1.718,59.492,8.773
		C59.455,8.444,59.42,8.143,59.369,7.817z"/>
	<path fill="#303030" d="M53.84,24.578c-2.852,2.469-5.73,4.913-8.596,7.369c-2.195,1.883-4.412,3.761-6.686,5.567
		c-0.047,0.042-0.09,0.089-0.141,0.131c-5.592,5.107-12.277,8.981-19.246,12.029c-0.531,0.118-1.055,0.228-1.578,0.32
		c0.371-0.515,0.701-1.063,1-1.646c-0.934-0.41-1.633-1.352-1.346-2.601c0.725-3.178-0.296-6.677-1.064-9.767
		c-0.844-3.377-3.19-5.268-5.611-7.547c-0.168,0.127-0.327,0.258-0.475,0.397c3.167,7.015-1.25,15.042-6.012,20.335
		c-0.956,1.063-2.204,0.853-3.02,0.109c-0.049,0.051-0.097,0.105-0.148,0.161c-8.878-1.861-17.585-5.732-25.334-9.261
		c-0.354-0.164-0.709-0.27-1.051-0.32c-0.251-0.19-0.498-0.38-0.747-0.566c-1.267-0.945-2.56-0.831-3.571-0.168
		c-0.062,0.042,3.406,7.022,3.699,7.593c1.319,2.57,2.87,5.119,5.172,6.951c5.477,4.355,14.393,6.567,21.148,7.96
		c7.072,1.461,14.293,1.165,21.352-0.173c8.678-1.642,14.941-8.298,20.242-14.764C45.209,42.566,49.16,38.852,52,34.335
		c1.313-2.093,2.102-4.389,3.242-6.566c1.207-2.284,2.684-4.445,3.457-6.923c0.291-0.945,0.615-1.865,0.971-2.769
		C57.834,20.34,56.094,22.627,53.84,24.578z"/>
</g>
</svg>
