<?xml version="1.0" encoding="utf-8"?>
<!-- Generator: Adobe Illustrator 16.0.0, SVG Export Plug-In . SVG Version: 6.00 Build 0)  -->
<!DOCTYPE svg PUBLIC "-//W3C//DTD SVG 1.1//EN" "http://www.w3.org/Graphics/SVG/1.1/DTD/svg11.dtd">
<svg version="1.1"
	 id="Layer_1" sodipodi:docname="mitsu_leg.svg" inkscape:version="0.48.2 r9819" xmlns:dc="http://purl.org/dc/elements/1.1/" xmlns:cc="http://creativecommons.org/ns#" xmlns:rdf="http://www.w3.org/1999/02/22-rdf-syntax-ns#" xmlns:inkscape="http://www.inkscape.org/namespaces/inkscape" xmlns:svg="http://www.w3.org/2000/svg" xmlns:sodipodi="http://sodipodi.sourceforge.net/DTD/sodipodi-0.dtd"
	 xmlns="http://www.w3.org/2000/svg" xmlns:xlink="http://www.w3.org/1999/xlink" x="0px" y="0px" width="21.738px"
	 height="39.984px" viewBox="0 0 21.738 39.984" enable-background="new 0 0 21.738 39.984" xml:space="preserve">
<path id="path61_1_" inkscape:connector-curvature="0" fill="#757575" d="M3.955,30.979c-0.059,9.469-1.856,6.998,7.035,7.037
	c8.892,0.043,7.803,2.063,7.862-7.406c0.059-9.471-1.195-14.671-6.452-14.671C6.01,15.939,4.015,21.507,3.955,30.979L3.955,30.979z"
	/>
<path id="path67_1_" inkscape:connector-curvature="0" fill="#B5B5B5" d="M4.767,36.474c0,0-0.906-9.244,7.24-8.457
	c0,0,6.286-0.456,6.286,6.679C18.294,34.696,6.219,33.51,4.767,36.474L4.767,36.474z"/>
<g id="g63_1_">
	<path id="path65_1_" inkscape:connector-curvature="0" d="M5.14,30.983c-0.053,1.119-0.132,2.25-0.231,3.363l-0.147,1.657
		c-0.048,0.521-0.093,1.119-0.024,1.435c0.014,0.071,0.03,0.094,0.007,0.078c-0.024-0.017-0.058-0.019-0.007,0.006
		c0.107,0.043,0.408,0.063,0.701,0.061c0.604-0.002,1.273-0.045,1.929-0.067c1.322-0.052,2.659-0.05,3.975,0.006
		c1.321,0.03,2.641,0.114,3.938,0.211c0.644,0.041,1.297,0.094,1.876,0.061c0.612-0.059,0.857-0.188,1.01-0.645
		c0.252-0.939,0.133-2.109,0.08-3.197c-0.092-1.109-0.196-2.225-0.366-3.344h-0.004c0.111-2.961,0.071-5.959-0.587-8.795
		c-0.33-1.396-0.825-2.797-1.742-3.783c-0.9-1-2.24-1.343-3.817-1.186c-1.535,0.12-2.848,0.724-3.764,1.744
		c-0.926,1.016-1.497,2.345-1.881,3.717C5.329,25.075,5.234,28.04,5.14,30.983L5.14,30.983z M2.769,30.969
		c-0.021-3.024,0.178-6.088,1.082-9.143c0.476-1.515,1.144-3.065,2.414-4.404c0.635-0.662,1.437-1.248,2.361-1.646
		c0.92-0.406,1.936-0.618,2.919-0.683c0.946-0.063,2.025-0.025,3.029,0.299c1.014,0.313,1.897,0.92,2.51,1.614
		c1.229,1.414,1.675,2.998,2.012,4.516c0.322,1.528,0.433,3.053,0.542,4.565c0.096,1.515,0.157,3.021,0.192,4.527h-0.005
		c-0.187,1.104-0.268,2.215-0.341,3.328l-0.094,1.684c-0.041,0.57-0.074,1.138-0.279,1.76c-0.104,0.308-0.31,0.675-0.702,0.91
		c-0.389,0.232-0.805,0.289-1.163,0.322c-0.724,0.062-1.378,0.021-2.034-0.004c-1.305-0.057-2.593-0.104-3.881-0.096
		c-1.292,0.022-2.566,0.104-3.845,0.235c-0.645,0.063-1.273,0.146-1.97,0.203c-0.356,0.021-0.72,0.06-1.245-0.041
		c-0.26-0.055-0.598-0.188-0.834-0.418c-0.242-0.225-0.354-0.465-0.424-0.662c-0.234-0.771-0.183-1.303-0.21-1.885l0.011-1.678
		C2.82,33.171,2.809,32.077,2.769,30.969L2.769,30.969z"/>
</g>
<sodipodi:namedview  id="namedview69" inkscape:current-layer="g3" inkscape:window-y="0" inkscape:window-x="330" inkscape:window-height="1032" inkscape:window-width="1920" inkscape:pageshadow="2" inkscape:pageopacity="0" inkscape:window-maximized="0" bordercolor="#666666" showgrid="false" pagecolor="#ffffff" gridtolerance="10" inkscape:zoom="5.9023608" inkscape:cy="19.992001" inkscape:cx="-9.6307716" objecttolerance="10" guidetolerance="10" borderopacity="1">
	</sodipodi:namedview>
<path id="path61" inkscape:connector-curvature="0" fill="#757575" d="M1.883,22.385C1.807,35.71-0.51,32.236,10.948,32.29
	c11.458,0.062,10.055,2.904,10.131-10.422c0.076-13.327-1.54-20.644-8.313-20.644C4.532,1.225,1.961,9.059,1.883,22.385
	L1.883,22.385z"/>
<path fill="#B5B5B5" d="M20.341,21.655c0,0-3.784,6.389-17.572,8.061l-0.685,1.99l2.163,0.618h8.504l5.67,0.336l2.111-0.954
	l0.826-2.736L20.341,21.655z"/>
<g id="g63">
	<path id="path65" inkscape:connector-curvature="0" d="M3.411,22.394c-0.066,1.573-0.17,3.164-0.298,4.731l-0.191,2.332
		c-0.061,0.734-0.117,1.576-0.03,2.019c0.019,0.102,0.039,0.133,0.01,0.108c-0.033-0.021-0.074-0.022-0.01,0.008
		c0.139,0.062,0.525,0.091,0.902,0.087c0.78-0.003,1.643-0.063,2.486-0.097c1.703-0.072,3.426-0.067,5.121,0.008
		c1.703,0.043,3.402,0.162,5.074,0.298c0.828,0.059,1.671,0.133,2.416,0.086c0.789-0.082,1.104-0.265,1.302-0.906
		c0.324-1.322,0.172-2.969,0.103-4.5c-0.116-1.563-0.252-3.131-0.471-4.705H19.82c0.144-4.167,0.092-8.386-0.755-12.375
		C18.638,7.523,18,5.552,16.819,4.164c-1.161-1.407-2.888-1.89-4.921-1.667C9.92,2.665,8.23,3.514,7.05,4.95
		c-1.192,1.429-1.929,3.299-2.424,5.23C3.655,14.079,3.531,18.252,3.411,22.394L3.411,22.394z M0.356,22.375
		C0.33,18.117,0.585,13.808,1.75,9.509c0.613-2.132,1.475-4.313,3.11-6.195c0.816-0.933,1.852-1.756,3.043-2.318
		c1.187-0.571,2.493-0.87,3.761-0.959c1.221-0.088,2.61-0.037,3.904,0.42c1.307,0.44,2.445,1.294,3.233,2.272
		c1.583,1.988,2.158,4.219,2.593,6.353c0.416,2.152,0.556,4.296,0.696,6.425c0.124,2.132,0.204,4.253,0.249,6.372h-0.006
		c-0.239,1.558-0.345,3.115-0.438,4.685l-0.121,2.369c-0.052,0.801-0.095,1.598-0.359,2.477c-0.133,0.43-0.397,0.947-0.903,1.279
		c-0.503,0.328-1.037,0.407-1.499,0.455c-0.933,0.084-1.775,0.024-2.621-0.007c-1.684-0.079-3.344-0.146-5.002-0.137
		c-1.665,0.033-3.309,0.148-4.954,0.334c-0.83,0.088-1.642,0.203-2.539,0.285c-0.459,0.027-0.926,0.084-1.604-0.059
		c-0.335-0.076-0.77-0.265-1.075-0.586c-0.313-0.316-0.457-0.654-0.547-0.933c-0.302-1.088-0.233-1.834-0.271-2.653l0.014-2.359
		C0.42,25.469,0.406,23.931,0.356,22.375L0.356,22.375z"/>
</g>
<path id="path67" inkscape:connector-curvature="0" fill="#636363" d="M3.75,15.607c0,0-0.11-14.455,10.388-13.151
	c0,0,2.823,0.084,4.283,4.649C18.421,7.105,8.9,4.469,3.75,15.607L3.75,15.607z"/>
</svg>
