<?xml version="1.0" encoding="utf-8"?>
<!-- Generator: Adobe Illustrator 16.0.0, SVG Export Plug-In . SVG Version: 6.00 Build 0)  -->
<!DOCTYPE svg PUBLIC "-//W3C//DTD SVG 1.1//EN" "http://www.w3.org/Graphics/SVG/1.1/DTD/svg11.dtd">
<svg version="1.1" id="Layer_1" xmlns="http://www.w3.org/2000/svg" xmlns:xlink="http://www.w3.org/1999/xlink" x="0px" y="0px"
	 width="22.65px" height="12.219px" viewBox="0 0 22.65 12.219" enable-background="new 0 0 22.65 12.219" xml:space="preserve">
<path fill="#424242" d="M15.571,11.19c1.714-0.013,6.365,0.339,6.06-2.463c-0.144-1.29-1.178-2.438-2.019-3.353
	c-1.676-1.822-3.691-3.504-6.161-4.062c-0.689-0.155-1.441-0.291-2.152-0.291c-0.71,0-1.462,0.136-2.153,0.291
	C6.676,1.871,4.66,3.55,2.983,5.375C2.144,6.289,1.107,7.436,0.966,8.727c-0.307,2.802,4.345,2.45,6.059,2.463
	C8.451,11.199,14.145,11.199,15.571,11.19z"/>
<path fill="#5E5D5E" d="M6.951,10.901c0,0-5.583-5.333,2.833-9.833c0,0-6.667,1.666-8.833,6.833v1.875l1,1.375h1.583L6.951,10.901z"
	/>
<path fill="#303030" d="M13.244,1.267l4.458,2.218l2.166,2.083l1.174,1.915v2.141l-1.34,1.277l-2.559,0.25l-1.779-0.008
	C15.364,11.143,20.286,8.549,13.244,1.267z"/>
<g>
	<g>
		<path d="M15.593,9.904c1.082,0.04,2.068,0.103,3.027,0.021c0.942-0.061,1.889-0.354,2.112-0.78
			c0.138-0.199,0.162-0.56,0.068-0.968c-0.095-0.398-0.292-0.813-0.551-1.217c-0.516-0.797-1.253-1.613-1.939-2.344
			c-1.405-1.475-3.101-2.726-5.072-3.148c-1.006-0.232-2.001-0.355-2.979-0.172c-0.51,0.082-0.988,0.184-1.496,0.33
			C8.304,1.76,7.828,1.958,7.386,2.189C5.59,3.112,4.135,4.627,2.835,6.215C2.207,6.989,1.679,7.859,1.678,8.629
			C1.675,9.016,1.788,9.231,2.033,9.431C2.284,9.629,2.687,9.784,3.131,9.87c0.897,0.178,1.912,0.17,2.938,0.139L9.242,9.92
			c2.106-0.071,4.222-0.078,6.321-0.019L15.593,9.904z M15.594,11.965h-0.017c-2.12,0.078-4.227,0.068-6.34-0.006l-3.156-0.086
			c-1.079-0.021-2.196-0.065-3.354-0.385c-0.574-0.166-1.188-0.4-1.733-0.9c-0.567-0.49-0.852-1.373-0.756-2.039
			c0.152-1.371,0.937-2.324,1.65-3.139c1.46-1.576,3.081-3.086,5.081-4.06c0.503-0.235,1.006-0.44,1.562-0.599
			c0.508-0.141,1.064-0.254,1.598-0.332c1.111-0.184,2.253-0.059,3.299,0.178c2.193,0.451,4.1,1.73,5.694,3.184
			c0.807,0.756,1.538,1.469,2.261,2.383c0.348,0.457,0.668,0.979,0.871,1.595c0.188,0.594,0.299,1.364-0.056,2.12
			c-0.354,0.752-1.027,1.18-1.606,1.427c-0.597,0.249-1.18,0.376-1.749,0.463C17.719,11.939,16.605,11.936,15.594,11.965z"/>
	</g>
</g>
</svg>
