<?xml version="1.0" encoding="utf-8"?>
<!-- Generator: Adobe Illustrator 16.0.0, SVG Export Plug-In . SVG Version: 6.00 Build 0)  -->
<!DOCTYPE svg PUBLIC "-//W3C//DTD SVG 1.1//EN" "http://www.w3.org/Graphics/SVG/1.1/DTD/svg11.dtd">
<svg version="1.1"
	 id="Layer_1" xmlns:sodipodi="http://sodipodi.sourceforge.net/DTD/sodipodi-0.dtd" xmlns:inkscape="http://www.inkscape.org/namespaces/inkscape" xmlns:svg="http://www.w3.org/2000/svg" xmlns:dc="http://purl.org/dc/elements/1.1/" xmlns:cc="http://creativecommons.org/ns#" xmlns:rdf="http://www.w3.org/1999/02/22-rdf-syntax-ns#" sodipodi:docname="ninja_weapon_1.svg" inkscape:version="0.48.2 r9819"
	 xmlns="http://www.w3.org/2000/svg" xmlns:xlink="http://www.w3.org/1999/xlink" x="0px" y="0px" width="33.984px"
	 height="115.349px" viewBox="0 -5.349 33.984 115.349" enable-background="new 0 -5.349 33.984 115.349" xml:space="preserve">
<sodipodi:namedview  id="namedview41" showgrid="false" pagecolor="#ffffff" guidetolerance="10" inkscape:cy="51.189313" gridtolerance="10" inkscape:cx="24.104946" inkscape:zoom="8" objecttolerance="10" borderopacity="1" bordercolor="#666666" inkscape:current-layer="g3" inkscape:window-y="0" inkscape:window-x="12" inkscape:window-height="1032" inkscape:window-width="1920" inkscape:pageshadow="2" inkscape:pageopacity="0" inkscape:window-maximized="0">
	</sodipodi:namedview>
<g>
	<g>
		<g>
			<path d="M14.986,19.249l-1.284,0.438c-0.213,0.08-0.494,0.149-0.742,0.222c-0.518,0.157-1.006,0.258-1.501,0.371
				c-0.99,0.211-1.979,0.36-2.967,0.479c-0.494,0.063-0.987,0.094-1.48,0.143c-0.494,0.053-0.985,0.065-1.478,0.094
				c-0.986,0.067-1.965,0.056-2.947,0.079l1.362-1.362c0.048,1.148,0.023,2.295,0.006,3.443l-1.369-1.369l2.194,0.007l1.097,0
				l0.548,0l0.585,0.008c0.186,0.006,0.352,0.005,0.578,0.026l0.318,0.024l0.313,0.031l0.211,0.028l0.135,0.023l0.271,0.045
				l0.27,0.046l0.135,0.023l0.152,0.029l0.067,0.017l0.352,0.089l0.263,0.079l0.597,0.183c0.278,0.1,0.368,0.148,0.561,0.226
				c0.185,0.082,0.412,0.197,0.614,0.298l0.058,0.029l0.049,0.035l0.633,0.452l0.576,0.411l-0.032,0.737v0
				c-0.015,2.931-0.085,5.86-0.132,8.791l-0.225,8.786c-0.133,5.858-0.397,11.711-0.606,17.566
				c-0.107,2.928-0.215,5.855-0.374,8.781l-0.436,8.777l-0.55,8.771c-0.083,1.463-0.216,2.924-0.322,4.385
				c-0.109,1.461-0.224,2.922-0.359,4.383l-0.364-0.986h0l9.183,8.959l-2.951,0.072v-0.002l8.396-8.98l-0.321,0.938l0,0
				c-0.273-2.924-0.464-5.85-0.698-8.773l-0.561-8.777c-0.374-5.852-0.643-11.709-0.91-17.564
				c-0.241-5.859-0.472-11.717-0.604-17.579l-0.188-8.794c-0.014-2.934-0.074-5.865-0.047-8.8l0.008-0.83l0.595-0.359l0.002-0.001
				l0.333-0.215l0.252-0.153c0.288-0.172,0.415-0.209,0.604-0.309c0.222-0.093,0.454-0.198,0.688-0.276l0.618-0.191l0.142-0.042
				l0.237-0.064l0.287-0.07l0.658-0.115l0.291-0.049l0.417-0.049l0.593-0.045l0.69-0.02l0.591,0l1.181-0.001l2.362,0l-1.362,1.362
				v-3.443l1.362,1.362c-0.988-0.024-1.973-0.012-2.965-0.08c-0.495-0.03-0.989-0.041-1.486-0.095
				c-0.497-0.049-0.993-0.082-1.49-0.145c-0.994-0.122-1.99-0.273-2.985-0.487c-0.995-0.213-1.99-0.492-2.979-0.854l-0.833-0.306
				l-0.044-0.901v-0.001c-0.34-1.323-0.544-2.653-0.7-3.985c-0.151-1.333-0.254-2.667-0.304-4.004
				c-0.053-1.337-0.081-2.676-0.047-4.017c0.029-1.341,0.093-2.684,0.271-4.032l0.214-1.629l1.146,0.201l0.002,0h0.187h0.023h0.003
				c0.024-0.001-0.216,0.009-0.114,0.004h0.001h0.002l0.006,0l0.011-0.001l0.047-0.004l0.093-0.008
				c0.053-0.008-0.086-0.004-0.114,0.017c-0.044,0.016-0.051,0.013-0.073,0.031c-0.048,0.022-0.102,0.066-0.162,0.144
				c-0.063,0.078-0.108,0.202-0.128,0.341v0.052l0.001,0.013l0.01,0.166V1.489L19.2,1.483L19.197,1.46l-0.011-0.092
				c-0.006-0.074-0.004,0.046,0.011,0.099c0.014,0.064,0.039,0.128,0.07,0.181c0.043,0.103,0.118,0.166,0.163,0.203
				c0.053,0.039,0.096,0.05,0.126,0.063c0.02,0.001,0.034,0.004,0.046,0.008l0.021-0.003l-0.092,0l-1.072-0.001l-0.223-0.939
				c-0.053-0.22-0.445-0.558-0.947-0.599c-0.062-0.01-0.125-0.008-0.188-0.012c0.02,0.002-0.24,0.007-0.21,0.016
				c0.002,0.001-0.075,0.01-0.009,0l-0.167,0.036c-0.147,0.027-0.131,0.044-0.173,0.054L16.517,0.48
				c0.118-0.05,0.032-0.013,0.059-0.024l-0.001,0l-0.003,0.001l-0.005,0.002l-0.01,0.004l-0.02,0.009L16.498,0.49l-0.077,0.035
				c-0.072,0.035,0.097-0.048,0.079-0.039l-0.001,0l-0.003,0.001l-0.005,0.002l-0.009,0.005l-0.02,0.01l-0.037,0.02l-0.151,0.08
				c-0.054,0.028-0.029,0.026-0.049,0.038c-0.038,0.018-0.131,0.112-0.173,0.156l-0.099,0.111c-0.073,0.074-0.117,0.142-0.138,0.19
				L14.572,1.92c0.047-0.001,0.109-0.007,0.218-0.093c0.059-0.044,0.114-0.119,0.166-0.234c0.021-0.058,0.036-0.12,0.047-0.188
				l0.001-0.051L15.002,1.33l-0.01-0.166v0.001l0,0.002l0,0.006l0.001,0.011l0.011,0.089l0.005,0.045
				c0-0.031-0.003-0.063-0.008-0.095c-0.01-0.063-0.03-0.125-0.059-0.181c-0.041-0.087-0.051-0.104-0.092-0.147
				c-0.049-0.068-0.108-0.104-0.147-0.125c-0.041-0.021-0.075-0.03-0.103-0.034c0.007-0.006-0.07,0.001,0.005,0.001h0.181h1.362V2.1
				v0.001v1.362h-1.362h-0.04l0,0l1.361-1.293c0.162,0.679,0.242,1.354,0.325,2.03c0.071,0.674,0.12,1.348,0.146,2.021
				c0.053,1.345,0.032,2.686-0.049,4.024c-0.085,1.338-0.198,2.674-0.398,4.006c-0.087,0.667-0.213,1.332-0.34,1.996
				c-0.141,0.664-0.285,1.328-0.491,1.989L14.986,19.249z M12.457,17.217c-0.055-0.384-0.123-0.764-0.164-1.147
				c-0.06-0.674-0.118-1.348-0.138-2.02c-0.066-1.345-0.045-2.687,0.005-4.026c0.053-1.339,0.167-2.676,0.354-4.008
				c0.093-0.667,0.209-1.332,0.347-1.996c0.151-0.664,0.298-1.327,0.528-1.987l0.527-1.515l0.833,0.221l0,0h0.04l-1.362,1.362V2.1
				l1.362,1.362h-0.181c-0.045,0.002-0.242-0.01-0.355-0.023c-0.266-0.034-0.533-0.113-0.789-0.243
				c-0.255-0.128-0.501-0.32-0.712-0.566c-0.106-0.143-0.191-0.257-0.284-0.452c-0.049-0.112-0.09-0.23-0.122-0.35l-0.04-0.179
				l-0.005-0.045l-0.011-0.089l-0.012-0.19l0.003-0.07l0.013-0.141c0.017-0.19,0.063-0.367,0.134-0.536
				c0.134-0.342,0.35-0.604,0.583-0.813c0.473-0.405,1.024-0.562,1.55-0.568l-1.244,0.819c0.177-0.406,0.428-0.747,0.702-1.024
				l-0.099,0.111c0.257-0.299,0.489-0.53,0.838-0.755c0.198-0.132,0.295-0.178,0.389-0.228l0.156-0.08l0.077-0.035l0.138-0.06
				l0.137-0.048c0.175-0.06,0.403-0.129,0.481-0.14l0.166-0.037c0.177-0.038,0.215-0.033,0.329-0.049
				c0.256-0.028,0.225-0.019,0.472-0.029c0.164,0.004,0.328,0.008,0.493,0.03c0.657,0.073,1.314,0.3,1.894,0.704
				c0.576,0.399,1.087,0.996,1.336,1.759l-1.295-0.94h0.095l0.206,0.013c0.137,0.008,0.273,0.03,0.411,0.07
				c0.273,0.066,0.545,0.191,0.797,0.375c0.251,0.177,0.483,0.439,0.653,0.755c0.053,0.11,0.1,0.232,0.136,0.354
				c0.034,0.112,0.066,0.288,0.062,0.277l0.012,0.092l0.002,0.023l0.011,0.181l-0.001,0.036l-0.012,0.144
				c-0.027,0.389-0.19,0.746-0.394,1.025c-0.206,0.28-0.458,0.479-0.721,0.626c-0.136,0.066-0.252,0.125-0.415,0.177
				c-0.149,0.047-0.406,0.096-0.477,0.1l-0.093,0.008l-0.207,0.01H19.41l-0.002,0l1.36-1.428c0.308,1.325,0.501,2.655,0.661,3.987
				c0.164,1.332,0.266,2.667,0.343,4.002c0.08,1.336,0.108,2.674,0.086,4.015c-0.025,1.341-0.1,2.685-0.31,4.035v0.001l-0.877-1.207
				c0.826,0.302,1.693,0.547,2.586,0.738c0.893,0.193,1.808,0.332,2.73,0.445c0.46,0.058,0.929,0.089,1.393,0.135
				c0.463,0.051,0.936,0.061,1.403,0.089c0.936,0.065,1.884,0.053,2.826,0.077l1.362,0.034v1.328v3.443v1.361l-1.362,0l-2.361,0.001
				l-1.181,0.001h-0.59l-0.49,0.013l-0.584,0.045c0.039-0.004-0.238,0.029-0.17,0.019l-0.291,0.049l-0.505,0.084l-0.287,0.07
				l-0.035,0.009l-0.019,0.004l-0.009,0.002l-0.005,0.001c-0.085,0.023,0.114-0.031,0.093-0.025l-0.002,0l-0.07,0.021l-0.142,0.042
				l-0.511,0.154c-0.141,0.046-0.267,0.106-0.409,0.16c-0.16,0.082-0.404,0.185-0.447,0.227l-0.253,0.153l-0.016,0.01l-0.008,0.004
				l-0.004,0.002c-0.015,0.009,0.121-0.073,0.063-0.038l-0.001,0.001l-0.028,0.019l-0.055,0.037l-0.111,0.073l-0.001,0.001
				l0.603-1.189c0.277,2.922,0.468,5.848,0.705,8.772l0.563,8.778c0.369,5.852,0.64,11.708,0.9,17.566
				c0.233,5.857,0.466,11.715,0.594,17.578l0.191,8.793c0.017,2.934,0.077,5.865,0.053,8.801h0.001l0.042,0.463l-0.363,0.477
				l-7.462,9.77l-0.001,0.002l-1.577,1.693l-1.374-1.623L7.77,95.746h0l-0.36-0.354l-0.004-0.635c-0.01-1.465,0-2.932,0.017-4.396
				c0.02-1.465,0.012-2.932,0.054-4.396l0.201-8.787l0.315-8.783c0.091-2.928,0.233-5.854,0.377-8.779
				c0.291-5.852,0.528-11.706,0.896-17.554l0.526-8.774c0.204-2.923,0.383-5.848,0.619-8.77l0,0l0.544,1.148l-0.503-0.36
				l0.106,0.064l-0.372-0.183c-0.146-0.059-0.388-0.167-0.456-0.185l-0.452-0.134L9.015,24.79l-0.008-0.002l-0.004-0.001
				c-0.02-0.005,0.162,0.043,0.084,0.023l-0.002-0.001l-0.017-0.004l-0.033-0.008L8.968,24.78l-0.133-0.033l-0.066-0.016
				L8.76,24.729l-0.002,0c0.168,0.034,0.045,0.009,0.082,0.017l-0.004-0.001l-0.017-0.003l-0.034-0.005L8.65,24.713l-0.27-0.046
				l-0.271-0.046l-0.135-0.023l-0.017-0.003l-0.008-0.001l-0.004,0c-0.067-0.01,0.089,0.012,0.073,0.01l-0.002,0l-0.034-0.004
				l-0.068-0.008l-0.232-0.023L7.453,24.55c-0.139-0.017-0.338-0.018-0.518-0.023L6.424,24.52H5.875l-1.096-0.001l-2.192,0.006
				l-1.348,0.003l-0.021-1.372c-0.017-1.148-0.042-2.295,0.006-3.443v-1.328l1.362-0.034c0.937-0.023,1.879-0.011,2.809-0.076
				c0.465-0.027,0.935-0.038,1.395-0.088c0.461-0.045,0.927-0.074,1.385-0.133c0.917-0.111,1.827-0.249,2.715-0.438
				c0.44-0.101,0.892-0.195,1.293-0.318C12.277,17.271,12.365,17.242,12.457,17.217z"/>
		</g>
		<g>
			<path fill="#8D8D8D" d="M19.55,1.1c0-1.157-1.132-2.095-2.528-2.095c-1.397,0-2.53,0.938-2.53,2.095H19.55z"/>
			<path fill="#CECECD" d="M15.867-0.484c0.122-0.016,0.264-0.075,0.33-0.097c1.167-0.384,1.947,0.856,2.182,1.606
				c0.009,0.026-0.001,0.048,0.004,0.074h1.167c0-1.157-1.132-2.095-2.528-2.095c-0.311,0-0.621,0.052-0.909,0.149
				c-0.113,0.039-0.529,0.146-0.444,0.301C15.701-0.484,15.779-0.474,15.867-0.484z"/>
			<path fill="#787878" d="M18.103,0.639c-0.313-0.12-0.667-0.082-0.998-0.125C16.347,0.416,15.638,0.18,14.954-0.1
				c-0.37,0.355-0.61,0.804-0.61,1.313h4.227c-0.043-0.064-0.092-0.121-0.115-0.203C18.396,0.813,18.268,0.703,18.103,0.639z"/>
			<polygon fill="#722613" points="14.77,1.1 19.271,1.1 20.479,21.291 13.563,21.291 			"/>
			<g>
				<polygon fill="#391610" points="14.308,13.676 17.866,14.363 20.078,14.008 20.127,14.799 20.128,14.799 20.067,13.818 
					16.619,13.307 				"/>
				<polygon fill="#7F2819" points="20.129,14.837 20.127,14.799 20.078,14.008 17.866,14.363 13.876,15.003 13.822,15.862 				"/>
				<polygon fill="#391610" points="14.088,11.73 17.923,12.176 19.947,11.876 19.938,11.705 16.73,11.128 				"/>
				<polygon fill="#7F2819" points="14.308,13.676 16.619,13.307 20.003,12.766 19.981,12.414 19.947,11.876 17.923,12.176 
					14.015,12.754 14.003,12.919 13.961,13.609 				"/>
				<polygon fill="#391610" points="14.572,9.809 17.763,10.113 19.816,9.744 19.815,9.72 17.241,9.257 				"/>
				<polygon fill="#7F2819" points="14.088,11.73 16.73,11.128 19.857,10.414 19.852,10.313 19.816,9.744 17.763,10.113 
					14.428,10.713 14.138,10.766 14.077,11.73 				"/>
				<polygon fill="#391610" points="14.492,7.768 17.803,8.279 19.706,7.938 19.703,7.895 16.546,7.507 				"/>
				<polygon fill="#7F2819" points="14.572,9.809 17.241,9.257 19.754,8.736 19.745,8.58 19.706,7.938 17.803,8.279 14.805,8.818 
					14.251,8.918 14.199,9.773 				"/>
				<polygon fill="#391610" points="19.491,6.097 16.99,5.646 14.435,5.933 14.43,5.981 17.306,6.586 				"/>
				<polygon fill="#7F2819" points="14.492,7.768 16.546,7.507 19.654,7.112 19.652,7.08 19.593,6.115 19.491,6.097 17.306,6.586 
					14.383,7.241 14.353,7.248 14.322,7.741 				"/>
				<polygon fill="#7F2819" points="16.99,5.646 19.547,5.361 19.515,4.718 17.903,4.902 14.708,5.236 14.475,5.262 14.435,5.933 
									"/>
				<polygon fill="#391610" points="15.103,4.455 17.903,4.902 19.508,4.734 19.503,4.65 17.083,4.139 				"/>
				<polygon fill="#391610" points="19.399,2.975 19.39,2.82 16.341,2.101 14.671,2.101 14.645,2.527 17.881,3.168 				"/>
				<polygon fill="#7F2819" points="15.103,4.455 17.083,4.139 19.447,3.76 19.43,3.475 19.399,2.975 17.881,3.168 14.579,3.59 
					14.577,3.608 14.532,4.363 				"/>
			</g>
			<g>
				<polygon fill="#8D8D8D" points="8.688,94.816 17.424,104.193 17.424,88.547 				"/>
				<polygon fill="#787878" points="17.424,22.895 11.827,22.895 8.688,94.816 17.424,88.547 				"/>
				<polygon fill="#CECECD" points="17.424,88.547 17.424,104.193 25.354,94.816 				"/>
				<polygon fill="#BBBABA" points="25.354,94.816 22.214,22.895 17.424,22.895 17.424,88.547 				"/>
			</g>
			<polygon opacity="0.7" fill="#FFFFFF" points="23.959,59.824 9.237,76.752 9.82,69.467 23.765,57.467 			"/>
			<polygon opacity="0.7" fill="#FFFFFF" points="23.663,56.1 9.941,66.1 10.136,63.145 23.653,53.287 			"/>
			<path opacity="0.5" fill="#431B10" d="M13.93,18.148c0,0,3.169-4.021,3.091-7.563c0,0,0.466,6.188,3.09,7.563h-3.09H13.93z"/>
			<path opacity="0.5" fill="#4F4F4F" d="M22.987,23.881c0,0-2.508,5.563-2.508,7.893h-3.024h-4.399c0,0-0.123-6.136-2.623-8.061
				L22.987,23.881z"/>
			<g>
				<path d="M6.664,21.875l0.715,0.004c0.272,0.017,0.553,0.026,0.818,0.054c0.526,0.058,1.056,0.133,1.582,0.272
					c1.052,0.255,2.096,0.708,3.018,1.36c0.929,0.646,1.714,1.5,2.312,2.448c0.299,0.476,0.555,0.975,0.762,1.495
					c0.105,0.259,0.196,0.525,0.279,0.797c0.082,0.29,0.147,0.514,0.21,0.904l0.001,0.002l-1.481-1.311l4.274,0.08h0.001
					l-1.402,1.241c0.08-0.496,0.176-0.806,0.297-1.186c0.119-0.362,0.262-0.712,0.424-1.055c0.321-0.684,0.733-1.331,1.223-1.918
					C20.676,23.885,22,22.987,23.41,22.5c0.705-0.249,1.425-0.405,2.141-0.497c0.358-0.052,0.715-0.069,1.07-0.091
					c0.345-0.005,0.729-0.014,1.036-0.004l3.873,0.069l-1.119,1.12c0-1.148,0.025-2.295-0.002-3.443v-0.001l1.121,1.122
					l-1.948,0.031c-0.65,0.009-1.304-0.022-1.957-0.033c-0.653-0.011-1.311-0.076-1.967-0.112c-0.657-0.054-1.316-0.134-1.977-0.215
					c-0.661-0.11-1.323-0.198-1.987-0.358c-0.332-0.071-0.665-0.141-0.997-0.241c-0.333-0.098-0.666-0.173-0.999-0.299
					c-0.666-0.228-1.333-0.48-1.999-0.846c-0.334-0.181-0.665-0.372-0.999-0.626c-0.165-0.114-0.336-0.26-0.503-0.41
					c-0.082-0.07-0.175-0.172-0.261-0.259c-0.04-0.04-0.091-0.1-0.141-0.162c-0.047-0.059-0.092-0.106-0.189-0.26l-0.002-0.002
					h2.828c-0.099,0.154-0.145,0.204-0.19,0.262c-0.05,0.062-0.101,0.122-0.142,0.162c-0.085,0.087-0.178,0.189-0.26,0.259
					c-0.168,0.15-0.338,0.295-0.503,0.41c-0.335,0.253-0.665,0.445-0.999,0.626c-0.666,0.366-1.333,0.618-2,0.846
					c-0.333,0.126-0.666,0.201-0.999,0.299c-0.333,0.101-0.665,0.169-0.997,0.241c-0.664,0.16-1.326,0.248-1.987,0.358
					c-0.661,0.081-1.32,0.161-1.977,0.215c-0.657,0.036-1.314,0.101-1.967,0.112c-0.653,0.01-1.307,0.042-1.958,0.033l-1.948-0.031
					h0l1.122-1.122c-0.023,1.148-0.002,2.296-0.001,3.444l-1.12-1.12c1.375-0.016,2.75-0.059,4.125-0.101L6.664,21.875z
					 M6.631,24.316c-1.375-0.042-2.75-0.084-4.125-0.101l-1.12-0.013v-1.107c0-1.148,0.022-2.296-0.001-3.444l-0.022-1.086
					l1.144-0.036h0l1.872-0.099c0.623-0.035,1.24-0.108,1.858-0.16c0.619-0.053,1.226-0.157,1.838-0.232
					c0.607-0.093,1.208-0.208,1.805-0.323c0.587-0.142,1.184-0.261,1.748-0.441c0.286-0.083,0.573-0.162,0.844-0.267
					c0.271-0.103,0.558-0.186,0.813-0.306c0.524-0.221,1.039-0.46,1.47-0.743c0.216-0.137,0.429-0.283,0.59-0.429
					c0.094-0.073,0.157-0.143,0.223-0.209c0.038-0.035,0.046-0.058,0.071-0.084c0.016-0.017,0.014-0.019,0.013-0.02
					c0.004-0.005,0.008-0.017-0.048,0.07h2.828l-0.001-0.001c-0.056-0.087-0.05-0.073-0.047-0.069
					c-0.001,0.001-0.003,0.004,0.013,0.02c0.026,0.027,0.033,0.05,0.071,0.085c0.066,0.066,0.13,0.137,0.224,0.209
					c0.16,0.146,0.374,0.292,0.59,0.429c0.432,0.283,0.946,0.521,1.47,0.742c0.256,0.121,0.541,0.203,0.813,0.306
					c0.271,0.104,0.558,0.184,0.844,0.267c0.564,0.181,1.16,0.3,1.747,0.441c0.598,0.115,1.198,0.23,1.806,0.323
					c0.611,0.075,1.219,0.18,1.838,0.232c0.618,0.052,1.235,0.125,1.858,0.16l1.872,0.1l1.158,0.062l-0.037,1.06v0.001
					c-0.027,1.147-0.002,2.295-0.002,3.443l0.001,1.1l-1.12,0.02l-3.873,0.069c-0.337,0.003-0.599,0.023-0.898,0.038
					c-0.287,0.031-0.576,0.054-0.854,0.107c-0.562,0.094-1.104,0.236-1.61,0.438c-1.016,0.399-1.873,1.046-2.517,1.879
					c-0.319,0.417-0.591,0.879-0.798,1.372c-0.105,0.245-0.196,0.498-0.27,0.752c-0.069,0.235-0.137,0.552-0.151,0.695l-0.126,1.216
					l-1.276,0.025h-0.001l-4.274,0.08L13.4,29.575v0c-0.006-0.079-0.05-0.316-0.092-0.483c-0.046-0.184-0.099-0.37-0.164-0.552
					c-0.125-0.367-0.286-0.722-0.475-1.058c-0.379-0.671-0.873-1.266-1.479-1.733c-0.602-0.471-1.309-0.829-2.086-1.058
					c-0.384-0.124-0.792-0.2-1.204-0.267l-0.596-0.072l-0.705-0.037L6.631,24.316z"/>
			</g>
			<path opacity="0.5" fill="#431B10" d="M19.331,2.1l0.04,0.66c0,0-4.799,2.775-5.365,11.125l0.71-11.878L19.331,2.1z"/>
			<path fill="#562313" d="M13.569,1.328c0-0.426,0.415-0.771,0.929-0.771h5.044c0.515,0,0.931,0.346,0.931,0.771l0,0
				c0,0.426-0.416,0.771-0.931,0.771h-5.044C13.984,2.1,13.569,1.754,13.569,1.328L13.569,1.328z"/>
			<path fill="#39170F" d="M14.494,2.1c0,0,2.696,0,2.697,0c-0.1,0-0.214-0.209-0.282-0.255c-0.41-0.271-1-0.104-1.446-0.302
				c-0.457-0.204-0.752-0.583-0.898-0.986h-0.071c-0.514,0-0.929,0.346-0.929,0.771S13.98,2.1,14.494,2.1z"/>
			<path fill="#76301D" d="M16.86,0.748c0.151,0.193,0.439,0.266,0.683,0.348c0.321,0.109,0.618,0.257,0.92,0.396
				c0.324,0.15,0.464,0.375,0.489,0.607h0.594c0.514,0,0.931-0.346,0.931-0.771s-0.417-0.771-0.931-0.771c-0.744,0-1.487,0-2.232,0
				c-0.114,0-0.443,0.005-0.472,0.133C16.838,0.709,16.845,0.729,16.86,0.748z"/>
			<g>
				<g>
					<path fill="#722613" d="M31.532,19.713v3.443h-4.124c-7.479,0-8.25,6.299-8.25,6.299h-2.137v-13.26
						C17.021,16.195,19.128,19.713,31.532,19.713z"/>
					<path fill="#562313" d="M2.509,19.713v3.443h4.125c7.48,0,8.25,6.299,8.25,6.299h2.138v-13.26
						C17.021,16.195,14.914,19.713,2.509,19.713z"/>
				</g>
				<ellipse opacity="0.5" fill="#431B10" cx="15.752" cy="21.91" rx="4.692" ry="3.46"/>
				<g>
					<ellipse fill="#8D8D8D" cx="17.021" cy="22.826" rx="3.423" ry="2.836"/>
					<path fill="#CECECD" d="M15.439,25.324c0.475,0.207,1.008,0.335,1.581,0.335c1.892,0,3.424-1.269,3.424-2.833
						c0-0.512-0.178-0.984-0.463-1.398C19.001,22.969,17.23,24.271,15.439,25.324z"/>
					<path fill="#787878" d="M18.57,20.311c-0.467-0.198-0.988-0.32-1.548-0.32c-1.892,0-3.425,1.27-3.425,2.836
						c0,0.578,0.212,1.116,0.573,1.564C15.015,22.639,16.565,21.098,18.57,20.311z"/>
				</g>
				<path fill="#8E301E" d="M24.658,22.535c-1.014,0.326-1.892,0.693-2.733,1.104c-1.144,0.678-2.102,1.499-2.479,2.708
					c-0.261,0.833-0.966,2.046-0.415,2.892c0.048,0.074,0.059,0.145,0.08,0.217h0.048c0.234-1.584,1.094-2.813,1.094-2.813
					c0.705-1.4,2.711-2.501,2.711-2.501c1.867-1.022,4.303-0.983,4.303-0.983l3.447-0.002C28.843,22.57,26.26,22.02,24.658,22.535z"
					/>
				<path fill="#431B10" d="M9.388,22.535c1.014,0.326,1.892,0.693,2.733,1.104c1.144,0.678,2.101,1.499,2.481,2.708
					c0.259,0.833,0.965,2.046,0.415,2.892c-0.05,0.074-0.059,0.145-0.08,0.217h-0.05c-0.233-1.584-1.092-2.813-1.092-2.813
					c-0.74-1.197-2.712-2.501-2.712-2.501c-1.868-1.022-4.302-0.983-4.302-0.983l-3.448-0.002C5.205,22.57,7.787,22.02,9.388,22.535
					z"/>
			</g>
		</g>
	</g>
	
		<ellipse fill="none" stroke="#000000" stroke-width="1.0988" stroke-miterlimit="10" cx="17.099" cy="22.827" rx="3.423" ry="2.836"/>
	<g>
		<ellipse fill="#8D8D8D" cx="17.021" cy="22.826" rx="3.423" ry="2.836"/>
		<path fill="#CECECD" d="M15.439,25.324c0.475,0.207,1.008,0.335,1.581,0.335c1.892,0,3.424-1.269,3.424-2.833
			c0-0.512-0.178-0.984-0.463-1.398C19.001,22.969,17.23,24.271,15.439,25.324z"/>
		<path fill="#787878" d="M18.57,20.311c-0.467-0.198-0.988-0.32-1.548-0.32c-1.892,0-3.425,1.27-3.425,2.836
			c0,0.578,0.212,1.116,0.573,1.564C15.015,22.639,16.565,21.098,18.57,20.311z"/>
	</g>
</g>
</svg>
