<?xml version="1.0" encoding="utf-8"?>
<!-- Generator: Adobe Illustrator 16.0.0, SVG Export Plug-In . SVG Version: 6.00 Build 0)  -->
<!DOCTYPE svg PUBLIC "-//W3C//DTD SVG 1.1//EN" "http://www.w3.org/Graphics/SVG/1.1/DTD/svg11.dtd">
<svg version="1.1" id="Layer_1" xmlns="http://www.w3.org/2000/svg" xmlns:xlink="http://www.w3.org/1999/xlink" x="0px" y="0px"
	 width="139.777px" height="139.778px" viewBox="41.111 80.222 139.777 139.778"
	 enable-background="new 41.111 80.222 139.777 139.778" xml:space="preserve">
<g>
	<g>
		<g>
			<path fill="#DE1F26" d="M156.309,189.652c0,2.921-2.371,5.286-5.297,5.286H72.333c-2.924,0-5.294-2.365-5.294-5.286v-78.49
				c0-2.917,2.37-5.286,5.294-5.286h78.679c2.926,0,5.297,2.365,5.297,5.286V189.652z"/>
			<g>
				<path fill="#643D16" d="M140.668,194.934h10.344c2.926,0,5.297-2.36,5.297-5.281v-16.65c-2.077,2.666-4.149,5.157-6.226,7.644
					C146.168,185.529,144.943,190.793,140.668,194.934z"/>
				<path fill="#643D16" d="M99.725,105.877H72.333c-2.924,0-5.294,2.365-5.294,5.286v11.384c6.372-3.954,14.635-5.725,20.759-7.759
					C92.296,113.289,96.389,110.092,99.725,105.877z"/>
				<path fill="#7F4D1F" d="M95.896,121.619c3.114-3.726,11.835-1.863,17.438-4.969c3.932-2.523,5.203-6.437,5.41-10.771H99.725
					c-3.336,4.214-7.429,7.41-11.925,8.906c-6.127,2.034-14.387,3.803-20.762,7.757v25.203c1.648-2.445,2.889-5.672,5.189-6.241
					C84.064,138.399,89.043,130.936,95.896,121.619z"/>
				<path fill="#CB7529" d="M137.919,105.877h-19.171c-0.211,4.333-1.482,8.25-5.414,10.77c-5.602,3.108-14.324,1.247-17.435,4.971
					c-6.85,9.318-11.833,16.774-23.668,19.886c-2.302,0.573-3.539,3.796-5.189,6.241v24.712c3.139-1.448,6.257-2.836,8.306-6.102
					c3.738-6.214,3.738-14.292,9.963-17.395c6.851-3.106,14.325-5.597,16.816-11.81c4.36-10.563,15.572-16.775,25.537-21.126
					C132.011,114.167,135.123,110.294,137.919,105.877z"/>
				<path fill="#CB7529" d="M128.906,161.385c2.49-3.728,8.096-3.104,11.836-5.59c6.225-4.352,0-11.185,2.485-17.396
					c0.625-1.245,1.246-3.108,2.489-3.108c4.908-1.489,8.28-4.583,10.589-8.5v-7.319c-1.657,1.184-3.357,2.126-4.983,2.773
					c-13.08,5.592-18.685,16.776-26.777,27.961c-2.495,3.728-7.474,7.454-10.588,10.563c-8.676,9.734-10.743,22.764-17.296,34.172
					h11.288c0.889-2.316,1.64-4.785,2.268-7.455c0.625-3.73,4.364-6.212,8.098-8.695
					C124.545,175.054,125.168,166.977,128.906,161.385z"/>
				<path fill="#F8971D" d="M151.014,105.877h-1.681h-11.414c-2.793,4.417-5.908,8.291-10.258,10.148
					c-9.968,4.35-21.179,10.563-25.539,21.126c-2.491,6.213-9.963,8.699-16.815,11.81c-6.228,3.103-6.228,11.183-9.966,17.395
					c-2.043,3.266-5.167,4.656-8.304,6.102v17.195c0,2.921,2.369,5.281,5.294,5.281h11.565h12.764
					c6.554-11.408,8.62-24.437,17.296-34.17c3.111-3.108,8.093-6.838,10.588-10.563c8.093-11.183,13.703-22.366,26.777-27.961
					c1.622-0.649,3.326-1.587,4.983-2.771v-8.309C156.309,108.246,153.938,105.877,151.014,105.877z"/>
				<path fill="#7F4D1F" d="M145.722,135.289c-1.245,0-1.867,1.863-2.491,3.103c-2.488,6.216,3.736,13.05-2.488,17.399
					c-3.735,2.483-9.343,1.863-11.832,5.591c-3.734,5.595-4.361,13.669-10.588,17.398c-3.735,2.482-7.474,4.97-8.099,8.695
					c-0.63,2.67-1.378,5.142-2.268,7.455h21.853h10.859c4.277-4.142,5.5-9.409,9.415-14.29c2.08-2.481,4.153-4.976,6.229-7.646
					V155.5v-28.711C153.998,130.704,150.625,133.799,145.722,135.289z"/>
			</g>
		</g>
		<g>
			<path d="M157.079,189.689c-0.008,2.008-1.184,4.058-2.949,5.108c-0.88,0.548-1.9,0.839-2.937,0.883l-2.742,0.052l-10.874,0.188
				l-21.749,0.38l-43.496,0.86c-2.577,0.047-5.169-1.332-6.528-3.568c-0.705-1.1-1.096-2.397-1.157-3.704l-0.052-2.783
				l-0.176-10.852l-0.354-21.697c-0.2-14.465-0.302-28.927-0.324-43.393c-0.023-2.939,1.597-5.844,4.138-7.344
				c1.253-0.774,2.728-1.197,4.195-1.245l2.818-0.002l10.876,0.034l21.746,0.134c14.503,0.099,28.998,0.448,43.5,0.659
				c2.664,0.019,5.27,1.505,6.566,3.796c0.677,1.127,1.029,2.439,1.049,3.735l-0.05,2.782l-0.235,10.849l-0.469,21.697
				l-0.791,43.398v0.032H157.079z M155.538,189.652l-0.795-43.394l-0.469-21.697l-0.235-10.849l-0.066-2.639
				c-0.037-0.51-0.192-0.995-0.477-1.409c-0.548-0.844-1.514-1.335-2.484-1.306c-14.5,0.209-28.997,0.561-43.5,0.658l-21.746,0.134
				l-10.876,0.035l-2.617,0.015c-0.344,0.011-0.67,0.094-0.959,0.272c-0.603,0.346-0.965,1.004-0.978,1.692
				c-0.023,14.464-0.122,28.928-0.325,43.393l-0.351,21.694l-0.177,10.852l-0.038,2.633c0,0.5,0.111,0.996,0.366,1.435
				c0.485,0.9,1.468,1.5,2.524,1.541l43.497,0.861l21.748,0.378l10.876,0.185l2.697,0.04c0.777-0.019,1.552-0.225,2.219-0.637
				c1.374-0.794,2.183-2.313,2.166-3.932V189.652z"/>
		</g>
	</g>
	<g>
		<g>
			<g>
				<g>
					<path fill="#D68B28" d="M42.778,144c0.134-1.258,2.303-3.313,3.036-4.211c2.672-3.277,5.711-6.417,8.974-9.111
						c5.662-4.684,12.495-7.914,19.792-8.948c8.384-1.192,20.781,6.537,28.121,1.243c3.358-2.418,3.709-6.629,2.37-10.262
						c-6.661-18.063-27.393-21.276-41.779-9.843c-7.027,5.586-11.672,13.979-14.881,22.203c-1.89,4.863-3.361,9.914-4.649,14.968
						C43.432,141.313,42.916,142.697,42.778,144z"/>
					<path fill="#A96B28" d="M42.928,143.471c0,0,15.049-46.689,62.544-24.411l-2.889,4.994l-5.075,0.575l-8.846-1.333l-5.192-0.78
						l-6.626,0.249l-3.744-1l-5.583,2.13l-9.499,4.356c0,0-12.672,10.365-15.038,15.076"/>
					<path fill="#ED9522" d="M105.446,118.184c0,0-19.95-25.986-53.076-2.173c0,0,7.325-16.626,24.182-19.315
						c0,0,24.177-3.678,29.241,19.491L105.446,118.184z"/>
					<g>
						<path fill="#010101" d="M42.778,144c0,0,0.037-0.165,0.109-0.496c0.123-0.313,0.348-0.776,0.727-1.313
							c0.76-1.069,1.987-2.532,3.531-4.4c0.775-0.933,1.636-1.968,2.567-3.095c1.053-1.041,2.191-2.165,3.409-3.373
							c0.6-0.584,1.248-1.269,1.952-1.809c0.693-0.574,1.375-1.181,2.188-1.74c0.787-0.583,1.6-1.177,2.478-1.69
							c0.858-0.553,1.75-1.085,2.704-1.565c3.781-1.982,8.157-3.651,13.167-4.187c5.292-0.271,10.151,1.438,15.148,2.336
							c2.474,0.44,5.017,0.787,7.32,0.395c0.553-0.149,1.153-0.19,1.65-0.438l0.785-0.298c0.243-0.131,0.468-0.291,0.707-0.429
							l0.356-0.21l0.09-0.051l0.043-0.025c-0.25,0.196-0.039,0.029-0.084,0.065l0.189-0.172l0.762-0.675
							c0.251-0.228,0.27-0.39,0.428-0.571c0.135-0.163,0.265-0.345,0.368-0.609c1.006-1.808,0.822-4.422,0-6.489l-0.84-1.896
							l-0.423-0.953c-0.146-0.302-0.321-0.541-0.48-0.814l-0.965-1.603c-0.325-0.538-0.782-1.017-1.165-1.526
							c-3.11-4.138-7.8-6.837-12.754-7.976c-4.991-0.942-10.238-0.561-14.829,1.273c-4.601,1.785-8.609,4.647-11.776,7.996
							c-3.142,3.32-5.616,7.058-7.576,10.633c-1.949,3.629-3.486,7.008-4.642,10.207c-0.6,1.578-1.19,3.049-1.685,4.419
							c-0.44,1.387-0.844,2.656-1.208,3.805c-0.715,2.309-1.347,4.113-1.753,5.35C42.953,143.333,42.778,144,42.778,144z
							 M42.778,144c0,0,0.109-0.684,0.319-1.973c0.298-1.266,0.726-3.125,1.28-5.488c0.281-1.188,0.603-2.499,0.944-3.93
							c0.394-1.411,0.88-2.912,1.366-4.536c0.904-3.232,2.256-6.923,4.08-10.698c1.833-3.798,4.159-7.79,7.461-11.508
							c3.235-3.682,7.459-7.004,12.547-9.075c5.036-2.113,10.937-2.814,16.669-1.716c5.687,1.233,11.187,4.364,14.817,9.109
							c0.443,0.597,0.942,1.135,1.336,1.79l1.158,1.964c0.425,0.666,0.709,1.301,0.971,1.936l0.818,1.899
							c0.587,1.599,0.962,3.043,0.95,4.695c-0.008,1.596-0.267,3.285-1.106,4.767c-0.306,0.726-1.052,1.558-1.565,2.125
							l-0.766,0.672l-0.194,0.162l-0.181,0.151l-0.068,0.036l-0.121,0.081l-0.518,0.309c-0.35,0.192-0.693,0.404-1.046,0.58
							l-1.109,0.405c-0.739,0.316-1.502,0.371-2.247,0.541c-3.015,0.419-5.806-0.076-8.419-0.597
							c-2.614-0.557-5.091-1.23-7.482-1.809c-2.395-0.563-4.708-1.01-6.853-0.941c-4.518,0.323-8.815,1.687-12.476,3.375
							c-0.931,0.41-1.812,0.873-2.653,1.359c-0.872,0.445-1.649,0.975-2.435,1.458c-0.791,0.456-1.532,1.03-2.262,1.55
							c-0.761,0.504-1.343,1.057-2,1.607c-1.268,1.087-2.459,2.104-3.554,3.043c-1.014,1.058-1.943,2.027-2.784,2.902
							c-1.657,1.774-3.059,3.084-3.891,4.068c-0.423,0.49-0.671,0.91-0.825,1.206C42.83,143.839,42.778,144,42.778,144z"/>
					</g>
				</g>
				<g>
					<path fill="#D68B28" d="M66.679,82.968c1.04-0.072,3.009,1.39,3.839,1.853c3.036,1.687,6.008,3.705,8.651,5.953
						c4.591,3.906,8.167,8.966,10.034,14.702c2.143,6.594-2.375,17.678,2.951,22.852c2.429,2.369,5.896,2.055,8.648,0.464
						c13.695-7.918,13.381-25.085,2.09-35.078c-5.517-4.879-12.969-7.441-20.088-8.87c-4.204-0.841-8.505-1.315-12.778-1.643
						C68.952,83.117,67.76,82.893,66.679,82.968z"/>
					<path fill="#A96B28" d="M67.128,83.015c0,0,39.951,5.56,28.589,46.992l-4.45-1.624l-1.183-4.011l-0.164-7.318l-0.099-4.302
						l-1.136-5.308l0.276-3.166l-2.507-4.201l-3.766-5.162c0,0-11.285-10.641-15.441-11.883"/>
					<path fill="#ED9522" d="M96.425,129.867c0,0,18.247-19.749-5.712-43.106c0,0,14.505,3.561,19.057,16.777
						c0,0,6.386,18.979-11.676,26.321L96.425,129.867z"/>
					<g>
						<path fill="#010101" d="M66.679,82.968c0,0,0.143,0.007,0.418,0.017c0.273,0.049,0.682,0.16,1.173,0.386
							c0.981,0.456,2.348,1.218,4.087,2.188c0.868,0.492,1.835,1.033,2.882,1.615c0.999,0.697,2.081,1.451,3.238,2.255
							c0.29,0.202,0.581,0.41,0.882,0.622l0.227,0.156c0.144,0.112,0.156,0.133,0.243,0.207l0.41,0.36
							c0.552,0.494,1.12,0.997,1.701,1.512c1.215,0.949,2.231,2.369,3.4,3.706c0.613,0.661,1.099,1.418,1.572,2.198
							c0.493,0.779,0.989,1.568,1.498,2.377c0.46,0.832,0.797,1.749,1.21,2.643c0.195,0.457,0.394,0.912,0.596,1.373l0.147,0.349
							c0.037,0.09,0.032,0.038,0.097,0.248l0.05,0.17l0.197,0.707c0.998,4.315,0.306,8.472,0.29,12.609
							c-0.01,2.04,0.08,4.117,0.713,5.858c0.197,0.404,0.308,0.872,0.568,1.218l0.337,0.566l0.431,0.484l0.205,0.241l0.05,0.063
							c-0.047-0.041,0.143,0.128-0.096-0.081l0.038,0.033l0.162,0.127l0.649,0.517c0.215,0.166,0.326,0.144,0.479,0.235
							c0.128,0.078,0.279,0.147,0.495,0.191c1.489,0.519,3.514,0.022,5-0.887l1.415-0.945c0.49-0.316,0.953-0.632,1.288-0.971
							l1.129-0.985c0.384-0.326,0.7-0.76,1.059-1.134c2.864-3.039,4.367-7.125,4.592-11.208c0.063-4.091-0.958-8.215-3.051-11.624
							c-2.063-3.417-4.906-6.238-8.033-8.32c-3.094-2.054-6.448-3.54-9.604-4.629c-3.207-1.073-6.136-1.86-8.887-2.365
							c-1.359-0.267-2.635-0.553-3.812-0.762c-1.181-0.166-2.269-0.324-3.25-0.46c-1.964-0.266-3.517-0.542-4.57-0.706
							C67.245,83.022,66.679,82.968,66.679,82.968z M66.679,82.968c0,0,0.571-0.013,1.641-0.04c1.07,0.046,2.638,0.123,4.636,0.217
							c1.004,0.053,2.115,0.114,3.325,0.183c1.198,0.109,2.485,0.277,3.866,0.431c2.748,0.251,5.954,0.802,9.278,1.727
							c3.356,0.933,6.939,2.224,10.456,4.368c3.469,2.094,6.797,5.046,9.229,8.894c2.455,3.8,3.889,8.512,3.812,13.354
							c-0.2,4.827-1.986,9.779-5.359,13.429c-0.431,0.443-0.802,0.932-1.286,1.348l-1.455,1.23
							c-0.495,0.446-0.969,0.763-1.441,1.061l-1.426,0.931c-1.263,0.728-2.399,1.235-3.782,1.471
							c-1.341,0.226-2.793,0.257-4.169-0.232c-0.646-0.142-1.491-0.662-2.042-1.01l-0.654-0.521l-0.16-0.132l-0.038-0.033
							c-0.268-0.239-0.099-0.092-0.169-0.158l-0.083-0.096l-0.335-0.386c-0.211-0.267-0.438-0.523-0.639-0.791l-0.499-0.866
							c-0.37-0.568-0.528-1.188-0.772-1.789c-0.789-2.431-0.764-4.774-0.709-6.968c0.089-2.203,0.289-4.295,0.43-6.295
							c0.129-2.006,0.169-3.916-0.166-5.59l-0.164-0.715l-0.04-0.176c0.033,0.097-0.028-0.067-0.04-0.09l-0.123-0.324
							c-0.164-0.429-0.326-0.857-0.497-1.277c-0.339-0.843-0.616-1.702-0.983-2.509c-0.429-0.778-0.846-1.541-1.261-2.288
							c-0.399-0.76-0.803-1.503-1.325-2.126c-1.001-1.292-1.807-2.624-2.971-3.707c-0.536-0.567-1.057-1.112-1.564-1.651
							l-0.381-0.396c-0.047-0.051-0.155-0.167-0.155-0.162l-0.202-0.166c-0.269-0.226-0.536-0.448-0.798-0.665
							c-1.047-0.875-2.03-1.699-2.939-2.456c-0.993-0.676-1.904-1.295-2.73-1.862c-1.663-1.098-2.912-2.063-3.813-2.602
							c-0.456-0.27-0.828-0.422-1.091-0.503C66.816,82.989,66.679,82.968,66.679,82.968z"/>
					</g>
				</g>
				<g>
					<path fill="#D68B28" d="M63.29,117.694c0.456-0.459,1.991-0.591,2.572-0.717c2.129-0.455,4.363-0.742,6.534-0.778
						c3.785-0.061,7.564,0.841,10.825,2.764c3.748,2.212,6.23,9.291,10.881,9.523c2.127,0.105,3.622-1.469,4.257-3.354
						c3.15-9.386-4.128-17.322-13.585-17.354c-4.618-0.016-9.188,1.864-13.126,4.134c-2.331,1.337-4.548,2.9-6.69,4.51
						C64.418,116.824,63.763,117.214,63.29,117.694z"/>
					<path fill="#A96B28" d="M63.513,117.531c0,0,21.094-13.898,32.956,10.273l-2.768,1.076l-2.223-1.396l-3.115-3.369l-1.83-1.98
						l-2.739-2.03l-1.185-1.599l-2.924-0.941l-3.912-0.868c0,0-9.721-0.339-12.193,0.792"/>
					<path fill="#ED9522" d="M96.742,127.449c0,0,0.38-16.826-20.586-17.903c0,0,8.297-4.318,15.927,0.01
						c0,0,10.887,6.282,5.444,17.201L96.742,127.449z"/>
					<g>
						<path fill="#010101" d="M63.29,117.694c0,0,0.24-0.302,0.906-0.504c0.649-0.215,1.606-0.454,2.819-0.759
							c0.605-0.147,1.278-0.317,2.014-0.496c0.765-0.106,1.594-0.219,2.473-0.34c1.899-0.202,3.695-0.246,6.042,0.143
							c1.155,0.113,2.234,0.55,3.434,0.84c0.574,0.194,1.13,0.487,1.716,0.737l0.877,0.396l0.223,0.104
							c0.06,0.036,0.008-0.011,0.171,0.093l0.095,0.058l0.389,0.247c2.422,1.703,3.833,3.936,5.542,5.838
							c0.835,0.939,1.72,1.826,2.634,2.3c0.453,0.217,0.894,0.419,1.338,0.421l0.166,0.023l0.04,0.007c-0.068,0,0.182,0-0.146,0.004
							h0.031l0.129-0.005l0.523-0.029c0.232-0.085,0.188-0.039,0.408-0.154c0.683-0.256,1.349-1.2,1.61-2.068l0.271-1.028
							c0.103-0.356,0.186-0.694,0.197-0.958c0.071-0.566,0.159-1.134,0.125-1.765c0.092-2.467-0.832-4.85-2.329-6.764
							c-1.579-1.84-3.634-3.328-5.944-4.054c-2.281-0.738-4.705-0.93-6.984-0.655c-2.242,0.271-4.425,0.908-6.353,1.649
							c-1.956,0.782-3.642,1.569-5.177,2.438c-0.764,0.418-1.475,0.807-2.14,1.17c-0.631,0.386-1.217,0.742-1.75,1.062
							c-1.048,0.652-1.917,1.137-2.497,1.479C63.583,117.495,63.29,117.694,63.29,117.694z M63.29,117.694
							c0,0,0.253-0.253,0.738-0.728c0.506-0.437,1.256-1.08,2.211-1.897c0.485-0.408,1.021-0.858,1.601-1.344
							c0.599-0.471,1.269-0.927,1.97-1.447c1.371-1.04,3.118-2.163,5.068-3.145c1.972-0.998,4.203-1.926,6.81-2.408
							c2.553-0.49,5.427-0.521,8.27,0.299c2.831,0.786,5.588,2.435,7.656,4.853c2.005,2.45,3.287,5.672,3.225,8.931
							c0.025,0.8-0.093,1.64-0.239,2.479c-0.056,0.448-0.148,0.798-0.248,1.128l-0.284,1.024c-0.33,0.977-0.674,1.72-1.285,2.481
							c-0.591,0.729-1.341,1.416-2.307,1.806c-0.397,0.216-1.162,0.355-1.604,0.418l-0.523,0.02l-0.127,0.007h-0.038
							c-0.347-0.001-0.121-0.001-0.209-0.004l-0.09-0.011l-0.349-0.051c-0.957-0.1-1.806-0.499-2.559-0.916
							c-1.485-0.901-2.464-2.06-3.361-3.148c-1.745-2.148-3.09-4.421-4.646-5.658c-0.855-0.625-1.936-1.108-2.867-1.624
							c-1.017-0.347-1.988-0.86-2.962-1.048c-0.981-0.21-1.868-0.519-2.873-0.571c-0.487-0.054-0.961-0.108-1.422-0.157
							l-0.343-0.039c-0.034-0.002-0.156-0.013-0.117-0.013l-0.17,0.002c-0.215,0-0.428,0.004-0.634,0.005
							c-0.849,0-1.65,0.002-2.387,0.002c-0.753,0.066-1.439,0.124-2.067,0.185c-1.244,0.128-2.237,0.16-2.889,0.256
							C63.57,117.45,63.29,117.694,63.29,117.694z"/>
					</g>
				</g>
			</g>
			<polygon fill="#E8B97D" points="148.78,136.725 123.34,130.104 100.704,130.104 86.127,139.205 81.967,150.942 75.361,152.722 
				77.757,163.409 79.63,171.306 84.036,176.092 87.268,176.551 144.42,178.004 151.543,153.536 151.247,143.394 150.575,133 			"/>
			<path opacity="0.3" fill="#C08C4C" enable-background="new    " d="M73.969,152.18c0,0,45.984,51.063,79.056-6.174"/>
			<path opacity="0.5" fill="#C08C4C" enable-background="new    " d="M75.751,150.48c0,0,44.543,43.446,76.575-5.252"/>
			<g>
				<path fill="#010101" d="M105.742,171.946c-2.652,0.155-5.017-3.344-5.27-7.823c-0.25-4.478,1.694-8.24,4.354-8.401
					c2.652-0.155,5.019,3.343,5.266,7.823C110.346,168.021,108.396,171.784,105.742,171.946z"/>
			</g>
			<g>
				<path fill="#010101" d="M130.979,170.949c-2.649-0.194-4.537-3.968-4.197-8.443c0.337-4.476,2.76-7.947,5.413-7.759
					c2.654,0.19,4.533,3.964,4.192,8.44C136.058,167.662,133.633,171.133,130.979,170.949z"/>
			</g>
			<polygon fill="#767677" points="148.375,147.57 141.582,166.636 137.946,173.663 129.006,178.004 125.138,178.658 
				114.34,178.004 108.755,178.004 100.996,177.221 91.908,173.663 84.574,165.491 79.403,153.536 75.831,155.968 80.909,175.606 
				87.73,182.786 92.355,186.831 97.753,189.921 113.71,193.798 127.659,193.221 141.582,183.654 147.188,172.016 149.329,164.865 
				152.008,147.057 			"/>
			<path fill="#B5B6B6" d="M145.795,173.135c0,0-22.147,29.962-61.221,4.086l2.074,3.918l8.389,7.113l21.991,6.609l13.281-3.075
				l8.495-4.661l4.717-9.143L145.795,173.135z"/>
			<polygon fill="#767677" points="86.304,145.38 79.135,152.301 89.15,154.537 121.867,162.78 132.881,155.993 149.589,148.286 
				151.804,145.527 152.174,139.441 147.552,131.878 102.391,126.424 			"/>
			<path fill="#B5B6B6" d="M92.134,144.686c0,0,32.57,4.63,59.16-1.771l0.59-2.404l-10.62-5.47l-30.639-5.932l-13.045,3.878
				l-5.442,4.21v7.492L92.134,144.686L92.134,144.686z"/>
			<path fill="#010101" d="M153.287,143.841c-0.057-1.281-0.191-2.403-0.328-3.327c-0.116-0.923-0.309-1.611-0.395-2.102
				c-0.113-0.479-0.173-0.738-0.173-0.738l-1.017,0.06c0,0-0.036,0.261-0.092,0.753c-0.043,0.486-0.113,1.2-0.193,2.109
				c-0.075,0.895-0.152,1.979-0.235,3.23c-0.086,1.245-0.181,2.646-0.283,4.179c-0.102,1.529-0.268,3.182-0.498,4.927
				c-0.227,1.743-0.478,3.577-0.811,5.464c-0.69,3.766-1.624,7.754-2.938,11.627c-0.638,1.938-1.362,3.844-2.212,5.686
				c-3.082,6.666-7.641,11.047-14.082,14.504c-8.218,4.418-18.306,2.457-26.647-0.666l-3.661-1.146
				c-1.194-0.392-2.496-0.784-3.52-1.193c-2.154-0.878-4.084-2.213-5.857-3.732c-1.753-1.541-3.319-3.31-4.698-5.205
				c-1.347-1.93-2.404-3.703-3.704-6.305l-1.136,0.707c-0.465,2.707,0.73,5.013,2.12,7.106c1.353,2.133,2.979,4.16,4.925,5.958
				c1.923,1.813,4.246,3.348,6.856,4.443c2.64,0.989,5.015,1.685,7.571,2.432c2.523,0.72,5.066,1.379,7.667,1.948
				c10.212,2.219,20.861,1.736,28.85-5.825c1.917-1.816,3.865-4.043,5.209-6.319c1.049-1.78,1.919-3.675,2.69-5.619
				c0.731-1.929,1.553-3.885,2.231-5.894c1.396-3.998,2.428-8.106,3.162-11.997c0.338-1.95,0.662-3.84,0.827-5.648
				c0.187-1.806,0.313-3.517,0.37-5.1C153.375,146.584,153.358,145.133,153.287,143.841z"/>
			<path fill="#767677" d="M152.174,138.602c0,0-6.619-32.208-38.78-33.749c0,0-31.382-2.299-39.889,38.44c0,0-1.536,2.841,0,3.123
				c1.637,0.303,0.157,4.729,2.971,5.836c2.049,0.807,9.136-0.698,11.597,0c0,0,7.043-12.153,27.149-15.081
				c20.11-2.924,19.507-1.994,28.461,1.456C152.639,142.069,152.174,138.602,152.174,138.602z"/>
			<path fill="#636464" d="M114.71,131.756c0,0-22.097,7.014-28.395,21.952l-10.92-0.985l-1.894-5.155l4.347-3.793l19.797-8.653
				l17.652-4.115"/>
			<path fill="#010101" d="M120.723,172.491l2.669,4.933l-0.118-0.211l0.14,0.762c0.233,1.307,0.061,2.513-0.237,3.689
				c-0.162,0.585-0.33,1.166-0.618,1.725c-0.324,0.545-0.813,1.056-1.838,1.438c-0.737-0.802-0.946-1.471-0.989-2.104
				c0-0.625,0.108-1.217,0.225-1.813c0.267-1.187,0.65-2.338,1.453-3.405l0.02,0.555L120.723,172.491z"/>
			<path fill="#B5B6B6" d="M114.425,117.106c1.424-1.964,1.636-4.655,0.229-7.108c-1.581-2.746-3.999-4.929-7.386-4.485
				c0,0-27.151,3.677-33.773,37.781c1.658-1.816,3.594-4.514,5.484-6.57c3.739-4.082,9.778-10.454,14.813-12.865
				c5.464-2.611,11.534-2.459,17.211-4.311C112.472,119.07,113.637,118.203,114.425,117.106z"/>
			<path fill="#636464" d="M111.495,104.853c0,0,35.49,1.788,39.364,32.642c-5.824-10.387-27.688-12.042-35.892-25.585
				c-1.718-2.835-2.919-6.817-6.209-8.239C108.762,103.668,111.495,104.853,111.495,104.853z"/>
			<g>
				<path fill="#010101" d="M73.731,146.226c0,0,1.336-1.401,3.057-2.651c1.736-1.239,4.264-2.979,7.604-4.691
					c1.67-0.854,3.504-1.749,5.52-2.574c1.996-0.865,4.183-1.641,6.487-2.338c2.304-0.702,4.741-1.316,7.256-1.787
					c2.519-0.46,5.108-0.85,7.725-1.015c1.301-0.085,2.612-0.166,3.917-0.166c1.306-0.036,2.604-0.01,3.891,0.042
					c2.578,0.083,5.1,0.329,7.52,0.667c1.22,0.124,2.384,0.401,3.534,0.619c1.154,0.2,2.251,0.496,3.33,0.757
					c2.162,0.497,4.129,1.171,5.951,1.74c1.789,0.651,3.444,1.222,4.83,1.867c1.396,0.621,2.644,1.114,3.598,1.629
					c1.934,0.984,3.04,1.548,3.04,1.548l0.552,2.033c0,0-2.523-1.266-4.52-2.064c-0.977-0.437-2.229-0.837-3.637-1.345
					c-1.394-0.542-3.05-0.958-4.794-1.542c-1.79-0.471-3.711-1.046-5.801-1.436c-2.069-0.466-4.293-0.777-6.593-1.089
					c-2.301-0.289-4.694-0.494-7.13-0.54c-1.218-0.034-2.448-0.046-3.679,0.012c-1.232,0.008-2.469,0.107-3.7,0.205
					c-1.234,0.069-2.455,0.266-3.68,0.375c-1.213,0.179-2.429,0.342-3.621,0.565c-2.385,0.445-4.71,0.971-6.919,1.581
					c-4.415,1.249-8.427,2.74-11.715,4.267c-3.278,1.54-5.944,2.948-7.706,4.052c-1.793,1.085-2.959,2.116-2.961,2.116
					L73.731,146.226z"/>
			</g>
			<g>
				<path fill="#767677" d="M114.322,186.729c-2.23,0.1-8.31-0.132-7.772,3.494c0.251,1.67,1.652,3.107,2.793,4.264
					c2.268,2.279,4.979,4.369,8.225,4.979c0.902,0.166,1.891,0.313,2.819,0.276c0.924-0.037,1.897-0.254,2.791-0.485
					c3.188-0.851,5.734-3.127,7.826-5.584c1.053-1.226,2.348-2.77,2.468-4.454c0.268-3.655-5.779-2.972-8.011-2.902
					C123.602,186.372,116.181,186.648,114.322,186.729z"/>
				<path fill="#B5B6B6" d="M125.568,186.684c0,0,7.532,6.662-3.213,12.919c0,0,8.605-2.483,11.178-9.306l-0.091-2.439l-1.374-1.736
					l-2.061,0.078L125.568,186.684z"/>
				<path fill="#636464" d="M117.84,199.514l-5.917-2.662l-2.926-2.604l-1.62-2.429l-0.104-2.787l1.684-1.722l3.324-0.444
					l2.317-0.078C114.598,186.784,108.304,190.388,117.84,199.514z"/>
				<g>
					<g>
						<path fill="#010101" d="M114.358,188.399c-1.41,0.006-2.697-0.031-3.947,0.121c-1.217,0.124-2.442,0.555-2.712,1.117
							c-0.171,0.265-0.187,0.729-0.04,1.263c0.145,0.511,0.421,1.041,0.776,1.555c0.712,1.013,1.712,2.034,2.641,2.946
							c1.902,1.854,4.171,3.402,6.761,3.851c1.32,0.259,2.623,0.365,3.892,0.082c0.659-0.133,1.275-0.287,1.932-0.504
							c0.589-0.195,1.204-0.476,1.769-0.799c2.292-1.287,4.118-3.328,5.731-5.454c0.783-1.037,1.425-2.192,1.387-3.188
							c-0.012-0.508-0.167-0.781-0.496-1.03c-0.342-0.25-0.873-0.427-1.452-0.516c-1.185-0.19-2.502-0.132-3.836-0.037l-4.13,0.269
							c-2.743,0.199-5.495,0.311-8.231,0.328L114.358,188.399z M114.252,185.721h0.029c2.759-0.202,5.495-0.295,8.257-0.295
							l4.118-0.04c1.406-0.025,2.867-0.025,4.388,0.339c0.757,0.184,1.571,0.46,2.306,1.085c0.763,0.606,1.173,1.743,1.084,2.614
							c-0.137,1.792-1.112,3.068-1.998,4.16c-1.829,2.116-3.869,4.161-6.425,5.525c-0.642,0.33-1.289,0.621-2.003,0.857
							c-0.655,0.205-1.376,0.382-2.063,0.507c-1.442,0.295-2.939,0.188-4.31-0.077c-2.878-0.479-5.425-2.042-7.577-3.862
							c-1.085-0.94-2.072-1.835-3.059-2.982c-0.479-0.581-0.921-1.24-1.214-2.034c-0.275-0.762-0.458-1.759-0.029-2.755
							c0.422-0.997,1.275-1.586,2.022-1.935c0.767-0.35,1.517-0.549,2.261-0.685C111.486,185.857,112.936,185.81,114.252,185.721z"
							/>
					</g>
				</g>
			</g>
			<g>
				<path fill="#010101" d="M121.213,131.749c0,0-0.118-1.803-0.531-4.476c-0.104-0.665-0.224-1.383-0.385-2.137
					c-0.118-0.765-0.314-1.552-0.489-2.373c-0.197-0.815-0.433-1.651-0.673-2.497c-0.272-0.835-0.479-1.71-0.814-2.538
					c-0.313-0.835-0.604-1.683-0.995-2.47c-0.182-0.403-0.358-0.8-0.537-1.189c-0.199-0.381-0.398-0.754-0.594-1.122
					c-0.192-0.372-0.384-0.738-0.571-1.096c-0.216-0.342-0.427-0.673-0.629-1.001c-0.411-0.644-0.794-1.269-1.222-1.786
					c-0.405-0.537-0.773-1.03-1.102-1.468c-0.369-0.402-0.689-0.753-0.958-1.044c-0.523-0.591-0.826-0.929-0.826-0.929l0.364-0.402
					c0,0,0.348,0.305,0.949,0.839c0.299,0.273,0.663,0.605,1.08,0.985c0.377,0.421,0.802,0.892,1.268,1.411
					c0.478,0.507,0.906,1.129,1.366,1.776c0.233,0.324,0.473,0.658,0.719,1c0.215,0.358,0.434,0.727,0.658,1.096
					c0.472,0.738,0.866,1.545,1.248,2.378c0.416,0.813,0.74,1.685,1.08,2.545c0.36,0.858,0.595,1.752,0.896,2.617
					c0.229,0.882,0.445,1.752,0.627,2.6c0.353,1.696,0.578,3.301,0.651,4.682c0.118,1.379,0.101,2.531,0.063,3.34
					c-0.02,0.804-0.088,1.267-0.088,1.267L121.213,131.749z"/>
			</g>
			<g>
				<path fill="#010101" d="M121.254,160.73c0,0,0.546-1.721,1.139-4.358c0.146-0.658,0.291-1.372,0.418-2.137
					c0.171-0.751,0.276-1.557,0.414-2.385c0.119-0.834,0.2-1.695,0.286-2.57c0.05-0.879,0.176-1.768,0.168-2.656
					c0.015-0.895,0.044-1.792-0.026-2.663c-0.025-0.44-0.047-0.876-0.068-1.304c-0.045-0.426-0.097-0.851-0.145-1.264
					c-0.045-0.42-0.088-0.824-0.133-1.229c-0.076-0.396-0.148-0.78-0.218-1.156c-0.146-0.751-0.271-1.469-0.489-2.106
					c-0.183-0.648-0.349-1.242-0.494-1.766c-0.195-0.512-0.365-0.957-0.507-1.326c-0.271-0.739-0.43-1.165-0.43-1.165l0.483-0.246
					c0,0,0.209,0.412,0.579,1.129c0.18,0.36,0.397,0.802,0.646,1.31c0.196,0.526,0.422,1.119,0.668,1.773
					c0.258,0.649,0.431,1.379,0.624,2.152c0.099,0.386,0.196,0.79,0.302,1.191c0.068,0.415,0.138,0.837,0.206,1.266
					c0.174,0.853,0.244,1.751,0.296,2.666c0.092,0.908,0.076,1.835,0.081,2.761c0.025,0.931-0.09,1.85-0.124,2.764
					c-0.105,0.902-0.22,1.796-0.364,2.646c-0.283,1.706-0.665,3.284-1.098,4.599c-0.397,1.327-0.834,2.392-1.159,3.13
					c-0.315,0.744-0.55,1.15-0.55,1.15L121.254,160.73z"/>
			</g>
			<path fill="#010101" d="M152.817,138.844c-0.046-2.064-0.534-4.11-1.158-6.071c-1.263-3.963-3.122-7.763-5.411-11.234
				c-1.543-2.395-3.526-4.776-5.86-7.069c-2.322-2.307-5.026-4.491-8.085-6.382c-3.037-1.903-6.416-3.586-10.297-4.55
				c-3.774-0.978-7.78-1.305-11.697-0.902c-3.914,0.384-7.734,1.369-11.267,2.813c-3.527,1.48-6.75,3.408-9.627,5.563
				c-2.891,2.143-5.349,4.612-7.464,7.103c-2.123,2.492-3.792,5.113-5.134,7.614c-2.844,5.328-4.38,11.398-4.83,17.397
				c-0.383,5.194,0.69,10.253,1.763,15.303c0.675,3.156,1.498,6.284,2.665,9.299c1.228,3.175,2.789,6.232,4.643,9.082
				c0.727,1.122,1.498,2.229,2.378,3.233c0.268,0.305,1.039,1.357,1.548,1.294c1.002-0.116-0.601-3.663-0.779-4.101
				c-1.171-2.932-2.527-5.782-3.755-8.69c-2.019-4.789-3.363-9.69-4.364-14.788c-0.897-4.564-1.413-9.279-0.789-13.917
				c0.599-4.469,2.424-8.391,4.896-12.13c1.427-2.165,3.201-4.345,5.24-6.477c2.045-2.133,4.455-4.115,7.08-5.937
				c5.264-3.601,11.701-6.29,18.324-6.839c3.298-0.267,6.627-0.134,9.775,0.661c3.058,0.739,6.116,2.038,8.904,3.611
				c2.778,1.583,5.33,3.39,7.59,5.286c2.239,1.927,4.226,3.923,5.869,5.925c0.862,1.045,1.669,2.129,2.445,3.24
				c2.313,3.299,4.464,7.101,4.51,11.24c0,0.185-0.084,2.462-0.277,2.389l3.069,1.18
				C152.589,141.945,152.821,139.146,152.817,138.844z"/>
			<path fill="#636464" d="M78.636,154.053l3.223,5.921l7.224,11.211l7.465,4.483l15.051,2.336h8.372c0,0-0.994,3.527-4.673,3.954
				c-3.674,0.431-29.226,3.421-38.917-25.273L78.636,154.053z"/>
			<path fill="#636464" d="M146.188,153.703l-1.743,4.593l-3.483,11.484l-3.883,5.035l-8.704,3.482l-5.009,0.651
				c0,0,1.058,3.417,3.309,3.557c2.253,0.14,17.93,1.119,20.008-28.087L146.188,153.703z"/>
			<path fill="#010101" d="M146.984,148.534c-2.239,6.599-4.253,12.956-7.435,19.197c-1.399,2.74-2.994,5.704-5.699,7.37
				c-1.95,1.196-4.714,1.561-6.964,1.814c-3.78,0.43-7.586,0.213-11.374,0.035c-3.57-0.161-7.155-0.161-10.71-0.525
				c-2.032-0.21-4.059-0.555-6.032-1.093c-2.234-0.606-4.468-1.573-6.374-2.897c-4.368-3.027-6.981-7.842-9.362-12.45
				c-1.323-2.55-2.599-5.125-3.893-7.687c-0.44,0.108-0.882,0.263-1.291,0.45c1.181,4.171,2.642,8.119,4.824,11.885
				c2.081,3.591,4.461,7.367,7.95,9.759c5.704,3.909,13.312,4.104,19.967,4.727c7.87,0.735,16.64,2.39,23.974-1.497
				c2.634-1.398,4.434-3.737,5.856-6.287c3.962-7.105,5.996-15.934,7.956-23.762C147.91,147.458,147.449,148.644,146.984,148.534z"
				/>
			<g>
				<path fill="#010101" d="M78.011,151.136c3.821,0.253,7.583,0.745,11.321,1.323c3.744,0.569,7.455,1.265,11.156,2.015
					c1.84,0.403,3.695,0.772,5.53,1.202c1.837,0.432,3.679,0.84,5.503,1.325c3.654,0.927,7.294,1.928,10.877,3.156l-1.611,0.206
					c2.082-1.428,4.245-2.692,6.421-3.932c2.195-1.217,4.414-2.386,6.662-3.491c1.135-0.544,2.248-1.11,3.394-1.633
					c1.143-0.519,2.291-1.035,3.469-1.493c1.168-0.47,2.354-0.905,3.574-1.293c1.206-0.399,2.442-0.749,3.728-1.003l0.677,1.251
					c-0.924,0.93-1.897,1.766-2.895,2.553c-0.995,0.802-2.015,1.544-3.056,2.259c-1.029,0.728-2.092,1.4-3.156,2.063
					c-1.066,0.664-2.159,1.284-3.236,1.925c-2.168,1.263-4.368,2.463-6.595,3.62c-2.235,1.131-4.486,2.238-6.827,3.177l-0.802,0.324
					l-0.809-0.11c-3.752-0.53-7.452-1.286-11.132-2.112c-1.843-0.396-3.67-0.864-5.504-1.311c-1.831-0.446-3.647-0.958-5.478-1.437
					c-3.637-1.004-7.26-2.065-10.855-3.256c-3.598-1.175-7.172-2.436-10.69-3.94L78.011,151.136z"/>
			</g>
			<g>
				<ellipse fill="#767677" cx="73.929" cy="149.706" rx="5.634" ry="7.266"/>
				<path fill="#636464" d="M76.652,142.941c-0.902-0.748-1.954-1.188-3.09-1.188c-3.322,0-6.01,3.666-6.01,8.193
					c0,1.699,0.383,3.281,1.034,4.591c0.18-0.729,0.436-1.429,0.729-2.108C69.929,148.185,72.378,144.312,76.652,142.941z"/>
				<path fill="#B5B6B6" d="M68.578,153.688c-0.104,0-0.2-0.011-0.306-0.016c1.089,2.079,2.945,3.454,5.063,3.454
					c3.351,0,6.068-3.438,6.068-7.69c0-1.032-0.167-2.007-0.457-2.907C77.543,150.513,74.088,153.688,68.578,153.688z"/>
				<g>
					<path fill="#010101" d="M80.269,149.729c0,0-0.014,0.172-0.036,0.489c-0.046,0.323-0.016,0.769-0.146,1.381
						c-0.125,0.617-0.273,1.374-0.646,2.154c-0.133,0.415-0.395,0.802-0.654,1.218c-0.23,0.433-0.603,0.802-0.972,1.206
						c-0.344,0.432-0.882,0.691-1.345,1.061c-0.269,0.127-0.56,0.24-0.846,0.362l-0.438,0.176l-0.479,0.071
						c-0.347,0.035-0.587,0.124-1.041,0.112c-0.297-0.032-0.598-0.065-0.903-0.098c-0.285,0.003-0.669-0.197-1.003-0.297
						c-0.357-0.119-0.696-0.271-0.971-0.479c-1.24-0.704-2.146-1.896-2.771-3.18l-0.427-0.996l-0.27-1.052
						c-0.104-0.349-0.155-0.707-0.172-1.067l-0.089-1.14l0.087-1.012c0.018-0.329,0.061-0.673,0.169-1.048l0.271-1.09l0.431-0.994
						c0.626-1.284,1.525-2.487,2.769-3.188c1.185-0.719,2.665-1.077,3.902-0.771l0.43,0.065l0.464,0.174
						c0.306,0.118,0.612,0.241,0.891,0.377c0.466,0.366,1.009,0.627,1.351,1.06c0.368,0.403,0.746,0.77,0.976,1.208
						c0.261,0.416,0.524,0.802,0.657,1.215c0.375,0.793,0.521,1.533,0.645,2.134c0.138,0.604,0.097,1.1,0.138,1.425
						c0.017,0.326,0.029,0.502,0.029,0.502L80.269,149.729L80.269,149.729z M79.551,149.707c0,0-0.017-0.163-0.048-0.467
						c-0.053-0.302-0.03-0.758-0.178-1.302c-0.142-0.554-0.301-1.22-0.668-1.917c-0.133-0.372-0.389-0.702-0.631-1.062
						c-0.215-0.382-0.563-0.681-0.89-1.015c-0.306-0.365-0.774-0.544-1.168-0.85c-0.214-0.077-0.435-0.161-0.656-0.242l-0.335-0.133
						l-0.433-0.044c-1.057-0.218-2.132,0.119-3.076,0.717c-0.967,0.589-1.682,1.611-2.207,2.7l-0.361,0.846l-0.203,0.87
						c-0.089,0.276-0.13,0.6-0.142,0.952l-0.078,1.009c0.084,1.125,0.205,2.496,0.78,3.563c0.527,1.085,1.235,2.115,2.208,2.7
						c0.225,0.197,0.462,0.298,0.698,0.387c0.257,0.077,0.412,0.257,0.751,0.274c0.3,0.042,0.601,0.089,0.896,0.13
						c0.14,0.014,0.487-0.046,0.717-0.059l0.385-0.04l0.357-0.129c0.238-0.088,0.474-0.173,0.704-0.258
						c0.393-0.306,0.864-0.483,1.172-0.85c0.328-0.336,0.679-0.633,0.893-1.019c0.243-0.357,0.497-0.688,0.634-1.063
						c0.372-0.703,0.526-1.354,0.666-1.893c0.155-0.538,0.125-1.04,0.171-1.343c0.029-0.314,0.04-0.483,0.04-0.483v0.024h0.002
						V149.707z"/>
				</g>
			</g>
			<g>
				
					<ellipse transform="matrix(-0.048 -0.9988 0.9988 -0.048 13.7302 303.3051)" fill="#767677" cx="151.407" cy="145.109" rx="5.536" ry="4.304"/>
				<path fill="#636464" d="M149.067,140.06c0.66-0.604,1.452-0.977,2.313-1.019c2.535-0.119,4.723,2.565,4.891,6.008
					c0.061,1.296-0.173,2.51-0.622,3.533c-0.162-0.548-0.386-1.074-0.633-1.58C154.393,143.798,152.385,140.944,149.067,140.06z"/>
				<path fill="#B5B6B6" d="M155.624,147.933c0.077-0.004,0.15-0.015,0.229-0.025c-0.751,1.624-2.115,2.74-3.734,2.815
					c-2.558,0.121-4.754-2.398-4.908-5.63c-0.036-0.781,0.048-1.533,0.239-2.225C148.667,145.848,151.419,148.135,155.624,147.933z"
					/>
				<g>
					<path fill="#010101" d="M147.188,145.277c0,0,0.022,0.123,0.05,0.36c0.043,0.23,0.039,0.617,0.187,1.012
						c0.123,0.396,0.27,0.875,0.579,1.385c0.272,0.511,0.681,1.046,1.226,1.485c0.245,0.261,0.598,0.366,0.904,0.58
						c0.35,0.071,0.693,0.28,1.076,0.249c0.161,0,0.438,0.031,0.508,0.02c0.222-0.041,0.45-0.095,0.679-0.139
						c0.267-0.028,0.348-0.165,0.53-0.231c0.162-0.07,0.328-0.146,0.49-0.302c0.688-0.465,1.168-1.255,1.522-2.076
						c0.386-0.826,0.426-1.787,0.442-2.709c-0.075-0.37-0.075-1.06-0.229-1.414l-0.181-0.633l-0.295-0.614
						c-0.431-0.781-0.988-1.512-1.718-1.912c-0.708-0.406-1.493-0.626-2.268-0.433l-0.33,0.046l-0.236,0.108
						c-0.159,0.064-0.31,0.127-0.463,0.189c-0.28,0.239-0.622,0.379-0.838,0.664c-0.496,0.487-0.852,1.056-1.072,1.591
						c-0.257,0.531-0.355,1.036-0.442,1.457c-0.1,0.413-0.064,0.756-0.097,0.983c-0.014,0.229-0.021,0.351-0.021,0.351v-0.018
						H147.188z M146.472,145.344v-0.009c0,0,0-0.131,0.003-0.387c0.017-0.254-0.036-0.633,0.045-1.1
						c0.067-0.473,0.153-1.049,0.411-1.676c0.228-0.628,0.601-1.315,1.174-1.949c0.248-0.35,0.657-0.577,1.009-0.881
						c0.424-0.193,0.977-0.526,1.38-0.553c0.955-0.288,2.138-0.07,3.1,0.44c1.01,0.502,1.762,1.399,2.3,2.376l0.376,0.758
						l0.258,0.845c0.199,0.617,0.173,0.986,0.277,1.635c-0.027,1.119-0.109,2.271-0.598,3.303c-0.439,1.024-1.111,1.982-2.062,2.577
						c-0.209,0.176-0.475,0.3-0.756,0.411c-0.261,0.092-0.567,0.269-0.782,0.269c-0.23,0.032-0.458,0.066-0.683,0.103
						c-0.384,0.033-0.557-0.033-0.835-0.048c-0.514-0.005-0.96-0.276-1.401-0.421c-0.377-0.268-0.806-0.455-1.089-0.776
						c-0.63-0.576-1.061-1.223-1.345-1.83c-0.312-0.589-0.453-1.172-0.571-1.642c-0.117-0.471-0.114-0.806-0.157-1.048
						c-0.034-0.245-0.045-0.372-0.045-0.372L146.472,145.344z"/>
				</g>
			</g>
			<g>
				<path fill="#010101" d="M129.59,138.308c0,0,0.476,0.809,0.822,2.033c0.376,1.224,0.625,2.865,0.625,4.518
					c0.034,1.649-0.147,3.306-0.41,4.549c-0.244,1.247-0.603,2.084-0.599,2.084c0,0-0.416-0.814-0.74-2.037
					c-0.347-1.227-0.635-2.87-0.707-4.518c-0.11-1.644,0.028-3.301,0.325-4.548C129.165,139.144,129.59,138.308,129.59,138.308z"/>
			</g>
			<g>
				<path fill="#010101" d="M117.031,137.203c0,0,0.479,1.026,0.826,2.582c0.372,1.549,0.622,3.628,0.625,5.705
					c0.029,2.083-0.147,4.163-0.41,5.736c-0.247,1.567-0.604,2.618-0.604,2.618s-0.415-1.029-0.738-2.582
					c-0.345-1.549-0.633-3.63-0.708-5.706c-0.112-2.078,0.031-4.163,0.324-5.732C116.606,138.259,117.031,137.203,117.031,137.203z"
					/>
			</g>
			<g>
				<path fill="#010101" d="M137.617,140.226c0,0,0.278,0.554,0.492,1.381c0.098,0.416,0.205,0.894,0.277,1.409
					c0.074,0.517,0.115,1.064,0.135,1.612c0.004,0.548,0.036,1.096-0.035,1.605c-0.047,0.512-0.193,0.987-0.331,1.396
					c-0.299,0.81-0.768,1.347-0.768,1.347s-0.44-0.555-0.69-1.388c-0.116-0.413-0.238-0.892-0.264-1.41
					c-0.038-0.511,0.022-1.059,0.049-1.604c0.051-0.548,0.121-1.092,0.225-1.605c0.094-0.51,0.229-0.983,0.35-1.393
					C137.312,140.77,137.617,140.226,137.617,140.226z"/>
			</g>
			<g>
				<path fill="#010101" d="M143.709,141.758c0,0,0.279,0.365,0.493,0.908c0.101,0.271,0.208,0.588,0.275,0.923
					c0.077,0.338,0.115,0.696,0.138,1.056c0,0.355,0.035,0.713-0.035,1.041c-0.053,0.338-0.193,0.642-0.335,0.901
					c-0.293,0.524-0.763,0.864-0.763,0.864s-0.44-0.375-0.691-0.92c-0.12-0.272-0.236-0.591-0.266-0.923
					c-0.04-0.338,0.023-0.692,0.052-1.045c0.047-0.356,0.113-0.714,0.218-1.04c0.096-0.33,0.229-0.639,0.352-0.898
					C143.404,142.099,143.709,141.758,143.709,141.758z"/>
			</g>
			<g>
				<path fill="#010101" d="M91.271,141.154c0,0,0.305,0.537,0.56,1.351c0.119,0.41,0.255,0.886,0.35,1.396
					c0.104,0.511,0.172,1.056,0.223,1.601c0.028,0.544,0.09,1.093,0.049,1.606c-0.026,0.512-0.146,0.995-0.26,1.411
					c-0.253,0.825-0.693,1.387-0.693,1.387s-0.47-0.533-0.765-1.349c-0.139-0.408-0.283-0.883-0.333-1.394
					c-0.068-0.512-0.036-1.06-0.036-1.607c0.023-0.551,0.061-1.099,0.144-1.611c0.063-0.513,0.175-0.994,0.276-1.408
					C90.991,141.706,91.271,141.154,91.271,141.154z"/>
			</g>
			<g>
				<path fill="#010101" d="M105.282,139.53c0,0,0.478,0.829,0.823,2.095c0.379,1.26,0.624,2.945,0.624,4.642
					c0.032,1.696-0.146,3.395-0.409,4.676c-0.244,1.28-0.602,2.144-0.6,2.144c0.001,0-0.416-0.837-0.738-2.099
					c-0.346-1.262-0.632-2.946-0.709-4.643c-0.109-1.688,0.027-3.394,0.325-4.673C104.858,140.393,105.282,139.53,105.282,139.53z"
					/>
			</g>
		</g>
	</g>
</g>
</svg>
