<?xml version="1.0" encoding="utf-8"?>
<!-- Generator: Adobe Illustrator 16.0.0, SVG Export Plug-In . SVG Version: 6.00 Build 0)  -->
<!DOCTYPE svg PUBLIC "-//W3C//DTD SVG 1.1//EN" "http://www.w3.org/Graphics/SVG/1.1/DTD/svg11.dtd">
<svg version="1.1"
	 id="Layer_1" xmlns:dc="http://purl.org/dc/elements/1.1/" xmlns:inkscape="http://www.inkscape.org/namespaces/inkscape" xmlns:sodipodi="http://sodipodi.sourceforge.net/DTD/sodipodi-0.dtd" xmlns:rdf="http://www.w3.org/1999/02/22-rdf-syntax-ns#" xmlns:cc="http://creativecommons.org/ns#" xmlns:svg="http://www.w3.org/2000/svg" inkscape:version="0.48.2 r9819" sodipodi:docname="marzog_larm.svg"
	 xmlns="http://www.w3.org/2000/svg" xmlns:xlink="http://www.w3.org/1999/xlink" x="0px" y="0px" width="21.17px"
	 height="40.657px" viewBox="0 0 21.17 40.657" enable-background="new 0 0 21.17 40.657" xml:space="preserve">
<sodipodi:namedview  id="namedview32" pagecolor="#ffffff" showgrid="false" borderopacity="1" gridtolerance="10" inkscape:zoom="5.8046583" inkscape:cx="10.585" inkscape:cy="20.328501" bordercolor="#666666" objecttolerance="10" guidetolerance="10" inkscape:window-maximized="0" inkscape:pageopacity="0" inkscape:pageshadow="2" inkscape:window-width="640" inkscape:window-height="480" inkscape:window-x="0" inkscape:window-y="0" inkscape:current-layer="Layer_1">
	</sodipodi:namedview>
<g id="g3">
	<g id="g5">
		<g id="g7">
			<g id="g9">
				<g id="g11">
					<path id="path13" fill="#424242" d="M12.606,15.518c6.985-0.314,3.49,5.106,3.884,13.841c0.394,8.731,3.021,6.259-3.97,6.572
						c-6.99,0.312-6.871,2.59-7.265-6.144C4.866,21.055,5.615,15.831,12.606,15.518z"/>
					<path id="path67_1_" fill="#0C0C0C" d="M5.426,34.307c0,0-0.772-9.244,6.169-8.457c0,0,5.354-0.457,5.354,6.678
						C16.949,32.528,6.665,31.342,5.426,34.307L5.426,34.307z"/>
					<g id="g16">
						<path id="path18" d="M4.848,22.252c0.17-1.271,0.47-2.563,1.088-3.773c0.606-1.214,1.661-2.279,2.919-2.871
							c1.231-0.604,2.636-0.836,3.908-0.906c0.658-0.034,1.342-0.03,2.059,0.102c0.701,0.127,1.517,0.429,2.117,1.085
							c0.604,0.653,0.847,1.474,0.953,2.175c0.107,0.715,0.107,1.386,0.094,2.037c-0.049,1.3-0.188,2.532-0.274,3.761
							c-0.222,2.442-0.244,4.854-0.032,7.254c0.106,1.209,0.268,2.36,0.5,3.588l0.081,0.521c0,0.213,0.101,0.389-0.084,0.956
							c-0.098,0.301-0.461,0.627-0.698,0.692c-0.242,0.09-0.396,0.096-0.523,0.104c-0.246,0.009-0.418-0.009-0.589-0.021
							c-0.651-0.065-1.229-0.135-1.835-0.172c-1.195-0.078-2.413-0.066-3.626,0.014c-0.608,0.037-1.216,0.097-1.836,0.156
							c-0.625,0.055-1.238,0.146-1.981,0.103c-0.366-0.028-0.837-0.122-1.226-0.447c-0.38-0.325-0.546-0.733-0.652-1.075
							c-0.203-0.701-0.245-1.334-0.296-1.972c-0.097-1.267-0.134-2.506-0.185-3.749C4.61,27.316,4.534,24.803,4.848,22.252z
							 M6.021,33.463c0.066,0.6,0.145,1.211,0.311,1.703c0.212,0.521,0.302,0.599,0.817,0.621c1.047-0.029,2.361-0.351,3.602-0.483
							c1.259-0.158,2.535-0.259,3.82-0.269c0.639-0.011,1.305,0.021,1.893,0.041c0.145,0.004,0.281,0,0.348-0.014
							c0.021-0.002,0.025-0.021-0.07,0.021c-0.094,0.016-0.336,0.225-0.379,0.377c-0.077,0.271-0.026,0.127-0.063,0.033l-0.082-0.4
							c-0.282-1.202-0.532-2.51-0.646-3.777c-0.283-2.554-0.188-5.139,0.072-7.645c0.133-1.25,0.299-2.485,0.383-3.671
							c0.096-1.161,0.065-2.367-0.416-2.917c-0.439-0.588-1.646-0.782-2.787-0.765c-0.242,0-0.615,0.02-0.893,0.04
							c-0.277,0.022-0.56,0.054-0.845,0.104c-0.562,0.098-1.104,0.244-1.611,0.464c-1.015,0.433-1.839,1.188-2.396,2.171
							c-0.568,0.979-0.874,2.143-1.062,3.326c-0.379,2.386-0.303,4.871-0.218,7.34C5.858,31.002,5.909,32.25,6.021,33.463z"/>
					</g>
				</g>
			</g>
			<g id="g20">
				<path id="path22" fill="#212121" d="M13.046,3.182c10.648-0.48,5.319,2.783,5.92,16.097c0.6,13.312,4.604,9.539-6.049,10.017
					c-10.651,0.48-10.473,3.949-11.068-9.357C1.252,6.619,2.393,3.66,13.046,3.182z"/>
				<path id="path24" fill="#3F3F3F" d="M3.112,25.965c0,0,13.368,1.891,16.008-4.313l0.793,5.454l0.848,1.993h-0.602l-6.484,0.229
					l-7.836,0.727H3.112l-0.768-2.896L3.112,25.965z"/>
				<path fill="#0C0C0C" d="M2.405,17.162l-0.496,2.775l0.496,1.715c0,0,2.729-4.521,16.581-3.797l0.203-1.585
					C19.188,16.269,11.558,12.163,2.405,17.162z"/>
				<g id="g26">
					<path id="path28" d="M0.297,18.145c0.076-2.305,0.281-4.643,0.866-6.986c0.583-2.314,1.67-4.761,3.688-6.478
						c2.003-1.73,4.565-2.434,6.931-2.646c1.203-0.102,2.369-0.14,3.625-0.002c1.223,0.151,2.621,0.47,3.766,1.509
						c0.557,0.516,0.977,1.171,1.223,1.827c0.254,0.658,0.375,1.31,0.439,1.937c0.125,1.254,0.059,2.428-0.027,3.577
						c-0.188,2.296-0.518,4.506-0.646,6.728c-0.156,2.22-0.17-0.581-0.021,1.625l-0.007-0.008c-0.163,1.521-0.157,3.045-0.053,4.56
						c0.104,1.531,0.375,2.965,0.666,4.563c0.024,0.215,0.063,0.429,0.014,0.753c-0.022,0.156-0.1,0.381-0.27,0.563
						c-0.173,0.183-0.375,0.258-0.523,0.299c-0.586,0.121-0.934,0.063-1.342,0.06c-0.776-0.04-1.53-0.083-2.289-0.099
						c-1.517-0.021-3.028,0.025-4.541,0.195c-1.51,0.152-3,0.396-4.523,0.649c-0.771,0.123-1.535,0.271-2.438,0.294
						c-0.454,0.001-0.972-0.025-1.543-0.259c-0.578-0.228-1.083-0.729-1.35-1.2c-0.54-0.953-0.673-1.786-0.827-2.6
						c-0.135-0.813-0.222-1.596-0.3-2.377c-0.153-1.563-0.267-3.098-0.387-4.634C0.311,17.731,0.21,20.45,0.297,18.145z
						 M3.353,24.461c0.025,0.754,0.062,1.504,0.133,2.223c0.069,0.699,0.182,1.425,0.381,1.833c0.102,0.205,0.164,0.278,0.297,0.36
						c0.136,0.082,0.399,0.145,0.713,0.164c0.638,0.041,1.405-0.025,2.161-0.092c1.525-0.15,3.094-0.293,4.656-0.346
						c1.563-0.044,3.13-0.063,4.689,0.021c0.781,0.041,1.563,0.115,2.322,0.188c0.354,0.029,0.789,0.063,0.959,0.021
						c0.033-0.01,0.018-0.018-0.023,0.021c-0.037,0.041-0.041,0.074-0.035,0.045c0.013-0.057,0.002-0.229-0.021-0.396
						c-0.104-0.694-0.31-1.478-0.474-2.229l-0.467-2.301L17.8,19.331l-0.006-0.033v0.025c-0.109-4.597,0.5-4.195,0.811-8.596
						c0.063-1.093,0.095-2.18-0.026-3.165c-0.119-0.994-0.429-1.814-0.979-2.29c-0.549-0.494-1.451-0.753-2.44-0.846
						c-0.984-0.093-2.082-0.043-3.117,0.069C9.955,4.728,7.981,5.373,6.576,6.65c-1.423,1.26-2.262,3.132-2.729,5.162
						c-0.903,4.11-0.676,3.615-0.579,8.057C3.29,21.409,3.301,22.948,3.353,24.461z"/>
				</g>
			</g>
		</g>
	</g>
	<path id="path30" fill="#3F3F3F" d="M3.604,16.605c0.182-0.958,0.469-1.896,0.927-2.761c1.35-2.552,3.673-4.343,6.318-5.376
		c0.937-0.364,1.884-0.699,2.89-0.799c0.769-0.074,1.537-0.143,2.302-0.253c0.437-0.062,1.429-0.077,1.728-0.455
		c0.188-0.242,0.424-0.761,0.326-1.089c-0.296-0.991-1.912-1.285-1.912-1.285C9.862,3.89,7.694,5.873,7.694,5.873
		c-5.252,2.866-4.481,9.176-4.481,9.184C3.138,13.964,3.402,17.677,3.604,16.605z"/>
</g>
<g>
	<path d="M18.905,16.972c-0.012-0.012-0.229-0.107-0.666-0.286c-0.438-0.175-1.078-0.384-1.859-0.578
		c-0.783-0.179-1.701-0.362-2.699-0.422c-0.498-0.059-1.016-0.033-1.539-0.05c-0.523-0.001-1.057,0.069-1.588,0.092
		c-0.528,0.085-1.063,0.133-1.58,0.244c-0.515,0.125-1.031,0.209-1.519,0.348c-0.488,0.146-0.96,0.288-1.407,0.421
		c-0.441,0.166-0.857,0.322-1.242,0.466c-0.387,0.143-0.748,0.266-1.05,0.417c-0.309,0.138-0.578,0.259-0.8,0.358
		c-0.448,0.195-0.711,0.298-0.711,0.298l-0.523-0.853c0,0,0.232-0.174,0.651-0.463c0.433-0.266,1.001-0.742,1.795-1.126
		c0.392-0.201,0.809-0.439,1.271-0.648c0.474-0.186,0.974-0.381,1.491-0.583c0.527-0.18,1.091-0.314,1.657-0.472
		c0.572-0.132,1.17-0.201,1.761-0.303c0.599-0.047,1.2-0.09,1.792-0.084c0.594,0.019,1.176,0.032,1.734,0.13
		c0.563,0.058,1.096,0.184,1.598,0.312c0.5,0.131,0.965,0.286,1.385,0.453c0.42,0.166,0.795,0.335,1.115,0.518
		c0.326,0.163,0.596,0.344,0.82,0.479c0.438,0.288,0.689,0.519,0.678,0.506L18.905,16.972z"/>
</g>
<ellipse cx="6.398" cy="13.204" rx="0.354" ry="0.458"/>
<ellipse cx="10.585" cy="12.287" rx="0.354" ry="0.458"/>
<ellipse cx="15.688" cy="12.745" rx="0.354" ry="0.458"/>
</svg>
