<?xml version="1.0" encoding="utf-8"?>
<!-- Generator: Adobe Illustrator 15.0.0, SVG Export Plug-In . SVG Version: 6.00 Build 0)  -->
<!DOCTYPE svg PUBLIC "-//W3C//DTD SVG 1.1//EN" "http://www.w3.org/Graphics/SVG/1.1/DTD/svg11.dtd">
<svg version="1.1" id="Layer_1" xmlns="http://www.w3.org/2000/svg" xmlns:xlink="http://www.w3.org/1999/xlink" x="0px" y="0px"
	 width="43.504px" height="66.834px" viewBox="0 0 43.504 66.834" enable-background="new 0 0 43.504 66.834" xml:space="preserve">
<g>
	<g>
		<path fill="#2B2C2B" d="M24.534,42.161l0.223,0.158l0.55-0.979l-0.179-0.13c-12-8.855-13.116-22.938-13.04-28.58l0.004-0.385
			l-0.353,0.15c-0.611,0.271-1.211,0.566-1.777,0.896L9.853,13.36l-0.009,0.132C9.517,18.767,10.3,32.097,24.534,42.161z"/>
		<path fill="#2B2C2B" d="M24.258,47.297l-0.16,0.243l-0.854,0.72c-0.707,1.763,1.771,0.104,2.01,0.278l0.14-0.268l0.146-0.188
			C27.311,45.849,36.18,33.72,37.07,14.795l0.014-0.124l-0.1-0.082c-0.435-0.361-0.92-0.711-1.441-1.031l-0.395-0.248l0.016,0.463
			C35.521,29.263,26.911,43.351,24.258,47.297z"/>
		<path fill="#FFFFFF" d="M24.264,37.706l0.23,0.211l0.15-0.27c0.229-0.408,0.602-1.092,1.041-2l0.086-0.172l-0.146-0.129
			c-1.043-0.914-10.125-9.385-7.677-24.271l0.054-0.339l-0.34,0.048c-1.109,0.159-2.185,0.382-3.191,0.659l-0.174,0.047
			l-0.006,0.182C14.146,15.524,14.435,28.763,24.264,37.706z"/>
		<path fill="#F3D8B9" d="M25.588,35.099l0.252,0.228l0.146-0.312c1.939-4.188,5.134-12.795,4.679-23.33l-0.011-0.184l-0.18-0.046
			c-1.381-0.36-2.887-0.629-4.467-0.785c-0.012-0.003-1.502-0.207-3.674-0.207c-1.354,0-2.69,0.082-3.971,0.235l-0.188,0.023
			l-0.031,0.182C15.692,25.283,23.917,33.579,25.588,35.099z"/>
		<path fill="#FFFFFF" d="M24.723,37.856l-0.104,0.18l0.153,0.134c0.4,0.353,0.849,0.708,1.312,1.063l0.237,0.18l0.136-0.27
			c3.301-6.523,7.103-16.459,6.476-26.736l-0.013-0.159l-0.146-0.058c-0.502-0.193-1.049-0.377-1.614-0.547l-0.334-0.1l0.012,0.35
			C31.366,25.489,25.834,35.908,24.723,37.856z"/>
		<path fill="#010101" d="M26.715,50.171l-0.471,0.004l0.271,0.387c0.01,0.017,0.976,1.443,0.219,2.826l-0.196,0.365l8.571,0.068
			l0.074-0.114c0.031-0.054,0.896-1.38,1.039-3.119l0.021-0.252l-0.257-0.015C35.958,50.319,32.381,50.114,26.715,50.171z"/>
		<path fill="#2B2C2B" d="M39.506,17.824l-0.389-0.843l-0.088,0.93c-1.572,17.129-9.201,28.171-11.506,31.15l-0.299,0.391
			l0.487,0.011c2.763,0.062,5.613,0.146,8.478,0.245l0.192,0.008l0.056-0.184C36.729,48.587,43.409,26.287,39.506,17.824z"/>
		<path fill="#010101" d="M18.033,50.545l0.218-0.37l-0.432-0.004c-5.719-0.061-12.698,0-12.698,0l-0.265,0.002l0.021,0.264
			c0.14,1.715,0.716,2.451,0.733,2.5l0.372,0.123l12.37,0.364l-0.201-0.364C17.397,51.672,18.007,50.59,18.033,50.545z"/>
		<path fill="#2B2C2B" d="M21.601,47.317l0.575-0.104l-0.323-0.235c0.266-0.377,0.872-1.271,1.685-2.596l0.125-0.195l-0.192-0.134
			C9.822,34.5,7.687,22.09,7.624,15.542L7.62,14.956l-0.418,0.407c-1.73,1.671-2.936,3.761-3.572,6.177
			c-0.033,0.098-3.445,9.538,1.117,27.896l0.055,0.197l0.207-0.014c3.043-0.197,7.043-0.307,11.899-0.307l1.562,0.006l0.07-0.105
			C17.338,50.862,22.883,47.097,21.601,47.317z"/>
	</g>
	<g>
		<path fill="#010101" d="M42.706,23.422C42.229,2.581,13.737,9.849,13.737,9.849C-0.222,12.513,0.754,29.288,0.754,29.288
			C0.117,38.056,1.237,44.806,2.65,49.573c0.254,0.893,2.206,2.775,2.206,2.775l2.051,1.358c2.838,0.019,6.723,0.646,11.061,0.675
			c0.847,1.596,2.521,1.682,4.451,1.682c1.896,0,3.549-0.051,4.406-1.598c2.774,0.025,5.479,0.057,7.913,0.094l2.22-1.966
			l1.526-3.05C43.971,30.837,42.706,23.422,42.706,23.422z M24.941,48.394l1.304,0.612l-2.894-0.251l1.113-1.318
			c2.742-4.084,11.303-18.137,10.939-33.666c0.541,0.334,1.014,0.679,1.418,1.014c-0.902,18.979-9.955,31.21-11.484,33.146
			L24.941,48.394z M32.684,12.422c0.617,10.183-3.125,20.036-6.447,26.611c-0.446-0.343-0.883-0.691-1.297-1.05
			c1.261-2.209,6.677-12.534,6.146-26.103C31.65,12.05,32.186,12.231,32.684,12.422z M25.977,10.917
			c1.676,0.17,3.144,0.439,4.431,0.777c0.454,10.384-2.632,18.867-4.646,23.217c-1.68-1.521-9.787-9.736-7.365-23.967
			C22.566,10.442,25.977,10.917,25.977,10.917z M25.461,35.537c-0.432,0.889-0.793,1.56-1.027,1.985
			c-9.831-8.943-10.022-22.375-9.894-25.838c1.066-0.293,2.133-0.504,3.16-0.65C15.258,25.901,24.092,34.334,25.461,35.537z
			 M24.979,41.414c-0.104,0.187-0.205,0.364-0.309,0.541C10.647,32.038,9.75,18.996,10.087,13.513
			c0.567-0.328,1.147-0.621,1.751-0.882C11.765,17.976,12.788,32.421,24.979,41.414z M5.724,53.26c0,0-0.461-1.146-0.602-2.843
			c0,0,6.977-0.052,12.695,0c0,0-0.721,1.223,0.119,2.762L5.724,53.26z M18.338,49.08c-4.844-0.021-9.616,0.053-13.346,0.297
			C0.392,30.885,3.86,21.636,3.86,21.636c0.686-2.592,1.939-4.568,3.517-6.087c0.06,6.8,2.302,19.165,15.948,28.711
			c-1.066,1.729-1.79,2.734-1.819,2.773l0.052,0.036C20.565,48.271,20.269,48.896,18.338,49.08z M23.064,55.493
			c-0.146,0.025-0.297,0.05-0.453,0.05c-1.783,0-3.234-1.448-3.234-3.235c0-1.604,1.177-2.937,2.72-3.184
			c0,0,0.233-0.116,0.772-0.025c1.668,0.131,2.979,1.51,2.979,3.209c0,1.34-0.818,2.492-1.979,2.981
			C23.866,55.289,23.34,55.459,23.064,55.493z M34.977,53.575l-8.021-0.069c0.842-1.53-0.232-3.089-0.232-3.089
			c5.719-0.052,9.256,0.148,9.256,0.148C35.836,52.261,34.977,53.575,34.977,53.575z M36.202,49.462
			c-2.298-0.085-5.242-0.177-8.479-0.254c2.221-2.874,9.967-14.003,11.562-31.277C43.165,26.356,36.307,49.11,36.202,49.462z"/>
	</g>
</g>
<g>
	<path fill="#BF2328" d="M38.654,44.204c-6.396,4.438-18.015,5.235-18.015,5.235C12.981,50.111,6.12,43.847,2.991,40.44
		c0.002-0.009,0.002-0.018,0.003-0.029l-0.282-0.275l-0.756-0.74c-0.419,2.031-0.393,3.691-0.393,3.691
		c0.013,0.199,0.029,0.395,0.053,0.588c-0.307,0.544-1.113,2.575-0.033,7.091c0,0,0.076,1.282,0.891,2.742
		c0.469,0.786,0.283-1.711,1.182,0.99c0,0,0.269,2.331,2.48,3.034c0,0,1.923,2.898,2.354,2.173
		c3.149,2.268,7.782,4.325,13.635,4.489c0,0,11.248-0.209,16.669-8.875c-0.479-0.104,1.81-5.743-0.265-7.728
		c0.32-1.208-0.055-1.456,0.623-2.93c0-0.013-0.293,0.029-0.293,0.018"/>
	<g>
		<path fill="#010101" d="M8.187,50.77c2.381,3.529,7.895,5.385,7.895,5.385c1.003,0.327,0.875-1.627,0.875-1.627
			C12.78,54.709,8.187,50.77,8.187,50.77z"/>
		<path fill="#010101" d="M3.203,54.944c1.004,1.472,2.393,3.128,4.248,4.665l1.046,0.803c3.149,2.295,7.479,4.126,13.331,4.3
			c0,0,12.596,0.769,17.422-9.285c0.002,0,2.104-5.945-0.479-8.395c0.318-1.22,0.529-2.506,0.554-3.816
			c0-0.013,0.002-0.023,0.002-0.036l-0.002,0.002l-0.261,0.215c-6.396,4.493-19.61,3.924-19.61,3.924
			c-7.659,0.681-13.703-3.956-16.834-7.402c0.002-0.013,0.002-0.024,0.004-0.033L2.34,39.607l-0.756-0.751
			c-0.419,2.047-0.394,3.737-0.394,3.737c0.014,0.203,0.031,0.403,0.054,0.597c-0.306,0.551-1.373,2.903-0.293,7.472
			c0,0,0.336,1.007,1.149,2.486L3.203,54.944z M23.482,62.432c-4.001,0.334-8.062-0.291-11.893-2.386
			c-3.219-1.759-7.984-5.002-9.546-10.688c-0.147-0.538-0.297-1.315-0.315-1.923C1.719,47.116,1.86,46.465,1.913,46
			c1.965,5.341,7.203,8.865,7.203,8.865c-4.234-4.491-6.312-10.28-6.312-10.28l-0.066-0.23c-0.237-1.229-0.295-2.283-0.248-3.205
			c0.318,0.598,0.705,1.193,1.177,1.765c13.317,17.418,33.806,2.312,33.806,2.312c0.144-0.093,0.271-0.206,0.398-0.312
			c-0.23,1.797-0.902,3.884-2.314,6.207c-4.127,6.791-17.777,7.835-17.777,7.835c10.537,2.88,17.27-4.102,17.27-4.102
			s1.82-2.437,3.089-5.841c0.312,0.383,0.641,1.062,0.586,2.232C38.719,51.262,38.243,61.188,23.482,62.432z"/>
	</g>
</g>
</svg>
