<?xml version="1.0" encoding="utf-8"?>
<!-- Generator: Adobe Illustrator 15.0.0, SVG Export Plug-In . SVG Version: 6.00 Build 0)  -->
<!DOCTYPE svg PUBLIC "-//W3C//DTD SVG 1.1//EN" "http://www.w3.org/Graphics/SVG/1.1/DTD/svg11.dtd">
<svg version="1.1" id="Layer_1" xmlns="http://www.w3.org/2000/svg" xmlns:xlink="http://www.w3.org/1999/xlink" x="0px" y="0px"
	 width="45.283px" height="76.191px" viewBox="264.601 252.173 45.283 76.191"
	 enable-background="new 264.601 252.173 45.283 76.191" xml:space="preserve">
<g>
	<path fill="#2B2C2B" d="M292.795,254.569c-2.702-1.265-5.733-1.856-8.768-1.705c-6.574,0.322-12.36,3.992-15.104,9.579
		c-5.552,11.32-3.585,25.446-1.848,37.913c0.129,0.934,0.257,1.864,0.383,2.78c0.5,3.669,1.095,7.118,1.672,10.454
		c0.807,4.65,1.526,8.822,1.678,12.053c1.552-3.28,3.999-9.816,4.084-18.668c0.02-0.578,0.527-13.755,3.848-19.309
		c0.061-0.109,1.598-2.641,4.914-2.803c2.754-0.132,5.844,1.401,9.198,4.568l0.833-1.859l12.803-11.919l2.465-0.413
		c-0.854-2.049-3.232-7.568-3.412-7.906C302.543,261.804,297.539,256.793,292.795,254.569z"/>
	<g>
		<path fill="#010101" d="M309.884,275.759c0.031-0.008-3.5-8.267-3.755-8.74c-2.771-5.104-7.739-10.562-13.051-13.052
			c-8.974-4.205-20.329-0.831-24.751,8.187c-6.069,12.368-3.311,27.972-1.531,41.076c1.443,10.607,3.821,20.047,3.301,25.136
			c0,0,5.336-8.062,5.458-21.386c0,0,0.491-13.502,3.757-18.972c0,0,4.158-7.031,13.756,2.563l1.168-2.598
			c0,0-5.579-6.907-10.762-6.526c0,0-11.118,0.078-10.905,21.479l-0.433,16.156c0,0-11.276-47.214,4.432-59.206
			c0,0,14.354-14.325,30.224,16.398C306.791,276.275,309.882,275.759,309.884,275.759z"/>
	</g>
</g>
</svg>
