<?xml version="1.0" encoding="utf-8"?>
<!-- Generator: Adobe Illustrator 15.0.0, SVG Export Plug-In . SVG Version: 6.00 Build 0)  -->
<!DOCTYPE svg PUBLIC "-//W3C//DTD SVG 1.1//EN" "http://www.w3.org/Graphics/SVG/1.1/DTD/svg11.dtd">
<svg version="1.1" id="Layer_1" xmlns="http://www.w3.org/2000/svg" xmlns:xlink="http://www.w3.org/1999/xlink" x="0px" y="0px"
	 width="98.284px" height="113.702px" viewBox="231.965 232.263 98.284 113.702"
	 enable-background="new 231.965 232.263 98.284 113.702" xml:space="preserve">
<g>
	<g>
		<g>
			<g>
				<path fill="#BF2328" d="M312.896,304.465l0.129-0.281c1.973-4.34,0.933-8.035-3.084-10.975
					c-7.35-5.768-16.724-8.684-27.865-8.684c-16.132,0-30.438,6.238-30.578,6.301c-6.193,2.457-5.459,8.768-5.452,8.836
					c0.018,0.209,0.052,0.406,0.089,0.602l0.03,0.17l-0.118,0.123c-0.571,0.596-2.301,2.902-0.451,7.424
					c0.004,0,0.603,1.026,1.995,2.486l0.107,0.115l-0.021,0.146c-0.473,4.295-1.971,18.715-1.274,25.107
					c0.865,0.643,6.456,4.715,10.061,5.59c0.096-2.812,0.679-18.799,2.079-23.25l0.113-0.348l0.333,0.143
					c6.656,2.799,14.684,4.301,23.867,4.455c0.01,0,0.398,0.014,1.094,0.014c5.173,0,22.623-0.689,29.988-9.576
					c-0.005,0.002,1.922-3.203,1.223-5.809c-0.279-1.045-0.95-1.865-1.994-2.441L312.896,304.465z"/>
				<g>
					<path fill="#010101" d="M258.303,305.957c4.282,3.679,14.202,5.613,14.202,5.613c1.804,0.344,1.572-1.695,1.572-1.695
						C266.568,310.062,258.303,305.957,258.303,305.957z"/>
					<path fill="#010101" d="M313.325,304.324c1.636-3.591,1.714-7.799-3.187-11.385c-23.154-18.157-58.777-2.414-58.777-2.414
						c-6.489,2.572-5.646,9.176-5.646,9.176c0.023,0.211,0.055,0.415,0.093,0.621c-0.548,0.574-2.466,3.027-0.524,7.787
						c0,0,0.602,1.051,2.066,2.587c-0.42,3.735-2.012,18.872-1.261,25.321c0,0,6.715,5.084,10.695,5.818
						c0,0,0.57-18.77,2.078-23.562c5.669,2.392,13.457,4.304,23.984,4.481c0,0,22.665,0.797,31.348-9.678
						C314.195,313.078,317.979,306.881,313.325,304.324z M254.565,339.63l-6.014-3.778c0,0-0.16-18.347,0.79-23.275
						c1.804,1.531,4.303,3.264,7.642,4.861C256.521,319.312,255.548,324.756,254.565,339.63z M313.236,308.737
						c0,0-0.857,10.349-27.412,11.642c-7.202,0.348-14.502-0.303-21.396-2.486c-5.79-1.834-14.367-5.215-17.173-11.139
						c-0.267-0.564-0.537-1.373-0.569-2.006c-0.016-0.326,0.233-1.013,0.331-1.496c3.533,5.566,12.959,9.239,12.959,9.239
						c-7.616-4.679-11.36-10.714-11.36-10.714l-0.119-0.24c-2.278-6.812,4.111-8.871,4.111-8.871
						c39.301-14.352,56.393,2.564,56.393,2.564c2.067,1.271,5.971,6.291-1.46,13.369c-7.425,7.078-31.985,8.168-31.985,8.168
						c18.957,3.002,31.071-4.276,31.071-4.276s3.272-2.541,5.552-6.083C312.744,306.805,313.333,307.516,313.236,308.737z"/>
				</g>
			</g>
		</g>
	</g>
	<g>
		<polygon fill="#F3D8B9" points="282.407,260.77 250.546,262.546 247.553,268.426 251.88,284.19 258.673,295.576 267.419,300.623 
			281.364,304.844 292.621,303.955 301.883,297.623 307.164,288.967 309.382,281.858 311.289,275.535 306.461,268.759 		"/>
		<g>
			<path fill="#010101" d="M304.363,292.611c-3.92,7.373-13.027,11.971-21.226,11.565c-2.865-0.143-5.839-0.774-8.573-1.642
				c-1.862-0.594-3.755-1.223-5.48-2.151c-4.633-2.297-7.98-4.616-7.98-4.616l1.099,3.447c25.267,17.076,40.4-0.09,40.4-0.09
				c7.963-9.076,8.687-19.822,8.687-19.822l-2.461-2.729c-0.482,6.043-2.293,12.225-4.326,15.809"/>
		</g>
		<g>
			<g>
				<path fill="#010101" d="M285.163,288.967c0,4.426-1.998,8.012-4.465,8.012c-2.463,0-4.462-3.586-4.462-8.012
					s1.999-8.015,4.462-8.015C283.165,280.952,285.163,284.541,285.163,288.967z"/>
				<path fill="#FFFFFF" d="M284.637,288.715c0,1.303-1.051,2.361-2.359,2.361c-1.302,0-2.357-1.059-2.357-2.361
					c0-1.307,1.055-2.363,2.357-2.363C283.586,286.352,284.637,287.408,284.637,288.715z"/>
			</g>
			<g>
				<path fill="#010101" d="M303.696,287.102c-0.13,3.645-1.886,6.541-3.916,6.471c-2.032-0.072-3.575-3.088-3.444-6.735
					c0.127-3.646,1.882-6.544,3.916-6.472C302.285,280.435,303.828,283.45,303.696,287.102z"/>
				<path fill="#FFFFFF" d="M303.25,286.76c-0.036,1.074-0.939,1.91-2.016,1.875c-1.072-0.037-1.914-0.939-1.871-2.016
					c0.037-1.074,0.939-1.914,2.013-1.879C302.449,284.783,303.287,285.686,303.25,286.76z"/>
			</g>
			<polygon fill="#010101" points="272.791,268.198 270.624,272.937 286.656,280.952 			"/>
			<polygon fill="#010101" points="301.582,270.312 305.792,273.534 296.634,280.457 			"/>
		</g>
		<g>
			<path fill="#BF2328" d="M305.801,289.322c-5.642,0-25.362,0.629-42.089,8.773c-0.448,0.215-1.208,0.779-1.65,1.123
				c7.129,4.978,14.302,7.503,21.334,7.503c10.198,0.001,16.541-5.415,16.602-5.469c3.069-2.682,5.616-5.927,7.577-9.636l0.141-0.27
				c0.557-0.977,0.81-1.592,0.904-1.975c-0.995-0.084-1.924-0.072-2.346-0.051H305.801L305.801,289.322z"/>
			<path fill="#010101" d="M279.258,299.903c5.519,1.202,15.164-1.823,15.164-1.823c1.751-0.555,0.572-2.244,0.572-2.244
				C288.483,299.578,279.258,299.903,279.258,299.903z"/>
			<path fill="#010101" d="M261.502,299.232c22.753,16.162,38.715,2.27,38.715,2.27c3.596-3.145,6.031-6.657,7.652-9.727
				l0.143-0.273c0.68-1.186,0.963-1.953,0.999-2.428c-1.533-0.148-2.354-0.104-2.769-0.084c-5.631-0.031-25.6,0.494-42.674,8.805
				C262.871,298.129,261.502,299.232,261.502,299.232z M302.627,295.539c-4.669,6.569-14.298,10.027-22.526,8.859
				c-2.877-0.407-5.815-1.288-8.484-2.367c-1.823-0.732-3.672-1.516-5.322-2.551c-0.042-0.029-0.083-0.055-0.124-0.08
				c3.11-1.708,15.892-7.859,38.938-7.91c-0.745,1.486-1.531,2.803-2.314,3.844L302.627,295.539z"/>
		</g>
		<g>
			<g>
				<path fill="#2B2C2B" d="M284.362,266.539c0.171,0.003,17.986,0.428,29.771,17.76c1.095-2.396,5.218-12.684-0.621-20.524
					l-0.729-0.973l1.124,0.471c9.439,3.945,13.725,14.762,14.993,18.671c1.207-8.038,1.34-15.285,0.414-22.113
					c-0.503-3.688-1.666-7.381-3.458-10.975c-1.956-3.929-6.676-7.76-10.976-8.906c-1.197-0.321-2.436-0.482-3.697-0.482
					c-3.211,0-6.426,1.03-9.288,2.983l-0.196,0.128l-0.189-0.136c-4.387-3.238-13.414-8.673-24.653-8.673
					c-4.252,0-8.45,0.801-12.49,2.367l-0.164,0.068l-0.359-0.252c-0.957-0.665-3.185-2.228-3.553-2.367
					c-1.287-0.473-3.034-0.736-4.917-0.736c-0.532,0-1.053,0.022-1.545,0.064c-7.062,0.611-14.155,7.134-14.884,13.689
					c-1.188,10.642,4.76,11.787,5.019,11.829l0.315,0.054l-0.043,0.322c-3.946,28.14,14.392,40.761,19.465,43.676l-0.877-1.194
					l0.333-0.261c-2.066-3.964-6.204-13.202-5.011-21.599c-1.137-0.583-6.157-3.326-6.92-6.624
					c-0.028-0.068-0.969-2.633,0.146-4.242c0.7-1.005,2.014-1.398,3.911-1.15c0.098,0.019,7.471,1.563,8.258,11.776
					C264.99,274.258,269.618,266.059,284.362,266.539z"/>
				<g>
					<path fill="#010101" d="M329.64,259.46c-0.525-3.848-1.753-7.599-3.483-11.073c-2.019-4.056-6.871-7.934-11.188-9.085
						c-4.594-1.227-9.399-0.08-13.264,2.547c-5.531-4.088-20.372-12.993-37.457-6.34c-1.097-0.769-3.408-2.394-3.847-2.552
						c-1.917-0.708-4.574-0.87-6.599-0.694c-6.896,0.595-14.406,6.954-15.188,13.984c-1.239,11.117,5.291,12.192,5.291,12.192
						c-4.627,33.037,20.925,44.705,20.925,44.705l-0.294-0.623c0,0-7.739-12.531-6.027-23.604c0,0-6.138-2.976-6.959-6.508
						c0,0-2.153-5.749,3.689-4.986c0,0,8.8,1.685,7.98,14.928c0.135-2.07,1.749-16.424,21.133-15.804
						c0,0,18.013,0.228,29.831,18.098c0,0,6.425-12.227-0.403-21.391c11.527,4.816,15.223,19.868,15.223,19.868
						C330.287,275.287,330.713,267.362,329.64,259.46z M326.945,273.533c0,0-3.894-12.217-15.668-12.956h-0.001h-0.001
						c-2.047-0.126-4.336,0.091-6.879,0.783h-0.006h0.003c-0.896,0.243-1.823,0.542-2.782,0.906
						c1.545-0.309,3.002-0.454,4.391-0.477c3.327,1.157,10.467,5.18,7.937,18.088c0,0-13.713-15.558-30.466-15.832
						c0,0-13.605-0.978-18.843,9.142c0,0-2.396-7.255-11.036-8.113c0,0-5.955-0.278-4.353,7.537c0,0,2.214,4.936,6.405,7.54
						c0,0,1.06,10.577,3.571,15.682c-8.349-3.609-11.961-18.731-11.961-18.731c-3.584-19.979,4.128-28.238,4.128-28.238
						c-4.231,2.415-6.418,7.097-6.418,7.097c-3.54-0.817-3.485-6.39-3.485-6.39c-1.258-7.202,7.486-12.561,7.486-12.561
						c6.216-3.691,11.242-1.472,12.928-0.493c-1.626,0.765-3.273,1.67-4.926,2.742c0,0,23.915-8.017,42.28,4.447h0.073
						c-1.597,1.374-3.147,2.981-4.269,4.631c-0.352,0.517-0.688,1.436-1.164,1.852c0.01-0.007,12.723-11.088,25.193-5.245
						C319.082,244.944,328.897,248.767,326.945,273.533z"/>
					<path fill="#1A191A" d="M263.218,282.353c-0.01,0.163-0.012,0.259-0.012,0.259
						C263.211,282.524,263.213,282.444,263.218,282.353z"/>
				</g>
			</g>
		</g>
	</g>
</g>
</svg>
