<?xml version="1.0" encoding="utf-8"?>
<!-- Generator: Adobe Illustrator 15.0.0, SVG Export Plug-In . SVG Version: 6.00 Build 0)  -->
<!DOCTYPE svg PUBLIC "-//W3C//DTD SVG 1.1//EN" "http://www.w3.org/Graphics/SVG/1.1/DTD/svg11.dtd">
<svg version="1.1" id="Layer_1" xmlns="http://www.w3.org/2000/svg" xmlns:xlink="http://www.w3.org/1999/xlink" x="0px" y="0px"
	 width="30.091px" height="15.985px" viewBox="269.078 275.556 30.091 15.985"
	 enable-background="new 269.078 275.556 30.091 15.985" xml:space="preserve">
<g>
	<path fill="#BF2328" d="M290.816,289.057h-13.162h-5.152c1.844-2.803,3.515-5.939,5.769-8.434c1.398-1.542,3.481-2.845,5.613-2.891
		c3.636-0.077,5.775,1.863,7.638,4.646c1.129,1.689,2.459,3.647,3.576,5.349c0.092,0.139,0.701,1.33,0.873,1.33H290.816z"/>
	<g>
		<path fill="#010101" d="M297.234,286.298c-1.737-2.228-3.52-4.414-5.316-6.588c-1.938-2.342-4.246-4.238-7.539-4.154
			c-1.305,0.031-2.697,0.326-3.881,0.881c-4.57,2.141-7.138,7.207-9.843,11.175c-0.502,0.732-2.946,3.823-0.576,3.808
			c2.629-0.015,27.155,0.383,28.213-0.183C300.422,290.099,298.119,287.433,297.234,286.298z M290.502,288.791h-12.531h-4.91
			c1.755-2.673,3.348-5.66,5.496-8.036c1.328-1.469,3.312-2.708,5.348-2.756c3.461-0.074,5.496,1.778,7.27,4.426
			c1.08,1.611,2.343,3.476,3.406,5.098c0.09,0.129,0.67,1.269,0.832,1.269H290.502z"/>
	</g>
</g>
</svg>
