<?xml version="1.0" encoding="utf-8"?>
<!-- Generator: Adobe Illustrator 15.0.0, SVG Export Plug-In . SVG Version: 6.00 Build 0)  -->
<!DOCTYPE svg PUBLIC "-//W3C//DTD SVG 1.1//EN" "http://www.w3.org/Graphics/SVG/1.1/DTD/svg11.dtd">
<svg version="1.1" id="Layer_1" xmlns="http://www.w3.org/2000/svg" xmlns:xlink="http://www.w3.org/1999/xlink" x="0px" y="0px"
	 width="32.646px" height="29.258px" viewBox="264.844 266.984 32.646 29.258"
	 enable-background="new 264.844 266.984 32.646 29.258" xml:space="preserve">
<g>
	<path fill="#BF2328" d="M294.867,281.211c-0.07-0.146-1.688-3.487-9.304-5.017l-0.856-6.965l-0.79,0.299
		c-0.563,0.212-13.785,5.181-15.748,6.438l-0.748,0.481l2.298,1.988l0,0l3.701,3.213c-3.243,8.252,2.098,11.424,2.121,11.436
		c1.441,0.935,3.046,1.407,4.778,1.407l0,0c2.851-0.001,5.022-1.291,5.087-1.33c4.65-2.534,5.922-6.902,6.266-9.342
		c0.246,0.633,0.289,1.405,0.121,2.302l-0.221,1.415l1.109-0.655c0.525-0.01,1.949-0.15,2.65-1.291
		C295.965,284.566,295.807,283.083,294.867,281.211z"/>
	<path fill="#010101" d="M296.158,279.94c-3.803-4.19-8.67-5.092-8.67-5.092l-1.127-7.864c-8.542,1.916-20.764,9.149-20.764,9.149
		l-0.754,0.391l6.512,5.519l0.03,0.016c-0.344,1.059-1.328,4.664-0.146,8.076c0,0,2.365,7.008,10.074,6.107
		c0,0,7.637-0.377,10.397-7.662l0.02,0.08c3.093,0.02,4.409-1.641,4.409-1.641C299.184,284.353,296.158,279.94,296.158,279.94z
		 M284.147,270.151l0.2,1.627c-3.131,1.147-12.173,5.357-14.083,6.249l-1.737-1.504
		C270.454,275.289,284.147,270.151,284.147,270.151z M292.502,286.211l-0.057,0.031c0.238-1.267,0.213-3.04-1.318-4.18
		c0,0,0.242,7.084-6.041,10.513c0,0-4.72,2.845-9.184-0.05c0,0-5.115-2.928-1.681-11.074l-3.358-2.907
		c5.421-3.107,12.219-5.553,13.577-6.027l0.521,4.241c7.783,1.435,9.301,4.731,9.301,4.731
		C296.76,286.477,292.502,286.211,292.502,286.211z"/>
</g>
</svg>
