<?xml version="1.0" encoding="utf-8"?>
<!-- Generator: Adobe Illustrator 15.0.0, SVG Export Plug-In . SVG Version: 6.00 Build 0)  -->
<!DOCTYPE svg PUBLIC "-//W3C//DTD SVG 1.1//EN" "http://www.w3.org/Graphics/SVG/1.1/DTD/svg11.dtd">
<svg version="1.1" id="Layer_1" xmlns="http://www.w3.org/2000/svg" xmlns:xlink="http://www.w3.org/1999/xlink" x="0px" y="0px"
	 width="24.208px" height="49.361px" viewBox="0 0 24.208 49.361" enable-background="new 0 0 24.208 49.361" xml:space="preserve">
<g>
	<g>
		<path fill="#2B2C2B" d="M11.672,1.886c-0.676,0.1-1.391,0.242-2.125,0.425C2.323,4.077,2.813,12.898,3.174,19.343l0.037,0.736
			c0.108,1.995,0.162,4.02,0.221,5.973c0.052,1.856,0.104,3.773,0.201,5.648c0.203,3.925,0.65,8.523,2.441,12.882
			c0.356,0.874,1.588,1.638,2.639,2.001c1.468,0.51,3.316,0.725,5.346,0.626c0.645-0.029,1.49-0.083,2.333-0.209
			c1.832-0.275,3.073-0.812,3.794-1.652c1.346-1.56,1.793-4.28,2.055-6.734c0.379-3.54,0.232-7.177,0.094-10.688
			c-0.101-2.43-0.199-4.938-0.133-7.437c0.012-0.531,0.027-1.065,0.049-1.603c0.125-3.892,0.254-7.92-0.867-11.564
			c-0.815-2.647-2.773-4.745-4.987-5.352C15.144,1.63,13.553,1.602,11.672,1.886z"/>
	</g>
	<g>
		<path fill="#010101" d="M16.688,48.94L16.688,48.94c-0.932,0.141-1.839,0.197-2.525,0.23c-1.609,0.077-3.986,0.011-6.186-0.75
			c-0.746-0.261-3.257-1.278-4.146-3.444c-1.889-4.597-2.354-9.333-2.561-13.359c-0.098-1.85-0.146-3.724-0.204-5.533
			c-0.05-1.883-0.103-3.825-0.207-5.72l-0.042-0.712C0.447,12.881-0.125,2.649,9.025,0.406c3.151-0.772,5.875-0.884,7.972-0.312
			c3.051,0.836,5.61,3.506,6.678,6.969c1.219,3.959,1.09,8.089,0.957,12.083c-0.016,0.516-0.031,1.03-0.045,1.542
			c-0.065,2.331,0.035,4.718,0.125,7.023c0.139,3.502,0.283,7.123-0.102,10.748c-0.297,2.79-0.84,5.92-2.623,7.985
			C20.857,47.756,19.122,48.576,16.688,48.94z M11.719,2.587c-0.653,0.096-1.35,0.231-2.059,0.408
			c-7,1.717-6.529,10.265-6.18,16.505l0.041,0.714c0.104,1.938,0.159,3.896,0.211,5.789c0.055,1.802,0.104,3.657,0.199,5.477
			c0.195,3.804,0.63,8.261,2.363,12.482c0.351,0.846,1.537,1.585,2.563,1.941c1.415,0.489,3.206,0.698,5.175,0.606
			c0.627-0.033,1.445-0.082,2.262-0.205c1.775-0.27,2.979-0.791,3.674-1.597c1.308-1.517,1.74-4.153,1.99-6.532
			c0.365-3.428,0.227-6.954,0.088-10.357c-0.09-2.351-0.19-4.786-0.125-7.206c0.013-0.514,0.031-1.031,0.049-1.552
			c0.123-3.777,0.244-7.676-0.844-11.208c-0.789-2.567-2.686-4.601-4.83-5.188C15.084,2.337,13.545,2.312,11.719,2.587z"/>
	</g>
</g>
</svg>
