<?xml version="1.0" encoding="utf-8"?>
<!-- Generator: Adobe Illustrator 15.0.0, SVG Export Plug-In . SVG Version: 6.00 Build 0)  -->
<!DOCTYPE svg PUBLIC "-//W3C//DTD SVG 1.1//EN" "http://www.w3.org/Graphics/SVG/1.1/DTD/svg11.dtd">
<svg version="1.1" id="Layer_1" xmlns="http://www.w3.org/2000/svg" xmlns:xlink="http://www.w3.org/1999/xlink" x="0px" y="0px"
	 width="20.326px" height="44.202px" viewBox="272.289 260.637 20.326 44.202"
	 enable-background="new 272.289 260.637 20.326 44.202" xml:space="preserve">
<g>
	<g>
		<path fill="#2B2C2B" d="M282.905,261.967c-0.657,0-1.335,0.098-2.028,0.292c-1.103,0.306-2.017,0.946-2.787,1.967
			c-1.937,2.552-2.537,6.911-2.973,10.089c-0.066,0.471-0.128,0.915-0.193,1.338c-0.687,4.652-0.644,9.766,0.134,15.208
			c0.672,4.696,3.23,12.648,8.55,12.648l0,0c0.95,0,1.992-0.253,3.087-0.749c3.666-1.662,3.863-5.614,3.737-10.601
			c-0.042-1.773-0.233-3.581-0.421-5.325c-0.277-2.595-0.566-5.28-0.398-8.034c0.047-0.717,0.1-1.435,0.156-2.157
			c0.279-3.508,0.535-6.824-0.637-9.895C287.969,263.71,285.703,261.967,282.905,261.967z"/>
	</g>
	<g>
		<path fill="#010101" d="M283.531,304.839L283.531,304.839c-6.359-0.002-9.703-7.609-10.637-14.124
			c-0.763-5.347-0.804-10.394-0.123-15.002c0.06-0.383,0.116-0.79,0.174-1.221c0.454-3.269,1.069-7.744,3.304-10.687
			c1.072-1.418,2.423-2.358,4.015-2.801c0.88-0.245,1.759-0.367,2.612-0.367c3.726,0,6.835,2.311,8.316,6.186
			c1.316,3.436,1.037,6.984,0.762,10.419c-0.051,0.657-0.098,1.319-0.137,1.973c-0.145,2.351,0.097,4.646,0.361,7.072
			c0.178,1.687,0.364,3.435,0.406,5.199c0.105,4.223,0.246,10.003-5.059,12.412C286.15,304.522,284.811,304.839,283.531,304.839z
			 M282.875,263.299c-0.613,0-1.25,0.089-1.9,0.271c-1.031,0.286-1.881,0.885-2.604,1.842c-1.811,2.387-2.377,6.466-2.788,9.443
			c-0.06,0.439-0.113,0.856-0.175,1.249c-0.647,4.354-0.606,9.137,0.123,14.232c0.628,4.396,3.023,11.839,7.999,11.839l0,0
			c0.893,0,1.866-0.237,2.893-0.701c3.428-1.558,3.613-5.254,3.494-9.925c-0.041-1.657-0.219-3.348-0.395-4.98
			c-0.26-2.432-0.525-4.944-0.369-7.514c0.039-0.674,0.092-1.349,0.148-2.026c0.256-3.281,0.5-6.382-0.602-9.257
			C287.615,264.93,285.49,263.299,282.875,263.299z"/>
	</g>
</g>
</svg>
