<?xml version="1.0" encoding="utf-8"?>
<!-- Generator: Adobe Illustrator 15.0.0, SVG Export Plug-In . SVG Version: 6.00 Build 0)  -->
<!DOCTYPE svg PUBLIC "-//W3C//DTD SVG 1.1//EN" "http://www.w3.org/Graphics/SVG/1.1/DTD/svg11.dtd">
<svg version="1.1" id="Layer_1" xmlns="http://www.w3.org/2000/svg" xmlns:xlink="http://www.w3.org/1999/xlink" x="0px" y="0px"
	 width="30.108px" height="15.986px" viewBox="268.539 275.245 30.108 15.986"
	 enable-background="new 268.539 275.245 30.108 15.986" xml:space="preserve">
<g>
	<path fill="#BF2328" d="M290.297,288.746h-13.165h-5.15c1.844-2.802,3.512-5.939,5.77-8.433c1.397-1.542,3.478-2.844,5.611-2.891
		c3.636-0.077,5.771,1.864,7.639,4.646c1.13,1.689,2.456,3.647,3.575,5.349c0.09,0.14,0.701,1.329,0.87,1.329
		C295.445,288.746,290.297,288.746,290.297,288.746z"/>
	<g>
		<path fill="#010101" d="M296.713,285.988c-1.736-2.228-3.518-4.415-5.312-6.589c-1.938-2.342-4.252-4.239-7.541-4.155
			c-1.307,0.032-2.699,0.327-3.885,0.881c-4.567,2.14-7.139,7.207-9.844,11.175c-0.502,0.732-2.942,3.823-0.576,3.808
			c2.635-0.015,27.16,0.384,28.215-0.183C299.897,289.789,297.598,287.123,296.713,285.988z M289.982,288.481h-12.536h-4.905
			c1.753-2.673,3.344-5.66,5.49-8.036c1.333-1.469,3.315-2.708,5.346-2.756c3.462-0.074,5.501,1.779,7.276,4.426
			c1.078,1.61,2.343,3.475,3.405,5.097c0.086,0.129,0.67,1.269,0.828,1.269H289.982z"/>
	</g>
</g>
</svg>
