<?xml version="1.0" encoding="utf-8"?>
<!-- Generator: Adobe Illustrator 15.0.0, SVG Export Plug-In . SVG Version: 6.00 Build 0)  -->
<!DOCTYPE svg PUBLIC "-//W3C//DTD SVG 1.1//EN" "http://www.w3.org/Graphics/SVG/1.1/DTD/svg11.dtd">
<svg version="1.1" id="Layer_1" xmlns="http://www.w3.org/2000/svg" xmlns:xlink="http://www.w3.org/1999/xlink" x="0px" y="0px"
	 width="29.437px" height="29.347px" viewBox="267.535 267.296 29.437 29.347"
	 enable-background="new 267.535 267.296 29.437 29.347" xml:space="preserve">
<g>
	<path fill="#BF2328" d="M294.366,282.747c0.044-0.064,0.985-1.509,0.256-3.099c-0.741-1.61-2.883-2.677-6.377-3.169l-0.849-6.934
		l-0.795,0.299c-0.561,0.21-13.785,5.172-15.746,6.434l-0.748,0.479l2.296,1.989l0,0l3.707,3.209
		c-3.243,8.256,2.094,11.429,2.117,11.441c1.442,0.935,3.045,1.408,4.775,1.408c2.85,0,5.024-1.288,5.09-1.334
		c3.602-1.963,5.15-5.065,5.817-7.324l0.372-1.262l-1.239,0.446c-0.531,0.193-1.073,0.297-1.614,0.31
		c-0.128,0.003-0.256,0.003-0.389,0.003c-0.475,0-1.106-0.02-1.72-0.158C291.675,285.424,293.425,284.463,294.366,282.747z"/>
	<path fill="#010101" d="M296.641,279.367c-0.901-2.322-4.237-3.611-6.468-4.206l-0.071-0.536l-1.053-7.329
		c-8.546,1.922-20.769,9.153-20.769,9.153l-0.745,0.393l6.507,5.513l0.031,0.016c-0.344,1.06-1.332,4.667-0.145,8.081
		c0,0,2.365,7.011,10.077,6.111c1.177-0.141,2.326-0.352,3.432-0.797c2.314-0.924,4.68-2.523,5.972-4.691
		c0.666-1.114,1.517-2.878,1.767-4.558c0.089-0.588,0.104-1.164,0.014-1.699C296.681,283.504,297.459,281.471,296.641,279.367z
		 M271.215,276.841c1.924-1.234,15.619-6.374,15.619-6.374l0.204,1.628c-3.134,1.146-12.175,5.354-14.084,6.248L271.215,276.841z
		 M287.775,292.89c0,0-4.722,2.846-9.182-0.05c0,0-5.121-2.926-1.688-11.071l-3.361-2.908c5.427-3.109,12.224-5.554,13.582-6.031
		l0.474,3.843l0.048,0.397c8.975,1.094,6.165,5.304,6.165,5.304c-2.193,4.001-8.074,1.892-8.076,1.892
		c1.129,0.983,1.72,1.219,2.672,1.623c0.931,0.396,2.037,0.442,3.034,0.414c0.635-0.012,1.246-0.135,1.828-0.344
		C292.602,288.229,291.102,291.071,287.775,292.89z"/>
</g>
</svg>
