<?xml version="1.0" encoding="utf-8"?>
<!-- Generator: Adobe Illustrator 15.0.0, SVG Export Plug-In . SVG Version: 6.00 Build 0)  -->
<!DOCTYPE svg PUBLIC "-//W3C//DTD SVG 1.1//EN" "http://www.w3.org/Graphics/SVG/1.1/DTD/svg11.dtd">
<svg version="1.1" id="Layer_1" xmlns="http://www.w3.org/2000/svg" xmlns:xlink="http://www.w3.org/1999/xlink" x="0px" y="0px"
	 width="24.232px" height="49.375px" viewBox="272.75 258.167 24.232 49.375" enable-background="new 272.75 258.167 24.232 49.375"
	 xml:space="preserve">
<g>
	<g>
		<path fill="#2B2C2B" d="M284.53,260.222c-0.681,0.066-1.4,0.178-2.142,0.324c-7.302,1.429-7.217,10.264-7.163,16.716l0.003,0.738
			c0.017,1.998-0.022,4.019-0.057,5.976c-0.036,1.858-0.071,3.775-0.063,5.655c0.02,3.924,0.252,8.542,1.84,12.979
			c0.317,0.889,1.505,1.707,2.546,2.122c1.441,0.58,3.274,0.878,5.305,0.876c0.648-0.005,1.492-0.017,2.34-0.101
			c1.843-0.19,3.109-0.674,3.866-1.475c1.419-1.493,1.992-4.19,2.365-6.63c0.545-3.521,0.566-7.159,0.592-10.679
			c0.015-2.426,0.036-4.938,0.218-7.432c0.038-0.527,0.081-1.062,0.124-1.597c0.307-3.882,0.624-7.901-0.327-11.596
			c-0.692-2.678-2.55-4.866-4.731-5.574C288.012,260.126,286.425,260.024,284.53,260.222z"/>
	</g>
	<g>
		<path fill="#010101" d="M287.346,307.461L287.346,307.461c-0.938,0.098-1.846,0.106-2.533,0.11
			c-1.607,0.007-3.98-0.177-6.139-1.036c-0.733-0.295-3.199-1.43-3.988-3.635c-1.672-4.678-1.914-9.435-1.936-13.463
			c-0.006-1.854,0.028-3.73,0.063-5.545c0.032-1.875,0.07-3.816,0.057-5.72l-0.009-0.711c-0.062-6.783-0.151-17.03,9.094-18.843
			c3.186-0.62,5.912-0.605,7.978,0.066c3.008,0.97,5.438,3.758,6.344,7.273c1.037,4.008,0.709,8.125,0.393,12.113
			c-0.043,0.515-0.078,1.022-0.115,1.529c-0.173,2.329-0.188,4.72-0.202,7.026c-0.025,3.51-0.052,7.134-0.606,10.735
			c-0.424,2.771-1.113,5.87-2.992,7.857C291.566,306.473,289.797,307.208,287.346,307.461z M284.545,260.924
			c-0.657,0.062-1.354,0.17-2.074,0.313c-7.074,1.387-6.999,9.947-6.941,16.204l0.004,0.714c0.017,1.933-0.018,3.893-0.057,5.789
			c-0.032,1.801-0.066,3.657-0.057,5.478c0.016,3.807,0.24,8.28,1.78,12.581c0.308,0.858,1.46,1.652,2.466,2.058
			c1.397,0.559,3.174,0.848,5.146,0.848c0.621-0.002,1.445-0.016,2.262-0.102c1.793-0.183,3.019-0.646,3.748-1.423
			c1.376-1.45,1.932-4.065,2.297-6.427c0.521-3.414,0.545-6.939,0.569-10.348c0.019-2.354,0.03-4.789,0.214-7.202
			c0.037-0.516,0.079-1.029,0.115-1.549c0.3-3.767,0.607-7.66-0.312-11.239c-0.674-2.599-2.472-4.716-4.587-5.403
			C287.919,260.834,286.381,260.73,284.545,260.924z"/>
	</g>
</g>
</svg>
