<?xml version="1.0" encoding="utf-8"?>
<!-- Generator: Adobe Illustrator 15.0.0, SVG Export Plug-In . SVG Version: 6.00 Build 0)  -->
<!DOCTYPE svg PUBLIC "-//W3C//DTD SVG 1.1//EN" "http://www.w3.org/Graphics/SVG/1.1/DTD/svg11.dtd">
<svg version="1.1" id="Layer_1" xmlns="http://www.w3.org/2000/svg" xmlns:xlink="http://www.w3.org/1999/xlink" x="0px" y="0px"
	 width="24.427px" height="49.311px" viewBox="272.833 258.229 24.427 49.311"
	 enable-background="new 272.833 258.229 24.427 49.311" xml:space="preserve">
<g>
	<g>
		<path fill="#2B2C2B" d="M285.064,260.249c-0.683,0.052-1.403,0.147-2.148,0.277c-7.332,1.27-7.44,10.104-7.526,16.555
			l-0.014,0.738c-0.026,1.997-0.109,4.018-0.187,5.974c-0.077,1.856-0.153,3.772-0.188,5.652c-0.066,3.924,0.065,8.545,1.555,13.016
			c0.298,0.896,1.468,1.74,2.5,2.178c1.427,0.611,3.254,0.949,5.285,0.992c0.648,0.01,1.493,0.016,2.342-0.05
			c1.847-0.149,3.123-0.605,3.897-1.39c1.451-1.463,2.084-4.146,2.51-6.576c0.621-3.508,0.723-7.145,0.824-10.664
			c0.068-2.426,0.145-4.936,0.381-7.425c0.05-0.527,0.104-1.06,0.158-1.594c0.392-3.875,0.797-7.886-0.074-11.601
			c-0.633-2.693-2.441-4.92-4.607-5.676C288.547,260.23,286.963,260.093,285.064,260.249z"/>
	</g>
	<g>
		<path fill="#010101" d="M286.848,307.539L286.848,307.539c-0.94,0.078-1.849,0.066-2.535,0.055
			c-1.607-0.029-3.976-0.263-6.115-1.17c-0.727-0.311-3.167-1.5-3.907-3.722c-1.569-4.714-1.708-9.474-1.641-13.503
			c0.034-1.854,0.108-3.727,0.184-5.541c0.073-1.873,0.153-3.814,0.182-5.717l0.007-0.71c0.086-6.783,0.22-17.03,9.504-18.64
			c3.198-0.55,5.923-0.477,7.976,0.241c2.984,1.035,5.354,3.876,6.182,7.41c0.949,4.029,0.531,8.14,0.127,12.118
			c-0.052,0.514-0.1,1.021-0.146,1.526c-0.225,2.324-0.291,4.716-0.357,7.021c-0.102,3.508-0.207,7.13-0.842,10.719
			c-0.482,2.762-1.24,5.844-3.162,7.791C291.088,306.643,289.305,307.34,286.848,307.539z M285.064,260.952
			c-0.659,0.047-1.359,0.141-2.081,0.268c-7.103,1.232-7.215,9.792-7.293,16.048l-0.012,0.714c-0.026,1.933-0.103,3.892-0.184,5.787
			c-0.071,1.8-0.146,3.655-0.177,5.476c-0.066,3.805,0.06,8.281,1.505,12.615c0.289,0.865,1.424,1.685,2.42,2.111
			c1.385,0.589,3.154,0.918,5.125,0.961c0.622,0.012,1.446,0.016,2.265-0.053c1.796-0.143,3.031-0.578,3.777-1.34
			c1.408-1.42,2.021-4.022,2.438-6.375c0.596-3.402,0.697-6.926,0.795-10.333c0.07-2.354,0.135-4.787,0.371-7.195
			c0.049-0.515,0.102-1.027,0.15-1.546c0.381-3.759,0.773-7.645-0.067-11.243c-0.618-2.613-2.369-4.769-4.47-5.502
			C288.439,260.936,286.904,260.799,285.064,260.952z"/>
	</g>
</g>
</svg>
